<svg id="earth" xmlns="http://www.w3.org/2000/svg" width="20" height="20" viewBox="0 0 20 20">
  <defs>
    <style>
      .cls-1 {
        fill: #5ac3ff;
      }

      .cls-2 {
        fill: #46a2de;
      }

      .cls-3 {
        fill: #a5ff7d;
      }

      .cls-4 {
        fill: #91e178;
      }
    </style>
  </defs>
  <circle id="Ellipse_1531" data-name="Ellipse 1531" class="cls-1" cx="9.999" cy="9.999" r="9.999" transform="translate(0.002 0.002)"/>
  <path id="Path_47237" data-name="Path 47237" class="cls-2" d="M13.927,17.141A8.929,8.929,0,0,1,10.4.01C10.268,0,10.134,0,10,0a10,10,0,1,0,7.79,16.265A8.892,8.892,0,0,1,13.927,17.141Z"/>
  <g id="Group_38113" data-name="Group 38113" transform="translate(4.138 0.108)">
    <path id="Path_47238" data-name="Path 47238" class="cls-3" d="M121.624,10.909a10,10,0,0,0-8.4-8.157l.68.83a.343.343,0,0,1,.05.352l-.463,1.084a.156.156,0,0,1-.271.029l-.434-.611a.345.345,0,0,0-.3-.145l-.464.022a.529.529,0,0,0-.415.235l-1.282,1.918a.3.3,0,0,0,.192.461l.594.115a.416.416,0,0,0,.469-.264l.291-.785a.3.3,0,0,1,.519-.082l.264.333L112.509,7.3a.156.156,0,0,1-.132.132l-1.349.2a.358.358,0,0,0-.159.065l-1.329.973a.7.7,0,0,0-.268.4l-.128.54a.345.345,0,0,1-.377.263l-.6-.073a.345.345,0,0,0-.365.222l-.336.9a.345.345,0,0,0,.228.451l.758.218a.4.4,0,0,0,.479-.222l.491-1.084a.69.69,0,0,1,.418-.372l.811-.259,1.091,1.324-.1.308a.357.357,0,0,0,.224.453.353.353,0,0,0,.114.019.358.358,0,0,0,.338-.243l.1-.308a.7.7,0,0,0-.122-.669l-.915-1.117.235-.075.776.482a.714.714,0,0,1,.323.461l.175.84a.357.357,0,0,0,.349.284.366.366,0,0,0,.073-.008.357.357,0,0,0,.277-.422l-.09-.478a.3.3,0,0,1,.253-.353h0A.3.3,0,0,0,114,9.921l.171-.845a.345.345,0,0,1,.357-.248l.175.013a.341.341,0,0,0,.262-.094.326.326,0,0,1,.251-.1l.542.047a.345.345,0,0,1,.226.249l.052.225a.345.345,0,0,1-.239.409l-1.556.457a.252.252,0,0,0-.117.408l.144.163a.308.308,0,0,0,.257.1l.9-.076a.345.345,0,0,1,.367.276l.046.23a.69.69,0,0,1-.622.823l-1.742.138a.311.311,0,0,0-.275.4.312.312,0,0,1-.4.389l-1.3-.434a.49.49,0,0,1-.329-.387v0a.49.49,0,0,0-.5-.412l-1.231.03a3.389,3.389,0,0,0-1.281.286l-.429.189a.69.69,0,0,0-.411.606l-.013.344-1.237,1.414a.689.689,0,0,0-.171.454v1.514a1.034,1.034,0,0,0,.316.744l1.087,1.049a1.034,1.034,0,0,0,.629.286l3.259.281a.357.357,0,0,1,.324.4l-.019.152a.69.69,0,0,0,.273.639l.8.593-.123.4a.69.69,0,0,0,.213.731l.848.732a10.016,10.016,0,0,0,2.391-.738l1.321-1.585a3.446,3.446,0,0,0,.521-.845l1.469-3.4a.557.557,0,0,0-.5-.782,1.428,1.428,0,0,1-1.108-.514l-1.464-1.757a.357.357,0,0,1,.549-.457l1.465,1.757a.714.714,0,0,0,.515.256.638.638,0,0,0,.536-.329l.852-1.691a.345.345,0,0,0-.111-.438L119.7,11.8a.21.21,0,0,1-.058-.285l.121-.191a.69.69,0,0,1,1.066-.124l.928.91A10.071,10.071,0,0,0,121.624,10.909Z" transform="translate(-105.913 -2.752)"/>
    <path id="Path_47239" data-name="Path 47239" class="cls-3" d="M169.945,98.822a.357.357,0,0,1-.246-.616l.317-.3-.012-.77a.357.357,0,0,1,.352-.363h.006a.357.357,0,0,1,.357.352l.014.927a.357.357,0,0,1-.111.265l-.431.409A.355.355,0,0,1,169.945,98.822Z" transform="translate(-167.1 -93.099)"/>
  </g>
  <g id="Group_38114" data-name="Group 38114" transform="translate(4.138 0.28)">
    <path id="Path_47240" data-name="Path 47240" class="cls-4" d="M107.61,9.778l1.858-.923a7.861,7.861,0,0,0,.939-.551l.465-.318a.357.357,0,0,0,.112-.465l-.185-.341a9.944,9.944,0,0,0-3.06,1.3l-.388,1.034A.194.194,0,0,0,107.61,9.778Z" transform="translate(-107.273 -7.179)"/>
    <path id="Path_47241" data-name="Path 47241" class="cls-4" d="M115.7,280a8.931,8.931,0,0,1-8.581-6.455l-1.038,1.187a.689.689,0,0,0-.171.454V276.7a1.034,1.034,0,0,0,.316.744l1.087,1.049a1.034,1.034,0,0,0,.629.286l3.259.281a.357.357,0,0,1,.324.4l-.019.152a.69.69,0,0,0,.273.639l.8.593-.123.4a.69.69,0,0,0,.213.731l.847.732a9.918,9.918,0,0,0,2.4-.743l1.316-1.58a3.449,3.449,0,0,0,.4-.591A8.949,8.949,0,0,1,115.7,280Z" transform="translate(-105.914 -263.136)"/>
  </g>
</svg>
