<svg id="saturn" xmlns="http://www.w3.org/2000/svg" width="20" height="20.014" viewBox="0 0 20 20.014">
  <defs>
    <style>
      .cls-1 {
        fill: #ffdc6e;
      }

      .cls-2 {
        fill: #ffc85f;
      }

      .cls-3 {
        fill: #dccd87;
      }

      .cls-4 {
        fill: #bec396;
      }

      .cls-5 {
        fill: #d7c378;
      }

      .cls-6 {
        fill: #afb48c;
      }

      .cls-7 {
        fill: #e4be82;
      }

      .cls-8 {
        fill: #d7af78;
      }

      .cls-9 {
        fill: #e8e8dc;
      }

      .cls-10 {
        fill: #d7d2be;
      }
    </style>
  </defs>
  <path id="Path_48686" data-name="Path 48686" class="cls-1" d="M6.1,0A6.1,6.1,0,1,1,0,6.1,6.09,6.09,0,0,1,6.1,0Z" transform="translate(3.903 3.906)"/>
  <path id="Path_47282" data-name="Path 47282" class="cls-2" d="M4.708,10.878A5.451,5.451,0,0,1,10.58,1.962c-.055-.06-.111-.12-.169-.178a6.1,6.1,0,1,0-3.66,10.381A5.413,5.413,0,0,1,4.708,10.878Z" transform="translate(3.903 3.906)"/>
  <path id="Path_47283" data-name="Path 47283" class="cls-3" d="M0,.895,8.367,9.268A6.087,6.087,0,0,0,0,.895Z" transform="translate(6.831 3.91)"/>
  <path id="Path_47284" data-name="Path 47284" class="cls-4" d="M0,.02,6.564,6.589A6.081,6.081,0,0,0,0,.02Z" transform="translate(9.509 3.909)"/>
  <path id="Path_47285" data-name="Path 47285" class="cls-5" d="M0,.895l2.039,2.04a5.445,5.445,0,0,1,5.609-.978c-.056-.059-.108-.119-.165-.177A6.089,6.089,0,0,0,0,.895Z" transform="translate(6.831 3.91)"/>
  <path id="Path_47286" data-name="Path 47286" class="cls-6" d="M1.7,1.717a5.455,5.455,0,0,1,3.269.236c-.056-.059-.108-.119-.165-.177A6.057,6.057,0,0,0,0,.021Z" transform="translate(9.515 3.914)"/>
  <path id="Path_47287" data-name="Path 47287" class="cls-7" d="M9.262,8.373.894,0A6.087,6.087,0,0,0,9.262,8.373Z" transform="translate(3.907 6.836)"/>
  <path id="Path_47288" data-name="Path 47288" class="cls-8" d="M1.779,7.488A6.075,6.075,0,0,0,6.747,9.235,5.441,5.441,0,0,1,3.364,2.471L.894,0A6.1,6.1,0,0,0,1.779,7.488Z" transform="translate(3.907 6.836)"/>
  <path id="Path_47289" data-name="Path 47289" class="cls-6" d="M1.753,3.786A6.057,6.057,0,0,0,5.541,5.545L0,0A6.051,6.051,0,0,0,1.753,3.786Z" transform="translate(3.933 10.538)"/>
  <path id="Path_47290" data-name="Path 47290" class="cls-9" d="M18.619,15.077A31.5,31.5,0,0,0,15.952,11.3a6.078,6.078,0,0,1-.529,1.485c.286.393.553.779.788,1.151,2.169,3.433,1.146,4.456-2.284,2.285A38.762,38.762,0,0,1,3.789,6.077C1.62,2.645,2.643,1.621,6.073,3.792c.371.235.757.5,1.15.788a6.069,6.069,0,0,1,1.484-.53A31.488,31.488,0,0,0,4.933,1.382C.173-1.419-1.418.173,1.381,4.936a45.542,45.542,0,0,0,13.686,13.7C19.827,21.432,21.418,19.841,18.619,15.077Z" transform="translate(0 0)"/>
  <path id="Path_47291" data-name="Path 47291" class="cls-10" d="M14.334,10.851a5.938,5.938,0,0,1-.258.587c.286.393.553.779.788,1.151,2.169,3.433,1.146,4.456-2.284,2.285A38.762,38.762,0,0,1,2.442,4.729C.273,1.3,1.3.273,4.725,2.443c.371.235.757.5,1.15.788a5.923,5.923,0,0,1,.586-.259A27.463,27.463,0,0,0,4.092,1.3C.032-1.219-1.218.032,1.3,4.095a43.817,43.817,0,0,0,11.912,11.92c4.06,2.52,5.31,1.27,2.791-2.793A27.485,27.485,0,0,0,14.334,10.851Z" transform="translate(1.347 1.348)"/>
</svg>
