<svg id="uranus" xmlns="http://www.w3.org/2000/svg" width="20" height="20.014" viewBox="0 0 20 20.014">
  <defs>
    <style>
      .cls-1 {
        fill: #5ac3ff;
      }

      .cls-2 {
        fill: #46a2de;
      }

      .cls-3 {
        fill: #7dd7ff;
      }

      .cls-4 {
        fill: #e4eaf8;
      }
    </style>
  </defs>
  <path id="Path_48687" data-name="Path 48687" class="cls-1" d="M7.969,0A7.969,7.969,0,1,1,0,7.974,7.955,7.955,0,0,1,7.969,0Z" transform="translate(2.036 2.038)"/>
  <path id="Path_47292" data-name="Path 47292" class="cls-2" d="M6.15,14.21A7.12,7.12,0,0,1,13.82,2.563c-.072-.078-.145-.156-.221-.233a7.971,7.971,0,1,0-4.781,13.56A7.071,7.071,0,0,1,6.15,14.21Z" transform="translate(2.036 2.037)"/>
  <path id="Path_47293" data-name="Path 47293" class="cls-3" d="M0,.068,8.928,9a8.021,8.021,0,0,0,.017-1.944l-7-7.008A8,8,0,0,0,0,.068Z" transform="translate(8.966 2.039)"/>
  <path id="Path_47294" data-name="Path 47294" class="cls-1" d="M2.273,2.343a7.127,7.127,0,0,1,1.684-.276L1.943.051A8,8,0,0,0,0,.068Z" transform="translate(8.966 2.039)"/>
  <path id="Path_47295" data-name="Path 47295" class="cls-4" d="M18.621,14.726c-.349-.595-.754-1.212-1.2-1.841a7.923,7.923,0,0,1-.331.741c.34.494.658.981.934,1.452,1.394,2.373,1.47,3.64,1.076,4.034s-1.66.319-4.031-1.076A43.627,43.627,0,0,1,1.977,4.936C.583,2.563.507,1.3.9.9A.92.92,0,0,1,1.567.7,7.513,7.513,0,0,1,4.933,1.978c.47.277.957.595,1.45.935a7.9,7.9,0,0,1,.741-.331c-.629-.447-1.246-.852-1.84-1.2C2.878-.035,1.193-.37.412.412s-.447,2.468.968,4.875A44.448,44.448,0,0,0,14.716,18.633a8.164,8.164,0,0,0,3.72,1.381,1.561,1.561,0,0,0,1.152-.412C20.369,18.82,20.035,17.134,18.621,14.726Z" transform="translate(0 0)"/>
  <path id="Path_47296" data-name="Path 47296" class="cls-3" d="M.048,0A8.026,8.026,0,0,0,0,.933L7.883,8.822a8.009,8.009,0,0,0,.933-.047Z" transform="translate(2.039 9.151)"/>
  <g id="Group_38129" data-name="Group 38129" transform="translate(2.039 9.151)">
    <path id="Path_47297" data-name="Path 47297" class="cls-1" d="M0,0,1.529,1.53a8.021,8.021,0,0,0,.931-.045A7.064,7.064,0,0,1,0,0Z" transform="translate(6.355 7.292)"/>
    <path id="Path_47298" data-name="Path 47298" class="cls-1" d="M0,.933,6.039,6.976a7.061,7.061,0,0,1-1.56-2.542L.048,0A8.009,8.009,0,0,0,0,.933Z" transform="translate(0 0)"/>
  </g>
</svg>
