<?xml version="1.0" standalone="no"?>
<!DOCTYPE svg PUBLIC "-//W3C//DTD SVG 1.1//EN" "http://www.w3.org/Graphics/SVG/1.1/DTD/svg11.dtd" >
<svg xmlns="http://www.w3.org/2000/svg">
<metadata>Generated by IcoMoon</metadata>
<defs>
<font id="icomoon" horiz-adv-x="1024">
<font-face units-per-em="1024" ascent="960" descent="-64" />
<missing-glyph horiz-adv-x="1024" />
<glyph unicode="&#x20;" horiz-adv-x="512" d="" />
<glyph unicode="&#xe900;" glyph-name="member-card-icon-1" d="M511.595 64c0 0 0.001 0 0.002 0 60.77 0 110.071 49.1 110.398 109.793v0.031h-220.565c0.326-60.642 49.496-109.692 110.153-109.824h0.013zM809.941 218.859v32.768c-0.019 36.044-21.506 67.065-52.368 80.969l-0.56 0.226v186.24c0.004 0.474 0.006 1.034 0.006 1.595 0 53.187-18.116 102.143-48.514 141.033l0.38-0.505c-27.317 34.475-62.951 61.218-103.919 77.368l-1.681 0.584v1.152c0 50.663-41.070 91.733-91.733 91.733s-91.733-41.070-91.733-91.733v0-1.259c-42.649-16.734-78.283-43.477-105.207-77.438l-0.393-0.514c-30.018-38.385-48.134-87.341-48.134-140.528 0-0.561 0.002-1.121 0.006-1.68v0.086-186.133c-31.343-14.174-52.757-45.168-52.757-81.163 0-0.011 0-0.022 0-0.033v0.002-32.768z" />
<glyph unicode="&#xe901;" glyph-name="member-card-icon-2" d="M512 682.667c-167.598-0.728-312.492-97.204-382.873-237.521l-1.127-2.479c70.987-143.249 216.195-240 384-240s313.012 96.751 382.883 237.512l1.117 2.488c-71.508 142.796-216.402 239.272-383.902 240h-0.098zM701.333 555.456c45.459-29.373 82.964-67.103 111.208-111.32l0.878-1.469c-29.12-45.695-66.625-83.431-110.659-111.945l-1.427-0.866c-53.572-34.656-119.047-55.256-189.333-55.256s-135.761 20.6-190.716 56.093l1.383-0.837c-45.458 29.375-82.962 67.104-111.208 111.32l-0.878 1.469c29.119 45.696 66.624 83.432 110.659 111.945l1.427 0.866c2.923 1.877 5.909 3.691 8.896 5.461-7.317-19.51-11.552-42.057-11.552-65.594 0-106.039 85.961-192 192-192s192 85.961 192 192c0 23.536-4.235 46.084-11.985 66.921l0.433-1.328q4.352-2.731 8.875-5.461zM512 519.189c0-39.765-32.235-72-72-72s-72 32.235-72 72c0 39.765 32.235 72 72 72v0c39.765 0 72-32.235 72-72v0z" />
<glyph unicode="&#xe902;" glyph-name="member-card-icon-3" d="M642.645 783.957h-52.117c-10.174 28.22-36.72 48.031-67.893 48.031s-57.719-19.811-67.735-47.53l-0.158-0.502h-52.075c-13.255 0-24-10.745-24-24v0-96c0-13.255 10.745-24 24-24v0h239.979c0.006 0 0.014 0 0.021 0 13.255 0 24 10.745 24 24 0 0 0 0 0 0v0 96c0 13.255-10.745 24-24 24-0.008 0-0.015 0-0.023 0h0.001zM762.645 735.979h-47.979v-72c0-39.765-32.235-72-72-72v0h-240c-39.765 0-72 32.235-72 72v0 72h-48c-26.51 0-48-21.49-48-48v0-576c-0.002-0.159-0.003-0.348-0.003-0.536 0-26.215 21.252-47.467 47.467-47.467 0.189 0 0.377 0.001 0.565 0.003h479.971c0.16-0.002 0.348-0.003 0.537-0.003 26.215 0 47.467 21.252 47.467 47.467 0 0.204-0.001 0.407-0.004 0.61v-0.031 576c0.002 0.147 0.003 0.32 0.003 0.494 0 26.215-21.252 47.467-47.467 47.467-0.196 0-0.392-0.001-0.587-0.004h0.030zM515.648 311.019l-96-96c-4.345-4.356-10.354-7.051-16.992-7.051s-12.647 2.695-16.992 7.050v0l-48 48c-4.343 4.343-7.029 10.343-7.029 16.971 0 13.255 10.745 24 24 24 6.627 0 12.627-2.686 16.971-7.029v0l31.061-31.019 78.933 78.933c4.306 4.127 10.161 6.668 16.61 6.668 13.267 0 24.021-10.755 24.021-24.021 0-6.438-2.532-12.284-6.656-16.597l0.009 0.009zM515.648 503.019l-96-96c-4.345-4.356-10.354-7.051-16.992-7.051s-12.647 2.695-16.992 7.050v0l-48 48c-4.343 4.343-7.029 10.343-7.029 16.971 0 13.255 10.745 24 24 24 6.627 0 12.627-2.686 16.971-7.029v0l31.061-31.019 78.933 78.933c4.306 4.127 10.161 6.668 16.61 6.668 13.267 0 24.021-10.755 24.021-24.021 0-6.438-2.532-12.284-6.656-16.597l0.009 0.009zM690.581 256.021h-96c-13.255 0-24 10.745-24 24s10.745 24 24 24v0h96c13.255 0 24-10.745 24-24s-10.745-24-24-24v0zM690.581 448.021h-96c-13.255 0-24 10.745-24 24s10.745 24 24 24v0h96c13.255 0 24-10.745 24-24s-10.745-24-24-24v0z" />
<glyph unicode="&#xe903;" glyph-name="attachment" d="M670.869 313.259c0.035 0 0.077 0 0.119 0 9.852 0 17.972 7.421 19.073 16.978l0.008 0.089v2.133c0 10.604-8.596 19.2-19.2 19.2v0h-307.392c-10.604 0-19.2-8.596-19.2-19.2s8.596-19.2 19.2-19.2v0zM836.334 164.742c-12.279 0-22.222-9.954-22.222-22.222v0c-0.113-45.225-36.743-81.865-81.951-81.994h-427.029c-45.222 0.13-81.837 36.747-81.964 81.951v557.424c0.192 45.171 36.791 81.729 81.949 81.868h31.825c0.738 0 1.457 0 2.175 0h2.565c0.027 0 0.049 0 0.081 0 10.493 0 19.27 7.322 21.506 17.144l0.027 0.146c5.083 21.039 23.747 36.427 46.009 36.427 26.050 0 47.169-21.068 47.271-47.090v-267.439c0-26.093-21.149-47.243-47.243-47.243s-47.243 21.149-47.243 47.243v0 149.312c0 12.279-9.954 22.222-22.222 22.222s-22.222-9.954-22.222-22.222v0-149.535c0-0.943 0-1.874 0-2.817 1.005-49.923 41.607-90.041 91.622-90.261h1.483c50.035 0.855 90.27 41.617 90.27 91.779 0 0.459-0.004 0.91-0.012 1.369l0.001-0.071v261.134h231.102c45.224-0.113 81.848-36.727 81.994-81.929v-383.914c0-12.279 9.954-22.222 22.222-22.222s22.222 9.954 22.222 22.222v0 383.871c-0.282 69.687-56.743 126.089-126.429 126.273h-239l-3.584 6.468c-15.941 28.443-45.89 47.353-80.265 47.353s-64.325-18.912-80.023-46.896l-0.243-0.459-3.584-6.468h-20.277c-69.687-0.208-126.125-56.619-126.39-126.273v-557.516c0.192-69.739 56.678-126.215 126.398-126.39h426.958c69.79 0.169 126.306 56.727 126.419 126.503v0.012c0 12.268-9.937 22.216-22.202 22.222h-0.001zM363.2 194.816h217.6c10.604 0 19.2 8.596 19.2 19.2s-8.596 19.2-19.2 19.2h-217.6c-10.604 0-19.2-8.596-19.2-19.2s8.596-19.2 19.2-19.2v0zM601.835 430.272h68.992c10.604 0 19.2 8.596 19.2 19.2s-8.596 19.2-19.2 19.2h-68.992c-10.604 0-19.2-8.596-19.2-19.2s8.596-19.2 19.2-19.2v0zM670.827 587.179h-68.992c-10.604 0-19.2-8.596-19.2-19.2s8.596-19.2 19.2-19.2h68.992c10.604 0 19.2 8.596 19.2 19.2s-8.596 19.2-19.2 19.2v0z" />
<glyph unicode="&#xe904;" glyph-name="member-card-icon-4" d="M704.043 685.227l-146.688 146.773h-365.333c-35.346 0-64-28.654-64-64v0-576c0-35.346 28.654-64 64-64v0h373.867c-13.744 27.641-21.786 60.201-21.786 94.639 0 11.776 0.94 23.333 2.75 34.599l-0.164-1.238h-34.56v128h64v-45.056c28.778 47.487 73.408 82.91 126.41 99.227l1.59 0.421zM224.043 575.872h64v-128h-64zM320.043 255.872h-96v128.128h96zM448.043 255.872h-64v128.128h64zM448.043 447.872h-96v128h96zM576.043 447.872h-64v128h64zM512.043 639.872v160.128l160-160zM832.043 319.936c-34.85-1.207-62.793-29.15-63.997-63.887l-0.003-0.113c-1.207 34.85-29.15 62.793-63.887 63.997l-0.113 0.003c-35.346 0-64-28.654-64-64v0c0-96 128-192 128-192s128 96 128 192c0 35.346-28.654 64-64 64v0z" />
<glyph unicode="&#xe905;" glyph-name="arrow" d="M544.149 679.339l383.403-383.744c7.818-7.802 12.655-18.59 12.655-30.507 0-23.802-19.296-43.098-43.098-43.098-11.885 0-22.647 4.811-30.443 12.592l-352.98 353.322-353.152-353.237c-7.924-8.826-19.371-14.352-32.109-14.352-23.8 0-43.093 19.294-43.093 43.093 0 12.802 5.582 24.299 14.445 32.192l0.043 0.038 383.403 383.744c7.839 7.703 18.596 12.458 30.464 12.458s22.625-4.755 30.47-12.464l-0.006 0.006z" />
<glyph unicode="&#xe906;" glyph-name="area" d="M507.328 832c-0.1 0-0.219 0-0.338 0-162.31 0-293.888-131.578-293.888-293.888 0-67.136 22.511-129.014 60.397-178.497l-0.518 0.705 221.547-296.32h25.6l221.483 296.32c37.289 48.762 59.749 110.59 59.749 177.664 0 162.381-131.635 294.016-294.016 294.016-0.006 0-0.011 0-0.017 0h0.001zM507.328 440.491c-53.844 0-97.493 43.649-97.493 97.493s43.649 97.493 97.493 97.493c53.844 0 97.493-43.649 97.493-97.493v0c0-53.844-43.649-97.493-97.493-97.493v0z" />
<glyph unicode="&#xe907;" glyph-name="bouns" d="M302.549 251.051c0 12.418-10.067 22.485-22.485 22.485v0h-112.512c-12.418 0-22.485-10.067-22.485-22.485v0-181.504c0-12.418 10.067-22.485 22.485-22.485h112.512c12.418 0 22.485 10.067 22.485 22.485v0zM484.053 408.448h-112.512c0 0 0 0 0 0-12.388 0-22.437-10.018-22.485-22.395v-316.805c0-12.418 10.067-22.485 22.485-22.485h112.512c12.418 0 22.485 10.067 22.485 22.485v0 316.501c0.001 0.063 0.001 0.138 0.001 0.213 0 12.418-10.067 22.485-22.485 22.485 0 0-0.001 0-0.001 0v0zM686.549 453.419h-112.597c-12.418 0-22.485-10.067-22.485-22.485v0-361.515c0.048-12.382 10.097-22.4 22.485-22.4 0 0 0 0 0 0h112.512c12.418 0 22.485 10.067 22.485 22.485v0 361.515c-0.048 12.352-10.048 22.352-22.395 22.4h-0.005zM890.581 633.429h-112.597c-12.418 0-22.485-10.067-22.485-22.485v-541.483c0-12.418 10.067-22.485 22.485-22.485v0h112.512c12.418 0 22.485 10.067 22.485 22.485v0 541.568c-0.048 12.352-10.048 22.352-22.395 22.4h-0.005zM225.323 320c37.259 0.049 67.45 30.24 67.499 67.494v0.005c-0.091 6.497-1.098 12.724-2.897 18.605l0.124-0.471 87.68 61.867c10.816-7.803 24.339-12.481 38.954-12.481 33.988 0 62.068 25.297 66.438 58.090l0.037 0.342 89.6 18.901c12.008-19.581 33.295-32.446 57.588-32.446 37.184 0 67.328 30.144 67.328 67.328 0 9.241-1.862 18.047-5.23 26.063l0.165-0.443 107.691 95.701c9.322-5.327 20.479-8.486 32.37-8.533h0.014c0.069 0 0.151 0 0.234 0 37.42 0 67.755 30.335 67.755 67.755s-30.335 67.755-67.755 67.755c-37.42 0-67.755-30.335-67.755-67.755 0-9.262 1.859-18.090 5.223-26.132l-0.166 0.447-107.52-95.787c-9.322 5.327-20.479 8.486-32.37 8.533h-0.014c-34.015-0.097-62.094-25.388-66.564-58.19l-0.039-0.349-89.6-18.901c-12.014 19.553-33.286 32.397-57.557 32.397-37.184 0-67.328-30.144-67.328-67.328 0-0.049 0-0.099 0-0.148v0.008c0.091-6.497 1.098-12.724 2.897-18.605l-0.124 0.471-87.68-61.867c-10.815 7.712-24.301 12.331-38.865 12.331-37.231 0-67.413-30.182-67.413-67.413s30.179-67.411 67.408-67.413v0z" />
<glyph unicode="&#xe908;" glyph-name="chat" d="M653.312 687.232h-408.875c0 0 0 0-0.001 0-54.078 0-97.939-43.742-98.133-97.774v-294.418c0-54.198 43.936-98.133 98.133-98.133v0h9.899l-30.251-69.547c-7.339-16.811-2.005-25.301 1.835-28.843 3.098-2.81 7.23-4.531 11.763-4.531 0.185 0 0.369 0.003 0.552 0.009l-0.027-0.001c6.161 0.259 11.861 2.016 16.811 4.914l-0.171-0.093 186.667 98.133h211.84c54.198 0 98.133 43.936 98.133 98.133v0 294.357c0 54.198-43.936 98.133-98.133 98.133v0zM287.104 404.992c-20.43 0-36.992 16.562-36.992 36.992s16.562 36.992 36.992 36.992c20.43 0 36.992-16.562 36.992-36.992v0c0-20.43-16.562-36.992-36.992-36.992v0zM455.808 404.992c-20.43 0-36.992 16.562-36.992 36.992s16.562 36.992 36.992 36.992c20.43 0 36.992-16.562 36.992-36.992v0c0-20.43-16.562-36.992-36.992-36.992v0zM610.432 404.992c-20.43 0-36.992 16.562-36.992 36.992s16.562 36.992 36.992 36.992c20.43 0 36.992-16.562 36.992-36.992v0c0-20.43-16.562-36.992-36.992-36.992v0zM779.733 813.696h-408.96c-48.999-0.079-89.572-36.057-96.826-83.035l-0.070-0.549h379.52c77.762 0 140.8-63.038 140.8-140.8v-265.003c47.531 7.303 83.523 47.859 83.627 96.842v294.411c0 54.198-43.936 98.133-98.133 98.133v0z" />
<glyph unicode="&#xe909;" glyph-name="education" d="M566.741 276.117c-15.742-9.094-34.626-14.459-54.763-14.459s-39.021 5.365-55.3 14.745l0.537-0.285-247.936 152.235s-22.4 13.739-22.4-17.365v-151.936c0-80 145.536-166.4 325.12-166.4s325.12 86.229 325.12 166.4v160.427c0 24.96-15.915 12.8-15.915 12.8zM924.352 549.205c8.556 3.465 14.481 11.707 14.481 21.333s-5.925 17.868-14.327 21.278l-0.154 0.055-377.728 188.907c-10.014 5.52-21.951 8.768-34.645 8.768s-24.631-3.248-35.023-8.958l0.378 0.19-377.728-189.056c-8.556-3.465-14.481-11.707-14.481-21.333s5.925-17.868 14.327-21.278l0.154-0.055 377.728-231.68c10.014-5.52 21.951-8.768 34.645-8.768s24.631 3.248 35.023 8.958l-0.378-0.19zM908.757 205.781v256s0 12.117-6.997 8.107c-9.604-5.101-17.738-10.222-25.472-15.86l0.597 0.415c-2.803-3.576-4.495-8.14-4.495-13.099 0-1.099 0.083-2.178 0.243-3.232l-0.015 0.118v-232.32c-0.261-2.586-1.931-4.726-4.221-5.658l-0.046-0.016c-13.198-7.81-21.909-21.972-21.909-38.169 0-24.412 19.79-44.203 44.203-44.203s44.203 19.79 44.203 44.203c0 16.197-8.711 30.359-21.705 38.057l-0.205 0.112c-2.337 0.88-4.018 2.99-4.265 5.52l-0.002 0.027z" />
<glyph unicode="&#xe90a;" glyph-name="job" d="M618.667 329.131c-0.237-16.729-13.735-30.227-30.442-30.464h-152.427c-16.729 0.237-30.227 13.735-30.464 30.442v76.225h-320v-228.565c-0.005-0.332-0.008-0.723-0.008-1.116 0-20.71 8.584-39.415 22.387-52.752l0.021-0.020c13.364-13.824 32.074-22.407 52.789-22.407 0.356 0 0.712 0.003 1.068 0.008l-0.054-0.001h700.928c42.067 0.121 76.13 34.215 76.203 76.281v228.572h-320zM451.029 405.333h121.899v-60.971h-121.899v60.971zM916.267 687.701c-13.357 13.824-32.062 22.407-52.771 22.407-0.363 0-0.725-0.003-1.086-0.008l0.055 0.001h-167.595v76.203c0 0.051 0 0.111 0 0.171 0 25.143-20.382 45.525-45.525 45.525-0.060 0-0.12 0-0.18 0h-274.295c-0.051 0-0.111 0-0.171 0-25.143 0-45.525-20.382-45.525-45.525 0-0.060 0-0.12 0-0.18v0.009-76.075h-167.637c-0.326 0.005-0.71 0.008-1.095 0.008-20.674 0-39.351-8.549-52.689-22.304l-0.018-0.019c-13.826-13.357-22.411-32.063-22.411-52.774 0-0.437 0.004-0.872 0.011-1.307l-0.001 0.065v-182.784h853.333v182.784c0.005 0.307 0.007 0.669 0.007 1.032 0 20.709-8.583 39.414-22.386 52.751l-0.021 0.020zM633.899 710.229h-243.797v60.885h243.797z" />
<glyph unicode="&#xe90b;" glyph-name="history" d="M102.4 580.843c0 0.13 0 0.284 0 0.439 0 209.155 169.554 378.709 378.709 378.709 172.484 0 318.037-115.311 363.773-273.049l0.664-2.675c-8.304-8.837-13.964-20.245-15.667-32.908l-0.034-0.308-4.139-33.067-7.019-37.461h-38.763c0 0.115 0 0.251 0 0.387 0 164.949-133.718 298.667-298.667 298.667s-298.667-133.718-298.667-298.667c0-111.389 60.978-208.536 151.375-259.88l1.478-0.773-58.389-58.389c-105.705 68.362-174.674 185.646-174.677 319.040v0zM481.109 818.859c-22.186 0-40.171-17.985-40.171-40.171v0-197.845c0-22.186 17.985-40.171 40.171-40.171v0h227.477c22.186 0 40.171 17.985 40.171 40.171s-17.985 40.171-40.171 40.171v0h-187.093v157.461c0 22.186-17.985 40.171-40.171 40.171v0zM899.435 641.792c-0.297 10.516-8.62 18.995-19.044 19.539l-0.049 0.002c-0.196 0.007-0.425 0.011-0.656 0.011-10.283 0-18.797-7.579-20.258-17.456l-4.281-34.245-7.531-40.021c-3.449-17.035-7.69-31.709-12.967-45.879l0.679 2.082-8.768-26.816-12.8-28.053c-6.032-13.737-12.327-25.349-19.447-36.379l0.609 1.008c-3.733-6.187-7.467-12.48-11.008-18.88q-5.525-7.68-10.901-15.36c-9.756-14.356-19.734-26.888-30.562-38.624l0.204 0.224c-11.263-13.333-22.973-25.367-35.472-36.538l-0.347-0.305c-3.883-3.627-7.723-7.211-11.563-10.859l-12.693-9.771c-12.58-10.373-26.567-20.332-41.237-29.28l-1.6-0.907c-11.15-7.469-24.034-14.752-37.461-21.069l-1.835-0.776c-5.568-2.773-11.115-5.483-16.469-8.299-6.805-2.453-13.461-5.12-19.968-7.723-9.954-4.474-21.88-8.642-34.201-11.827l-1.617-0.355-26.56-7.36-26.091-4.459c-10.636-2.23-23.102-3.759-35.834-4.253l-0.433-0.013-21.333-1.643h-2.901v94.165c-0.031 11.087-9.026 20.062-20.117 20.062-5.526 0-10.531-2.228-14.167-5.834l0.001 0.001-173.184-172.8c-3.624-3.638-5.865-8.656-5.865-14.197s2.241-10.56 5.865-14.198l172.799-172.799c3.634-3.605 8.64-5.833 14.165-5.833 11.091 0 20.086 8.975 20.117 20.059v97.88l36.992 6.763c22.784 4.192 42.531 9.512 61.622 16.226l-2.827-0.866 23.851 7.979 39.403 16.683c18.529 7.919 34.149 16.156 49.020 25.477l-1.468-0.858c6.4 3.84 13.056 7.68 19.797 11.307 0.725 0.405 1.429 0.875 2.133 1.323 5.12 3.797 10.539 7.467 15.915 11.2 17.764 11.792 33.211 23.776 47.727 36.78l-0.389-0.342c17.453 14.546 33.176 29.606 47.808 45.678l0.342 0.381 10.859 11.413 1.387 1.536 9.835 12.437c12.927 15.373 25.356 32.389 36.595 50.23l1.122 1.908c9.894 14.537 19.59 31.313 28.066 48.79l1.054 2.41c2.923 5.824 5.888 11.627 8.853 17.301 0.338 0.638 0.697 1.433 1.012 2.249l0.055 0.162c2.667 7.168 5.525 14.187 8.341 21.077 5.836 12.849 11.379 28.33 15.716 44.307l0.518 2.242 9.259 32.96 5.12 28.971c3.205 15.134 5.493 32.982 6.37 51.199l0.030 0.79 1.941 26.197z" />
<glyph unicode="&#xe90c;" glyph-name="icon-edit" d="M170.197 85.184c0-11.652-9.446-21.099-21.099-21.099s-21.099 9.446-21.099 21.099c0 11.652 9.446 21.099 21.099 21.099s21.099-9.446 21.099-21.099zM176.661 226.475l-47.061-133.269 26.581-27.904 134.059 47.36zM846.763 659.733l34.795 34.816c8.909 8.907 14.419 21.213 14.419 34.805s-5.51 25.899-14.419 34.805v0l-53.333 53.44c-8.907 8.909-21.213 14.419-34.805 14.419s-25.899-5.51-34.805-14.419v0l-34.923-34.795zM622.315 733.589l-420.459-420.459 52.544-17.728 17.728-87.595 87.595-17.728 17.728-52.544 420.437 420.48z" />
<glyph unicode="&#xe90d;" glyph-name="icon-trash" d="M778.133 741.995h-112.555v22.507c0 37.264-30.196 67.474-67.454 67.499h-180.013c-37.278 0-67.499-30.22-67.499-67.499v0-22.507h-112.491c-37.257-0.029-67.449-30.238-67.449-67.499 0-29.747 19.243-54.999 45.959-63.989l0.476-0.139 40.128-484.501c3.188-34.694 32.056-61.679 67.266-61.867h367.23c35.229 0.187 64.097 27.173 67.266 61.6l0.020 0.266 40.149 484.48c27.125 9.167 46.306 34.386 46.306 64.086 0 37.216-30.118 67.397-67.31 67.498h-0.010zM395.627 764.501c0 12.423 10.064 22.495 22.484 22.507h180.012c12.43 0 22.507-10.077 22.507-22.507v0-22.507h-225.003zM714.155 129.621c-1.010-11.586-10.665-20.608-22.426-20.608-0.028 0-0.056 0-0.085 0h-367.121c-0.024 0-0.052 0-0.080 0-11.762 0-21.416 9.022-22.42 20.523l-0.006 0.085-39.467 477.376h491.157zM778.155 652.011h-540.032c-12.128 0.385-21.814 10.31-21.814 22.496s9.685 22.111 21.779 22.495l0.035 0.001h540.011c0.206 0.007 0.449 0.011 0.693 0.011 12.43 0 22.507-10.077 22.507-22.507s-10.077-22.507-22.507-22.507c-0.244 0-0.486 0.004-0.728 0.012l0.035-0.001zM418.155 177.899l-22.507 363.029c-0.404 12.136-10.34 21.821-22.538 21.821-12.454 0-22.549-10.096-22.549-22.549 0-0.728 0.034-1.447 0.102-2.157l-0.007 0.091 22.507-363.029c1.093-11.532 10.728-20.483 22.454-20.483 12.454 0 22.549 10.096 22.549 22.549 0 0.256-0.004 0.511-0.013 0.765l0.001-0.037zM508.139 561.984c-12.43 0-22.507-10.077-22.507-22.507v0-363.029c0.385-12.128 10.31-21.814 22.496-21.814s22.111 9.685 22.495 21.779l0.001 0.035v363.029c0 12.423-10.064 22.495-22.484 22.507h-0.001zM644.523 562.005c-0.415 0.027-0.9 0.043-1.388 0.043-11.935 0-21.7-9.29-22.459-21.032l-0.003-0.066-22.528-363.051c-0.007-0.217-0.012-0.472-0.012-0.728 0-12.454 10.096-22.549 22.549-22.549 11.726 0 21.361 8.95 22.447 20.392l0.007 0.091 22.507 363.029c0.027 0.413 0.043 0.896 0.043 1.383 0 11.965-9.336 21.749-21.121 22.465l-0.063 0.003z" />
<glyph unicode="&#xe90e;" glyph-name="icon1" d="M256 64c-35.346 0-64 28.654-64 64v0 352h-32c-17.673 0-32 14.327-32 32v0c0 0.001 0 0.003 0 0.004 0 9.26 3.933 17.601 10.22 23.445l0.020 0.018h0.128c0.871 0.803 1.809 1.579 2.788 2.303l0.092 0.065 348.544 285.077c5.718 5.611 13.557 9.078 22.206 9.088h0.002c0.017 0 0.037 0 0.057 0 8.812 0 16.792-3.562 22.579-9.324l-0.001 0.001 201.365-164.736v46.059c0 17.673 14.327 32 32 32v0h32c17.673 0 32-14.327 32-32v0-124.629l50.709-41.493c1.090-0.79 2.043-1.567 2.95-2.392l-0.027 0.024c6.307-5.861 10.24-14.203 10.24-23.463 0-0.001 0-0.003 0-0.004v0c0-17.673-14.327-32-32-32v0h-32v-352c0-35.346-28.654-64-64-64v0zM608 160h128v256h-128z" />
<glyph unicode="&#xe90f;" glyph-name="icon2" d="M848 64h-384c-26.51 0-48 21.49-48 48v0 448c0.004 4.417 1.797 8.414 4.693 11.306v0l96 96c2.893 2.896 6.89 4.689 11.306 4.693h320.001c26.51 0 48-21.49 48-48v0-512c0-26.51-21.49-48-48-48v0zM448 553.387v-441.365c0-8.837 7.163-16 16-16v0h384c8.837 0 16 7.163 16 16v0 512c0 8.837-7.163 16-16 16v0h-313.387zM528 544h-96v32h80v80h32v-96c0-8.837-7.163-16-16-16v0zM384 64h-208c-26.51 0-48 21.49-48 48v0 448c0.004 4.417 1.797 8.414 4.693 11.306v0l96 96 22.613-22.613-91.307-91.307v-441.365c0-8.837 7.163-16 16-16v0h208zM240 544h-96v32h80v80c0 8.837 7.163 16 16 16v0h32v-32h-16v-80c0-8.837-7.163-16-16-16v0zM384 224h-32c-26.51 0-48 21.49-48 48v0 448c0.004 4.417 1.797 8.414 4.693 11.306v0l96 96c2.893 2.896 6.89 4.689 11.306 4.693h320.001c26.51 0 48-21.49 48-48v0-80h-32v80c0 8.837-7.163 16-16 16v0h-313.387l-86.613-86.635v-441.365c0-8.837 7.163-16 16-16v0h32zM416 704h-96v32h80v80h32v-96c0-8.837-7.163-16-16-16v0zM656 368c-44.183 0-80 35.817-80 80s35.817 80 80 80c44.183 0 80-35.817 80-80v0c0-44.183-35.817-80-80-80v0zM656 496c-26.51 0-48-21.49-48-48s21.49-48 48-48c26.51 0 48 21.49 48 48v0c0 26.51-21.49 48-48 48v0zM768 208h-224c-8.837 0-16 7.163-16 16v0 48c0 70.692 57.308 128 128 128s128-57.308 128-128v0-48c0-8.837-7.163-16-16-16v0zM560 240h192v32c0 53.019-42.981 96-96 96s-96-42.981-96-96v0zM528 176h192v-32h-192zM752 176h32v-32h-32z" />
<glyph unicode="&#xe910;" glyph-name="icon4" d="M128 608v64c0 35.346 28.654 64 64 64v0h640c35.346 0 64-28.654 64-64v0-64zM480 544h-320v-416c0-35.346 28.654-64 64-64v0h256zM544 544v-480h256c35.346 0 64 28.654 64 64v0 0 416zM576 682.667h-64c-11.782 0-21.333 9.551-21.333 21.333v0 64c0 47.128 38.205 85.333 85.333 85.333s85.333-38.205 85.333-85.333c0-47.128-38.205-85.333-85.333-85.333v0zM533.333 725.333h42.667c23.564 0 42.667 19.103 42.667 42.667s-19.103 42.667-42.667 42.667c-23.564 0-42.667-19.103-42.667-42.667v0zM512 682.667h-64c-47.128 0-85.333 38.205-85.333 85.333s38.205 85.333 85.333 85.333c47.128 0 85.333-38.205 85.333-85.333v0-64c0-11.782-9.551-21.333-21.333-21.333v0zM448 810.667c-23.564 0-42.667-19.103-42.667-42.667s19.103-42.667 42.667-42.667v0h42.667v42.667c0 23.564-19.103 42.667-42.667 42.667v0z" />
<glyph unicode="&#xe911;" glyph-name="icon3" d="M608 490.667c0-53.019-42.981-96-96-96s-96 42.981-96 96c0 53.019 42.981 96 96 96s96-42.981 96-96zM606.955 220.821h-0.341c0.756 4.082 1.255 8.856 1.384 13.721l0.003 0.124c0 53.019-42.981 96-96 96s-96-42.981-96-96v0 0c0.141-5.005 0.648-9.784 1.495-14.445l-0.087 0.578h-0.363l0.875-5.077v-0.597l30.464-180.075h0.299c3.726-31.924 30.613-56.466 63.232-56.466s59.506 24.542 63.204 56.169l0.028 0.298h0.299l30.464 180.075v0.597zM334.805 139.52c-0.024 0-0.052 0-0.080 0-1.766 0-3.428 0.442-4.882 1.222l0.055-0.027c-127.327 67.209-212.629 198.731-212.629 350.177 0 217.968 176.698 394.667 394.667 394.667s394.667-176.698 394.667-394.667c0-151.446-85.302-282.969-210.482-349.142l-2.148-1.035c-1.363-0.678-2.968-1.074-4.665-1.074-5.891 0-10.667 4.776-10.667 10.667 0 3.994 2.195 7.474 5.444 9.303l0.054 0.028c120.442 63.577 201.131 187.989 201.131 331.246 0 206.186-167.147 373.333-373.333 373.333s-373.333-167.147-373.333-373.333c0-143.258 80.689-267.67 199.099-330.267l2.032-0.979c3.427-1.821 5.721-5.368 5.721-9.451 0-5.885-4.765-10.656-10.648-10.667h-0.001zM689.813 296.085c-0.019 0-0.041 0-0.063 0-2.984 0-5.678 1.243-7.592 3.239l-0.004 0.004c-1.861 1.918-3.008 4.537-3.008 7.424 0 3.004 1.242 5.718 3.24 7.656l0.003 0.003c46.234 44.677 74.94 107.24 74.94 176.507 0 133.985-107.407 242.884-240.816 245.293l-0.226 0.003c-1.653 0.041-3.6 0.064-5.552 0.064-65.843 0-125.547-26.283-169.193-68.93l0.046 0.045c-46.162-44.704-74.816-107.249-74.816-176.486 0-66.211 26.204-126.302 68.807-170.467l-0.071 0.074c2.005-2.133 4.032-4.117 6.101-6.123 1.989-1.943 3.222-4.651 3.222-7.648 0-5.903-4.785-10.688-10.688-10.688-2.906 0-5.542 1.16-7.469 3.042l0.002-0.002c-2.24 2.133-4.459 4.373-6.635 6.656-46.199 47.923-74.661 113.221-74.661 185.165 0 75.259 31.144 143.243 81.246 191.769l0.071 0.068c47.901 46.291 113.227 74.817 185.216 74.817 75.277 0 143.269-31.191 191.757-81.355l0.073-0.076c46.233-47.936 74.716-113.262 74.716-185.24 0-75.25-31.131-143.228-81.217-191.759l-0.070-0.068c-1.905-1.838-4.499-2.975-7.358-2.987h-0.002z" />
<glyph unicode="&#xe912;" glyph-name="icon5" d="M530.453 276.075c-44.309 15.531-90.219 17.429-103.787 58.133v56.896c26.314 20.719 45.313 49.685 53.134 82.961l0.2 1.007c2.264 12.825 3.718 27.783 4.027 43.022l0.005 0.306c-0.306 6.446-0.48 14.002-0.48 21.598 0 51.695 8.062 101.506 22.998 148.246l-0.95-3.445c-7.765 38.635-28.053 71.168-71.531 75.456-11.669 19.328-41.387 29.077-80.171 29.077-155.051-2.667-170.901-110.165-139.776-233.643-8.63-6.101-14.196-16.038-14.196-27.276 0-2.428 0.26-4.796 0.753-7.077l-0.040 0.219c4.672-36.501 20.48-45.739 30.549-46.507 8.004-34.295 27.006-63.273 53.016-83.748l0.318-0.241v-56.896c-28.523-85.269-199.189 0.064-199.189-227.499h341.333c-0.129 2.528-0.203 5.49-0.203 8.469 0 71.212 42.165 132.576 102.892 160.487l1.098 0.452zM483.563 106.667c0 142.229 142.229 113.771 170.667 190.784v36.267c-102.997 0-131.584 42.411-131.584 42.411 53.824 44.8-47.957 356.267 135.275 356.267 14.206 15.869 34.066 26.422 56.387 28.476l0.339 0.025c224 0 122.944-338.283 180.885-385.856 0 0-24-40.96-127.509-40.96v-36.629c28.437-76.992 170.667-48.555 170.667-190.784z" />
<glyph unicode="&#xe913;" glyph-name="icon6" d="M384.149 224.149l-96 96.085v160.149l256.235-256.235zM896 832.021c-200.107-10.112-378.979-93.52-511.879-223.684l0.135 0.132c-95.765-95.765-96-256.235-32-320.277s224.448-63.723 320.213 32.064c130.029 132.774 213.431 311.654 223.455 509.888l0.076 1.877zM576.384 576.469c0 35.346 28.654 64 64 64s64-28.654 64-64c0-35.346-28.654-64-64-64v0c-35.346 0-64 28.654-64 64v0zM634.389 330.624s24.235-121.195-24.235-169.643c-72.704-72.704-193.899-96.96-193.899-96.96l32 224.192zM394.667 570.411s-121.259 24.256-169.728-24.235c-72.704-72.704-96.939-193.899-96.939-193.899l224.192 32zM337.536 213.269c-1.32-2.372-2.733-4.418-4.318-6.314l0.051 0.063c-14.182-12.16-32.754-19.563-53.056-19.563-8.942 0-17.549 1.436-25.602 4.090l0.578-0.165c-2.47 7.443-3.894 16.012-3.894 24.914 0 20.367 7.458 38.992 19.791 53.293l-0.089-0.106c1.833 1.507 3.877 2.918 6.034 4.153l0.216 0.114-14.784 14.507c-13.062-3.393-24.296-9.944-33.243-18.801l0.006 0.006c-43.755-43.755-36.8-140.928-36.8-140.928s96.597-7.531 140.928 36.8c8.851 8.941 15.402 20.175 18.682 32.731l0.112 0.506z" />
<glyph unicode="&#xe914;" glyph-name="salary" d="M210.304 491.904l27.435-20.821v172.416c0 7.564 6.132 13.696 13.696 13.696v0c37.848 0.049 68.517 30.717 68.565 68.561v0.005c0 7.564 6.132 13.696 13.696 13.696v0h356.608c7.564 0 13.696-6.132 13.696-13.696v0c0.097-37.811 30.747-68.432 68.561-68.48h0.005c7.564 0 13.696-6.132 13.696-13.696v0-172.416l27.435 20.821v274.944h-603.392zM136.96 547.541l45.867-34.816v69.589zM462.379 794.368h99.2l-49.579 37.632zM896 519.893l-342.571-259.883c-11.388-8.666-25.81-13.883-41.451-13.883s-30.062 5.217-41.62 14.007l0.169-0.124-342.528 259.883v-411.221c0-22.716 18.415-41.131 41.131-41.131v0h685.739c22.716 0 41.131 18.415 41.131 41.131v0zM841.131 512.811l45.867 34.816-45.867 34.645zM512 629.803c-75.735 0-137.131-61.395-137.131-137.131s61.395-137.131 137.131-137.131c75.735 0 137.131 61.395 137.131 137.131v0c0 75.735-61.395 137.131-137.131 137.131v0zM512 506.368c0.040 0 0.087 0 0.134 0 30.233 0 54.741-24.509 54.741-54.741 0-25.414-17.319-46.784-40.798-52.95l-0.381-0.085v-15.659c0-7.576-6.141-13.717-13.717-13.717s-13.717 6.141-13.717 13.717v0 15.637c-23.774 6.298-41.028 27.573-41.131 52.895v0.012c0 7.576 6.141 13.717 13.717 13.717s13.717-6.141 13.717-13.717v0c0-15.152 12.283-27.435 27.435-27.435s27.435 12.283 27.435 27.435c0 15.152-12.283 27.435-27.435 27.435v0c-0.040 0-0.087 0-0.134 0-30.233 0-54.741 24.509-54.741 54.741 0 25.414 17.319 46.784 40.798 52.95l0.381 0.085v15.829c0 7.576 6.141 13.717 13.717 13.717s13.717-6.141 13.717-13.717v0-15.659c23.774-6.298 41.028-27.573 41.131-52.895v-0.012c0-7.576-6.141-13.717-13.717-13.717s-13.717 6.141-13.717 13.717v0c0 15.152-12.283 27.435-27.435 27.435s-27.435-12.283-27.435-27.435c0-15.152 12.283-27.435 27.435-27.435v0zM677.675 712.064h-331.477c-6.323-41.981-39.085-74.744-80.537-81.001l-0.53-0.066v-180.864l221.867-168.405c6.826-5.203 15.474-8.336 24.853-8.336s18.028 3.133 24.954 8.41l-0.101-0.074 221.867 168.405v180.736c-41.946 6.407-74.645 39.207-80.831 80.668l-0.065 0.526zM512 328.064c-90.88 0.009-164.549 73.684-164.549 164.565 0 90.887 73.678 164.565 164.565 164.565s164.565-73.678 164.565-164.565c0-45.426-18.406-86.554-48.166-116.331l0.001 0.001c-29.785-29.813-70.947-48.255-116.416-48.256v0z" />
<glyph unicode="&#xe915;" glyph-name="print" d="M882.688 573.013h-744.661c-32.496-31.704-52.651-75.929-52.651-124.861 0-0.054 0-0.107 0-0.161v0.008-133.333c0.121-50.571 41.145-91.52 91.733-91.52 0 0 0 0 0 0h58.24v100.011h-25.003c-13.809 0-25.003 11.194-25.003 25.003s11.194 25.003 25.003 25.003h600.021c13.809 0 25.003-11.194 25.003-25.003s-11.194-25.003-25.003-25.003h-25.003v-100.011h58.325c50.663 0 91.733 41.070 91.733 91.733v0 133.12c0 0.021 0 0.045 0 0.069 0 48.974-20.189 93.233-52.698 124.907l-0.038 0.037zM660.352 473.003c-13.809 0-25.003 11.194-25.003 25.003s11.194 25.003 25.003 25.003c13.809 0 25.003-11.194 25.003-25.003v0c0-13.809-11.194-25.003-25.003-25.003v0zM760.363 473.003c-13.809 0-25.003 11.194-25.003 25.003s11.194 25.003 25.003 25.003c13.809 0 25.003-11.194 25.003-25.003v0c0-13.809-11.194-25.003-25.003-25.003v0zM785.344 674.645v-51.712h-550.016v226.731c0 13.809 11.194 25.003 25.003 25.003v0h324.864v-174.933c0-13.809 11.194-25.003 25.003-25.003v0zM635.328 860.032v-135.339h135.339zM285.376 322.987v-265.643c0-19.912 16.142-36.053 36.053-36.053v0h377.813c19.912 0 36.053 16.142 36.053 36.053v0 265.643zM610.368 122.965h-249.984c-13.809 0-25.003 11.194-25.003 25.003s11.194 25.003 25.003 25.003h249.984c13.809 0 25.003-11.194 25.003-25.003s-11.194-25.003-25.003-25.003v0zM660.373 222.976h-299.989c-13.809 0-25.003 11.194-25.003 25.003s11.194 25.003 25.003 25.003h299.989c13.809 0 25.003-11.194 25.003-25.003s-11.194-25.003-25.003-25.003v0z" />
<glyph unicode="&#xe916;" glyph-name="share" d="M783.488 607.019c62.139 0 112.512 50.373 112.512 112.512s-50.373 112.512-112.512 112.512c-62.139 0-112.512-50.373-112.512-112.512v0c0.18-11.769 2.165-23.012 5.688-33.551l-0.227 0.783-265.429-144.64c-29.024 38.646-74.761 63.381-126.276 63.381-86.975 0-157.483-70.507-157.483-157.483s70.507-157.483 157.483-157.483c51.515 0 97.253 24.735 125.985 62.976l0.292 0.405 265.429-144.64c-3.297-9.756-5.281-20.999-5.46-32.681l-0.001-0.087c-0.005-0.406-0.008-0.885-0.008-1.365 0-62.893 50.985-113.877 113.877-113.877s113.877 50.985 113.877 113.877c0 62.893-50.985 113.877-113.877 113.877-34.736 0-65.84-15.553-86.728-40.075l-0.133-0.16-265.301 144.555c6.552 16.191 10.353 34.969 10.353 54.635s-3.801 38.444-10.71 55.64l0.356-1.005 265.387 144.64c20.532-24.524 51.101-40.059 85.303-40.235h0.030z" />
<glyph unicode="&#xe917;" glyph-name="stop" d="M128 448c0 212.077 171.923 384 384 384v0c212.077 0 384-171.923 384-384v0c0-212.077-171.923-384-384-384v0c-212.077 0-384 171.923-384 384v0zM225.451 448c0.17-158.188 128.361-286.379 286.533-286.549h0.017c0.126 0 0.275 0 0.425 0 61.764 0 118.935 19.661 165.598 53.065l-0.86-0.585-399.211 399.189c-32.937-45.837-52.672-103.087-52.672-164.947 0-0.061 0-0.122 0-0.183v0.010zM745.984 282.795c32.846 45.819 52.523 103.018 52.523 164.812 0 0.138 0 0.277 0 0.415v-0.021c-0.194 158.147-128.357 286.294-286.49 286.464h-0.016c-0.112 0-0.244 0-0.376 0-61.797 0-119-19.669-165.69-53.087l0.861 0.586z" />
<glyph unicode="&#xe918;" glyph-name="resume-list" d="M759.019 64h-485.056c-33.485 0-60.629 27.145-60.629 60.629v0 565.888c0.002 5.583 2.268 10.637 5.93 14.293v0l121.259 121.259c3.657 3.661 8.71 5.927 14.293 5.931h404.203c33.485 0 60.629-27.145 60.629-60.629v0-646.741c0-33.485-27.145-60.629-60.629-60.629v0zM253.76 682.155v-557.525c0.012-11.16 9.062-20.203 20.224-20.203h485.056c11.153 0.012 20.191 9.050 20.203 20.202v646.742c-0.012 11.153-9.050 20.191-20.202 20.203h-395.862zM354.795 670.315h-121.259v40.427h100.949v101.056h40.533v-121.259c0-11.158-9.045-20.203-20.203-20.203v0zM516.395 448.021c-55.812 0-101.056 45.244-101.056 101.056s45.244 101.056 101.056 101.056c55.812 0 101.056-45.244 101.056-101.056v0c0-0.006 0-0.014 0-0.021 0-55.8-45.235-101.035-101.035-101.035-0.008 0-0.015 0-0.023 0h0.001zM516.395 609.707c-33.485 0-60.629-27.145-60.629-60.629s27.145-60.629 60.629-60.629c33.485 0 60.629 27.145 60.629 60.629v0c-0.012 33.476-27.152 60.608-60.629 60.608v0zM657.963 245.909h-282.944c-11.158 0-20.203 9.045-20.203 20.203 0 0.008 0 0.015 0 0.022v-0.001 60.629c0 89.296 72.389 161.685 161.685 161.685s161.685-72.389 161.685-161.685v-60.629c0-0.006 0-0.014 0-0.021 0-11.158-9.045-20.203-20.203-20.203-0.008 0-0.015 0-0.023 0h0.001zM395.221 286.336h242.517v40.427c0 66.969-54.289 121.259-121.259 121.259s-121.259-54.289-121.259-121.259v0zM354.816 205.483h242.517v-40.533h-242.517zM637.76 205.483h40.427v-40.533h-40.427z" />
<glyph unicode="&#xe919;" glyph-name="icon-note" d="M670.912 651.84c43.876 0 79.445 35.569 79.445 79.445s-35.569 79.445-79.445 79.445c-43.876 0-79.445-35.569-79.445-79.445v0c0-43.876 35.569-79.445 79.445-79.445v0zM249.877 693.013c4.488 5.184 10.244 9.153 16.791 11.436l0.275 0.084-76.075 6.635c-0.37 0.037-0.8 0.059-1.234 0.059-3.236 0-6.195-1.185-8.468-3.145l0.017 0.014c-2.619-2.196-4.366-5.358-4.69-8.93l-0.004-0.051-48.469-553.771c-0.030-0.336-0.047-0.726-0.047-1.12 0-6.898 5.272-12.564 12.006-13.191l0.052-0.004 148.373-12.971-47.659 545.92c-0.096 1.039-0.151 2.247-0.151 3.469 0 9.759 3.508 18.699 9.332 25.627l-0.050-0.061zM895.936 163.072l-48.384 553.899c-0.607 6.784-6.265 12.062-13.156 12.062-0.408 0-0.812-0.019-1.21-0.055l0.051 0.004-56.683-4.949c-3.715-55.324-49.501-98.794-105.44-98.794-24.602 0-47.241 8.408-65.199 22.508l0.229-0.173-44.928-44.971c-2.374-2.272-5.6-3.67-9.153-3.67-7.317 0-13.248 5.931-13.248 13.248 0 3.553 1.398 6.778 3.675 9.157l44.966 44.966c-8.723 11.123-15.355 24.337-19.041 38.732l-0.159 0.734-289.003-25.067c-6.787-0.63-12.058-6.297-12.058-13.194 0-0.394 0.017-0.785 0.051-1.17l-0.004 0.050 48.341-554.197c0.61-6.792 6.266-12.077 13.161-12.096h1.154l554.005 48.448c6.799 0.617 12.084 6.29 12.084 13.197 0 0.491-0.027 0.977-0.079 1.454l0.005-0.059zM779.499 364.181c0.035-0.36 0.055-0.778 0.055-1.201 0-6.892-5.28-12.551-12.015-13.152l-0.051-0.004-26.389-2.304h-1.109c-7.18 0.177-12.932 6.039-12.932 13.244 0 6.8 5.122 12.403 11.719 13.161l0.061 0.006 26.389 2.304c0.357 0.035 0.773 0.054 1.193 0.054 6.894 0 12.548-5.308 13.098-12.061l0.003-0.047zM772.587 443.285c0.030-0.336 0.047-0.726 0.047-1.12 0-6.898-5.272-12.564-12.006-13.191l-0.052-0.004-92.16-8.064h-1.152c-7.18 0.177-12.932 6.039-12.932 13.244 0 6.8 5.122 12.403 11.719 13.161l0.061 0.006 92.16 8.064c0.333 0.030 0.721 0.047 1.113 0.047 6.928 0 12.613-5.317 13.198-12.093l0.003-0.049zM688.341 342.869l-133.077-11.52c-7.18 0.177-12.932 6.039-12.932 13.244 0 6.8 5.122 12.403 11.719 13.161l0.061 0.006 131.925 11.52c0.259 0.018 0.56 0.028 0.865 0.028 7.317 0 13.248-5.931 13.248-13.248 0-6.81-5.138-12.419-11.748-13.164l-0.060-0.006zM711.808 531.008l39.552 3.456c0.432 0.050 0.932 0.078 1.439 0.078 7.317 0 13.248-5.931 13.248-13.248 0-7.012-5.448-12.752-12.343-13.218l-0.041-0.002-39.595-3.456h-1.152c-7.164 0.196-12.897 6.050-12.897 13.243 0 6.802 5.127 12.407 11.727 13.162l0.061 0.006zM566.741 518.208l92.16 8.064c0.432 0.050 0.932 0.078 1.439 0.078 7.317 0 13.248-5.931 13.248-13.248 0-7.012-5.448-12.752-12.343-13.218l-0.041-0.002-92.16-8.064h-1.152c-7.164 0.196-12.897 6.050-12.897 13.243 0 6.802 5.127 12.407 11.727 13.162l0.061 0.006zM383.275 488.875c-0.030 0.336-0.047 0.726-0.047 1.12 0 6.898 5.272 12.564 12.006 13.191l0.052 0.004 118.72 10.368c0.164 0.007 0.357 0.011 0.551 0.011 7.317 0 13.248-5.931 13.248-13.248 0-6.698-4.971-12.236-11.425-13.124l-0.069-0.008-119.872-10.368c-6.874 0.028-12.511 5.287-13.137 12.001l-0.004 0.053zM390.229 409.728c-0.030 0.336-0.047 0.726-0.047 1.12 0 6.898 5.272 12.564 12.006 13.191l0.052 0.004 39.552 3.456c0.432 0.050 0.932 0.078 1.439 0.078 7.317 0 13.248-5.931 13.248-13.248 0-7.012-5.448-12.752-12.343-13.218l-0.041-0.002-39.552-3.456h-1.152c-0.021 0-0.045 0-0.070 0-6.919 0-12.599 5.304-13.196 12.067l-0.004 0.050zM457.963 242.859l-39.552-3.456h-1.152c-7.18 0.177-12.932 6.039-12.932 13.244 0 6.8 5.122 12.403 11.719 13.161l0.061 0.006 39.552 3.456c0.259 0.018 0.56 0.028 0.865 0.028 7.317 0 13.248-5.931 13.248-13.248 0-6.81-5.138-12.419-11.748-13.164l-0.060-0.006zM477.44 324.309l-65.963-5.76h-1.152c-7.18 0.177-12.932 6.039-12.932 13.244 0 6.8 5.122 12.403 11.719 13.161l0.061 0.006 65.963 5.76c0.259 0.018 0.56 0.028 0.865 0.028 7.317 0 13.248-5.931 13.248-13.248 0-6.81-5.138-12.419-11.748-13.164l-0.060-0.006zM482.539 417.771c-0.030 0.336-0.047 0.726-0.047 1.12 0 6.898 5.272 12.564 12.006 13.191l0.052 0.004 92.16 8.064c0.432 0.050 0.932 0.078 1.439 0.078 7.317 0 13.248-5.931 13.248-13.248 0-7.012-5.448-12.752-12.343-13.218l-0.041-0.002-92.16-8.064h-1.152c-6.887 0.030-12.532 5.311-13.138 12.045l-0.004 0.051zM563.477 252.053l-52.779-4.416h-0.96c-6.967 0.431-12.454 6.187-12.454 13.224 0 6.622 4.859 12.11 11.207 13.092l0.074 0.009 52.757 4.608c0.259 0.018 0.56 0.028 0.865 0.028 7.317 0 13.248-5.931 13.248-13.248 0-6.81-5.138-12.419-11.748-13.164l-0.060-0.006zM774.677 270.528l-133.056-11.52c-7.18 0.177-12.932 6.039-12.932 13.244 0 6.8 5.122 12.403 11.719 13.161l0.061 0.006 131.904 11.52c0.259 0.018 0.56 0.028 0.865 0.028 7.317 0 13.248-5.931 13.248-13.248 0-6.81-5.138-12.419-11.748-13.164l-0.060-0.006z" />
<glyph unicode="&#xe91a;" glyph-name="autobiography" d="M316.992 323.008h50.005v-50.005h-50.005zM442.005 723.008c-13.809 0-25.003-11.194-25.003-25.003s11.194-25.003 25.003-25.003c13.809 0 25.003 11.194 25.003 25.003v0c-0.012 13.804-11.199 24.991-25.002 25.003h-0.001zM691.989 423.019h-499.989v-250.005h499.989zM417.003 223.019h-149.995v149.995h149.995zM617.003 223.019h-150.016v50.005h149.995zM617.003 323.008h-150.016v50.005h149.995zM316.992 498.005c0.121 68.977 56.029 124.855 125.006 124.928h0.007c-41.426 0-75.008 33.582-75.008 75.008s33.582 75.008 75.008 75.008c41.426 0 75.008-33.582 75.008-75.008v0c-0.049-41.406-33.602-74.96-75.003-75.008h-0.005c68.997-0.085 124.907-55.995 124.992-124.984v-25.011h124.992v401.728h-499.989v-401.664h124.992zM366.997 497.984v-25.003h149.995v25.003c-0.711 40.878-34.016 73.743-74.997 73.743s-74.286-32.865-74.996-73.676l-0.001-0.067zM741.995 723.008h99.989v-400h-99.989zM341.995 21.269h499.989v251.733h-99.989v-149.995h-400z" />
<glyph unicode="&#xe91b;" glyph-name="condition" d="M381.333 536.277c-4.298 4.619-10.411 7.5-17.197 7.5-0.262 0-0.522-0.004-0.782-0.013l0.038 0.001c-0.278 0.013-0.603 0.020-0.93 0.020-6.578 0-12.479-2.896-16.499-7.483l-0.022-0.025-60.352-59.733c-4.315-4.29-6.985-10.23-6.985-16.794 0-0.231 0.003-0.461 0.010-0.691l-0.001 0.034c-0.003-0.14-0.004-0.305-0.004-0.47 0-6.784 2.659-12.946 6.991-17.503l-0.010 0.011 202.965-203.456c3.879-3.874 9.063-6.443 14.836-6.99l0.097-0.007c0.769-0.317 1.662-0.502 2.597-0.502 0.137 0 0.273 0.004 0.408 0.012l-0.019-0.001c7.162 0.099 13.644 2.932 18.466 7.5l364.063 363.935c4.335 4.708 6.993 11.020 6.993 17.952s-2.658 13.244-7.010 17.971l0.017-0.019-59.733 59.84c-4.585 4.615-10.935 7.472-17.952 7.472s-13.367-2.857-17.951-7.471l-0.001-0.001-286.357-286.741zM866.581 514.347l-308.693-308.693c-11.923-12.626-28.778-20.486-47.468-20.486-0.667 0-1.332 0.010-1.994 0.030l0.097-0.002h-13.973l-2.987 2.005c-13.080 3.336-24.361 9.765-33.433 18.477l0.025-0.024-202.496 203.435c-12.949 12.417-20.996 29.858-20.996 49.18 0 0.253 0.001 0.505 0.004 0.757v-0.038c-0.009 0.407-0.014 0.887-0.014 1.367 0 18.946 8.053 36.012 20.922 47.96l0.041 0.038 59.904 60.331c12.636 12.639 30.094 20.456 49.378 20.456 19.527 0 37.182-8.016 49.853-20.936l93.771-93.771 198.4 198.976-132.096 132.16c-16.339 16.327-38.905 26.424-63.829 26.424s-47.49-10.097-63.83-26.425l-292.735-292.714c-16.333-16.34-26.435-38.91-26.435-63.84s10.102-47.5 26.435-63.84l292.736-292.736c15.869-16.319 38.034-26.444 62.564-26.444 0.505 0 1.009 0.004 1.512 0.013l-0.076-0.001c0.508-0.011 1.106-0.017 1.706-0.017 24.319 0 46.271 10.138 61.859 26.418l0.030 0.031 292.8 292.736c16.333 16.34 26.435 38.91 26.435 63.84s-10.102 47.5-26.435 63.84v0z" />
<glyph unicode="&#xe91c;" glyph-name="highlight" d="M640.256 853.333c-39.333-0.049-71.205-31.921-71.253-71.249v-49.072h47.509v49.067c0 13.119 10.635 23.755 23.755 23.755s23.755-10.635 23.755-23.755v0-221.653c0.007-0.279 0.011-0.608 0.011-0.937 0-22.739-18.434-41.173-41.173-41.173s-41.173 18.434-41.173 41.173c0 0.33 0.004 0.658 0.012 0.986l-0.001-0.049v101.333h-47.531v-101.333c0-48.966 39.695-88.661 88.661-88.661s88.661 39.695 88.661 88.661v0 221.653c-0.049 39.325-31.909 71.193-71.226 71.253h-0.006zM740.331 255.147c-13.776 10.656-31.295 17.081-50.315 17.081-15.741 0-30.455-4.401-42.977-12.039l0.364 0.206-50.965-30.443-86.4 75.712-115.2-77.717v-42.773h380.011v43.691zM758.997 614.251v-53.824c0-75.205-60.966-136.171-136.171-136.171s-136.171 60.966-136.171 136.171v0 53.824h-234.325v-571.584h665.003v571.584zM418.581 519.253c39.352 0 71.253-31.901 71.253-71.253s-31.901-71.253-71.253-71.253c-39.352 0-71.253 31.901-71.253 71.253v0c0.049 39.333 31.921 71.205 71.249 71.253h0.005zM822.336 137.664h-475.008v115.541l166.571 112.299 87.851-77.056 21.333 12.8c19.113 11.683 42.243 18.601 66.988 18.601 29.903 0 57.446-10.102 79.403-27.080l-0.3 0.223 53.227-40.533zM418.581 471.744c-13.113 0-23.744-10.631-23.744-23.744s10.631-23.744 23.744-23.744c13.113 0 23.744 10.631 23.744 23.744v0c-0.024 13.104-10.64 23.72-23.742 23.744h-0.002zM512.107 758.336l-52.245 63.339h-281.941c-39.333-0.049-71.205-31.921-71.253-71.249v-427.504c0.049-39.333 31.921-71.205 71.249-71.253h26.885v410.005h281.877v47.573h34.837v49.067zM758.997 757.888v-96.128h63.339v25.387c-0.078 36.519-27.583 66.589-63.006 70.71l-0.333 0.031z" />
<glyph unicode="&#xe91d;" glyph-name="language" d="M654.059 688.597l-42.261-113.472h84.523zM421.845 320.341h-105.259c4.825-42.949 24.004-80.701 52.554-109.023l0.012-0.012c28.6 28.325 47.821 66.074 52.616 108.202l0.077 0.833zM833.515 839.104h-357.739c-27.099 0-49.067-21.968-49.067-49.067v0-275.904h-235.413c-27.099 0-49.067-21.968-49.067-49.067v0-357.76c0.23-26.712 21.937-48.277 48.681-48.277 0.001 0 0.001 0 0.002 0h358.208c26.576 0.216 48.062 21.702 48.277 48.257v276.714h236.181c26.58 0.215 48.071 21.699 48.299 48.256v358.166c0 0 0 0.001 0 0.001 0 26.774-21.614 48.5-48.345 48.682h-0.017zM496.683 119.168h-0.427c-0.114 0-0.25 0-0.385 0-47.497 0-91.475 15.070-127.412 40.69l0.672-0.455h-0.107c-35.265-25.165-79.243-40.235-126.74-40.235-0.135 0-0.271 0-0.406 0h-0.406c-11.11 0-20.117 9.007-20.117 20.117s9.007 20.117 20.117 20.117v0c35.38 0.128 68.325 10.445 96.085 28.166l-0.725-0.433c-34.191 35.202-56.853 81.767-61.797 133.502l-0.069 0.898h-33.387c-11.11 0-20.117 9.007-20.117 20.117s9.007 20.117 20.117 20.117h107.435v73.643c0 11.11 9.007 20.117 20.117 20.117s20.117-9.007 20.117-20.117v0-73.664h107.115c11.11 0 20.117-9.007 20.117-20.117s-9.007-20.117-20.117-20.117h-33.472c-4.914-52.602-27.477-99.172-61.626-134.461l0.058 0.061c27.037-17.282 59.98-27.598 95.324-27.733h0.036c11.111 0 20.117-9.007 20.117-20.117s-9.007-20.117-20.117-20.117v0zM761.216 461.632c-0.572-0.265-1.28-0.533-2.007-0.756l-0.126-0.033h0.405c-2.040-0.8-4.402-1.264-6.872-1.264-8.196 0-15.198 5.107-18 12.311l-0.045 0.132-23.744 64.384h-112.64l-13.973-37.888c-8.772 9.446-21.216 15.377-35.048 15.509h-1.069l88.341 237.653c2.69 7.635 9.739 13.053 18.084 13.29l0.028 0.001c8.429-0.071 15.557-5.562 18.073-13.155l0.039-0.136 98.133-265.173c1.003-2.234 1.587-4.842 1.587-7.586 0-7.665-4.558-14.266-11.111-17.24l-0.119-0.048z" />
<glyph unicode="&#xe91e;" glyph-name="content" d="M188.245 199.104h648.043c9.426 0 17.067-7.641 17.067-17.067v-63.744c0-9.426-7.641-17.067-17.067-17.067h-648.043c-9.426 0-17.067 7.641-17.067 17.067v63.744c0 9.426 7.641 17.067 17.067 17.067zM188.245 394.859h648.043c9.426 0 17.067-7.641 17.067-17.067v-63.744c0-9.426-7.641-17.067-17.067-17.067h-648.043c-9.426 0-17.067 7.641-17.067 17.067v63.744c0 9.426 7.641 17.067 17.067 17.067zM529.323 593.579h306.944c9.426 0 17.067-7.641 17.067-17.067v-63.744c0-9.426-7.641-17.067-17.067-17.067h-306.944c-9.426 0-17.067 7.641-17.067 17.067v63.744c0 9.426 7.641 17.067 17.067 17.067zM529.323 789.333h306.944c9.426 0 17.067-7.641 17.067-17.067v-63.744c0-9.426-7.641-17.067-17.067-17.067h-306.944c-9.426 0-17.067 7.641-17.067 17.067v63.744c0 9.426 7.641 17.067 17.067 17.067zM185.024 735.275h61.163v-228.267c-0.030-0.455-0.047-0.988-0.047-1.524 0-13.106 10.188-23.832 23.076-24.691l0.075-0.004h25.963c13.152 0.044 23.895 10.296 24.722 23.245l0.004 0.073v231.147h59.947c0.817-0.099 1.762-0.156 2.721-0.156 12.102 0 22.093 9.037 23.592 20.731l0.012 0.119c0.086 0.657 0.136 1.416 0.136 2.187s-0.049 1.53-0.145 2.275l0.009-0.088v13.184c0.106 0.841 0.166 1.815 0.166 2.803 0 12.089-9.035 22.068-20.72 23.553l-0.118 0.012c-0.66 0.091-1.423 0.144-2.197 0.144s-1.537-0.052-2.284-0.153l0.087 0.010h-194.987c-0.821 0.1-1.771 0.156-2.735 0.156-5.58 0-10.715-1.906-14.789-5.103l0.052 0.039c-4.813-3.789-8.088-9.346-8.843-15.675l-0.011-0.111c-0.090-0.657-0.141-1.416-0.141-2.187s0.051-1.53 0.15-2.274l-0.009 0.087v-13.184c-0.107-0.845-0.168-1.824-0.168-2.816 0-12.077 9.041-22.043 20.724-23.497l0.116-0.012c0.696-0.107 1.499-0.168 2.316-0.168 0.763 0 1.514 0.053 2.249 0.156l-0.085-0.010z" />
<glyph unicode="&#xe91f;" glyph-name="reference" d="M275.776 520.256c0-43.488-35.254-78.741-78.741-78.741s-78.741 35.254-78.741 78.741c0 43.48 35.242 78.729 78.719 78.741h0.001c43.492 0 78.751-35.251 78.763-78.74v-0.001zM302.379 335.317c-24.002 32.636-62.228 53.6-105.353 53.675h-0.012c-0.079 0-0.172 0-0.265 0-72.787 0-131.893-58.577-132.748-131.162l-0.001-0.081v-78.741h185.6c0.167 59.026 19.98 113.392 53.24 156.939l-0.461-0.629zM643.179 572.757c0-72.483-58.759-131.243-131.243-131.243s-131.243 58.759-131.243 131.243c0 72.483 58.759 131.243 131.243 131.243 0.030 0 0.060 0 0.090 0h-0.005c72.447-0.049 131.157-58.789 131.157-131.243 0 0 0 0 0 0v0zM302.016 178.987h419.989c0.007 0.629 0.011 1.372 0.011 2.117 0 115.983-94.023 210.005-210.005 210.005s-210.005-94.023-210.005-210.005c0-0.744 0.004-1.488 0.012-2.23l-0.001 0.113zM905.771 520.256c0-43.488-35.254-78.741-78.741-78.741s-78.741 35.254-78.741 78.741c0 43.48 35.242 78.729 78.719 78.741h0.001c0.006 0 0.014 0 0.021 0 43.488 0 78.741-35.254 78.741-78.741v0zM827.029 388.992c-43.138-0.075-81.363-21.039-105.111-53.313l-0.254-0.361c32.84-42.913 52.69-97.285 52.885-156.285v-0.045h185.6v78.741c-0.843 72.675-59.954 131.265-132.749 131.265-0.131 0-0.261 0-0.391-0.001h0.020z" />
<glyph unicode="&#xe920;" glyph-name="skill" d="M532.267 604.651l-4.971-36.395c-0.108-0.748-0.17-1.611-0.17-2.489 0-10.121 8.205-18.325 18.325-18.325 2.902 0 5.647 0.675 8.085 1.876l-0.108-0.048 33.067 15.979 33.067-15.979c2.331-1.153 5.076-1.828 7.978-1.828 10.121 0 18.325 8.205 18.325 18.325 0 0.878-0.062 1.741-0.181 2.586l0.011-0.097-4.971 36.395 25.408 26.517c3.156 3.287 5.099 7.758 5.099 12.684 0 8.975-6.452 16.443-14.97 18.019l-0.113 0.017-36.139 6.507-17.365 32.363c-3.152 5.807-9.203 9.684-16.16 9.684s-13.008-3.877-16.112-9.588l-0.048-0.096-17.365-32.363-36.139-6.507c-8.631-1.594-15.083-9.061-15.083-18.036 0-4.925 1.943-9.397 5.105-12.69l-0.006 0.006zM568.192 633.899c5.577 1.065 10.177 4.537 12.752 9.269l0.048 0.096 5.397 10.069 5.397-10.069c2.626-4.827 7.225-8.297 12.685-9.347l0.115-0.018 11.243-2.027-7.893-8.235c-3.155-3.287-5.097-7.758-5.097-12.682 0-0.877 0.062-1.739 0.181-2.583l-0.011 0.097 1.557-11.307-10.283 4.971c-2.331 1.153-5.076 1.828-7.979 1.828s-5.647-0.675-8.086-1.876l0.108 0.048-10.283-4.971 1.557 11.307c0.107 0.745 0.168 1.604 0.168 2.478 0 4.927-1.942 9.4-5.102 12.696l0.006-0.006-7.893 8.235zM371.072 647.275h85.333c10.127 0 18.336 8.209 18.336 18.336s-8.209 18.336-18.336 18.336v0h-85.333c-10.127 0-18.336-8.209-18.336-18.336s8.209-18.336 18.336-18.336v0zM371.072 573.952h85.333c10.127 0 18.336 8.209 18.336 18.336s-8.209 18.336-18.336 18.336v0h-85.333c-10.127 0-18.336-8.209-18.336-18.336s8.209-18.336 18.336-18.336v0zM532.267 414.144l-4.971-36.395c-0.108-0.748-0.17-1.611-0.17-2.489 0-10.121 8.205-18.325 18.325-18.325 2.902 0 5.647 0.675 8.085 1.876l-0.108-0.048 33.067 15.979 33.067-15.979c2.331-1.153 5.076-1.828 7.978-1.828 10.121 0 18.325 8.205 18.325 18.325 0 0.878-0.062 1.741-0.181 2.586l0.011-0.097-4.971 36.395 25.408 26.517c3.156 3.287 5.099 7.758 5.099 12.684 0 8.975-6.452 16.443-14.97 18.019l-0.113 0.017-36.16 6.507-17.365 32.363c-3.152 5.807-9.203 9.684-16.16 9.684s-13.008-3.877-16.112-9.588l-0.048-0.096-17.365-32.363-36.139-6.507c-8.631-1.594-15.083-9.061-15.083-18.036 0-4.925 1.943-9.397 5.105-12.69l-0.006 0.006zM568.192 443.392c5.579 1.073 10.179 4.551 12.752 9.29l0.048 0.097 5.397 10.069 5.397-10.069c2.621-4.835 7.221-8.314 12.685-9.368l0.115-0.019 11.243-2.027-7.893-8.235c-3.154-3.289-5.096-7.763-5.096-12.69 0-0.874 0.061-1.734 0.179-2.575l-0.011 0.097 1.557-11.307-10.283 4.971c-2.331 1.155-5.076 1.83-7.979 1.83s-5.648-0.676-8.086-1.878l0.107 0.048-10.283-4.971 1.557 11.307c0.107 0.745 0.168 1.604 0.168 2.478 0 4.927-1.942 9.4-5.102 12.696l0.006-0.006-7.893 8.235zM371.072 456.768h85.333c10.127 0 18.336 8.209 18.336 18.336s-8.209 18.336-18.336 18.336v0h-85.333c-10.127 0-18.336-8.209-18.336-18.336s8.209-18.336 18.336-18.336v0zM371.072 383.445h85.333c10.127 0 18.336 8.209 18.336 18.336s-8.209 18.336-18.336 18.336v0h-85.333c-10.127 0-18.336-8.209-18.336-18.336s8.209-18.336 18.336-18.336v0zM532.267 223.659l-4.971-36.395c-0.108-0.748-0.17-1.611-0.17-2.489 0-10.121 8.205-18.325 18.325-18.325 2.902 0 5.647 0.675 8.085 1.876l-0.108-0.048 33.067 15.979 33.067-15.979c2.331-1.153 5.076-1.828 7.978-1.828 10.121 0 18.325 8.205 18.325 18.325 0 0.878-0.062 1.741-0.181 2.586l0.011-0.097-4.971 36.395 25.408 26.517c3.156 3.287 5.099 7.758 5.099 12.684 0 8.975-6.452 16.443-14.97 18.019l-0.113 0.017-36.16 6.507-17.365 32.363c-3.152 5.807-9.203 9.684-16.16 9.684s-13.008-3.877-16.112-9.588l-0.048-0.096-17.365-32.363-36.139-6.507c-8.631-1.594-15.083-9.061-15.083-18.036 0-4.925 1.943-9.397 5.105-12.69l-0.006 0.006zM568.192 252.907c5.578 1.062 10.179 4.534 12.752 9.269l0.048 0.096 5.397 10.069 5.397-10.069c2.623-4.829 7.223-8.3 12.685-9.347l0.115-0.018 11.243-2.027-7.893-8.235c-3.155-3.287-5.097-7.758-5.097-12.682 0-0.877 0.062-1.739 0.181-2.583l-0.011 0.097 1.536-11.307-10.283 4.971c-2.332 1.152-5.076 1.826-7.979 1.826s-5.647-0.674-8.086-1.874l0.108 0.048-10.283-4.971 1.557 11.307c0.107 0.745 0.168 1.604 0.168 2.478 0 4.927-1.942 9.4-5.102 12.696l0.006-0.006-7.893 8.235zM371.072 266.261h85.333c10.127 0 18.336 8.209 18.336 18.336s-8.209 18.336-18.336 18.336v0h-85.333c-10.127 0-18.336-8.209-18.336-18.336s8.209-18.336 18.336-18.336v0zM371.072 192.939h85.333c10.127 0 18.336 8.209 18.336 18.336s-8.209 18.336-18.336 18.336v0h-85.333c-10.127 0-18.336-8.209-18.336-18.336s8.209-18.336 18.336-18.336v0zM792.341 847.168h-129.088v9.173c0 0 0 0 0 0 0 10.121-8.205 18.325-18.325 18.325-0.015 0-0.030 0-0.045 0h-265.79c-10.121 0-18.325-8.205-18.325-18.325v-9.173h-129.109c-10.121 0-18.325-8.205-18.325-18.325v0-787.605c0-10.121 8.205-18.325 18.325-18.325v0h560.661c10.121 0 18.325 8.205 18.325 18.325v0 787.605c0 10.113-8.192 18.313-18.303 18.325h-0.001zM397.419 837.995h229.163v-64.149h-229.163zM700.672 737.173v-604.267h-377.344v604.267zM773.995 59.563h-523.989v750.933h110.763v-36.651h-55.765c-10.121 0-18.325-8.205-18.325-18.325v0-640.96c0-10.121 8.205-18.325 18.325-18.325h413.995c10.121 0 18.325 8.205 18.325 18.325v0 640.939c0 10.121-8.205 18.325-18.325 18.325h-55.744v36.672h110.763v-750.933z" />
<glyph unicode="&#xe921;" glyph-name="total" d="M713.621 715.883c-33.429-0.090-65.371-6.344-94.786-17.682l1.816 0.615v-53.077c25.369 12.615 55.114 20.443 86.573 21.516l0.36 0.010v-21.333h5.013l-32.384-64.811h21.973v-132.992c0-1.067 0.875-1.792 1.173-2.773s-0.192-1.984 0.363-2.88l43.755-75.755-19.008-10.987 62.336-41.152-4.48 74.56-19.008-10.987-42.176 73.067v130.133h21.973l-32.427 64.747h4.864v21.333c36.17-1.111 69.817-10.923 99.226-27.4l-1.093 0.562-10.368-17.899 10.475-5.995 10.453 18.176c29.456-18.313 53.602-42.459 71.376-70.987l0.538-0.927-18.155-10.517 6.016-10.347 17.835 10.347c15.879-28.325 25.704-61.958 26.892-97.778l0.009-0.356h-21.333v-12.032h21.333c-1.203-36.176-11.027-69.807-27.469-99.24l0.568 1.106-17.835 10.368-5.952-10.432 18.112-10.496c-18.362-29.43-42.514-53.569-71.028-71.374l-0.929-0.541-10.475 18.112-10.368-5.931 10.325-17.899c-28.313-15.927-61.963-25.741-97.808-26.83l-0.325-0.008v21.184h-12.032v-21.184c-31.834 1.037-61.601 8.878-88.219 22.106l1.243-0.559v-53.12c27.671-10.591 59.677-16.725 93.115-16.725 147.771 0 267.563 119.792 267.563 267.563s-119.792 267.563-267.563 267.563c-0.058 0-0.117 0-0.175 0h0.009zM515.968 768h-409.301c-35.346 0-64-28.654-64-64v0-511.659c0-35.346 28.654-64 64-64v0h409.301c35.346 0 64 28.654 64 64v0 511.701c-0.024 35.328-28.669 63.957-64 63.957v0zM538.901 192.32c-0.012-12.657-10.275-22.912-22.933-22.912h-409.301c-12.658 0-22.921 10.255-22.933 22.911v511.702c0.049 12.629 10.297 22.848 22.933 22.848 0 0 0 0 0 0h409.301c12.658 0 22.921-10.255 22.933-22.911v-511.638zM481.92 593.131h-341.333c-6.18-0.384-11.047-5.49-11.047-11.733s4.867-11.349 11.013-11.732l0.034-0.002h341.333c6.18 0.384 11.047 5.49 11.047 11.733s-4.867 11.349-11.013 11.732l-0.034 0.002zM481.92 539.563h-341.333c-6.48 0-11.733-5.253-11.733-11.733s5.253-11.733 11.733-11.733h341.333c6.48 0 11.733 5.253 11.733 11.733s-5.253 11.733-11.733 11.733v0zM481.92 486.037h-341.333c-6.18-0.384-11.047-5.49-11.047-11.733s4.867-11.349 11.013-11.732l0.034-0.002h341.333c6.18 0.384 11.047 5.49 11.047 11.733s-4.867 11.349-11.013 11.732l-0.034 0.002zM347.093 432.469h-206.507c-6.18-0.384-11.047-5.49-11.047-11.733s4.867-11.349 11.013-11.732l0.034-0.002h206.4c6.18 0.384 11.047 5.49 11.047 11.733s-4.867 11.349-11.013 11.732l-0.034 0.002zM306.624 326.677h-166.037c-6.48 0-11.733-5.253-11.733-11.733s5.253-11.733 11.733-11.733h165.952c6.48 0 11.733 5.253 11.733 11.733s-5.253 11.733-11.733 11.733v0z" />
<glyph unicode="&#xe922;" glyph-name="video" d="M873.493 768h-722.987c-12.43 0-22.507-10.077-22.507-22.507v0-596.16c0-12.43 10.077-22.507 22.507-22.507v0h722.987c12.43 0 22.507 10.077 22.507 22.507v0 596.16c0 12.43-10.077 22.507-22.507 22.507v0zM416.811 371.883v151.061c0.118 11.175 6.564 20.817 15.919 25.524l0.166 0.076c4.188 2.152 9.138 3.414 14.382 3.414 6.425 0 12.409-1.894 17.422-5.154l-0.124 0.076 128.747-75.157c0.745-0.435 1.365-0.844 1.962-1.282l-0.063 0.044c7.286-5.213 11.978-13.648 11.978-23.179s-4.692-17.965-11.892-23.12l-0.086-0.058c-0.534-0.393-1.154-0.802-1.794-1.18l-0.105-0.057-128.747-75.157c-4.889-3.184-10.872-5.078-17.298-5.078-5.245 0-10.195 1.262-14.563 3.498l0.181-0.084c-9.525 4.779-15.973 14.423-16.085 25.585v0.015zM656.341 683.819v39.189h75.499v-39.189zM611.349 683.819h-75.499v39.189h75.499zM490.837 683.819h-75.499v39.189h75.499zM370.347 683.819h-75.499v39.189h75.499zM370.347 211.008v-39.168h-75.499v39.168zM415.339 211.008h75.499v-39.168h-75.499zM535.829 211.008h75.499v-39.168h-75.477zM656.341 211.008h75.499v-39.168h-75.499zM851.008 683.819h-74.155v39.189h74.155zM249.856 723.008v-39.189h-76.8v39.189zM173.056 211.008h76.8v-39.168h-76.8zM776.896 171.84v39.168h74.155v-39.168z" />
<glyph unicode="&#xe923;" glyph-name="profile" d="M867.563 768h-711.125c-39.224-0.133-70.983-31.9-71.104-71.114v-497.783c0.133-39.216 31.888-70.971 71.091-71.104h711.138c39.216 0.133 70.971 31.888 71.104 71.091v497.784c-0.121 39.225-31.88 70.992-71.091 71.125h-0.013zM334.229 625.792c39.26-0.012 71.083-31.842 71.083-71.104 0-39.27-31.834-71.104-71.104-71.104-39.262 0-71.092 31.822-71.104 71.081v0.001c0 0.006 0 0.014 0 0.021 0 39.258 31.825 71.083 71.083 71.083 0.015 0 0.030 0 0.045 0h-0.002zM476.459 270.229h-284.459v71.104c0.012 39.265 31.839 71.092 71.103 71.104h142.231c39.27 0 71.104-31.834 71.104-71.104v0zM832.021 270.229h-284.459v71.104h284.437zM832.021 412.459h-284.459v71.083h284.437zM832 554.667h-355.563v71.104h355.563z" />
<glyph unicode="&#xe924;" glyph-name="description" d="M870.187 785.173c-15.69 15.749-37.396 25.494-61.379 25.494-0.097 0-0.193 0-0.29 0l-593.414-0.384c-48.11-0.085-87.080-39.093-87.104-87.208v-0.002l0.256-400.363c0.036-48.114 39.049-87.104 87.168-87.104 0.015 0 0.030 0 0.045 0l195.347 0.128 79.317-131.115c4.16-6.454 11.312-10.667 19.447-10.667 0.026 0 0.051 0 0.077 0h-0.004c0.025 0 0.055 0 0.084 0 8.132 0 15.28 4.213 19.381 10.576l0.055 0.091 0.149 0.256 78.933 130.965 200.533 0.128c0.019 0 0.042 0 0.064 0 48.13 0 87.147 39.017 87.147 87.147 0 0.023 0 0.045 0 0.068v-0.004l-0.235 400.363c0 0.043 0 0.093 0 0.144 0 24.030-9.788 45.773-25.595 61.461l-0.005 0.005zM808.875 261.931l-207.851-0.128c-4.69-0.002-8.8-2.489-11.082-6.215l-0.032-0.057-80.256-133.013-80.427 132.928c-2.321 3.761-6.419 6.229-11.093 6.229 0 0 0 0 0 0h-202.667c-33.788 0-61.181 27.378-61.205 61.16v0.002l-0.299 400.256c0.012 33.792 27.378 61.187 61.157 61.248l593.414 0.363c0 0 0 0 0 0 33.801 0 61.208-27.37 61.269-61.157v-0.006l0.256-400.363c-0.012-33.792-27.378-61.187-61.157-61.248h-0.006zM748.437 446.72h-472.875c-0.157 0.007-0.341 0.011-0.526 0.011-7.175 0-12.992-5.817-12.992-12.992s5.817-12.992 12.992-12.992c0.185 0 0.369 0.004 0.553 0.012l-0.026-0.001h472.875c6.945 0.29 12.466 5.991 12.466 12.981s-5.52 12.691-12.439 12.98l-0.026 0.001zM748.437 539.456h-472.875c-7.169 0-12.981-5.812-12.981-12.981s5.812-12.981 12.981-12.981v0h472.875c7.169 0 12.981 5.812 12.981 12.981s-5.812 12.981-12.981 12.981v0zM748.437 632.171h-472.875c-0.157 0.007-0.341 0.011-0.526 0.011-7.175 0-12.992-5.817-12.992-12.992s5.817-12.992 12.992-12.992c0.185 0 0.369 0.004 0.553 0.012l-0.026-0.001h472.875c6.945 0.29 12.466 5.991 12.466 12.981s-5.52 12.691-12.439 12.98l-0.026 0.001z" />
<glyph unicode="&#xe925;" glyph-name="h1" d="M154.901 187.733h40.704c0.46-0.030 0.998-0.047 1.54-0.047 14.021 0 25.387 11.366 25.387 25.387 0 0.542-0.017 1.080-0.050 1.613l0.004-0.073v208.128h216.576v-208.128c-0.030-0.46-0.047-0.998-0.047-1.54 0-14.021 11.366-25.387 25.387-25.387 0.542 0 1.080 0.017 1.613 0.050l-0.073-0.004h40.704c0.46-0.030 0.998-0.047 1.54-0.047 14.021 0 25.387 11.366 25.387 25.387 0 0.542-0.017 1.080-0.050 1.613l0.004-0.073v483.84c0.030 0.46 0.047 0.998 0.047 1.54 0 14.021-11.366 25.387-25.387 25.387-0.542 0-1.080-0.017-1.613-0.050l0.073 0.004h-40.704c-0.46 0.030-0.998 0.047-1.54 0.047-14.021 0-25.387-11.366-25.387-25.387 0-0.542 0.017-1.080 0.050-1.613l-0.004 0.073v-196.608h-216.576v196.608c0.030 0.46 0.047 0.998 0.047 1.54 0 14.021-11.366 25.387-25.387 25.387-0.542 0-1.080-0.017-1.613-0.050l0.073 0.004h-40.704c-0.46 0.030-0.998 0.047-1.54 0.047-14.021 0-25.387-11.366-25.387-25.387 0-0.542 0.017-1.080 0.050-1.613l-0.004 0.073v-483.84c-0.030-0.46-0.047-0.998-0.047-1.54 0-14.021 11.366-25.387 25.387-25.387 0.542 0 1.080 0.017 1.613 0.050l-0.073-0.004zM890.645 676.267c0.059 0.764 0.093 1.654 0.093 2.552 0 19.382-15.712 35.093-35.093 35.093-0.926 0-1.844-0.036-2.752-0.106l0.12 0.007h-6.912c-0.249 0.002-0.543 0.003-0.837 0.003-21.343 0-41.425-5.404-58.95-14.919l0.652 0.324-72.96-32.256c-17.64-5.137-30.372-21.003-30.719-39.896l-0.001-0.040v-3.072c-0.091-0.979-0.143-2.117-0.143-3.267 0-20.525 16.516-37.193 36.984-37.437h0.023c13.497 0.307 26.138 3.678 37.347 9.442l-0.483-0.226 39.168 17.664v-395.52c-0.030-0.46-0.047-0.998-0.047-1.54 0-14.021 11.366-25.387 25.387-25.387 0.542 0 1.080 0.017 1.613 0.050l-0.073-0.004h40.704c0.46-0.030 0.998-0.047 1.54-0.047 14.021 0 25.387 11.366 25.387 25.387 0 0.542-0.017 1.080-0.050 1.613l0.004-0.073z" />
<glyph unicode="&#xe926;" glyph-name="h2" d="M112.213 187.733h40.704c0.46-0.030 0.998-0.047 1.54-0.047 14.021 0 25.387 11.366 25.387 25.387 0 0.542-0.017 1.080-0.050 1.613l0.004-0.073v208.128h216.576v-208.128c-0.030-0.46-0.047-0.998-0.047-1.54 0-14.021 11.366-25.387 25.387-25.387 0.542 0 1.080 0.017 1.613 0.050l-0.073-0.004h40.704c0.46-0.030 0.998-0.047 1.54-0.047 14.021 0 25.387 11.366 25.387 25.387 0 0.542-0.017 1.080-0.050 1.613l0.004-0.073v483.84c0.030 0.46 0.047 0.998 0.047 1.54 0 14.021-11.366 25.387-25.387 25.387-0.542 0-1.080-0.017-1.613-0.050l0.073 0.004h-40.704c-0.46 0.030-0.998 0.047-1.54 0.047-14.021 0-25.387-11.366-25.387-25.387 0-0.542 0.017-1.080 0.050-1.613l-0.004 0.073v-196.608h-216.576v196.608c0.030 0.46 0.047 0.998 0.047 1.54 0 14.021-11.366 25.387-25.387 25.387-0.542 0-1.080-0.017-1.613-0.050l0.073 0.004h-40.704c-0.46 0.030-0.998 0.047-1.54 0.047-14.021 0-25.387-11.366-25.387-25.387 0-0.542 0.017-1.080 0.050-1.613l-0.004 0.073v-483.84c-0.030-0.46-0.047-0.998-0.047-1.54 0-14.021 11.366-25.387 25.387-25.387 0.542 0 1.080 0.017 1.613 0.050l-0.073-0.004zM895.573 187.733c0.858-0.071 1.856-0.111 2.864-0.111 20.489 0 37.099 16.61 37.099 37.099 0 0.497-0.010 0.991-0.029 1.483l0.002-0.071v7.68c0.006 0.246 0.009 0.537 0.009 0.827 0 20.395-16.533 36.928-36.928 36.928-1.062 0-2.114-0.045-3.153-0.133l0.136 0.009h-213.504v45.312c0 41.472 14.592 54.528 62.976 68.267l68.267 19.2c89.088 25.344 122.88 63.744 122.88 145.067v23.808c0 89.856-57.6 145.067-175.104 145.067-118.272 0-170.496-56.064-170.496-138.24v-23.040c-0.115-0.768-0.18-1.653-0.18-2.554 0-10.062 8.157-18.219 18.219-18.219 0.409 0 0.814 0.013 1.216 0.040l-0.055-0.003h50.773c0.398-0.031 0.863-0.049 1.331-0.049 9.932 0 17.984 8.052 17.984 17.984 0 0.716-0.042 1.423-0.123 2.118l0.008-0.084v20.736c0 40.704 23.808 67.584 81.408 67.584 59.136 0 84.48-23.808 84.48-69.888v-19.968c0-49.067-20.736-62.976-64.512-75.264l-68.267-19.2c-82.261-22.784-122.197-63.488-122.197-141.824v-93.696c-0.116-1.046-0.182-2.26-0.182-3.488 0-18.533 15.024-33.557 33.557-33.557 1.229 0 2.442 0.066 3.637 0.195l-0.148-0.013z" />
<glyph unicode="&#xe927;" glyph-name="image1" d="M840 682.667h-656c-30.865-0.157-55.843-25.135-56-55.985v-368.015c0.157-30.865 25.135-55.843 55.985-56h656.015c30.865 0.157 55.843 25.135 56 55.985v368.015c-0.157 30.865-25.135 55.843-55.985 56h-0.015zM176 626.667c0 0.026 0 0.056 0 0.086 0 4.371 3.544 7.915 7.915 7.915 0.030 0 0.060 0 0.090-0.001h655.995c0.026 0 0.056 0 0.086 0 4.371 0 7.915-3.544 7.915-7.915 0-0.030 0-0.060-0.001-0.090v0.005-151.68l-73.6 65.6c-9.871 8.705-22.914 14.018-37.198 14.018-15.439 0-29.428-6.208-39.608-16.263l0.006 0.006-179.2-179.52-10.24-1.92c-0.741 0.331-1.376 0.761-1.923 1.283l-115.517 115.41c-10.145 10.243-24.213 16.586-39.763 16.586-14.686 0-28.050-5.657-38.033-14.912l0.036 0.033-136.96-126.72z" />
<glyph unicode="&#xe928;" glyph-name="link1" d="M528.149 594.923c0.16-18.505 4.545-35.948 12.235-51.463l-0.309 0.69 0.363-0.725q0.469-0.875 1.003-1.707c1.771-2.731 6.4-9.856 11.883-17.323l2.901-3.989-90.944-90.944c-3.781-3.781-6.119-9.004-6.119-14.773 0-11.539 9.354-20.893 20.893-20.893 5.769 0 10.993 2.338 14.773 6.119v0l53.76 53.76 3.691-6.827c1.173-2.133 2.304-4.267 3.328-6.4 4.808-9.579 7.689-20.85 7.85-32.778l0.001-0.054v-0.597c-3.456-36.595-20.922-68.551-46.902-90.878l-0.181-0.152-2.432-2.133c-0.768-0.668-1.465-1.365-2.111-2.108l-0.022-0.026-2.133-2.475c-22.463-26.137-54.383-43.597-90.393-47.040l-0.551-0.043h-0.555c-17.29 0.061-33.23 5.796-46.065 15.439l0.199-0.143-0.363 0.277c-0.384 0.341-0.768 0.661-1.152 0.96l-2.645 2.027c-4.33 3.346-8.178 6.734-11.799 10.348l0.002-0.002c-16.999 15.203-27.875 36.947-28.647 61.241l-0.003 0.135v0.725c3.415 36.583 20.828 68.545 46.757 90.902l0.176 0.149 2.432 2.133c0.768 0.668 1.465 1.365 2.112 2.108l0.022 0.026 2.133 2.453c18.552 20.276 42.159 35.63 68.834 44.089l1.118 0.306c9.312 2.238 16.125 10.494 16.125 20.341 0 11.539-9.354 20.893-20.893 20.893-1.691 0-3.336-0.201-4.911-0.58l0.143 0.029c-35.783-10.611-66.248-29.944-90.017-55.574l-0.116-0.127c-0.512-0.512-0.853-0.875-1.195-1.28l-2.133-2.347-1.771-1.536c-0.384-0.341-0.747-0.683-1.109-1.045l-0.256-0.256c-34.107-30.055-56.387-72.836-59.367-120.844l-0.025-0.5c0.649-35.857 16.088-67.985 40.455-90.637l0.078-0.072c4.963-4.965 10.237-9.617 15.792-13.925l0.379-0.283 1.28-1.024c0.562-0.525 1.167-1.029 1.8-1.497l0.056-0.039c19.805-15.184 44.88-24.406 72.1-24.618h0.049c48.521 3.006 91.316 25.285 121.221 59.201l0.166 0.191 0.256 0.277c0.363 0.363 0.704 0.747 1.067 1.131l2.133 2.325 1.749 1.515 1.173 1.088c34.224 30.097 56.586 72.974 59.58 121.098l0.025 0.502c-0.167 18.507-4.559 35.95-12.256 51.462l0.309-0.689-0.192 0.384c-4.843 9.707-9.088 16.832-11.797 21.099l-2.475 3.904 89.301 89.301c3.781 3.781 6.119 9.004 6.119 14.773 0 11.539-9.354 20.893-20.893 20.893-5.769 0-10.993-2.338-14.773-6.119v0l-52.48-52.48-3.925 5.739c-1.6 2.325-3.2 4.693-4.672 6.912l-0.405 0.725c-4.426 9.174-7.058 19.936-7.168 31.301v0.635c3.461 36.605 20.934 68.568 46.923 90.899l0.181 0.152 2.432 2.133c0.769 0.667 1.467 1.364 2.112 2.108l0.022 0.026 2.133 2.475c22.485 26.136 54.428 43.589 90.459 47.019l0.549 0.042h0.576c17.291-0.059 33.23-5.795 46.065-15.439l-0.199 0.143 0.341-0.277 1.28-1.067 2.517-1.941c4.32-3.349 8.16-6.737 11.777-10.348l-0.001 0.001c17.011-15.211 27.89-36.973 28.647-61.287l0.003-0.132v-0.725c-3.461-36.594-20.925-68.549-46.902-90.878l-0.18-0.151-2.432-2.133c-0.77-0.666-1.467-1.364-2.112-2.108l-0.022-0.026-2.133-2.475c-18.968-20.515-43.42-35.698-71.028-43.231l-1.057-0.246h-0.363c-9.659-1.966-16.826-10.392-16.826-20.491 0-11.537 9.353-20.89 20.89-20.89 1.438 0 2.842 0.145 4.198 0.422l-0.134-0.023 0.704 0.149c37.090 9.48 68.805 28.767 93.253 54.93l0.101 0.11c0.491 0.491 0.853 0.875 1.195 1.259l2.133 2.347 1.771 1.536c0.384 0.341 0.747 0.683 1.109 1.045l0.256 0.256c34.112 30.046 56.399 72.819 59.388 120.821l0.025 0.502c-0.646 35.857-16.086 67.986-40.455 90.637l-0.079 0.072c-4.962 4.967-10.237 9.619-15.793 13.926l-0.378 0.282-1.301 1.024c-0.569 0.531-1.181 1.041-1.82 1.517l-0.057 0.040c-19.791 15.186-44.85 24.415-72.055 24.64h-0.052c-48.522-3.003-91.317-25.283-121.221-59.2l-0.166-0.192-0.235-0.256c-0.363-0.363-0.704-0.747-1.045-1.131l-2.133-2.347-1.771-1.515c-0.384-0.341-0.789-0.725-1.195-1.109-34.204-30.090-56.55-72.951-59.538-121.057l-0.025-0.501zM509.333 783.552h-232c-55.649-0.169-100.716-45.236-100.885-100.869v-469.349c0.169-55.649 45.236-100.716 100.869-100.885h469.349c55.649 0.169 100.716 45.236 100.885 100.869v230.693c0 11.535-9.351 20.885-20.885 20.885s-20.885-9.351-20.885-20.885v0-230.592c-0.036-32.633-26.481-59.078-59.111-59.115h-469.337c-32.633 0.036-59.078 26.481-59.115 59.111v469.337c0.036 32.633 26.481 59.078 59.111 59.115h232.004c11.535 0 20.885 9.351 20.885 20.885s-9.351 20.885-20.885 20.885v0z" />
<glyph unicode="&#xe929;" glyph-name="move" d="M318.336 300.331l-147.669 147.669 147.669 147.669v-113.707h159.701v159.701h-113.707l147.669 147.669 147.669-147.669h-113.707v-159.701h159.701v113.707l147.669-147.669-147.669-147.669v113.707h-159.701v-159.701h113.707l-147.669-147.669-147.669 147.669h113.707v159.701h-159.701z" />
<glyph unicode="&#xe92a;" glyph-name="presentation" d="M273.963 832h404.203c5.583-0.002 10.637-2.268 14.293-5.93v0l121.259-121.259c3.664-3.654 5.931-8.707 5.931-14.29 0-0.001 0-0.002 0-0.003v0-565.888c0-33.485-27.145-60.629-60.629-60.629v0h-485.056c-33.485 0-60.629 27.145-60.629 60.629v0 646.741c0 33.485 27.145 60.629 60.629 60.629v0zM698.496 762.88v-52.139h52.139zM253.739 124.629c0.012-11.153 9.050-20.191 20.202-20.203h485.057c11.162 0 20.212 9.042 20.224 20.202v545.686h-101.056c-11.158 0-20.203 9.045-20.203 20.203v0 100.949h-384c-11.153-0.012-20.191-9.050-20.203-20.202v-0.001zM691.797 507.947h-350.699c-11.628-0.012-21.053-9.429-21.077-21.054v-300.546c0.024-11.627 9.449-21.044 21.076-21.056h350.615c11.619 0.024 21.032 9.437 21.056 21.054v300.546c-0.024 11.589-9.388 20.984-20.964 21.056h-0.007zM670.741 207.424h-308.48v258.389h308.48z" />
<glyph unicode="&#xe92b;" glyph-name="link" d="M469.44 501.952c0.771-1.601 1.531-2.936 2.369-4.215l-0.086 0.14c2.709-4.267 9.024-13.717 16.149-23.467l-117.205-117.248c-6.464-6.464-10.462-15.395-10.462-25.259 0-19.728 15.993-35.721 35.721-35.721 9.864 0 18.794 3.998 25.259 10.462v0l64.683 64.661c1.536-2.795 3.029-5.632 4.395-8.363 5.934-11.826 9.476-25.747 9.642-40.478v-0.055c0-36.544-20.885-76.907-60.416-116.779l-3.285-2.859c-1.314-1.142-2.506-2.334-3.611-3.604l-0.037-0.044-2.837-3.285c-39.915-39.531-80.277-60.416-116.8-60.416-21.435 0.119-41.189 7.222-57.126 19.145l0.252-0.18c-0.64 0.576-1.323 1.131-2.005 1.664l-3.477 2.667c-5.58 4.287-10.535 8.633-15.194 13.274l0.005-0.005c-21.367 18.966-35.032 46.202-35.943 76.642l-0.004 0.158c0 36.544 20.885 76.928 60.416 116.8l3.307 2.859c1.305 1.136 2.49 2.321 3.59 3.583l0.037 0.044 2.859 3.285c23.896 26.136 54.306 45.931 88.671 56.843l1.441 0.395c15.621 4.049 26.97 18.020 26.97 34.642 0 19.735-15.998 35.733-35.733 35.733-2.947 0-5.81-0.357-8.549-1.029l0.245 0.051c-49.438-14.639-91.526-41.359-124.338-76.792l-0.163-0.178c-0.619-0.619-1.216-1.237-1.771-1.899l-2.133-2.368-2.368-2.133c-0.661-0.555-1.301-1.152-1.899-1.771-53.589-53.653-82.005-111.808-82.005-168.064 0.752-50.379 22.463-95.544 56.778-127.274l0.118-0.108c6.808-6.818 14.045-13.203 21.669-19.112l0.518-0.386 1.152-0.875c0.971-0.916 2.014-1.79 3.107-2.601l0.093-0.066c27.821-21.385 63.105-34.324 101.405-34.475h0.035c56.128 0 114.283 28.416 168.171 82.197 0.619 0.619 1.216 1.259 1.792 1.92l2.027 2.347 2.347 2.133c0.661 0.576 1.301 1.173 1.92 1.771 53.76 53.867 82.197 112.021 82.197 168.171-0.153 26.087-6.327 50.695-17.2 72.555l0.432-0.96-0.277 0.576c-2.517 5.035-8.661 16.917-16.192 28.971l115.2 115.2c6.464 6.464 10.462 15.395 10.462 25.259 0 19.728-15.993 35.721-35.721 35.721-9.864 0-18.794-3.998-25.259-10.462v0l-63.573-63.659c-2.133 3.072-4.267 6.187-6.165 9.131-5.454 11.357-8.703 24.673-8.853 38.732v0.052c0 36.544 20.885 76.8 60.416 116.779l3.307 2.859c1.281 1.126 2.445 2.304 3.523 3.558l0.039 0.047 2.837 3.285c39.915 39.531 80.277 60.416 116.8 60.416 21.436-0.118 41.19-7.22 57.126-19.145l-0.251 0.18c0.64-0.576 1.301-1.131 2.005-1.664l3.477-2.667c5.572-4.317 10.527-8.689 15.189-13.354l0.001-0.001c21.367-18.966 35.032-46.202 35.943-76.642l0.004-0.158c0-36.544-20.885-76.907-60.416-116.8l-3.307-2.859c-1.307-1.134-2.492-2.319-3.59-3.583l-0.037-0.044-2.837-3.285c-24.42-26.356-55.882-45.86-91.396-55.535l-1.361-0.316c-16.215-3.603-28.159-17.863-28.159-34.912 0-19.729 15.993-35.722 35.722-35.722 2.679 0 5.29 0.295 7.8 0.854l-0.238-0.044c51.242 13.097 95.064 39.722 128.865 75.841l0.137 0.148c0.619 0.597 1.195 1.237 1.771 1.899l2.133 2.368 2.368 2.133c0.64 0.555 1.28 1.152 1.899 1.771 53.781 53.845 82.197 112 82.197 168.171-0.752 50.379-22.463 95.544-56.778 127.274l-0.118 0.108c-6.808 6.819-14.045 13.204-21.669 19.113l-0.518 0.386-1.323 0.917c-0.969 0.901-2.012 1.768-3.102 2.576l-0.098 0.070c-27.825 21.37-63.11 34.295-101.408 34.432h-0.032c-56.128 0-114.283-28.416-168.171-82.197-0.619-0.619-1.216-1.259-1.792-1.92l-2.027-2.347-2.368-2.133c-0.661-0.555-1.28-1.152-1.899-1.771-53.76-53.845-82.197-112.021-82.197-168.171 0.153-26.087 6.327-50.695 17.2-72.555l-0.432 0.96zM469.44 501.952" />
<glyph unicode="&#xe92c;" glyph-name="snub" d="M896.021 689.131c0 0.32 0 0.619 0 0.939s0 0.427 0 0.661 0 0.555-0.128 0.832 0 0.469-0.149 0.704-0.128 0.512-0.192 0.768-0.149 0.469-0.235 0.704-0.149 0.469-0.256 0.704-0.213 0.491-0.32 0.725l-0.299 0.64c-0.128 0.256-0.277 0.491-0.427 0.747l-0.341 0.555c-0.171 0.256-0.363 0.512-0.533 0.768l-0.277 0.384-0.597 0.683-0.405 0.469-0.491 0.469c-1.049 0.993-2.25 1.84-3.562 2.5l-0.086 0.039c-1.236 0.631-2.67 1.108-4.182 1.354l-0.085 0.011-744.171-0.341q-0.64-0.171-1.28-0.405l-0.811-0.299c-1.647-0.747-3.058-1.714-4.271-2.884l0.004 0.004-0.448-0.427-0.427-0.469-0.597-0.683-0.277-0.384c-0.192-0.256-0.363-0.512-0.533-0.768l-0.341-0.555-0.427-0.747-0.299-0.64c-0.107-0.235-0.213-0.469-0.32-0.725s-0.171-0.469-0.256-0.704-0.171-0.469-0.235-0.704-0.128-0.512-0.192-0.768-0.107-0.469-0.149-0.704 0-0.555-0.128-0.832 0-0.427 0-0.661 0-0.619 0-0.939 0-0.32 0-0.491v-479.616c0-0.149 0-0.299 0-0.469s0-0.64 0-0.96 0-0.427 0-0.64 0-0.576 0.128-0.853 0-0.469 0.149-0.683 0.128-0.512 0.192-0.768 0.149-0.469 0.235-0.704 0.171-0.469 0.256-0.704 0.213-0.469 0.32-0.725l0.299-0.64c0.128-0.256 0.277-0.491 0.427-0.725l0.341-0.555c0.171-0.256 0.363-0.512 0.533-0.768l0.277-0.384c0.353-0.445 0.702-0.842 1.070-1.219l-0.003 0.003 0.341-0.32c0.277-0.256 0.555-0.512 0.853-0.768l0.533-0.405 0.747-0.533 0.576-0.363 0.811-0.448 0.555-0.277 0.96-0.405 0.491-0.192 1.131-0.32h0.384c0.427 0 0.875-0.171 1.323-0.235h0.277c0.242-0.014 0.525-0.022 0.811-0.022s0.568 0.008 0.85 0.024l-0.039-0.002h737.835c0.242-0.014 0.526-0.022 0.811-0.022s0.568 0.008 0.85 0.024l-0.039-0.002h0.277c0.448 0 0.875 0.128 1.323 0.235h0.384l1.131 0.32 0.491 0.192 0.96 0.405 0.555 0.277 0.811 0.448 0.576 0.363 0.747 0.533 0.533 0.405 0.853 0.768 0.341 0.32c0.365 0.374 0.714 0.771 1.042 1.184l0.024 0.032 0.277 0.384c0.192 0.256 0.363 0.491 0.533 0.768l0.341 0.555 0.427 0.725 0.299 0.64c0.107 0.235 0.213 0.469 0.32 0.725s0.171 0.469 0.256 0.704 0.171 0.469 0.235 0.704 0.128 0.512 0.192 0.768 0.107 0.469 0.149 0.704 0 0.555 0.128 0.832 0 0.427 0 0.661 0 0.619 0 0.939 0 0.32 0 0.491v479.573c0.235 0.171 0.235 0.32 0.235 0.491zM838.059 673.28l-326.037-266.219-326.016 266.197zM158.165 656.661l254.507-207.829-254.507-207.829zM186.027 224.405l250.752 204.8 65.877-53.781c2.538-2.096 5.825-3.367 9.408-3.367s6.87 1.271 9.433 3.387l-0.025-0.020 65.856 53.781 250.752-204.8zM865.941 241.024l-254.507 207.829 254.507 207.829zM671.616 294.4h-106.667c-10.604 0-19.2-8.596-19.2-19.2s8.596-19.2 19.2-19.2h106.667c10.604 0 19.2 8.596 19.2 19.2s-8.596 19.2-19.2 19.2v0zM714.923 294.4c-10.604 0-19.2-8.596-19.2-19.2s8.596-19.2 19.2-19.2v0c10.604 0 19.2 8.596 19.2 19.2s-8.596 19.2-19.2 19.2v0z" />
<glyph unicode="&#xe92d;" glyph-name="align-center" d="M810.667 298.667v-42.667c-0.166-11.715-9.619-21.168-21.318-21.333h-554.683c-0.010 0-0.022 0-0.034 0-5.861 0-11.149 2.454-14.892 6.391l-0.008 0.009c-3.946 3.751-6.4 9.039-6.4 14.9 0 0.012 0 0.024 0 0.035v-0.002 42.667c0 0.015 0 0.034 0 0.052 0 5.855 2.455 11.137 6.391 14.873l0.009 0.008c3.744 3.945 9.026 6.4 14.881 6.4 0.018 0 0.036 0 0.055 0h554.664c11.715-0.166 21.168-9.619 21.333-21.318v-0.016zM362.667 448c-11.715-0.166-21.168-9.619-21.333-21.318v-42.683c0.177-11.71 9.623-21.156 21.317-21.333h298.684c11.71 0.177 21.156 9.623 21.333 21.317v42.684c-0.177 11.71-9.623 21.156-21.317 21.333h-0.017zM277.333 490.667h469.333c11.715 0.166 21.168 9.619 21.333 21.318v42.683c-0.154 11.72-9.614 21.179-21.319 21.333h-469.348c-0.015 0-0.034 0-0.052 0-5.855 0-11.137-2.455-14.873-6.391l-0.008-0.009c-3.945-3.744-6.4-9.026-6.4-14.881 0-0.018 0-0.036 0-0.055v0.003-42.667c0-0.018 0-0.040 0-0.061 0-5.852 2.455-11.132 6.391-14.864l0.009-0.009c3.744-3.945 9.026-6.4 14.881-6.4 0.018 0 0.036 0 0.055 0h-0.003zM405.333 618.667h213.333c11.715 0.166 21.168 9.619 21.333 21.318v42.683c-0.154 11.72-9.614 21.179-21.319 21.333h-213.348c-11.715-0.166-21.168-9.619-21.333-21.318v-42.683c0.166-11.715 9.619-21.168 21.318-21.333h0.016z" />
<glyph unicode="&#xe92e;" glyph-name="align-left" d="M234.667 490.667h512c11.715 0.166 21.168 9.619 21.333 21.318v42.683c-0.166 11.715-9.619 21.168-21.318 21.333h-512.016c-0.015 0-0.034 0-0.052 0-5.855 0-11.137-2.455-14.873-6.391l-0.008-0.009c-3.945-3.744-6.4-9.026-6.4-14.881 0-0.018 0-0.036 0-0.055v0.003-42.667c0-0.015 0-0.034 0-0.052 0-5.855 2.455-11.137 6.391-14.873l0.009-0.008c3.748-3.946 9.032-6.4 14.891-6.4 0.015 0 0.030 0 0.045 0h-0.002zM234.667 618.667h384c11.715 0.166 21.168 9.619 21.333 21.318v42.683c-0.166 11.715-9.619 21.168-21.318 21.333h-384.016c-0.013 0-0.028 0-0.043 0-5.858 0-11.143-2.454-14.882-6.391l-0.008-0.009c-3.946-3.748-6.4-9.032-6.4-14.891 0-0.015 0-0.030 0-0.045v0.002-42.667c0-0.015 0-0.034 0-0.052 0-5.855 2.455-11.137 6.391-14.873l0.009-0.008c3.748-3.946 9.032-6.4 14.891-6.4 0.015 0 0.030 0 0.045 0h-0.002zM804.267 313.664c-3.748 3.946-9.032 6.4-14.891 6.4-0.015 0-0.030 0-0.045 0h-554.665c-0.015 0-0.034 0-0.052 0-5.855 0-11.137-2.455-14.873-6.391l-0.008-0.009c-3.945-3.744-6.4-9.026-6.4-14.881 0-0.018 0-0.036 0-0.055v0.003-42.667c0-0.010 0-0.022 0-0.034 0-5.861 2.454-11.149 6.391-14.892l0.009-0.008c3.751-3.946 9.039-6.4 14.9-6.4 0.012 0 0.024 0 0.035 0h554.665c11.715 0.166 21.168 9.619 21.333 21.318v42.683c0 0.013 0 0.028 0 0.043 0 5.858-2.454 11.143-6.391 14.882l-0.009 0.008zM234.667 362.667h426.667c11.71 0.177 21.156 9.623 21.333 21.317v42.684c-0.177 11.71-9.623 21.156-21.317 21.333h-426.684c-0.015 0-0.034 0-0.052 0-5.855 0-11.137-2.455-14.873-6.391l-0.008-0.009c-3.945-3.744-6.4-9.026-6.4-14.881 0-0.018 0-0.036 0-0.055v0.003-42.667c0-0.015 0-0.034 0-0.052 0-5.855 2.455-11.137 6.391-14.873l0.009-0.008c3.748-3.946 9.032-6.4 14.891-6.4 0.015 0 0.030 0 0.045 0h-0.002z" />
<glyph unicode="&#xe92f;" glyph-name="align-right" d="M789.333 298.667h-554.667c-0.015 0-0.034 0-0.052 0-5.855 0-11.137-2.455-14.873-6.391l-0.008-0.009c-3.945-3.744-6.4-9.026-6.4-14.881 0-0.018 0-0.036 0-0.055v0.003-42.667c0-0.010 0-0.022 0-0.034 0-5.861 2.454-11.149 6.391-14.892l0.009-0.008c3.751-3.946 9.039-6.4 14.9-6.4 0.012 0 0.024 0 0.035 0h554.665c11.715 0.166 21.168 9.619 21.333 21.318v42.683c-0.166 11.715-9.619 21.168-21.318 21.333h-0.016zM789.333 426.667h-426.667c-11.715-0.166-21.168-9.619-21.333-21.318v-42.683c0.177-11.71 9.623-21.156 21.317-21.333h426.684c11.71 0.177 21.156 9.623 21.333 21.317v42.684c-0.166 11.715-9.619 21.168-21.318 21.333h-0.016zM789.333 554.667h-512c-11.715-0.166-21.168-9.619-21.333-21.318v-42.683c0.166-11.715 9.619-21.168 21.318-21.333h512.016c11.715 0.166 21.168 9.619 21.333 21.318v42.683c-0.166 11.715-9.619 21.168-21.318 21.333h-0.016zM804.331 676.331c-3.751 3.946-9.039 6.4-14.9 6.4-0.012 0-0.024 0-0.035 0h-383.998c-11.715-0.166-21.168-9.619-21.333-21.318v-42.683c0.166-11.715 9.619-21.168 21.318-21.333h384.016c11.715 0.166 21.168 9.619 21.333 21.318v42.683c0 0.013 0 0.028 0 0.043 0 5.858-2.454 11.143-6.391 14.882l-0.009 0.008z" />
<glyph unicode="&#xe930;" glyph-name="zoom-in" d="M843.072 73.109l-149.333 149.333c-59.371-49.804-136.606-80.057-220.907-80.057-190.434 0-344.811 154.377-344.811 344.811 0 0.012 0 0.025 0 0.037v-0.002c0 0.006 0 0.012 0 0.019 0 190.41 154.358 344.768 344.768 344.768 95.22 0 181.425-38.602 243.818-101.010l0.001-0.001c62.39-62.403 100.977-148.606 100.977-243.82 0-84.279-30.233-161.496-80.444-221.399l0.438 0.536 149.333-149.333c5.615-5.615 9.088-13.373 9.088-21.941 0-17.137-13.892-31.030-31.030-31.030-8.569 0-16.326 3.473-21.941 9.088v0zM190.101 487.232c0-0.076 0-0.165 0-0.255 0-156.065 126.516-282.581 282.581-282.581 76.733 0 146.323 30.584 197.244 80.227l-0.060-0.058c1.627 2.082 3.443 3.898 5.456 5.473l0.069 0.052c49.51 50.86 80.043 120.409 80.043 197.089 0 156.112-126.554 282.667-282.667 282.667-156.094 0-282.637-126.524-282.667-282.611v-0.003zM441.835 369.579v86.613h-86.677c-17.137 0-31.029 13.892-31.029 31.029s13.892 31.029 31.029 31.029h86.635v86.635c0 17.137 13.892 31.029 31.029 31.029s31.029-13.892 31.029-31.029v0-86.635h86.635c17.137 0 31.029-13.892 31.029-31.029s-13.892-31.029-31.029-31.029v0h-86.635v-86.635c0-17.137-13.892-31.029-31.029-31.029s-31.029 13.892-31.029 31.029v0z" />
<glyph unicode="&#xe931;" glyph-name="palette" d="M512 832c-212.077 0-384-171.923-384-384s171.923-384 384-384v0c34.986 0.881 63.119 29.014 63.998 63.917l0.002 0.083c0.048 0.855 0.075 1.856 0.075 2.863 0 15.666-6.575 29.795-17.117 39.78l-0.025 0.023c-9.604 11.604-15.844 26.307-17.051 42.414l-0.015 0.253c0.881 34.986 29.014 63.119 63.917 63.998l0.083 0.002h76.8c0.637-0.007 1.39-0.011 2.144-0.011 116.643 0 211.2 94.557 211.2 211.2 0 0.754-0.004 1.507-0.012 2.259l0.001-0.115c0 187.733-170.667 341.333-384 341.333zM277.333 448c-34.986 0.881-63.119 29.014-63.998 63.917l-0.002 0.083c0.881 34.986 29.014 63.119 63.917 63.998l0.083 0.002c35.346 0 64-28.654 64-64s-28.654-64-64-64v0zM405.333 618.667c-34.986 0.881-63.119 29.014-63.998 63.917l-0.002 0.083c0.881 34.986 29.014 63.119 63.917 63.998l0.083 0.002c34.986-0.881 63.119-29.014 63.998-63.917l0.002-0.083c-0.881-34.986-29.014-63.119-63.917-63.998l-0.083-0.002zM618.667 618.667c-34.986 0.881-63.119 29.014-63.998 63.917l-0.002 0.083c0 35.346 28.654 64 64 64s64-28.654 64-64v0c-0.881-34.986-29.014-63.119-63.917-63.998l-0.083-0.002zM746.667 448c-34.986 0.881-63.119 29.014-63.998 63.917l-0.002 0.083c0 35.346 28.654 64 64 64s64-28.654 64-64c0-35.346-28.654-64-64-64v0z" />
<glyph unicode="&#xe932;" glyph-name="outbox" d="M512 789.333l-210.773-197.781h133.76v-207.552h154.027v207.552h133.76zM890.56 321.493l-128.96 86.827h-79.573l137.835-105.728h-143.744c-0.066 0.001-0.145 0.002-0.223 0.002-4.009 0-7.519-2.135-9.456-5.329l-0.028-0.049-33.131-90.603h-242.56l-33.131 90.603c-1.965 3.244-5.475 5.378-9.484 5.378-0.078 0-0.157-0.001-0.235-0.002h-143.668l137.856 105.728h-79.659l-128.96-86.827c-16.060-10.343-26.544-28.132-26.544-48.37 0-3.663 0.343-7.245 1-10.717l-0.056 0.357 22.763-124.587c7.035-21.859 27.003-37.477 50.68-37.909l0.050-0.001h661.333c23.72 0.436 43.683 16.042 50.623 37.504l0.107 0.384 22.741 124.587c0.607 3.131 0.954 6.731 0.954 10.412 0 20.227-10.48 38.006-26.306 48.203l-0.226 0.137z" />
<glyph unicode="&#xe933;" glyph-name="arrow-right" d="M571.733 294.101v-153.301l298.667 268.267-298.667 268.288v-157.141c-213.333 0-362.667 61.312-469.333 195.456 42.667-191.616 170.667-383.253 469.333-421.568z" />
<glyph unicode="&#xe934;" glyph-name="arrow-left" d="M452.267 601.899v153.301l-298.667-268.267 298.667-268.288v157.141c213.333 0 362.667-61.312 469.333-195.456-42.667 191.616-170.667 383.253-469.333 421.568z" />
<glyph unicode="&#xe935;" glyph-name="close" d="M768 643.669l-60.331 60.331-195.669-195.669-195.669 195.669-60.331-60.331 195.669-195.669-195.669-195.669 60.331-60.331 195.669 195.669 195.669-195.669 60.331 60.331-195.669 195.669z" />
<glyph unicode="&#xe936;" glyph-name="search" d="M843.051 73.109l-149.333 149.333c-59.414-49.889-136.727-80.195-221.119-80.195-190.504 0-344.939 154.434-344.939 344.939s154.434 344.939 344.939 344.939c190.504 0 344.939-154.434 344.939-344.939 0-84.274-30.222-161.489-80.419-221.399l0.439 0.538 149.333-149.333c5.284-5.555 8.534-13.086 8.534-21.377 0-17.143-13.897-31.040-31.040-31.040-8.291 0-15.822 3.25-21.39 8.546l0.013-0.012zM190.080 487.232c0-0.076 0-0.165 0-0.255 0-156.065 126.516-282.581 282.581-282.581 76.733 0 146.323 30.584 197.244 80.227l-0.060-0.058c1.634 2.076 3.449 3.891 5.457 5.473l0.069 0.052c49.51 50.86 80.043 120.409 80.043 197.089 0 156.112-126.554 282.667-282.667 282.667-156.094 0-282.637-126.524-282.667-282.611v-0.003z" />
<glyph unicode="&#xe937;" glyph-name="heart" d="M509.696 685.845c30.567 73.323 101.35 124.075 184.076 124.821l0.094 0.001c110.933 0 190.848-94.912 200.896-208.021 0.786-6.771 1.234-14.616 1.234-22.566 0-19.963-2.827-39.266-8.102-57.53l0.361 1.461c-17.621-70.638-54.898-130.879-105.639-176.418l-0.324-0.286-272.597-243.2-267.989 243.221c-51.069 45.814-88.347 106.050-105.454 174.287l-0.509 2.396c-4.914 16.803-7.741 36.106-7.741 56.069 0 7.95 0.448 15.795 1.321 23.512l-0.087-0.946c10.027 113.109 89.941 208.021 200.896 208.021 81.541-0.922 150.958-51.842 179.105-123.5l0.457-1.321z" />
<glyph unicode="&#xe938;" glyph-name="heart-o" d="M900.032 598.251c-11.456 126.165-101.099 217.728-213.184 217.728-73.857-0.614-138.681-38.721-176.442-96.197l-0.497-0.806c-36.477 58.246-100.114 96.53-172.727 97.024h-0.073c-112.043 0-201.664-91.584-213.12-217.6-0.8-7.098-1.256-15.325-1.256-23.659 0-21.027 2.904-41.375 8.333-60.666l-0.378 1.574c17.706-72.078 55.724-133.546 107.581-179.837l0.344-0.302 271.125-246.037 275.733 246.016c52.179 46.558 90.187 107.981 107.4 177.601l0.504 2.409c5.029 17.691 7.92 38.008 7.92 59.001 0 8.366-0.459 16.626-1.354 24.754l0.090-1.003zM509.888 143.488l-244.373 221.867c-46.335 41.315-80.089 95.83-95.382 157.627l-0.448 2.139c-4.328 14.927-6.817 32.074-6.817 49.802 0 6.141 0.299 12.212 0.882 18.2l-0.060-0.76 0.256 1.792c9.365 105.28 82.176 181.696 173.035 181.696 70.157-0.838 129.839-44.788 153.85-106.552l0.39-1.139 18.645-43.883 18.539 43.883c26.24 63.221 87.215 107 158.492 107.626l0.079 0.001c90.944 0 163.861-77.035 173.355-183.168 0.525-5.241 0.824-11.327 0.824-17.483 0-17.812-2.505-35.040-7.183-51.348l0.322 1.312v-0.171c-15.693-63.845-49.408-118.28-95.391-159.238l-0.31-0.272z" />
<glyph unicode="&#xe939;" glyph-name="mail" d="M793.323 704h-562.667c-33.119-0.061-59.95-26.892-60.011-60.005v-400.006c0.061-33.114 26.895-59.941 60.006-59.989h562.672c33.124 0.036 59.965 26.885 59.989 60.008v399.981c-0.048 33.116-26.875 59.95-59.984 60.011h-0.006zM785.045 664l-271.787-271.787-274.112 271.787zM210.645 252.267v383.637l192.661-190.976zM238.933 223.979l192.768 192.768 67.499-66.901c3.613-3.609 8.602-5.841 14.112-5.841s10.499 2.232 14.112 5.841v0l65.835 65.856 191.787-191.723zM813.312 252.267l-191.723 191.723 191.723 191.723z" />
<glyph unicode="&#xe93a;" glyph-name="move-out" d="M610.667 136v-58.667h272v272h-58.667v-172.459l-431.467 431.488-40.896-40.896 431.488-431.467zM882.667 461.333v285.333c-0.3 39.658-32.381 71.724-72.016 72h-597.359c-39.658-0.3-71.724-32.381-72-72.016v-597.359c0.229-39.68 32.34-71.783 72.001-72h285.333v58.667h-298.667v624h624v-298.667z" />
<glyph unicode="&#xe93b;" glyph-name="cash" d="M512 832c-212.077 0-384-171.923-384-384s171.923-384 384-384c212.077 0 384 171.923 384 384v0c0 212.077-171.923 384-384 384v0zM544 260.587v-68.587h-64v68.395c-68.16 9.088-111.061 48.747-113.472 107.477h72.939c3.499-29.248 33.003-48 75.499-48 39.253 0 67.008 19.008 67.008 46.229 0 23.019-17.984 36.267-62.251 45.76l-46.933 9.984c-65.749 13.76-97.984 48-97.984 103.019 0 58.56 40.768 99.712 105.216 110.059v69.077h64v-68.992c62.592-10.133 104.832-50.688 106.773-106.133h-71.019c-3.477 28.501-30.016 47.488-66.496 47.488-37.76 0-62.763-17.515-62.763-44.992 0-22.229 17.237-35.008 59.499-44.011l43.477-9.237c72.533-15.275 103.744-46.485 103.744-102.4 0.043-63.531-42.389-105.451-113.237-115.136z" />
<glyph unicode="&#xe93c;" glyph-name="import" d="M544.235 303.531c-4.712-4.394-7.65-10.638-7.65-17.569 0-13.255 10.745-24 24-24 6.92 0 13.156 2.929 17.536 7.614l0.013 0.014 165.568 165.589c4.194 4.832 6.75 11.184 6.75 18.133s-2.556 13.301-6.779 18.168l0.029-0.034-165.568 165.653c-4.343 4.343-10.343 7.029-16.971 7.029-13.255 0-24-10.745-24-24 0-6.627 2.686-12.627 7.029-16.971l125.867-125.867h-518.059c-13.255 0-24-10.745-24-24s10.745-24 24-24v0h518.059zM800 789.333h-480c-53.019 0-96-42.981-96-96v0-96h48v96c0 26.51 21.49 48 48 48v0h480c26.51 0 48-21.49 48-48v0-480c0-26.51-21.49-48-48-48v0h-480c-0.006 0-0.014 0-0.021 0-26.498 0-47.979 21.481-47.979 47.979 0 0.008 0 0.015 0 0.023v-0.001 96h-48v-96c0-53.019 42.981-96 96-96v0h480c53.019 0 96 42.981 96 96v0 480c0 53.019-42.981 96-96 96v0z" />
<glyph unicode="&#xe93d;" glyph-name="camera" d="M512 516.267c-63.623 0-115.2-51.577-115.2-115.2s51.577-115.2 115.2-115.2c63.623 0 115.2 51.577 115.2 115.2v0c0 63.623-51.577 115.2-115.2 115.2v0zM819.2 631.467h-92.16c-13.832 0.64-25.463 9.421-30.256 21.635l-0.080 0.232-23.829 71.488c-4.877 12.431-16.496 21.201-30.239 21.843l-0.076 0.003h-261.12c-13.832-0.64-25.463-9.421-30.256-21.635l-0.080-0.232-23.808-71.488c-4.88-12.437-16.508-21.209-30.261-21.843l-0.075-0.003h-92.16c-42.362-0.133-76.667-34.438-76.8-76.787v-345.613c0.133-42.362 34.438-76.667 76.787-76.8h614.413c42.362 0.133 76.667 34.438 76.8 76.787v345.613c-0.133 42.362-34.438 76.667-76.787 76.8h-0.013zM512 209.067c-106.039 0-192 85.961-192 192s85.961 192 192 192c106.039 0 192-85.961 192-192v0c0-106.039-85.961-192-192-192v0zM792.32 500.971c-14.845 0-26.88 12.035-26.88 26.88s12.035 26.88 26.88 26.88c14.845 0 26.88-12.035 26.88-26.88v0c0-14.845-12.035-26.88-26.88-26.88v0z" />
<glyph unicode="&#xe93e;" glyph-name="chart" d="M128 417.259h203.904v-283.776h-203.904v283.776zM410.048 570.197h203.904v-436.715h-203.904v436.715zM692.096 768h203.904v-634.517h-203.904v634.517z" />
<glyph unicode="&#xe93f;" glyph-name="connect" d="M730.24 68.096h-608.64c0 0-0.001 0-0.001 0-8.247 0-14.933 6.686-14.933 14.933 0 0.060 0 0.12 0.001 0.18v-0.009 429.013c0.128 0.128 0.128 0.128 0.128 0.235v0.917c0.082 0.137 0.131 0.302 0.131 0.478 0 0.027-0.001 0.053-0.003 0.080v-0.003s0 0.235 0 0.448v0.235c0.128 0 0.128 0 0.128 0.235v0.213c0.065 0.061 0.111 0.141 0.128 0.232v0.366c0.012 0.095 0.059 0.177 0.127 0.234h0.001c0.012 0.095 0.059 0.177 0.127 0.234h0.001c0.081 0.078 0.132 0.187 0.132 0.308 0 0.019-0.001 0.038-0.004 0.057v-0.002c0.011 0.035 0.017 0.075 0.017 0.117s-0.006 0.082-0.018 0.12l0.001-0.003v0.235c0.128 0 0.128 0 0.128 0 0.081 0.071 0.132 0.174 0.132 0.289 0 0.018-0.001 0.036-0.004 0.054v-0.002l0.128 0.128c0.018 0.034 0.028 0.074 0.028 0.117s-0.011 0.083-0.029 0.119l0.001-0.001h0.128v0.235c0.081 0.071 0.132 0.174 0.132 0.289 0 0.018-0.001 0.036-0.004 0.054v-0.002c0.213 0 0.213 0 0.213 0.128s0 0 0.128 0 0 0.128 0.128 0.235c0.018 0.051 0.028 0.11 0.028 0.171s-0.010 0.12-0.029 0.174l0.001-0.004c0.145 0.101 0.242 0.262 0.256 0.446v0.002s0 0.128 0 0.128h0.128l0.128 0.128h0.128c0 0.128 0 0.128 0 0.128 0.103 0.175 0.231 0.324 0.381 0.446l0.003 0.002c0.010 0.035 0.016 0.076 0.016 0.117s-0.006 0.082-0.016 0.12l0.001-0.003 0.128 0.128c0.117 0.181 0.267 0.331 0.442 0.445l0.006 0.003c0.213 0.128 0.341 0.235 0.341 0.363h0.256c0.054 0.094 0.126 0.173 0.211 0.233l0.13 0.13s0 0 0.213 0.213 0.256 0.235 0.341 0.235 0.128 0.235 0.341 0.363h0.128c0.101 0.013 0.19 0.059 0.256 0.128v0s0.213 0 0.341 0.213 0.128 0 0.213 0.128h0.128s0 0 0.128 0 0 0.128 0.213 0.235h0.128l129.621 75.371v217.451c0.036 8.35 6.813 15.104 15.168 15.104 0.015 0 0.030 0 0.045 0h463.422c8.318-0.048 15.047-6.784 15.083-15.101v-217.454l129.835-75.371s0.128 0 0.128-0.235 0.128 0 0.213 0h0.128c0-0.071 0.057-0.128 0.128-0.128v0 0c0.128 0 0.128 0 0.256 0 0.071 0 0.128-0.057 0.128-0.128v0h0.213l0.448-0.448h0.128v-0.128h0.128c0.128 0 0.256-0.235 0.341-0.235s0.128 0 0.128-0.235h0.256c0.019-0.15 0.098-0.278 0.212-0.362l0.001-0.001h0.128v-0.213l0.256-0.235c0.087-0.062 0.159-0.14 0.211-0.231l0.002-0.003s0 0 0.128 0 0.128-0.235 0.341-0.448 0.256-0.341 0.256-0.448l0.341-0.235c0-0.235 0-0.235 0.128-0.341v-0.128s0-0.213 0.128-0.213 0-0.128 0.128-0.235v-0.128c0.032 0.008 0.069 0.012 0.107 0.012s0.075-0.004 0.11-0.013l-0.003 0.001v-0.128c-0.002-0.016-0.004-0.034-0.004-0.052 0-0.115 0.051-0.219 0.131-0.289v0h0.128v-0.128s0 0 0.128-0.235 0-0.235 0.128-0.235v0l0.128-0.128v-0.341c0.012-0.095 0.059-0.177 0.127-0.234h0.001c0-0.128 0-0.235 0.128-0.235v-0.235c0.213-0.128 0.213-0.235 0.213-0.341-0.002-0.016-0.004-0.035-0.004-0.055 0-0.121 0.050-0.23 0.131-0.308v0s0 0 0.128-0.235-0.128-0.341 0-0.448 0-0.363 0.128-0.448v-0.448c0.082-0.137 0.131-0.302 0.131-0.478 0-0.027-0.001-0.053-0.003-0.080v0.003-0.917c0-0.007 0-0.015 0-0.023 0-0.206 0.081-0.394 0.214-0.532v0-144.149c-8.793 7.112-18.681 13.565-29.199 18.963l-0.966 0.45v97.835l-346.283-200.789c-2.177-1.317-4.801-2.106-7.608-2.133h-0.008c-2.766 0.005-5.345 0.799-7.526 2.168l0.059-0.035-346.411 200.789v-386.688l528.704-0.128c-20.947 15.877-37.858 35.953-49.683 59.063l-0.45 0.969c-1.621 3.2-3.115 6.4-4.544 9.792 1.365-3.328 2.88-6.592 4.459-9.792h-11.456c-0.133-0.004-0.289-0.007-0.446-0.007-7.847 0-14.208 6.361-14.208 14.208 0 0.258 0.007 0.514 0.020 0.768l-0.002-0.035c-0.013 0.23-0.021 0.498-0.021 0.769 0 7.918 6.418 14.336 14.336 14.336 0.052 0 0.104 0 0.157-0.001h-0.008c-4.063 13.875-6.4 29.814-6.4 46.299 0 0.043 0 0.086 0 0.129v-0.007c0.146 94.198 76.469 170.521 170.653 170.667h0.014c94.198-0.146 170.521-76.469 170.667-170.653v-0.014c-0.028-61.452-32.485-115.317-81.185-145.412l-0.735-0.423c6.878 4.212 12.754 8.362 18.346 12.851l-0.341-0.264v-18.261c0-0.006 0-0.014 0-0.021 0-8.33-6.753-15.083-15.083-15.083 0 0 0 0 0 0h-54.037c-11.311-2.686-24.304-4.239-37.656-4.267h-0.019c-13.042 0.099-25.673 1.641-37.808 4.473l1.157-0.228zM700.864 77.653c-0.576 0.235-1.131 0.469-1.664 0.725 0.533-0.235 1.088-0.491 1.685-0.704zM697.152 79.275l-2.453 1.173zM693.525 80.981l-2.88 1.429zM689.941 82.795c-1.088 0.533-2.133 1.109-3.2 1.685 1.045-0.555 2.133-1.131 3.221-1.664zM686.443 84.651l-3.371 1.877zM682.859 86.677c-1.173 0.64-2.24 1.323-3.371 1.984 1.045-0.683 2.261-1.323 3.392-1.963zM854.571 87.637h0.213zM679.403 88.725c-2.88 1.728-5.675 3.563-8.427 5.461 2.773-1.92 5.611-3.733 8.448-5.461zM669.077 95.509l-0.747 0.576zM889.451 149.589c0.845-1.767 2.618-2.965 4.672-2.965 0 0 0 0 0 0v0c0.033-0.004 0.071-0.007 0.109-0.007 0.173 0 0.334 0.050 0.47 0.137l-0.004-0.002h0.661c2.423 0.564 4.209 2.679 4.267 5.22v0.006c0 73.088-49.621 124.501-126.336 130.859v58.539c0 0.010 0 0.022 0 0.033 0 2.038-1.201 3.796-2.934 4.604l-0.031 0.013c-0.581 0.365-1.287 0.581-2.043 0.581-0.069 0-0.138-0.002-0.207-0.005h0.010c-0.023 0-0.050 0.001-0.078 0.001-1.175 0-2.26-0.385-3.136-1.035l0.014 0.010-126.293-94.763c-1.301-0.979-2.133-2.52-2.133-4.256 0-0.004 0-0.008 0-0.011v0.001c0-0.006 0-0.014 0-0.021 0-1.732 0.833-3.27 2.12-4.235l0.014-0.010 126.293-94.677c0.869-0.703 1.982-1.134 3.196-1.152h0.004c0.822 0.011 1.592 0.223 2.266 0.589l-0.026-0.013c1.769 0.869 2.966 2.658 2.966 4.726 0 0.019 0 0.037 0 0.056v-0.003 57.408c60.203-2.517 97.109-21.44 116.16-59.605zM610.581 168.491c-0.256 0.533-0.448 1.109-0.661 1.643 0.213-0.533 0.405-1.088 0.661-1.557zM273.963 440.256l216.661-125.653 216.661 125.653v361.6h-433.323zM737.515 457.728l92.032 53.461-92.032 53.461zM151.765 511.189l92.032-53.461v106.923zM342.549 475.2c-8.247 0-14.933 6.686-14.933 14.933v0c0 0.007 0 0.014 0 0.022 0 8.277 6.668 14.997 14.925 15.082h148.125c0.057 0.001 0.125 0.001 0.193 0.001 8.247 0 14.933-6.686 14.933-14.933 0-0.060 0-0.121-0.001-0.181v0.009c-0.096-8.268-6.821-14.933-15.103-14.933-0.008 0-0.016 0-0.024 0h0.001zM342.549 553.856c0 0 0 0-0.001 0-8.247 0-14.933 6.686-14.933 14.933 0 0.052 0 0.105 0.001 0.157v-0.008c0 0.007 0 0.014 0 0.022 0 8.277 6.668 14.997 14.925 15.082h296.221c8.323-0.036 15.059-6.78 15.083-15.102v-0.002c0-0.006 0-0.014 0-0.021 0-8.318-6.743-15.061-15.061-15.061-0.008 0-0.015 0-0.023 0h0.001zM342.549 632.619c-8.247 0-14.933 6.686-14.933 14.933v0c0 0 0 0 0 0.001 0 8.277 6.668 14.997 14.925 15.082h296.221c8.315-0.036 15.046-6.767 15.083-15.079v-0.003c-0.060-8.26-6.771-14.933-15.040-14.933-0.015 0-0.030 0-0.045 0h0.002zM342.549 711.275c0 0-0.001 0-0.001 0-8.247 0-14.933 6.686-14.933 14.933 0 0.060 0 0.12 0.001 0.18v-0.009c0.072 8.218 6.715 14.862 14.926 14.933h296.22c8.268-0.023 14.975-6.677 15.083-14.923v-0.010c0-0.013 0-0.028 0-0.043 0-8.318-6.743-15.061-15.061-15.061-0.008 0-0.015 0-0.023 0h0.001z" />
<glyph unicode="&#xe940;" glyph-name="received" d="M896.021 578.88c0 0.299 0 0.619 0 0.939s0 0.427 0 0.661 0 0.555-0.128 0.832 0 0.469-0.149 0.704-0.128 0.512-0.192 0.768-0.149 0.469-0.235 0.704-0.149 0.469-0.256 0.704-0.213 0.491-0.32 0.725l-0.299 0.64c-0.128 0.256-0.277 0.491-0.427 0.725l-0.341 0.555c-0.171 0.256-0.363 0.512-0.533 0.768l-0.277 0.384-0.597 0.683-0.405 0.469-0.491 0.469c-1.049 0.993-2.25 1.84-3.562 2.5l-0.086 0.039c-1.236 0.631-2.67 1.108-4.182 1.354l-0.085 0.011-744.171-0.341c-0.427-0.107-0.853-0.256-1.28-0.405l-0.811-0.299c-1.647-0.747-3.058-1.714-4.271-2.884l0.004 0.004-0.448-0.427-0.427-0.469-0.597-0.683-0.277-0.384c-0.192-0.256-0.363-0.512-0.533-0.768l-0.341-0.555-0.427-0.725-0.299-0.64c-0.107-0.235-0.213-0.469-0.32-0.725s-0.171-0.469-0.256-0.704-0.171-0.469-0.235-0.704-0.128-0.512-0.192-0.768-0.107-0.469-0.149-0.704 0-0.555-0.128-0.832 0-0.427 0-0.661 0-0.619 0-0.939 0-0.32 0-0.491v-479.616c0-0.149 0-0.299 0-0.469s0-0.64 0-0.96 0-0.427 0-0.64 0-0.576 0.128-0.853 0-0.448 0.149-0.683 0.128-0.512 0.192-0.768 0.149-0.469 0.235-0.704 0.171-0.469 0.256-0.704 0.213-0.469 0.32-0.725l0.299-0.64c0.128-0.256 0.277-0.491 0.427-0.725l0.341-0.555c0.171-0.256 0.363-0.512 0.533-0.768l0.277-0.384c0.353-0.445 0.702-0.842 1.070-1.219l-0.003 0.003 0.341-0.32c0.277-0.256 0.555-0.512 0.853-0.768l0.533-0.405 0.747-0.533 0.576-0.363 0.811-0.448 0.555-0.277 0.96-0.405 0.491-0.192 1.131-0.32h0.384c0.427 0 0.875-0.171 1.323-0.213h0.277c0.242-0.014 0.525-0.022 0.811-0.022s0.568 0.008 0.85 0.024l-0.039-0.002h737.835c0.242-0.014 0.525-0.022 0.811-0.022s0.568 0.008 0.85 0.024l-0.039-0.002h0.277c0.448 0 0.875 0.128 1.323 0.213h0.384l1.131 0.32 0.491 0.192 0.96 0.405 0.555 0.277 0.811 0.448 0.576 0.363 0.747 0.533 0.533 0.405c0.299 0.235 0.576 0.491 0.853 0.768l0.341 0.32c0.365 0.374 0.714 0.771 1.042 1.184l0.024 0.032 0.277 0.384c0.192 0.256 0.363 0.491 0.533 0.768l0.341 0.555c0.149 0.235 0.277 0.491 0.427 0.725l0.299 0.64c0.107 0.235 0.213 0.469 0.32 0.725s0.171 0.469 0.256 0.704 0.171 0.469 0.235 0.704 0.128 0.512 0.192 0.747 0.107 0.469 0.149 0.704 0 0.555 0.128 0.832 0 0.427 0 0.661 0 0.619 0 0.939 0 0.32 0 0.491v479.595c0.235 0.171 0.235 0.32 0.235 0.491zM838.059 563.029l-326.037-266.219-326.016 266.197zM158.165 546.411l254.507-207.829-254.507-207.829zM186.027 114.155l250.752 204.8 65.877-53.781c2.538-2.096 5.825-3.367 9.408-3.367s6.87 1.271 9.433 3.387l-0.025-0.020 65.856 53.781 250.752-204.8zM865.941 130.773l-254.507 207.829 254.507 207.829zM513.024 739.925l-65.152 65.173c-3.475 3.476-8.276 5.626-13.579 5.626s-10.104-2.15-13.579-5.626l-65.152-65.173c-3.475-3.475-5.624-8.276-5.624-13.579 0-10.606 8.598-19.203 19.203-19.203 5.303 0 10.104 2.149 13.579 5.624l32.384 32.384v-137.856c0-10.604 8.596-19.2 19.2-19.2s19.2 8.596 19.2 19.2v137.835l32.384-32.384c3.475-3.475 8.276-5.624 13.579-5.624 10.606 0 19.203 8.598 19.203 19.203 0 5.303-2.149 10.104-5.624 13.579v0zM668.544 685.995c-3.475 3.476-8.276 5.626-13.579 5.626s-10.104-2.15-13.579-5.626l-32.384-32.384v137.856c0 10.604-8.596 19.2-19.2 19.2s-19.2-8.596-19.2-19.2v0-137.856l-32.384 32.384c-3.475 3.475-8.276 5.624-13.579 5.624-10.606 0-19.203-8.598-19.203-19.203 0-5.303 2.149-10.104 5.624-13.579l65.173-65.173c3.475-3.476 8.276-5.626 13.579-5.626s10.104 2.15 13.579 5.626l65.152 65.152c3.482 3.476 5.636 8.281 5.636 13.589s-2.154 10.114-5.636 13.589v0zM671.616 184.149h-106.667c-10.604 0-19.2-8.596-19.2-19.2s8.596-19.2 19.2-19.2h106.667c10.604 0 19.2 8.596 19.2 19.2s-8.596 19.2-19.2 19.2v0zM714.923 184.149c-10.604 0-19.2-8.596-19.2-19.2s8.596-19.2 19.2-19.2v0c10.604 0 19.2 8.596 19.2 19.2s-8.596 19.2-19.2 19.2v0z" />
<glyph unicode="&#xe941;" glyph-name="read" d="M897.024 509.013c0 0.192 0 0.384 0 0.576s0 0.363 0 0.555 0 0.256 0 0.384 0 0.363 0 0.555v0.491c0 0.149 0 0.299 0 0.448l-0.128 0.491-0.128 0.469-0.149 0.512-0.149 0.405-0.512 0.469-0.235 0.533-0.149 0.32-0.256 0.512-0.299 0.533v0.277l-0.32 0.491-0.32 0.469-0.213 0.299-0.363 0.448-0.341 0.405-0.277 0.32-0.363 0.384-0.363 0.341-0.384 0.363-0.341 0.277-0.405 0.32-0.448 0.341-0.299 0.213-0.491 0.32-0.512 0.32h-0.107l-133.675 75.648v218.517c-0.107 8.377-6.923 15.127-15.316 15.127-0.090 0-0.181-0.001-0.271-0.002h-476.85c-0.051 0.001-0.111 0.001-0.172 0.001-8.392 0-15.208-6.749-15.316-15.116v-218.527l-134.592-76.203-0.256-0.341-0.448-0.341-0.427-0.341-0.341-0.277-0.363-0.341-0.725-0.725-0.277-0.32-0.341-0.405-0.363-0.448-0.213-0.299-0.341-0.491-0.427-0.427v-0.277l-0.299-0.533-0.256-0.491-0.149-0.32-0.235-0.555-0.171-0.469-0.149-0.405c0-0.171 0-0.341-0.149-0.533l-0.213-0.533-0.128-0.491c0-0.149 0-0.299 0-0.469v-0.491c0-0.192 0-0.363 0-0.555s0-0.256 0-0.384 0-0.363 0-0.555 0-0.384 0-0.576 0-0.107 0-0.171v-429.824c0.108-8.377 6.924-15.126 15.316-15.126 0.060 0 0.121 0 0.181 0.001h759.458c0.051-0.001 0.111-0.001 0.172-0.001 8.392 0 15.208 6.749 15.316 15.116v429.941s-0.427 0.128-0.427 0.171zM755.797 562.539l94.848-53.696-94.848-53.696zM278.869 800.896h445.867v-363.307l-222.891-126.229-222.976 126.251zM247.872 562.539v-107.371l-94.827 53.675zM866.091 94.037h-728.427v388.523l356.416-201.792c2.237-1.284 4.918-2.042 7.776-2.042s5.539 0.757 7.853 2.082l-0.077-0.041 356.459 201.792zM651.392 736.939h-298.944c-8.247 0-14.933-6.686-14.933-14.933s6.686-14.933 14.933-14.933h298.944c8.247 0 14.933 6.686 14.933 14.933s-6.686 14.933-14.933 14.933v0zM651.392 658.005h-298.944c-8.247 0-14.933-6.686-14.933-14.933s6.686-14.933 14.933-14.933h298.944c8.247 0 14.933 6.686 14.933 14.933s-6.686 14.933-14.933 14.933v0zM651.392 581.205h-298.944c-8.247 0-14.933-6.686-14.933-14.933s6.686-14.933 14.933-14.933h298.944c8.247 0 14.933 6.686 14.933 14.933s-6.686 14.933-14.933 14.933v0zM510.208 502.272h-164.587c-4.629 0-8.363-6.677-8.363-14.933s3.755-14.933 8.363-14.933h164.587c4.629 0 8.363 6.677 8.363 14.933s-3.733 14.933-8.363 14.933zM743.595 132.587h-105.28c-6.999 0-12.672-5.673-12.672-12.672s5.673-12.672 12.672-12.672h105.259c0.003 0 0.007 0 0.011 0 6.999 0 12.672 5.673 12.672 12.672 0 6.995-5.667 12.666-12.661 12.672h-0.001zM821.845 135.339c-6.999 0-12.672-5.673-12.672-12.672s5.673-12.672 12.672-12.672v0c6.999 0 12.672 5.673 12.672 12.672s-5.673 12.672-12.672 12.672v0z" />
</font>
</defs>
</svg>
