<svg id="achievment" xmlns="http://www.w3.org/2000/svg" width="24" height="24" viewBox="0 0 24 24">
  <g id="Layer_3" data-name="Layer 3">
    <rect id="Rectangle_24465" data-name="Rectangle 24465" width="24" height="24" fill="#fff" opacity="0"/>
  </g>
  <g id="icon">
    <path id="Path_99710" data-name="Path 99710" d="M16.39,22a.72.72,0,0,1-.29-.06L12,20.21,7.91,21.94a.751.751,0,0,1-1.05-.69v-3.7h1.5v2.57l3.33-1.41a.76.76,0,0,1,.59,0l3.36,1.41V17.55h1.5v3.7a.77.77,0,0,1-.34.63A.75.75,0,0,1,16.39,22Z" fill="#fff"/>
    <path id="Path_99711" data-name="Path 99711" d="M12,17.38a.8.8,0,0,1-.46-.16L9.92,16l-2.06.08a.71.71,0,0,1-.75-.54l-.56-1.93L4.84,12.46a.74.74,0,0,1-.29-.89l.7-1.88-.7-1.88a.74.74,0,0,1,.29-.89L6.55,5.8l.56-1.93a.71.71,0,0,1,.75-.54l2.06.07,1.62-1.24a.75.75,0,0,1,.92,0L14.08,3.4l2.06-.07a.71.71,0,0,1,.75.54l.56,1.93,1.71,1.12a.74.74,0,0,1,.29.89l-.7,1.88.7,1.88a.74.74,0,0,1-.29.89l-1.71,1.12-.56,1.93a.71.71,0,0,1-.75.54L14.08,16l-1.62,1.25A.8.8,0,0,1,12,17.38Zm-1.84-2.92a.76.76,0,0,1,.46.16L12,15.68l1.38-1.06a.63.63,0,0,1,.49-.15l1.75.06.47-1.64a.71.71,0,0,1,.31-.41l1.44-1L17.24,10a.8.8,0,0,1,0-.53l.6-1.58L16.4,6.9a.77.77,0,0,1-.31-.42l-.47-1.63-1.75.06a.72.72,0,0,1-.49-.16L12,3.7l-1.38,1a.72.72,0,0,1-.49.16L8.38,4.85,7.91,6.48a.77.77,0,0,1-.31.42l-1.44.94.6,1.58a.8.8,0,0,1,0,.53l-.6,1.58,1.44,1a.71.71,0,0,1,.31.41l.47,1.64,1.75-.06Z" fill="#fff"/>
  </g>
</svg>
