<svg id="add_to_person" data-name="add to person" xmlns="http://www.w3.org/2000/svg" width="24" height="24" viewBox="0 0 24 24">
  <g id="Layer_3" data-name="Layer 3">
    <rect id="Rectangle_24467" data-name="Rectangle 24467" width="24" height="24" fill="#fff" opacity="0"/>
  </g>
  <g id="icon">
    <path id="Path_99716" data-name="Path 99716" d="M12,19.75H5.27A1.77,1.77,0,0,1,3.5,18a1.59,1.59,0,0,1,.14-.68,1.74,1.74,0,0,1,1.19-.94l.3-.09A10.72,10.72,0,0,0,9.92,13.5H10a1.014,1.014,0,0,1,.28.09l.33.09.34.06.28.05h1.94l.38-.08.28-.08.34-.11c.2-.07.4-.16.6-.25h0a6.3,6.3,0,1,0-6.27-.44,9.35,9.35,0,0,1-3.74,2.06l-.3.08a3.21,3.21,0,0,0-2.19,1.81A3.37,3.37,0,0,0,2,18a3.27,3.27,0,0,0,3.27,3.27H12a.75.75,0,1,0,0-1.5ZM7.2,7.55a4.8,4.8,0,1,1,6.88,4.32h0a4.75,4.75,0,0,1-3.36.3l-.19-.05h-.06L10,11.93h0A4.78,4.78,0,0,1,7.2,7.55Z" fill="#fff"/>
    <path id="Path_99717" data-name="Path 99717" d="M21.25,17.38H18.88V15a.76.76,0,0,0-.76-.75.75.75,0,0,0-.74.75v2.38H15a.75.75,0,0,0-.75.74.76.76,0,0,0,.75.76h2.38v2.37a.75.75,0,0,0,.74.75.76.76,0,0,0,.76-.75V18.88h2.37a.76.76,0,0,0,.75-.76.75.75,0,0,0-.75-.74Z" fill="#fff"/>
  </g>
</svg>
