<svg id="add" xmlns="http://www.w3.org/2000/svg" width="24" height="24" viewBox="0 0 24 24">
  <g id="Layer_3" data-name="Layer 3">
    <rect id="Rectangle_24468" data-name="Rectangle 24468" width="24" height="24" fill="#fff" opacity="0"/>
  </g>
  <g id="icon">
    <path id="Path_99718" data-name="Path 99718" d="M12,2A10,10,0,1,0,22,12,10,10,0,0,0,12,2Zm0,18.5A8.5,8.5,0,1,1,20.5,12,8.5,8.5,0,0,1,12,20.5Z" fill="#fff"/>
    <path id="Path_99719" data-name="Path 99719" d="M16,11.25H12.75V8a.75.75,0,0,0-1.5,0v3.25H8a.75.75,0,0,0,0,1.5h3.25V16a.75.75,0,0,0,1.5,0V12.75H16a.75.75,0,0,0,0-1.5Z" fill="#fff"/>
  </g>
</svg>
