<svg xmlns="http://www.w3.org/2000/svg" width="48" height="48" viewBox="0 0 48 48">
  <g id="align-center" transform="translate(-540 -247)">
    <rect id="Rectangle_23610" data-name="Rectangle 23610" width="48" height="48" transform="translate(540 247)" fill="gray" opacity="0"/>
    <g id="center-text-alignment" transform="translate(550 259)">
      <path id="Path_89072" data-name="Path 89072" d="M28,73.817v2a1.014,1.014,0,0,1-1,1H1a.963.963,0,0,1-.7-.3.963.963,0,0,1-.3-.7v-2a.961.961,0,0,1,.3-.7.961.961,0,0,1,.7-.3H27a1.014,1.014,0,0,1,1,1Zm-21-7a1.014,1.014,0,0,0-1,1v2a1.015,1.015,0,0,0,1,1H21a1.015,1.015,0,0,0,1-1v-2a1.015,1.015,0,0,0-1-1Zm-4-2H25a1.014,1.014,0,0,0,1-1v-2a1.013,1.013,0,0,0-1-1H3a.961.961,0,0,0-.7.3.961.961,0,0,0-.3.7v2a.96.96,0,0,0,.3.7A.961.961,0,0,0,3,64.817Zm6-6H19a1.014,1.014,0,0,0,1-1v-2a1.013,1.013,0,0,0-1-1H9a1.014,1.014,0,0,0-1,1v2a1.014,1.014,0,0,0,1,1Z" transform="translate(0 -54.817)" fill="gray"/>
    </g>
  </g>
</svg>
