<svg id="animal" xmlns="http://www.w3.org/2000/svg" width="24" height="24" viewBox="0 0 24 24">
  <g id="Layer_3" data-name="Layer 3">
    <rect id="Rectangle_24469" data-name="Rectangle 24469" width="24" height="24" fill="#fff" opacity="0"/>
  </g>
  <g id="icon">
    <path id="Path_99720" data-name="Path 99720" d="M17.6,20.89a6,6,0,0,1-2.11-.63A9.11,9.11,0,0,0,12,19.33a9.11,9.11,0,0,0-3.49.93c-1.16.49-2.16.91-2.95.39a2.39,2.39,0,0,1-.78-2.07c0-3.83,3.09-8.11,7.22-8.11s7.22,4.28,7.22,8.11a2.39,2.39,0,0,1-.78,2.07A1.49,1.49,0,0,1,17.6,20.89ZM12,12c-3.22,0-5.72,3.55-5.72,6.61,0,.67.13.83.13.83a5.71,5.71,0,0,0,1.52-.53A10.45,10.45,0,0,1,12,17.83a10.45,10.45,0,0,1,4.07,1.05,5.47,5.47,0,0,0,1.56.51,2.76,2.76,0,0,0,.09-.81C17.72,15.52,15.22,12,12,12Z" fill="#fff"/>
    <path id="Path_99721" data-name="Path 99721" d="M12.12,9.07C11,9.07,10,7.76,10,6.09s.92-3,2.09-3,2.09,1.31,2.09,3S13.29,9.07,12.12,9.07Zm0-4.46c-.15,0-.59.51-.59,1.48s.44,1.48.59,1.48.59-.51.59-1.48-.44-1.48-.59-1.48Z" fill="#fff"/>
    <path id="Path_99722" data-name="Path 99722" d="M5.09,11.72c-1.17,0-2.09-1.31-2.09-3s.92-3,2.09-3,2.09,1.31,2.09,3S6.26,11.72,5.09,11.72Zm0-4.46c-.15,0-.59.51-.59,1.48s.44,1.48.59,1.48.59-.51.59-1.48S5.24,7.26,5.09,7.26Z" fill="#fff"/>
    <path id="Path_99723" data-name="Path 99723" d="M18.91,11.67c-1.17,0-2.09-1.31-2.09-3s.92-3,2.09-3S21,7,21,8.68,20.08,11.67,18.91,11.67Zm0-4.46c-.15,0-.59.5-.59,1.47s.44,1.49.59,1.49.59-.51.59-1.49S19.06,7.21,18.91,7.21Z" fill="#fff"/>
  </g>
</svg>
