<svg id="apps2" xmlns="http://www.w3.org/2000/svg" width="24" height="24" viewBox="0 0 24 24">
  <g id="Layer_3" data-name="Layer 3">
    <rect id="Rectangle_24471" data-name="Rectangle 24471" width="24" height="24" fill="#fff" opacity="0"/>
  </g>
  <g id="icon">
    <path id="Path_99728" data-name="Path 99728" d="M18.25,6.5h3A.75.75,0,0,0,22,5.75v-3A.76.76,0,0,0,21.25,2h-3a.75.75,0,0,0-.75.75v3a.74.74,0,0,0,.75.75Zm.75-3h1.5V5H19Z" fill="#fff"/>
    <path id="Path_99729" data-name="Path 99729" d="M13.5,2h-3a.75.75,0,0,0-.75.75v3a.74.74,0,0,0,.75.75h3a.75.75,0,0,0,.75-.75v-3A.76.76,0,0,0,13.5,2Zm-.75,3h-1.5V3.5h1.5Z" fill="#fff"/>
    <path id="Path_99730" data-name="Path 99730" d="M5.75,2h-3A.76.76,0,0,0,2,2.75v3a.75.75,0,0,0,.75.75h3a.74.74,0,0,0,.75-.75v-3A.75.75,0,0,0,5.75,2ZM5,5H3.5V3.5H5Z" fill="#fff"/>
    <path id="Path_99731" data-name="Path 99731" d="M21.25,17.5h-3a.74.74,0,0,0-.75.75v3a.75.75,0,0,0,.75.75h3a.76.76,0,0,0,.75-.75v-3A.75.75,0,0,0,21.25,17.5Zm-.75,3H19V19h1.5Z" fill="#fff"/>
    <path id="Path_99732" data-name="Path 99732" d="M21.25,9.75h-3a.75.75,0,0,0-.75.75v3a.75.75,0,0,0,.75.75h3A.76.76,0,0,0,22,13.5v-3a.76.76,0,0,0-.75-.75Zm-.75,3H19v-1.5h1.5Z" fill="#fff"/>
    <path id="Path_99733" data-name="Path 99733" d="M13.5,17.5h-3a.74.74,0,0,0-.75.75v3a.75.75,0,0,0,.75.75h3a.76.76,0,0,0,.75-.75v-3A.75.75,0,0,0,13.5,17.5Zm-.75,3h-1.5V19h1.5Z" fill="#fff"/>
    <path id="Path_99734" data-name="Path 99734" d="M5.75,17.5h-3a.75.75,0,0,0-.75.75v3a.76.76,0,0,0,.75.75h3a.75.75,0,0,0,.75-.75v-3a.74.74,0,0,0-.75-.75ZM5,20.5H3.5V19H5Z" fill="#fff"/>
    <path id="Path_99735" data-name="Path 99735" d="M5.75,9.75h-3A.76.76,0,0,0,2,10.5v3a.76.76,0,0,0,.75.75h3a.75.75,0,0,0,.75-.75v-3A.75.75,0,0,0,5.75,9.75Zm-.75,3H3.5v-1.5H5Z" fill="#fff"/>
    <path id="Path_99736" data-name="Path 99736" d="M13.5,9.75h-3a.75.75,0,0,0-.75.75v3a.75.75,0,0,0,.75.75h3a.76.76,0,0,0,.75-.75v-3a.76.76,0,0,0-.75-.75Zm-.75,3h-1.5v-1.5h1.5Z" fill="#fff"/>
  </g>
</svg>
