<svg id="apps" xmlns="http://www.w3.org/2000/svg" width="24" height="24" viewBox="0 0 24 24">
  <g id="Layer_3" data-name="Layer 3">
    <rect id="Rectangle_24470" data-name="Rectangle 24470" width="24" height="24" fill="#fff" opacity="0"/>
  </g>
  <g id="icon">
    <path id="Path_99724" data-name="Path 99724" d="M10.57,2.75H4.64A1.89,1.89,0,0,0,2.75,4.64v5.93a.51.51,0,0,0,.5.51H9.18a1.9,1.9,0,0,0,1.9-1.9V3.25a.51.51,0,0,0-.51-.5Zm-1,6.43a.4.4,0,0,1-.4.4H4.25V4.64a.38.38,0,0,1,.39-.39H9.58Z" fill="#fff"/>
    <path id="Path_99725" data-name="Path 99725" d="M19.36,2.75H13.43a.51.51,0,0,0-.51.5V9.18a1.9,1.9,0,0,0,1.9,1.9h5.93a.51.51,0,0,0,.5-.51V4.64A1.89,1.89,0,0,0,19.36,2.75Zm.39,6.83H14.82a.4.4,0,0,1-.4-.4V4.25h4.94a.38.38,0,0,1,.39.39Z" fill="#fff"/>
    <path id="Path_99726" data-name="Path 99726" d="M9.18,12.92H3.25a.51.51,0,0,0-.5.51v5.93a1.89,1.89,0,0,0,1.89,1.89h5.93a.51.51,0,0,0,.51-.5V14.82a1.9,1.9,0,0,0-1.9-1.9Zm.4,6.83H4.64a.38.38,0,0,1-.39-.39V14.42H9.18a.4.4,0,0,1,.4.4Z" fill="#fff"/>
    <path id="Path_99727" data-name="Path 99727" d="M20.75,12.92H14.82a1.9,1.9,0,0,0-1.9,1.9v5.93a.51.51,0,0,0,.51.5h5.93a1.89,1.89,0,0,0,1.89-1.89V13.43a.51.51,0,0,0-.5-.51Zm-1,6.44a.38.38,0,0,1-.39.39H14.42V14.82a.4.4,0,0,1,.4-.4h4.93Z" fill="#fff"/>
  </g>
</svg>
