<svg id="archive" xmlns="http://www.w3.org/2000/svg" width="24" height="24" viewBox="0 0 24 24">
  <g id="Layer_3" data-name="Layer 3">
    <rect id="Rectangle_24472" data-name="Rectangle 24472" width="24" height="24" fill="#fff" opacity="0"/>
  </g>
  <g id="icon">
    <path id="Path_99737" data-name="Path 99737" d="M19.25,21.38H4.75A2.75,2.75,0,0,1,2,18.63V8.13A2.75,2.75,0,0,1,4.75,5.38h14.5A2.75,2.75,0,0,1,22,8.13v10.5a2.75,2.75,0,0,1-2.75,2.75ZM4.75,6.88A1.25,1.25,0,0,0,3.5,8.13v10.5a1.25,1.25,0,0,0,1.25,1.25h14.5a1.25,1.25,0,0,0,1.25-1.25V8.13a1.25,1.25,0,0,0-1.25-1.25Z" fill="#fff"/>
    <path id="Path_99738" data-name="Path 99738" d="M19,4.12H5a.75.75,0,0,1,0-1.5H19a.75.75,0,0,1,0,1.5Z" fill="#fff"/>
    <path id="Path_99739" data-name="Path 99739" d="M14.25,15.38H9.75A1.76,1.76,0,0,1,8,13.63v-1.5a.75.75,0,0,1,1.5,0v1.5a.25.25,0,0,0,.25.25h4.5a.25.25,0,0,0,.25-.25v-1.5a.75.75,0,0,1,1.5,0v1.5a1.76,1.76,0,0,1-1.75,1.75Z" fill="#fff"/>
  </g>
</svg>
