<svg id="arrange" xmlns="http://www.w3.org/2000/svg" width="24" height="24" viewBox="0 0 24 24">
  <g id="Layer_3" data-name="Layer 3">
    <rect id="Rectangle_24473" data-name="Rectangle 24473" width="24" height="24" fill="#fff" opacity="0"/>
  </g>
  <g id="icon">
    <path id="Path_99740" data-name="Path 99740" d="M9.5,3.5v17h-6V3.5h6m1-1.5h-8a.51.51,0,0,0-.5.5v19a.51.51,0,0,0,.5.5h8a.51.51,0,0,0,.5-.5V2.5a.51.51,0,0,0-.5-.5Z" fill="#fff"/>
    <path id="Path_99741" data-name="Path 99741" d="M20.5,3.5v6h-6v-6h6m1-1.5h-8a.51.51,0,0,0-.5.5v8a.51.51,0,0,0,.5.5h8a.51.51,0,0,0,.5-.5v-8a.51.51,0,0,0-.5-.5Z" fill="#fff"/>
    <path id="Path_99742" data-name="Path 99742" d="M20.5,14.5v6h-6v-6h6m1-1.5h-8a.51.51,0,0,0-.5.5v8a.51.51,0,0,0,.5.5h8a.51.51,0,0,0,.5-.5v-8A.51.51,0,0,0,21.5,13Z" fill="#fff"/>
  </g>
</svg>
