<svg xmlns="http://www.w3.org/2000/svg" width="48" height="48" viewBox="0 0 48 48">
  <g id="attachment" transform="translate(-905.801 -151.4)">
    <g id="Rectangle_23584" data-name="Rectangle 23584" transform="translate(905.8 151.4)" opacity="0">
      <rect id="Rectangle_23853" data-name="Rectangle 23853" width="48" height="48" transform="translate(0 0)" fill="gray"/>
    </g>
    <g id="Group_87114" data-name="Group 87114" transform="translate(916.307 157.906)">
      <path id="Path_91610" data-name="Path 91610" d="M1042.1,367.068a.9.9,0,0,0,.9-.8v-.1a.9.9,0,0,0-.9-.9h-14.409a.9.9,0,0,0,0,1.8Z" transform="translate(-1021.159 -343.258)" fill="gray"/>
      <path id="Path_91611" data-name="Path 91611" d="M1011.227,229.16a.9.9,0,0,0-.9.9,3.328,3.328,0,0,1-3.319,3.32H989.717a3.328,3.328,0,0,1-3.319-3.319V207.49a3.329,3.329,0,0,1,3.319-3.315h1.288c.03,0,.059,0,.088,0h.037l.067,0a.893.893,0,0,0,.875-.7,1.914,1.914,0,0,1,3.777.432v10.829a1.913,1.913,0,0,1-3.826,0V208.69a.9.9,0,0,0-1.8,0v6.055c0,.038,0,.076,0,.114a3.728,3.728,0,0,0,3.711,3.655h.059a3.717,3.717,0,0,0,3.655-3.769V204.171h9.358a3.328,3.328,0,0,1,3.32,3.318v15.545a.9.9,0,0,0,1.8,0V207.49a5.133,5.133,0,0,0-5.12-5.113h-9.677l-.145-.262a3.713,3.713,0,0,0-6.5,0l-.145.262h-.821a5.133,5.133,0,0,0-5.118,5.114v22.574a5.132,5.132,0,0,0,5.119,5.118h17.288a5.131,5.131,0,0,0,5.119-5.123A.9.9,0,0,0,1011.227,229.16Z" transform="translate(-984.6 -200.196)" fill="gray"/>
      <path id="Path_91612" data-name="Path 91612" d="M1027.649,408.721h10.2a.9.9,0,0,0,0-1.8h-10.2a.9.9,0,1,0,0,1.8Z" transform="translate(-1021.13 -379.359)" fill="gray"/>
      <path id="Path_91613" data-name="Path 91613" d="M1111.534,325.93h3.234a.9.9,0,1,0,0-1.8h-3.234a.9.9,0,1,0,0,1.8Z" transform="translate(-1093.829 -307.605)" fill="gray"/>
      <path id="Path_91614" data-name="Path 91614" d="M1114.768,282.468h-3.234a.9.9,0,1,0,0,1.8h3.234a.9.9,0,0,0,0-1.8Z" transform="translate(-1093.829 -271.498)" fill="gray"/>
    </g>
  </g>
</svg>
