<svg id="avatar" xmlns="http://www.w3.org/2000/svg" width="24" height="24" viewBox="0 0 24 24">
  <g id="Layer_3" data-name="Layer 3">
    <rect id="Rectangle_24475" data-name="Rectangle 24475" width="24" height="24" fill="#fff" opacity="0"/>
  </g>
  <g id="icon">
    <path id="Path_99745" data-name="Path 99745" d="M22,12A10,10,0,1,0,4.09,18.11h0l.42.48A10,10,0,0,0,12,22a9.46,9.46,0,0,0,1.07-.06,10,10,0,0,0,5.7-2.58,9,9,0,0,0,.74-.77l.39-.44h0A9.9,9.9,0,0,0,22,12ZM12,3.5A8.5,8.5,0,0,1,18.86,17a2.48,2.48,0,0,0-.7-.31,7,7,0,0,1-3.06-1.63,5.13,5.13,0,1,0-6.1.08,7.15,7.15,0,0,1-2.76,1.47L6,16.67a3,3,0,0,0-.82.36A8.42,8.42,0,0,1,3.5,12,8.51,8.51,0,0,1,12,3.5Zm1.57,10.78a3.6,3.6,0,0,1-3.06,0h0a3.586,3.586,0,1,1,3.13-.02Zm-2.43,6.17h-.28a5.62,5.62,0,0,1-.57-.09L10,20.24l-.5-.13L9.13,20l-.47-.18-.32-.15a4.73,4.73,0,0,1-.45-.23l-.31-.17c-.15-.09-.29-.19-.43-.29l-.28-.19-.43-.36-.23-.19.19-.07.25-.07a8.55,8.55,0,0,0,3.78-2.17,5.53,5.53,0,0,0,.78.19h.1a4.4,4.4,0,0,0,.73.06h.12a4,4,0,0,0,.7-.06L13,16a6,6,0,0,0,.73-.19,8.53,8.53,0,0,0,4.07,2.32h0l-.22.19c-.15.12-.29.25-.44.36l-.28.2-.43.28-.3.18-.45.23-.33.15-.47.18-.33.11a4.1,4.1,0,0,1-.5.14l-.33.08a5,5,0,0,1-.56.09h-.28a8.46,8.46,0,0,1-.87.05,8.111,8.111,0,0,1-.87.08Z" fill="#fff"/>
  </g>
</svg>
