<svg id="backward" xmlns="http://www.w3.org/2000/svg" width="24" height="24" viewBox="0 0 24 24">
  <g id="Layer_3" data-name="Layer 3">
    <rect id="Rectangle_24476" data-name="Rectangle 24476" width="24" height="24" fill="#fff" opacity="0"/>
  </g>
  <g id="icon">
    <path id="Path_99746" data-name="Path 99746" d="M21.25,17.17a.69.69,0,0,1-.37-.1l-7.81-4.42a.75.75,0,0,1,0-1.3l7.81-4.42a.75.75,0,0,1,.74,0,.76.76,0,0,1,.38.65v8.84a.76.76,0,0,1-.38.65A.79.79,0,0,1,21.25,17.17ZM15,12l5.54,3.13V8.87Z" fill="#fff"/>
    <path id="Path_99747" data-name="Path 99747" d="M10.55,16.75a.84.84,0,0,1-.34-.08l-7.81-4a.75.75,0,0,1,0-1.34l7.81-4A.75.75,0,0,1,11.3,8v8a.75.75,0,0,1-.35.64A.8.8,0,0,1,10.55,16.75ZM4.39,12,9.8,14.77V9.23Z" fill="#fff"/>
  </g>
</svg>
