<svg id="bluetooth" xmlns="http://www.w3.org/2000/svg" width="24" height="24" viewBox="0 0 24 24">
  <g id="Layer_3" data-name="Layer 3">
    <rect id="Rectangle_24482" data-name="Rectangle 24482" width="24" height="24" fill="#fff" opacity="0"/>
  </g>
  <g id="icon">
    <path id="Path_99758" data-name="Path 99758" d="M19.38,11.17a.74.74,0,0,0-.59-.22l-6.26.53.53-6.26a.72.72,0,0,0-.22-.59.74.74,0,0,0-.59-.22L5.11,5a.76.76,0,0,0-.64.49.75.75,0,0,0,.17.79L9.9,11.55H5.15a.75.75,0,0,0,0,1.5H11v5.8a.75.75,0,1,0,1.5,0V14.11l5.26,5.26a.71.71,0,0,0,.53.22.73.73,0,0,0,.74-.68l.6-7.15A.76.76,0,0,0,19.38,11.17ZM11.49,6l-.39,4.65L6.84,6.37Zm6.14,11.19-4.25-4.26L18,12.52Z" fill="#fff"/>
  </g>
</svg>
