<svg id="book_library" data-name="book library" xmlns="http://www.w3.org/2000/svg" width="24" height="24" viewBox="0 0 24 24">
  <g id="Layer_3" data-name="Layer 3">
    <rect id="Rectangle_24483" data-name="Rectangle 24483" width="24" height="24" fill="#fff" opacity="0"/>
  </g>
  <g id="icon">
    <path id="Path_99759" data-name="Path 99759" d="M20,19.6,17.66,5.09a1.54,1.54,0,0,0-.6-1,1.49,1.49,0,0,0-1.12-.26l-2.52.41a1.17,1.17,0,0,0-.31.12,1.48,1.48,0,0,0-1-.44H9.51v-.2A1.5,1.5,0,0,0,8,2.25H5.45A1.5,1.5,0,0,0,4,3.75V20.14a1.5,1.5,0,0,0,1.49,1.5H8a1.48,1.48,0,0,0,.75-.21,1.45,1.45,0,0,0,.74.21h2.56a1.5,1.5,0,0,0,1.49-1.5V14.4l1,6.09a1.46,1.46,0,0,0,.6,1,1.53,1.53,0,0,0,.87.28h.24l2.53-.41h0A1.5,1.5,0,0,0,20,19.6ZM8,20.14H5.46V3.75H8Zm0,.05Zm4-.05H9.51V5.45h2.54Zm0,.75v-.75h0Zm4-.64L13.66,5.75l2.52-.41,2.36,14.5Z" fill="#fff"/>
  </g>
</svg>
