<svg id="book_read" data-name="book read" xmlns="http://www.w3.org/2000/svg" width="24" height="24" viewBox="0 0 24 24">
  <g id="Layer_3" data-name="Layer 3">
    <rect id="Rectangle_24484" data-name="Rectangle 24484" width="24" height="24" fill="#fff" opacity="0"/>
  </g>
  <g id="icon">
    <path id="Path_99760" data-name="Path 99760" d="M12,18.13a.8.8,0,0,1-.3-.06A12.92,12.92,0,0,0,6.47,17H5.89a.74.74,0,0,1-.75-.75V4a.75.75,0,0,1,.75-.75h.7A19.09,19.09,0,0,1,12,4a19.09,19.09,0,0,1,5.41-.79h.7a.75.75,0,0,1,.75.75V16.22a.74.74,0,0,1-.75.75h-.58a12.92,12.92,0,0,0-5.23,1.1A.8.8,0,0,1,12,18.13ZM6.64,15.47A14.5,14.5,0,0,1,12,16.57a14.5,14.5,0,0,1,5.36-1.1V4.75a17.28,17.28,0,0,0-5.14.79.66.66,0,0,1-.44,0,17.28,17.28,0,0,0-5.14-.79Z" fill="#fff"/>
    <path id="Path_99761" data-name="Path 99761" d="M12,20.75a.8.8,0,0,1-.3-.06,12.92,12.92,0,0,0-5.23-1.1H5.89a.75.75,0,0,1,0-1.5h.58A14.36,14.36,0,0,1,12,19.19a14.36,14.36,0,0,1,5.53-1.1h.58a.75.75,0,1,1,0,1.5h-.58a12.92,12.92,0,0,0-5.23,1.1A.8.8,0,0,1,12,20.75Z" fill="#fff"/>
  </g>
</svg>
