<svg id="bookmark" xmlns="http://www.w3.org/2000/svg" width="24" height="24" viewBox="0 0 24 24">
  <g id="Layer_3" data-name="Layer 3">
    <rect id="Rectangle_24485" data-name="Rectangle 24485" width="24" height="24" fill="#fff" opacity="0"/>
  </g>
  <g id="icon">
    <path id="Path_99762" data-name="Path 99762" d="M18.5,2H5.5A2.25,2.25,0,0,0,3.25,4.25v15.5A2.25,2.25,0,0,0,5.5,22h13a2.25,2.25,0,0,0,2.25-2.25V4.25A2.25,2.25,0,0,0,18.5,2Zm-8,7.76a.76.76,0,0,0-.33.08l-1.42.7v-7h3.5v7l-1.42-.7a.76.76,0,0,0-.33-.08Zm8,10.74H5.5a.76.76,0,0,1-.75-.75V18.61a2.12,2.12,0,0,0,.75.14h13a2.12,2.12,0,0,0,.75-.14v1.14A.76.76,0,0,1,18.5,20.5Zm0-3.25H5.5a.76.76,0,0,1-.75-.75V4.25A.76.76,0,0,1,5.5,3.5H7.25v8.25a.74.74,0,0,0,1.08.67l2.17-1.07,2.17,1.07a.76.76,0,0,0,.33.08h.06a.88.88,0,0,0,.34-.1.75.75,0,0,0,.35-.64V3.5H18.5a.76.76,0,0,1,.75.75V16.5A.76.76,0,0,1,18.5,17.25Z" fill="#fff"/>
  </g>
</svg>
