<svg id="broadcasting" xmlns="http://www.w3.org/2000/svg" width="24" height="24" viewBox="0 0 24 24">
  <g id="Layer_3" data-name="Layer 3">
    <rect id="Rectangle_24486" data-name="Rectangle 24486" width="24" height="24" fill="#fff" opacity="0"/>
  </g>
  <g id="icon">
    <path id="Path_99763" data-name="Path 99763" d="M19.07,3.2A.753.753,0,1,0,18,4.26a8.5,8.5,0,0,1,0,12,.75.75,0,1,0,1.06,1.06,10,10,0,0,0,0-14.14Z" fill="#fff"/>
    <path id="Path_99764" data-name="Path 99764" d="M3.5,10.27A8.43,8.43,0,0,1,6,4.26.753.753,0,0,0,4.93,3.2a10,10,0,0,0,0,14.14.75.75,0,1,0,1.06-1.06A8.42,8.42,0,0,1,3.5,10.27Z" fill="#fff"/>
    <path id="Path_99765" data-name="Path 99765" d="M8.82,6A.74.74,0,0,0,7.76,6a6,6,0,0,0,0,8.48.73.73,0,0,0,.53.22.74.74,0,0,0,.53-.22.75.75,0,0,0,0-1.06,4.49,4.49,0,0,1,0-6.36A.75.75,0,0,0,8.82,6Z" fill="#fff"/>
    <path id="Path_99766" data-name="Path 99766" d="M16.24,6a.74.74,0,0,0-1.06,0,.75.75,0,0,0,0,1.06,4.49,4.49,0,0,1,0,6.36.75.75,0,0,0,0,1.06.74.74,0,0,0,.53.22.73.73,0,0,0,.53-.22,6,6,0,0,0,0-8.48Z" fill="#fff"/>
    <path id="Path_99767" data-name="Path 99767" d="M12,8.27a2,2,0,0,0-.75,3.85v8.15a.75.75,0,1,0,1.5,0V12.12A2,2,0,0,0,12,8.27Zm0,1.5a.5.5,0,1,1-.5.5A.5.5,0,0,1,12,9.77Z" fill="#fff"/>
  </g>
</svg>
