<svg id="brush2" xmlns="http://www.w3.org/2000/svg" width="24" height="24" viewBox="0 0 24 24">
  <g id="Layer_3" data-name="Layer 3">
    <rect id="Rectangle_24488" data-name="Rectangle 24488" width="24" height="24" fill="#fff" opacity="0"/>
  </g>
  <g id="icon">
    <path id="Path_99770" data-name="Path 99770" d="M18.17,2H15.52a.75.75,0,0,0-.53.22l-.48.48a.75.75,0,0,0-.75-.7H11.12a.75.75,0,0,0-.53.22L9.23,3.58V2.75A.76.76,0,0,0,8.48,2H5.83A1.63,1.63,0,0,0,4.2,3.63V14.2a1.63,1.63,0,0,0,1.63,1.63h4.42l-.5,3.57a2.27,2.27,0,1,0,4.5,0l-.5-3.57h4.42A1.63,1.63,0,0,0,19.8,14.2V3.63A1.63,1.63,0,0,0,18.17,2ZM5.83,3.5h1.9V5.39A.75.75,0,0,0,9,5.92L11.43,3.5H13v1a.75.75,0,0,0,1.29.5l1.54-1.5h2.34a.13.13,0,0,1,.13.13v7.18H5.7V3.63A.13.13,0,0,1,5.83,3.5Zm6.94,16.11a.77.77,0,0,1-.18.62.79.79,0,0,1-1.18,0,.77.77,0,0,1-.18-.62l.54-3.78h.46Zm5.4-5.28H5.83a.13.13,0,0,1-.13-.13V12.31H18.3V14.2A.13.13,0,0,1,18.17,14.33Z" fill="#fff"/>
  </g>
</svg>
