<svg id="brush" xmlns="http://www.w3.org/2000/svg" width="24" height="24" viewBox="0 0 24 24">
  <g id="Layer_3" data-name="Layer 3">
    <rect id="Rectangle_24487" data-name="Rectangle 24487" width="24" height="24" fill="#fff" opacity="0"/>
  </g>
  <g id="icon">
    <path id="Path_99768" data-name="Path 99768" d="M10.34,17a2.46,2.46,0,0,1-1.76-.72,2.479,2.479,0,0,1,.1-3.61L19.13,3.39a1.72,1.72,0,0,1,2.43,2.43L12.2,16.21h0a2.47,2.47,0,0,1-1.78.82ZM20.28,4.45a.22.22,0,0,0-.15.06L9.68,13.82a.974.974,0,1,0,1.38,1.37L20.44,4.81a.215.215,0,0,0-.16-.36Z" fill="#fff"/>
    <path id="Path_99769" data-name="Path 99769" d="M5.74,21.05a6.66,6.66,0,0,1-3.42-1.12A.76.76,0,0,1,2,19.09a.75.75,0,0,1,.72-.52s1.3,0,1.67-.85a2.49,2.49,0,0,1,2.22-1.61A2.34,2.34,0,0,1,9,18.4,2.73,2.73,0,0,1,6.58,21a5,5,0,0,1-.84.05Zm-.88-1.61a3.54,3.54,0,0,0,1.42.06c.29-.06,1.24-.31,1.24-1.1a.86.86,0,0,0-.88-.79c-.48,0-.77.56-.85.74a2.72,2.72,0,0,1-.93,1.09Z" fill="#fff"/>
  </g>
</svg>
