<svg id="calendar" xmlns="http://www.w3.org/2000/svg" width="24" height="24" viewBox="0 0 24 24">
  <g id="Layer_3" data-name="Layer 3">
    <rect id="Rectangle_24489" data-name="Rectangle 24489" width="24" height="24" fill="#fff" opacity="0"/>
  </g>
  <g id="icon">
    <path id="Path_99771" data-name="Path 99771" d="M19,4H16.75V3a.75.75,0,1,0-1.5,0V4H8.75V3a.75.75,0,1,0-1.5,0V4H5A3,3,0,0,0,2,7V17a3,3,0,0,0,3,3H19a3,3,0,0,0,3-3V7a3,3,0,0,0-3-3Zm1.5,13A1.5,1.5,0,0,1,19,18.5H5A1.5,1.5,0,0,1,3.5,17V7A1.5,1.5,0,0,1,5,5.5H7.25v.75a.75.75,0,1,0,1.5,0V5.5h6.5v.75a.75.75,0,1,0,1.5,0V5.5H19A1.5,1.5,0,0,1,20.5,7Z" fill="#fff"/>
    <path id="Path_99772" data-name="Path 99772" d="M8,14.25H8a.75.75,0,0,0,0,1.5H8a.75.75,0,0,0,0-1.5Z" fill="#fff"/>
    <path id="Path_99773" data-name="Path 99773" d="M12,14.25h0a.75.75,0,0,0,0,1.5h0a.75.75,0,0,0,0-1.5Z" fill="#fff"/>
    <path id="Path_99774" data-name="Path 99774" d="M16,14.25h0a.75.75,0,0,0,0,1.5h0a.75.75,0,0,0,0-1.5Z" fill="#fff"/>
    <path id="Path_99775" data-name="Path 99775" d="M8,10.25H8a.75.75,0,0,0,0,1.5H8a.75.75,0,0,0,0-1.5Z" fill="#fff"/>
    <path id="Path_99776" data-name="Path 99776" d="M12,10.25h0a.75.75,0,0,0,0,1.5h0a.75.75,0,0,0,0-1.5Z" fill="#fff"/>
    <path id="Path_99777" data-name="Path 99777" d="M16,10.25h0a.75.75,0,0,0,0,1.5h0a.75.75,0,0,0,0-1.5Z" fill="#fff"/>
  </g>
</svg>
