<svg id="calling" xmlns="http://www.w3.org/2000/svg" width="24" height="24" viewBox="0 0 24 24">
  <g id="Layer_3" data-name="Layer 3">
    <rect id="Rectangle_24492" data-name="Rectangle 24492" width="24" height="24" fill="#fff" opacity="0"/>
  </g>
  <g id="icon">
    <path id="Path_99781" data-name="Path 99781" d="M14.71,21.45a7.68,7.68,0,0,1-3.38-.79c-.39-.19-.77-.39-1.14-.61a17.21,17.21,0,0,1-6.44-6.7A15.92,15.92,0,0,1,3,11.67,6.79,6.79,0,0,1,4.69,4.2a2.28,2.28,0,0,1,2.14-.58A2.33,2.33,0,0,1,8.49,5.11a16.54,16.54,0,0,0,.89,2.07,2.27,2.27,0,0,1-.47,2.7L8,10.71A15.69,15.69,0,0,0,13.17,16l1.07-1a2.25,2.25,0,0,1,2.56-.34,18.17,18.17,0,0,0,2.13.94h0a2.38,2.38,0,0,1,1.52,1.76,2.25,2.25,0,0,1-.68,2.1,7.46,7.46,0,0,1-5.06,1.99ZM6.28,5.05a.76.76,0,0,0-.5.19,5.3,5.3,0,0,0-1.42,5.87c.21.52.45,1,.71,1.53A15.72,15.72,0,0,0,11,18.76c.33.19.68.38,1,.55a6,6,0,0,0,6.77-.94.71.71,0,0,0,.22-.7.85.85,0,0,0-.55-.64h0a18.87,18.87,0,0,1-2.31-1,.76.76,0,0,0-.86.11L14,17.25a1.2,1.2,0,0,1-1.44.14,17.21,17.21,0,0,1-6-6.13A1.23,1.23,0,0,1,6.8,9.77l1.09-1a.75.75,0,0,0,.16-.9,19.609,19.609,0,0,1-1-2.25.83.83,0,0,0-.6-.55Z" fill="#fff"/>
    <path id="Path_99782" data-name="Path 99782" d="M20.76,13.31a.76.76,0,0,1-.75-.75,8.51,8.51,0,0,0-8.5-8.5.75.75,0,0,1,0-1.5,10,10,0,0,1,10,10,.76.76,0,0,1-.75.75Z" fill="#fff"/>
    <path id="Path_99783" data-name="Path 99783" d="M16.75,13.32a.75.75,0,0,1-.75-.75,4.51,4.51,0,0,0-4.5-4.5.75.75,0,0,1,0-1.5,6,6,0,0,1,6,6,.76.76,0,0,1-.75.75Z" fill="#fff"/>
  </g>
</svg>
