<svg id="call_mute" data-name="call mute" xmlns="http://www.w3.org/2000/svg" width="24" height="24" viewBox="0 0 24 24">
  <g id="Layer_3" data-name="Layer 3">
    <rect id="Rectangle_24490" data-name="Rectangle 24490" width="24" height="24" fill="#fff" opacity="0"/>
  </g>
  <g id="icon">
    <path id="Path_99778" data-name="Path 99778" d="M21,16.88a2.37,2.37,0,0,0-1.51-1.76,17.46,17.46,0,0,1-2.13-.94,2.26,2.26,0,0,0-2.57.34l-1.06,1A15.6,15.6,0,0,1,8.5,10.21l.91-.83a2.27,2.27,0,0,0,.48-2.7A18.22,18.22,0,0,1,9,4.61,2.34,2.34,0,0,0,7.34,3.12a2.25,2.25,0,0,0-2.08.52,6.83,6.83,0,0,0-1.79,7.53,16,16,0,0,0,.79,1.68,17.18,17.18,0,0,0,6.43,6.7c.37.22.75.42,1.14.61a7.72,7.72,0,0,0,3.39.79,7.42,7.42,0,0,0,5-2A2.23,2.23,0,0,0,21,16.88Zm-1.69,1a6,6,0,0,1-6.77.94,10.434,10.434,0,0,1-1-.55,15.7,15.7,0,0,1-5.87-6.12,13.2,13.2,0,0,1-.71-1.53A5.27,5.27,0,0,1,6.3,4.82.81.81,0,0,1,7,4.57a.85.85,0,0,1,.6.55,19.61,19.61,0,0,0,1,2.25.76.76,0,0,1-.16.9l-1.09,1a1.22,1.22,0,0,0-.23,1.49,17.19,17.19,0,0,0,6,6.13,1.22,1.22,0,0,0,1.45-.14l1.23-1.13a.74.74,0,0,1,.85-.11,18.87,18.87,0,0,0,2.31,1,.88.88,0,0,1,.56.64.74.74,0,0,1-.26.72Z" fill="#fff"/>
    <path id="Path_99779" data-name="Path 99779" d="M12.18,11.81a.79.79,0,0,0,.53.22.77.77,0,0,0,.53-.22l2.47-2.47,2.47,2.47a.79.79,0,0,0,.53.22.77.77,0,0,0,.53-.22.74.74,0,0,0,0-1.06L16.77,8.28l2.47-2.47a.75.75,0,1,0-1.06-1.06L15.71,7.22,13.24,4.75a.74.74,0,0,0-1.06,0,.75.75,0,0,0,0,1.06l2.47,2.47-2.47,2.47a.75.75,0,0,0,0,1.06Z" fill="#fff"/>
  </g>
</svg>
