<svg id="call" xmlns="http://www.w3.org/2000/svg" width="24" height="24" viewBox="0 0 24 24">
  <g id="Layer_3" data-name="Layer 3">
    <rect id="Rectangle_24491" data-name="Rectangle 24491" width="24" height="24" fill="#fff" opacity="0"/>
  </g>
  <g id="icon">
    <path id="Path_99780" data-name="Path 99780" d="M15.22,21a7.68,7.68,0,0,1-3.38-.79c-.39-.19-.77-.4-1.14-.62a17.21,17.21,0,0,1-6.44-6.7,15,15,0,0,1-.78-1.68A6.77,6.77,0,0,1,5.2,3.71a2.29,2.29,0,0,1,2.14-.59A2.33,2.33,0,0,1,9,4.62a18.22,18.22,0,0,0,.9,2.07,2.25,2.25,0,0,1-.47,2.69l-.92.84a15.75,15.75,0,0,0,5.18,5.28l1.07-1a2.25,2.25,0,0,1,2.56-.34,18.24,18.24,0,0,0,2.13,1h0A2.35,2.35,0,0,1,21,16.89,2.23,2.23,0,0,1,20.28,19a7.47,7.47,0,0,1-5.06,2ZM6.79,4.55a.7.7,0,0,0-.5.2,5.3,5.3,0,0,0-1.42,5.87c.21.51.45,1,.71,1.52a15.65,15.65,0,0,0,5.88,6.12c.33.2.68.39,1,.56a6,6,0,0,0,6.77-.94.72.72,0,0,0,.22-.7.82.82,0,0,0-.55-.64h0a19.79,19.79,0,0,1-2.32-1,.75.75,0,0,0-.85.12L14.5,16.79a1.2,1.2,0,0,1-1.44.14,17.32,17.32,0,0,1-6-6.14A1.23,1.23,0,0,1,7.29,9.3l1.09-1a.74.74,0,0,0,.16-.9,18.88,18.88,0,0,1-1-2.25A.86.86,0,0,0,7,4.58a.63.63,0,0,0-.21-.03Z" fill="#fff"/>
  </g>
</svg>
