<svg id="camera" xmlns="http://www.w3.org/2000/svg" width="24" height="24" viewBox="0 0 24 24">
  <g id="Layer_3" data-name="Layer 3">
    <rect id="Rectangle_24493" data-name="Rectangle 24493" width="24" height="24" fill="#fff" opacity="0"/>
  </g>
  <g id="icon">
    <path id="Path_99784" data-name="Path 99784" d="M19.25,6.24H17.17l-.42-1.3a2.24,2.24,0,0,0-2.14-1.55H9.38A2.24,2.24,0,0,0,7.24,4.94l-.41,1.3H4.75A2.75,2.75,0,0,0,2,9v8.88a2.75,2.75,0,0,0,2.75,2.74h14.5A2.75,2.75,0,0,0,22,17.87V9a2.75,2.75,0,0,0-2.75-2.76ZM20.5,17.87a1.25,1.25,0,0,1-1.25,1.24H4.75A1.25,1.25,0,0,1,3.5,17.87V9A1.25,1.25,0,0,1,4.75,7.74H7a1.25,1.25,0,0,0,1.2-.87L8.67,5.4a.74.74,0,0,1,.71-.51h5.23a.73.73,0,0,1,.71.51l.48,1.48a1.26,1.26,0,0,0,1.2.86h2.26A1.25,1.25,0,0,1,20.5,9Z" fill="#fff"/>
    <path id="Path_99785" data-name="Path 99785" d="M12,8.48A4.5,4.5,0,1,0,16.5,13,4.5,4.5,0,0,0,12,8.48ZM12,16a3,3,0,1,1,3-3A3,3,0,0,1,12,16Z" fill="#fff"/>
    <path id="Path_99786" data-name="Path 99786" d="M4.62,5.5h.76a.75.75,0,0,0,0-1.5H4.62a.75.75,0,0,0,0,1.5Z" fill="#fff"/>
    <circle id="Ellipse_2181" data-name="Ellipse 2181" cx="1" cy="1" r="1" transform="translate(11 11.98)" fill="#fff"/>
  </g>
</svg>
