<svg xmlns="http://www.w3.org/2000/svg" width="48" height="48" viewBox="0 0 48 48">
  <g id="cash" transform="translate(-688 -269)">
    <rect id="Rectangle_23892" data-name="Rectangle 23892" width="48" height="48" rx="4" transform="translate(688 269)" fill="rgba(128,128,128,0)"/>
    <path id="us_dollar" d="M21,3A18,18,0,1,0,39,21,18,18,0,0,0,21,3Zm1.5,26.785V33h-3V29.794c-3.195-.426-5.206-2.285-5.319-5.038H17.6c.164,1.371,1.547,2.25,3.539,2.25,1.84,0,3.141-.891,3.141-2.167,0-1.079-.843-1.7-2.918-2.145l-2.2-.468c-3.082-.645-4.593-2.25-4.593-4.829,0-2.745,1.911-4.674,4.932-5.159V9h3v3.234c2.934.475,4.914,2.376,5.005,4.975H24.177c-.163-1.336-1.407-2.226-3.117-2.226-1.77,0-2.942.821-2.942,2.109,0,1.042.808,1.641,2.789,2.063l2.038.433c3.4.716,4.863,2.179,4.863,4.8C27.81,27.366,25.821,29.331,22.5,29.785Z" transform="translate(691 272)" fill="gray"/>
  </g>
</svg>
