<svg id="cast" xmlns="http://www.w3.org/2000/svg" width="24" height="24" viewBox="0 0 24 24">
  <g id="Layer_3" data-name="Layer 3">
    <rect id="Rectangle_24495" data-name="Rectangle 24495" width="24" height="24" fill="#fff" opacity="0"/>
  </g>
  <g id="icon">
    <path id="Path_99788" data-name="Path 99788" d="M19.25,18.62H18a.75.75,0,0,1,0-1.5h1.25a1.25,1.25,0,0,0,1.25-1.25V7.37a1.25,1.25,0,0,0-1.25-1.25H4.75A1.25,1.25,0,0,0,3.5,7.37v8.5a1.25,1.25,0,0,0,1.25,1.25H6a.75.75,0,0,1,0,1.5H4.75A2.75,2.75,0,0,1,2,15.87V7.37A2.75,2.75,0,0,1,4.75,4.62h14.5A2.75,2.75,0,0,1,22,7.37v8.5A2.75,2.75,0,0,1,19.25,18.62Z" fill="#fff"/>
    <path id="Path_99789" data-name="Path 99789" d="M17,14.35a.73.73,0,0,1-.53-.22,6.3,6.3,0,0,0-8.94,0,.75.75,0,1,1-1.06-1.06,7.77,7.77,0,0,1,11.06,0,.75.75,0,0,1,0,1.06A.77.77,0,0,1,17,14.35Z" fill="#fff"/>
    <path id="Path_99790" data-name="Path 99790" d="M14.84,16.53a.73.73,0,0,1-.53-.22,3.33,3.33,0,0,0-4.62,0,.75.75,0,0,1-1.06-1.06,4.76,4.76,0,0,1,6.74,0,.75.75,0,0,1,0,1.06.74.74,0,0,1-.53.22Z" fill="#fff"/>
    <path id="Path_99791" data-name="Path 99791" d="M12.85,17.33h0a1.25,1.25,0,0,0-1.69,0h0a1.24,1.24,0,0,0,0,1.79h0a1.25,1.25,0,0,0,1.76,0h0a1.25,1.25,0,0,0-.07-1.79Z" fill="#fff"/>
  </g>
</svg>
