<svg id="char" xmlns="http://www.w3.org/2000/svg" width="24" height="24" viewBox="0 0 24 24">
  <g id="Layer_3" data-name="Layer 3">
    <rect id="Rectangle_24496" data-name="Rectangle 24496" width="24" height="24" fill="#fff" opacity="0"/>
  </g>
  <g id="icon">
    <path id="Path_99792" data-name="Path 99792" d="M12,1.25A10.75,10.75,0,1,0,22.75,12,10.75,10.75,0,0,0,12,1.25Zm9.21,10H12.75V2.79a9.25,9.25,0,0,1,8.46,8.46ZM12,21.25a9.25,9.25,0,0,1-.75-18.46V12a.76.76,0,0,0,.75.75h9.21A9.25,9.25,0,0,1,12,21.25Z" fill="#fff"/>
    <rect id="Rectangle_24497" data-name="Rectangle 24497" width="10" height="1.5" transform="translate(4.395 18.552) rotate(-45)" fill="#fff"/>
  </g>
</svg>
