<svg id="chat" xmlns="http://www.w3.org/2000/svg" width="24" height="24" viewBox="0 0 24 24">
  <g id="Layer_3" data-name="Layer 3">
    <rect id="Rectangle_24498" data-name="Rectangle 24498" width="24" height="24" fill="#fff" opacity="0"/>
  </g>
  <g id="icon">
    <path id="Path_99793" data-name="Path 99793" d="M7.25,20.75A.75.75,0,0,1,7,20.69.74.74,0,0,1,6.5,20V16.75H4.75A2.75,2.75,0,0,1,2,14V6A2.75,2.75,0,0,1,4.75,3.25h14.5A2.75,2.75,0,0,1,22,6v8a2.75,2.75,0,0,1-2.75,2.75H11.56L7.78,20.53A.75.75,0,0,1,7.25,20.75Zm-2.5-16A1.25,1.25,0,0,0,3.5,6v8a1.25,1.25,0,0,0,1.25,1.25h2.5A.74.74,0,0,1,8,16v2.19l2.72-2.72a.75.75,0,0,1,.53-.22h8A1.25,1.25,0,0,0,20.5,14V6a1.25,1.25,0,0,0-1.25-1.25Z" fill="#fff"/>
  </g>
</svg>
