<svg id="chats" xmlns="http://www.w3.org/2000/svg" width="24" height="24" viewBox="0 0 24 24">
  <g id="Layer_3" data-name="Layer 3">
    <rect id="Rectangle_24499" data-name="Rectangle 24499" width="24" height="24" fill="#fff" opacity="0"/>
  </g>
  <g id="icon">
    <path id="Path_99794" data-name="Path 99794" d="M6.36,17.86a.67.67,0,0,1-.28-.06.74.74,0,0,1-.47-.69V14.64H4.35A2.36,2.36,0,0,1,2,12.28V5.86A2.36,2.36,0,0,1,4.35,3.5H16a2.36,2.36,0,0,1,2.36,2.36v6.42A2.36,2.36,0,0,1,16,14.64H9.88l-3,3a.75.75,0,0,1-.52.22ZM4.35,5a.85.85,0,0,0-.85.86v6.42a.85.85,0,0,0,.85.86h2a.75.75,0,0,1,.75.75V15.3L9,13.36a.75.75,0,0,1,.53-.22H16a.86.86,0,0,0,.86-.86V5.86A.86.86,0,0,0,16,5Z" fill="#fff"/>
    <path id="Path_99795" data-name="Path 99795" d="M17.64,20.5a.75.75,0,0,1-.53-.22l-3-3H12.26v-1.5h2.17A.75.75,0,0,1,15,16l1.93,1.94V16.53a.75.75,0,0,1,.75-.75h2a.85.85,0,0,0,.85-.86V8.5a.85.85,0,0,0-.85-.86V6.14A2.36,2.36,0,0,1,22,8.5v6.42a2.36,2.36,0,0,1-2.35,2.36H18.39v2.47a.74.74,0,0,1-.47.69A.67.67,0,0,1,17.64,20.5Z" fill="#fff"/>
  </g>
</svg>
