<svg id="click" xmlns="http://www.w3.org/2000/svg" width="24" height="24" viewBox="0 0 24 24">
  <g id="Layer_3" data-name="Layer 3">
    <rect id="Rectangle_24500" data-name="Rectangle 24500" width="24" height="24" fill="#fff" opacity="0"/>
  </g>
  <g id="icon">
    <path id="Path_99796" data-name="Path 99796" d="M17.92,11.31,13.35,9.49V7.72a1.85,1.85,0,0,0-3.7,0v5.63L9.32,13a2.12,2.12,0,0,0-2.93,0,2.08,2.08,0,0,0,0,2.92l2.84,2.82,1.79,2a5.14,5.14,0,0,0,8.51-1.46,5,5,0,0,0,.42-2v-3a3.17,3.17,0,0,0-2.03-2.97Zm.53,5.93a3.65,3.65,0,0,1-6.33,2.47l-1.81-2L7.46,14.88a.56.56,0,0,1,0-.79.59.59,0,0,1,.41-.18.57.57,0,0,1,.41.17L9.9,15.69a.72.72,0,0,0,.81.16.74.74,0,0,0,.46-.69V7.72a.35.35,0,0,1,.35-.34.34.34,0,0,1,.35.34V9.49a1.54,1.54,0,0,0,1,1.45l4.54,1.77a1.67,1.67,0,0,1,1.07,1.56Z" fill="#fff"/>
    <path id="Path_99797" data-name="Path 99797" d="M11.57,5.28a.76.76,0,0,0,.75-.75V2.37a.75.75,0,1,0-1.5,0V4.53A.75.75,0,0,0,11.57,5.28Z" fill="#fff"/>
    <path id="Path_99798" data-name="Path 99798" d="M16.8,7.12a.71.71,0,0,0,.53-.22l1.53-1.52A.75.75,0,0,0,17.8,4.32L16.27,5.84a.75.75,0,0,0,0,1.06.74.74,0,0,0,.53.22Z" fill="#fff"/>
    <path id="Path_99799" data-name="Path 99799" d="M6.33,7.12a.74.74,0,0,0,.53-.22.75.75,0,0,0,0-1.06L5.33,4.32A.75.75,0,1,0,4.27,5.38L5.8,6.9A.71.71,0,0,0,6.33,7.12Z" fill="#fff"/>
  </g>
</svg>
