<svg id="close" xmlns="http://www.w3.org/2000/svg" width="24" height="24" viewBox="0 0 24 24">
  <g id="Layer_3" data-name="Layer 3">
    <rect id="Rectangle_24501" data-name="Rectangle 24501" width="24" height="24" fill="#fff" opacity="0"/>
  </g>
  <g id="icon">
    <path id="Path_99801" data-name="Path 99801" d="M12,2A10,10,0,1,0,22,12,10,10,0,0,0,12,2Zm0,18.5A8.5,8.5,0,1,1,20.5,12,8.5,8.5,0,0,1,12,20.5Z" fill="#fff"/>
    <path id="Path_99802" data-name="Path 99802" d="M15.53,8.47a.75.75,0,0,0-1.06,0L12,10.94,9.53,8.47A.75.75,0,0,0,8.47,9.53L10.94,12,8.47,14.47a.75.75,0,1,0,1.06,1.06L12,13.06l2.47,2.47a.75.75,0,1,0,1.06-1.06L13.06,12l2.47-2.47a.75.75,0,0,0,0-1.06Z" fill="#fff"/>
  </g>
</svg>
