<svg id="cloud" xmlns="http://www.w3.org/2000/svg" width="24" height="24" viewBox="0 0 24 24">
  <g id="Layer_3" data-name="Layer 3">
    <rect id="Rectangle_24504" data-name="Rectangle 24504" width="24" height="24" fill="#fff" opacity="0"/>
  </g>
  <g id="icon">
    <path id="Path_99807" data-name="Path 99807" d="M15.7,19H6.77A4.75,4.75,0,0,1,2,14.27a4.61,4.61,0,0,1,1.41-3.33A4.7,4.7,0,0,1,5.74,9.67,5.23,5.23,0,0,1,7.27,6.55a5.45,5.45,0,0,1,7.6,0l.07.07A6.22,6.22,0,0,1,21.32,10,6.14,6.14,0,0,1,22,12.78,6.27,6.27,0,0,1,15.7,19ZM11.08,6.5A3.94,3.94,0,0,0,8.32,7.62,3.79,3.79,0,0,0,7.2,10.31a.77.77,0,0,1-.69.77,3.17,3.17,0,0,0-2,.93,3.13,3.13,0,0,0-1,2.26A3.26,3.26,0,0,0,6.77,17.5H15.7a4.77,4.77,0,0,0,4.8-4.72,4.5,4.5,0,0,0-.5-2.13,4.78,4.78,0,0,0-4.3-2.59,4.94,4.94,0,0,0-.92.09.77.77,0,0,1-.73-.28,2.85,2.85,0,0,0-.23-.26A3.92,3.92,0,0,0,11.08,6.5Z" fill="#fff"/>
  </g>
</svg>
