<svg id="cloud_upload" data-name="cloud upload" xmlns="http://www.w3.org/2000/svg" width="24" height="24" viewBox="0 0 24 24">
  <g id="Layer_3" data-name="Layer 3">
    <rect id="Rectangle_24503" data-name="Rectangle 24503" width="24" height="24" fill="#fff" opacity="0"/>
  </g>
  <g id="icon">
    <path id="Path_99805" data-name="Path 99805" d="M12.53,9.12a.75.75,0,0,0-1.06,0L9,11.54a.77.77,0,0,0,0,1.07.75.75,0,0,0,1.06,0l1.19-1.17v3.81a.75.75,0,0,0,1.5,0v-3.8l1.19,1.17A.753.753,0,0,0,15,11.55Z" fill="#fff"/>
    <path id="Path_99806" data-name="Path 99806" d="M21.32,10a6.22,6.22,0,0,0-6.38-3.35l-.07-.07a5.45,5.45,0,0,0-7.6,0A5.23,5.23,0,0,0,5.74,9.67a4.7,4.7,0,0,0-2.33,1.27A4.61,4.61,0,0,0,2,14.27,4.75,4.75,0,0,0,6.77,19H15.7A6.27,6.27,0,0,0,22,12.78,6.14,6.14,0,0,0,21.32,10ZM15.7,17.5H6.77A3.26,3.26,0,0,1,3.5,14.27a3.13,3.13,0,0,1,1-2.26,3.17,3.17,0,0,1,2.05-.93.77.77,0,0,0,.69-.77A3.79,3.79,0,0,1,8.32,7.62a3.95,3.95,0,0,1,5.5,0,2.85,2.85,0,0,1,.23.26.77.77,0,0,0,.73.28,4.94,4.94,0,0,1,.92-.09A4.78,4.78,0,0,1,20,10.65a4.5,4.5,0,0,1,.52,2.13A4.77,4.77,0,0,1,15.7,17.5Z" fill="#fff"/>
  </g>
</svg>
