<svg xmlns="http://www.w3.org/2000/svg" width="48" height="48" viewBox="0 0 48 48">
  <g id="connect" transform="translate(-759 -242)">
    <rect id="Rectangle_23892" data-name="Rectangle 23892" width="48" height="48" rx="4" transform="translate(759 242)" fill="gray" opacity="0"/>
    <path id="Union_138" data-name="Union 138" d="M21189.23-9032.19H21160.7a.7.7,0,0,1-.7-.708v-20.11c.006-.006.006-.006.006-.011v-.043a.044.044,0,0,0,.006-.026s0-.011,0-.021v-.011c.006,0,.006,0,.006-.011v-.01a.02.02,0,0,0,.006-.011v-.006l0-.011a.017.017,0,0,1,.006-.011v0a.017.017,0,0,1,.006-.011v0a.02.02,0,0,0,.006-.017.019.019,0,0,0,0-.011v-.011c.006,0,.006,0,.006,0a.018.018,0,0,0,.006-.016l.006-.006a.012.012,0,0,0,0-.011l.006,0v-.011a.018.018,0,0,0,.006-.016c.01,0,.01,0,.01-.006s0,0,.006,0,0-.006.006-.011a.025.025,0,0,0,0-.016.028.028,0,0,0,.012-.021s0-.006,0-.006l.006,0,.006-.006.006,0c0-.006,0-.006,0-.006a.076.076,0,0,1,.018-.021.021.021,0,0,0,0-.011l.006-.006a.069.069,0,0,1,.021-.021c.01-.006.016-.011.016-.017h.006l.006,0a.034.034,0,0,1,.01-.011l.006-.006s0,0,.01-.01.012-.011.016-.011.006-.011.016-.017l.006,0a.02.02,0,0,0,.012-.006s.01,0,.016-.01.006,0,.01-.006h.006s0,0,.006,0,0-.006.01-.011h.006l6.076-3.533v-10.193a.711.711,0,0,1,.713-.708h21.723a.711.711,0,0,1,.707.708v10.193l6.076,3.533h.01s.006,0,.006.011.006,0,.01,0h.006a.006.006,0,0,0,.006.006l0,0c.006,0,.006,0,.012,0a.006.006,0,0,1,.006.006h.01l.021.021.006,0,0,.006.006,0c.006,0,.012.011.016.011s.006,0,.006.011l.006,0h.006a.025.025,0,0,0,.01.017h.006l0,.01v0l.012.011a.034.034,0,0,1,.01.011s0,0,.006,0,.006.011.016.021.012.016.012.021l.016.011c0,.011,0,.011.006.016l0,.006s0,.01.006.01,0,.006.006.011v.006a.022.022,0,0,1,.01,0v.006a.018.018,0,0,0,.006.016l.006,0,0,.006s0,0,.006.011,0,.011.006.011v0l.006.006v0h0v.016a.017.017,0,0,0,.006.011c0,.006,0,.011.006.011v.011c.01.006.01.011.01.016a.02.02,0,0,0,.006.017s0,0,.006.011-.006.016,0,.021,0,.017.006.021v.021a.044.044,0,0,1,.006.026v.043a.036.036,0,0,0,.01.026v6.757a8.046,8.046,0,0,0-1.414-.91v-4.586l-16.232,9.412a.711.711,0,0,1-.357.1.667.667,0,0,1-.35-.1l-16.238-9.412v18.126h24.775l.008.006a8.046,8.046,0,0,1-2.35-2.814h0c-.076-.15-.146-.3-.213-.459.064.156.135.309.209.459h-.537a.666.666,0,0,1-.686-.7.672.672,0,0,1,.678-.708,8,8,0,0,1-.3-2.176,8.012,8.012,0,0,1,8-8,8.012,8.012,0,0,1,8,8,8.011,8.011,0,0,1-3.84,6.836,8.155,8.155,0,0,0,.844-.59v.856a.707.707,0,0,1-.707.708h-2.533a8.039,8.039,0,0,1-1.766.2A8.026,8.026,0,0,1,21189.23-9032.19Zm-1.377-.448c-.027-.011-.053-.022-.078-.034C21187.8-9032.661,21187.826-9032.649,21187.854-9032.639Zm-.174-.076-.115-.055Zm-.17-.08-.135-.067Zm-.168-.085c-.051-.025-.1-.052-.15-.079C21187.24-9032.932,21187.291-9032.905,21187.342-9032.88Zm-.164-.087-.158-.088Zm-.168-.095c-.055-.03-.105-.062-.158-.093C21186.9-9033.122,21186.957-9033.092,21187.01-9033.062Zm8.049-.045.01,0Zm-8.211-.051c-.135-.081-.266-.167-.395-.256C21186.582-9033.323,21186.715-9033.238,21186.848-9033.157Zm-.484-.318-.035-.027Zm10.33-2.535a.242.242,0,0,0,.219.139.041.041,0,0,0,.027-.006h.031a.257.257,0,0,0,.2-.245c0-3.426-2.326-5.836-5.922-6.134V-9045a.238.238,0,0,0-.139-.218.182.182,0,0,0-.105-.027.247.247,0,0,0-.15.048l-5.92,4.442a.249.249,0,0,0-.1.2.248.248,0,0,0,.1.2l5.92,4.438a.245.245,0,0,0,.15.054.229.229,0,0,0,.105-.027.246.246,0,0,0,.139-.224v-2.691C21194.07-9038.687,21195.8-9037.8,21196.693-9036.011Zm-13.072-.886c-.012-.025-.021-.052-.031-.077C21183.6-9036.948,21183.609-9036.922,21183.621-9036.9Zm-15.779-12.739,10.156,5.89,10.156-5.89v-16.95h-20.312Zm21.729-.819,4.314-2.506-4.314-2.506Zm-27.457-2.506,4.314,2.506v-5.012h0Zm8.943,1.687a.7.7,0,0,1-.7-.7.707.707,0,0,1,.7-.708H21178a.7.7,0,0,1,.709.708.708.708,0,0,1-.709.7Zm0-3.687a.7.7,0,0,1-.7-.707.707.707,0,0,1,.7-.708h13.885a.71.71,0,0,1,.707.708.706.706,0,0,1-.707.707Zm0-3.692a.7.7,0,0,1-.7-.7.707.707,0,0,1,.7-.707h13.885a.71.71,0,0,1,.707.707.705.705,0,0,1-.707.7Zm0-3.687a.7.7,0,0,1-.7-.708.706.706,0,0,1,.7-.7h13.885a.709.709,0,0,1,.707.7.706.706,0,0,1-.707.708Z" transform="translate(-20396 9315.998)" fill="gray"/>
  </g>
</svg>
