<svg id="control2" xmlns="http://www.w3.org/2000/svg" width="24" height="24" viewBox="0 0 24 24">
  <g id="Layer_3" data-name="Layer 3">
    <rect id="Rectangle_24511" data-name="Rectangle 24511" width="24" height="24" fill="#fff" opacity="0"/>
  </g>
  <g id="icon">
    <path id="Path_99812" data-name="Path 99812" d="M5.75,9.7V2.75A.76.76,0,0,0,5,2H5a.76.76,0,0,0-.76.75v7a.73.73,0,0,1-.32.62,2,2,0,0,0,0,3.36.73.73,0,0,1,.32.62v7A.76.76,0,0,0,5,22H5a.76.76,0,0,0,.75-.75V14.3a.73.73,0,0,1,.32-.62,2,2,0,0,0,0-3.36A.73.73,0,0,1,5.75,9.7Z" fill="#fff"/>
    <path id="Path_99813" data-name="Path 99813" d="M12.75,15.71v-13A.76.76,0,0,0,12,2h0a.76.76,0,0,0-.75.75v13a.74.74,0,0,1-.33.62,2,2,0,0,0,0,3.36.74.74,0,0,1,.33.62v.94A.76.76,0,0,0,12,22h0a.76.76,0,0,0,.75-.75v-.94a.71.71,0,0,1,.33-.61,2.012,2.012,0,0,0,0-3.38.74.74,0,0,1-.33-.61Z" fill="#fff"/>
    <path id="Path_99814" data-name="Path 99814" d="M21,6a2,2,0,0,0-.93-1.68.72.72,0,0,1-.32-.62v-1A.76.76,0,0,0,19,2h0a.76.76,0,0,0-.75.75v1a.72.72,0,0,1-.32.62,1.946,1.946,0,0,0,0,3.32.7.7,0,0,1,.32.61v13A.76.76,0,0,0,19,22h0a.76.76,0,0,0,.76-.75V8.3a.7.7,0,0,1,.32-.61A2,2,0,0,0,21,6Z" fill="#fff"/>
  </g>
</svg>
