<svg id="copy" xmlns="http://www.w3.org/2000/svg" width="24" height="24" viewBox="0 0 24 24">
  <g id="Layer_3" data-name="Layer 3">
    <rect id="Rectangle_24512" data-name="Rectangle 24512" width="24" height="24" fill="#fff" opacity="0"/>
  </g>
  <g id="icon">
    <path id="Path_99815" data-name="Path 99815" d="M17.24,2H10.9A2.76,2.76,0,0,0,8.14,4.75v.31h1.5V4.75A1.26,1.26,0,0,1,10.9,3.5h6.34A1.26,1.26,0,0,1,18.5,4.75V15.14a1.26,1.26,0,0,1-1.26,1.25h-.32v1.5h.32A2.76,2.76,0,0,0,20,15.14V4.75A2.76,2.76,0,0,0,17.24,2Z" fill="#fff"/>
    <path id="Path_99816" data-name="Path 99816" d="M13.1,6.11H6.76A2.77,2.77,0,0,0,4,8.87V19.24A2.77,2.77,0,0,0,6.76,22H13.1a2.77,2.77,0,0,0,2.76-2.76V8.87A2.77,2.77,0,0,0,13.1,6.11Zm1.26,13.13A1.26,1.26,0,0,1,13.1,20.5H6.76A1.25,1.25,0,0,1,5.5,19.24V8.87A1.26,1.26,0,0,1,6.76,7.61H13.1a1.27,1.27,0,0,1,1.26,1.26Z" fill="#fff"/>
  </g>
</svg>
