<svg id="create_edit" data-name="create edit" xmlns="http://www.w3.org/2000/svg" width="24" height="24" viewBox="0 0 24 24">
  <g id="Layer_3" data-name="Layer 3">
    <rect id="Rectangle_24513" data-name="Rectangle 24513" width="24" height="24" fill="#fff" opacity="0"/>
  </g>
  <g id="icon">
    <path id="Path_99817" data-name="Path 99817" d="M19,7.21,16.79,5a.75.75,0,0,0-1.06,0l-9.5,9.5A.8.8,0,0,0,6,15l-.31,2.5a.74.74,0,0,0,.74.84h.1L9,18a.8.8,0,0,0,.44-.22L19,8.27a.75.75,0,0,0,0-1.06ZM8.59,16.53l-1.28.16.16-1.28L13.91,9,15,10.09ZM16.09,9,15,7.91l1.28-1.29L17.4,7.74Z" fill="#fff"/>
    <path id="Path_99818" data-name="Path 99818" d="M16.25,22H5.75A3.75,3.75,0,0,1,2,18.25V7.75A5.76,5.76,0,0,1,7.75,2h10.5A3.75,3.75,0,0,1,22,5.75v10.5A5.76,5.76,0,0,1,16.25,22ZM7.75,3.5A4.26,4.26,0,0,0,3.5,7.75v10.5A2.25,2.25,0,0,0,5.75,20.5h10.5a4.26,4.26,0,0,0,4.25-4.25V5.75A2.25,2.25,0,0,0,18.25,3.5Z" fill="#fff"/>
  </g>
</svg>
