<svg id="crown" xmlns="http://www.w3.org/2000/svg" width="24" height="24" viewBox="0 0 24 24">
  <g id="Layer_3" data-name="Layer 3">
    <rect id="Rectangle_24514" data-name="Rectangle 24514" width="24" height="24" fill="#fff" opacity="0"/>
  </g>
  <g id="icon">
    <path id="Path_99819" data-name="Path 99819" d="M21.64,4a.74.74,0,0,0-.88.08L15.28,8.83l-2.63-4.6a.78.78,0,0,0-1.3,0L8.72,8.83,3.24,4a.74.74,0,0,0-.88,0A.75.75,0,0,0,2,4.78l3.7,14.8a.76.76,0,0,0,.73.57h11.1a.76.76,0,0,0,.73-.57L22,4.78A.75.75,0,0,0,21.64,4ZM17,18.65H7l-.48-1.9H17.44Zm.85-3.4H6.19L4.06,6.74l4.37,3.82a.72.72,0,0,0,.61.18.73.73,0,0,0,.53-.37L12,6.11l2.43,4.26a.73.73,0,0,0,.53.37.76.76,0,0,0,.61-.18l4.37-3.82Z" fill="#fff"/>
  </g>
</svg>
