<svg id="cut" xmlns="http://www.w3.org/2000/svg" width="24" height="24" viewBox="0 0 24 24">
  <g id="Layer_3" data-name="Layer 3">
    <rect id="Rectangle_24516" data-name="Rectangle 24516" width="24" height="24" fill="#fff" opacity="0"/>
  </g>
  <g id="icon">
    <path id="Path_99821" data-name="Path 99821" d="M19.34,16.17,14.75,12.8l4.59-3.36a.751.751,0,0,0-.89-1.21l-5,3.63L9.79,9.14a3.15,3.15,0,0,0,.26-1.23,3.1,3.1,0,0,0-2.4-3V4.75a.75.75,0,1,0-1.5,0v.17A3.08,3.08,0,0,0,6.9,11a3.16,3.16,0,0,0,1.95-.68l3.37,2.47L8.85,15.25a3.16,3.16,0,0,0-1.95-.68,3.09,3.09,0,1,0,3.15,3.09,3,3,0,0,0-.27-1.23l3.7-2.71,5,3.66a.76.76,0,0,0,1.05-.16.75.75,0,0,0-.19-1.05ZM6.9,9.5A1.59,1.59,0,1,1,8.55,7.91,1.62,1.62,0,0,1,6.9,9.5Zm0,9.75a1.59,1.59,0,1,1,1.65-1.59A1.62,1.62,0,0,1,6.9,19.25Z" fill="#fff"/>
  </g>
</svg>
