<svg id="dashboard" xmlns="http://www.w3.org/2000/svg" width="24" height="24" viewBox="0 0 24 24">
  <g id="Layer_3" data-name="Layer 3">
    <rect id="Rectangle_24517" data-name="Rectangle 24517" width="24" height="24" fill="#fff" opacity="0"/>
  </g>
  <g id="icon">
    <path id="Path_99822" data-name="Path 99822" d="M20.22,10.51l.61-.62a.75.75,0,0,0-1.06-1.06l-.5.51a10,10,0,0,0-6.52-3.11V5.44a.75.75,0,0,0-1.5,0v.79A10,10,0,0,0,4.73,9.34l-.5-.51a.75.75,0,0,0-1.06,0,.74.74,0,0,0,0,1.06l.61.62A9.92,9.92,0,0,0,2,16.19a.76.76,0,0,0,.75.75H6a.75.75,0,0,0,0-1.5H3.53a8.61,8.61,0,0,1,1.34-3.87.76.76,0,0,0,.46.18.71.71,0,0,0,.53-.22.74.74,0,0,0,0-1.06l-.07-.07a8.44,8.44,0,0,1,5.46-2.68V8a.75.75,0,0,0,1.5,0V7.72a8.44,8.44,0,0,1,5.46,2.68l-.08.07a.743.743,0,0,0,1,1.1,8.61,8.61,0,0,1,1.34,3.87H18a.75.75,0,1,0,0,1.5h3.25a.76.76,0,0,0,.75-.75,9.92,9.92,0,0,0-1.78-5.68Z" fill="#fff"/>
    <path id="Path_99823" data-name="Path 99823" d="M17.16,12.47a.75.75,0,0,0-1.06,0l-3.5,3.46a1.73,1.73,0,0,0-.6-.12A1.779,1.779,0,1,0,13.65,17l3.5-3.46a.76.76,0,0,0,.01-1.07Zm-5.41,5.09a.25.25,0,0,1,.5,0c0,.28-.5.28-.5,0Z" fill="#fff"/>
  </g>
</svg>
