<svg id="diamon" xmlns="http://www.w3.org/2000/svg" width="24" height="24" viewBox="0 0 24 24">
  <g id="Layer_3" data-name="Layer 3">
    <rect id="Rectangle_24519" data-name="Rectangle 24519" width="24" height="24" fill="#fff" opacity="0"/>
  </g>
  <g id="icon">
    <path id="Path_99826" data-name="Path 99826" d="M21.76,7.45,16.15,2.2a.74.74,0,0,0-.51-.2H8.36a.74.74,0,0,0-.51.2L2.24,7.45a.75.75,0,0,0-.1,1L11.39,21.7h0a.66.66,0,0,0,.23.21h.07a.64.64,0,0,0,.62,0h.07a.66.66,0,0,0,.23-.21h0L21.86,8.43a.75.75,0,0,0-.1-.98Zm-14,2.4L9.92,17,4.46,9.14Zm4.07.88h.32l2.39-.51L12,18.66,9.45,10.22Zm-2.34-2,2.44-4.41,2.55,4.41L12,9.23Zm6.72,1.16,3.32-.71L14.08,17Zm3.47-2.28L16,8.36,13.22,3.5h2.12ZM8.66,3.5h2L8,8.36,4.31,7.57Z" fill="#fff"/>
  </g>
</svg>
