<svg id="disable_notification" data-name="disable notification" xmlns="http://www.w3.org/2000/svg" width="24" height="24" viewBox="0 0 24 24">
  <g id="Layer_3" data-name="Layer 3">
    <rect id="Rectangle_24520" data-name="Rectangle 24520" width="24" height="24" fill="#fff" opacity="0"/>
  </g>
  <g id="icon">
    <path id="Path_99827" data-name="Path 99827" d="M19.39,20.79l-1-1.3L17.16,18,8.11,6.7,7.17,5.52,5.33,3.22l-.74-.93a.75.75,0,0,0-1.17.94L6.26,6.78a6.82,6.82,0,0,0-.93,3.44v2.63a3.67,3.67,0,0,1-1.07,2.59A2.38,2.38,0,0,0,6,19.51H16.44l1.77,2.21a.77.77,0,0,0,.59.28.72.72,0,0,0,.46-.16.75.75,0,0,0,.13-1.05ZM6,18a.89.89,0,0,1-.89-.89.9.9,0,0,1,.26-.62,5.16,5.16,0,0,0,1.51-3.65V10.22a5.42,5.42,0,0,1,.45-2.16l8,10Z" fill="#fff"/>
    <path id="Path_99828" data-name="Path 99828" d="M10.7,21.25a1.5,1.5,0,0,0,2.79-.75h-3a1.48,1.48,0,0,0,.21.75Z" fill="#fff"/>
    <path id="Path_99829" data-name="Path 99829" d="M10.71,5a1.09,1.09,0,0,1,0-.18,1.3,1.3,0,1,1,2.59,0,1,1,0,0,1,0,.17,5,5,0,0,1,2.36,1.34A5.15,5.15,0,0,1,17.16,10v2.89a5.16,5.16,0,0,0,1.51,3.65.9.9,0,0,1,.26.62.92.92,0,0,1-.15.5l.95,1.19a2.38,2.38,0,0,0,0-3.37,3.67,3.67,0,0,1-1.07-2.59V10a6.64,6.64,0,0,0-4-6.12,2.79,2.79,0,0,0-5.27.05,5.7,5.7,0,0,0-1.06.63l.93,1.16A5.21,5.21,0,0,1,10.71,5Z" fill="#fff"/>
  </g>
</svg>
