<svg id="disc" xmlns="http://www.w3.org/2000/svg" width="24" height="24" viewBox="0 0 24 24">
  <g id="Layer_3" data-name="Layer 3">
    <rect id="Rectangle_24522" data-name="Rectangle 24522" width="24" height="24" fill="#fff" opacity="0"/>
  </g>
  <g id="icon">
    <path id="Path_99831" data-name="Path 99831" d="M12,22A10,10,0,1,1,22,12,10,10,0,0,1,12,22ZM12,3.5A8.5,8.5,0,1,0,20.5,12,8.5,8.5,0,0,0,12,3.5Z" fill="#fff"/>
    <path id="Path_99832" data-name="Path 99832" d="M12,15.25A3.25,3.25,0,1,1,15.25,12,3.25,3.25,0,0,1,12,15.25Zm0-5A1.75,1.75,0,1,0,13.75,12,1.75,1.75,0,0,0,12,10.25Z" fill="#fff"/>
    <path id="Path_99833" data-name="Path 99833" d="M12,18.75a6.68,6.68,0,0,1-4.77-2,.74.74,0,0,1,0-1.06.75.75,0,0,1,1.06,0A5.22,5.22,0,0,0,12,17.25a.75.75,0,0,1,0,1.5Z" fill="#fff"/>
    <path id="Path_99834" data-name="Path 99834" d="M16.22,8.48a.77.77,0,0,1-.53-.21A5.21,5.21,0,0,0,12,6.75a.75.75,0,1,1,0-1.5,6.68,6.68,0,0,1,4.74,2,.75.75,0,0,1-.52,1.28Z" fill="#fff"/>
  </g>
</svg>
