<svg id="discount" xmlns="http://www.w3.org/2000/svg" width="24" height="24" viewBox="0 0 24 24">
  <g id="Layer_3" data-name="Layer 3">
    <rect id="Rectangle_24523" data-name="Rectangle 24523" width="24" height="24" fill="#fff" opacity="0"/>
  </g>
  <g id="icon">
    <path id="Path_99835" data-name="Path 99835" d="M20.76,12l.67-2.16a1.52,1.52,0,0,0-.54-1.67L19.09,6.8l-.72-2.14a1.5,1.5,0,0,0-1.42-1H14.71L12.88,2.28h0a1.53,1.53,0,0,0-1.76,0L9.29,3.6H7.05a1.5,1.5,0,0,0-1.42,1L4.91,6.81,3.11,8.16a1.52,1.52,0,0,0-.54,1.67L3.24,12l-.67,2.16a1.52,1.52,0,0,0,.54,1.67l1.8,1.36.72,2.14a1.5,1.5,0,0,0,1.42,1H9.29l1.83,1.32A1.51,1.51,0,0,0,12,22a1.49,1.49,0,0,0,.88-.28l1.83-1.32h2.24a1.5,1.5,0,0,0,1.42-1l.72-2.15,1.8-1.35a1.52,1.52,0,0,0,.54-1.67Zm-1.43.46L20,14.64,18.19,16a1.49,1.49,0,0,0-.53.73l-.72,2.16H14.69a1.48,1.48,0,0,0-.86.29L12,20.5l-1.83-1.31a1.48,1.48,0,0,0-.86-.29H7.05l-.71-2.14A1.48,1.48,0,0,0,5.81,16L4,14.61l.67-2.16a1.53,1.53,0,0,0,0-.9L4,9.36,5.81,8a1.49,1.49,0,0,0,.53-.73l.72-2.16H9.31a1.48,1.48,0,0,0,.86-.29L12,3.5h0l1.83,1.31a1.48,1.48,0,0,0,.86.29h2.26l.71,2.14a1.48,1.48,0,0,0,.53.74L20,9.39l-.67,2.16a1.53,1.53,0,0,0,0,.9Z" fill="#fff"/>
    <path id="Path_99836" data-name="Path 99836" d="M15,9a.75.75,0,0,0-1,0L9,14a.707.707,0,0,0,1,1l5-5A.75.75,0,0,0,15,9Z" fill="#fff"/>
    <circle id="Ellipse_2184" data-name="Ellipse 2184" cx="1.25" cy="1.25" r="1.25" transform="translate(8 8)" fill="#fff"/>
    <circle id="Ellipse_2185" data-name="Ellipse 2185" cx="1.25" cy="1.25" r="1.25" transform="translate(13.5 13.5)" fill="#fff"/>
  </g>
</svg>
