<svg id="dislike" xmlns="http://www.w3.org/2000/svg" width="24" height="24" viewBox="0 0 24 24">
  <g id="Layer_3" data-name="Layer 3">
    <rect id="Rectangle_24525" data-name="Rectangle 24525" width="24" height="24" fill="#fff" opacity="0"/>
  </g>
  <g id="icon">
    <path id="Path_99840" data-name="Path 99840" d="M21.83,12.55l-3-8.4a2.84,2.84,0,0,0-2.7-1.9H12.32a5.66,5.66,0,0,0-3.22,1,2.76,2.76,0,0,0-2.1-1H4.75A2.74,2.74,0,0,0,2,5V15a2.75,2.75,0,0,0,2.75,2.74H7a2.7,2.7,0,0,0,1.16-.26,33.8,33.8,0,0,1,3.6,3.56,1.78,1.78,0,0,0,1.3.69h.11a1.81,1.81,0,0,0,1.28-.53l.12-.12a2.82,2.82,0,0,0,.72-2.84l-.67-2.17h5.33a1.65,1.65,0,0,0,1.06-.4,2.78,2.78,0,0,0,.82-3.12ZM8.23,15a1.26,1.26,0,0,1-.48,1,1.28,1.28,0,0,1-.78.26H4.75A1.24,1.24,0,0,1,3.5,15V5A1.24,1.24,0,0,1,4.75,3.75H7a1.25,1.25,0,0,1,1.23.92,1.55,1.55,0,0,1,0,.31ZM20,14.52a.31.31,0,0,1-.12.07h-6.3a.74.74,0,0,0-.6.3.76.76,0,0,0-.12.67l1,3.14a1.31,1.31,0,0,1-.38,1.3l-.12.12a.3.3,0,0,1-.24.09.27.27,0,0,1-.21-.12,37.249,37.249,0,0,0-3.62-3.62,2.69,2.69,0,0,0,.16-.29A1,1,0,0,0,9.54,16a.42.42,0,0,0,0-.1,1.39,1.39,0,0,0,.06-.19,1.55,1.55,0,0,0,0-.21,2,2,0,0,0,.13-.5V4.66a4.14,4.14,0,0,1,2.61-.89h3.82a1.34,1.34,0,0,1,1.28.9l3,8.4h0A1.31,1.31,0,0,1,20,14.52Z" fill="#fff"/>
  </g>
</svg>
