<svg xmlns="http://www.w3.org/2000/svg" width="48" height="48" viewBox="0 0 48 48">
  <g id="education" transform="translate(-7690 135)">
    <g id="education-2" data-name="education" transform="translate(7690 -135)">
      <g id="Path_88443" data-name="Path 88443" opacity="0">
        <path id="Path_91597" data-name="Path 91597" d="M46.5,46.5H.5V.5h46Z" transform="translate(0.5 0.5)" fill="gray"/>
        <path id="Path_91598" data-name="Path 91598" d="M2,2V46H46V2H2M0,0H48V48H0Z" fill="#707070"/>
      </g>
    </g>
    <g id="college-graduation_1_" data-name="college-graduation (1)" transform="translate(7694 -127)">
      <g id="Layer_5_59_">
        <g id="Group_82879" data-name="Group 82879">
          <path id="Path_88615" data-name="Path 88615" d="M65.28,209.7a5.2,5.2,0,0,1-5.132,0l-11.617-7.133s-1.05-.644-1.05.814v7.115c0,3.748,6.819,7.8,15.233,7.8s15.233-4.04,15.233-7.8v-7.517c0-1.17-.746-.6-.746-.6Z" transform="translate(-42.715 -185.642)" fill="gray"/>
          <path id="Path_88616" data-name="Path 88616" d="M39.317,47.9a1.076,1.076,0,0,0,0-2l-17.7-8.85a3.412,3.412,0,0,0-3.247,0L.674,45.912a1.076,1.076,0,0,0,0,2l17.7,10.855a3.413,3.413,0,0,0,3.247,0" transform="translate(0.004 -36.643)" fill="gray"/>
          <path id="Path_88617" data-name="Path 88617" d="M358.74,198.086V186.091s0-.568-.328-.38a9.806,9.806,0,0,0-1.165.724,1,1,0,0,0-.2.76V198.08a.32.32,0,0,1-.2.266,2.071,2.071,0,1,0,2.089,0,.308.308,0,0,1-.2-.26Z" transform="translate(-320.151 -170.735)" fill="gray"/>
        </g>
      </g>
    </g>
  </g>
</svg>
