<svg id="embed" xmlns="http://www.w3.org/2000/svg" width="24" height="24" viewBox="0 0 24 24">
  <g id="Layer_3" data-name="Layer 3">
    <rect id="Rectangle_24527" data-name="Rectangle 24527" width="24" height="24" fill="#fff" opacity="0"/>
  </g>
  <g id="icon">
    <path id="Path_99843" data-name="Path 99843" d="M10.53,9.53A.75.75,0,0,0,9.47,8.47C6.25,11.65,6.25,11.65,6.25,12s0,.34,3.22,3.52a.74.74,0,0,0,.53.22.73.73,0,0,0,.53-.22.75.75,0,0,0,0-1.06c-.76-.75-1.86-1.84-2.48-2.47C8.67,11.37,9.77,10.28,10.53,9.53Z" fill="#fff"/>
    <path id="Path_99844" data-name="Path 99844" d="M14.53,8.47a.75.75,0,0,0-1.06,1.06c.76.75,1.86,1.84,2.48,2.47-.62.63-1.72,1.72-2.48,2.47a.75.75,0,0,0,0,1.06.73.73,0,0,0,.53.22.74.74,0,0,0,.53-.22c3.22-3.19,3.22-3.19,3.22-3.54S17.74,11.65,14.53,8.47Z" fill="#fff"/>
    <path id="Path_99845" data-name="Path 99845" d="M12,2A10,10,0,1,0,22,12,10,10,0,0,0,12,2Zm0,18.5A8.5,8.5,0,1,1,20.5,12,8.5,8.5,0,0,1,12,20.5Z" fill="#fff"/>
  </g>
</svg>
