<svg id="empty_" data-name="empty " xmlns="http://www.w3.org/2000/svg" width="24" height="24" viewBox="0 0 24 24">
  <g id="Layer_3" data-name="Layer 3">
    <rect id="Rectangle_24529" data-name="Rectangle 24529" width="24" height="24" fill="#fff" opacity="0"/>
  </g>
  <g id="icon">
    <path id="Path_99848" data-name="Path 99848" d="M21.66,10.17A1.93,1.93,0,0,0,20,9.38h0V6.44a3.07,3.07,0,0,0-3.07-3.06H5.06A3.06,3.06,0,0,0,2,6.44V19.16a.72.72,0,0,0,.27.52A1.86,1.86,0,0,0,4,20.62H16.5a3.5,3.5,0,0,0,3.08-2.25l2.26-6.22h0a2.11,2.11,0,0,0-.18-1.98ZM3.5,6.44A1.56,1.56,0,0,1,5.06,4.88H16.88a1.57,1.57,0,0,1,1.57,1.56V9.38h-2a.43.43,0,0,1-.39-.15L14.7,7A1.93,1.93,0,0,0,13,6.14H8.68A3.5,3.5,0,0,0,5.61,8.39L3.5,14.17Zm16.93,5.2-2.26,6.21a2,2,0,0,1-1.67,1.27H4c-.23,0-.37-.07-.43-.23a.78.78,0,0,1,0-.16,1,1,0,0,1,.07-.36L7,8.9A2,2,0,0,1,8.68,7.64H13a.51.51,0,0,1,.4.16L14.82,10a1.89,1.89,0,0,0,1.67.87H20a.47.47,0,0,1,.39.15.71.71,0,0,1,.04.62Z" fill="#fff"/>
  </g>
</svg>
