<svg id="explore" xmlns="http://www.w3.org/2000/svg" width="24" height="24" viewBox="0 0 24 24">
  <g id="Layer_3" data-name="Layer 3">
    <rect id="Rectangle_24530" data-name="Rectangle 24530" width="24" height="24" fill="#fff" opacity="0"/>
  </g>
  <g id="icon">
    <path id="Path_99849" data-name="Path 99849" d="M12,2A10,10,0,1,0,22,12,10,10,0,0,0,12,2Zm0,18.5A8.5,8.5,0,1,1,20.5,12,8.5,8.5,0,0,1,12,20.5Z" fill="#fff"/>
    <path id="Path_99850" data-name="Path 99850" d="M14.06,10.2a.81.81,0,0,0-.26-.26L8.5,6.76a.76.76,0,0,0-.92.12l-.7.7a.74.74,0,0,0-.12.91L9.94,13.8a.81.81,0,0,0,.26.26l5.31,3.18a.75.75,0,0,0,.38.1.71.71,0,0,0,.53-.22l.7-.7a.74.74,0,0,0,.12-.92Zm-1.19.93.07.12H10.16L8.54,8.53Zm-1.74,1.74-.07-.12h2.78l1.63,2.71Z" fill="#fff"/>
  </g>
</svg>
