<svg id="eye_off" data-name="eye off" xmlns="http://www.w3.org/2000/svg" width="24" height="24" viewBox="0 0 24 24">
  <g id="Layer_3" data-name="Layer 3">
    <rect id="Rectangle_24531" data-name="Rectangle 24531" width="24" height="24" fill="#fff" opacity="0"/>
  </g>
  <g id="icon">
    <path id="Path_99851" data-name="Path 99851" d="M21.93,11.7A10.83,10.83,0,0,0,9.64,5.45l1.07,1.33A9.07,9.07,0,0,1,12,6.69,9.34,9.34,0,0,1,20.42,12a9.4,9.4,0,0,1-2.8,3.43l.94,1.17a10.78,10.78,0,0,0,3.37-4.3.7.7,0,0,0,0-.6Z" fill="#fff"/>
    <path id="Path_99852" data-name="Path 99852" d="M16.37,13.85A4.76,4.76,0,0,0,12,7.25a4.6,4.6,0,0,0-.84.08L12.3,8.77A3.24,3.24,0,0,1,15.24,12a2.73,2.73,0,0,1,0,.41Z" fill="#fff"/>
    <path id="Path_99853" data-name="Path 99853" d="M17.3,17.42l-1-1.18-.83-1L14.56,14h0L10.61,9.06l-1-1.19-.56-.71h0l-1-1.25L6.8,4.3l-1.63-2A.75.75,0,1,0,4,3.22L6.69,6.57A10.87,10.87,0,0,0,2.06,11.7a.7.7,0,0,0,0,.6A10.83,10.83,0,0,0,15.9,18.08l2.91,3.64a.76.76,0,0,0,.59.28.74.74,0,0,0,.46-.16A.75.75,0,0,0,20,20.78ZM9.43,10l4,4.93a3.09,3.09,0,0,1-1.39.32A3.26,3.26,0,0,1,8.74,12a3.17,3.17,0,0,1,.69-2ZM12,17.31A9.33,9.33,0,0,1,3.57,12,9.36,9.36,0,0,1,7.65,7.76l.83,1.05a4.747,4.747,0,0,0,5.86,7.32l.57.71a9.21,9.21,0,0,1-2.91.47Z" fill="#fff"/>
  </g>
</svg>
