<svg id="eye" xmlns="http://www.w3.org/2000/svg" width="24" height="24" viewBox="0 0 24 24">
  <g id="Layer_3" data-name="Layer 3">
    <rect id="Rectangle_24532" data-name="Rectangle 24532" width="24" height="24" fill="#fff" opacity="0"/>
  </g>
  <g id="icon">
    <path id="Path_99854" data-name="Path 99854" d="M21.94,11.7a10.84,10.84,0,0,0-19.88,0,.78.78,0,0,0,0,.6,10.84,10.84,0,0,0,19.88,0A.78.78,0,0,0,21.94,11.7ZM12,17.31A9.349,9.349,0,0,1,3.571,12a9.35,9.35,0,0,1,16.86,0A9.35,9.35,0,0,1,12,17.31Z" fill="#fff"/>
    <path id="Path_99855" data-name="Path 99855" d="M12,7.25A4.75,4.75,0,1,0,16.75,12,4.75,4.75,0,0,0,12,7.25Zm0,8A3.25,3.25,0,1,1,15.25,12,3.25,3.25,0,0,1,12,15.25Z" fill="#fff"/>
  </g>
</svg>
