<svg id="face_scan" data-name="face scan" xmlns="http://www.w3.org/2000/svg" width="24" height="24" viewBox="0 0 24 24">
  <g id="Layer_3" data-name="Layer 3">
    <rect id="Rectangle_24533" data-name="Rectangle 24533" width="24" height="24" fill="#fff" opacity="0"/>
  </g>
  <g id="icon">
    <path id="Path_99856" data-name="Path 99856" d="M12,14.77a4.28,4.28,0,0,1-1.79-.39,4.35,4.35,0,1,1,3.68-.05A4.2,4.2,0,0,1,12,14.77Zm0-7.2a2.85,2.85,0,1,0,2.85,2.85A2.85,2.85,0,0,0,12,7.57Z" fill="#fff"/>
    <path id="Path_99857" data-name="Path 99857" d="M18.75,17.19h-1.5a.9.9,0,0,0-.28-.65.53.53,0,0,0-.25-.11,7.16,7.16,0,0,1-3.35-1.88,4.44,4.44,0,0,1-2.65,0A7.23,7.23,0,0,1,7.61,16.3l-.2.06a.84.84,0,0,0-.59.46.74.74,0,0,0-.07.34H5.25a2.41,2.41,0,0,1,.18-.93A2.36,2.36,0,0,1,7,14.94l.2-.06A5.78,5.78,0,0,0,10,13.2l.36-.41.5.23a2.87,2.87,0,0,0,2.4,0l.52-.26.38.44A5.7,5.7,0,0,0,17.08,15a2,2,0,0,1,.93.49,2.41,2.41,0,0,1,.74,1.7Z" fill="#fff"/>
    <path id="Path_99858" data-name="Path 99858" d="M2.75,6.75h0A.74.74,0,0,1,2,6V2.75A.75.75,0,0,1,2.75,2H6a.76.76,0,0,1,.75.75h0A.75.75,0,0,1,6,3.5H3.5V6A.75.75,0,0,1,2.75,6.75Z" fill="#fff"/>
    <path id="Path_99859" data-name="Path 99859" d="M21.25,6.75h0A.75.75,0,0,1,20.5,6V3.5H18a.75.75,0,0,1-.75-.75h0A.76.76,0,0,1,18,2h3.25a.75.75,0,0,1,.75.75V6a.74.74,0,0,1-.75.75Z" fill="#fff"/>
    <path id="Path_99860" data-name="Path 99860" d="M21.25,22H18a.76.76,0,0,1-.75-.75h0A.75.75,0,0,1,18,20.5h2.5V18a.75.75,0,0,1,.75-.75h0A.74.74,0,0,1,22,18v3.25A.75.75,0,0,1,21.25,22Z" fill="#fff"/>
    <path id="Path_99861" data-name="Path 99861" d="M6,22H2.75A.75.75,0,0,1,2,21.25V18a.74.74,0,0,1,.75-.75h0A.75.75,0,0,1,3.5,18v2.5H6a.75.75,0,0,1,.75.75h0A.76.76,0,0,1,6,22Z" fill="#fff"/>
  </g>
</svg>
