<svg id="file" xmlns="http://www.w3.org/2000/svg" width="24" height="24" viewBox="0 0 24 24">
  <g id="Layer_3" data-name="Layer 3">
    <rect id="Rectangle_24534" data-name="Rectangle 24534" width="24" height="24" fill="#fff" opacity="0"/>
  </g>
  <g id="icon">
    <path id="Path_99862" data-name="Path 99862" d="M19,7.2,14.85,2.82A2.61,2.61,0,0,0,13,2H6.89A2.69,2.69,0,0,0,4.25,4.75v14.5A2.69,2.69,0,0,0,6.89,22H17.11a2.69,2.69,0,0,0,2.64-2.75V9.13A2.79,2.79,0,0,0,19,7.2ZM14.75,4.9,17,7.25H14.75Zm3.5,14.35a1.2,1.2,0,0,1-1.14,1.25H6.89a1.2,1.2,0,0,1-1.14-1.25V4.75A1.2,1.2,0,0,1,6.89,3.5H13a.88.88,0,0,1,.28.06V8a.76.76,0,0,0,.75.75h4.18a1.22,1.22,0,0,1,.07.38Z" fill="#fff"/>
  </g>
</svg>
