<svg id="fingerprint" xmlns="http://www.w3.org/2000/svg" width="24" height="24" viewBox="0 0 24 24">
  <g id="Layer_3" data-name="Layer 3">
    <rect id="Rectangle_24536" data-name="Rectangle 24536" width="24" height="24" fill="#fff" opacity="0"/>
  </g>
  <g id="icon">
    <path id="Path_99864" data-name="Path 99864" d="M19.53,6.44a.762.762,0,0,0-1.15,1,9.31,9.31,0,0,1,2.12,5.92.75.75,0,1,0,1.5,0,10.86,10.86,0,0,0-2.47-6.92Z" fill="#fff"/>
    <path id="Path_99865" data-name="Path 99865" d="M4.89,6.45a8.27,8.27,0,0,1,1.65-1.2,8.86,8.86,0,0,1,1.63-.74,8.25,8.25,0,0,1,1.52-.38A8.9,8.9,0,0,1,11.18,4a9.36,9.36,0,0,1,4.66,1.24.75.75,0,0,0,1-.27.76.76,0,0,0-.28-1,10.84,10.84,0,0,0-5.41-1.44,10.36,10.36,0,0,0-1.73.14,9,9,0,0,0-1.77.44A10.36,10.36,0,0,0,5.79,4,10.17,10.17,0,0,0,3.88,5.4h0A10.5,10.5,0,0,0,2.12,7.42a.77.77,0,0,0,.22,1,.78.78,0,0,0,.41.12.73.73,0,0,0,.63-.35A9.13,9.13,0,0,1,4.89,6.45Z" fill="#fff"/>
    <path id="Path_99866" data-name="Path 99866" d="M11.18,12.57a.76.76,0,0,0-.75.75,9.26,9.26,0,0,1-.57,3.22,9.21,9.21,0,0,1-1.55,2.7.75.75,0,0,0,.1,1.06.72.72,0,0,0,.48.17.76.76,0,0,0,.58-.27,10.94,10.94,0,0,0,1.8-3.14,10.75,10.75,0,0,0,.66-3.74.75.75,0,0,0-.75-.75Z" fill="#fff"/>
    <path id="Path_99867" data-name="Path 99867" d="M7.65,12.57a.75.75,0,0,0-.75.75,9.27,9.27,0,0,1-.6,3.3,9.7,9.7,0,0,1-.54,1.19.74.74,0,0,0,.3,1,.65.65,0,0,0,.36.1.77.77,0,0,0,.66-.4,11.45,11.45,0,0,0,.63-1.38,10.76,10.76,0,0,0,.69-3.82.76.76,0,0,0-.75-.74Z" fill="#fff"/>
    <path id="Path_99868" data-name="Path 99868" d="M11.18,5.77a7.55,7.55,0,0,0-7.55,7.55h0A9.43,9.43,0,0,1,3.24,16a.75.75,0,0,0,.5.94A.76.76,0,0,0,4,17a.75.75,0,0,0,.72-.53,10.7,10.7,0,0,0,.46-3.14h0a6.06,6.06,0,0,1,12.11,0h0a9.18,9.18,0,0,1-.6,3.29.75.75,0,1,0,1.4.53,10.77,10.77,0,0,0,.7-3.82h0a7.56,7.56,0,0,0-7.61-7.56Z" fill="#fff"/>
    <path id="Path_99869" data-name="Path 99869" d="M11.18,9A4.28,4.28,0,0,0,8.4,10a.758.758,0,1,0,1,1.14A2.79,2.79,0,0,1,14,13.32h0a9.32,9.32,0,0,1-1.38,4.9.75.75,0,0,0,.24,1,.7.7,0,0,0,.39.11.74.74,0,0,0,.64-.35,10.8,10.8,0,0,0,1.61-5.69h0A4.3,4.3,0,0,0,11.18,9Z" fill="#fff"/>
  </g>
</svg>
