<svg id="flag" xmlns="http://www.w3.org/2000/svg" width="24" height="24" viewBox="0 0 24 24">
  <g id="Layer_3" data-name="Layer 3">
    <rect id="Rectangle_24537" data-name="Rectangle 24537" width="24" height="24" fill="#fff" opacity="0"/>
  </g>
  <g id="icon">
    <path id="Path_99870" data-name="Path 99870" d="M19.57,5.93a4.17,4.17,0,0,1-1.74-.5,5.65,5.65,0,0,0-2.78-.66,5.7,5.7,0,0,0-2.79.66,4.22,4.22,0,0,1-2.12.51A4.22,4.22,0,0,1,8,5.43a5.68,5.68,0,0,0-2-.62V4.19a1.142,1.142,0,1,0-1.53,0V21.43a.77.77,0,0,0,.77.76A.76.76,0,0,0,6,21.43V13.71a4.18,4.18,0,0,1,1.36.46,5.67,5.67,0,0,0,2.79.66,5.65,5.65,0,0,0,2.78-.66,4.11,4.11,0,0,1,2.12-.52,4.11,4.11,0,0,1,2.12.52,5.66,5.66,0,0,0,2.22.64,1.23,1.23,0,0,0,1.33-1.22V7.17A1.24,1.24,0,0,0,19.57,5.93Zm-.38,7.32a4.12,4.12,0,0,1-1.35-.46,5.68,5.68,0,0,0-2.79-.67,5.64,5.64,0,0,0-2.78.67,4.25,4.25,0,0,1-2.12.51A4.26,4.26,0,0,1,8,12.79a5.59,5.59,0,0,0-2-.63V6.35a4.18,4.18,0,0,1,1.36.46,5.65,5.65,0,0,0,2.78.66,5.7,5.7,0,0,0,2.79-.66,4.11,4.11,0,0,1,2.12-.52,4.11,4.11,0,0,1,2.12.52,5.89,5.89,0,0,0,2,.62Z" fill="#fff"/>
  </g>
</svg>
