<svg id="flashlight" xmlns="http://www.w3.org/2000/svg" width="24" height="24" viewBox="0 0 24 24">
  <g id="Layer_3" data-name="Layer 3">
    <rect id="Rectangle_24538" data-name="Rectangle 24538" width="24" height="24" fill="#fff" opacity="0"/>
  </g>
  <g id="icon">
    <path id="Path_99871" data-name="Path 99871" d="M15.54,8.13H8.46a.76.76,0,0,0-.75.75v2.47a.73.73,0,0,0,.08.33l1.69,3.56V19.4a2.52,2.52,0,1,0,5,0V15.24l1.66-3.5a1,1,0,0,0,.11-.46V8.88a.76.76,0,0,0-.71-.75ZM12,20.5a1.06,1.06,0,0,1-1-1.1V15.89h2V19.4a1.06,1.06,0,0,1-1,1.1Zm2.79-9.31-1.53,3.2H10.74l-1.53-3.2V9.63h5.58Z" fill="#fff"/>
    <path id="Path_99872" data-name="Path 99872" d="M12,6a.75.75,0,0,0,.75-.75V2.75a.75.75,0,1,0-1.5,0v2.5A.75.75,0,0,0,12,6Z" fill="#fff"/>
    <path id="Path_99873" data-name="Path 99873" d="M18.41,4.09a.75.75,0,0,0-1.06,0L15.59,5.86a.74.74,0,0,0,0,1.06.75.75,0,0,0,.53.22.79.79,0,0,0,.53-.22l1.76-1.77a.74.74,0,0,0,0-1.06Z" fill="#fff"/>
    <path id="Path_99874" data-name="Path 99874" d="M8.41,6.92a.74.74,0,0,0,0-1.06L6.65,4.09a.75.75,0,0,0-1.06,0,.74.74,0,0,0,0,1.06L7.35,6.92a.79.79,0,0,0,.53.22.75.75,0,0,0,.53-.22Z" fill="#fff"/>
  </g>
</svg>
