<svg id="folder" xmlns="http://www.w3.org/2000/svg" width="24" height="24" viewBox="0 0 24 24">
  <g id="Layer_3" data-name="Layer 3">
    <rect id="Rectangle_24539" data-name="Rectangle 24539" width="24" height="24" fill="#fff" opacity="0"/>
  </g>
  <g id="icon">
    <path id="Path_99875" data-name="Path 99875" d="M19.25,4.7H11.86l-.12-.13a2.72,2.72,0,0,0-2-.82h-5A2.77,2.77,0,0,0,2,6.53V17.47a2.77,2.77,0,0,0,2.75,2.78h14.5A2.77,2.77,0,0,0,22,17.47v-10A2.75,2.75,0,0,0,19.25,4.7Zm0,1.5A1.25,1.25,0,0,1,20.5,7.45v.37a2.67,2.67,0,0,0-1.25-.32H15.14a1.23,1.23,0,0,1-.88-.37l-.92-.93ZM20.5,17.47a1.26,1.26,0,0,1-1.25,1.28H4.75A1.26,1.26,0,0,1,3.5,17.47V6.53A1.26,1.26,0,0,1,4.75,5.25h5a1.23,1.23,0,0,1,.88.37L13.2,8.18A2.74,2.74,0,0,0,15.14,9h4.11a1.26,1.26,0,0,1,1.25,1.28Z" fill="#fff"/>
  </g>
</svg>
