<svg id="forward" xmlns="http://www.w3.org/2000/svg" width="24" height="24" viewBox="0 0 24 24">
  <g id="Layer_3" data-name="Layer 3">
    <rect id="Rectangle_24540" data-name="Rectangle 24540" width="24" height="24" fill="#fff" opacity="0"/>
  </g>
  <g id="icon">
    <path id="Path_99876" data-name="Path 99876" d="M2.75,17.17a.86.86,0,0,1-.38-.1A.76.76,0,0,1,2,16.42V7.58a.76.76,0,0,1,.37-.65.77.77,0,0,1,.75,0l7.81,4.42a.75.75,0,0,1,0,1.3L3.12,17.07a.74.74,0,0,1-.37.1Zm.75-8.3v6.26L9,12Z" fill="#fff"/>
    <path id="Path_99877" data-name="Path 99877" d="M13.44,16.75a.77.77,0,0,1-.39-.11.74.74,0,0,1-.36-.64V8a.74.74,0,0,1,.36-.64.73.73,0,0,1,.73,0l7.81,4a.75.75,0,0,1,0,1.34l-7.81,4a.81.81,0,0,1-.34.05Zm.75-7.52v5.54L19.6,12Z" fill="#fff"/>
  </g>
</svg>
