<svg id="game" xmlns="http://www.w3.org/2000/svg" width="24" height="24" viewBox="0 0 24 24">
  <g id="Layer_3" data-name="Layer 3">
    <rect id="Rectangle_24542" data-name="Rectangle 24542" width="24" height="24" fill="#fff" opacity="0"/>
  </g>
  <g id="icon">
    <path id="Path_99882" data-name="Path 99882" d="M10,9.94H8.75V8.69a.75.75,0,0,0-1.5,0V9.94H6a.75.75,0,0,0,0,1.5H7.25v1.25a.75.75,0,1,0,1.5,0V11.44H10a.75.75,0,0,0,0-1.5Z" fill="#fff"/>
    <path id="Path_99883" data-name="Path 99883" d="M19.36,6.11c-1.79-1.45-4.08-1-5.75-.63A8.85,8.85,0,0,1,12,5.73a12.94,12.94,0,0,1-2.28-.29C8,5.11,6,4.73,4.41,6S2,10.35,2,15.37c0,1.15.12,2.74,1.19,3.32s2.69-.36,4.41-1.51c1.44-1,3.08-2.06,4.4-2.06s3,1.09,4.4,2.06S19,18.89,20,18.89a1.84,1.84,0,0,0,.82-.2c1.07-.58,1.19-2.17,1.19-3.32C22,10.58,21.14,7.55,19.36,6.11Zm.74,11.25c-.41.22-1.89-.77-2.87-1.43-1.62-1.08-3.46-2.31-5.23-2.31s-3.61,1.23-5.23,2.31c-1,.66-2.47,1.65-2.87,1.43,0,0-.4-.23-.4-2,0-4.41.63-7.17,1.87-8.2,1-.83,2.5-.56,4.07-.26A13.9,13.9,0,0,0,12,7.23,9.57,9.57,0,0,0,13.92,7c1.53-.32,3.26-.68,4.5.32s2.08,3.85,2.08,8.1C20.5,17.13,20.12,17.35,20.1,17.36Z" fill="#fff"/>
    <circle id="Ellipse_2188" data-name="Ellipse 2188" cx="0.75" cy="0.75" r="0.75" transform="translate(15.32 8.69)" fill="#fff"/>
    <circle id="Ellipse_2189" data-name="Ellipse 2189" cx="0.75" cy="0.75" r="0.75" transform="translate(15.32 11.19)" fill="#fff"/>
    <circle id="Ellipse_2190" data-name="Ellipse 2190" cx="0.75" cy="0.75" r="0.75" transform="translate(14.07 9.94)" fill="#fff"/>
    <circle id="Ellipse_2191" data-name="Ellipse 2191" cx="0.75" cy="0.75" r="0.75" transform="translate(16.57 9.94)" fill="#fff"/>
  </g>
</svg>
