<svg id="gesture" xmlns="http://www.w3.org/2000/svg" width="24" height="24" viewBox="0 0 24 24">
  <g id="Layer_3" data-name="Layer 3">
    <rect id="Rectangle_24543" data-name="Rectangle 24543" width="24" height="24" fill="#fff" opacity="0"/>
  </g>
  <g id="icon">
    <path id="Path_99884" data-name="Path 99884" d="M20.78,4a.75.75,0,0,0-1.06,0c-1.43,1.43-1.63,3.53-1.81,5.38-.14,1.45-.27,2.82-.94,3.49s-1.78.06-3.3-.83c-1.37-.8-2.93-1.71-4-.63s-.24,2.84.59,4.52c.46.91,1.22,2.44.88,2.78s-1.88-.41-2.79-.87a12,12,0,0,0-2.44-1A1.1,1.1,0,1,0,4.86,18.3a1.06,1.06,0,0,0,.45-.1,8.83,8.83,0,0,1,2.36.94,8,8,0,0,0,3.2,1.12,1.79,1.79,0,0,0,1.32-.53c1.11-1.11.24-2.84-.59-4.51-.46-.92-1.22-2.44-.88-2.79s1.42.42,2.19.86c1.61,1,3.61,2.11,5.12.6,1-1.05,1.21-2.68,1.38-4.4S19.73,6.07,20.78,5a.75.75,0,0,0,0-1Z" fill="#fff"/>
  </g>
</svg>
