<svg id="gif" xmlns="http://www.w3.org/2000/svg" width="24" height="24" viewBox="0 0 24 24">
  <g id="Layer_3" data-name="Layer 3">
    <rect id="Rectangle_24544" data-name="Rectangle 24544" width="24" height="24" fill="#fff" opacity="0"/>
  </g>
  <g id="icon">
    <path id="Path_99885" data-name="Path 99885" d="M9,6.5h4.23a.75.75,0,0,0,0-1.5H9a.74.74,0,0,0-.73.75A.77.77,0,0,0,9,6.5Z" fill="#fff"/>
    <path id="Path_99886" data-name="Path 99886" d="M2.87,11.51a.76.76,0,0,0,.74-.6,5.54,5.54,0,0,1,1.9-3.16.75.75,0,0,0,.1-1,.76.76,0,0,0-1.06-.11,7,7,0,0,0-2.41,4,.74.74,0,0,0,.59.88Z" fill="#fff"/>
    <path id="Path_99887" data-name="Path 99887" d="M17.14,6.93a5.54,5.54,0,0,1,2.72,2.49.75.75,0,0,0,.66.4.73.73,0,0,0,.35-.09.75.75,0,0,0,.31-1,7,7,0,0,0-3.46-3.16.75.75,0,0,0-.58,1.38Z" fill="#fff"/>
    <path id="Path_99888" data-name="Path 99888" d="M6.83,17.06a5.49,5.49,0,0,1-2.7-2.51.751.751,0,0,0-1.33.7,7,7,0,0,0,3.44,3.18.62.62,0,0,0,.29.07.75.75,0,0,0,.69-.5.74.74,0,0,0-.39-.94Z" fill="#fff"/>
    <path id="Path_99889" data-name="Path 99889" d="M21.28,12.47a.75.75,0,0,0-.88.59,5.53,5.53,0,0,1-1.88,3.17A.75.75,0,0,0,19,17.55a.72.72,0,0,0,.48-.17,7.06,7.06,0,0,0,2.39-4,.75.75,0,0,0-.59-.91Z" fill="#fff"/>
    <path id="Path_99890" data-name="Path 99890" d="M15,17.5H10.73a.75.75,0,1,0,0,1.5h4.34a.72.72,0,0,0,.72-.75A.79.79,0,0,0,15,17.5Z" fill="#fff"/>
    <path id="Path_99891" data-name="Path 99891" d="M10.08,11.5H9.31a.5.5,0,0,0,0,1h.14A1,1,0,1,1,8.54,11a.5.5,0,0,0,0-1,2,2,0,1,0,2,2A.5.5,0,0,0,10.08,11.5Z" fill="#fff"/>
    <path id="Path_99892" data-name="Path 99892" d="M11.88,10.46v3.08a.51.51,0,0,0,.5.5.5.5,0,0,0,.5-.5V10.46a.5.5,0,0,0-1,0Z" fill="#fff"/>
    <path id="Path_99893" data-name="Path 99893" d="M17,10H14.69a.5.5,0,0,0-.5.5v3.08a.51.51,0,0,0,.5.5.5.5,0,0,0,.5-.5v-.66h1a.5.5,0,0,0,0-1h-1V11H17a.5.5,0,0,0,0-1Z" fill="#fff"/>
  </g>
</svg>
