<svg id="gift" xmlns="http://www.w3.org/2000/svg" width="24" height="24" viewBox="0 0 24 24">
  <g id="Layer_3" data-name="Layer 3">
    <rect id="Rectangle_24545" data-name="Rectangle 24545" width="24" height="24" fill="#fff" opacity="0"/>
  </g>
  <g id="icon">
    <path id="Path_99894" data-name="Path 99894" d="M19.25,5.27H15.77a2.25,2.25,0,0,0-3.58-2.63,2.11,2.11,0,0,0-.19.23,2.11,2.11,0,0,0-.19-.23A2.25,2.25,0,0,0,8.23,5.27H4.75A2.75,2.75,0,0,0,2,8v2a2.73,2.73,0,0,0,2,2.63v6.62A2.75,2.75,0,0,0,6.75,22h10.5A2.75,2.75,0,0,0,20,19.27V12.65A2.73,2.73,0,0,0,22,10V8a2.75,2.75,0,0,0-2.75-2.73Zm-6.47-.55a1.8,1.8,0,0,1,.47-1,.76.76,0,1,1,1.07,1.07,1.8,1.8,0,0,1-1,.47,3.45,3.45,0,0,1-.54,0,3.57,3.57,0,0,1,0-.54Zm-3.1-1a.76.76,0,0,1,1.07,0h0a1.77,1.77,0,0,1,.47,1,3.63,3.63,0,0,1,0,.55,3.63,3.63,0,0,1-.55,0,1.8,1.8,0,0,1-1-.47.77.77,0,0,1,.01-1.1ZM3.5,10V8A1.25,1.25,0,0,1,4.75,6.77h6.5v4.5H4.75A1.25,1.25,0,0,1,3.5,10Zm2,9.25v-6.5h5.75v7.74H6.75A1.24,1.24,0,0,1,5.5,19.27Zm13,0a1.24,1.24,0,0,1-1.25,1.24h-4.5V12.77H18.5Zm2-9.25a1.25,1.25,0,0,1-1.25,1.25h-6.5V6.77h6.5A1.25,1.25,0,0,1,20.5,8Z" fill="#fff"/>
  </g>
</svg>
