<svg xmlns="http://www.w3.org/2000/svg" width="48" height="48" viewBox="0 0 48 48">
  <g id="h1" transform="translate(-439 -504)">
    <g id="Rectangle_23575" data-name="Rectangle 23575" transform="translate(439 504)" fill="gray" stroke="#707070" stroke-width="1" opacity="0">
      <rect width="48" height="48" stroke="none"/>
      <rect x="0.5" y="0.5" width="47" height="47" fill="none"/>
    </g>
    <path id="Path_91618" data-name="Path 91618" d="M-16.974,0h1.908a1.19,1.19,0,0,0,1.26-1.26v-9.756H-3.654V-1.26A1.19,1.19,0,0,0-2.394,0H-.486A1.19,1.19,0,0,0,.774-1.26V-23.94A1.19,1.19,0,0,0-.486-25.2H-2.394a1.19,1.19,0,0,0-1.26,1.26v9.216H-13.806V-23.94a1.19,1.19,0,0,0-1.26-1.26h-1.908a1.19,1.19,0,0,0-1.26,1.26V-1.26A1.19,1.19,0,0,0-16.974,0ZM17.514-22.9A1.645,1.645,0,0,0,15.75-24.66h-.324a5.8,5.8,0,0,0-2.772.684l-3.42,1.512a1.983,1.983,0,0,0-1.44,1.872v.144A1.755,1.755,0,0,0,9.522-18.54a4.028,4.028,0,0,0,1.728-.432l1.836-.828V-1.26A1.19,1.19,0,0,0,14.346,0h1.908a1.19,1.19,0,0,0,1.26-1.26Z" transform="translate(463.235 540.2)" fill="gray"/>
  </g>
</svg>
