<svg xmlns="http://www.w3.org/2000/svg" width="48" height="48" viewBox="0 0 48 48">
  <g id="h2" transform="translate(-501 -517)">
    <g id="Rectangle_23576" data-name="Rectangle 23576" transform="translate(501 517)" fill="gray" stroke="#707070" stroke-width="1" opacity="0">
      <rect width="48" height="48" stroke="none"/>
      <rect x="0.5" y="0.5" width="47" height="47" fill="none"/>
    </g>
    <path id="Path_91619" data-name="Path 91619" d="M-17.928,0h1.908a1.19,1.19,0,0,0,1.26-1.26v-9.756H-4.608V-1.26A1.19,1.19,0,0,0-3.348,0H-1.44A1.19,1.19,0,0,0-.18-1.26V-23.94A1.19,1.19,0,0,0-1.44-25.2H-3.348a1.19,1.19,0,0,0-1.26,1.26v9.216H-14.76V-23.94a1.19,1.19,0,0,0-1.26-1.26h-1.908a1.19,1.19,0,0,0-1.26,1.26V-1.26A1.19,1.19,0,0,0-17.928,0Zm36.72,0a1.739,1.739,0,0,0,1.872-1.8v-.36a1.731,1.731,0,0,0-1.872-1.764H8.784V-6.048c0-1.944.684-2.556,2.952-3.2l3.2-.9c4.176-1.188,5.76-2.988,5.76-6.8v-1.116c0-4.212-2.7-6.8-8.208-6.8-5.544,0-7.992,2.628-7.992,6.48v1.08a.854.854,0,0,0,.9.972H7.776a.843.843,0,0,0,.9-.936v-.972c0-1.908,1.116-3.168,3.816-3.168,2.772,0,3.96,1.116,3.96,3.276v.936c0,2.3-.972,2.952-3.024,3.528l-3.2.9C6.372-11.7,4.5-9.792,4.5-6.12v4.392A1.573,1.573,0,0,0,6.228,0Z" transform="translate(524.188 553.2)" fill="gray"/>
  </g>
</svg>
