<svg id="hand" xmlns="http://www.w3.org/2000/svg" width="24" height="24" viewBox="0 0 24 24">
  <g id="Layer_3" data-name="Layer 3">
    <rect id="Rectangle_24547" data-name="Rectangle 24547" width="24" height="24" fill="#fff" opacity="0"/>
  </g>
  <g id="icon">
    <path id="Path_99898" data-name="Path 99898" d="M14.37,22a6.12,6.12,0,0,1-4.52-2L7.66,17.59,4.19,14.11a2.37,2.37,0,1,1,3.34-3.35l.7.7V4.1a2.1,2.1,0,1,1,4.19,0V6.29a.26.26,0,0,0,.16.23l5.55,2.17a3.73,3.73,0,0,1,2.37,3.49v3.66a6.32,6.32,0,0,1-.5,2.43A6.14,6.14,0,0,1,14.37,22ZM5.86,11.56a.91.91,0,0,0-.62.26.89.89,0,0,0,0,1.23l3.5,3.51L11,19a4.63,4.63,0,0,0,8-3.16V12.18a2.24,2.24,0,0,0-1.42-2.09L12,7.91a1.73,1.73,0,0,1-1.11-1.62V4.1a.59.59,0,0,0-.59-.6.6.6,0,0,0-.6.6v9.18a.75.75,0,0,1-.46.69.78.78,0,0,1-.82-.16l-2-2a.86.86,0,0,0-.56-.25Z" fill="#fff"/>
  </g>
</svg>
