<svg id="headphone" xmlns="http://www.w3.org/2000/svg" width="24" height="24" viewBox="0 0 24 24">
  <g id="Layer_3" data-name="Layer 3">
    <rect id="Rectangle_24548" data-name="Rectangle 24548" width="24" height="24" fill="#fff" opacity="0"/>
  </g>
  <g id="icon">
    <path id="Path_99899" data-name="Path 99899" d="M20.4,12v-.05a8.4,8.4,0,1,0-16.8,0h0A2.25,2.25,0,0,0,2,14.51l.72,4.1a2.18,2.18,0,0,0,.93,1.46A2.19,2.19,0,0,0,5,20.48h.4L7.9,20a.75.75,0,0,0,.6-.87L7.26,12.05a.73.73,0,0,0-.3-.48.75.75,0,0,0-.56-.12l-1.29.22a6.89,6.89,0,1,1,13.78,0l-1.29-.22a.75.75,0,0,0-.56.12.73.73,0,0,0-.3.48l-1.24,7.1a.74.74,0,0,0,.6.86l2.54.45a1.87,1.87,0,0,0,.4,0,2.26,2.26,0,0,0,2.21-1.87l.72-4.1A2.25,2.25,0,0,0,20.4,12ZM6.9,18.65,5.09,19a.72.72,0,0,1-.55-.13.7.7,0,0,1-.31-.49l-.72-4.1a.76.76,0,0,1,.61-.88l1.8-.32Zm12.87-.28a.7.7,0,0,1-.31.49.73.73,0,0,1-.55.13l-1.81-.32,1-5.6,1.8.32a.75.75,0,0,1,.61.88Z" fill="#fff"/>
  </g>
</svg>
