<svg xmlns="http://www.w3.org/2000/svg" width="48" height="48" viewBox="0 0 48 48">
  <g id="heart-o" transform="translate(-788.563 -515.781)">
    <rect id="Rectangle_22806" data-name="Rectangle 22806" width="48" height="48" transform="translate(788.563 515.781)" fill="rgba(128,128,128,0)"/>
    <path id="Path_91658" data-name="Path 91658" d="M830.752,532.738c-.537-5.914-4.739-10.206-9.993-10.206a9.985,9.985,0,0,0-8.294,4.547,9.6,9.6,0,0,0-8.1-4.548c-5.252,0-9.453,4.293-9.99,10.2a10.475,10.475,0,0,0,.314,3.879,16.446,16.446,0,0,0,5.059,8.444l12.543,11.382.166.151,12.925-11.532a16.44,16.44,0,0,0,5.058-8.438A10.487,10.487,0,0,0,830.752,532.738Zm-18.288,21.317-11.455-10.4a14.59,14.59,0,0,1-4.492-7.489,8.687,8.687,0,0,1-.281-3.152l.012-.084c.439-4.935,3.852-8.517,8.111-8.517a7.832,7.832,0,0,1,7.23,5.048l.874,2.057.869-2.057a8.1,8.1,0,0,1,7.433-5.045c4.263,0,7.681,3.611,8.126,8.586a8.713,8.713,0,0,1-.283,3.165l0,.008a14.545,14.545,0,0,1-4.486,7.477Z" fill="#707070"/>
  </g>
</svg>
