<svg id="help" xmlns="http://www.w3.org/2000/svg" width="24" height="24" viewBox="0 0 24 24">
  <g id="Layer_3" data-name="Layer 3">
    <rect id="Rectangle_24549" data-name="Rectangle 24549" width="24" height="24" fill="#fff" opacity="0"/>
  </g>
  <g id="icon">
    <path id="Path_99900" data-name="Path 99900" d="M12,2A10,10,0,1,0,22,12,10,10,0,0,0,12,2Zm0,18.5A8.5,8.5,0,1,1,20.5,12,8.5,8.5,0,0,1,12,20.5Z" fill="#fff"/>
    <path id="Path_99901" data-name="Path 99901" d="M12.89,7a3.39,3.39,0,0,0-4.28,3.27.75.75,0,1,0,1.5,0,1.9,1.9,0,0,1,.73-1.49,1.93,1.93,0,0,1,1.68-.33A1.89,1.89,0,0,1,12,12.16a.76.76,0,0,0-.75.75v1.14a.75.75,0,0,0,1.5,0v-.47a3.38,3.38,0,0,0,1.93-1.23,3.42,3.42,0,0,0,.6-3A3.38,3.38,0,0,0,12.89,7Z" fill="#fff"/>
    <circle id="Ellipse_2192" data-name="Ellipse 2192" cx="0.75" cy="0.75" r="0.75" transform="translate(11.25 15.55)" fill="#fff"/>
  </g>
</svg>
