<svg id="home" xmlns="http://www.w3.org/2000/svg" width="24" height="24" viewBox="0 0 24 24">
  <g id="Layer_3" data-name="Layer 3">
    <rect id="Rectangle_24550" data-name="Rectangle 24550" width="24" height="24" fill="#fff" opacity="0"/>
  </g>
  <g id="icon">
    <path id="Path_99902" data-name="Path 99902" d="M21.77,9.87a.44.44,0,0,0-.11-.09l-1.28-1.1-.09-.08-.19-.14L13.76,3.1a2.7,2.7,0,0,0-3.52,0L3.9,8.46l-.19.14-.09.08L2.34,9.78l-.11.09a.75.75,0,0,0-.23.55.8.8,0,0,0,.13.43l.11.13a.78.78,0,0,0,.53.21.84.84,0,0,0,.44-.13L3.32,11l.3-.25v9.07a1.77,1.77,0,0,0,1.76,1.77H8.85a1.77,1.77,0,0,0,1.76-1.77v-4a.2.2,0,0,1,.2-.2h2.38a.21.21,0,0,1,.2.21v4a1.77,1.77,0,0,0,1.75,1.77h3.49a1.77,1.77,0,0,0,1.75-1.77V10.72l.3.25.11.09a.84.84,0,0,0,.44.13.78.78,0,0,0,.53-.21l.11-.13a.8.8,0,0,0,.13-.43A.73.73,0,0,0,21.77,9.87Zm-2.94,9.92a.21.21,0,0,1-.2.22H15.14a.22.22,0,0,1-.2-.22v-4a1.75,1.75,0,0,0-1.75-1.76H10.81A1.75,1.75,0,0,0,9.06,15.8v4a.22.22,0,0,1-.21.22H5.38a.21.21,0,0,1-.21-.22V9.41l6.07-5.14a1.18,1.18,0,0,1,1.52,0l6.07,5.14Z" fill="#fff"/>
  </g>
</svg>
