<svg id="hotspot" xmlns="http://www.w3.org/2000/svg" width="24" height="24" viewBox="0 0 24 24">
  <g id="Layer_3" data-name="Layer 3">
    <rect id="Rectangle_24551" data-name="Rectangle 24551" width="24" height="24" fill="#fff" opacity="0"/>
  </g>
  <g id="icon">
    <path id="Path_99903" data-name="Path 99903" d="M18.54,20.65a.79.79,0,0,1-.53-.22.75.75,0,0,1,0-1.06,8.5,8.5,0,1,0-12,0,.75.75,0,0,1-1.06,1.06,9.99,9.99,0,1,1,14.12,0,.79.79,0,0,1-.53.22Z" fill="#fff"/>
    <path id="Path_99904" data-name="Path 99904" d="M15.71,17.82a.79.79,0,0,1-.53-.22.75.75,0,0,1,0-1.06,4.5,4.5,0,1,0-6.36,0A.75.75,0,0,1,7.76,17.6a6,6,0,1,1,8.48,0,.77.77,0,0,1-.53.22Z" fill="#fff"/>
    <path id="Path_99905" data-name="Path 99905" d="M12,15.35a2,2,0,1,1,2-2A2,2,0,0,1,12,15.35Zm0-2.5a.5.5,0,1,0,.5.5A.5.5,0,0,0,12,12.85Z" fill="#fff"/>
  </g>
</svg>
