<svg xmlns="http://www.w3.org/2000/svg" width="48" height="48" viewBox="0 0 48 48">
  <g id="icon1" transform="translate(3550 -15886)">
    <rect id="Rectangle_23837" data-name="Rectangle 23837" width="48" height="48" transform="translate(-3550 15886)" fill="gray" opacity="0"/>
    <g id="home" transform="translate(-3544 15892)">
      <path id="Union_136" data-name="Union 136" d="M19724-1815a3,3,0,0,1-3-3v-16.5h-1.5a1.5,1.5,0,0,1-1.5-1.5,1.5,1.5,0,0,1,.48-1.1h0l.006,0a1.58,1.58,0,0,1,.135-.111l16.338-13.363A1.489,1.489,0,0,1,19736-1851a1.5,1.5,0,0,1,1.061.437l9.439,7.722V-1845a1.5,1.5,0,0,1,1.5-1.5h1.5a1.5,1.5,0,0,1,1.5,1.5v5.842l2.377,1.945a1.579,1.579,0,0,1,.137.111l0,0h0a1.5,1.5,0,0,1,.48,1.1,1.5,1.5,0,0,1-1.5,1.5h-1.5v16.5a3,3,0,0,1-3,3Zm16.5-4.5h6v-12h-6Z" transform="translate(-19718 1851)" fill="gray"/>
    </g>
  </g>
</svg>
