<svg xmlns="http://www.w3.org/2000/svg" width="48" height="48" viewBox="0 0 48 48">
  <g id="import" transform="translate(-569 -261)">
    <rect id="Rectangle_23892" data-name="Rectangle 23892" width="48" height="48" rx="4" transform="translate(569 261)" fill="rgba(128,128,128,0)"/>
    <g id="login-square-arrow-button-outline" transform="translate(575 230.75)">
      <g id="_x36__30_" transform="translate(0 38.25)">
        <g id="Group_82197" data-name="Group 82197">
          <path id="Path_87290" data-name="Path 87290" d="M19.511,61.022A1.125,1.125,0,1,0,21.1,62.613l7.761-7.762a1.3,1.3,0,0,0,0-1.7L21.1,45.386a1.125,1.125,0,1,0-1.591,1.591l5.9,5.9H1.125a1.125,1.125,0,0,0,0,2.25H25.409ZM31.5,38.25H9a4.5,4.5,0,0,0-4.5,4.5v4.5H6.75v-4.5A2.25,2.25,0,0,1,9,40.5H31.5a2.25,2.25,0,0,1,2.25,2.25v22.5A2.25,2.25,0,0,1,31.5,67.5H9a2.249,2.249,0,0,1-2.25-2.25v-4.5H4.5v4.5A4.5,4.5,0,0,0,9,69.75H31.5a4.5,4.5,0,0,0,4.5-4.5V42.75A4.5,4.5,0,0,0,31.5,38.25Z" transform="translate(0 -38.25)" fill="gray"/>
        </g>
      </g>
    </g>
  </g>
</svg>
