<svg id="jump_to" data-name="jump to" xmlns="http://www.w3.org/2000/svg" width="24" height="24" viewBox="0 0 24 24">
  <g id="Layer_3" data-name="Layer 3">
    <rect id="Rectangle_24554" data-name="Rectangle 24554" width="24" height="24" fill="#fff" opacity="0"/>
  </g>
  <g id="icon">
    <path id="Path_99908" data-name="Path 99908" d="M18.88,11.25a.76.76,0,0,0-.75.75v6.75a.75.75,0,0,1-.75.75H5.25a.76.76,0,0,1-.75-.75V6.61a.75.75,0,0,1,.75-.74H12a.75.75,0,0,0,0-1.5H5.25A2.25,2.25,0,0,0,3,6.61V18.75A2.25,2.25,0,0,0,5.25,21H17.38a2.25,2.25,0,0,0,2.25-2.25V12A.75.75,0,0,0,18.88,11.25Z" fill="#fff"/>
    <path id="Path_99909" data-name="Path 99909" d="M21,3.67a.45.45,0,0,0,0-.2A.74.74,0,0,0,20.25,3H15.5a.75.75,0,0,0,0,1.5h2.94L10.93,12a.75.75,0,1,0,1.06,1.06l7.51-7.5V8.5a.75.75,0,0,0,1.5,0V3.75a.24.24,0,0,0,0-.08Z" fill="#fff"/>
  </g>
</svg>
