<svg id="key" xmlns="http://www.w3.org/2000/svg" width="24" height="24" viewBox="0 0 24 24">
  <g id="Layer_3" data-name="Layer 3">
    <rect id="Rectangle_24555" data-name="Rectangle 24555" width="24" height="24" fill="#fff" opacity="0"/>
  </g>
  <g id="icon">
    <path id="Path_99910" data-name="Path 99910" d="M18.23,21.62A2.29,2.29,0,0,1,16.08,20a.77.77,0,0,0-.57-.56l-1.19-.31a.77.77,0,0,1-.34-.19l-1.46-1.46-.91.27a.73.73,0,0,1-.74-.19l-1.36-1.4A6.91,6.91,0,0,1,3,12.82H3a6.83,6.83,0,0,1,.14-7.29A6.9,6.9,0,0,1,15.79,9.87l1.36,1.36a.77.77,0,0,1,.19.75l-.28.91,4.54,4.53a1.37,1.37,0,0,1,.31,1.45L21.46,21a.75.75,0,0,1-.73.6h-2.5ZM14.9,17.68l1,.26a2.32,2.32,0,0,1,1.65,1.59.79.79,0,0,0,.87.58h1.72l.34-1.62a.24.24,0,0,1,0-.08l-4.79-4.79a.73.73,0,0,1-.19-.74l.27-.91-1.29-1.3a.74.74,0,0,1-.22-.63,5.41,5.41,0,1,0-10,2h0a5.43,5.43,0,0,0,5.42,2.59.75.75,0,0,1,.63.21l1.3,1.3.91-.27a.76.76,0,0,1,.75.18Z" fill="#fff"/>
    <circle id="Ellipse_2193" data-name="Ellipse 2193" cx="1.36" cy="1.36" r="1.36" transform="translate(6.49 6.88)" fill="#fff"/>
  </g>
</svg>
