<svg id="languange" xmlns="http://www.w3.org/2000/svg" width="24" height="24" viewBox="0 0 24 24">
  <g id="Layer_3" data-name="Layer 3">
    <rect id="Rectangle_24556" data-name="Rectangle 24556" width="24" height="24" fill="#fff" opacity="0"/>
  </g>
  <g id="icon">
    <path id="Path_99911" data-name="Path 99911" d="M19.25,2H4.75A2.75,2.75,0,0,0,2,4.75v14.5A2.75,2.75,0,0,0,4.75,22h14.5A2.75,2.75,0,0,0,22,19.25V4.75A2.75,2.75,0,0,0,19.25,2ZM20.5,19.25a1.25,1.25,0,0,1-1.25,1.25H4.75A1.25,1.25,0,0,1,3.5,19.25V4.75A1.25,1.25,0,0,1,4.75,3.5h14.5A1.25,1.25,0,0,1,20.5,4.75Z" fill="#fff"/>
    <path id="Path_99912" data-name="Path 99912" d="M10.42,11.41a.74.74,0,0,0-.5-.19" fill="#fff"/>
    <path id="Path_99913" data-name="Path 99913" d="M18.75,9a.76.76,0,0,1-.75.75H15.66A11.4,11.4,0,0,1,13,14.16c.79.76,1.66,1.55,2.51,2.27a.758.758,0,1,1-1,1.14c-.65-.55-1.59-1.38-2.55-2.31-1.17,1.21-2.22,2.1-2.48,2.32a.78.78,0,0,1-.48.17.75.75,0,0,1-.48-1.33A30.591,30.591,0,0,0,10.9,14.2a20.059,20.059,0,0,1-1.5-1.69h0l-.13-.18a.68.68,0,0,1-.1-.33.75.75,0,0,1,1.25-.56h0l.12.17h0c.35.42.8.93,1.33,1.48a11.48,11.48,0,0,0,2.2-3.39H6A.75.75,0,0,1,6,8.2h5.25V7a.75.75,0,0,1,1.5,0V8.21H18a.76.76,0,0,1,.75.79Z" fill="#fff"/>
  </g>
</svg>
