<svg id="Layer_2" data-name="Layer 2" xmlns="http://www.w3.org/2000/svg" width="24" height="24" viewBox="0 0 24 24">
  <g id="Layer_2-2" data-name="Layer 2">
    <rect id="Rectangle_24618" data-name="Rectangle 24618" width="24" height="24" fill="#fff" opacity="0"/>
  </g>
  <g id="icon">
    <path id="Path_100045" data-name="Path 100045" d="M2.79,12h0a.77.77,0,0,0-.75.83,5.13,5.13,0,0,0,.14,1,.77.77,0,0,0,.95.6h0a.77.77,0,0,0,.53-.89,6.14,6.14,0,0,1-.12-.86A.76.76,0,0,0,2.79,12Z" fill="#fff"/>
    <path id="Path_100046" data-name="Path 100046" d="M4,18c.24.31.49.61.76.9a.77.77,0,0,0,1.12,0h0a.75.75,0,0,0,0-1,8.81,8.81,0,0,1-.69-.82.75.75,0,0,0-1-.18h0A.77.77,0,0,0,4,18Z" fill="#fff"/>
    <path id="Path_100047" data-name="Path 100047" d="M8.44,21.36c.33.12.66.23,1,.32a.77.77,0,0,0,1-.59h0a.76.76,0,0,0-.58-.86c-.28-.08-.55-.17-.82-.27a.76.76,0,0,0-1,.36H8a.77.77,0,0,0,.44,1.04Z" fill="#fff"/>
    <path id="Path_100048" data-name="Path 100048" d="M13.62,21.88a.52.52,0,0,1-.18,0,.76.76,0,0,1-.75-.76.75.75,0,0,1,.6-.74A8.5,8.5,0,1,0,6.81,5.27h.91A.76.76,0,0,1,8.49,6a.75.75,0,0,1-.73.77L5,6.82H5a.73.73,0,0,1-.52-.21.76.76,0,0,1-.23-.52l-.07-2.8h0a.76.76,0,0,1,.73-.75.75.75,0,0,1,.77.73v1a10,10,0,1,1,8,17.58Z" fill="#fff"/>
  </g>
</svg>
