<svg id="layer" xmlns="http://www.w3.org/2000/svg" width="24" height="24" viewBox="0 0 24 24">
  <g id="Layer_3" data-name="Layer 3">
    <rect id="Rectangle_24557" data-name="Rectangle 24557" width="24" height="24" fill="#fff" opacity="0"/>
  </g>
  <g id="icon">
    <path id="Path_99914" data-name="Path 99914" d="M21.79,14.7l-9,5.26a1.59,1.59,0,0,1-1.41,0L2.22,14.7c-.39-.23-.4-.59,0-.82l1.76-1,.74.43.68.39-1,.61L12,18.73l7.63-4.44-1-.6.66-.38.75-.44,1.74,1a.44.44,0,0,1,.01.83Z" fill="#fff"/>
    <path id="Path_99915" data-name="Path 99915" d="M21.78,9.3l-9.1-5.25a1.61,1.61,0,0,0-1.42,0l-9,5.26a.43.43,0,0,0,0,.82L5.46,12l1.42.82,4.44,2.57a1.57,1.57,0,0,0,1.42,0l4.39-2.55L18.54,12l3.25-1.89C22.18,9.9,22.17,9.53,21.78,9.3Zm-4.66,1.89L15.71,12,12,14.15,8.29,12l-1.42-.82L4.34,9.71,12,5.27l7.69,4.44Z" fill="#fff"/>
  </g>
</svg>
