<svg id="Layer_2" data-name="Layer 2" xmlns="http://www.w3.org/2000/svg" width="24" height="24" viewBox="0 0 24 24">
  <g id="icon">
    <rect id="Rectangle_24524" data-name="Rectangle 24524" width="24" height="24" fill="#fff" opacity="0"/>
    <path id="Path_99837" data-name="Path 99837" d="M21.94,15.75,19.18,4.52A2.3,2.3,0,0,0,17,2.77H7A2.26,2.26,0,0,0,4.82,4.51L2.06,15.75A2.38,2.38,0,0,0,2,16.3v2.64a2.3,2.3,0,0,0,2.29,2.29H19.71A2.3,2.3,0,0,0,22,18.94V16.3a2.38,2.38,0,0,0-.06-.55ZM6.28,4.87A.77.77,0,0,1,7,4.27H17a.8.8,0,0,1,.77.6l2.59,10.57H20.3a2,2,0,0,0-.55-.08H4.29a2,2,0,0,0-.55.08H3.68ZM20.5,18.94a.8.8,0,0,1-.79.79H4.29a.8.8,0,0,1-.79-.79V17.65a.8.8,0,0,1,.79-.79H19.71a.8.8,0,0,1,.79.79Z" fill="#fff"/>
    <path id="Path_99838" data-name="Path 99838" d="M11.12,10.38a2,2,0,0,0,1.77,0c.48-.28.48-.74,0-1a2,2,0,0,0-1.77,0,.55.55,0,0,0,0,1Z" fill="#fff"/>
    <path id="Path_99839" data-name="Path 99839" d="M8.46,12.36a7.32,7.32,0,0,0,3.56.86,7.26,7.26,0,0,0,3.55-.86,3,3,0,0,0,1.68-2.49,3,3,0,0,0-1.7-2.5,7.78,7.78,0,0,0-7.12,0A3,3,0,0,0,6.75,9.86a3,3,0,0,0,1.71,2.5Zm.73-3.69A5.74,5.74,0,0,1,12,8a5.78,5.78,0,0,1,2.81.66c.6.35.95.79.95,1.2s-.34.84-.93,1.19a6.29,6.29,0,0,1-5.61,0c-.61-.35-1-.79-1-1.2s.37-.85.97-1.18Z" fill="#fff"/>
  </g>
</svg>
