<svg id="Layer_2" data-name="Layer 2" xmlns="http://www.w3.org/2000/svg" width="24" height="24" viewBox="0 0 24 24">
  <g id="Layer_2-2" data-name="Layer 2">
    <rect id="Rectangle_24464" data-name="Rectangle 24464" width="24" height="24" fill="#fff" opacity="0"/>
  </g>
  <g id="icon">
    <path id="Path_99705" data-name="Path 99705" d="M11.31,7.9h0a.76.76,0,0,0-.75.75v4.07a.75.75,0,0,0,.22.53l2.35,2.35a.753.753,0,0,0,1.07-1.06l-1.92-1.91a.75.75,0,0,1-.22-.53V8.65a.75.75,0,0,0-.75-.75Z" fill="#fff"/>
    <path id="Path_99706" data-name="Path 99706" d="M12,2a9.8,9.8,0,0,0-1.33.09A.76.76,0,0,0,10,3a.74.74,0,0,0,.81.58A9.2,9.2,0,0,1,12,3.5a8.5,8.5,0,0,1,0,17,9.2,9.2,0,0,1-1.17-.08A.74.74,0,0,0,10,21a.76.76,0,0,0,.65.91A9.8,9.8,0,0,0,12,22,10,10,0,1,0,12,2Z" fill="#fff"/>
    <path id="Path_99707" data-name="Path 99707" d="M5.27,17.19a.74.74,0,0,0-1-.14h0a.76.76,0,0,0-.16,1.11,9.81,9.81,0,0,0,1.53,1.56.75.75,0,0,0,1.11-.14.74.74,0,0,0-.12-1,8.7,8.7,0,0,1-1.36-1.39Z" fill="#fff"/>
    <path id="Path_99708" data-name="Path 99708" d="M3,10.22a.76.76,0,0,0-.9.66A10.51,10.51,0,0,0,2,12a10,10,0,0,0,.06,1.1.75.75,0,0,0,.89.66.73.73,0,0,0,.6-.8v-2A.73.73,0,0,0,3,10.22Z" fill="#fff"/>
    <path id="Path_99709" data-name="Path 99709" d="M5.66,4.27A9.41,9.41,0,0,0,4.13,5.83a.76.76,0,0,0,.16,1.11h0a.73.73,0,0,0,1-.15A8.58,8.58,0,0,1,6.65,5.4a.74.74,0,0,0,.12-1,.75.75,0,0,0-1.11-.13Z" fill="#fff"/>
  </g>
</svg>
