<svg id="Layer_2" data-name="Layer 2" xmlns="http://www.w3.org/2000/svg" width="20" height="15.5" viewBox="0 0 20 15.5">
  <g id="icon">
    <path id="Path_99809" data-name="Path 99809" d="M19.25,0H.75A.76.76,0,0,0,0,.75v10a.76.76,0,0,0,.75.75H8.2a6.89,6.89,0,0,1-.93,2.87.75.75,0,0,0,0,.75.73.73,0,0,0,.65.38h4.16a.73.73,0,0,0,.65-.38.75.75,0,0,0,0-.75,6.89,6.89,0,0,1-.93-2.87h7.45a.76.76,0,0,0,.75-.75V.75A.76.76,0,0,0,19.25,0ZM10.88,14H9.12a8.87,8.87,0,0,0,.6-2.5h.56a8.87,8.87,0,0,0,.6,2.5Zm7.62-4H1.5V1.5h17Z" fill="#fff"/>
  </g>
</svg>
