<svg id="Layer_2" data-name="Layer 2" xmlns="http://www.w3.org/2000/svg" width="24" height="24" viewBox="0 0 24 24">
  <g id="Layer_2-2" data-name="Layer 2">
    <rect id="Rectangle_24479" data-name="Rectangle 24479" width="24" height="24" fill="#fff" opacity="0"/>
  </g>
  <g id="icon">
    <path id="Path_99751" data-name="Path 99751" d="M19.49,10.08a2.73,2.73,0,0,0-2.71-2.59h-.59V6.25a4.19,4.19,0,1,0-8.38,0V7.49H7.22a2.73,2.73,0,0,0-2.71,2.59l-.51,9a2.79,2.79,0,0,0,.75,2.06,2.68,2.68,0,0,0,2,.85H17.29a2.68,2.68,0,0,0,2-.85A2.79,2.79,0,0,0,20,19.09ZM9.31,6.25a2.69,2.69,0,1,1,5.38,0V7.49H9.31Zm8.85,13.87a1.2,1.2,0,0,1-.87.38H6.71a1.2,1.2,0,0,1-.87-.38,1.25,1.25,0,0,1-.34-.94l.51-9A1.23,1.23,0,0,1,7.22,9h.59v.5a.75.75,0,0,0,1.5,0V9h5.38v.5a.75.75,0,1,0,1.5,0V9h.59A1.22,1.22,0,0,1,18,10.17l.51,9a1.25,1.25,0,0,1-.35.95Z" fill="#fff"/>
  </g>
</svg>
