<svg xmlns="http://www.w3.org/2000/svg" width="17.507" height="16.041" viewBox="0 0 17.507 16.041">
  <g id="Layer_2" data-name="Layer 2" transform="translate(0.001 0.014)">
    <g id="icon">
      <path id="Path_99800" data-name="Path 99800" d="M15.89,8,8.72.77A.75.75,0,0,0,7.66,1.83L14.83,9a3.06,3.06,0,0,1,0,4.32,3.1,3.1,0,0,1-4.31,0L5.08,7.89l-3-3a2,2,0,0,1,0-2.83,2.06,2.06,0,0,1,2.83,0L8.78,5.94l2.54,2.54A.94.94,0,0,1,10,9.81L4.84,4.66A.75.75,0,1,0,3.78,5.72l5.15,5.15a2.44,2.44,0,1,0,3.45-3.45L9.84,4.88,6,1A3.59,3.59,0,0,0,1,1,3.51,3.51,0,0,0,.43,5.14a.78.78,0,0,0,.2.42L3.7,8.63l1.2,1.2h0l4.56,4.56A4.55,4.55,0,1,0,15.89,8Z" fill="#fff"/>
    </g>
  </g>
</svg>
