<svg id="like" xmlns="http://www.w3.org/2000/svg" width="24" height="24" viewBox="0 0 24 24">
  <g id="Layer_3" data-name="Layer 3">
    <rect id="Rectangle_24558" data-name="Rectangle 24558" width="24" height="24" fill="#fff" opacity="0"/>
  </g>
  <g id="icon">
    <path id="Path_99916" data-name="Path 99916" d="M21,8.32a1.7,1.7,0,0,0-1.08-.41H14.59l.67-2.17a2.82,2.82,0,0,0-.72-2.84l-.12-.12a1.8,1.8,0,0,0-2.69.15A34.77,34.77,0,0,1,8.13,6.5,2.73,2.73,0,0,0,7,6.24H4.75A2.75,2.75,0,0,0,2,9V19a2.74,2.74,0,0,0,2.75,2.73H7a2.75,2.75,0,0,0,2.13-1,5.66,5.66,0,0,0,3.22,1h3.82a2.84,2.84,0,0,0,2.7-1.9l3-8.4A2.78,2.78,0,0,0,21,8.32ZM7,20.25H4.75A1.24,1.24,0,0,1,3.5,19V9A1.24,1.24,0,0,1,4.75,7.74H7A1.28,1.28,0,0,1,7.75,8a1.26,1.26,0,0,1,.48,1V19a1.53,1.53,0,0,1,0,.3A1.25,1.25,0,0,1,7,20.25ZM20.42,11h0l-3,8.41a1.35,1.35,0,0,1-1.28.89H12.32a4.14,4.14,0,0,1-2.61-.89c0-.11,0-.23,0-.34V9a3.31,3.31,0,0,0-.06-.55V8.32a2.3,2.3,0,0,0-.18-.5V7.75c0-.08-.08-.16-.13-.24a37.229,37.229,0,0,0,3.62-3.63.29.29,0,0,1,.21-.11.31.31,0,0,1,.24.09l.12.12a1.31,1.31,0,0,1,.34,1.34l-1,3.14a.76.76,0,0,0,.12.67.74.74,0,0,0,.6.3h6.34a.42.42,0,0,1,.14.08A1.31,1.31,0,0,1,20.42,11Z" fill="#fff"/>
  </g>
</svg>
