<svg id="list2" xmlns="http://www.w3.org/2000/svg" width="24" height="24" viewBox="0 0 24 24">
  <g id="Layer_3" data-name="Layer 3">
    <rect id="Rectangle_24562" data-name="Rectangle 24562" width="24" height="24" fill="#fff" opacity="0"/>
  </g>
  <g id="icon">
    <path id="Path_99930" data-name="Path 99930" d="M4.75,3.5h-2a.75.75,0,0,0,0,1.5h2a.75.75,0,0,0,0-1.5Z" fill="#fff"/>
    <path id="Path_99931" data-name="Path 99931" d="M4.75,11.25h-2a.75.75,0,0,0,0,1.5h2a.75.75,0,0,0,0-1.5Z" fill="#fff"/>
    <path id="Path_99932" data-name="Path 99932" d="M4.75,19h-2a.75.75,0,0,0,0,1.5h2a.75.75,0,0,0,0-1.5Z" fill="#fff"/>
    <path id="Path_99933" data-name="Path 99933" d="M8.63,5h13a.75.75,0,0,0,0-1.5h-13a.75.75,0,0,0,0,1.5Z" fill="#fff"/>
    <path id="Path_99934" data-name="Path 99934" d="M21.63,11.25h-13a.75.75,0,0,0,0,1.5h13a.75.75,0,1,0,0-1.5Z" fill="#fff"/>
    <path id="Path_99935" data-name="Path 99935" d="M21.63,19h-13a.75.75,0,0,0,0,1.5h13a.75.75,0,1,0,0-1.5Z" fill="#fff"/>
  </g>
</svg>
