<svg id="loading" xmlns="http://www.w3.org/2000/svg" width="24" height="24" viewBox="0 0 24 24">
  <g id="Layer_3" data-name="Layer 3">
    <rect id="Rectangle_24563" data-name="Rectangle 24563" width="24" height="24" fill="#fff" opacity="0"/>
  </g>
  <g id="icon">
    <path id="Path_99936" data-name="Path 99936" d="M12,22a2.25,2.25,0,0,1,0-4.5,5.44,5.44,0,0,0,.57,0A8.42,8.42,0,0,0,20,11.76a6.76,6.76,0,0,0,.34-1.36.75.75,0,0,1,1.48,0,9.56,9.56,0,0,1,0,3.26A9.93,9.93,0,0,1,12,22Zm7.89-6.84A9.92,9.92,0,0,1,12.69,19H12a.75.75,0,0,0,0,1.5A8.44,8.44,0,0,0,19.89,15.16Z" fill="#fff"/>
    <path id="Path_99937" data-name="Path 99937" d="M2.88,14.25a.76.76,0,0,1-.74-.62,9.56,9.56,0,0,1,0-3.26A9.93,9.93,0,0,1,12,2a2.25,2.25,0,1,1,0,4.5,8.49,8.49,0,0,0-8,5.74,6.76,6.76,0,0,0-.34,1.36.74.74,0,0,1-.72.65ZM12,3.5A8.44,8.44,0,0,0,4.1,8.86,10,10,0,0,1,12,5a.75.75,0,0,0,0-1.5Z" fill="#fff"/>
  </g>
</svg>
