<svg id="lock" xmlns="http://www.w3.org/2000/svg" width="24" height="24" viewBox="0 0 24 24">
  <g id="Layer_3" data-name="Layer 3">
    <rect id="Rectangle_24565" data-name="Rectangle 24565" width="24" height="24" fill="#fff" opacity="0"/>
  </g>
  <g id="icon">
    <path id="Path_99939" data-name="Path 99939" d="M12,14.33a1.25,1.25,0,0,0-1.25,1.25,1.2,1.2,0,0,0,.5,1v.33a.75.75,0,0,0,1.5,0v-.33a1.2,1.2,0,0,0,.5-1A1.25,1.25,0,0,0,12,14.33Z" fill="#fff"/>
    <path id="Path_99940" data-name="Path 99940" d="M17.24,10V7.25A5.24,5.24,0,0,0,11.48,2,5.39,5.39,0,0,0,6.76,7.48V10a2.75,2.75,0,0,0-2.51,2.74v6.14A2.74,2.74,0,0,0,6.8,21.63l5.09.37H12l5.19-.37a2.56,2.56,0,0,0,2.56-2.56V12.75A2.75,2.75,0,0,0,17.24,10ZM12.79,3.58a3.81,3.81,0,0,1,3,3.77V9.9L12,9.62h-.11l-3.63.27V7.25a3.76,3.76,0,0,1,4.53-3.67Zm5.46,15.31a1.25,1.25,0,0,1-1.16,1.24l-5.15.37-5-.37a1.25,1.25,0,0,1-1.16-1.24V12.75A1.25,1.25,0,0,1,6.91,11.5l5-.38,5.15.38a1.25,1.25,0,0,1,1.16,1.25Z" fill="#fff"/>
  </g>
</svg>
