<svg id="love" xmlns="http://www.w3.org/2000/svg" width="24" height="24" viewBox="0 0 24 24">
  <g id="Layer_3" data-name="Layer 3">
    <rect id="Rectangle_24566" data-name="Rectangle 24566" width="24" height="24" fill="#fff" opacity="0"/>
  </g>
  <g id="icon">
    <g id="Layer_2-2" data-name="Layer 2-2">
      <path id="Path_99941" data-name="Path 99941" d="M12,20.75a.71.71,0,0,1-.32-.07C6.86,18.38,2,14.07,2,9.6A6.5,6.5,0,0,1,3.79,5.12,6.08,6.08,0,0,1,8.17,3.25h0A6,6,0,0,1,12,4.63a6,6,0,0,1,3.83-1.38h0A6.07,6.07,0,0,1,20.2,5.12h0A6.51,6.51,0,0,1,22,9.61c0,4.46-4.86,8.77-9.68,11.07A.71.71,0,0,1,12,20.75Zm-3.83-16a4.55,4.55,0,0,0-3.3,1.41A5,5,0,0,0,3.5,9.6c0,3.7,4.35,7.5,8.5,9.57,4.15-2.07,8.5-5.87,8.5-9.57a5,5,0,0,0-1.37-3.43h0a4.52,4.52,0,0,0-3.29-1.42h0a4.55,4.55,0,0,0-3.29,1.41l-.06.06A.91.91,0,0,1,12,6.4a.8.8,0,0,1-.53-.23A4.52,4.52,0,0,0,8.17,4.75Z" fill="#fff"/>
    </g>
  </g>
</svg>
