<svg xmlns="http://www.w3.org/2000/svg" width="48" height="48" viewBox="0 0 48 48">
  <g id="m-account" transform="translate(19062 -1984)">
    <g id="settings" transform="translate(-19058 1990.667)">
      <path id="Path_91702" data-name="Path 91702" d="M38.6,53.224H38.24a7.215,7.215,0,0,0-.287-.7l.25-.249a1.407,1.407,0,0,0,0-1.986l-1.536-1.536a1.406,1.406,0,0,0-1.986,0l-.25.25a7.248,7.248,0,0,0-.7-.287v-.357a1.406,1.406,0,0,0-.517-1.084A16.649,16.649,0,0,0,6.143,32.731a.586.586,0,1,0,.741.908A15.475,15.475,0,0,1,32.065,46.954H30.151a1.427,1.427,0,0,0-.387.053l-.008,0a1.414,1.414,0,0,0-1.009,1.348v.4q-.34.126-.665.284l-.287-.288a1.407,1.407,0,0,0-1.986,0l-.371.371a14.032,14.032,0,0,0-4.215-2.563,7.188,7.188,0,0,0,2.652-5.575c0-.1,0-.2-.006-.294,0-.013,0-.026,0-.04a.586.586,0,0,0-.009-.1A7.232,7.232,0,0,0,10.61,37.026a.591.591,0,0,0-.043.065,7.18,7.18,0,0,0,1.5,9.467,13.9,13.9,0,0,0-4,2.378.586.586,0,1,0,.76.892A12.713,12.713,0,0,1,13.3,47.372a7.19,7.19,0,0,0,2.758.8v4.667a.586.586,0,0,0,1.172,0V48.167a7.189,7.189,0,0,0,2.76-.8,12.833,12.833,0,0,1,4.614,2.581l-.335.335h0a1.407,1.407,0,0,0,0,1.986l.329.329q-.14.3-.251.623h-.472a1.4,1.4,0,0,0-1.362,1.064,1.44,1.44,0,0,0-.041.339V56.8a1.406,1.406,0,0,0,1.4,1.405h.514q.109.3.245.584l-.252.252a15.486,15.486,0,0,1-19.1-2.9,8.948,8.948,0,0,1,1.733-4.376.586.586,0,1,0-.946-.691,10.383,10.383,0,0,0-1.782,3.877,15.505,15.505,0,0,1,.705-19.49.586.586,0,1,0-.882-.771A16.643,16.643,0,0,0,23.939,60.6a1.391,1.391,0,0,0,.333.535l1.536,1.536a1.407,1.407,0,0,0,1.987,0l.364-.365q.288.136.588.246v.513a1.4,1.4,0,0,0,1.4,1.4h2.172a1.406,1.406,0,0,0,1.406-1.4V62.6q.316-.111.622-.25l.328.328a1.407,1.407,0,0,0,1.986,0L38.2,61.138a1.407,1.407,0,0,0,0-1.986l-.287-.287q.157-.324.282-.662h.4A1.406,1.406,0,0,0,40,56.8V54.627a1.4,1.4,0,0,0-1.4-1.4ZM16.647,34.951a6.059,6.059,0,0,1,5.986,5.114H20.459c-3.969,0-7.513-1.339-8.665-2.686a6.059,6.059,0,0,1,4.853-2.428Zm0,12.068a6.053,6.053,0,0,1-6.057-6.035,5.976,5.976,0,0,1,.577-2.566c1.686,1.629,5.48,2.819,9.291,2.819H22.7A6.054,6.054,0,0,1,16.647,47.019ZM38.828,56.8a.236.236,0,0,1-.231.233h-.82a.586.586,0,0,0-.56.415,6.322,6.322,0,0,1-.531,1.243.586.586,0,0,0,.1.7l.591.591a.235.235,0,0,1,0,.328l-1.536,1.536a.236.236,0,0,1-.329,0l-.625-.625a.586.586,0,0,0-.688-.1,6.267,6.267,0,0,1-1.212.487.586.586,0,0,0-.425.564v.9a.235.235,0,0,1-.234.231H30.151a.234.234,0,0,1-.231-.231v-.936a.586.586,0,0,0-.418-.561,5.948,5.948,0,0,1-1.172-.491.586.586,0,0,0-.7.1l-.664.666a.236.236,0,0,1-.329,0L25.1,60.31a.235.235,0,0,1,0-.328l.034-.034a.572.572,0,0,0,.055-.055l.473-.473.1-.1a.586.586,0,0,0,.1-.7,5.923,5.923,0,0,1-.491-1.169.586.586,0,0,0-.561-.418h-.936a.236.236,0,0,1-.231-.233V54.627a.256.256,0,0,1,.007-.058.234.234,0,0,1,.225-.173h.9a.586.586,0,0,0,.564-.426,6.1,6.1,0,0,1,.488-1.211.586.586,0,0,0-.1-.693l-.625-.623a.235.235,0,0,1,0-.328h0l.744-.744.03-.028.015-.018.747-.747a.236.236,0,0,1,.329,0l.591.593a.586.586,0,0,0,.7.1,6.179,6.179,0,0,1,1.244-.531.586.586,0,0,0,.416-.561v-.819a.236.236,0,0,1,.166-.223.257.257,0,0,1,.066-.008h2.172l.035,0a.24.24,0,0,1,.035.009l.013,0a.234.234,0,0,1,.15.216v.786a.586.586,0,0,0,.426.564,6.076,6.076,0,0,1,1.277.523.586.586,0,0,0,.7-.1l.551-.551a.236.236,0,0,1,.329,0l1.536,1.536a.235.235,0,0,1,0,.328l-.551.551a.586.586,0,0,0-.1.7,6.05,6.05,0,0,1,.523,1.278.586.586,0,0,0,.564.427H38.6a.232.232,0,0,1,.231.231V56.8Z" transform="translate(0 -29.002)"/>
      <path id="Path_91703" data-name="Path 91703" d="M353.507,318.714a4.154,4.154,0,1,0,.373,5.868A4.14,4.14,0,0,0,353.507,318.714ZM353,323.807a2.988,2.988,0,0,1-5.225-1.784,2.963,2.963,0,0,1,.74-2.161h0a2.965,2.965,0,0,1,2.052-1.007c.065,0,.129-.006.193-.006a2.987,2.987,0,0,1,2.239,4.96Z" transform="translate(-319.519 -295.123)"/>
    </g>
    <rect id="Rectangle_23914" data-name="Rectangle 23914" width="48" height="48" transform="translate(-19062 1984)" fill="gray" opacity="0"/>
  </g>
</svg>
