<svg xmlns="http://www.w3.org/2000/svg" width="48" height="48" viewBox="0 0 48 48">
  <g id="m-point" transform="translate(19060 -1935)">
    <g id="gift-box" transform="translate(-19052 1941.667)">
      <path id="Path_91698" data-name="Path 91698" d="M33.222,5.926H30.244a2.932,2.932,0,0,0,.608-1.778A4.153,4.153,0,0,0,26.7,0H24.926A6.523,6.523,0,0,0,19,3.819,6.523,6.523,0,0,0,13.074,0H11.3A4.153,4.153,0,0,0,7.148,4.148a2.932,2.932,0,0,0,.608,1.778H4.778A1.778,1.778,0,0,0,3,7.7V13.63A1.778,1.778,0,0,0,4.185,15.3V33.778a1.778,1.778,0,0,0,1.778,1.778H32.037a1.778,1.778,0,0,0,1.778-1.778V15.3A1.778,1.778,0,0,0,35,13.63V7.7A1.778,1.778,0,0,0,33.222,5.926Zm-8.3-4.741H26.7a2.968,2.968,0,0,1,2.963,2.963,1.778,1.778,0,0,1-1.778,1.778H19.628a5.339,5.339,0,0,1,5.3-4.741ZM21.963,15.407V34.37H16.037V15.407Zm-6.519-1.185V7.111h7.111v7.111ZM8.333,4.148A2.968,2.968,0,0,1,11.3,1.185h1.778a5.339,5.339,0,0,1,5.3,4.741H10.111A1.778,1.778,0,0,1,8.333,4.148ZM4.185,7.7a.593.593,0,0,1,.593-.593h9.481v7.111H4.778a.593.593,0,0,1-.593-.593ZM5.37,33.778V15.407h9.481V34.37H5.963A.593.593,0,0,1,5.37,33.778Zm26.667.593H23.148V15.407H32.63v18.37A.593.593,0,0,1,32.037,34.37ZM33.815,13.63a.593.593,0,0,1-.593.593H23.741V7.111h9.481a.593.593,0,0,1,.593.593Z" transform="translate(-3)"/>
      <path id="Path_91699" data-name="Path 91699" d="M7.593,18.741a.593.593,0,0,0,.593-.593V14.593a.593.593,0,0,0-1.185,0v3.556A.593.593,0,0,0,7.593,18.741Z" transform="translate(-4.63 -5.704)"/>
      <path id="Path_91700" data-name="Path 91700" d="M9.593,28A.593.593,0,0,0,9,28.593V38.667a.593.593,0,1,0,1.185,0V28.593A.593.593,0,0,0,9.593,28Z" transform="translate(-5.444 -11.407)"/>
      <path id="Path_91701" data-name="Path 91701" d="M9.593,49A.593.593,0,0,0,9,49.593v1.185a.593.593,0,0,0,1.185,0V49.593A.593.593,0,0,0,9.593,49Z" transform="translate(-5.444 -19.963)"/>
    </g>
    <rect id="Rectangle_23914" data-name="Rectangle 23914" width="48" height="48" transform="translate(-19060 1935)" fill="gray" opacity="0"/>
  </g>
</svg>
