<svg xmlns="http://www.w3.org/2000/svg" width="48" height="48" viewBox="0 0 48 48">
  <g id="m-resume" transform="translate(19069 -1851)">
    <g id="resume_1_" data-name="resume (1)" transform="translate(-19059.668 1856.333)">
      <g id="Group_87240" data-name="Group 87240" transform="translate(3.249 3.159)">
        <g id="Group_87239" data-name="Group 87239" transform="translate(0)">
          <path id="Path_91676" data-name="Path 91676" d="M111.6,46.282a.555.555,0,0,0,.555-.555v-1.42a1.637,1.637,0,0,0-1.635-1.635h-7.107a1.637,1.637,0,0,0-1.635,1.635v9.266a1.637,1.637,0,0,0,1.635,1.635h7.107a1.637,1.637,0,0,0,1.635-1.635V47.651a.555.555,0,0,0-1.111,0v5.921a.525.525,0,0,1-.524.524h-.209V52.163a1.637,1.637,0,0,0-1.635-1.635h-3.419a1.637,1.637,0,0,0-1.635,1.635V54.1h-.209a.525.525,0,0,1-.524-.524V44.306a.525.525,0,0,1,.524-.524h7.107a.525.525,0,0,1,.524.524v1.42A.555.555,0,0,0,111.6,46.282Zm-6.867,5.881a.525.525,0,0,1,.524-.524h3.419a.525.525,0,0,1,.524.524V54.1h-4.467V52.163Z" transform="translate(-101.783 -42.671)"/>
        </g>
      </g>
      <g id="Group_87242" data-name="Group 87242" transform="translate(6.077 5.755)">
        <g id="Group_87241" data-name="Group 87241" transform="translate(0)">
          <path id="Path_91677" data-name="Path 91677" d="M142.335,77.739A2.361,2.361,0,1,0,144.7,80.1,2.364,2.364,0,0,0,142.335,77.739Zm0,3.611a1.25,1.25,0,1,1,1.25-1.25A1.252,1.252,0,0,1,142.335,81.35Z" transform="translate(-139.974 -77.739)"/>
        </g>
      </g>
      <g id="Group_87244" data-name="Group 87244" transform="translate(6.601 17.623)">
        <g id="Group_87243" data-name="Group 87243" transform="translate(0)">
          <path id="Path_91678" data-name="Path 91678" d="M163.044,238.028H147.608a.555.555,0,0,0,0,1.111h15.435a.555.555,0,0,0,0-1.111Z" transform="translate(-147.053 -238.028)"/>
        </g>
      </g>
      <g id="Group_87246" data-name="Group 87246" transform="translate(6.601 20.918)">
        <g id="Group_87245" data-name="Group 87245" transform="translate(0)">
          <path id="Path_91679" data-name="Path 91679" d="M163.044,282.543H147.608a.555.555,0,0,0,0,1.111h15.435a.555.555,0,0,0,0-1.111Z" transform="translate(-147.053 -282.543)"/>
        </g>
      </g>
      <g id="Group_87248" data-name="Group 87248" transform="translate(6.601 24.214)">
        <g id="Group_87247" data-name="Group 87247" transform="translate(0)">
          <path id="Path_91680" data-name="Path 91680" d="M163.044,327.058H147.608a.555.555,0,1,0,0,1.111h15.435a.555.555,0,0,0,0-1.111Z" transform="translate(-147.053 -327.058)"/>
        </g>
      </g>
      <g id="Group_87250" data-name="Group 87250" transform="translate(3.926 17.623)">
        <g id="Group_87249" data-name="Group 87249">
          <path id="Path_91681" data-name="Path 91681" d="M112.017,238.028h-.54a.555.555,0,0,0,0,1.111h.54a.555.555,0,0,0,0-1.111Z" transform="translate(-110.922 -238.028)"/>
        </g>
      </g>
      <g id="Group_87252" data-name="Group 87252" transform="translate(3.926 20.918)">
        <g id="Group_87251" data-name="Group 87251">
          <path id="Path_91682" data-name="Path 91682" d="M112.017,282.543h-.54a.555.555,0,0,0,0,1.111h.54a.555.555,0,0,0,0-1.111Z" transform="translate(-110.922 -282.543)"/>
        </g>
      </g>
      <g id="Group_87254" data-name="Group 87254" transform="translate(3.926 24.214)">
        <g id="Group_87253" data-name="Group 87253">
          <path id="Path_91683" data-name="Path 91683" d="M112.017,327.058h-.54a.555.555,0,1,0,0,1.111h.54a.555.555,0,1,0,0-1.111Z" transform="translate(-110.922 -327.058)"/>
        </g>
      </g>
      <g id="Group_87256" data-name="Group 87256" transform="translate(0)">
        <g id="Group_87255" data-name="Group 87255" transform="translate(0)">
          <path id="Path_91684" data-name="Path 91684" d="M86.676,18.172a.555.555,0,0,0,.555-.555V4.424A1.637,1.637,0,0,0,85.6,2.789H84.289V1.635A1.637,1.637,0,0,0,82.654,0H59.533A1.637,1.637,0,0,0,57.9,1.635V33.483a1.637,1.637,0,0,0,1.635,1.635h1.308v1.154a1.637,1.637,0,0,0,1.635,1.635H85.6a1.637,1.637,0,0,0,1.635-1.635V19.542a.555.555,0,1,0-1.111,0v16.73a.525.525,0,0,1-.524.524H62.475a.525.525,0,0,1-.524-.524V35.118c15.644,0,14.989.035,15.18-.077a.526.526,0,0,0,.112-.085c7.27-7.27,6.9-6.891,6.943-6.954a.547.547,0,0,0,.1-.3c0-.006,0-.012,0-.019V3.9H85.6a.525.525,0,0,1,.524.524V17.617A.555.555,0,0,0,86.676,18.172Zm-9.271,15.05V28.758a.525.525,0,0,1,.524-.524h4.463Zm5.773-6.1H77.93a1.637,1.637,0,0,0-1.635,1.635v5.249H59.533a.525.525,0,0,1-.524-.524V1.635a.525.525,0,0,1,.524-.524H82.654a.525.525,0,0,1,.524.524Z" transform="translate(-57.898)"/>
        </g>
      </g>
    </g>
    <rect id="Rectangle_23914" data-name="Rectangle 23914" width="48" height="48" transform="translate(-19069 1851)" fill="gray" opacity="0"/>
  </g>
</svg>
