<svg xmlns="http://www.w3.org/2000/svg" width="48" height="48" viewBox="0 0 48 48">
  <g id="m-rocket" transform="translate(19094 -2034)">
    <g id="rocket" transform="translate(-19088.668 2039.333)">
      <g id="Group_87266" data-name="Group 87266" transform="translate(0 0)">
        <path id="Path_91704" data-name="Path 91704" d="M185.791,3.977a.547.547,0,0,0-.768.779l.87.857h-9.035l4.517-4.45,1.985,1.956a.547.547,0,0,0,.768-.779L182.02.262a.921.921,0,0,0-1.287,0L175.78,5.141a.915.915,0,0,0,.643,1.566h.542V27.13a.547.547,0,0,0,1.094,0V18.739h1.531v6.213a.547.547,0,0,0,1.094,0V18.739h1.385V27.13a.547.547,0,1,0,1.094,0V18.739h1.532v4.875a.547.547,0,0,0,1.094,0V6.707h.541a.915.915,0,0,0,.643-1.566Zm-1.1,13.668h-6.635V6.707h6.635Z" transform="translate(-162.71 0)"/>
        <path id="Path_91705" data-name="Path 91705" d="M6.513,161.769a.921.921,0,0,0-1.287,0L.273,166.648a.915.915,0,0,0,.643,1.566h.542v7.177a.547.547,0,0,0,1.094,0v-7.177H9.188v10.938H2.552v-1.416a.547.547,0,1,0-1.094,0v5a.547.547,0,0,0,1.094,0v-2.493h1.47v5.273a.547.547,0,0,0,1.094,0v-5.273H6.5v3.221a.547.547,0,0,0,1.094,0v-3.221H9.188v3.809a.547.547,0,0,0,1.094,0V168.214h.541a.915.915,0,0,0,.643-1.566ZM1.352,167.12l4.517-4.45,4.517,4.45Z" transform="translate(0 -149.73)"/>
        <path id="Path_91706" data-name="Path 91706" d="M362.472,82.644l-4.953-4.879a.921.921,0,0,0-1.287,0l-4.953,4.879a.915.915,0,0,0,.643,1.566h.542v22.685a.547.547,0,0,0,1.094,0V96.242h1.593v6.607a.547.547,0,0,0,1.094,0V96.242h1.385v8.289a.547.547,0,0,0,1.094,0V96.242h1.47v5.225a.547.547,0,1,0,1.094,0V92.834a.547.547,0,1,0-1.094,0v2.314h-6.635V84.21h6.635v6.308a.547.547,0,1,0,1.094,0V84.21h.541a.915.915,0,0,0,.643-1.566Zm-10.114.473,4.517-4.45,4.517,4.45Z" transform="translate(-325.412 -71.852)"/>
        <path id="Path_91707" data-name="Path 91707" d="M196.055,413.275a.547.547,0,0,0-.547.547v6.1a.547.547,0,0,0,1.094,0v-6.1A.547.547,0,0,0,196.055,413.275Z" transform="translate(-181.252 -383.14)"/>
        <path id="Path_91708" data-name="Path 91708" d="M302.055,353.342a.547.547,0,0,0-.547.547v7.423a.547.547,0,0,0,1.094,0v-7.422A.547.547,0,0,0,302.055,353.342Z" transform="translate(-279.523 -327.577)"/>
        <path id="Path_91709" data-name="Path 91709" d="M232.051,371.371a.547.547,0,0,0-.547.547v6.271a.547.547,0,1,0,1.094,0v-6.271A.547.547,0,0,0,232.051,371.371Z" transform="translate(-214.623 -344.292)"/>
        <path id="Path_91710" data-name="Path 91710" d="M266.051,400.068a.547.547,0,0,0-.547.547v6.1a.547.547,0,0,0,1.094,0v-6.1A.547.547,0,0,0,266.051,400.068Z" transform="translate(-246.144 -370.896)"/>
        <path id="Path_91711" data-name="Path 91711" d="M20.555,475.55a.547.547,0,0,0-.547.547v1.564a.547.547,0,1,0,1.094,0V476.1A.547.547,0,0,0,20.555,475.55Z" transform="translate(-18.549 -440.874)"/>
        <path id="Path_91712" data-name="Path 91712" d="M89.028,483.792a.547.547,0,0,0-.547.547v.963a.547.547,0,1,0,1.094,0v-.963A.547.547,0,0,0,89.028,483.792Z" transform="translate(-82.029 -448.516)"/>
        <path id="Path_91713" data-name="Path 91713" d="M477.554,436.369a.547.547,0,0,0-.547.547v4.421a.547.547,0,0,0,1.094,0v-4.421A.547.547,0,0,0,477.554,436.369Z" transform="translate(-442.225 -404.551)"/>
        <path id="Path_91714" data-name="Path 91714" d="M409.082,450.729a.547.547,0,0,0-.547.547v3.374a.547.547,0,0,0,1.094,0v-3.374A.547.547,0,0,0,409.082,450.729Z" transform="translate(-378.746 -417.863)"/>
      </g>
    </g>
    <rect id="Rectangle_23914" data-name="Rectangle 23914" width="48" height="48" transform="translate(-19094 2034)" fill="gray" opacity="0"/>
  </g>
</svg>
