<svg id="mail_read" data-name="mail read" xmlns="http://www.w3.org/2000/svg" width="24" height="24" viewBox="0 0 24 24">
  <g id="Layer_3" data-name="Layer 3">
    <rect id="Rectangle_24568" data-name="Rectangle 24568" width="24" height="24" fill="#fff" opacity="0"/>
  </g>
  <g id="icon">
    <path id="Path_99943" data-name="Path 99943" d="M20.28,7.44,15.65,3.38a5.55,5.55,0,0,0-7.31,0L3.72,7.44A2.65,2.65,0,0,0,2.4,9.71V19.4A2.62,2.62,0,0,0,5,22H19a2.62,2.62,0,0,0,2.64-2.6V9.71a2.65,2.65,0,0,0-1.36-2.27ZM4.65,8.62,9.33,4.51a4,4,0,0,1,5.33,0l4.69,4.12a.45.45,0,0,0,.14.1,1.08,1.08,0,0,1,.24.18l-2.08,3a6.9,6.9,0,0,1-11.3,0l-2.08-3a1.08,1.08,0,0,1,.24-.18A.45.45,0,0,0,4.65,8.62ZM19,20.5H5a1.12,1.12,0,0,1-1.1-1.1V11l1.22,1.74A8.28,8.28,0,0,0,12,16.31a8.28,8.28,0,0,0,6.88-3.58L20.1,11v8.4A1.12,1.12,0,0,1,19,20.5Z" fill="#fff"/>
  </g>
</svg>
