<svg id="mail" xmlns="http://www.w3.org/2000/svg" width="24" height="24" viewBox="0 0 24 24">
  <g id="Layer_3" data-name="Layer 3">
    <rect id="Rectangle_24569" data-name="Rectangle 24569" width="24" height="24" fill="#fff" opacity="0"/>
  </g>
  <g id="icon">
    <path id="Path_99944" data-name="Path 99944" d="M19.28,4.5H4.72A2.72,2.72,0,0,0,2,7.22v9.56A2.72,2.72,0,0,0,4.72,19.5H19.28A2.72,2.72,0,0,0,22,16.78V7.22A2.72,2.72,0,0,0,19.28,4.5Zm0,1.5a1.53,1.53,0,0,1,.36.07L18,8.48a7.24,7.24,0,0,1-12,0L4.36,6.07A1.53,1.53,0,0,1,4.72,6Zm0,12H4.72A1.22,1.22,0,0,1,3.5,16.78V7.48L4.74,9.32a8.76,8.76,0,0,0,14.52,0L20.5,7.47v9.31A1.22,1.22,0,0,1,19.28,18Z" fill="#fff"/>
  </g>
</svg>
