<svg id="map" xmlns="http://www.w3.org/2000/svg" width="24" height="24" viewBox="0 0 24 24">
  <g id="Layer_3" data-name="Layer 3">
    <rect id="Rectangle_24570" data-name="Rectangle 24570" width="24" height="24" fill="#fff" opacity="0"/>
  </g>
  <g id="icon">
    <circle id="Ellipse_2194" data-name="Ellipse 2194" cx="1.25" cy="1.25" r="1.25" transform="translate(10.75 6.75)" fill="#fff"/>
    <path id="Path_99945" data-name="Path 99945" d="M20.67,20.91l-.21-.4a13.84,13.84,0,0,1-1.41-7.2.78.78,0,0,0-.2-.57.76.76,0,0,0-.55-.24H16.76A9,9,0,0,0,18,8,6,6,0,1,0,6,8a9,9,0,0,0,1.24,4.5H5.7a.76.76,0,0,0-.55.24.78.78,0,0,0-.2.57A13.79,13.79,0,0,1,3.54,20.5l-.21.41a.73.73,0,0,0,0,.73A.76.76,0,0,0,4,22H20a.76.76,0,0,0,.64-.36.73.73,0,0,0,.03-.73ZM12,3.5A4.51,4.51,0,0,1,16.5,8a7.93,7.93,0,0,1-1.72,4.8A12.89,12.89,0,0,1,12,15.51a13.45,13.45,0,0,1-2-1.77c-.26-.29-.52-.6-.77-.94h0A7.93,7.93,0,0,1,7.5,8,4.51,4.51,0,0,1,12,3.5Zm-6.8,17A15.32,15.32,0,0,0,6.49,14H8.25l.2.24.28.33.32.35.27.28.32.3.26.25.29.25.24.2.25.19.21.17.2.14.17.12.16.11.08.05.11.07a.73.73,0,0,0,.78,0L12.5,17l.08-.05.16-.11.18-.12.19-.14.22-.17.24-.19.25-.21.28-.24.27-.25c.1-.1.2-.19.3-.3l.28-.28.32-.35.27-.32.21-.25h1.76a15.35,15.35,0,0,0,1.29,6.5Z" fill="#fff"/>
  </g>
</svg>
