<svg id="mark" xmlns="http://www.w3.org/2000/svg" width="24" height="24" viewBox="0 0 24 24">
  <g id="Layer_3" data-name="Layer 3">
    <rect id="Rectangle_24571" data-name="Rectangle 24571" width="24" height="24" fill="#fff" opacity="0"/>
  </g>
  <g id="icon">
    <path id="Path_99946" data-name="Path 99946" d="M6.25,21.68a1.29,1.29,0,0,1-.65-.19A1.26,1.26,0,0,1,5,20.42V4.25A2.25,2.25,0,0,1,7.25,2h9.5A2.25,2.25,0,0,1,19,4.25V20.42a1.26,1.26,0,0,1-.6,1.07,1.23,1.23,0,0,1-1.23,0L12,18.85,6.83,21.53a1.19,1.19,0,0,1-.58.15ZM12,17.28a1,1,0,0,1,.46.11l5,2.62V4.25a.76.76,0,0,0-.75-.75H7.25a.76.76,0,0,0-.75.75V20l5-2.62A1,1,0,0,1,12,17.28Z" fill="#fff"/>
  </g>
</svg>
