<svg id="message" xmlns="http://www.w3.org/2000/svg" width="24" height="24" viewBox="0 0 24 24">
  <g id="Layer_3" data-name="Layer 3">
    <rect id="Rectangle_24572" data-name="Rectangle 24572" width="24" height="24" fill="#fff" opacity="0"/>
  </g>
  <g id="icon">
    <path id="Path_99947" data-name="Path 99947" d="M20.75,3.26a1.7,1.7,0,0,0-1.84-.39L3.83,8.8a1.71,1.71,0,0,0-1.08,1.48,1.69,1.69,0,0,0,.88,1.6l2.26,1.26a.57.57,0,0,1,.3.53l-.05,2.85a1.27,1.27,0,0,0,1.78,1.17L9.47,17a.61.61,0,0,1,.77.26L12,20.37a1.69,1.69,0,0,0,1.49.88h.11A1.7,1.7,0,0,0,15,20.18L21.12,5.1a1.68,1.68,0,0,0-.37-1.84ZM4.36,10.57a.2.2,0,0,1,0-.37l11.2-4.41-8.8,6.15a.83.83,0,0,0-.15-.11Zm9.29,9.05a.19.19,0,0,1-.18.13.2.2,0,0,1-.2-.11l-1.72-3.1a2.07,2.07,0,0,0-1.83-1.09,2.18,2.18,0,0,0-.86.18l-1.21.54V13.7a1.9,1.9,0,0,0-.06-.54l12-8.35Z" fill="#fff"/>
  </g>
</svg>
