<svg id="mic_mute" data-name="mic mute" xmlns="http://www.w3.org/2000/svg" width="24" height="24" viewBox="0 0 24 24">
  <g id="Layer_3" data-name="Layer 3">
    <rect id="Rectangle_24573" data-name="Rectangle 24573" width="24" height="24" fill="#fff" opacity="0"/>
  </g>
  <g id="icon">
    <path id="Path_99948" data-name="Path 99948" d="M20,20.78l-.27-.34-2.94-3.68-.95-1.17-.79-1-1-1.2L9.49,7.67,8,5.8,5.18,2.28A.754.754,0,0,0,4,3.22l4,5V12a4,4,0,0,0,5.87,3.54l.79,1a5.24,5.24,0,0,1-7.87-3.88A.73.73,0,0,0,6.05,12a.75.75,0,0,0-.76.76s0,.07,0,.1a6.77,6.77,0,0,0,5.94,5.85v2.54A.76.76,0,0,0,12,22h0a.75.75,0,0,0,.74-.75V18.71a6.54,6.54,0,0,0,2.85-1l3.22,4a.76.76,0,0,0,.59.28.74.74,0,0,0,.46-.16A.75.75,0,0,0,20,20.78ZM12,14.5A2.51,2.51,0,0,1,9.49,12V10.07l3.4,4.26A2.44,2.44,0,0,1,12,14.5Z" fill="#fff"/>
    <path id="Path_99949" data-name="Path 99949" d="M12,3.5A2.5,2.5,0,0,1,14.49,6v.75H13a.75.75,0,0,0,0,1.5h1.5v1.5H13.08l.6.75.6.75h.21v.26l1.33,1.66A4.09,4.09,0,0,0,16,12V6A4,4,0,0,0,8.51,4L9.57,5.37A2.52,2.52,0,0,1,12,3.5Z" fill="#fff"/>
    <path id="Path_99950" data-name="Path 99950" d="M18.69,12.86a.76.76,0,0,0-.75-.86.73.73,0,0,0-.73.64,5.15,5.15,0,0,1-.49,1.66l1,1.26a6.62,6.62,0,0,0,.97-2.7Z" fill="#fff"/>
  </g>
</svg>
