<svg id="mic" xmlns="http://www.w3.org/2000/svg" width="24" height="24" viewBox="0 0 24 24">
  <g id="Layer_3" data-name="Layer 3">
    <rect id="Rectangle_24574" data-name="Rectangle 24574" width="24" height="24" fill="#fff" opacity="0"/>
  </g>
  <g id="icon">
    <path id="Path_99951" data-name="Path 99951" d="M12,16a4,4,0,0,0,4-4V6A4,4,0,1,0,8,6v6a4,4,0,0,0,4,4ZM9.5,6a2.51,2.51,0,0,1,2.76-2.49A2.61,2.61,0,0,1,14.5,6.15v.6h-.75A.76.76,0,0,0,13,7.5h0a.76.76,0,0,0,.75.75h.75v1.5h-.75a.76.76,0,0,0-.75.75h0a.76.76,0,0,0,.75.75h.75v.6a2.61,2.61,0,0,1-2.24,2.64A2.51,2.51,0,0,1,9.5,12Z" fill="#fff"/>
    <path id="Path_99952" data-name="Path 99952" d="M18.75,12a.75.75,0,0,0-1.5,0,5.25,5.25,0,0,1-10.5,0,.75.75,0,1,0-1.5,0,6.76,6.76,0,0,0,6,6.71V22a.75.75,0,0,0,1.5,0V18.71a6.76,6.76,0,0,0,6-6.71Z" fill="#fff"/>
  </g>
</svg>
