<svg id="mouse" xmlns="http://www.w3.org/2000/svg" width="24" height="24" viewBox="0 0 24 24">
  <g id="Layer_3" data-name="Layer 3">
    <rect id="Rectangle_24577" data-name="Rectangle 24577" width="24" height="24" fill="#fff" opacity="0"/>
  </g>
  <g id="icon">
    <path id="Path_99956" data-name="Path 99956" d="M12,6.49a.75.75,0,0,0-.75.75v1a.75.75,0,0,0,1.5,0v-1A.76.76,0,0,0,12,6.49Z" fill="#fff"/>
    <path id="Path_99957" data-name="Path 99957" d="M19.47,8.56A7.37,7.37,0,0,0,12,2,7.37,7.37,0,0,0,4.53,8.56a6.88,6.88,0,0,0,.19,2.28L5.21,13a13,13,0,0,1,.31,2.78A6.39,6.39,0,0,0,12,22a6.37,6.37,0,0,0,6.47-6.26,12.59,12.59,0,0,1,.32-2.8l.49-2.1a6.86,6.86,0,0,0,.19-2.28ZM17.82,10.5l-.49,2.1A13.81,13.81,0,0,0,17,15.74a4.87,4.87,0,0,1-5,4.76,4.87,4.87,0,0,1-5-4.76H7a14.28,14.28,0,0,0-.35-3.12L6.18,10.5A5.42,5.42,0,0,1,6,8.71,5.91,5.91,0,0,1,12,3.5a5.91,5.91,0,0,1,6,5.21A5.7,5.7,0,0,1,17.82,10.5Z" fill="#fff"/>
  </g>
</svg>
