<svg id="mute" xmlns="http://www.w3.org/2000/svg" width="24" height="24" viewBox="0 0 24 24">
  <g id="Layer_3" data-name="Layer 3">
    <rect id="Rectangle_24578" data-name="Rectangle 24578" width="24" height="24" fill="#fff" opacity="0"/>
  </g>
  <g id="icon">
    <path id="Path_99958" data-name="Path 99958" d="M15.36,15.75a.74.74,0,0,1-.53-.22.75.75,0,0,1,0-1.06l6-6a.75.75,0,0,1,1.06,0,.74.74,0,0,1,0,1.06l-6,6a.73.73,0,0,1-.53.22Z" fill="#fff"/>
    <path id="Path_99959" data-name="Path 99959" d="M21.36,15.75a.74.74,0,0,1-.53-.22l-6-6a.75.75,0,1,1,1.06-1.06l6,6a.74.74,0,0,1,0,1.06.73.73,0,0,1-.53.22Z" fill="#fff"/>
    <path id="Path_99960" data-name="Path 99960" d="M10.94,17.75a1.22,1.22,0,0,1-.52-.11L6,15.61H3.13a1.25,1.25,0,0,1-1.24-1.25V9.64A1.25,1.25,0,0,1,3.13,8.39H6l4.4-2a1.23,1.23,0,0,1,1.19.08,1.27,1.27,0,0,1,.58,1v9a1.27,1.27,0,0,1-.58,1A1.21,1.21,0,0,1,10.94,17.75Zm.11-1.47ZM3.39,14.11H6.05a1.31,1.31,0,0,1,.52.11l4.12,1.89V7.89L6.57,9.77a.76.76,0,0,1-.16.06H3.39Z" fill="#fff"/>
  </g>
</svg>
