<svg id="new_tab" data-name="new tab" xmlns="http://www.w3.org/2000/svg" width="24" height="24" viewBox="0 0 24 24">
  <g id="Layer_3" data-name="Layer 3">
    <rect id="Rectangle_24579" data-name="Rectangle 24579" width="24" height="24" fill="#fff" opacity="0"/>
  </g>
  <g id="icon">
    <path id="Path_99961" data-name="Path 99961" d="M14,19.5H4.75A1.25,1.25,0,0,1,3.5,18.25V9.75h17V13A.75.75,0,0,0,22,13V5.75A2.75,2.75,0,0,0,19.25,3H4.75A2.75,2.75,0,0,0,2,5.75v12.5A2.75,2.75,0,0,0,4.75,21H14a.75.75,0,1,0,0-1.5ZM4.75,4.5h14.5A1.25,1.25,0,0,1,20.5,5.75v2.5H3.5V5.75A1.25,1.25,0,0,1,4.75,4.5Z" fill="#fff"/>
    <circle id="Ellipse_2198" data-name="Ellipse 2198" cx="0.75" cy="0.75" r="0.75" transform="translate(5.25 5.5)" fill="#fff"/>
    <path id="Path_99962" data-name="Path 99962" d="M22,17.25H19.75V15a.75.75,0,0,0-1.5,0v2.25H16a.75.75,0,0,0,0,1.5h2.25V21a.75.75,0,0,0,1.5,0V18.75H22a.75.75,0,0,0,0-1.5Z" fill="#fff"/>
  </g>
</svg>
