<svg id="night" xmlns="http://www.w3.org/2000/svg" width="24" height="24" viewBox="0 0 24 24">
  <g id="Layer_3" data-name="Layer 3">
    <rect id="Rectangle_24582" data-name="Rectangle 24582" width="24" height="24" fill="#fff" opacity="0"/>
  </g>
  <g id="icon">
    <path id="Path_99967" data-name="Path 99967" d="M12.24,21.16A10.28,10.28,0,0,1,5,18.21,10,10,0,0,1,6.15,3,.75.75,0,0,1,7,3a.77.77,0,0,1,.27.85,8.4,8.4,0,0,0,2.12,8.72,8.91,8.91,0,0,0,11.38.83.75.75,0,0,1,1.15.84,9.87,9.87,0,0,1-2.49,4,10.32,10.32,0,0,1-7.19,2.92ZM5.4,5.75a8.45,8.45,0,0,0,.65,11.39,8.85,8.85,0,0,0,12.37,0,8.45,8.45,0,0,0,1.12-1.35A10.44,10.44,0,0,1,8.38,13.62,9.9,9.9,0,0,1,5.4,5.75Z" fill="#fff"/>
  </g>
</svg>
