<svg id="notification" xmlns="http://www.w3.org/2000/svg" width="24" height="24" viewBox="0 0 24 24">
  <g id="Layer_3" data-name="Layer 3">
    <rect id="Rectangle_24583" data-name="Rectangle 24583" width="24" height="24" fill="#fff" opacity="0"/>
  </g>
  <g id="icon">
    <path id="Path_99968" data-name="Path 99968" d="M4.08,7.13a.76.76,0,0,1-.75-.75A2.68,2.68,0,0,1,6,3.71a.75.75,0,0,1,0,1.5A1.17,1.17,0,0,0,4.83,6.38a.75.75,0,0,1-.75.75Z" fill="#fff"/>
    <path id="Path_99969" data-name="Path 99969" d="M19.92,7.13a.75.75,0,0,1-.75-.75A1.17,1.17,0,0,0,18,5.21a.75.75,0,1,1,0-1.5,2.68,2.68,0,0,1,2.67,2.67.76.76,0,0,1-.75.75Z" fill="#fff"/>
    <path id="Path_99970" data-name="Path 99970" d="M13.5,20.5a1.48,1.48,0,0,1-.2.75,1.5,1.5,0,0,1-2.6,0,1.48,1.48,0,0,1-.2-.75Z" fill="#fff"/>
    <path id="Path_99971" data-name="Path 99971" d="M12,3.5a1.3,1.3,0,0,1,1.3,1.3.5.5,0,0,1,0,.17,5,5,0,0,1,2.37,1.34A5.18,5.18,0,0,1,17.16,10v2.89a5.2,5.2,0,0,0,1.51,3.65.86.86,0,0,1,.26.62.88.88,0,0,1-.88.89H6a.88.88,0,0,1-.88-.89.86.86,0,0,1,.26-.62,5.2,5.2,0,0,0,1.51-3.65V10.22A5.47,5.47,0,0,1,10.72,5a1.1,1.1,0,0,1,0-.18A1.3,1.3,0,0,1,12,3.5M12,2A2.8,2.8,0,0,0,9.35,3.89a7.06,7.06,0,0,0-4,6.33v2.63a3.64,3.64,0,0,1-1.08,2.59A2.39,2.39,0,0,0,6,19.51H18.1a2.38,2.38,0,0,0,1.68-4.07,3.67,3.67,0,0,1-1.07-2.59V10a6.66,6.66,0,0,0-4-6.12A2.8,2.8,0,0,0,12,2Z" fill="#fff"/>
  </g>
</svg>
