<svg xmlns="http://www.w3.org/2000/svg" width="48" height="48" viewBox="0 0 48 48">
  <g id="palette" transform="translate(-149 -259)">
    <g id="Rectangle_23865" data-name="Rectangle 23865" transform="translate(149 259)" fill="gray" stroke="#707070" stroke-width="1" opacity="0">
      <rect width="48" height="48" stroke="none"/>
      <rect x="0.5" y="0.5" width="47" height="47" fill="none"/>
    </g>
    <g id="painter-palette" transform="translate(155 265)">
      <g id="palette-2" data-name="palette">
        <path id="Path_89082" data-name="Path 89082" d="M18,0a18,18,0,0,0,0,36,3.076,3.076,0,0,0,3-3,2.568,2.568,0,0,0-.8-2,3.553,3.553,0,0,1-.8-2,3.076,3.076,0,0,1,3-3H26A9.9,9.9,0,0,0,36,16C36,7.2,28,0,18,0ZM7,18a3.076,3.076,0,0,1-3-3,3.076,3.076,0,0,1,3-3,3,3,0,1,1,0,6Zm6-8a3.076,3.076,0,0,1-3-3,3.076,3.076,0,0,1,3-3,3.076,3.076,0,0,1,3,3A3.076,3.076,0,0,1,13,10Zm10,0a3.076,3.076,0,0,1-3-3,3,3,0,1,1,6,0A3.076,3.076,0,0,1,23,10Zm6,8a3.076,3.076,0,0,1-3-3,3,3,0,1,1,3,3Z" fill="gray"/>
      </g>
    </g>
  </g>
</svg>
