<svg id="pause" xmlns="http://www.w3.org/2000/svg" width="24" height="24" viewBox="0 0 24 24">
  <g id="Layer_3" data-name="Layer 3">
    <rect id="Rectangle_24588" data-name="Rectangle 24588" width="24" height="24" fill="#fff" opacity="0"/>
  </g>
  <g id="icon">
    <path id="Path_99975" data-name="Path 99975" d="M12,3.5A8.5,8.5,0,1,1,3.5,12,8.5,8.5,0,0,1,12,3.5M12,2A10,10,0,1,0,22,12,10,10,0,0,0,12,2Z" fill="#fff"/>
    <path id="Path_99976" data-name="Path 99976" d="M10,16.25a.76.76,0,0,1-.75-.75v-7a.75.75,0,0,1,1.5,0v7A.75.75,0,0,1,10,16.25Z" fill="#fff"/>
    <path id="Path_99977" data-name="Path 99977" d="M14,16.25a.75.75,0,0,1-.75-.75v-7a.75.75,0,0,1,1.5,0v7a.76.76,0,0,1-.75.75Z" fill="#fff"/>
  </g>
</svg>
