<svg id="payment___card" data-name="payment _ card" xmlns="http://www.w3.org/2000/svg" width="24" height="24" viewBox="0 0 24 24">
  <g id="Layer_3" data-name="Layer 3">
    <rect id="Rectangle_24589" data-name="Rectangle 24589" width="24" height="24" fill="#fff" opacity="0"/>
  </g>
  <g id="icon">
    <path id="Path_99978" data-name="Path 99978" d="M19.75,4.5H4.25A2.25,2.25,0,0,0,2,6.75v10.5A2.25,2.25,0,0,0,4.25,19.5h15.5A2.25,2.25,0,0,0,22,17.25V6.75A2.25,2.25,0,0,0,19.75,4.5ZM4.25,6h15.5a.76.76,0,0,1,.75.75V8.5H3.5V6.75A.76.76,0,0,1,4.25,6Zm15.5,12H4.25a.76.76,0,0,1-.75-.75V10h17v7.25a.76.76,0,0,1-.75.75Z" fill="#fff"/>
    <path id="Path_99979" data-name="Path 99979" d="M18,15H15a.75.75,0,0,0,0,1.5h3A.75.75,0,0,0,18,15Z" fill="#fff"/>
  </g>
</svg>
