<svg id="people" xmlns="http://www.w3.org/2000/svg" width="24" height="24" viewBox="0 0 24 24">
  <g id="Layer_3" data-name="Layer 3">
    <rect id="Rectangle_24590" data-name="Rectangle 24590" width="24" height="24" fill="#fff" opacity="0"/>
  </g>
  <g id="icon">
    <path id="Path_99980" data-name="Path 99980" d="M22,16a2.59,2.59,0,0,1-2.58,2.58H17.61a3.25,3.25,0,0,0,.09-.77,3,3,0,0,0-.09-.731h1.81A1.08,1.08,0,0,0,20.5,16a1.11,1.11,0,0,0-.08-.41,1,1,0,0,0-.73-.57L19.47,15A8.07,8.07,0,0,1,16,13a3,3,0,0,1-.52.13,2,2,0,0,1-.43.07,4.07,4.07,0,0,1-.5,0h-.38a5.31,5.31,0,0,0,.66-1.5,3,3,0,0,0,1.06-.27,3.29,3.29,0,1,0-3.2-5.71A5.46,5.46,0,0,0,11.2,5a4.79,4.79,0,1,1,6.21,7.26,6.54,6.54,0,0,0,2.45,1.28l.22.06A2.5,2.5,0,0,1,21.8,15a2.62,2.62,0,0,1,.2,1Z" fill="#fff"/>
    <path id="Path_99981" data-name="Path 99981" d="M16.85,17.07a.743.743,0,0,0-.1-.27A2.5,2.5,0,0,0,15,15.37l-.22-.06A6.57,6.57,0,0,1,13,14.49a6.85,6.85,0,0,1-.61-.45,4.49,4.49,0,0,0,.55-.51,3.89,3.89,0,0,0,.42-.49,5,5,0,0,0,.7-1.39,4.92,4.92,0,0,0,.22-1.44,4.8,4.8,0,0,0-2.17-4,4.47,4.47,0,0,0-1.43-.62A4.15,4.15,0,0,0,9.5,5.43a4.79,4.79,0,0,0-4.79,4.78A4.74,4.74,0,0,0,6,13.46a3.88,3.88,0,0,0,.55.52,5.5,5.5,0,0,1-.61.47,6.14,6.14,0,0,1-2.12,1,2.2,2.2,0,0,0-1,.54,2.527,2.527,0,0,0,1.76,4.39h9.79a2.59,2.59,0,0,0,2.46-1.81A2.48,2.48,0,0,0,17,17.8,3,3,0,0,0,16.85,17.07ZM6.19,10.21A3.28,3.28,0,0,1,9.48,6.93,2.63,2.63,0,0,1,10,7a3.294,3.294,0,0,1,2.79,3.24,3.15,3.15,0,0,1-.12.87.08.08,0,0,1,0,.05,3.11,3.11,0,0,1-.71,1.28l-.05.05a3.11,3.11,0,0,1-1,.75,3.33,3.33,0,0,1-1.61.28,3.09,3.09,0,0,1-1.16-.32,3.41,3.41,0,0,1-1-.8,3.28,3.28,0,0,1-.95-2.19Zm8.94,8.36a1.09,1.09,0,0,1-.76.31H4.58A1.08,1.08,0,0,1,3.5,17.8a1.06,1.06,0,0,1,.34-.8.68.68,0,0,1,.32-.16,7.84,7.84,0,0,0,2.94-1.4l.21-.17a6.31,6.31,0,0,0,.61-.55,2.85,2.85,0,0,0,.39.11l.3.07H9.4l.6.1h.29l.3-.06.36-.1a8.39,8.39,0,0,0,.63.56,8.31,8.31,0,0,0,2.85,1.43l.22.06a1.14,1.14,0,0,1,.49.25.82.82,0,0,1,.24.32,1.11,1.11,0,0,1,.08.41,1.06,1.06,0,0,1-.33.7Z" fill="#fff"/>
  </g>
</svg>
