<svg id="person" xmlns="http://www.w3.org/2000/svg" width="24" height="24" viewBox="0 0 24 24">
  <g id="Layer_3" data-name="Layer 3">
    <rect id="Rectangle_24591" data-name="Rectangle 24591" width="24" height="24" fill="#fff" opacity="0"/>
  </g>
  <g id="icon">
    <path id="Path_99982" data-name="Path 99982" d="M21,16.37a2.76,2.76,0,0,0-1.26-.66,9.12,9.12,0,0,1-4.11-2.27,6.29,6.29,0,1,0-7.14.08,9.35,9.35,0,0,1-3.74,2.06l-.3.08a3.21,3.21,0,0,0-2.19,1.81A3.37,3.37,0,0,0,2,18.73,3.28,3.28,0,0,0,5.27,22H18.73A3.26,3.26,0,0,0,22,18.73a3.31,3.31,0,0,0-1-2.36ZM7.2,8.3a4.8,4.8,0,1,1,6.88,4.32,4.75,4.75,0,0,1-3.36.3l-.19-.05h-.06L10,12.68h0A4.78,4.78,0,0,1,7.2,8.3ZM20,20a1.71,1.71,0,0,1-1.25.52H5.27A1.77,1.77,0,0,1,3.5,18.73a1.59,1.59,0,0,1,.14-.68,1.74,1.74,0,0,1,1.18-.94L5.13,17a10.72,10.72,0,0,0,4.79-2.77h0a7.77,7.77,0,0,0,.95.24h.16a5.84,5.84,0,0,0,.93.08h.15a6.84,6.84,0,0,0,.91-.09h.19a6,6,0,0,0,.92-.26h.05a10.53,10.53,0,0,0,5.16,3,1.17,1.17,0,0,1,.57.28,1.79,1.79,0,0,1,.55,1.28A1.71,1.71,0,0,1,20,20Z" fill="#fff"/>
  </g>
</svg>
