<svg id="picture_gallery" data-name="picture gallery" xmlns="http://www.w3.org/2000/svg" width="24" height="24" viewBox="0 0 24 24">
  <g id="Layer_3" data-name="Layer 3">
    <rect id="Rectangle_24592" data-name="Rectangle 24592" width="24" height="24" fill="#fff" opacity="0"/>
  </g>
  <g id="icon">
    <path id="Path_99983" data-name="Path 99983" d="M16.68,4.76H4.44A2.44,2.44,0,0,0,2,7.2V19.44A2.43,2.43,0,0,0,3.58,21.7l.08.05h.1a2.24,2.24,0,0,0,.67.11H16.68a2.44,2.44,0,0,0,2.44-2.44V7.2a2.45,2.45,0,0,0-2.44-2.44ZM3.5,7.2a.94.94,0,0,1,.94-.94H16.68a.94.94,0,0,1,.94.94v4.52h-.69a4.19,4.19,0,0,0-.47,0h0a6.11,6.11,0,0,0-1.09.26h0l-.57.23h0a7,7,0,0,0-1.2.71l-.1.08c-.18.14-.37.29-.55.45l-.06.05c-.19.18-.39.38-.59.6l-.12.14-.46.57-.15.2c-.19.26-.38.54-.56.84a10.18,10.18,0,0,1-1.54,2c-.27.26-.55.51-.83.74h0c-.3.23-.61.44-.9.63a8.24,8.24,0,0,1-2.14.92,4,4,0,0,1-1.22.13H4.11a1,1,0,0,1-.61-.87ZM16.68,20.38h-8c.24-.16.47-.32.7-.5l.09-.07c.33-.27.65-.55,1-.86A12.11,12.11,0,0,0,12.2,16.7c.15-.25.3-.47.45-.68l.14-.19.33-.41.15-.18.35-.36.11-.12c.15-.14.3-.26.44-.38l.17-.12.28-.2.2-.12.23-.13.21-.12.19-.08.44-.17H16l.26-.07h.09a4.42,4.42,0,0,1,1-.11h.26v6.22a.94.94,0,0,1-.93.9Z" fill="#fff"/>
    <path id="Path_99984" data-name="Path 99984" d="M8.87,13.44a1.8,1.8,0,1,0-1.283-.527,1.81,1.81,0,0,0,1.283.527Zm0-2.11a.29.29,0,0,1,.3.3.3.3,0,0,1-.3.31.31.31,0,0,1-.31-.31.3.3,0,0,1,.31-.3Z" fill="#fff"/>
    <path id="Path_99985" data-name="Path 99985" d="M18.05,2.12H8.51a.75.75,0,0,0,0,1.5h9.54A2.45,2.45,0,0,1,20.5,6.07v9.54a.75.75,0,0,0,1.5,0V6.07a4,4,0,0,0-3.95-3.95Z" fill="#fff"/>
  </g>
</svg>
