<svg id="picture" xmlns="http://www.w3.org/2000/svg" width="24" height="24" viewBox="0 0 24 24">
  <g id="Layer_3" data-name="Layer 3">
    <rect id="Rectangle_24593" data-name="Rectangle 24593" width="24" height="24" fill="#fff" opacity="0"/>
  </g>
  <g id="icon">
    <path id="Path_99986" data-name="Path 99986" d="M19.25,2H4.75A2.75,2.75,0,0,0,2,4.75v14.5A2.72,2.72,0,0,0,3.8,21.8a.18.18,0,0,0,.07.05H4a2.88,2.88,0,0,0,.77.12h14.5A2.75,2.75,0,0,0,22,19.25V4.75A2.75,2.75,0,0,0,19.25,2ZM3.5,4.75A1.25,1.25,0,0,1,4.75,3.5h14.5A1.25,1.25,0,0,1,20.5,4.75v5.5H19l-.53.1-.22.06-.39.11-.23.08c-.16.06-.33.12-.5.2l-.14.06a6,6,0,0,0-.61.32l-.23.14-.46.3-.22.17a7.279,7.279,0,0,0-.62.51l-.06.05c-.22.2-.44.43-.66.67-.07.08-.13.16-.2.23s-.33.4-.49.61l-.2.26a11.54,11.54,0,0,0-.65,1,12.47,12.47,0,0,1-1.85,2.34c-.33.32-.66.61-1,.89H9.69q-.56.42-1.08.75c-.21.13-.42.25-.64.36h0A8.66,8.66,0,0,1,6,20.27a4.92,4.92,0,0,1-1.5.16H4.32a1.24,1.24,0,0,1-.83-1.16ZM19.25,20.5h-10l.1-.06h0c.16-.1.33-.22.49-.34a7.23,7.23,0,0,0,.64-.44l.1-.07c.39-.32.77-.65,1.15-1a13.69,13.69,0,0,0,2.08-2.63c.18-.3.37-.57.55-.83l.18-.23c.12-.17.25-.34.38-.49l.2-.23.39-.41a1.37,1.37,0,0,0,.17-.17c.19-.17.37-.33.55-.47l.08-.06.48-.33.18-.12.36-.2.19-.09.36-.16.16-.06.48-.16h.11l.35-.08h1.48v7.5A1.25,1.25,0,0,1,19.25,20.5Z" fill="#fff"/>
    <path id="Path_99987" data-name="Path 99987" d="M10,12a2,2,0,1,0-2-2A2,2,0,0,0,10,12Zm0-2.5a.5.5,0,1,1-.5.5A.5.5,0,0,1,10,9.5Z" fill="#fff"/>
  </g>
</svg>
