<svg id="pie_chart" data-name="pie chart" xmlns="http://www.w3.org/2000/svg" width="24" height="24" viewBox="0 0 24 24">
  <g id="Layer_3" data-name="Layer 3">
    <rect id="Rectangle_24594" data-name="Rectangle 24594" width="24" height="24" fill="#fff" opacity="0"/>
  </g>
  <g id="icon">
    <path id="Path_99988" data-name="Path 99988" d="M18.72,13.25h0A.74.74,0,0,0,18,14a7.27,7.27,0,0,1-7.33,6.55A7.35,7.35,0,0,1,3.5,13.36,7.26,7.26,0,0,1,10.05,6a.74.74,0,0,0,.7-.73h0a.75.75,0,0,0-.83-.74,8.75,8.75,0,1,0,9.54,9.54.75.75,0,0,0-.74-.82Z" fill="#fff"/>
    <path id="Path_99989" data-name="Path 99989" d="M12.75,2a.76.76,0,0,0-.75.75v6.5A2.75,2.75,0,0,0,14.75,12h6.5a.76.76,0,0,0,.75-.75A9.26,9.26,0,0,0,12.75,2Zm2,8.5A1.25,1.25,0,0,1,13.5,9.25V3.54a7.74,7.74,0,0,1,7,7Z" fill="#fff"/>
  </g>
</svg>
