<svg id="pin" xmlns="http://www.w3.org/2000/svg" width="24" height="24" viewBox="0 0 24 24">
  <g id="Layer_3" data-name="Layer 3">
    <rect id="Rectangle_24595" data-name="Rectangle 24595" width="24" height="24" fill="#fff" opacity="0"/>
  </g>
  <g id="icon">
    <path id="Path_99990" data-name="Path 99990" d="M12,22a.74.74,0,0,1-.75-.65,5.34,5.34,0,0,0-2.95-4.2A8,8,0,0,1,10,2.26a7.8,7.8,0,0,1,4,0,8,8,0,0,1,1.7,14.87,5.34,5.34,0,0,0-2.95,4.15A.78.78,0,0,1,12,22ZM12,3.5a6,6,0,0,0-1.62.21A6.51,6.51,0,0,0,9,15.8a7.1,7.1,0,0,1,3,2.93,7.1,7.1,0,0,1,3-2.93A6.51,6.51,0,0,0,13.64,3.72,5.9,5.9,0,0,0,12,3.5Z" fill="#fff"/>
    <path id="Path_99991" data-name="Path 99991" d="M12,12.1a2.75,2.75,0,1,1,2.75-2.75A2.75,2.75,0,0,1,12,12.1Zm0-4a1.25,1.25,0,1,0,1.25,1.25A1.25,1.25,0,0,0,12,8.1Z" fill="#fff"/>
  </g>
</svg>
