<svg id="pin2" xmlns="http://www.w3.org/2000/svg" width="24" height="24" viewBox="0 0 24 24">
  <g id="Layer_3" data-name="Layer 3">
    <rect id="Rectangle_24596" data-name="Rectangle 24596" width="24" height="24" fill="#fff" opacity="0"/>
  </g>
  <g id="icon">
    <path id="Path_99992" data-name="Path 99992" d="M12,12.1a2.75,2.75,0,1,1,2.75-2.75A2.75,2.75,0,0,1,12,12.1Zm0-4a1.25,1.25,0,1,0,1.25,1.25A1.25,1.25,0,0,0,12,8.1Z" fill="#fff"/>
    <path id="Path_99993" data-name="Path 99993" d="M12,22a.79.79,0,0,1-.39-.11c-.3-.18-7.47-4.58-7.47-12a7.86,7.86,0,1,1,15.72,0c0,7.45-7.17,11.85-7.47,12A.79.79,0,0,1,12,22ZM12,3.5A6.36,6.36,0,0,0,5.64,9.86c0,5.68,4.92,9.5,6.36,10.49,1.43-1,6.36-4.83,6.36-10.49A6.36,6.36,0,0,0,12,3.5Z" fill="#fff"/>
  </g>
</svg>
