<svg id="pin3" xmlns="http://www.w3.org/2000/svg" width="24" height="24" viewBox="0 0 24 24">
  <g id="Layer_3" data-name="Layer 3">
    <rect id="Rectangle_24597" data-name="Rectangle 24597" width="24" height="24" fill="#fff" opacity="0"/>
  </g>
  <g id="icon">
    <path id="Path_99994" data-name="Path 99994" d="M21,8.47,15.53,3a.74.74,0,0,0-1.06,0L12.41,5a.74.74,0,0,0,0,1.06l.15.16L10.18,8.63,10,8.47a.75.75,0,0,0-.53-.22h0A.75.75,0,0,0,9,8.47L6.21,11.22a.74.74,0,0,0,0,1.06l1.47,1.48L3.41,19.54a.76.76,0,0,0,.07,1,.79.79,0,0,0,.53.22.74.74,0,0,0,.45-.15l5.78-4.27,1.48,1.47a.75.75,0,0,0,1.06,0L15.53,15a.75.75,0,0,0,0-1.06l-.16-.16,2.39-2.38.16.15a.75.75,0,0,0,1.06,0L21,9.53a.74.74,0,0,0,0-1.06Zm-13.47,8,1.18-1.6.42.42ZM18.45,10l-.16-.16a.75.75,0,0,0-1.06,0l-3.45,3.45a.75.75,0,0,0,0,1.06l.16.16L12.25,16.2,7.8,11.75l1.69-1.69.16.16a.75.75,0,0,0,.53.22h0a.75.75,0,0,0,.53-.22l3.44-3.45a.75.75,0,0,0,0-1.06L14,5.55l1-1L19.45,9Z" fill="#fff"/>
  </g>
</svg>
