<svg id="plane" xmlns="http://www.w3.org/2000/svg" width="24" height="24" viewBox="0 0 24 24">
  <g id="Layer_3" data-name="Layer 3">
    <rect id="Rectangle_24598" data-name="Rectangle 24598" width="24" height="24" fill="#fff" opacity="0"/>
  </g>
  <g id="icon">
    <path id="Path_99995" data-name="Path 99995" d="M8,22a.74.74,0,0,1-.45-.15.77.77,0,0,1-.3-.6v-1a.75.75,0,0,1,.22-.53L9.9,17.25,9.52,15.1l-6.71.54a.78.78,0,0,1-.57-.2A.76.76,0,0,1,2,14.89a3,3,0,0,1,1.66-2.68L9.4,9.34V6a4.44,4.44,0,0,1,2.23-3.9.75.75,0,0,1,.74,0,4.7,4.7,0,0,1,.92.69A4.47,4.47,0,0,1,14.6,6V9.34l5.74,2.87A3,3,0,0,1,22,14.89a.76.76,0,0,1-.24.55.8.8,0,0,1-.57.2l-6.71-.54-.33,2.19,2.43,2.47a.75.75,0,0,1,.22.53v1a.77.77,0,0,1-.3.6.72.72,0,0,1-.65.12l-3.85-1L8.15,22A.69.69,0,0,1,8,22Zm2.2-8.45a.75.75,0,0,1,.74.64l.5,3.25a.76.76,0,0,1-.2.64l-2,2.07,2.66-.72a.68.68,0,0,1,.4,0l2.66.72-2-2.07a.76.76,0,0,1-.2-.64l.5-3.26a.76.76,0,0,1,.8-.63l6.34.51a1.51,1.51,0,0,0-.58-.51l-6.16-3.08a.74.74,0,0,1-.41-.67V6a3,3,0,0,0-.87-2.09L12,3.65A3,3,0,0,0,10.9,6V9.8a.74.74,0,0,1-.41.67L4.33,13.55a1.51,1.51,0,0,0-.58.51l6.34-.51Z" fill="#fff"/>
  </g>
</svg>
