<svg id="play" xmlns="http://www.w3.org/2000/svg" width="24" height="24" viewBox="0 0 24 24">
  <g id="Layer_3" data-name="Layer 3">
    <rect id="Rectangle_24599" data-name="Rectangle 24599" width="24" height="24" fill="#fff" opacity="0"/>
  </g>
  <g id="icon">
    <path id="Path_99996" data-name="Path 99996" d="M12,3.5A8.5,8.5,0,1,1,3.5,12,8.5,8.5,0,0,1,12,3.5M12,2A10,10,0,1,0,22,12,10,10,0,0,0,12,2Z" fill="#fff"/>
    <path id="Path_99997" data-name="Path 99997" d="M9.43,18.09a1.72,1.72,0,0,1-.82-.21,1.69,1.69,0,0,1-.86-1.47V7.59a1.69,1.69,0,0,1,.86-1.47,1.71,1.71,0,0,1,1.71,0l7.13,4.41a1.68,1.68,0,0,1,0,2.86h0L10.32,17.8a1.67,1.67,0,0,1-.89.29Zm0-10.68H9.34a.18.18,0,0,0-.09.16v8.82a.18.18,0,0,0,.09.16.19.19,0,0,0,.19,0l7.13-4.4a.19.19,0,0,0,.09-.16.18.18,0,0,0-.09-.15L9.53,7.44a.19.19,0,0,0-.1-.03Z" fill="#fff"/>
  </g>
</svg>
