<svg id="playlist" xmlns="http://www.w3.org/2000/svg" width="24" height="24" viewBox="0 0 24 24">
  <g id="Layer_3" data-name="Layer 3">
    <rect id="Rectangle_24602" data-name="Rectangle 24602" width="24" height="24" fill="#fff" opacity="0"/>
  </g>
  <g id="icon">
    <path id="Path_100005" data-name="Path 100005" d="M21.25,6.75H3.83a.75.75,0,1,1,0-1.5H21.25a.75.75,0,0,1,0,1.5Z" fill="#fff"/>
    <path id="Path_100006" data-name="Path 100006" d="M21.25,12.75H9.08a.75.75,0,0,1,0-1.5H21.25a.75.75,0,0,1,0,1.5Z" fill="#fff"/>
    <path id="Path_100007" data-name="Path 100007" d="M21.25,18.75H3.83a.75.75,0,1,1,0-1.5H21.25a.75.75,0,0,1,0,1.5Z" fill="#fff"/>
    <path id="Path_100008" data-name="Path 100008" d="M6.63,12.22,2.38,14.74A.25.25,0,0,1,2,14.53V9.47a.25.25,0,0,1,.38-.21l4.25,2.52a.26.26,0,0,1,0,.44Z" fill="#fff"/>
  </g>
</svg>
