<svg id="playnext" xmlns="http://www.w3.org/2000/svg" width="24" height="24" viewBox="0 0 24 24">
  <g id="Layer_3" data-name="Layer 3">
    <rect id="Rectangle_24603" data-name="Rectangle 24603" width="24" height="24" fill="#fff" opacity="0"/>
  </g>
  <g id="icon">
    <path id="Path_100009" data-name="Path 100009" d="M6.85,19.58A1.76,1.76,0,0,1,5.1,17.82V6.18A1.74,1.74,0,0,1,6,4.66a1.72,1.72,0,0,1,1.74,0h0L18,10.48a1.74,1.74,0,0,1,0,3L7.71,19.35a1.76,1.76,0,0,1-.86.23Zm0-13.66a.25.25,0,0,0-.13,0,.26.26,0,0,0-.12.22V17.82a.26.26,0,0,0,.12.22A.24.24,0,0,0,7,18l10.29-5.82a.25.25,0,0,0,0-.44L7,6a.24.24,0,0,0-.15-.08Z" fill="#fff"/>
    <path id="Path_100010" data-name="Path 100010" d="M18.15,20.75A.76.76,0,0,1,17.4,20V4a.75.75,0,0,1,1.5,0V20A.76.76,0,0,1,18.15,20.75Z" fill="#fff"/>
  </g>
</svg>
