<svg id="playing" xmlns="http://www.w3.org/2000/svg" width="24" height="24" viewBox="0 0 24 24">
  <g id="Layer_3" data-name="Layer 3">
    <rect id="Rectangle_24601" data-name="Rectangle 24601" width="24" height="24" fill="#fff" opacity="0"/>
  </g>
  <g id="icon">
    <path id="Path_100000" data-name="Path 100000" d="M20,13.8l-1.59.69a1.77,1.77,0,0,0-1.07,1.62V18h0a2.59,2.59,0,0,0-1.5.38A2,2,0,0,0,14.69,21a1.63,1.63,0,0,0,1.34.77h.15a2.74,2.74,0,0,0,1.35-.38,2.65,2.65,0,0,0,1.07-1.11,1.66,1.66,0,0,0,.19-.88V16.11a.28.28,0,0,1,.16-.24l.55-.24v1.12a.75.75,0,0,0,1.5,0V14.49a.77.77,0,0,0-.34-.63A.75.75,0,0,0,20,13.8Zm-3.17,6.28a1,1,0,0,1-.78.15,1,1,0,0,1,.52-.6,1.19,1.19,0,0,1,.78-.17.93.93,0,0,1-.57.62Z" fill="#fff"/>
    <path id="Path_100001" data-name="Path 100001" d="M12,2a10,10,0,0,0,0,20,.75.75,0,0,0,0-1.5A8.5,8.5,0,1,1,20.5,12,.75.75,0,0,0,22,12,10,10,0,0,0,12,2Z" fill="#fff"/>
    <path id="Path_100002" data-name="Path 100002" d="M12,8.75A3.25,3.25,0,1,0,15.25,12,3.25,3.25,0,0,0,12,8.75Zm0,5A1.75,1.75,0,1,1,13.75,12,1.75,1.75,0,0,1,12,13.75Z" fill="#fff"/>
    <path id="Path_100003" data-name="Path 100003" d="M8.29,15.71a.75.75,0,0,0-1.06,0,.74.74,0,0,0,0,1.06,6.68,6.68,0,0,0,4.77,2,.75.75,0,0,0,0-1.5,5.22,5.22,0,0,1-3.71-1.56Z" fill="#fff"/>
    <path id="Path_100004" data-name="Path 100004" d="M15.69,8.27a.77.77,0,0,0,.53.21.75.75,0,0,0,.52-1.28A6.68,6.68,0,0,0,12,5.25a.75.75,0,0,0,0,1.5,5.21,5.21,0,0,1,3.69,1.52Z" fill="#fff"/>
  </g>
</svg>
