<svg id="plugin" xmlns="http://www.w3.org/2000/svg" width="24" height="24" viewBox="0 0 24 24">
  <g id="Layer_3" data-name="Layer 3">
    <rect id="Rectangle_24604" data-name="Rectangle 24604" width="24" height="24" fill="#fff" opacity="0"/>
  </g>
  <g id="icon">
    <path id="Path_100011" data-name="Path 100011" d="M16.48,22H11.33a.76.76,0,0,1-.75-.75v-1a.72.72,0,0,1,.2-.5A1.534,1.534,0,0,0,8.7,17.52a1.55,1.55,0,0,0-.62,1.23,1.49,1.49,0,0,0,.37,1,.72.72,0,0,1,.2.5v1A.76.76,0,0,1,7.9,22H2.75A.76.76,0,0,1,2,21.25V14.68a.75.75,0,0,1,.75-.75h1a.78.78,0,0,1,.51.19,1.52,1.52,0,0,0,2.49-.81,1.55,1.55,0,0,0,0-.7,1.48,1.48,0,0,0-.48-.8,1.53,1.53,0,0,0-2,0,.78.78,0,0,1-.51.19h-1A.75.75,0,0,1,2,11.24V7.52a.76.76,0,0,1,.75-.75H7.13A3.033,3.033,0,0,1,8.72,2.13,3,3,0,0,1,12.65,5a2.92,2.92,0,0,1-.55,1.73h4.38a.76.76,0,0,1,.75.75v5.81A2.94,2.94,0,0,1,19,12.78a3,3,0,0,1,2.91,3.93h0a3.033,3.033,0,0,1-4.64,1.59v2.95a.76.76,0,0,1-.79.75ZM12.1,20.5h3.63v-3a.75.75,0,0,1,.75-.75h1A.74.74,0,0,1,18,17a1.53,1.53,0,0,0,1.32.34,1.51,1.51,0,0,0,1.14-1h0a1.51,1.51,0,0,0-.24-1.38A1.56,1.56,0,0,0,18,14.65a.74.74,0,0,1-.51.2h-1a.75.75,0,0,1-.75-.75V8.27h-4.4a.75.75,0,0,1-.75-.75v-1a.74.74,0,0,1,.2-.51,1.46,1.46,0,0,0,.37-1A1.547,1.547,0,1,0,8.45,6a.74.74,0,0,1,.2.51v1a.75.75,0,0,1-.75.75H3.5v2.2a3.11,3.11,0,0,1,3.74.21,3,3,0,0,1,0,4.56,3.11,3.11,0,0,1-3.74.21V20.5H7.13a3.036,3.036,0,1,1,4.97,0Z" fill="#fff"/>
  </g>
</svg>
