<svg id="price_tag" data-name="price tag" xmlns="http://www.w3.org/2000/svg" width="24" height="24" viewBox="0 0 24 24">
  <g id="Layer_3" data-name="Layer 3">
    <rect id="Rectangle_24605" data-name="Rectangle 24605" width="24" height="24" fill="#fff" opacity="0"/>
  </g>
  <g id="icon">
    <path id="Path_100012" data-name="Path 100012" d="M20.2,5.14l-4-2.44a2.75,2.75,0,0,0-1.92-.37,2.81,2.81,0,0,0-2-.23L7.76,3.35A2.78,2.78,0,0,0,5.82,5.28L2.58,16.48A2.83,2.83,0,0,0,4.5,20l4.32,1.2a2.81,2.81,0,0,0,1.94.8h8a2.81,2.81,0,0,0,2.8-2.8V7.53A2.81,2.81,0,0,0,20.2,5.14ZM4.92,18.52A1.32,1.32,0,0,1,4,16.9L7.26,5.7a1.29,1.29,0,0,1,.9-.91L11.23,4,9.29,5.14A2.77,2.77,0,0,0,8,7.53V19.2a1.21,1.21,0,0,0,0,.19ZM20,19.2a1.3,1.3,0,0,1-1.3,1.3h-8a1.31,1.31,0,0,1-1-.46,1.28,1.28,0,0,1-.31-.84V7.53a1.29,1.29,0,0,1,.62-1.11L14,4a1.61,1.61,0,0,1,.34-.15,1.18,1.18,0,0,1,.37-.05,1.27,1.27,0,0,1,.68.19l4,2.45A1.3,1.3,0,0,1,20,7.53Z" fill="#fff"/>
    <path id="Path_100013" data-name="Path 100013" d="M14.74,5.82a2,2,0,1,0,2,2A2,2,0,0,0,14.74,5.82Zm0,2.44a.47.47,0,1,1,.47-.47A.47.47,0,0,1,14.74,8.26Z" fill="#fff"/>
  </g>
</svg>
