<svg id="print" xmlns="http://www.w3.org/2000/svg" width="24" height="24" viewBox="0 0 24 24">
  <g id="Layer_3" data-name="Layer 3">
    <rect id="Rectangle_24606" data-name="Rectangle 24606" width="24" height="24" fill="#fff" opacity="0"/>
  </g>
  <g id="icon">
    <path id="Path_100014" data-name="Path 100014" d="M20.25,6.83h-2.5V3.37A1.75,1.75,0,0,0,16,1.62H8A1.75,1.75,0,0,0,6.25,3.37V6.83H3.75A1.75,1.75,0,0,0,2,8.58v7.6a1.75,1.75,0,0,0,1.75,1.75H6a1.9,1.9,0,0,0,.25,0v2.73A1.75,1.75,0,0,0,8,22.38h8a1.75,1.75,0,0,0,1.75-1.75V17.9a1.9,1.9,0,0,0,.25,0h2.25A1.75,1.75,0,0,0,22,16.18V8.58a1.75,1.75,0,0,0-1.75-1.75ZM7.75,3.37A.25.25,0,0,1,8,3.12h8a.25.25,0,0,1,.25.25V6.83H7.75Zm8.5,17.26a.25.25,0,0,1-.25.25H8a.25.25,0,0,1-.25-.25V15.41A.25.25,0,0,1,8,15.16h8a.25.25,0,0,1,.25.25v5.22Zm4.25-4.45a.25.25,0,0,1-.25.25H18a.25.25,0,0,1-.25-.25v-.77h0A1.74,1.74,0,0,0,16,13.66H8A1.74,1.74,0,0,0,6.25,15.4h0v.77a.25.25,0,0,1-.25.25H3.75a.25.25,0,0,1-.25-.25V8.58a.25.25,0,0,1,.25-.25h16.5a.25.25,0,0,1,.25.25Z" fill="#fff"/>
    <rect id="Rectangle_24607" data-name="Rectangle 24607" width="3" height="1.5" rx="0.75" transform="translate(6.3 10.29)" fill="#fff"/>
  </g>
</svg>
