<svg id="promote" xmlns="http://www.w3.org/2000/svg" width="24" height="24" viewBox="0 0 24 24">
  <g id="Layer_3" data-name="Layer 3">
    <rect id="Rectangle_24608" data-name="Rectangle 24608" width="24" height="24" fill="#fff" opacity="0"/>
  </g>
  <g id="icon">
    <path id="Path_100015" data-name="Path 100015" d="M19.44,15.72a.74.74,0,0,1-.53-.22.75.75,0,0,1,0-1.06,5.42,5.42,0,0,0,0-7.66A.76.76,0,1,1,20,5.72a6.92,6.92,0,0,1,0,9.78.71.71,0,0,1-.56.22Z" fill="#fff"/>
    <path id="Path_100016" data-name="Path 100016" d="M17.55,13.84a.79.79,0,0,1-.53-.22.75.75,0,0,1,0-1.06,2.76,2.76,0,0,0,0-3.89.75.75,0,0,1,1.06-1.06,4.26,4.26,0,0,1,0,6,.79.79,0,0,1-.53.23Z" fill="#fff"/>
    <path id="Path_100017" data-name="Path 100017" d="M8.38,17.57a1,1,0,0,1-1,1.19H6a1,1,0,0,1-.93-.63l-1.3-3.24H5.41l1,2.37h.43l-.48-2.37H7.84Z" fill="#fff"/>
    <path id="Path_100018" data-name="Path 100018" d="M15.53,9.32V6a.75.75,0,0,0-1-.72L8.2,7.09H2.75A.75.75,0,0,0,2,7.84v5.55a.76.76,0,0,0,.75.75H8.2l1.3.37L14.57,16h.21a.74.74,0,0,0,.45-.15.75.75,0,0,0,.3-.6V11.9a1.39,1.39,0,0,0,0-2.58ZM14,14.24l-4-1.15-1.47-.42H3.5V8.59H8.51L14,7Z" fill="#fff"/>
  </g>
</svg>
