<svg id="radio" xmlns="http://www.w3.org/2000/svg" width="24" height="24" viewBox="0 0 24 24">
  <g id="Layer_3" data-name="Layer 3">
    <rect id="Rectangle_24610" data-name="Rectangle 24610" width="24" height="24" fill="#fff" opacity="0"/>
  </g>
  <g id="icon">
    <path id="Path_100021" data-name="Path 100021" d="M18.54,19.25A.74.74,0,0,1,18,19a.75.75,0,0,1,0-1A8.4,8.4,0,0,0,18,6a.75.75,0,1,1,1.07-1,9.9,9.9,0,0,1,0,14.06A.74.74,0,0,1,18.54,19.25Z" fill="#fff"/>
    <path id="Path_100022" data-name="Path 100022" d="M5.46,19.25A.74.74,0,0,1,4.93,19a9.9,9.9,0,0,1,0-14A.75.75,0,0,1,6,6,8.4,8.4,0,0,0,6,18a.75.75,0,0,1,0,1A.74.74,0,0,1,5.46,19.25Z" fill="#fff"/>
    <path id="Path_100023" data-name="Path 100023" d="M8.29,16.44a.74.74,0,0,1-.53-.22,5.94,5.94,0,0,1,0-8.44A.75.75,0,0,1,8.82,8.84a4.44,4.44,0,0,0,0,6.32.75.75,0,0,1,0,1.06A.74.74,0,0,1,8.29,16.44Z" fill="#fff"/>
    <path id="Path_100024" data-name="Path 100024" d="M15.71,16.44a.74.74,0,0,1-.53-.22.75.75,0,0,1,0-1.06,4.44,4.44,0,0,0,0-6.32.75.75,0,0,1,1.06-1.06,5.94,5.94,0,0,1,0,8.44.74.74,0,0,1-.53.22Z" fill="#fff"/>
    <path id="Path_100025" data-name="Path 100025" d="M12,14a2,2,0,1,1,2-2A2,2,0,0,1,12,14Zm0-2.5a.5.5,0,1,0,.5.5A.5.5,0,0,0,12,11.5Z" fill="#fff"/>
  </g>
</svg>
