<svg id="rain" xmlns="http://www.w3.org/2000/svg" width="24" height="24" viewBox="0 0 24 24">
  <g id="Layer_3" data-name="Layer 3">
    <rect id="Rectangle_24611" data-name="Rectangle 24611" width="24" height="24" fill="#fff" opacity="0"/>
  </g>
  <g id="icon">
    <path id="Path_100026" data-name="Path 100026" d="M21.32,7.38A6.23,6.23,0,0,0,14.93,4h-.06a5.43,5.43,0,0,0-7.6,0A5.26,5.26,0,0,0,5.74,7.09,4.76,4.76,0,0,0,3.41,8.35,4.63,4.63,0,0,0,2,11.69a4.75,4.75,0,0,0,4.77,4.72H15.7A6.27,6.27,0,0,0,22,10.19,6.07,6.07,0,0,0,21.32,7.38ZM15.7,14.91H6.77A3.25,3.25,0,0,1,3.5,11.69a3.15,3.15,0,0,1,1-2.27,3.27,3.27,0,0,1,2-.93.76.76,0,0,0,.7-.77A3.79,3.79,0,0,1,8.32,5a3.94,3.94,0,0,1,2.76-1.12A3.89,3.89,0,0,1,13.82,5a3.08,3.08,0,0,1,.24.26.73.73,0,0,0,.72.27,4.94,4.94,0,0,1,.92-.09A4.78,4.78,0,0,1,20,8.07a4.46,4.46,0,0,1,.52,2.12,4.76,4.76,0,0,1-4.82,4.72Z" fill="#fff"/>
    <path id="Path_100027" data-name="Path 100027" d="M7.27,18.37a.76.76,0,0,0-1,.35L5.4,20.51a.75.75,0,0,0,.34,1,.8.8,0,0,0,.33.08.77.77,0,0,0,.68-.42l.87-1.79A.76.76,0,0,0,7.27,18.37Z" fill="#fff"/>
    <path id="Path_100028" data-name="Path 100028" d="M12.77,18.37a.76.76,0,0,0-1,.35l-.87,1.79a.75.75,0,0,0,.34,1,.8.8,0,0,0,.33.08.77.77,0,0,0,.68-.42l.87-1.79a.76.76,0,0,0-.35-1.01Z" fill="#fff"/>
    <path id="Path_100029" data-name="Path 100029" d="M18.27,18.37a.76.76,0,0,0-1,.35l-.87,1.79a.75.75,0,0,0,.34,1,.8.8,0,0,0,.33.08.77.77,0,0,0,.68-.42l.87-1.79A.76.76,0,0,0,18.27,18.37Z" fill="#fff"/>
  </g>
</svg>
