<svg xmlns="http://www.w3.org/2000/svg" width="48" height="48" viewBox="0 0 48 48">
  <g id="re_icon_language" transform="translate(-935.16 -515.4)">
    <circle id="Ellipse_2024" data-name="Ellipse 2024" cx="24" cy="24" r="24" transform="translate(935.16 515.4)" fill="rgba(128,128,128,0)"/>
    <g id="Group_83212" data-name="Group 83212">
      <g id="Group_83211" data-name="Group 83211">
        <path id="Path_88538" data-name="Path 88538" d="M965.819,528.122l-1.981,5.319H967.8Z" fill="gray"/>
      </g>
    </g>
    <g id="Group_87098" data-name="Group 87098">
      <path id="Path_91606" data-name="Path 91606" d="M954.934,545.384H950a8.5,8.5,0,0,0,2.464,5.111h0A8.506,8.506,0,0,0,954.934,545.384Z" fill="gray"/>
      <path id="Path_91607" data-name="Path 91607" d="M974.231,521.067H957.462a2.3,2.3,0,0,0-2.3,2.3V536.3H944.127a2.3,2.3,0,0,0-2.3,2.3v16.77a2.282,2.282,0,0,0,2.282,2.263H960.9a2.281,2.281,0,0,0,2.263-2.263V542.4h11.071a2.282,2.282,0,0,0,2.264-2.263V523.349A2.282,2.282,0,0,0,974.231,521.067Zm-15.789,33.747h-.02a10.3,10.3,0,0,1-5.959-1.886h-.005a10.3,10.3,0,0,1-5.959,1.886h-.02a.943.943,0,0,1,0-1.886,8.437,8.437,0,0,0,4.47-1.3,10.428,10.428,0,0,1-2.9-6.3h-1.565a.943.943,0,0,1,0-1.886h5.036v-3.452a.943.943,0,0,1,1.886,0v3.453h5.021a.943.943,0,0,1,0,1.886h-1.569a10.421,10.421,0,0,1-2.886,6.3,8.443,8.443,0,0,0,4.47,1.3h0a.943.943,0,1,1,0,1.886Zm12.4-16.053a.836.836,0,0,1-.1.037h.019a.905.905,0,0,1-1.168-.524h0l-1.113-3.018H963.2l-.655,1.776a2.27,2.27,0,0,0-1.644-.727h-.049l4.141-11.14a.925.925,0,0,1,.849-.623.9.9,0,0,1,.849.623l4.6,12.43A.887.887,0,0,1,970.839,538.761Z" fill="gray"/>
    </g>
  </g>
</svg>
