<svg xmlns="http://www.w3.org/2000/svg" width="48" height="48" viewBox="0 0 48 48">
  <g id="re_icon_autobiography" transform="translate(-7023 4713)">
    <circle id="Ellipse_2024" data-name="Ellipse 2024" cx="24" cy="24" r="24" transform="translate(7023 -4713)" fill="gray" opacity="0"/>
    <g id="Group_87096" data-name="Group 87096" transform="translate(-3 -4)">
      <path id="Path_88602" data-name="Path 88602" d="M75,331h2.344v2.344H75Zm0,0" transform="translate(6965.859 -5010.141)" fill="gray"/>
      <path id="Path_88605" data-name="Path 88605" d="M136.172,91a1.172,1.172,0,1,0,1.172,1.172A1.173,1.173,0,0,0,136.172,91Zm0,0" transform="translate(6910.547 -4788.891)" fill="gray"/>
      <path id="Path_88601" data-name="Path 88601" d="M23.437,271H0v11.719H23.437Zm-12.89,9.375H3.516v-7.031h7.031Zm9.375,0H12.89v-2.344h7.031Zm0-4.687H12.89v-2.344h7.031Zm0,0" transform="translate(7035 -4954.829)" fill="gray"/>
      <path id="Path_88603" data-name="Path 88603" d="M5.859,17.656A5.866,5.866,0,0,1,11.719,11.8a3.516,3.516,0,1,1,3.516-3.516A3.52,3.52,0,0,1,11.719,11.8a5.866,5.866,0,0,1,5.859,5.859v1.172h5.859V0H0V18.828H5.859Zm0,0" transform="translate(7035 -4705)" fill="gray"/>
      <path id="Path_88604" data-name="Path 88604" d="M105,184.516v1.172h7.031v-1.172a3.516,3.516,0,0,0-7.031,0Zm0,0" transform="translate(6938.203 -4871.859)" fill="gray"/>
      <path id="Path_88606" data-name="Path 88606" d="M330,91h4.687v18.75H330Zm0,0" transform="translate(6730.781 -4788.891)" fill="gray"/>
      <path id="Path_88607" data-name="Path 88607" d="M90,372.8h23.437V361H108.75v7.031H90Zm0,0" transform="translate(6952.031 -5037.797)" fill="gray"/>
    </g>
  </g>
</svg>
