<svg xmlns="http://www.w3.org/2000/svg" width="48" height="48" viewBox="0 0 48 48">
  <g id="re_icon_skill" transform="translate(-872 -1605)">
    <circle id="Ellipse_2024" data-name="Ellipse 2024" cx="24" cy="24" r="24" transform="translate(872 1605)" fill="gray" opacity="0"/>
    <g id="skills_1_" data-name="skills (1)" transform="translate(882 1609)">
      <g id="Group_84263" data-name="Group 84263" transform="translate(0)">
        <g id="Group_84262" data-name="Group 84262" transform="translate(0)">
          <path id="Path_89003" data-name="Path 89003" d="M251.266,103.672l-.233,1.706a.859.859,0,0,0,1.225.89l1.55-.749,1.55.749a.859.859,0,0,0,1.225-.89l-.233-1.706,1.191-1.243a.859.859,0,0,0-.468-1.44l-1.694-.305-.814-1.517a.859.859,0,0,0-1.515,0l-.814,1.517-1.694.305a.859.859,0,0,0-.468,1.44Zm1.684-1.371a.859.859,0,0,0,.6-.439l.253-.472.253.472a.86.86,0,0,0,.6.439l.527.095-.37.386a.859.859,0,0,0-.231.711l.073.53-.482-.233a.859.859,0,0,0-.748,0l-.482.233.073-.53a.86.86,0,0,0-.231-.711l-.37-.386Z" transform="translate(-236.316 -91.015)" fill="gray"/>
          <path id="Path_89004" data-name="Path 89004" d="M161.133,116.36h4a.859.859,0,1,0,0-1.719h-4a.859.859,0,1,0,0,1.719Z" transform="translate(-153.739 -105.701)" fill="gray"/>
          <path id="Path_89005" data-name="Path 89005" d="M161.133,160.441h4a.859.859,0,1,0,0-1.719h-4a.859.859,0,1,0,0,1.719Z" transform="translate(-153.739 -146.345)" fill="gray"/>
          <path id="Path_89006" data-name="Path 89006" d="M251.267,218.181l-.233,1.706a.859.859,0,0,0,1.225.89l1.55-.749,1.55.749a.859.859,0,0,0,1.225-.89l-.233-1.706,1.191-1.243a.859.859,0,0,0-.468-1.44l-1.695-.305-.814-1.517a.859.859,0,0,0-1.515,0l-.814,1.517-1.694.305a.859.859,0,0,0-.468,1.44Zm1.684-1.371a.86.86,0,0,0,.6-.44l.253-.472.253.472a.86.86,0,0,0,.6.44l.527.095-.37.386a.86.86,0,0,0-.231.711l.073.53-.482-.233a.858.858,0,0,0-.748,0l-.482.233.073-.53a.86.86,0,0,0-.231-.711l-.37-.386Z" transform="translate(-236.317 -196.594)" fill="gray"/>
          <path id="Path_89007" data-name="Path 89007" d="M161.133,230.873h4a.859.859,0,1,0,0-1.719h-4a.859.859,0,1,0,0,1.719Z" transform="translate(-153.739 -211.284)" fill="gray"/>
          <path id="Path_89008" data-name="Path 89008" d="M161.133,274.953h4a.859.859,0,1,0,0-1.719h-4a.859.859,0,1,0,0,1.719Z" transform="translate(-153.739 -251.927)" fill="gray"/>
          <path id="Path_89009" data-name="Path 89009" d="M251.265,332.694l-.233,1.706a.859.859,0,0,0,1.225.89l1.55-.749,1.55.749a.859.859,0,0,0,1.225-.89l-.233-1.706,1.191-1.243a.859.859,0,0,0-.468-1.44l-1.695-.305-.814-1.517a.859.859,0,0,0-1.515,0l-.814,1.517-1.694.305a.859.859,0,0,0-.468,1.44Zm1.684-1.371a.858.858,0,0,0,.6-.439l.253-.472.253.472a.859.859,0,0,0,.6.439l.527.095-.37.386a.859.859,0,0,0-.231.711l.072.53-.482-.233a.86.86,0,0,0-.748,0l-.482.233.073-.53a.86.86,0,0,0-.231-.711l-.37-.386Z" transform="translate(-236.315 -302.178)" fill="gray"/>
          <path id="Path_89010" data-name="Path 89010" d="M161.133,345.385h4a.859.859,0,0,0,0-1.719h-4a.859.859,0,1,0,0,1.719Z" transform="translate(-153.739 -316.866)" fill="gray"/>
          <path id="Path_89011" data-name="Path 89011" d="M161.133,389.465h4a.859.859,0,1,0,0-1.719h-4a.859.859,0,1,0,0,1.719Z" transform="translate(-153.739 -357.509)" fill="gray"/>
          <path id="Path_89012" data-name="Path 89012" d="M103.612,1.289H97.561V.859A.859.859,0,0,0,96.7,0H84.241a.859.859,0,0,0-.859.859v.43H77.33a.859.859,0,0,0-.859.859V39.067a.859.859,0,0,0,.859.859h26.281a.859.859,0,0,0,.859-.859V2.148A.859.859,0,0,0,103.612,1.289ZM85.1,1.719H95.842V4.726H85.1ZM99.315,6.445V34.77H81.627V6.445Zm3.437,31.763H78.19V3.008h5.192V4.726H80.768a.859.859,0,0,0-.859.859V35.63a.859.859,0,0,0,.859.859h19.406a.859.859,0,0,0,.859-.859V5.586a.859.859,0,0,0-.859-.859H97.561V3.008h5.192v35.2Z" transform="translate(-76.471)" fill="gray"/>
        </g>
      </g>
    </g>
  </g>
</svg>
