<svg xmlns="http://www.w3.org/2000/svg" width="48" height="48" viewBox="0 0 48 48">
  <g id="re_icon_video" transform="translate(-872 -1765)">
    <circle id="Ellipse_2024" data-name="Ellipse 2024" cx="24" cy="24" r="24" transform="translate(872 1765)" fill="gray" opacity="0"/>
    <path id="film_2_" data-name="film (2)" d="M34.945,0H1.055A1.055,1.055,0,0,0,0,1.055V29a1.055,1.055,0,0,0,1.055,1.055H34.945A1.055,1.055,0,0,0,36,29V1.055A1.055,1.055,0,0,0,34.945,0ZM13.538,18.568V11.487a1.354,1.354,0,0,1,.754-1.2,1.5,1.5,0,0,1,1.485.078l6.035,3.523a1.058,1.058,0,0,1,.089.058,1.332,1.332,0,0,1,0,2.173,1.058,1.058,0,0,1-.089.058l-6.035,3.523a1.5,1.5,0,0,1-1.485.078,1.353,1.353,0,0,1-.754-1.2ZM24.766,3.946V2.109h3.539V3.946Zm-2.109,0H19.118V2.109h3.539Zm-5.649,0H13.469V2.109h3.539Zm-5.648,0H7.821V2.109H11.36Zm0,22.163v1.836H7.821V26.109Zm2.109,0h3.539v1.836H13.469Zm5.648,0h3.539v1.836H19.118Zm5.649,0h3.539v1.836H24.766ZM33.891,3.946H30.415V2.109h3.476ZM5.712,2.109V3.946h-3.6V2.109Zm-3.6,24h3.6v1.836h-3.6Zm28.305,1.836V26.109h3.476v1.836Zm0,0" transform="translate(878 1774)" fill="gray"/>
  </g>
</svg>
