<svg xmlns="http://www.w3.org/2000/svg" width="48" height="48" viewBox="0 0 48 48">
  <g id="re_icon_condition" transform="translate(-6820 4929)">
    <circle id="Ellipse_2024" data-name="Ellipse 2024" cx="24" cy="24" r="24" transform="translate(6820 -4929)" fill="gray" opacity="0"/>
    <g id="foursquare-button" transform="translate(6826 -4923)">
      <g id="Group_84260" data-name="Group 84260" transform="translate(0 0)">
        <path id="Path_88994" data-name="Path 88994" d="M91.033,81.275a1.1,1.1,0,0,0-.841-.351,1.028,1.028,0,0,0-.818.351l-2.829,2.8a1.11,1.11,0,0,0-.327.818,1.191,1.191,0,0,0,.327.842l9.514,9.537a1.138,1.138,0,0,0,.7.328.327.327,0,0,0,.14.023,1.284,1.284,0,0,0,.865-.351L114.83,78.212a1.244,1.244,0,0,0,0-1.683l-2.8-2.805a1.186,1.186,0,0,0-1.683,0L96.924,87.165Z" transform="translate(-79.158 -67.413)" fill="gray"/>
        <path id="Path_88995" data-name="Path 88995" d="M34.621,15.466l-14.47,14.47a3.058,3.058,0,0,1-2.314.959h-.655l-.14-.094a3.481,3.481,0,0,1-1.566-.865L5.984,20.4A3.192,3.192,0,0,1,5,18.061a3.067,3.067,0,0,1,.982-2.314L8.79,12.919a3.273,3.273,0,0,1,4.652.023l4.395,4.395,9.3-9.327L20.945,1.815a4.233,4.233,0,0,0-5.984,0L1.239,15.536a4.233,4.233,0,0,0,0,5.985L14.961,35.243a4.089,4.089,0,0,0,3,1.239,4.014,4.014,0,0,0,2.981-1.239L34.667,21.521a4.233,4.233,0,0,0,0-5.985Z" transform="translate(0 -0.576)" fill="gray"/>
      </g>
    </g>
  </g>
</svg>
