<svg xmlns="http://www.w3.org/2000/svg" width="48" height="48" viewBox="0 0 48 48">
  <g id="received" transform="translate(-695 -242)">
    <rect id="Rectangle_23892" data-name="Rectangle 23892" width="48" height="48" rx="4" transform="translate(695 242)" fill="gray" opacity="0"/>
    <g id="Group_87213" data-name="Group 87213" transform="translate(237 -137)">
      <g id="email_1_" data-name="email (1)" transform="translate(464.001 386)">
        <g id="Group_82028" data-name="Group 82028" transform="translate(0 10.168)">
          <g id="Group_82027" data-name="Group 82027" transform="translate(0 0)">
            <path id="Path_87233" data-name="Path 87233" d="M36,165.723c0-.014,0-.029,0-.044s0-.02,0-.031,0-.026-.006-.039,0-.022-.007-.033-.006-.024-.009-.036-.007-.022-.011-.033-.007-.022-.012-.033-.01-.023-.015-.034l-.014-.03c-.006-.012-.013-.023-.02-.034l-.016-.026c-.008-.012-.017-.024-.025-.036l-.013-.018,0,0-.028-.032-.019-.022-.023-.022a.7.7,0,0,0-.171-.119.689.689,0,0,0-.2-.064l-.028,0-.031,0-.04,0H.7l-.05,0H.631l-.044.007-.026,0-.033.009c-.02.005-.04.012-.06.019l-.038.014h0a.7.7,0,0,0-.2.135l-.021.02-.02.022-.028.032,0,0-.013.018c-.009.012-.017.024-.025.036l-.016.026-.02.034-.014.03c-.005.011-.01.022-.015.034s-.008.022-.012.033-.008.022-.011.033-.006.024-.009.036-.005.022-.007.033,0,.026-.006.039,0,.02,0,.031,0,.029,0,.044,0,.015,0,.023v22.482c0,.007,0,.014,0,.022s0,.03,0,.045,0,.02,0,.03,0,.027.006.04,0,.021.007.032.006.024.009.036.007.022.011.033.008.022.012.033.01.022.015.034l.014.03c.006.012.013.023.02.034l.016.026c.008.012.017.024.025.036l.013.018,0,0a.724.724,0,0,0,.05.057l.016.015c.013.012.026.024.04.036l.025.019.035.025.027.017.038.021.026.013.045.019.023.009.053.015.018,0c.02,0,.041.008.062.01l.013,0a.7.7,0,0,0,.076,0H35.294a.694.694,0,0,0,.076,0l.013,0c.021,0,.041-.006.062-.01l.018,0,.053-.015.023-.009.045-.019.026-.013.038-.021.027-.017.035-.025.025-.019c.014-.011.027-.023.04-.036l.016-.015a.715.715,0,0,0,.05-.057l0,0,.013-.018c.009-.012.017-.023.025-.036l.016-.026c.007-.011.013-.023.02-.034l.014-.03c.005-.011.01-.022.015-.034s.008-.022.012-.033.008-.022.011-.033.006-.024.009-.035.005-.022.007-.033,0-.026.006-.039,0-.02,0-.031,0-.029,0-.044,0-.015,0-.023V165.746C36,165.738,36,165.731,36,165.723Zm-2.717.743L18,178.945,2.718,166.467Zm-31.87.779,11.93,9.742-11.93,9.742Zm1.306,20.262,11.754-9.6,3.088,2.521a.695.695,0,0,0,.882,0l3.087-2.521,11.754,9.6Zm31.871-.779-11.93-9.742,11.93-9.742Z" transform="translate(0 -165.026)" fill="gray"/>
          </g>
        </g>
        <g id="Group_82030" data-name="Group 82030" transform="translate(10.402 0)">
          <g id="Group_82029" data-name="Group 82029" transform="translate(0 0)">
            <path id="Path_87234" data-name="Path 87234" d="M164.568,16.9l-3.054-3.055a.9.9,0,0,0-1.273,0L157.187,16.9a.9.9,0,0,0,1.273,1.273l1.518-1.518v6.462a.9.9,0,1,0,1.8,0V16.656l1.518,1.518a.9.9,0,1,0,1.273-1.273Z" transform="translate(-156.923 -13.584)" fill="gray"/>
          </g>
        </g>
        <g id="Group_82032" data-name="Group 82032" transform="translate(17.689 0)">
          <g id="Group_82031" data-name="Group 82031" transform="translate(0 0)">
            <path id="Path_87235" data-name="Path 87235" d="M274.5,19.426a.9.9,0,0,0-1.273,0l-1.518,1.518V14.482a.9.9,0,0,0-1.8,0v6.462l-1.518-1.518a.9.9,0,0,0-1.273,1.273l3.055,3.055a.9.9,0,0,0,1.273,0L274.5,20.7A.9.9,0,0,0,274.5,19.426Z" transform="translate(-266.852 -13.582)" fill="gray"/>
          </g>
        </g>
        <g id="Group_82034" data-name="Group 82034" transform="translate(19.615 29.368)">
          <g id="Group_82033" data-name="Group 82033">
            <path id="Path_87236" data-name="Path 87236" d="M298.684,445.74h-5a.9.9,0,0,0,0,1.8h5A.9.9,0,0,0,298.684,445.74Z" transform="translate(-292.818 -445.74)" fill="gray"/>
          </g>
        </g>
        <g id="Group_82036" data-name="Group 82036" transform="translate(26.641 29.368)">
          <g id="Group_82035" data-name="Group 82035">
            <path id="Path_87237" data-name="Path 87237" d="M383.91,445.74a.9.9,0,0,0,0,1.8A.9.9,0,0,0,383.91,445.74Z" transform="translate(-383.04 -445.74)" fill="gray"/>
          </g>
        </g>
      </g>
    </g>
  </g>
</svg>
