<svg id="remove" xmlns="http://www.w3.org/2000/svg" width="24" height="24" viewBox="0 0 24 24">
  <g id="Layer_3" data-name="Layer 3">
    <rect id="Rectangle_24613" data-name="Rectangle 24613" width="24" height="24" fill="#fff" opacity="0"/>
  </g>
  <g id="icon">
    <path id="Path_100035" data-name="Path 100035" d="M19.21,5h-12A2.75,2.75,0,0,0,4.87,6.36l-2.42,4a3.21,3.21,0,0,0,0,3.28l2.42,4A2.75,2.75,0,0,0,7.21,19h12A2.91,2.91,0,0,0,22,16V8a2.91,2.91,0,0,0-2.79-3ZM20.5,16a1.41,1.41,0,0,1-1.29,1.5h-12a1.24,1.24,0,0,1-1-.64l-2.43-4a1.71,1.71,0,0,1,0-1.72l2.43-4a1.24,1.24,0,0,1,1-.64h12A1.41,1.41,0,0,1,20.5,8Z" fill="#fff"/>
    <path id="Path_100036" data-name="Path 100036" d="M17.26,9.47a.75.75,0,0,0-1.06,0l-1.47,1.47L13.26,9.47a.75.75,0,0,0-1.06,1.06L13.67,12,12.2,13.47a.75.75,0,0,0,0,1.06.74.74,0,0,0,.53.22.73.73,0,0,0,.53-.22l1.47-1.47,1.47,1.47a.74.74,0,0,0,.53.22.73.73,0,0,0,.53-.22.74.74,0,0,0,0-1.06L15.79,12l1.47-1.47a.74.74,0,0,0,0-1.06Z" fill="#fff"/>
  </g>
</svg>
