<svg id="repeat" xmlns="http://www.w3.org/2000/svg" width="24" height="24" viewBox="0 0 24 24">
  <g id="Layer_3" data-name="Layer 3">
    <rect id="Rectangle_24614" data-name="Rectangle 24614" width="24" height="24" fill="#fff" opacity="0"/>
  </g>
  <g id="icon">
    <path id="Path_100037" data-name="Path 100037" d="M22,11.82,19.7,9.49a.75.75,0,0,0-.7-.41h0a.72.72,0,0,0-.56.22l-2.53,2.52a.75.75,0,0,0,0,1.06.77.77,0,0,0,1.07,0l1.3-1.3v.86A4.28,4.28,0,0,1,14,16.72H4.4a.75.75,0,1,0,0,1.5H14a5.78,5.78,0,0,0,5.78-5.78V11.7L21,12.88a.729.729,0,1,0,1-1.06Z" fill="#fff"/>
    <path id="Path_100038" data-name="Path 100038" d="M4.74,14.86a.67.67,0,0,0,.28.06.72.72,0,0,0,.29-.06.63.63,0,0,0,.24-.16l2.53-2.52a.75.75,0,0,0,0-1.06.77.77,0,0,0-1.07,0L5.77,12.36v-.8a4.28,4.28,0,0,1,4.28-4.28h9.61a.75.75,0,1,0,0-1.5H10.05a5.78,5.78,0,0,0-5.78,5.78v.8L3,11.12a.75.75,0,1,0-1,1.06L4.49,14.7a.6.6,0,0,0,.25.16Z" fill="#fff"/>
  </g>
</svg>
