<svg id="report_spam" data-name="report spam" xmlns="http://www.w3.org/2000/svg" width="24" height="24" viewBox="0 0 24 24">
  <g id="Layer_3" data-name="Layer 3">
    <rect id="Rectangle_24615" data-name="Rectangle 24615" width="24" height="24" fill="#fff" opacity="0"/>
  </g>
  <g id="icon">
    <path id="Path_100039" data-name="Path 100039" d="M19.25,3.38H4.75A2.75,2.75,0,0,0,2,6.12v8a2.75,2.75,0,0,0,2.75,2.75H7.94l3.53,3.53a.77.77,0,0,0,1.06,0l3.53-3.53h3.19A2.75,2.75,0,0,0,22,14.13v-8A2.75,2.75,0,0,0,19.25,3.38ZM20.5,14.13a1.25,1.25,0,0,1-1.25,1.25h-3.5a.74.74,0,0,0-.53.21L12,18.81,8.78,15.59a.74.74,0,0,0-.53-.21H4.75A1.25,1.25,0,0,1,3.5,14.13v-8A1.24,1.24,0,0,1,4.75,4.88h14.5A1.24,1.24,0,0,1,20.5,6.12Z" fill="#fff"/>
    <circle id="Ellipse_2199" data-name="Ellipse 2199" cx="0.69" cy="0.69" r="0.69" transform="translate(11.31 12.75)" fill="#fff"/>
    <path id="Path_100040" data-name="Path 100040" d="M12,6.5a.88.88,0,0,0-.88.91l.19,3.51a.69.69,0,1,0,1.38,0l.19-3.51h0A.87.87,0,0,0,12,6.5Z" fill="#fff"/>
  </g>
</svg>
