<svg id="rezise" xmlns="http://www.w3.org/2000/svg" width="24" height="24" viewBox="0 0 24 24">
  <g id="Layer_3" data-name="Layer 3">
    <rect id="Rectangle_24617" data-name="Rectangle 24617" width="24" height="24" fill="#fff" opacity="0"/>
  </g>
  <g id="icon">
    <path id="Path_100044" data-name="Path 100044" d="M19.5,20.25a.78.78,0,0,1-.22,0L10.93,17.6a.74.74,0,0,1-.52-.65.75.75,0,0,1,.4-.74l1.67-.84L8.62,11.51l-.84,1.67a.75.75,0,0,1-.73.41.77.77,0,0,1-.66-.53L3.78,4.72a.76.76,0,0,1,.94-.94l8.34,2.61a.75.75,0,0,1,.12,1.39l-1.67.84,3.86,3.86.84-1.67a.76.76,0,0,1,1.39.12l2.62,8.35a.75.75,0,0,1-.72,1Zm-6.37-3.53,5.23,1.64-1.64-5.23-.48.95a.78.78,0,0,1-.55.4.74.74,0,0,1-.65-.21L9.72,9a.76.76,0,0,1-.21-.64.74.74,0,0,1,.4-.55l.95-.49L5.64,5.64l1.63,5.22.49-.95a.74.74,0,0,1,.55-.4A.76.76,0,0,1,9,9.72L14.27,15a.74.74,0,0,1,.21.65.78.78,0,0,1-.4.55Z" fill="#fff"/>
  </g>
</svg>
