<svg id="rotation_lock" data-name="rotation lock" xmlns="http://www.w3.org/2000/svg" width="24" height="24" viewBox="0 0 24 24">
  <g id="Layer_3" data-name="Layer 3">
    <rect id="Rectangle_24619" data-name="Rectangle 24619" width="24" height="24" fill="#fff" opacity="0"/>
  </g>
  <g id="icon">
    <path id="Path_100049" data-name="Path 100049" d="M15.25,14.51v-3.6a.76.76,0,0,0-.75-.75h-.15V9.47a2.37,2.37,0,0,0-4.74,0v.69H9.5a.76.76,0,0,0-.75.75v3.6a.75.75,0,0,0,.75.75h5a.75.75,0,0,0,.75-.75Zm-4.14-5a.87.87,0,1,1,1.74,0v.69H11.11Zm2.64,4.29h-3.5V11.7h3.5Z" fill="#fff"/>
    <path id="Path_100050" data-name="Path 100050" d="M19.11,5h2a.75.75,0,0,0,0-1.5H17.18a.75.75,0,0,0-.73.63.83.83,0,0,0,0,.35V8.15a.75.75,0,0,0,1.5,0V5.93A8.49,8.49,0,0,1,12,20.5.75.75,0,1,0,12,22,10,10,0,0,0,19.11,5Z" fill="#fff"/>
    <path id="Path_100051" data-name="Path 100051" d="M7.86,16a.75.75,0,1,0-1.5,0v2.39A8.49,8.49,0,0,1,12,3.5.75.75,0,0,0,12,2,10,10,0,0,0,5,19.12H3.2a.75.75,0,0,0,0,1.5h4a.86.86,0,0,0,.23-.06l.16-.1.08-.09a.352.352,0,0,0,.1-.09.71.71,0,0,0,.09-.53Z" fill="#fff"/>
  </g>
</svg>
