<svg id="scroll" xmlns="http://www.w3.org/2000/svg" width="24" height="24" viewBox="0 0 24 24">
  <g id="Layer_3" data-name="Layer 3">
    <rect id="Rectangle_24622" data-name="Rectangle 24622" width="24" height="24" fill="#fff" opacity="0"/>
  </g>
  <g id="icon">
    <path id="Path_100061" data-name="Path 100061" d="M16,6.5a.74.74,0,0,1-.45-.15L12,3.69,8.45,6.35a.75.75,0,0,1-.9-1.2l4-3a.75.75,0,0,1,.9,0l4,3a.75.75,0,0,1,.15,1,.74.74,0,0,1-.6.35Z" fill="#fff"/>
    <path id="Path_100062" data-name="Path 100062" d="M12,22a.74.74,0,0,1-.45-.15l-4-3a.75.75,0,0,1,.9-1.2L12,20.31l3.55-2.66a.75.75,0,0,1,.9,1.2l-4,3A.74.74,0,0,1,12,22Z" fill="#fff"/>
    <path id="Path_100063" data-name="Path 100063" d="M13.22,15.75H10.78a2.54,2.54,0,0,1-2.53-2.53V10.78a2.54,2.54,0,0,1,2.53-2.53h2.44a2.54,2.54,0,0,1,2.53,2.53v2.44a2.54,2.54,0,0,1-2.53,2.53Zm-2.44-6a1,1,0,0,0-1,1v2.44a1,1,0,0,0,1,1h2.44a1,1,0,0,0,1-1V10.78a1,1,0,0,0-1-1Z" fill="#fff"/>
  </g>
</svg>
