<svg id="security2" xmlns="http://www.w3.org/2000/svg" width="24" height="24" viewBox="0 0 24 24">
  <g id="Layer_3" data-name="Layer 3">
    <rect id="Rectangle_24625" data-name="Rectangle 24625" width="24" height="24" fill="#fff" opacity="0"/>
  </g>
  <g id="icon">
    <path id="Path_100067" data-name="Path 100067" d="M9.28,9.45v1H9a.75.75,0,0,0-.75.75v4.3a.75.75,0,0,0,.75.75h6a.75.75,0,0,0,.75-.75V11.18a.75.75,0,0,0-.75-.75h-.33v-1a2.7,2.7,0,1,0-5.39,0Zm5,5.3H9.75V11.93h4.5ZM13.2,9.45v1H10.78v-1a1.2,1.2,0,1,1,2.39,0Z" fill="#fff"/>
    <path id="Path_100068" data-name="Path 100068" d="M20,5,12.23,2a.72.72,0,0,0-.54,0L4,5a.75.75,0,0,0-.48.7v6.38A10.24,10.24,0,0,0,11.85,22h.3a10.24,10.24,0,0,0,8.37-9.9V5.71A.75.75,0,0,0,20,5Zm-1,7.08a8.72,8.72,0,0,1-7,8.4,8.72,8.72,0,0,1-7-8.4V6.23l7-2.68,7,2.68Z" fill="#fff"/>
  </g>
</svg>
