<svg id="setting2" xmlns="http://www.w3.org/2000/svg" width="24" height="24" viewBox="0 0 24 24">
  <g id="Layer_3" data-name="Layer 3">
    <rect id="Rectangle_24627" data-name="Rectangle 24627" width="24" height="24" fill="#fff" opacity="0"/>
  </g>
  <g id="icon">
    <path id="Path_100071" data-name="Path 100071" d="M9.33,21.89a.82.82,0,0,1-.37-.1L5.05,19.54a.74.74,0,0,1-.32-.92l.32-.86a1.89,1.89,0,0,0-.18-1.61,1.88,1.88,0,0,0-1.33-1L2.62,15A.75.75,0,0,1,2,14.24V9.74A.75.75,0,0,1,2.63,9l.92-.15a1.86,1.86,0,0,0,1.3-1,1.9,1.9,0,0,0,.2-1.65l-.32-.86a.76.76,0,0,1,.32-.92L9,2.21a.76.76,0,0,1,1,.18l.58.71A1.87,1.87,0,0,0,12,3.75h0a1.93,1.93,0,0,0,1.54-.65l.58-.71a.74.74,0,0,1,1-.17L19,4.47a.74.74,0,0,1,.32.91L19,6.25a1.87,1.87,0,0,0,.17,1.6h0a1.89,1.89,0,0,0,1.31,1h0l.91.15a.74.74,0,0,1,.63.74v4.5a.74.74,0,0,1-.63.74l-.9.15a1.91,1.91,0,0,0-1.31,1A2,2,0,0,0,19,17.76l.33.86a.74.74,0,0,1-.33.91l-3.9,2.25a.74.74,0,0,1-1-.17l-.58-.71A1.87,1.87,0,0,0,12,20.25h0a1.9,1.9,0,0,0-1.52.65l-.59.71A.74.74,0,0,1,9.33,21.89Zm-3-3.33,2.81,1.61.2-.17A3.34,3.34,0,0,1,12,18.75h0A3.38,3.38,0,0,1,14.68,20l.18.22,2.79-1.62-.1-.25a3.6,3.6,0,0,1,2.68-4.65h.27V10.38l-.28-.05a3.41,3.41,0,0,1-2.37-1.7h0a3.39,3.39,0,0,1-.29-2.9l.1-.26-2.8-1.64-.18.22A3.37,3.37,0,0,1,12,5.25h0a3.43,3.43,0,0,1-2.69-1.2l-.17-.22L6.36,5.44l.1.26a3.39,3.39,0,0,1-.29,2.9,3.39,3.39,0,0,1-2.38,1.73l-.29.05v3.23l.28.05a3.37,3.37,0,0,1,2.37,1.69,3.47,3.47,0,0,1,.31,2.94Z" fill="#fff"/>
    <path id="Path_100072" data-name="Path 100072" d="M12,10.5A1.5,1.5,0,1,1,10.5,12,1.5,1.5,0,0,1,12,10.5M12,9a3,3,0,1,0,3,3A3,3,0,0,0,12,9Z" fill="#fff"/>
  </g>
</svg>
