<svg id="setting" xmlns="http://www.w3.org/2000/svg" width="24" height="24" viewBox="0 0 24 24">
  <g id="Layer_3" data-name="Layer 3">
    <rect id="Rectangle_24626" data-name="Rectangle 24626" width="24" height="24" fill="#fff" opacity="0"/>
  </g>
  <g id="icon">
    <path id="Path_100069" data-name="Path 100069" d="M12,10a2,2,0,1,1-2,2,2,2,0,0,1,2-2m0-1.5A3.5,3.5,0,1,0,15.5,12,3.5,3.5,0,0,0,12,8.5Z" fill="#fff"/>
    <path id="Path_100070" data-name="Path 100070" d="M13.4,22H10.61a.74.74,0,0,1-.74-.64A1.8,1.8,0,0,0,6.93,20.1a.78.78,0,0,1-1,0l-2-2a.76.76,0,0,1,0-1,1.76,1.76,0,0,0,.25-1.81,1.78,1.78,0,0,0-1.49-1.11A.75.75,0,0,1,2,13.4V10.61a.74.74,0,0,1,.68-.74,1.79,1.79,0,0,0,1.5-1.11,1.77,1.77,0,0,0-.27-1.83.78.78,0,0,1,0-1l2-2a.75.75,0,0,1,1-.06,1.81,1.81,0,0,0,3-1.2.75.75,0,0,1,.7-.67H13.4a.75.75,0,0,1,.74.67A1.81,1.81,0,0,0,17.08,3.9a.76.76,0,0,1,1,.05l2,2a.75.75,0,0,1,.05,1,1.81,1.81,0,0,0,1.21,3,.75.75,0,0,1,.68.74V13.4a.75.75,0,0,1-.68.74,1.81,1.81,0,0,0-1.21,2.94.76.76,0,0,1-.05,1l-2,2a.74.74,0,0,1-1,.08,1.81,1.81,0,0,0-1.88-.3,1.78,1.78,0,0,0-1.11,1.49A.75.75,0,0,1,13.4,22Zm-2.18-1.5h1.57a3.23,3.23,0,0,1,1.88-2.06,3.28,3.28,0,0,1,2.79.12l1.11-1.1a3.28,3.28,0,0,1-.12-2.79,3.24,3.24,0,0,1,2.05-1.88V11.22a3.3,3.3,0,0,1-1.94-4.68l-1.1-1.1A3.3,3.3,0,0,1,12.79,3.5H11.23A3.32,3.32,0,0,1,6.54,5.44l-1.1,1.1a3.23,3.23,0,0,1,.12,2.8A3.25,3.25,0,0,1,3.5,11.23v1.56a3.3,3.3,0,0,1,1.94,4.67l1.1,1.1a3.3,3.3,0,0,1,2.8-.12,3.23,3.23,0,0,1,1.88,2.06Z" fill="#fff"/>
  </g>
</svg>
