<svg id="share2" xmlns="http://www.w3.org/2000/svg" width="24" height="24" viewBox="0 0 24 24">
  <g id="Layer_3" data-name="Layer 3">
    <rect id="Rectangle_24629" data-name="Rectangle 24629" width="24" height="24" fill="#fff" opacity="0"/>
  </g>
  <g id="icon">
    <path id="Path_100074" data-name="Path 100074" d="M17.6,15.2a2.43,2.43,0,0,0-1.59.6L9.15,12,16,8.2a2.43,2.43,0,0,0,1.59.6,2.4,2.4,0,1,0-2.4-2.4,2.63,2.63,0,0,0,.05.49L8.4,10.69a2.4,2.4,0,1,0,0,2.62l6.85,3.78a2.1,2.1,0,0,0-.06.51,2.4,2.4,0,1,0,2.4-2.4Zm0-9.7a.9.9,0,1,1-.9.9A.9.9,0,0,1,17.6,5.5ZM7.1,12.56a.87.87,0,0,1-.7.34.9.9,0,0,1,0-1.8.87.87,0,0,1,.7.34.88.88,0,0,1,0,1.12ZM17.6,18.5a.9.9,0,1,1,.9-.9A.9.9,0,0,1,17.6,18.5Z" fill="#fff"/>
  </g>
</svg>
