<svg id="share___reply" data-name="share _ reply" xmlns="http://www.w3.org/2000/svg" width="24" height="24" viewBox="0 0 24 24">
  <g id="Layer_3" data-name="Layer 3">
    <rect id="Rectangle_24628" data-name="Rectangle 24628" width="24" height="24" fill="#fff" opacity="0"/>
  </g>
  <g id="icon">
    <path id="Path_100073" data-name="Path 100073" d="M2.75,19.5a.92.92,0,0,1-.28-.05A.77.77,0,0,1,2,18.67,12.2,12.2,0,0,1,13.42,7.8V5.25a.75.75,0,0,1,.44-.69.78.78,0,0,1,.81.14l7.09,6.48a.75.75,0,0,1,0,1.1l-7.09,6.49a.75.75,0,0,1-1.25-.56v-3.1A11.25,11.25,0,0,0,11.89,15a10.63,10.63,0,0,0-8.54,4.21.76.76,0,0,1-.6.29Zm9.14-6a12.335,12.335,0,0,1,2.418.24.77.77,0,0,1,.612.74v2l5.22-4.78L14.92,7V8.52a.75.75,0,0,1-.75.75,10.73,10.73,0,0,0-10.08,7,12.11,12.11,0,0,1,7.8-2.77Z" fill="#fff"/>
  </g>
</svg>
