<svg id="shop" xmlns="http://www.w3.org/2000/svg" width="24" height="24" viewBox="0 0 24 24">
  <g id="Layer_3" data-name="Layer 3">
    <rect id="Rectangle_24630" data-name="Rectangle 24630" width="24" height="24" fill="#fff" opacity="0"/>
  </g>
  <g id="icon">
    <path id="Path_100075" data-name="Path 100075" d="M22,10.8,19.42,4.35a1.72,1.72,0,0,0-1.61-1.1H6.19a1.72,1.72,0,0,0-1.61,1.1L2.05,10.8a.77.77,0,0,0,.06.66,4,4,0,0,0,2.08,1.67V19a1.72,1.72,0,0,0,1.72,1.72h4.14A.75.75,0,0,0,10.8,20V16.65h2.4V20a.75.75,0,0,0,.75.75h4.14A1.72,1.72,0,0,0,19.81,19V13.1a3.94,3.94,0,0,0,2.08-1.67A.77.77,0,0,0,22,10.8ZM18.31,19a.22.22,0,0,1-.22.22H14.7V15.9a.75.75,0,0,0-.75-.75h-3.9a.75.75,0,0,0-.75.75v3.35H5.91A.22.22,0,0,1,5.69,19V13.37h0a3.6,3.6,0,0,0,.88-.14h0a4,4,0,0,0,2.15-1.5,4,4,0,0,0,6.48,0,4,4,0,0,0,2.15,1.5h0a3.68,3.68,0,0,0,.88.14h0Zm.61-7.2h0a1.86,1.86,0,0,1-.42.05,2.47,2.47,0,0,1-2.3-1.55,1.05,1.05,0,0,0-.94-.61h0a1,1,0,0,0-1,.64,2.49,2.49,0,0,1-4.59,0,1,1,0,0,0-.94-.62h0a1.06,1.06,0,0,0-1,.64,2.27,2.27,0,0,1-.37.62h0a2.48,2.48,0,0,1-1.91.89,1.86,1.86,0,0,1-.42-.05h0A2.45,2.45,0,0,1,3.6,11L6,4.89a.23.23,0,0,1,.21-.14h11.6a.23.23,0,0,1,.21.14L20.4,11a2.49,2.49,0,0,1-1.48.83Z" fill="#fff"/>
  </g>
</svg>
