<svg id="shuffle" xmlns="http://www.w3.org/2000/svg" width="24" height="24" viewBox="0 0 24 24">
  <g id="Layer_3" data-name="Layer 3">
    <rect id="Rectangle_24631" data-name="Rectangle 24631" width="24" height="24" fill="#fff" opacity="0"/>
  </g>
  <g id="icon">
    <path id="Path_100076" data-name="Path 100076" d="M19,14a.74.74,0,0,0-1,0,.75.75,0,0,0,0,1l1.49,1.48H17.25a4.51,4.51,0,0,1-4.5-4.5,6,6,0,0,0-6-6H2A.76.76,0,0,0,2,7.5H6.75a4.51,4.51,0,0,1,4.5,4.5,6,6,0,0,0,6,6h2.19L18,19.49a.75.75,0,0,0,0,1.06.74.74,0,0,0,.53.22.73.73,0,0,0,.53-.22l2.77-2.77a.75.75,0,0,0,0-1.06Z" fill="#fff"/>
    <path id="Path_100077" data-name="Path 100077" d="M13.34,9.25A.78.78,0,0,0,13.9,9a4.47,4.47,0,0,1,3.35-1.5h2.19L18,9a.75.75,0,0,0,0,1,.74.74,0,0,0,.53.22A.73.73,0,0,0,19,10l2.77-2.76a.75.75,0,0,0,0-1.06L19,3.45a.75.75,0,0,0-1,1.06L19.44,6H17.25a6,6,0,0,0-4.47,2,.75.75,0,0,0,.06,1.06.78.78,0,0,0,.5.19Z" fill="#fff"/>
    <path id="Path_100078" data-name="Path 100078" d="M10.11,15a4.54,4.54,0,0,1-3.36,1.5H2A.75.75,0,0,0,2,18H6.75a6,6,0,0,0,4.47-2,.75.75,0,0,0-.06-1.06.73.73,0,0,0-1.05.06Z" fill="#fff"/>
  </g>
</svg>
