<svg id="sign_in" data-name="sign in" xmlns="http://www.w3.org/2000/svg" width="24" height="24" viewBox="0 0 24 24">
  <g id="Layer_3" data-name="Layer 3">
    <rect id="Rectangle_24632" data-name="Rectangle 24632" width="24" height="24" fill="#fff" opacity="0"/>
  </g>
  <g id="icon">
    <path id="Path_100079" data-name="Path 100079" d="M17.18,6.75A.75.75,0,0,0,17.93,6V4.75A2.75,2.75,0,0,0,15.19,2H4.38a2.71,2.71,0,0,0-1.1.23,2.75,2.75,0,0,0-.76.49h0a2.72,2.72,0,0,0-.89,2v14.5A2.75,2.75,0,0,0,4.38,22H15.19a2.75,2.75,0,0,0,2.74-2.75V18a.75.75,0,0,0-1.5,0v1.25a1.24,1.24,0,0,1-1.24,1.25H6.71L9,19.69A1.76,1.76,0,0,0,10.15,18V6A1.75,1.75,0,0,0,9,4.3L6.82,3.5h8.37a1.24,1.24,0,0,1,1.24,1.25V6a.76.76,0,0,0,.75.75Zm-8.7-1A.25.25,0,0,1,8.65,6V18a.26.26,0,0,1-.17.24l-5,1.79a1.22,1.22,0,0,1-.32-.82V4.75a1.23,1.23,0,0,1,.36-.87Z" fill="#fff"/>
    <path id="Path_100080" data-name="Path 100080" d="M22.37,12a.76.76,0,0,1-.75.75H16.94l1.49,1.47a.75.75,0,0,1,0,1.06.73.73,0,0,1-.53.22.74.74,0,0,1-.53-.22l-2.78-2.75a.75.75,0,0,1,0-1.06l2.78-2.75a.75.75,0,0,1,1.06,1.06l-1.49,1.47h4.68a.76.76,0,0,1,.75.75Z" fill="#fff"/>
  </g>
</svg>
