<svg id="sign_out" data-name="sign out" xmlns="http://www.w3.org/2000/svg" width="24" height="24" viewBox="0 0 24 24">
  <g id="Layer_3" data-name="Layer 3">
    <rect id="Rectangle_24633" data-name="Rectangle 24633" width="24" height="24" fill="#fff" opacity="0"/>
  </g>
  <g id="icon">
    <path id="Path_100081" data-name="Path 100081" d="M17.72,17.25A.75.75,0,0,0,17,18v1.25a1.25,1.25,0,0,1-1.25,1.25H7.25l2.27-.81A1.76,1.76,0,0,0,10.68,18V6A1.75,1.75,0,0,0,9.53,4.3L7.36,3.5h8.36A1.25,1.25,0,0,1,17,4.75V6a.75.75,0,0,0,1.5,0V4.75A2.75,2.75,0,0,0,15.72,2H4.91a2.67,2.67,0,0,0-1.31.35h0A2.76,2.76,0,0,0,2.2,4.74v14.5a2.74,2.74,0,0,0,1.2,2.3h0A2.69,2.69,0,0,0,4.91,22H15.72a2.75,2.75,0,0,0,2.75-2.75V18A.76.76,0,0,0,17.72,17.25ZM9.18,6V18a.26.26,0,0,1-.17.24L4,20.07a1.2,1.2,0,0,1-.32-.82V4.75A1.23,1.23,0,0,1,4,3.87L9,5.71A.25.25,0,0,1,9.18,6Z" fill="#fff"/>
    <path id="Path_100082" data-name="Path 100082" d="M21.78,12.29a.87.87,0,0,0,0-.58.81.81,0,0,0-.17-.24h0L18.83,8.72a.75.75,0,1,0-1.06,1.06l1.49,1.47H14.58a.75.75,0,0,0,0,1.5h4.68l-1.49,1.47a.75.75,0,0,0,0,1.06.73.73,0,0,0,.53.22.74.74,0,0,0,.53-.22l2.78-2.75h0A.81.81,0,0,0,21.78,12.29Z" fill="#fff"/>
  </g>
</svg>
