<svg id="sinc" xmlns="http://www.w3.org/2000/svg" width="24" height="24" viewBox="0 0 24 24">
  <g id="Layer_3" data-name="Layer 3">
    <rect id="Rectangle_24634" data-name="Rectangle 24634" width="24" height="24" fill="#fff" opacity="0"/>
  </g>
  <g id="icon">
    <path id="Path_100083" data-name="Path 100083" d="M18.54,5.83h1.57a.75.75,0,0,0,0-1.5H16.62A.73.73,0,0,0,15.9,5a.5.5,0,0,0,0,.13h0V8.57a.75.75,0,0,0,1.5,0V6.78A7.49,7.49,0,0,1,12,19.5.75.75,0,1,0,12,21,9,9,0,0,0,18.54,5.83Z" fill="#fff"/>
    <path id="Path_100084" data-name="Path 100084" d="M8.39,15.53a.75.75,0,0,0-1.5,0v1.94A7.42,7.42,0,0,1,4.5,12,7.5,7.5,0,0,1,12,4.5.75.75,0,0,0,12,3,9,9,0,0,0,5.54,18.27H4.15a.75.75,0,0,0,0,1.5H7.72A.65.65,0,0,0,8,19.69a.49.49,0,0,0,.15-.1l.1-.09a.7.7,0,0,0,.09-.09.74.74,0,0,0,.09-.48Z" fill="#fff"/>
  </g>
</svg>
