<svg id="size" xmlns="http://www.w3.org/2000/svg" width="24" height="24" viewBox="0 0 24 24">
  <g id="Layer_3" data-name="Layer 3">
    <rect id="Rectangle_24635" data-name="Rectangle 24635" width="24" height="24" fill="#fff" opacity="0"/>
  </g>
  <g id="icon">
    <path id="Path_100085" data-name="Path 100085" d="M21.25,22H19.5a.76.76,0,0,1-.75-.75h0a.76.76,0,0,1,.75-.75h1v-1a.76.76,0,0,1,.75-.75h0a.76.76,0,0,1,.75.75v1.75a.76.76,0,0,1-.75.75Z" fill="#fff"/>
    <path id="Path_100086" data-name="Path 100086" d="M2.75,5.25h0A.76.76,0,0,1,2,4.5V2.75A.76.76,0,0,1,2.75,2H4.5a.76.76,0,0,1,.75.75h0a.76.76,0,0,1-.75.75h-1v1a.76.76,0,0,1-.75.75Z" fill="#fff"/>
    <rect id="Rectangle_24636" data-name="Rectangle 24636" width="4.5" height="1.5" rx="0.75" transform="translate(9.75 2)" fill="#fff"/>
    <path id="Path_100087" data-name="Path 100087" d="M21.25,5.25h0a.76.76,0,0,1-.75-.75v-1h-1a.76.76,0,0,1-.75-.75h0A.76.76,0,0,1,19.5,2h1.75a.76.76,0,0,1,.75.75V4.5a.76.76,0,0,1-.75.75Z" fill="#fff"/>
    <rect id="Rectangle_24637" data-name="Rectangle 24637" width="1.5" height="4.5" rx="0.75" transform="translate(20.5 9.75)" fill="#fff"/>
    <path id="Path_100088" data-name="Path 100088" d="M13.25,8H4.75A2.74,2.74,0,0,0,2.21,9.7,2.63,2.63,0,0,0,2,10.75v8.5A2.75,2.75,0,0,0,4.75,22h8.5a2.63,2.63,0,0,0,1.05-.21A2.74,2.74,0,0,0,16,19.25v-8.5A2.75,2.75,0,0,0,13.25,8ZM14.5,19.25a1.25,1.25,0,0,1-1.25,1.25H4.75A1.25,1.25,0,0,1,3.5,19.25v-8.5A1.25,1.25,0,0,1,4.75,9.5h8.5a1.25,1.25,0,0,1,1.25,1.25Z" fill="#fff"/>
  </g>
</svg>
