<svg id="song_music" data-name="song music" xmlns="http://www.w3.org/2000/svg" width="24" height="24" viewBox="0 0 24 24">
  <g id="Layer_3" data-name="Layer 3">
    <rect id="Rectangle_24638" data-name="Rectangle 24638" width="24" height="24" fill="#fff" opacity="0"/>
  </g>
  <g id="icon">
    <path id="Path_100089" data-name="Path 100089" d="M20.43,15.32h0V3.8a1.8,1.8,0,0,0-2.51-1.65l-6.87,3a2.84,2.84,0,0,0-1.71,2.6v8.19a3.27,3.27,0,0,0-.91-.2,4.71,4.71,0,0,0-2.64.67,4.77,4.77,0,0,0-1.91,1.95,2.57,2.57,0,0,0,0,2.44A2.62,2.62,0,0,0,6.22,22a4.87,4.87,0,0,0,2.4-.68,3.92,3.92,0,0,0,2.21-3.46h0V7.75a1.35,1.35,0,0,1,.81-1.24l6.87-3a.3.3,0,0,1,.29,0,.29.29,0,0,1,.13.25v9.5a4.24,4.24,0,0,0-3.56.47c-1.88,1.08-2.73,3-1.94,4.39a2.57,2.57,0,0,0,2.13,1.19h.24a4.82,4.82,0,0,0,2.4-.69,4.8,4.8,0,0,0,1.91-1.94A3,3,0,0,0,20.43,15.32ZM7.87,20c-1.21.7-2.41.58-2.72,0a1.12,1.12,0,0,1,.08-1,3.25,3.25,0,0,1,1.31-1.32,3.42,3.42,0,0,1,1.65-.48h.14a1.16,1.16,0,0,1,.93.45C9.58,18.22,9.08,19.32,7.87,20Zm10.9-4a3.53,3.53,0,0,1-3.1,1.79,1.12,1.12,0,0,1-.93-.44c-.32-.55.18-1.64,1.39-2.34s2.41-.58,2.72,0a1.12,1.12,0,0,1-.08,1.05Z" fill="#fff"/>
  </g>
</svg>
