<svg id="speaker" xmlns="http://www.w3.org/2000/svg" width="24" height="24" viewBox="0 0 24 24">
  <g id="Layer_3" data-name="Layer 3">
    <rect id="Rectangle_24640" data-name="Rectangle 24640" width="24" height="24" fill="#fff" opacity="0"/>
  </g>
  <g id="icon">
    <path id="Path_100093" data-name="Path 100093" d="M11.05,17.75a1.39,1.39,0,0,1-.52-.11l-4.42-2H3.25A1.25,1.25,0,0,1,2,14.36V9.64A1.25,1.25,0,0,1,3.25,8.39H6.14l4.39-2a1.28,1.28,0,0,1,1.2.09,1.23,1.23,0,0,1,.57,1v9a1.23,1.23,0,0,1-.57,1.05A1.28,1.28,0,0,1,11.05,17.75Zm.11-1.48ZM3.5,14.11H6.16a1.24,1.24,0,0,1,.53.12l4.11,1.88V7.89L6.69,9.77a.43.43,0,0,1-.16.05H3.5ZM6.06,15.59Z" fill="#fff"/>
    <path id="Path_100094" data-name="Path 100094" d="M18.54,19.29a.73.73,0,0,1-.53-.22A.74.74,0,0,1,18,18,8.52,8.52,0,0,0,18,6a.74.74,0,0,1,0-1.06.75.75,0,0,1,1.06,0,10,10,0,0,1,0,14.14.74.74,0,0,1-.52.21Z" fill="#fff"/>
    <path id="Path_100095" data-name="Path 100095" d="M15.69,16.46a.74.74,0,0,1-.53-.22.75.75,0,0,1,0-1.06,4.49,4.49,0,0,0,0-6.36.75.75,0,0,1,0-1.06.74.74,0,0,1,1.06,0,6,6,0,0,1,0,8.48.71.71,0,0,1-.53.22Z" fill="#fff"/>
  </g>
</svg>
