<svg id="sport" xmlns="http://www.w3.org/2000/svg" width="24" height="24" viewBox="0 0 24 24">
  <g id="Layer_3" data-name="Layer 3">
    <rect id="Rectangle_24641" data-name="Rectangle 24641" width="24" height="24" fill="#fff" opacity="0"/>
  </g>
  <g id="icon">
    <path id="Path_100096" data-name="Path 100096" d="M22,12a10.11,10.11,0,0,0-2.82-7,10,10,0,0,0-7-3H11.04a9.23,9.23,0,0,0-1.19.2l-.43.11c-.24.07-.48.13-.71.22l-.51.2L7.6,3a5.36,5.36,0,0,0-.53.28l-.48.29A6,6,0,0,0,6.07,4l-.41.32c-.17.14-.34.28-.5.43l-.35.36c-.16.16-.31.32-.46.49S4.12,5.86,4,6a4.775,4.775,0,0,0-.36.49h0A9.83,9.83,0,0,0,2,12v.68H2a10,10,0,0,0,4.34,7.55l.06.05h0a10.32,10.32,0,0,0,1,.6h0a8.65,8.65,0,0,0,1,.42l.24.09c.28.09.57.18.86.25l.27.06A10.469,10.469,0,0,0,11,22c.33,0,.67.05,1,.05a10,10,0,0,0,6.76-2.62h0A10.07,10.07,0,0,0,22,12Zm-4.06,6.07a8.78,8.78,0,0,1-5-1.41,8.53,8.53,0,0,0-4.49-1.39,3.292,3.292,0,0,0-.15-.6c.56.05,1.13.08,1.7.08a20.59,20.59,0,0,0,10.49-2.86V12A8.54,8.54,0,0,1,17.94,18.07ZM9,20c-.27-.11-.54-.22-.8-.35H8.12a8.85,8.85,0,0,1-.84-.5H7.22a1.27,1.27,0,0,1-.47-1.41,1.22,1.22,0,0,1,.64-.77A14,14,0,0,0,9.08,20ZM3.5,12.12V12a8,8,0,0,1,.17-1.63,3.87,3.87,0,0,0,2.84,1.34c0,.1,0,.19,0,.29v.9a18,18,0,0,1-3.01-.78ZM4.9,7.33c.09-.14.19-.26.29-.4s.2-.27.31-.4.25-.28.38-.41.2-.22.31-.32l.42-.36L7,5.16l.44-.3c.13-.09.27-.17.41-.25l.45-.24.48-.21L9.05,4a13.55,13.55,0,0,0-2.41,6.18c-1.53-.15-1.86-.82-2-1.05a1.87,1.87,0,0,1,.2-1.78Zm14.66.79c.07.14.13.29.2.44s.2.47.28.71.1.34.14.5a3.88,3.88,0,0,1,.11.49,19,19,0,0,1-10.29,3,17.88,17.88,0,0,1-1.94-.11A10.47,10.47,0,0,1,8,12q0-.15,0-.3a9.12,9.12,0,0,0,5.43-2.85c1.38-1.24,2.69-2.41,4.87-2.52a8.17,8.17,0,0,1,.6.72c.08.11.15.24.22.35S19.43,7.87,19.56,8.12ZM12.13,3.51a6.77,6.77,0,0,1,1,.08,2.975,2.975,0,0,1,.52.09,5.63,5.63,0,0,1,.59.14l.53.16c.21.07.42.16.63.25l.29.13.14.06h.06c.28.15.56.31.83.49l.1.08A10.17,10.17,0,0,0,12.43,7.7a8,8,0,0,1-4.29,2.46A12.09,12.09,0,0,1,11.4,3.54a5.07,5.07,0,0,1,.55,0ZM15.2,19.86l-.39.15a7.25,7.25,0,0,1-1,.29l-.3.05a8.08,8.08,0,0,1-.86.11H12.3a8.811,8.811,0,0,1-.89,0A12.5,12.5,0,0,1,9,16.8,7.12,7.12,0,0,1,12.18,18a10,10,0,0,0,3.93,1.47l-.22.12C15.66,19.66,15.44,19.77,15.2,19.86ZM3.69,13.77a20.13,20.13,0,0,0,3.05.71,4.027,4.027,0,0,0,.2.95,2.64,2.64,0,0,0-1.61,1.78h0a8.33,8.33,0,0,1-1.64-3.44Z" fill="#fff"/>
  </g>
</svg>
