<svg id="star" xmlns="http://www.w3.org/2000/svg" width="24" height="24" viewBox="0 0 24 24">
  <g id="Layer_3" data-name="Layer 3">
    <rect id="Rectangle_24642" data-name="Rectangle 24642" width="24" height="24" fill="#fff" opacity="0"/>
  </g>
  <g id="icon">
    <path id="Path_100097" data-name="Path 100097" d="M22,9.58a.74.74,0,0,0-.6-.51l-6-.87L12.67,2.76a.78.78,0,0,0-1.34,0L8.64,8.2l-6,.87a.75.75,0,0,0-.41,1.28l4.34,4.23-1,6a.75.75,0,0,0,1.09.79L12,18.53l5.37,2.82a.72.72,0,0,0,.79-.06.76.76,0,0,0,.3-.73l-1-6,4.34-4.23a.74.74,0,0,0,.2-.75Zm-5.9,4.21a.71.71,0,0,0-.21.66l.83,4.87L12.35,17a.73.73,0,0,0-.7,0L7.28,19.3l.83-4.87a.71.71,0,0,0-.21-.66L4.36,10.34l4.89-.71a.75.75,0,0,0,.56-.41L12,4.79l2.19,4.43a.75.75,0,0,0,.56.41l4.89.71Z" fill="#fff"/>
  </g>
</svg>
