<svg id="sticker" xmlns="http://www.w3.org/2000/svg" width="24" height="24" viewBox="0 0 24 24">
  <g id="Layer_3" data-name="Layer 3">
    <rect id="Rectangle_24643" data-name="Rectangle 24643" width="24" height="24" fill="#fff" opacity="0"/>
  </g>
  <g id="icon">
    <path id="Path_100098" data-name="Path 100098" d="M19.25,1.84H4.75A2.75,2.75,0,0,0,2,4.59v14.5a2.75,2.75,0,0,0,2.75,2.75h8A9.26,9.26,0,0,0,22,12.6v-8a2.75,2.75,0,0,0-2.75-2.76ZM3.5,19.09V4.59A1.25,1.25,0,0,1,4.75,3.34h14.5A1.25,1.25,0,0,1,20.5,4.59v6.93a7,7,0,0,1-2.74,1.61,7.22,7.22,0,0,0-2.63,1.59,1.33,1.33,0,0,0,0-.2l-.32-1.87,1.35-1.32a.986.986,0,0,0-.55-1.68l-1.88-.28L12.9,7.66h0a1,1,0,0,0-1.8,0l-.83,1.69-1.88.28a.986.986,0,0,0-.55,1.68l1.35,1.32L8.87,14.5a1,1,0,0,0,1.46,1.05L12,14.69l1.68.88a.93.93,0,0,0,.46.12,1,1,0,0,0,.17,0,7,7,0,0,0-1,1.95,11.42,11.42,0,0,1-1.46,2.73H4.75A1.25,1.25,0,0,1,3.5,19.09Zm10-5.32L12,13l-1.48.77.29-1.64L9.61,11l1.65-.24L12,9.23l.74,1.5,1.65.24-1.2,1.16Zm.17,6.52a11.21,11.21,0,0,0,1.06-2.21,5.61,5.61,0,0,1,3.53-3.53,9.17,9.17,0,0,0,2.2-1.06,7.75,7.75,0,0,1-6.81,6.8Z" fill="#fff"/>
  </g>
</svg>
