<svg id="stopwatch" xmlns="http://www.w3.org/2000/svg" width="24" height="24" viewBox="0 0 24 24">
  <g id="Layer_3" data-name="Layer 3">
    <rect id="Rectangle_24644" data-name="Rectangle 24644" width="24" height="24" fill="#fff" opacity="0"/>
  </g>
  <g id="icon">
    <path id="Path_100099" data-name="Path 100099" d="M18.85,6.18l.63-.64.22.22a.77.77,0,0,0,.53.22.79.79,0,0,0,.53-.22.75.75,0,0,0,0-1.06l-1.5-1.5A.75.75,0,0,0,18.2,4.26l.22.22-.63.64a9.07,9.07,0,0,0-3-1.69V1.75A.75.75,0,0,0,14,1H10a.75.75,0,0,0-.75.75V3.43a9.018,9.018,0,1,0,9.6,2.75ZM10.75,2.5h2.5v.6a7.86,7.86,0,0,0-2.5,0ZM12,19.5A7.5,7.5,0,0,1,10.68,4.62h.07a7.16,7.16,0,0,1,2.5,0h.07A7.5,7.5,0,0,1,12,19.5Z" fill="#fff"/>
    <path id="Path_100100" data-name="Path 100100" d="M12.75,11V8.75A.76.76,0,0,0,12,8h0a.76.76,0,0,0-.75.75V11a1.2,1.2,0,0,0-.5,1,1.25,1.25,0,0,0,2.5,0,1.2,1.2,0,0,0-.5-1Z" fill="#fff"/>
  </g>
</svg>
