<svg id="sunny" xmlns="http://www.w3.org/2000/svg" width="24" height="24" viewBox="0 0 24 24">
  <g id="Layer_3" data-name="Layer 3">
    <rect id="Rectangle_24645" data-name="Rectangle 24645" width="24" height="24" fill="#fff" opacity="0"/>
  </g>
  <g id="icon">
    <path id="Path_100101" data-name="Path 100101" d="M12,7.38a4.62,4.62,0,1,0,3.273,1.35A4.62,4.62,0,0,0,12,7.38Zm0,7.74a3.12,3.12,0,1,1,2.213-.91A3.12,3.12,0,0,1,12,15.12Z" fill="#fff"/>
    <path id="Path_100102" data-name="Path 100102" d="M12,5.81a.75.75,0,0,0,.75-.75V2.75a.75.75,0,1,0-1.5,0V5.06a.75.75,0,0,0,.75.75Z" fill="#fff"/>
    <path id="Path_100103" data-name="Path 100103" d="M12,18.19a.75.75,0,0,0-.75.75v2.31a.75.75,0,0,0,1.5,0V18.94A.75.75,0,0,0,12,18.19Z" fill="#fff"/>
    <path id="Path_100104" data-name="Path 100104" d="M21.25,11.25H18.94a.75.75,0,0,0,0,1.5h2.31a.75.75,0,0,0,0-1.5Z" fill="#fff"/>
    <path id="Path_100105" data-name="Path 100105" d="M5.81,12a.75.75,0,0,0-.75-.75H2.75a.75.75,0,0,0,0,1.5H5.06A.75.75,0,0,0,5.81,12Z" fill="#fff"/>
    <path id="Path_100106" data-name="Path 100106" d="M16.91,7.84a.74.74,0,0,0,.53-.22L19.07,6a.75.75,0,1,0-1.06-1.06L16.38,6.56a.74.74,0,0,0,0,1.06.71.71,0,0,0,.53.22Z" fill="#fff"/>
    <path id="Path_100107" data-name="Path 100107" d="M6.56,16.38,4.93,18a.75.75,0,1,0,1.06,1.06l1.63-1.63a.75.75,0,0,0-1.06-1.06Z" fill="#fff"/>
    <path id="Path_100108" data-name="Path 100108" d="M6.56,7.62a.74.74,0,0,0,.53.22.71.71,0,0,0,.53-.22.74.74,0,0,0,0-1.06L6,4.93A.757.757,0,0,0,4.93,6Z" fill="#fff"/>
    <path id="Path_100109" data-name="Path 100109" d="M17.44,16.38a.75.75,0,0,0-1.06,1.06L18,19.07a.75.75,0,1,0,1.06-1.06Z" fill="#fff"/>
  </g>
</svg>
