<svg id="support" xmlns="http://www.w3.org/2000/svg" width="24" height="24" viewBox="0 0 24 24">
  <g id="Layer_3" data-name="Layer 3">
    <rect id="Rectangle_24646" data-name="Rectangle 24646" width="24" height="24" fill="#fff" opacity="0"/>
  </g>
  <g id="icon">
    <path id="Path_100110" data-name="Path 100110" d="M20.83,9.18l-3-3-3-3a4.08,4.08,0,0,0-5.64,0l-3,3-3,3a4,4,0,0,0,0,5.64l3,3,3,3a4,4,0,0,0,5.64,0l3-3,3-3A4,4,0,0,0,20.83,9.18ZM10.24,4.23a2.55,2.55,0,0,1,3.52,0l2.47,2.48-1.8,1.8-.76-.76a2.37,2.37,0,0,0-3.34,0l-.76.76-1.8-1.8Zm4.95,8.38L13.9,13.9l-1.29,1.29a.9.9,0,0,1-1.22,0L10.1,13.9,8.81,12.61a.87.87,0,0,1,0-1.22L10.1,10.1l1.29-1.29a.9.9,0,0,1,1.22,0L13.9,10.1l1.29,1.29a.87.87,0,0,1,0,1.22ZM3.5,12a2.48,2.48,0,0,1,.73-1.76L6.71,7.77l1.8,1.8-.76.76a2.37,2.37,0,0,0,0,3.34l.76.76-1.8,1.8L4.23,13.76A2.48,2.48,0,0,1,3.5,12Zm10.26,7.77a2.55,2.55,0,0,1-3.52,0L7.77,17.29l1.8-1.8.76.76a2.37,2.37,0,0,0,3.34,0l.76-.76,1.8,1.8Zm6-6-2.48,2.47-1.8-1.8.76-.76a2.37,2.37,0,0,0,0-3.34l-.76-.76,1.8-1.8,2.48,2.47a2.49,2.49,0,0,1,0,3.52Z" fill="#fff"/>
  </g>
</svg>
