<svg id="tab_window" data-name="tab window" xmlns="http://www.w3.org/2000/svg" width="24" height="24" viewBox="0 0 24 24">
  <g id="Layer_3" data-name="Layer 3">
    <rect id="Rectangle_24649" data-name="Rectangle 24649" width="24" height="24" fill="#fff" opacity="0"/>
  </g>
  <g id="icon">
    <path id="Path_100115" data-name="Path 100115" d="M19.25,3H4.75A2.75,2.75,0,0,0,2,5.75v12.5A2.75,2.75,0,0,0,4.75,21h14.5A2.75,2.75,0,0,0,22,18.25V5.75A2.75,2.75,0,0,0,19.25,3ZM4.75,4.5h14.5A1.25,1.25,0,0,1,20.5,5.75v2.5H3.5V5.75A1.25,1.25,0,0,1,4.75,4.5Zm14.5,15H4.75A1.25,1.25,0,0,1,3.5,18.25V9.75h17v8.5a1.25,1.25,0,0,1-1.25,1.25Z" fill="#fff"/>
    <circle id="Ellipse_2200" data-name="Ellipse 2200" cx="0.75" cy="0.75" r="0.75" transform="translate(5.25 5.5)" fill="#fff"/>
  </g>
</svg>
