<svg id="tab" xmlns="http://www.w3.org/2000/svg" width="24" height="24" viewBox="0 0 24 24">
  <g id="Layer_3" data-name="Layer 3">
    <rect id="Rectangle_24650" data-name="Rectangle 24650" width="24" height="24" fill="#fff" opacity="0"/>
  </g>
  <g id="icon">
    <path id="Path_100116" data-name="Path 100116" d="M2.76,15.46A.75.75,0,0,1,2,14.71V8.1A2.84,2.84,0,0,1,4.84,5.25h8.81A2.85,2.85,0,0,1,16.49,8.1v5.08H22a.75.75,0,0,1,0,1.5H15.74a.75.75,0,0,1-.75-.75V8.1a1.35,1.35,0,0,0-1.34-1.35H4.84A1.35,1.35,0,0,0,3.51,8.1v6.61a.75.75,0,0,1-.75.75Z" fill="#fff"/>
    <path id="Path_100117" data-name="Path 100117" d="M22,18.75H2a.75.75,0,0,1,0-1.5H22a.75.75,0,0,1,0,1.5Z" fill="#fff"/>
  </g>
</svg>
