<svg id="tag" xmlns="http://www.w3.org/2000/svg" width="24" height="24" viewBox="0 0 24 24">
  <g id="Layer_3" data-name="Layer 3">
    <rect id="Rectangle_24651" data-name="Rectangle 24651" width="24" height="24" fill="#fff" opacity="0"/>
  </g>
  <g id="icon">
    <path id="Path_100118" data-name="Path 100118" d="M10.66,22a2.85,2.85,0,0,1-2-.84L2.84,15.37a2.86,2.86,0,0,1,0-4l8.48-8.48A2.86,2.86,0,0,1,14,2.08l4.67,1.11A2.86,2.86,0,0,1,20.8,5.32L21.92,10a2.85,2.85,0,0,1-.76,2.69l-8.48,8.48A2.85,2.85,0,0,1,10.66,22ZM13.35,3.5a1.35,1.35,0,0,0-1,.4L3.9,12.38a1.36,1.36,0,0,0,0,1.93L9.69,20.1a1.4,1.4,0,0,0,1.93,0l8.48-8.48a1.35,1.35,0,0,0,.36-1.28L19.35,5.66a1.37,1.37,0,0,0-1-1L13.66,3.54h0a1.1,1.1,0,0,0-.31-.04Z" fill="#fff"/>
    <path id="Path_100119" data-name="Path 100119" d="M16.05,10a2,2,0,1,1,1.42-.59A2,2,0,0,1,16.05,10Zm0-2.5a.52.52,0,0,0-.35.14.5.5,0,1,0,.71.71.51.51,0,0,0,0-.71.54.54,0,0,0-.36-.19Z" fill="#fff"/>
  </g>
</svg>
