<svg id="target" xmlns="http://www.w3.org/2000/svg" width="24" height="24" viewBox="0 0 24 24">
  <g id="Layer_3" data-name="Layer 3">
    <rect id="Rectangle_24653" data-name="Rectangle 24653" width="24" height="24" fill="#fff" opacity="0"/>
  </g>
  <g id="icon">
    <path id="Path_100122" data-name="Path 100122" d="M22,11.25H20.71a8.74,8.74,0,0,0-8-8V2a.75.75,0,1,0-1.5,0V3.29a8.74,8.74,0,0,0-8,8H2a.75.75,0,0,0,0,1.5H3.29a8.74,8.74,0,0,0,8,8V22a.75.75,0,0,0,1.5,0V20.71a8.74,8.74,0,0,0,8-8H22a.75.75,0,1,0,0-1.5Zm-9.25,8V18a.75.75,0,0,0-1.5,0v1.21a7.26,7.26,0,0,1-6.46-6.46H6a.75.75,0,1,0,0-1.5H4.79a7.26,7.26,0,0,1,6.46-6.46V6a.75.75,0,0,0,1.5,0V4.79a7.26,7.26,0,0,1,6.46,6.46H18a.75.75,0,0,0,0,1.5h1.21a7.26,7.26,0,0,1-6.46,6.46Z" fill="#fff"/>
    <path id="Path_100123" data-name="Path 100123" d="M12,8.75A3.25,3.25,0,1,0,15.25,12,3.25,3.25,0,0,0,12,8.75Zm0,5A1.75,1.75,0,1,1,13.75,12,1.75,1.75,0,0,1,12,13.75Z" fill="#fff"/>
  </g>
</svg>
