<svg id="target_2" data-name="target 2" xmlns="http://www.w3.org/2000/svg" width="24" height="24" viewBox="0 0 24 24">
  <g id="Layer_3" data-name="Layer 3">
    <rect id="Rectangle_24652" data-name="Rectangle 24652" width="24" height="24" fill="#fff" opacity="0"/>
  </g>
  <g id="icon">
    <path id="Path_100120" data-name="Path 100120" d="M12,2A10,10,0,1,0,22,12,10,10,0,0,0,12,2Zm.75,18.46V18a.75.75,0,0,0-1.5,0v2.46a8.5,8.5,0,0,1-7.71-7.71H6a.75.75,0,1,0,0-1.5H3.54a8.5,8.5,0,0,1,7.71-7.71V6a.75.75,0,0,0,1.5,0V3.54a8.5,8.5,0,0,1,7.71,7.71H18a.75.75,0,0,0,0,1.5h2.46A8.5,8.5,0,0,1,12.75,20.46Z" fill="#fff"/>
    <path id="Path_100121" data-name="Path 100121" d="M12,8.75A3.25,3.25,0,1,0,15.25,12,3.25,3.25,0,0,0,12,8.75Zm0,5A1.75,1.75,0,1,1,13.75,12,1.75,1.75,0,0,1,12,13.75Z" fill="#fff"/>
  </g>
</svg>
