<svg id="task" xmlns="http://www.w3.org/2000/svg" width="24" height="24" viewBox="0 0 24 24">
  <g id="Layer_3" data-name="Layer 3">
    <rect id="Rectangle_24654" data-name="Rectangle 24654" width="24" height="24" fill="#fff" opacity="0"/>
  </g>
  <g id="icon">
    <path id="Path_100124" data-name="Path 100124" d="M14.63,11.14l-3.16,3.41L9.73,12.67a.75.75,0,0,0-1.06,1.06l2.29,2.47a.77.77,0,0,0,.55.24.76.76,0,0,0,.55-.24l3.71-4a.75.75,0,0,0-1.1-1Z" fill="#fff"/>
    <path id="Path_100125" data-name="Path 100125" d="M17.28,4.65h-.53V4.59A1.25,1.25,0,0,0,15.5,3.35h-.85a2.76,2.76,0,0,0-5.3,0H8.5A1.25,1.25,0,0,0,7.25,4.59v.06H6.72a3,3,0,0,0-3,3V19.68a3,3,0,0,0,3,3H17.28a3,3,0,0,0,3-3V7.62a3,3,0,0,0-3-2.97Zm-8.53.2H10a.76.76,0,0,0,.75-.75,1.25,1.25,0,0,1,2.5,0,.76.76,0,0,0,.75.75h1.25v1.5H8.75V4.85Zm10,14.83a1.47,1.47,0,0,1-1.46,1.47H6.72a1.47,1.47,0,0,1-1.46-1.47V7.62A1.47,1.47,0,0,1,6.72,6.15h.53V7.1A.76.76,0,0,0,8,7.85h8a.76.76,0,0,0,.75-.75V6.15h.53a1.47,1.47,0,0,1,1.46,1.47Z" fill="#fff"/>
  </g>
</svg>
