<svg id="thermo" xmlns="http://www.w3.org/2000/svg" width="24" height="24" viewBox="0 0 24 24">
  <g id="Layer_3" data-name="Layer 3">
    <rect id="Rectangle_24655" data-name="Rectangle 24655" width="24" height="24" fill="#fff" opacity="0"/>
  </g>
  <g id="icon">
    <path id="Path_100126" data-name="Path 100126" d="M15.76,11.91V5.75a3.75,3.75,0,1,0-7.5,0v6.14a5.75,5.75,0,0,0,2.49,10A5.81,5.81,0,0,0,12,22a5.74,5.74,0,0,0,3.77-10.09Zm-1.09,7.65a4.27,4.27,0,0,1-3.61.84A4.21,4.21,0,0,1,7.82,17a4.26,4.26,0,0,1,1.64-4.17.77.77,0,0,0,.3-.61V5.75a2.25,2.25,0,1,1,4.5,0v6.51a.74.74,0,0,0,.3.6,4.25,4.25,0,0,1,.11,6.7Z" fill="#fff"/>
    <path id="Path_100127" data-name="Path 100127" d="M12.76,14.13V7a.75.75,0,0,0-1.5,0v7.13a2.25,2.25,0,1,0,1.5,0ZM12,17a.75.75,0,1,1,.75-.75A.76.76,0,0,1,12,17Z" fill="#fff"/>
  </g>
</svg>
