<svg id="usb" xmlns="http://www.w3.org/2000/svg" width="24" height="24" viewBox="0 0 24 24">
  <g id="Layer_3" data-name="Layer 3">
    <rect id="Rectangle_24661" data-name="Rectangle 24661" width="24" height="24" fill="#fff" opacity="0"/>
  </g>
  <g id="icon">
    <path id="Path_100135" data-name="Path 100135" d="M13.5,6.75A.74.74,0,0,0,14.25,6V5.25a.75.75,0,0,0-1.5,0V6A.75.75,0,0,0,13.5,6.75Z" fill="#fff"/>
    <path id="Path_100136" data-name="Path 100136" d="M10.5,6.75A.74.74,0,0,0,11.25,6V5.25a.75.75,0,0,0-1.5,0V6A.75.75,0,0,0,10.5,6.75Z" fill="#fff"/>
    <path id="Path_100137" data-name="Path 100137" d="M18.25,6.25h-1.5V2.75A.76.76,0,0,0,16,2H8a.76.76,0,0,0-.75.75v3.5H5.75A.76.76,0,0,0,5,7v8a7,7,0,0,0,14,0V7a.76.76,0,0,0-.75-.75ZM8.75,3.5h6.5V12a3.25,3.25,0,1,1-6.5,0ZM17.5,15a5.5,5.5,0,0,1-11,0V7.75h.75V12a4.75,4.75,0,1,0,9.5,0V7.75h.75Z" fill="#fff"/>
  </g>
</svg>
