<svg id="vibrate" xmlns="http://www.w3.org/2000/svg" width="24" height="24" viewBox="0 0 24 24">
  <g id="Layer_3" data-name="Layer 3">
    <rect id="Rectangle_24663" data-name="Rectangle 24663" width="24" height="24" fill="#fff" opacity="0"/>
  </g>
  <g id="icon">
    <path id="Path_100140" data-name="Path 100140" d="M16,19.75H8A.76.76,0,0,1,7.26,19V5A.76.76,0,0,1,8,4.25h8a.76.76,0,0,1,.75.75V19a.76.76,0,0,1-.75.75Zm-7.27-1.5h6.52V5.75H8.76Z" fill="#fff"/>
    <path id="Path_100141" data-name="Path 100141" d="M4.75,16.75a.75.75,0,0,1-.6-.3l-1.5-2a.75.75,0,0,1,0-.9L3.81,12,2.65,10.45a.75.75,0,0,1,0-.9l1.5-2a.75.75,0,0,1,1-.15.74.74,0,0,1,.15,1L4.19,10l1.16,1.54a.77.77,0,0,1,0,.91L4.19,14l1.16,1.55A.75.75,0,0,1,5.2,16.6a.74.74,0,0,1-.45.15Z" fill="#fff"/>
    <path id="Path_100142" data-name="Path 100142" d="M19.25,16.75a.74.74,0,0,1-.45-.15.75.75,0,0,1-.15-1.05L19.81,14l-1.16-1.55a.77.77,0,0,1,0-.91L19.81,10,18.65,8.45a.74.74,0,0,1,.15-1,.75.75,0,0,1,1.05.15l1.5,2a.75.75,0,0,1,0,.9L20.19,12l1.16,1.55a.75.75,0,0,1,0,.9l-1.5,2a.75.75,0,0,1-.6.3Z" fill="#fff"/>
  </g>
</svg>
