<svg id="videocall" xmlns="http://www.w3.org/2000/svg" width="24" height="24" viewBox="0 0 24 24">
  <g id="Layer_3" data-name="Layer 3">
    <rect id="Rectangle_24665" data-name="Rectangle 24665" width="24" height="24" fill="#fff" opacity="0"/>
  </g>
  <g id="icon">
    <path id="Path_100145" data-name="Path 100145" d="M21.19,6.6a1.23,1.23,0,0,0-1.35.32l-2.93,3.16v-2a2.83,2.83,0,0,0-2.83-2.83H4.83A2.83,2.83,0,0,0,2,8.08v7.84a2.83,2.83,0,0,0,2.83,2.83h9.25a2.83,2.83,0,0,0,2.83-2.83v-2l2.93,3.16a1.24,1.24,0,0,0,.91.4,1.11,1.11,0,0,0,.44-.08A1.29,1.29,0,0,0,22,16.19V7.81A1.29,1.29,0,0,0,21.19,6.6Zm-5.78,9.32a1.33,1.33,0,0,1-1.33,1.33H4.83A1.34,1.34,0,0,1,3.5,15.92V8.08A1.34,1.34,0,0,1,4.83,6.75h9.25a1.33,1.33,0,0,1,1.33,1.33Zm5.09-.34L17.18,12,20.5,8.42Z" fill="#fff"/>
  </g>
</svg>
