<svg id="video" xmlns="http://www.w3.org/2000/svg" width="24" height="24" viewBox="0 0 24 24">
  <g id="Layer_3" data-name="Layer 3">
    <rect id="Rectangle_24664" data-name="Rectangle 24664" width="24" height="24" fill="#fff" opacity="0"/>
  </g>
  <g id="icon">
    <path id="Path_100143" data-name="Path 100143" d="M10.5,15.6a1.32,1.32,0,0,1-.61-.16,1.26,1.26,0,0,1-.64-1.09V9.65a1.26,1.26,0,0,1,.64-1.09,1.24,1.24,0,0,1,1.26,0L15,10.94A1.25,1.25,0,0,1,15.55,12,1.23,1.23,0,0,1,15,13.06h0l-3.81,2.35a1.26,1.26,0,0,1-.69.19Zm.25-5.5v3.8L13.82,12ZM14.17,11.79Z" fill="#fff"/>
    <path id="Path_100144" data-name="Path 100144" d="M19.25,20.75H4.75A2.75,2.75,0,0,1,2,18V6A2.75,2.75,0,0,1,4.75,3.25h14.5A2.75,2.75,0,0,1,22,6V18a2.75,2.75,0,0,1-2.75,2.75Zm-14.5-16A1.25,1.25,0,0,0,3.5,6V18a1.25,1.25,0,0,0,1.25,1.25h14.5A1.25,1.25,0,0,0,20.5,18V6a1.25,1.25,0,0,0-1.25-1.25Z" fill="#fff"/>
  </g>
</svg>
