<svg id="vpn" xmlns="http://www.w3.org/2000/svg" width="24" height="24" viewBox="0 0 24 24">
  <g id="Layer_3" data-name="Layer 3">
    <rect id="Rectangle_24666" data-name="Rectangle 24666" width="24" height="24" fill="#fff" opacity="0"/>
  </g>
  <g id="icon">
    <path id="Path_100146" data-name="Path 100146" d="M20,5,12.23,2a.72.72,0,0,0-.54,0L4,5a.75.75,0,0,0-.48.7v6.38A10.24,10.24,0,0,0,11.85,22h.3a10.24,10.24,0,0,0,8.37-9.9V5.71A.75.75,0,0,0,20,5Zm-1,7.08a8.72,8.72,0,0,1-7,8.4,8.72,8.72,0,0,1-7-8.4V6.23l7-2.68,7,2.68Z" fill="#fff"/>
    <path id="Path_100147" data-name="Path 100147" d="M9.06,9.81a2.09,2.09,0,0,0,1,4,2,2,0,0,0,1.41-1.27h1.74v.17a.75.75,0,0,0,1.5,0v-.17H15a.75.75,0,0,0,0-1.5H11.51A2.09,2.09,0,0,0,9.06,9.81Zm.52,2.61A.59.59,0,0,1,9,11.83a.58.58,0,0,1,.58-.58.59.59,0,0,1,.59.58A.6.6,0,0,1,9.58,12.42Z" fill="#fff"/>
  </g>
</svg>
