<svg id="wallet" xmlns="http://www.w3.org/2000/svg" width="24" height="24" viewBox="0 0 24 24">
  <g id="Layer_3" data-name="Layer 3">
    <rect id="Rectangle_24667" data-name="Rectangle 24667" width="24" height="24" fill="#fff" opacity="0"/>
  </g>
  <g id="icon">
    <path id="Path_100148" data-name="Path 100148" d="M20.1,6.9V5.75a2.5,2.5,0,0,0-2.5-2.5H4.5A2.5,2.5,0,0,0,2,5.75V18a2.75,2.75,0,0,0,2.75,2.75h14.5A2.75,2.75,0,0,0,22,18V9.5a2.75,2.75,0,0,0-1.9-2.6ZM4.5,4.75H17.6a1,1,0,0,1,1,1v1H4.5a1,1,0,0,1,0-2ZM20.5,18a1.25,1.25,0,0,1-1.25,1.25H4.75A1.25,1.25,0,0,1,3.5,18V8h0l.32.1L4,8.2a2.84,2.84,0,0,0,.51.05h14.8A1.26,1.26,0,0,1,20.5,9.5Z" fill="#fff"/>
    <circle id="Ellipse_2201" data-name="Ellipse 2201" cx="1.25" cy="1.25" r="1.25" transform="translate(15.31 12.5)" fill="#fff"/>
  </g>
</svg>
