<svg id="watch" xmlns="http://www.w3.org/2000/svg" width="24" height="24" viewBox="0 0 24 24">
  <g id="Layer_3" data-name="Layer 3">
    <rect id="Rectangle_24668" data-name="Rectangle 24668" width="24" height="24" fill="#fff" opacity="0"/>
  </g>
  <g id="icon">
    <path id="Path_100149" data-name="Path 100149" d="M21.25,15.78a.76.76,0,0,1-.69-.45,9.34,9.34,0,0,0-17.12,0,.752.752,0,0,1-1.38-.6,10.84,10.84,0,0,1,19.88,0,.76.76,0,0,1-.39,1A.8.8,0,0,1,21.25,15.78Z" fill="#fff"/>
    <path id="Path_100150" data-name="Path 100150" d="M12,16.75a4.76,4.76,0,0,1-4.11-2.37.75.75,0,0,1,.27-1,.76.76,0,0,1,1,.27,3.25,3.25,0,0,0,5.63,0,.75.75,0,1,1,1.29.76A4.76,4.76,0,0,1,12,16.75Z" fill="#fff"/>
  </g>
</svg>
