<svg id="web" xmlns="http://www.w3.org/2000/svg" width="24" height="24" viewBox="0 0 24 24">
  <g id="Layer_3" data-name="Layer 3">
    <rect id="Rectangle_24669" data-name="Rectangle 24669" width="24" height="24" fill="#fff" opacity="0"/>
  </g>
  <g id="icon">
    <path id="Path_100151" data-name="Path 100151" d="M12,2A10,10,0,1,0,22,12,10,10,0,0,0,12,2Zm0,18.5c-1.05,0-2.17-1.4-2.85-3.7A19.92,19.92,0,0,0,12,17a19.92,19.92,0,0,0,2.85-.2C14.17,19.1,13.05,20.5,12,20.5Zm0-5a17.71,17.71,0,0,1-3.22-.28A17.71,17.71,0,0,1,8.5,12a17.71,17.71,0,0,1,.28-3.22A17.71,17.71,0,0,1,12,8.5a17.71,17.71,0,0,1,3.22.28A17.71,17.71,0,0,1,15.5,12a17.71,17.71,0,0,1-.28,3.22A17.71,17.71,0,0,1,12,15.5Zm-4.8-.65c-2.3-.68-3.7-1.8-3.7-2.85S4.9,9.83,7.2,9.15a20.41,20.41,0,0,0,0,5.7ZM12,3.5c1.05,0,2.17,1.4,2.85,3.7a20.41,20.41,0,0,0-5.7,0C9.83,4.9,11,3.5,12,3.5Zm4.8,5.65c2.3.68,3.7,1.8,3.7,2.85s-1.4,2.17-3.7,2.85A19.92,19.92,0,0,0,17,12,19.92,19.92,0,0,0,16.8,9.15Zm3.11-.23a11.27,11.27,0,0,0-3.43-1.4,11.27,11.27,0,0,0-1.4-3.43,8.5,8.5,0,0,1,4.83,4.83Zm-11-4.83a11.27,11.27,0,0,0-1.4,3.43,11.27,11.27,0,0,0-3.43,1.4A8.5,8.5,0,0,1,8.92,4.09Zm-4.83,11a11.27,11.27,0,0,0,3.43,1.4,11.27,11.27,0,0,0,1.4,3.43,8.5,8.5,0,0,1-4.82-4.84Zm11,4.83a11.27,11.27,0,0,0,1.4-3.43,11.27,11.27,0,0,0,3.43-1.4,8.5,8.5,0,0,1-4.83,4.82Z" fill="#fff"/>
  </g>
</svg>
