<svg id="weight" xmlns="http://www.w3.org/2000/svg" width="24" height="24" viewBox="0 0 24 24">
  <g id="Layer_3" data-name="Layer 3">
    <rect id="Rectangle_24670" data-name="Rectangle 24670" width="24" height="24" fill="#fff" opacity="0"/>
  </g>
  <g id="icon">
    <path id="Path_100152" data-name="Path 100152" d="M22,19.11,17.34,5.23a.77.77,0,0,0-.72-.51H15.06V4.31a3.06,3.06,0,1,0-6.12,0v.41H7.37a.76.76,0,0,0-.71.51L2,19.11a.73.73,0,0,0,.1.67.74.74,0,0,0,.61.31h18.5a.74.74,0,0,0,.61-.31A.73.73,0,0,0,22,19.11ZM10.44,4.31a1.56,1.56,0,1,1,3.12,0v.41H10.44ZM3.79,18.59,7.92,6.22h8.16l4.13,12.37Z" fill="#fff"/>
  </g>
</svg>
