<svg id="wifi" xmlns="http://www.w3.org/2000/svg" width="24" height="24" viewBox="0 0 24 24">
  <g id="Layer_3" data-name="Layer 3">
    <rect id="Rectangle_24671" data-name="Rectangle 24671" width="24" height="24" fill="#fff" opacity="0"/>
  </g>
  <g id="icon">
    <path id="Path_100153" data-name="Path 100153" d="M19.5,9.82A.77.77,0,0,1,19,9.6a9.8,9.8,0,0,0-14,0A.75.75,0,1,1,4,8.54a11.3,11.3,0,0,1,16,0A.75.75,0,0,1,20,9.6.74.74,0,0,1,19.5,9.82Z" fill="#fff"/>
    <path id="Path_100154" data-name="Path 100154" d="M16.26,13.08a.75.75,0,0,1-.54-.22,5.24,5.24,0,0,0-7.44,0A.753.753,0,1,1,7.21,11.8a6.76,6.76,0,0,1,9.58,0,.75.75,0,0,1,0,1.06A.74.74,0,0,1,16.26,13.08Z" fill="#fff"/>
    <path id="Path_100155" data-name="Path 100155" d="M12,18.81a2.2,2.2,0,1,1,2.19-2.19A2.2,2.2,0,0,1,12,18.81Zm0-2.89a.7.7,0,1,0,.69.7.69.69,0,0,0-.69-.7Z" fill="#fff"/>
  </g>
</svg>
