<svg id="winter_cold" data-name="winter cold" xmlns="http://www.w3.org/2000/svg" width="24" height="24" viewBox="0 0 24 24">
  <g id="Layer_3" data-name="Layer 3">
    <rect id="Rectangle_24673" data-name="Rectangle 24673" width="24" height="24" fill="#fff" opacity="0"/>
  </g>
  <g id="icon">
    <path id="Path_100159" data-name="Path 100159" d="M20.38,16l-1.79-1,1.4-.37a.75.75,0,0,0,.53-.92.74.74,0,0,0-.92-.53l-2.84.76L13.46,12l3.29-1.9,2.85.76h.2A.75.75,0,0,0,20,9.41L18.59,9l1.79-1a.75.75,0,1,0-.76-1.29l-1.78,1,.38-1.41A.75.75,0,1,0,16.77,6L16,8.8l-3.26,1.88V6.86l2.09-2.09a.75.75,0,1,0-1.06-1.06l-1,1v-2a.75.75,0,1,0-1.5,0v2l-1-1A.75.75,0,0,0,9.21,4.77L11.3,6.86v3.86L7.93,8.8,7.16,5.94a.74.74,0,0,0-.91-.53.76.76,0,0,0-.54.92l.38,1.41-1.71-1A.75.75,0,1,0,3.62,8L5.34,9l-1.4.37a.75.75,0,0,0,.19,1.48.69.69,0,0,0,.2,0l2.85-.76L10.47,12,7.18,13.9l-2.85-.76a.751.751,0,0,0-.39,1.45l1.4.37L3.62,16a.75.75,0,0,0-.27,1,.73.73,0,0,0,1,.27l1.71-1-.38,1.41a.76.76,0,0,0,.54.92h.19a.74.74,0,0,0,.72-.56l.77-2.85,3.32-1.92v3.79L9.16,19.15a.75.75,0,0,0,0,1.06.74.74,0,0,0,1.06,0l1-1v2.06a.75.75,0,0,0,1.5,0V19.19l1,1a.71.71,0,0,0,.53.22.74.74,0,0,0,.53-.22.75.75,0,0,0,0-1.06l-2.09-2.08V13.32L16,15.2l.77,2.86a.75.75,0,0,0,.72.55h.2a.75.75,0,0,0,.53-.92l-.38-1.41,1.78,1A.75.75,0,1,0,20.38,16Z" fill="#fff"/>
  </g>
</svg>
