<svg id="work" xmlns="http://www.w3.org/2000/svg" width="24" height="24" viewBox="0 0 24 24">
  <g id="Layer_3" data-name="Layer 3">
    <rect id="Rectangle_24674" data-name="Rectangle 24674" width="24" height="24" fill="#fff" opacity="0"/>
  </g>
  <g id="icon">
    <path id="Path_100160" data-name="Path 100160" d="M20.25,6.5H15.67a3.74,3.74,0,0,0-7.34,0H3.75A1.76,1.76,0,0,0,2,8.25v10.5A1.76,1.76,0,0,0,3.75,20.5h16.5A1.76,1.76,0,0,0,22,18.75V8.25A1.76,1.76,0,0,0,20.25,6.5ZM9,8H20.19l-1.54,4.25a.74.74,0,0,1-.7.5H6.05a.75.75,0,0,1-.7-.5L3.82,8Zm3-3a2.25,2.25,0,0,1,2.12,1.5H9.88A2.25,2.25,0,0,1,12,5Zm8.25,14H3.75a.25.25,0,0,1-.25-.25v-7.2l.44,1.21a2.25,2.25,0,0,0,2.11,1.49H18a2.25,2.25,0,0,0,2.11-1.49l.44-1.2v7.19a.25.25,0,0,1-.3.25Z" fill="#fff"/>
  </g>
</svg>
