<svg id="write" xmlns="http://www.w3.org/2000/svg" width="24" height="24" viewBox="0 0 24 24">
  <g id="Layer_3" data-name="Layer 3">
    <rect id="Rectangle_24675" data-name="Rectangle 24675" width="24" height="24" fill="#fff" opacity="0"/>
  </g>
  <g id="icon">
    <path id="Path_100161" data-name="Path 100161" d="M4.49,17.86h.1l2.93-.38A.74.74,0,0,0,8,17.26L19.14,5.88a.76.76,0,0,0,0-1L16.57,2.22a.79.79,0,0,0-1.07,0L12.67,5.11a.49.49,0,0,0-.15.1.66.66,0,0,0-.12.17L4.33,13.6a.7.7,0,0,0-.21.43l-.37,3a.74.74,0,0,0,.21.62.71.71,0,0,0,.53.21ZM16,3.82l1.51,1.54L15.64,7.31,14.12,5.77ZM5.58,14.47l7.49-7.63,1.51,1.54L7.07,16l-1.72.23Z" fill="#fff"/>
    <path id="Path_100162" data-name="Path 100162" d="M20.73,17.79a.76.76,0,0,0-.91-.54,1.63,1.63,0,0,1-1.24-.18,3,3,0,0,0-2.21-.26,3.05,3.05,0,0,0-1.83,1.28,1.65,1.65,0,0,1-1,.76,1.61,1.61,0,0,1-1.23-.18,3,3,0,0,0-2.21-.26,3.05,3.05,0,0,0-1.83,1.28,1.58,1.58,0,0,1-1,.75A1.54,1.54,0,0,1,6,20.26,3.09,3.09,0,0,0,3.81,20a.75.75,0,0,0-.54.91.76.76,0,0,0,.92.55,1.59,1.59,0,0,1,1.22.17A3.29,3.29,0,0,0,6.84,22a3.48,3.48,0,0,0,.79-.1,3.07,3.07,0,0,0,1.82-1.29A1.64,1.64,0,0,1,11.69,20a3.12,3.12,0,0,0,4-1,1.61,1.61,0,0,1,1-.75,1.57,1.57,0,0,1,1.23.18,3.05,3.05,0,0,0,2.21.26.75.75,0,0,0,.6-.9Z" fill="#fff"/>
  </g>
</svg>
