<svg id="zoom_out" data-name="zoom out" xmlns="http://www.w3.org/2000/svg" width="24" height="24" viewBox="0 0 24 24">
  <g id="Layer_3" data-name="Layer 3">
    <rect id="Rectangle_24677" data-name="Rectangle 24677" width="24" height="24" fill="#fff" opacity="0"/>
  </g>
  <g id="icon">
    <rect id="Rectangle_24678" data-name="Rectangle 24678" width="6" height="1.5" rx="0.75" transform="translate(6.75 8.9)" fill="#fff"/>
    <path id="Path_100165" data-name="Path 100165" d="M21.24,18.52l-5.19-4.28h0A7.58,7.58,0,0,0,17.5,9.75,7.75,7.75,0,1,0,9.75,17.5a7.58,7.58,0,0,0,4.46-1.43h0l4.26,5.16a1.94,1.94,0,1,0,2.74-2.69Zm-7.83-3.73-.08.06A6,6,0,0,1,9.75,16,6.25,6.25,0,1,1,16,9.75a6.08,6.08,0,0,1-1.13,3.56l-.07.08-.15.19a2.34,2.34,0,0,1-.25.29,3.28,3.28,0,0,1-.59.59c-.07.07-.15.13-.26.22Zm6.27,5.49-2.85-3.45,3.48,2.87a.45.45,0,0,1,.19.36.44.44,0,0,1-.82.22Z" fill="#fff"/>
  </g>
</svg>
