<svg id="zoom_in" data-name="zoom in" xmlns="http://www.w3.org/2000/svg" width="24" height="24" viewBox="0 0 24 24">
  <g id="Layer_3" data-name="Layer 3">
    <rect id="Rectangle_24676" data-name="Rectangle 24676" width="24" height="24" fill="#fff" opacity="0"/>
  </g>
  <g id="icon">
    <path id="Path_100163" data-name="Path 100163" d="M9.75,6.65h0A.75.75,0,0,0,9,7.4V8.9H7.5a.75.75,0,0,0-.75.75h0a.76.76,0,0,0,.75.75H9v1.5a.76.76,0,0,0,.75.75h0a.76.76,0,0,0,.75-.75V10.4H12a.76.76,0,0,0,.75-.75h0A.75.75,0,0,0,12,8.9H10.5V7.4A.75.75,0,0,0,9.75,6.65Z" fill="#fff"/>
    <path id="Path_100164" data-name="Path 100164" d="M21.24,18.52l-5.19-4.28h0A7.58,7.58,0,0,0,17.5,9.75,7.75,7.75,0,1,0,9.75,17.5a7.58,7.58,0,0,0,4.46-1.43h0l4.26,5.16a1.94,1.94,0,1,0,2.74-2.69ZM9.75,16A6.25,6.25,0,1,1,16,9.75a6,6,0,0,1-1.12,3.53h0l-.48.6a2.66,2.66,0,0,1-.53.53l-.6.48h0A6,6,0,0,1,9.75,16Zm9.93,4.28-2.85-3.45,3.48,2.87a.45.45,0,0,1,.19.36.44.44,0,0,1-.82.22Z" fill="#fff"/>
  </g>
</svg>
