<svg xmlns="http://www.w3.org/2000/svg" width="157.209" height="39.84" viewBox="0 0 157.209 39.84">
  <g id="_1111-sec-logo" data-name="1111-sec-logo" transform="translate(22988.258 3160.25)">
    <path id="Subtraction_8" data-name="Subtraction 8" d="M157.451,38.785H74.981v-10.6h82.471v10.6Zm-31-7a2.04,2.04,0,0,0-2.019,1.863,2.082,2.082,0,0,0,.021.485,2.5,2.5,0,0,0,.536,1.616,2.179,2.179,0,0,0,1.611.724h.016a.512.512,0,0,0,.084-.007,2.326,2.326,0,0,0,1.08-.268,1.722,1.722,0,0,0,.986-1.348l-.9-.086a1.138,1.138,0,0,1-1.136,1.084h-.01a.962.962,0,0,1-.113,0c-.907,0-1.348-.559-1.348-1.709,0-1.182.444-1.709,1.44-1.709h.035a1.063,1.063,0,0,1,1.045.9l.81-.087a1.046,1.046,0,0,0-.273-.724,1.946,1.946,0,0,0-1.514-.72h-.184C126.562,31.791,126.506,31.788,126.451,31.788Zm18.141.188h0v.63l.629,0v2.514a2.1,2.1,0,0,0,.183.993c.08.246.384.356.985.356a1.243,1.243,0,0,0,.252-.037,1.775,1.775,0,0,1,.377-.051l-.09-.536h-.406a.538.538,0,0,1-.4-.183.659.659,0,0,1-.09-.447V32.607h.81v-.63h-.81V30.448l-.807.449v1.079Zm-9.8,0h0v4.491h.806V34.136a1.968,1.968,0,0,1,.18-1.079c0-.176.166-.261.342-.352l.019-.01a1.648,1.648,0,0,1,.631-.181.524.524,0,0,1,.084-.005.729.729,0,0,1,.634.367c.088.086.088.363.088.63v2.876h.9V33.774a1.236,1.236,0,0,1,.182-.812,1.173,1.173,0,0,1,.922-.451h.07c.479,0,.721.108.811.363a1.6,1.6,0,0,1,.087.717v2.789h.9V33.412a1.383,1.383,0,0,0-1.221-1.529c-.054,0-.105-.007-.154-.007a1.249,1.249,0,0,0-.154.009h-.047a1.754,1.754,0,0,0-1.483.811,1.44,1.44,0,0,0-1.3-.818.934.934,0,0,0-.139.007h-.018a1.755,1.755,0,0,0-1.418.723v-.63h-.72Zm-43.629.055v0L92.645,36.4h.9l.965-3.425v.086c.077.323.163.58.18.629l.811,2.7h.9l1.523-4.5h-.892l-.811,2.608a.567.567,0,0,1-.056.246.337.337,0,0,0-.032.116,2.472,2.472,0,0,1-.1.237l-.006.013a.638.638,0,0,0-.079.286.535.535,0,0,1-.111-.274c-.019-.088-.042-.176-.069-.263a.583.583,0,0,0-.051-.232v-.008a.277.277,0,0,1-.035-.121l-.723-2.608h-.806L93.342,34.5l-.093.181a6.167,6.167,0,0,1-.18.718,4.3,4.3,0,0,1-.27-.718l-.81-2.789H90.373l-.8,2.608a.561.561,0,0,1-.061.246l-.005.016a.255.255,0,0,0-.027.1,2.52,2.52,0,0,1-.1.245l-.005.016a.67.67,0,0,0-.073.274.524.524,0,0,1-.109-.27v-.01c-.022-.1-.044-.177-.068-.257a.564.564,0,0,0-.055-.234v-.006a.3.3,0,0,1-.037-.122l-.811-2.608h-.806L86.6,34.494l-.087.181a7.051,7.051,0,0,1-.18.717,3.754,3.754,0,0,1-.275-.717l-.8-2.789H83.551l-.81,2.608a.568.568,0,0,1-.057.246.356.356,0,0,0-.031.116,1.917,1.917,0,0,1-.1.251v.008a.621.621,0,0,0-.077.276.507.507,0,0,1-.1-.262v-.011l-.015-.058c-.016-.062-.034-.13-.06-.205a.568.568,0,0,0-.054-.24.321.321,0,0,1-.033-.122L81.5,31.886h-.811l-.81,2.608-.088.181a7.057,7.057,0,0,1-.18.717,3.537,3.537,0,0,1-.27-.717l-.81-2.789h-.9l1.529,4.5h.9l.985-3.419v.094c.089.342.178.622.181.63l.811,2.7h.9l1.483-4.364L85.9,36.391h.9l.987-3.419v.095c.089.349.178.627.179.629l.811,2.7h.9l1.482-4.361Zm40.3,4.352h0a1.681,1.681,0,0,0,.18.006,2.162,2.162,0,0,0,2.162-2.152c0-.075,0-.137-.008-.193a2.91,2.91,0,0,0-.718-1.89,2.81,2.81,0,0,0-1.527-.449h-.1a2.384,2.384,0,0,0-1.7.72,2.545,2.545,0,0,0-.543,1.622,2.133,2.133,0,0,0,.455,1.622,2.515,2.515,0,0,0,1.753.718Zm15.641-4.5,1.529,4.5h.9l.98-3.41h0v.079c.072.277.142.509.178.622l0,.008.81,2.7h.9l1.529-4.5h-.893l-.81,2.608a.568.568,0,0,1-.058.246.337.337,0,0,0-.031.116,2.485,2.485,0,0,1-.1.237l-.005.014a.651.651,0,0,0-.081.286.549.549,0,0,1-.109-.274c-.018-.083-.041-.169-.07-.263a.564.564,0,0,0-.055-.234v-.006a.32.32,0,0,1-.037-.122l-.717-2.608h-.812l-.8,2.608-.094.181a6.009,6.009,0,0,1-.18.717,4.183,4.183,0,0,1-.269-.717l-.811-2.789Zm-4.4,3.6h0v.9h.986v-.9Zm-20.408,0h0v.9h.986v-.9Zm-23.558,0h0v.9h.993v-.9Zm20.232-3.954v4.853h.9v-6.2h-.541a3.986,3.986,0,0,1-1.979,1.529v.718a4.642,4.642,0,0,0,1.617-.9Zm-5.215,0v4.853h.9v-6.2h-.537a4,4,0,0,1-1.983,1.529v.718a4.67,4.67,0,0,0,1.617-.9Zm-5.215,0v4.853h.9v-6.2h-.543a3.913,3.913,0,0,1-1.973,1.529v.718a4.663,4.663,0,0,0,1.614-.9Zm-5.216,0v4.853h.9v-6.2h-.537a4.011,4.011,0,0,1-1.976,1.529v.718a4.589,4.589,0,0,0,1.611-.9Zm-29.59,7.256H63.5v-10.6H73.731v10.6Zm-11.477,0H55.376v-10.6h6.878v10.6Zm-8.128,0H43.9v-10.6H54.126v10.6Zm-11.479,0H36.2v-10.6h6.449v10.6Zm-7.7,0H24.719v-10.6H34.948v10.6Zm-11.478,0H16.6v-10.6H23.47v10.6Zm-8.123,0H9.008v-10.6h6.339v10.6Zm116.221-2.931h0v0h-.129a1.528,1.528,0,0,1-.869-.269,1.918,1.918,0,0,1-.543-1.441,1.6,1.6,0,0,1,.537-1.354,1.543,1.543,0,0,1,.877-.269h.092a1.345,1.345,0,0,1,.923.363,1.775,1.775,0,0,1,.449,1.26,1.936,1.936,0,0,1-.27,1.079A1.232,1.232,0,0,1,131.567,35.853Z" transform="translate(-22989 -3161)" fill="#fff" stroke="rgba(0,0,0,0)" stroke-miterlimit="10" stroke-width="1"/>
    <path id="Subtraction_12" data-name="Subtraction 12" d="M15.347,110.09H5.118V86.553l-.182-2.489A3.33,3.33,0,0,0,1.853,82c-.106,0-.214.005-.321.016-.217,0-.272-.027-.281-.05a.027.027,0,0,1,.009-.027V76.7c0-.266.7-.438.712-.44A17.432,17.432,0,0,0,9.247,71.25h6.1Z" transform="translate(-22989 -3231)" fill="#fff" stroke="rgba(0,0,0,0)" stroke-miterlimit="10" stroke-width="1"/>
    <path id="Subtraction_11" data-name="Subtraction 11" d="M15.346,110.09H5.118V86.553l-.181-2.489A3.331,3.331,0,0,0,1.853,82a3.214,3.214,0,0,0-.321.016c-.217,0-.272-.027-.281-.05a.027.027,0,0,1,.009-.027V76.7c0-.266.7-.438.712-.44A17.433,17.433,0,0,0,9.248,71.25h6.1Z" transform="translate(-22969.398 -3231)" fill="#fff" stroke="rgba(0,0,0,0)" stroke-miterlimit="10" stroke-width="1"/>
    <path id="Subtraction_10" data-name="Subtraction 10" d="M15.347,110.09H5.118V86.553l-.181-2.489A3.332,3.332,0,0,0,1.852,82c-.105,0-.213.005-.32.016-.216,0-.272-.027-.28-.05a.027.027,0,0,1,.009-.027V76.7c0-.266.7-.438.712-.44A17.432,17.432,0,0,0,9.248,71.25h6.1Z" transform="translate(-22950.221 -3231)" fill="#fff" stroke="rgba(0,0,0,0)" stroke-miterlimit="10" stroke-width="1"/>
    <path id="Subtraction_9" data-name="Subtraction 9" d="M15.346,110.09H5.119V86.553l-.182-2.489A3.331,3.331,0,0,0,1.853,82a3.214,3.214,0,0,0-.321.016c-.217,0-.272-.027-.281-.05a.027.027,0,0,1,.009-.027V76.7c0-.266.7-.438.712-.44A17.441,17.441,0,0,0,9.248,71.25h6.1Z" transform="translate(-22930.615 -3231)" fill="#fff" stroke="rgba(0,0,0,0)" stroke-miterlimit="10" stroke-width="1"/>
    <g id="Group_71897" data-name="Group 71897" transform="translate(-22777.199 -3150.68)">
      <path id="Path_99705" data-name="Path 99705" d="M-120.81,4.214a7.427,7.427,0,0,1-.826,1.656l1.113.419a7.135,7.135,0,0,0,.846-1.784Zm-5.352-.018-1.131.364a10.362,10.362,0,0,1,.862,1.729L-125.3,6A10.384,10.384,0,0,0-126.162,4.2Zm-3.753-1.327V7.693h12.894V2.849c.323.146.647.309.988.473l.9-1.456a45.385,45.385,0,0,1-7.812-4.1h-1.042A46.8,46.8,0,0,1-131.8,1.884l.9,1.438C-130.58,3.159-130.239,3.013-129.915,2.869Zm12.822-.057h-12.715c.952-.473,1.868-.928,2.73-1.383v.637h7.2V1.393C-119.033,1.866-118.1,2.34-117.093,2.813Zm-1.487,3.6H-122.7V4.105h4.116Zm-5.657,0h-4.12V4.105h4.116Zm6.555,2.022h-11.551v6.168h1.634v-.6h8.281v.582h1.636Zm-9.917,4.2V11.75h8.281v.892Zm0-2.075V9.711h8.281v.855Zm6.645-9.774h-4.988c.878-.528,1.7-1.058,2.474-1.563C-122.714-.265-121.888.246-120.954.792Zm11.906-2.473V2.141h10.685V-1.681ZM-100,.847h-7.417V-.372H-100Zm-9.913,2.111v8.354h3.3a25.179,25.179,0,0,1-4.937,2.057l.988,1.292a24.221,24.221,0,0,0,5.513-2.585l-.88-.764h4.382l-.776.746A30.02,30.02,0,0,1-97.2,14.68l1.189-1.2a38.773,38.773,0,0,0-4.669-2.166h3.215V2.958Zm10.811,6.9h-9.179V8.835H-99.1Zm-9.179-2.326V6.58H-99.1v.946Zm0-2.257V4.328H-99.1v.946Zm23.436-7.59V.833h-6.375V9.624h1.706V8.583h4.669v6.1h1.76v-6.1h4.689V9.62h1.706V.829H-83.08V-2.32Zm-4.669,9.21V2.526h4.669V6.894Zm6.429,0V2.526h4.689V6.894Zm21.247,7.058a1.993,1.993,0,0,0,1.652-.692c.4-.506.664-2.039.808-4.623l-1.616-.546a14.111,14.111,0,0,1-.4,3.64.811.811,0,0,1-.772.528H-65.3q-.916,0-.916-.764V1.555h-1.706v10.3a1.866,1.866,0,0,0,1.592,2.1,1.839,1.839,0,0,0,.511,0Zm-8.8-10.593a38.193,38.193,0,0,1-1.922,7.808l1.473.928A40.464,40.464,0,0,0-69,3.7Zm12.072-.491-1.652.564a58.781,58.781,0,0,1,2.851,7.932l1.562-.708a65.757,65.757,0,0,0-2.766-7.786Zm-6.4-5.155-1.4.892a37.274,37.274,0,0,1,3.628,4.914l1.437-.983A40.738,40.738,0,0,0-64.96-2.288Z" transform="translate(0)" fill="#fff"/>
    </g>
  </g>
</svg>
