<svg xmlns="http://www.w3.org/2000/svg" width="20" height="20" viewBox="0 0 20 20">
  <g id="area" transform="translate(19189 3050)">
    <g id="Rectangle_23646" data-name="Rectangle 23646" transform="translate(-19189 -3050)" fill="#fff" stroke="#707070" stroke-width="1" opacity="0">
      <rect width="20" height="20" stroke="none"/>
      <rect x="0.5" y="0.5" width="19" height="19" fill="none"/>
    </g>
    <g id="geo_fence" transform="translate(-19189 -3050)">
      <path id="Path_946" data-name="Path 946" d="M16.322,18.457l-.188.177c-.421.4-.812.769-1.126,1.122,3.548.4,5.453,1.448,5.453,2.046,0,.75-2.987,2.209-8.462,2.209S3.538,22.553,3.538,21.8c0-.6,1.905-1.646,5.453-2.046-.315-.354-.706-.725-1.126-1.122l-.188-.177C4.482,18.98,2,20.106,2,21.8c0,2.417,5.031,3.682,10,3.682S22,24.22,22,21.8C22,20.106,19.518,18.98,16.322,18.457Z" transform="translate(-2 -6.336)" fill="#4c8fbd"/>
      <path id="Path_947" data-name="Path 947" d="M13.154,2A6.027,6.027,0,0,0,7,7.892c0,4.419,5.385,5.892,5.385,8.838a.77.77,0,0,0,1.538,0c0-2.946,5.385-4.419,5.385-8.838A6.027,6.027,0,0,0,13.154,2Zm0,7.365a1.474,1.474,0,1,1,1.538-1.473A1.506,1.506,0,0,1,13.154,9.365Z" transform="translate(-3.154 -2)" fill="#4c8fbd"/>
    </g>
  </g>
</svg>
