<svg xmlns="http://www.w3.org/2000/svg" width="48" height="39.527" viewBox="0 0 48 39.527">
  <g id="assessment" transform="translate(-168.783)">
    <g id="Group_38069" data-name="Group 38069" transform="translate(168.783 0)">
      <g id="Group_38067" data-name="Group 38067" transform="translate(18.406 12.083)">
        <path id="Path_47285" data-name="Path 47285" d="M250.9,59.36V57.645a2.874,2.874,0,0,0,.717.461,8.843,8.843,0,0,0,.87.358,6.064,6.064,0,0,0,.922.23,5.172,5.172,0,0,0,.845.077,3.411,3.411,0,0,0,2.022-.512,1.717,1.717,0,0,0,.666-1.434,1.576,1.576,0,0,0-.23-.87,2.6,2.6,0,0,0-.614-.691,5.2,5.2,0,0,0-.922-.589c-.358-.179-.742-.384-1.152-.589-.435-.23-.845-.435-1.229-.666a6.056,6.056,0,0,1-.973-.742,3.832,3.832,0,0,1-.666-.922,2.883,2.883,0,0,1-.23-1.2,2.851,2.851,0,0,1,.384-1.485,3.808,3.808,0,0,1,.973-1.05,4.226,4.226,0,0,1,1.382-.614,6.58,6.58,0,0,1,1.587-.2,6.324,6.324,0,0,1,2.688.435v1.638a4.9,4.9,0,0,0-2.842-.768,3.976,3.976,0,0,0-.947.1,2.774,2.774,0,0,0-.845.333,1.694,1.694,0,0,0-.614.589,1.576,1.576,0,0,0-.23.87,1.681,1.681,0,0,0,.179.819,2.049,2.049,0,0,0,.538.64,6.037,6.037,0,0,0,.845.563c.333.179.717.384,1.152.589.435.23.87.461,1.28.691a5.732,5.732,0,0,1,1.05.819,3.671,3.671,0,0,1,.717.973,2.708,2.708,0,0,1,.256,1.229,3.272,3.272,0,0,1-.358,1.562,2.938,2.938,0,0,1-.973,1.05,4.662,4.662,0,0,1-1.408.589,7.275,7.275,0,0,1-1.69.179c-.2,0-.435-.026-.742-.051-.282-.026-.589-.077-.9-.128a4.073,4.073,0,0,1-.845-.23C251.284,59.565,251.079,59.462,250.9,59.36Z" transform="translate(-250.9 -47.2)"/>
        <path id="Path_47286" data-name="Path 47286" d="M290.4,63.043a2.78,2.78,0,0,1-1.331.282c-1.562,0-2.33-.87-2.33-2.611V55.466H285.2V54.237h1.536V52.061l1.434-.461v2.637h2.253v1.229H288.17v5.018a2.09,2.09,0,0,0,.307,1.28,1.2,1.2,0,0,0,1,.384,1.429,1.429,0,0,0,.922-.307Z" transform="translate(-276.419 -50.474)"/>
        <path id="Path_47287" data-name="Path 47287" d="M317.414,70.139h-1.434V68.757h-.026a2.956,2.956,0,0,1-2.739,1.587,2.8,2.8,0,0,1-2.074-.717,2.4,2.4,0,0,1-.742-1.869c0-1.664.973-2.637,2.944-2.893l2.662-.384c0-1.51-.614-2.278-1.843-2.278a4.261,4.261,0,0,0-2.893,1.1V61.845A5.477,5.477,0,0,1,314.291,61c2.1,0,3.149,1.1,3.149,3.328v5.811Zm-1.408-4.506-2.15.307a3.593,3.593,0,0,0-1.485.486,1.416,1.416,0,0,0-.512,1.254,1.394,1.394,0,0,0,.461,1.075,1.741,1.741,0,0,0,1.229.41,2.281,2.281,0,0,0,1.741-.742,2.656,2.656,0,0,0,.691-1.894v-.9Z" transform="translate(-295.168 -57.467)"/>
        <path id="Path_47288" data-name="Path 47288" d="M352.959,62.887a1.852,1.852,0,0,0-1.075-.282,1.806,1.806,0,0,0-1.536.87,3.961,3.961,0,0,0-.614,2.355v4.531H348.3V61.454h1.434V63.3h.026a3.12,3.12,0,0,1,.922-1.459,2.108,2.108,0,0,1,1.408-.538,2.338,2.338,0,0,1,.845.128v1.459Z" transform="translate(-323.366 -57.69)"/>
      </g>
      <g id="Group_38068" data-name="Group 38068" transform="translate(0)">
        <path id="Path_47289" data-name="Path 47289" d="M188.8,19.763A16.271,16.271,0,0,1,211.922,5.018a19.763,19.763,0,1,0-13.158,34.509,19.622,19.622,0,0,0,13.158-5.018A16.271,16.271,0,0,1,188.8,19.763Z" transform="translate(-179 0)"/>
      </g>
      <ellipse id="Ellipse_1556" data-name="Ellipse 1556" cx="2.381" cy="2.381" rx="2.381" ry="2.381" transform="matrix(0.164, -0.987, 0.987, 0.164, 31.83, 8.734)"/>
      <ellipse id="Ellipse_1557" data-name="Ellipse 1557" cx="2.381" cy="2.381" rx="2.381" ry="2.381" transform="translate(32.205 30.49)"/>
    </g>
  </g>
</svg>
