<svg xmlns="http://www.w3.org/2000/svg" width="48" height="39.53"><g data-name="Group 38069"><g fill="#fff" data-name="Group 38067"><path d="M18.4 24.24v-1.71a2.87 2.87 0 0 0 .72.46 8.84 8.84 0 0 0 .87.36 6.06 6.06 0 0 0 .93.23 5.17 5.17 0 0 0 .84.07 3.41 3.41 0 0 0 2.02-.5 1.72 1.72 0 0 0 .67-1.44 1.58 1.58 0 0 0-.23-.87 2.6 2.6 0 0 0-.62-.7 5.2 5.2 0 0 0-.92-.58l-1.15-.6c-.43-.22-.84-.43-1.23-.66a6.06 6.06 0 0 1-.97-.74 3.83 3.83 0 0 1-.67-.92 2.88 2.88 0 0 1-.23-1.2 2.85 2.85 0 0 1 .39-1.49 3.8 3.8 0 0 1 .97-1.05 4.23 4.23 0 0 1 1.38-.61 6.58 6.58 0 0 1 1.59-.2 6.32 6.32 0 0 1 2.69.43v1.64a4.9 4.9 0 0 0-2.85-.76 3.98 3.98 0 0 0-.94.1 2.77 2.77 0 0 0-.85.33 1.7 1.7 0 0 0-.61.59 1.58 1.58 0 0 0-.23.87 1.68 1.68 0 0 0 .18.82 2.05 2.05 0 0 0 .54.64 6.04 6.04 0 0 0 .84.56l1.15.59 1.28.69a5.73 5.73 0 0 1 1.05.82 3.67 3.67 0 0 1 .72.97 2.7 2.7 0 0 1 .26 1.23 3.27 3.27 0 0 1-.36 1.56 2.94 2.94 0 0 1-.98 1.05 4.66 4.66 0 0 1-1.4.6 7.28 7.28 0 0 1-1.7.17c-.2 0-.43-.03-.74-.05-.28-.03-.58-.08-.9-.13a4.07 4.07 0 0 1-.84-.23c-.28-.13-.48-.24-.66-.34z" data-name="Path 47285"/><path d="M32.39 24.65a2.78 2.78 0 0 1-1.33.28c-1.57 0-2.33-.87-2.33-2.6v-5.25h-1.54v-1.23h1.53v-2.18l1.44-.46v2.64h2.25v1.23h-2.25v5.01a2.09 2.09 0 0 0 .3 1.28 1.2 1.2 0 0 0 1 .39 1.43 1.43 0 0 0 .93-.31z" data-name="Path 47286"/><path d="M40.65 24.75h-1.43v-1.38h-.03a2.96 2.96 0 0 1-2.74 1.59 2.8 2.8 0 0 1-2.07-.72 2.4 2.4 0 0 1-.74-1.87c0-1.66.97-2.63 2.94-2.89l2.66-.38c0-1.51-.61-2.28-1.84-2.28a4.26 4.26 0 0 0-2.9 1.1v-1.46a5.48 5.48 0 0 1 3.03-.84c2.1 0 3.15 1.1 3.15 3.32v5.81zm-1.4-4.5l-2.16.3a3.6 3.6 0 0 0-1.48.5 1.42 1.42 0 0 0-.51 1.25 1.4 1.4 0 0 0 .46 1.07 1.74 1.74 0 0 0 1.23.41 2.28 2.28 0 0 0 1.74-.74 2.66 2.66 0 0 0 .69-1.9v-.9z" data-name="Path 47287"/><path d="M48 17.28a1.85 1.85 0 0 0-1.08-.28 1.8 1.8 0 0 0-1.53.87 3.96 3.96 0 0 0-.62 2.35v4.53h-1.43v-8.9h1.43v1.84h.03a3.12 3.12 0 0 1 .92-1.46 2.1 2.1 0 0 1 1.41-.53 2.34 2.34 0 0 1 .84.12v1.46z" data-name="Path 47288"/></g><g data-name="Group 38068"><path fill="#fff" d="M9.8 19.76A16.27 16.27 0 0 1 32.92 5.02a19.76 19.76 0 1 0-13.16 34.5 19.62 19.62 0 0 0 13.16-5.01A16.27 16.27 0 0 1 9.8 19.76z" data-name="Path 47289"/></g><ellipse cx="2.38" cy="2.38" fill="#fff" data-name="Ellipse 1556" rx="2.38" ry="2.38" transform="rotate(-80.57 21.06 -14.4)"/><ellipse cx="2.38" cy="2.38" fill="#fff" data-name="Ellipse 1557" rx="2.38" ry="2.38" transform="translate(32.2 30.49)"/></g></svg>