<svg xmlns="http://www.w3.org/2000/svg" width="59" height="56"><g data-name="astronaut (2)"><path fill="#d1d4d1" d="M43.86 6.49A.99.99 0 0 1 43 7a5 5 0 0 0-5 5 1 1 0 0 1-2 0 7 7 0 0 1 6.03-6.92A22.82 22.82 0 0 0 30 1.03v4.8a1 1 0 0 1-2 0v-4.8a22.83 22.83 0 0 0-12.03 4.05A7 7 0 0 1 22 12a1 1 0 0 1-2 0 5 5 0 0 0-5-5 .99.99 0 0 1-.86-.52A22.97 22.97 0 0 0 6 24v16.94C11.6 46.47 20.04 50 29.5 50A33.76 33.76 0 0 0 52 41.87V24a22.97 22.97 0 0 0-8.14-17.52z" data-name="Path 89180"/><path fill="#ecf0f1" d="M36 12a1 1 0 0 0 2 0 5 5 0 0 1 5-5 .99.99 0 0 0 .86-.52q-.88-.74-1.84-1.4A7 7 0 0 0 36 12z" data-name="Path 89181"/><path fill="#ecf0f1" d="M15 7a5 5 0 0 1 5 5 1 1 0 0 0 2 0 7 7 0 0 0-6.03-6.92 23 23 0 0 0-1.83 1.4A.99.99 0 0 0 15 7z" data-name="Path 89182"/><path fill="#ecf0f1" d="M29 6.83a1 1 0 0 0 1-1v-4.8a22.13 22.13 0 0 0-2 0v4.8a1 1 0 0 0 1 1z" data-name="Path 89183"/><path fill="#e6e7e8" d="M29.5 50a34.12 34.12 0 0 1-21.36-7.16v6.63C13.11 54.4 20.62 56 29.02 56c7.9 0 15.03-1.26 19.98-5.7v-6.09A34.62 34.62 0 0 1 29.5 50z" data-name="Path 89184"/><path fill="#ecf0f1" d="M3.66 22.03A2.09 2.09 0 0 0 2 24.13v2.48a.39.39 0 0 1-.39.39A1.61 1.61 0 0 0 0 28.61v3.17A1.22 1.22 0 0 0 1.22 33h.39a.39.39 0 0 1 .39.39v2.49a2.09 2.09 0 0 0 1.66 2.1A2 2 0 0 0 6 36V24a2 2 0 0 0-2.34-1.97z" data-name="Path 89185"/><path fill="#a5a5a4" d="M3 31a1.05 1.05 0 0 1-.71-.29 1.01 1.01 0 0 1 0-1.42 1.05 1.05 0 0 1 1.42 0 1.01 1.01 0 0 1 0 1.42A1.05 1.05 0 0 1 3 31z" data-name="Path 89186"/><path fill="#ecf0f1" d="M54.34 37.97a2.09 2.09 0 0 0 1.66-2.1v-2.1a.77.77 0 0 1 .77-.77A1.22 1.22 0 0 0 58 31.78v-3.56A1.22 1.22 0 0 0 56.78 27h-.01a.77.77 0 0 1-.77-.77v-2.1a2.09 2.09 0 0 0-1.66-2.1A2 2 0 0 0 52 24v12a2 2 0 0 0 2.34 1.97z" data-name="Path 89187"/><path fill="#a5a5a4" d="M55 31a1.05 1.05 0 0 1-.71-.29 1.01 1.01 0 0 1 0-1.42A1 1 0 1 1 55 31z" data-name="Path 89188"/><path fill="#f3d55b" d="M58 5h-1.59L54 2.59V1a1 1 0 0 0-2 0v1.59L49.59 5H48a1 1 0 0 0 0 2h1.59L52 9.41V11a1 1 0 0 0 2 0V9.41L56.41 7H58a1 1 0 0 0 0-2z" data-name="Path 89189"/><path fill="#ecf0f1" d="M29 8C16.35 8 6 16.92 6 26.38v12.66A40.55 40.55 0 0 0 29.5 47c8.9 0 16.92-3.52 22.5-7.26V26.38C52 16.92 41.65 8 29 8z" data-name="Path 89190"/><path fill="#38454f" d="M29 11C16.35 11 6 18.55 6 26.55v10.71A45.48 45.48 0 0 0 29.5 44 46.68 46.68 0 0 0 52 37.86v-11.3C52 18.54 41.65 11 29 11z" data-name="Path 89191"/><path fill="#475b68" d="M15.1 14.35C9.58 17.3 6 21.85 6 26.55v10.71a44.2 44.2 0 0 0 8.6 4.12A75.47 75.47 0 0 0 16 26.5a78.96 78.96 0 0 0-.9-12.15z" data-name="Path 89192"/><path fill="#475b68" d="M52 26.55c0-4.7-3.58-9.25-9.1-12.2A78.96 78.96 0 0 0 42 26.5a75.08 75.08 0 0 0 1.46 15.15A48.94 48.94 0 0 0 52 37.86z" data-name="Path 89193"/><path fill="#fff" d="M8.14 42.84v2.63C13.11 50.4 20.62 52 29.02 52c7.9 0 15.03-1.26 19.98-5.7v-2.09A34.63 34.63 0 0 1 29.5 50a34.12 34.12 0 0 1-21.36-7.16z" data-name="Path 89194"/><path fill="#546a79" d="M27 20.2a1 1 0 0 1-.1-2c1.34-.13 2.72-.2 4.1-.2a1 1 0 0 1 0 2c-1.31 0-2.63.07-3.9.2H27z" data-name="Path 89195"/><path fill="#546a79" d="M11 31a1 1 0 0 1-1-1c0-5.03 4.28-9 11.75-10.9a1 1 0 0 1 .5 1.94C15.73 22.69 12 25.96 12 30a1 1 0 0 1-1 1z" data-name="Path 89196"/></g></svg>