<svg xmlns="http://www.w3.org/2000/svg" xmlns:xlink="http://www.w3.org/1999/xlink" viewBox="0 0 780 120.5"><defs><linearGradient id="a" x1="1" x2="1" y1="1" gradientUnits="objectBoundingBox"><stop offset="0" stop-color="#d50918"/><stop offset="1" stop-color="#ff4b2b"/></linearGradient><linearGradient id="e" x1=".74" x2=".74" xlink:href="#a"/><linearGradient id="f" x1=".74" x2=".83" xlink:href="#a"/><linearGradient id="g" x1=".83" x2=".77" xlink:href="#a"/><clipPath id="b"><path fill="#364fc7" d="M0 0h780v120H0z" opacity=".24" transform="translate(-1194 5483)"/></clipPath><clipPath id="c"><path fill="#0b7285" d="M0 0h780v390H0z"/></clipPath><clipPath id="d"><path fill="#0b7285" d="M0 0h780v390H0z" opacity=".36"/></clipPath><filter id="h" width="198" height="58" x="347" y="53" filterUnits="userSpaceOnUse"><feOffset/><feGaussianBlur result="af" stdDeviation="3"/><feFlood flood-color="#17a2b8" flood-opacity=".4"/><feComposite in2="af" operator="in"/><feComposite in="SourceGraphic"/></filter></defs><path fill="#e3fafc" d="M0 0h780v120H0z"/><g clip-path="url(#b)" opacity=".8" transform="translate(1194 -5483)"><g opacity=".24"><g clip-path="url(#c)" transform="translate(-1194 5440)"><path fill="#0b7285" d="M234.66 352.94l13.06-13.05.82.83-13.05 13.05zM247.72 352.95l13.05-13.05.83.83-13.05 13.05zM260.78 352.92l13.06-13.06.82.83-13.05 13.05zM273.84 352.9l13.06-13.05.82.83-13.05 13.05zM286.9 352.97l13.05-13.05.83.82-13.05 13.05z"/></g><g clip-path="url(#c)" transform="translate(-1194 5440)"><path fill="#0b7285" d="M460.85 274.94l13.06-13.05.82.82-13.05 13.06zM473.92 274.96l13.05-13.06.83.83-13.06 13.05zM486.97 274.91l13.06-13.05.82.83-13.05 13.05zM500.03 274.9l13.05-13.06.83.83-13.05 13.05zM513.1 274.96l13.06-13.05.83.82-13.06 13.05z"/></g><g clip-path="url(#c)" transform="translate(-1194 5440)"><path fill="#0b7285" d="M578.86 170.22L842.32-93.24l.92.92-263.46 263.46z"/></g><g clip-path="url(#c)" transform="translate(-1194 5440)"><path fill="#0b7285" d="M656.22 123.42l263.45-263.45.92.91-263.45 263.46z"/></g><g clip-path="url(#c)" transform="translate(-1194 5440)"><path fill="#0b7285" d="M285.05 582.32L548.5 318.86l.92.92-263.45 263.46z"/></g><g clip-path="url(#c)" transform="translate(-1194 5440)"><path fill="#0b7285" d="M362.4 535.52l263.45-263.46.92.92-263.45 263.46z"/></g><g clip-path="url(#c)" transform="translate(-1194 5440)"><path fill="#0b7285" d="M26.36 113L289.8-150.45l.92.91L27.28 113.92z"/></g><g clip-path="url(#c)" transform="translate(-1194 5440)"><path fill="#0b7285" d="M103.7 66.2l263.46-263.45.92.92L104.63 67.12z"/></g><g clip-path="url(#c)" transform="translate(-1194 5440)"><path fill="#0b7285" d="M38.94 366.05L302.39 102.6l.92.92L39.86 366.97z"/></g><g clip-path="url(#c)" transform="translate(-1194 5440)"><path fill="#0b7285" d="M27.3 357.25L290.74 93.8l.92.92L28.2 358.17z"/></g><g clip-path="url(#c)" opacity=".49" transform="translate(-1194 5440)"><path fill="#0b7285" d="M-59.54 146.64l-13.26 22.94a66.94 66.94 0 0113.26-22.94zM-48.69 136.76l-27.23 47.13c.2-1.7.39-3.38.71-5.07l22.49-38.94c1.3-1.04 2.6-2.08 4.03-3.12zM-40.69 131.75l-35.55 61.62c0-.78-.07-1.56-.07-2.4v-1.37l32.37-56.03c1.1-.64 2.15-1.3 3.25-1.81zM-33.67 128.5l-41.86 72.55-.39-3.12 39.39-68.19c.91-.45 1.89-.85 2.86-1.24zM-27.3 126.36l-46.93 81.25c-.26-.91-.46-1.82-.65-2.73l44.91-77.74 2.67-.78zM-21.39 125l-51.09 88.46c-.26-.78-.58-1.63-.78-2.4l49.4-85.55c.78-.19 1.63-.38 2.47-.51zM-15.8 124.22l-54.53 94.44c-.32-.72-.65-1.43-.91-2.15l53.1-92.04c.79-.06 1.57-.19 2.35-.25zM-10.47 123.89l-57.46 99.58c-.39-.65-.71-1.3-1.04-1.95l56.3-97.5c.7-.07 1.42-.07 2.2-.13zM-5.4 124.02l-59.92 103.74c-.4-.58-.78-1.17-1.17-1.82l58.95-102.05c.71.07 1.43.07 2.15.13zM-.52 124.48l-61.94 107.31a16.1 16.1 0 01-1.24-1.69l61.1-105.88a20.19 20.19 0 012.08.26zM4.16 125.25l-63.63 110.18-1.3-1.5L2.2 124.87zM8.71 126.3L-56.23 238.8l-1.36-1.36 64.41-111.6c.59.12 1.24.32 1.89.45zM13 127.66l-65.91 114.2a13.57 13.57 0 01-1.43-1.3l65.52-113.49c.65.2 1.23.4 1.82.59zM17.22 129.28L-49.4 244.72c-.52-.39-1.04-.78-1.5-1.17l66.37-114.98c.59.26 1.17.52 1.76.72zM21.26 131.23l-67.02 116.03c-.52-.33-1.04-.71-1.56-1.04l66.89-115.83c.58.26 1.1.52 1.69.84zM25.15 133.38l-67.08 116.16c-.58-.33-1.1-.65-1.62-.98l67.08-116.22c.52.39 1.1.72 1.62 1.04zM28.92 135.78l-66.88 115.83a13.66 13.66 0 01-1.69-.84l67.01-116.02c.46.32 1.05.65 1.56 1.03zM32.5 138.45l-66.36 114.92c-.59-.26-1.17-.46-1.76-.72L31 137.28c.52.39.98.78 1.5 1.17zM35.94 141.37l-65.58 113.56c-.59-.2-1.24-.39-1.82-.65l65.97-114.2c.46.45.92.84 1.43 1.3zM39.2 144.56l-64.42 111.6a15.94 15.94 0 01-1.88-.52l64.93-112.45c.45.46.97.91 1.37 1.37zM42.31 148.07L-20.6 257.14l-1.95-.39 63.57-110.18a14.28 14.28 0 011.3 1.5zM45.3 151.84l-61.1 105.89-2.07-.2 61.94-107.31 1.24 1.62zM48.03 156l-58.95 102.05c-.72 0-1.43-.07-2.15-.07l59.93-103.73c.4.52.79 1.17 1.18 1.75zM50.57 160.49l-56.29 97.5c-.72.06-1.5.06-2.21.06l57.46-99.52c.32.65.72 1.3 1.04 1.95zM52.84 165.49l-53.1 92.04c-.78.13-1.56.2-2.34.26l54.54-94.44c.32.65.58 1.36.9 2.14zM54.8 170.95L5.4 256.49c-.85.2-1.63.39-2.47.52L54 168.55a14.85 14.85 0 01.79 2.4zM56.42 177.06L11.51 254.8c-.85.26-1.76.58-2.67.78l46.93-81.25c.26.91.45 1.82.65 2.73zM57.53 184.02l-39.4 68.24c-.97.46-1.88.85-2.85 1.24l41.86-72.54.39 3.06zM57.85 190.97v1.36l-32.37 56.1a52.3 52.3 0 01-3.25 1.82l35.62-61.62zM57.52 198.06c-.2 1.69-.39 3.38-.71 5.07l-22.49 38.93c-1.3 1.1-2.67 2.15-4.03 3.19zM54.4 212.36a66.63 66.63 0 01-13.26 23z"/></g><g clip-path="url(#c)" transform="translate(-1194 5440)"><path fill="#0b7285" d="M668.98 360.3l-39.72-39.72 39.72-39.71 39.71 39.71zm-37.9-39.72l37.9 37.9 37.9-37.9-37.9-37.9z"/></g><g clip-path="url(#c)" transform="translate(-1194 5440)"><path fill="#0b7285" d="M203.9 155.22L162.9 114.2l41.02-41.01 41.01 41.02zm-39.2-41.02l39.2 39.2 39.2-39.2L203.9 75z"/></g><g clip-path="url(#c)" transform="translate(-1194 5440)"><path fill="#0b7285" d="M170.75 333.32l-18.26-18.26 18.26-18.27 18.27 18.27zm-16.44-18.26l16.45 16.44 16.44-16.45-16.44-16.44z"/></g><g clip-path="url(#c)" transform="translate(-1194 5440)"><path fill="#0b7285" d="M626.4 79.17l-18.26-18.26 18.26-18.27 18.27 18.27zm-16.44-18.26l16.44 16.44 16.45-16.44-16.45-16.45z"/></g><g clip-path="url(#c)" transform="translate(-1194 5440)"><path fill="#0b7285" d="M702.26 222.37l-12.74-12.74 12.74-12.74L715 209.63zm-10.92-12.8l10.92 10.92 10.92-10.93-10.92-10.92z"/></g><g clip-path="url(#c)" transform="translate(-1194 5440)"><path fill="#0b7285" d="M273.26 241.21l-12.74-12.74 12.74-12.74L286 228.47zm-10.92-12.8l10.92 10.92 10.92-10.92-10.92-10.92z"/></g><g clip-path="url(#d)" transform="translate(-1194 5440)"><path fill="#0b7285" d="M417.88 116.48a114.34 114.34 0 0024.18-8.84A117.28 117.28 0 00507.4 2.46V.06h-53.82c0 .78.07 1.63.07 2.4a63.57 63.57 0 01-127.14 0c0-.84 0-1.62.06-2.4h-53.82v2.4a117.39 117.39 0 0090.87 114.34 118.97 118.97 0 0025.61 3h.84a119.38 119.38 0 0027.82-3.32z" opacity=".36"/></g><g clip-path="url(#c)" transform="translate(-1194 5440)"><path fill="#0b7285" d="M428.87 0h-77.74a38.87 38.87 0 0077.74 0z" opacity=".21"/></g><g clip-path="url(#c)" transform="translate(-1194 5440)"><path fill="#0b7285" d="M390 130.78a1.3 1.3 0 011.3 1.3 1.3 1.3 0 01-1.3 1.3 1.3 1.3 0 01-1.3-1.3 1.4 1.4 0 011.3-1.3zm0-13.07a1.3 1.3 0 011.3 1.3 1.3 1.3 0 01-1.3 1.3 1.3 1.3 0 01-1.3-1.3 1.4 1.4 0 011.3-1.3zm0-13.06a1.3 1.3 0 011.3 1.3 1.3 1.3 0 01-1.3 1.3 1.3 1.3 0 01-1.3-1.3 1.4 1.4 0 011.3-1.3zm0-13.07a1.3 1.3 0 011.3 1.3 1.3 1.3 0 01-1.3 1.3 1.3 1.3 0 01-1.3-1.3 1.4 1.4 0 011.3-1.3zm0-13.06a1.3 1.3 0 011.3 1.3 1.3 1.3 0 01-1.3 1.3 1.3 1.3 0 01-1.3-1.3 1.35 1.35 0 011.3-1.3zm0-13.13a1.3 1.3 0 011.3 1.3 1.3 1.3 0 01-1.3 1.3 1.3 1.3 0 01-1.3-1.3 1.4 1.4 0 011.3-1.3zm0-13.07a1.3 1.3 0 011.3 1.3 1.3 1.3 0 01-1.3 1.3 1.3 1.3 0 01-1.3-1.3 1.4 1.4 0 011.3-1.3zm0-13.06a1.3 1.3 0 011.3 1.3 1.3 1.3 0 01-1.3 1.3 1.3 1.3 0 01-1.3-1.3 1.4 1.4 0 011.3-1.3zm0-13.07a1.3 1.3 0 011.3 1.3 1.3 1.3 0 01-1.3 1.3 1.3 1.3 0 01-1.3-1.3 1.4 1.4 0 011.3-1.3zm0-13.06a1.3 1.3 0 011.3 1.3 1.3 1.3 0 01-1.3 1.3 1.3 1.3 0 01-1.3-1.3 1.35 1.35 0 011.3-1.3zM390 0a1.3 1.3 0 011.3 1.3 1.3 1.3 0 01-1.3 1.3 1.3 1.3 0 01-1.3-1.3A1.4 1.4 0 01390 0z"/></g><g clip-path="url(#c)" transform="translate(-1194 5440)"><path fill="#0b7285" d="M496.93 120.65a140.72 140.72 0 10140.72 140.72 140.7 140.7 0 00-140.72-140.72zm0 248.43a107.64 107.64 0 11107.64-107.64 107.65 107.65 0 01-107.64 107.64z" opacity=".21"/></g><g clip-path="url(#c)" transform="translate(-1194 5440)"><path fill="#0b7285" d="M496.92 168.82a92.56 92.56 0 1092.56 92.56 92.6 92.6 0 00-92.56-92.56zm0 163.4a70.78 70.78 0 1170.85-70.84 70.78 70.78 0 01-70.85 70.85z" opacity=".21"/></g><g clip-path="url(#c)" transform="translate(-1194 5440)"><path fill="#0b7285" d="M755.63 126.75a86.78 86.78 0 1086.77 86.78 86.8 86.8 0 00-86.77-86.78zm0 153.2a66.36 66.36 0 1166.36-66.36 66.36 66.36 0 01-66.36 66.36z" opacity=".21"/></g><g clip-path="url(#c)" transform="translate(-1194 5440)"><path fill="#0b7285" d="M755.63 156.46a57.07 57.07 0 1057.07 57.07 57.06 57.06 0 00-57.07-57.08zm0 100.75a43.68 43.68 0 1143.68-43.68 43.7 43.7 0 01-43.69 43.67z" opacity=".21"/></g></g></g><path fill="#327578" d="M741.08 66.35h-58.81a2.92 2.92 0 01-2.92-2.92V7.29a2.9 2.9 0 012.85-2.92h58.88A2.92 2.92 0 01744 7.29v56.14a2.92 2.92 0 01-2.92 2.92z"/><path fill="#b7e2e6" d="M682.27 64.55a1.11 1.11 0 01-1.12-1.12V11.76a1.11 1.11 0 011.12-1.12h58.87a1.11 1.11 0 011.12 1.12v51.73a1.11 1.11 0 01-1.12 1.12z"/><g transform="translate(683.1 13.4)"><circle cx="1.3" cy="1.3" r="1.3" fill="#fff" transform="translate(36.52 3.6)"/><circle cx="1.3" cy="1.3" r="1.3" fill="#fff" transform="translate(40.62 3.6)"/><circle cx="1.3" cy="1.3" r="1.3" fill="#7aafb4" transform="translate(44.9 3.6)"/><path fill="#7aafb4" d="M51.6 4.9a1.31 1.31 0 01-1.3 1.3A1.35 1.35 0 0149 4.9a1.3 1.3 0 012.62 0z"/><circle cx="1.3" cy="1.3" r="1.3" fill="#7aafb4" transform="translate(53.1 3.6)"/><path fill="#fff" d="M39.13 11.12a1.27 1.27 0 01-1.3 1.3 1.31 1.31 0 01-1.3-1.3 1.37 1.37 0 011.29-1.37 1.26 1.26 0 011.3 1.37zM43.22 11.12a1.27 1.27 0 01-1.3 1.3 1.31 1.31 0 01-1.3-1.3 1.37 1.37 0 011.3-1.37 1.26 1.26 0 011.3 1.37z"/><path fill="#7aafb4" d="M47.57 11.11a1.3 1.3 0 11-2.6 0 1.27 1.27 0 011.3-1.3 1.31 1.31 0 011.3 1.3zM51.6 11.11a1.3 1.3 0 01-2.6 0 1.3 1.3 0 012.6 0zM55.7 11.11a1.3 1.3 0 01-2.6 0 1.3 1.3 0 012.6 0z"/><circle cx="1.3" cy="1.3" r="1.3" fill="#fff" transform="translate(36.52 16.02)"/><circle cx="1.3" cy="1.3" r="1.3" fill="#fff" transform="translate(40.62 16.02)"/><circle cx="1.3" cy="1.3" r="1.3" fill="#7aafb4" transform="translate(44.9 16.02)"/><path fill="#7aafb4" d="M51.6 17.32a1.3 1.3 0 01-2.6 0 1.3 1.3 0 012.6 0z"/><circle cx="1.3" cy="1.3" r="1.3" fill="#7aafb4" transform="translate(53.1 16.02)"/><circle cx="1.3" cy="1.3" r="1.3" fill="#fff" transform="translate(36.52 22.23)"/><circle cx="1.3" cy="1.3" r="1.3" fill="#fff" transform="translate(40.62 22.23)"/><circle cx="1.3" cy="1.3" r="1.3" fill="#7aafb4" transform="translate(44.9 22.23)"/><path fill="#7aafb4" d="M51.6 23.53a1.3 1.3 0 01-2.6 0 1.3 1.3 0 012.6 0z"/><circle cx="1.3" cy="1.3" r="1.3" fill="#7aafb4" transform="translate(53.1 22.23)"/><path fill="#fff" d="M6.33 1.18L5.4.25A.8.8 0 004.78 0H1.06A1.09 1.09 0 000 1.06v4.03a1.05 1.05 0 001.06 1.06h6.4A1.05 1.05 0 008.5 5.09V2.3a.85.85 0 00-.87-.87h-.68a.8.8 0 01-.63-.25zM0 7.4h8.45v.92H0zM0 9.07h4.35V10H0z"/><path fill="#7aafb4" d="M6.33 13.17l-.93-.94a.8.8 0 00-.62-.24H1.06A1.05 1.05 0 000 13.04v4.04a1.05 1.05 0 001.06 1.06h6.4a1.05 1.05 0 001.05-1.06v-2.8a.85.85 0 00-.87-.86h-.68a1.1 1.1 0 01-.63-.25z"/><path fill="#fff" d="M0 19.38h8.45v.93H0zM0 21.05h4.35v.93H0zM6.33 25.15l-.93-.93a.8.8 0 00-.62-.25H1.06A1.05 1.05 0 000 25.03v4.04a1.05 1.05 0 001.06 1.05h6.4a1.05 1.05 0 001.05-1.05v-2.8a.85.85 0 00-.87-.87h-.68a1.1 1.1 0 01-.63-.25zM0 31.36h8.45v.93H0zM0 32.98h4.35v.93H0zM17.45 1.18l-.93-.93A.8.8 0 0015.9 0h-3.73a1.05 1.05 0 00-1.05 1.06v4.03a1.05 1.05 0 001.05 1.06h6.4a1.05 1.05 0 001.06-1.06V2.3a.85.85 0 00-.87-.87h-.68a.72.72 0 01-.63-.25zM11.12 7.4h8.45v.92h-8.45zM11.12 9.07h4.35V10h-4.35zM17.45 13.17l-.93-.94a.8.8 0 00-.62-.24h-3.73a1.05 1.05 0 00-1.05 1.05v4.04a1.05 1.05 0 001.05 1.06h6.4a1.05 1.05 0 001.06-1.06v-2.8a.85.85 0 00-.87-.86h-.68a1.1 1.1 0 01-.63-.25zM11.12 19.38h8.45v.93h-8.45zM11.12 21.05h4.35v.93h-4.35z"/><path fill="#69a9cc" d="M17.45 25.15l-.93-.93a.8.8 0 00-.62-.25h-3.73a1.05 1.05 0 00-1.05 1.06v4.04a1.05 1.05 0 001.05 1.05h6.4a1.05 1.05 0 001.06-1.05v-2.8a.85.85 0 00-.87-.87h-.68a.95.95 0 01-.63-.25z"/><path fill="#fff" d="M11.12 31.36h8.45v.93h-8.45zM11.12 32.98h4.35v.93h-4.35z"/></g><g transform="translate(728.45 5.95)"><circle cx="1.61" cy="1.61" r="1.61" fill="#7aafb4"/><circle cx="1.61" cy="1.61" r="1.61" fill="#7aafb4" transform="translate(4.84)"/><circle cx="1.61" cy="1.61" r="1.61" fill="#fdfeff" transform="translate(9.69)"/></g><path fill="#327578" d="M725.71 114.12H606.35a2.95 2.95 0 01-2.99-2.92V35a2.94 2.94 0 012.93-2.92h119.36a2.95 2.95 0 012.98 2.91v76.27a2.88 2.88 0 01-2.92 2.86z"/><path fill="#fff" d="M606.3 112.31a1.13 1.13 0 01-1.14-1.11V43.87a1.13 1.13 0 011.15-1.11h119.44a1.13 1.13 0 011.14 1.12v67.32a1.13 1.13 0 01-1.14 1.11H606.31z"/><path fill="#7aafb4" d="M714.66 35.8a1.61 1.61 0 101.62 1.62 1.64 1.64 0 00-1.62-1.62zm4.85 0a1.61 1.61 0 101.61 1.62 1.6 1.6 0 00-1.61-1.62zm4.84 0a1.6 1.6 0 00-1.62 1.62 1.57 1.57 0 001.62 1.61 1.6 1.6 0 001.61-1.61 1.6 1.6 0 00-1.61-1.62z"/><path fill="#b7e2e6" d="M618.7 59.71h-8.5a1.51 1.51 0 01-1.5-1.49v-8.57a1.51 1.51 0 011.5-1.49h8.57a1.51 1.51 0 011.49 1.5v8.56a1.57 1.57 0 01-1.56 1.5zM694.85 63.31h-66.58a.95.95 0 01-.93-.93V49.15a.95.95 0 01.93-.93h66.58a.95.95 0 01.93.93v13.17a.97.97 0 01-.93 1zM704.17 81.14h17.76a.95.95 0 00.93-.93V49.15a.95.95 0 00-.93-.93h-17.76a.95.95 0 00-.94.93v31.06a.92.92 0 00.94.93zM704.17 109.9h17.76a.95.95 0 00.93-.94v-24.1a.95.95 0 00-.93-.93h-17.76a.95.95 0 00-.94.93v24.1a.92.92 0 00.94.93z"/><path fill="#7aafb4" d="M705.28 99.9v-7.77a1.37 1.37 0 011.3-1.36h12.86a1.33 1.33 0 011.3 1.36v7.76a1.37 1.37 0 01-1.3 1.37h-12.86a1.41 1.41 0 01-1.3-1.37z"/><path fill="#b7e2e6" d="M694.85 81.14h-66.58a.95.95 0 01-.93-.93V66.98a.95.95 0 01.93-.93h66.58a.95.95 0 01.93.93v13.17a.97.97 0 01-.93.99zM694.85 109.9h-66.58a.95.95 0 01-.93-.94v-24.1a.95.95 0 01.93-.93h66.58a.95.95 0 01.93.93v24.1a.95.95 0 01-.93.93z"/><path fill="#7aafb4" d="M611.55 68.62h-1.99a.82.82 0 01-.8-.8v-2a.82.82 0 01.8-.8h1.99a.82.82 0 01.8.8v2a.82.82 0 01-.8.8zM622.17 67.25h-8.01a.43.43 0 010-.86h8a.43.43 0 110 .86zM611.55 73.84h-1.99a.82.82 0 01-.8-.81v-1.99a.82.82 0 01.8-.8h1.99a.82.82 0 01.8.8v1.99a.82.82 0 01-.8.8zM622.17 72.47h-8.01a.43.43 0 010-.87h8a.42.42 0 01.44.44.52.52 0 01-.43.43zM611.55 79.05h-1.99a.82.82 0 01-.8-.8v-2a.82.82 0 01.8-.8h1.99a.82.82 0 01.8.8v2a.87.87 0 01-.8.8zM622.17 77.63h-8.01a.43.43 0 010-.87h8a.43.43 0 110 .87zM611.55 89.42h-1.99a.82.82 0 01-.8-.8v-1.99a.82.82 0 01.8-.8h1.99a.82.82 0 01.8.8v1.99a.82.82 0 01-.8.8zM622.17 88.06h-8.01a.43.43 0 010-.87h8a.43.43 0 110 .87zM611.55 94.64h-1.99a.82.82 0 01-.8-.8v-2a.82.82 0 01.8-.8h1.99a.82.82 0 01.8.8v2a.82.82 0 01-.8.8zM622.17 93.21h-8.01a.43.43 0 010-.86h8a.43.43 0 010 .86zM611.55 99.8h-1.99a.82.82 0 01-.8-.8v-2a.82.82 0 01.8-.8h1.99a.82.82 0 01.8.8V99a.82.82 0 01-.8.8zM622.17 98.43h-8.01a.43.43 0 010-.87h8a.43.43 0 110 .87z"/><path fill="#b7e2e6" d="M620.86 82.78H608.7a.43.43 0 010-.87h12.17a.42.42 0 01.44.44.52.52 0 01-.44.43zM620.86 61.98H608.7a.42.42 0 01-.43-.44.42.42 0 01.43-.43h12.17a.42.42 0 01.44.43.52.52 0 01-.44.44z"/><path fill="#fff" d="M630.28 52.5a1.38 1.38 0 01-1.37-1.36 1.38 1.38 0 011.37-1.36 1.38 1.38 0 011.37 1.36 1.34 1.34 0 01-1.37 1.37zM642.52 51.58h-9.12a.43.43 0 010-.87h9.12a.43.43 0 110 .87zM650.17 52.5a1.38 1.38 0 01-1.36-1.36 1.38 1.38 0 011.36-1.36 1.38 1.38 0 011.37 1.36 1.38 1.38 0 01-1.37 1.37zM662.38 51.58h-9.12a.43.43 0 010-.87h9.12a.43.43 0 010 .87zM669.94 52.5a1.38 1.38 0 01-1.37-1.36 1.38 1.38 0 011.37-1.36 1.38 1.38 0 011.37 1.36 1.3 1.3 0 01-1.37 1.37z"/><path fill="#b7e2e6" d="M706.28 75.8a1.38 1.38 0 01-1.37-1.37 1.38 1.38 0 011.37-1.36 1.38 1.38 0 011.36 1.36 1.38 1.38 0 01-1.36 1.37z"/><path fill="#fff" d="M682.24 51.58h-9.13a.43.43 0 010-.87h9.13a.43.43 0 010 .87zM629.9 54.68h63.28v.25H629.9zM655.2 59.59h-25.77a.43.43 0 010-.87h25.71a.42.42 0 01.43.43.35.35 0 01-.37.44z"/><path fill="#7aafb4" d="M634.42 75.05h-2.92a1.33 1.33 0 01-1.3-1.36v-2.92a1.37 1.37 0 011.3-1.37h2.92a1.33 1.33 0 011.3 1.37v2.92a1.26 1.26 0 01-1.3 1.36zM666.24 70.64h-26.7a.43.43 0 010-.87h26.7a.42.42 0 01.44.44.52.52 0 01-.44.43z"/><path fill="#fff" d="M676.68 73h-36.95a.43.43 0 110-.87h36.95a.42.42 0 01.43.44.52.52 0 01-.43.43z"/><path fill="#7aafb4" d="M634.42 93h-2.92a1.33 1.33 0 01-1.3-1.36v-2.92a1.37 1.37 0 011.3-1.37h2.92a1.33 1.33 0 011.3 1.37v2.91a1.29 1.29 0 01-1.3 1.37zM709.2 59.65h-2.93a1.33 1.33 0 01-1.3-1.37v-2.92a1.37 1.37 0 011.3-1.36h2.92a1.33 1.33 0 011.3 1.36v2.92a1.33 1.33 0 01-1.3 1.37zM666.24 88.53h-26.7a.43.43 0 110-.87h26.7a.42.42 0 01.44.43.47.47 0 01-.44.44z"/><path fill="#fff" d="M676.68 90.89h-36.95a.43.43 0 010-.87h36.95a.42.42 0 01.43.43.52.52 0 01-.43.44z"/><path fill="#8dc3c5" d="M612.8 39.34h-.74a1.51 1.51 0 01-1.5-1.49v-.8a1.51 1.51 0 011.5-1.5h.74a1.51 1.51 0 011.5 1.5v.74a1.52 1.52 0 01-1.5 1.55z"/><path fill="#fff" d="M656.84 39.34h-38.51a.56.56 0 01-.56-.56v-2.67a.56.56 0 01.56-.56h38.5a.56.56 0 01.56.56v2.67a.6.6 0 01-.55.56z"/><path fill="#7aafb4" d="M690.52 107.66h-58.26a1.33 1.33 0 01-1.3-1.37v-6.4a1.37 1.37 0 011.3-1.36h58.25a1.33 1.33 0 011.3 1.36v6.4a1.33 1.33 0 01-1.3 1.37zM715.9 87.78h-10.62a.43.43 0 010-.87h10.62a.43.43 0 110 .87zM715.9 52.07h-10.62a.43.43 0 010-.87h10.62a.43.43 0 110 .87z"/><path fill="#fff" d="M720.68 102.88h-15.27a.25.25 0 010-.5h15.27c.13 0 .19.06.25.18a.28.28 0 01-.25.32zM720.68 104.18h-15.27a.25.25 0 010-.5h15.27a.25.25 0 010 .5zM716.34 105.49H705.4a.25.25 0 010-.5h10.93a.25.25 0 110 .5zM720.8 54.87h-8.93a.25.25 0 110-.5h8.94c.12 0 .19.06.25.19 0 .25-.13.31-.25.31zM720.8 56.36h-8.93a.25.25 0 110-.5h8.94c.12 0 .19.06.25.19 0 .25-.13.31-.25.31zM716.34 57.91h-4.41a.25.25 0 010-.5h4.4c.13 0 .2.07.25.19-.06.19-.12.31-.24.31z"/><path fill="#7aafb4" d="M709.2 69.59h-2.93a1.33 1.33 0 01-1.3-1.37V65.3a1.37 1.37 0 011.3-1.36h2.92a1.33 1.33 0 011.3 1.36v2.92a1.37 1.37 0 01-1.3 1.37z"/><path fill="#fff" d="M720.8 64.8h-8.93a.25.25 0 110-.5h8.94c.12 0 .19.07.25.2 0 .24-.13.3-.25.3zM720.8 66.36h-8.93a.25.25 0 110-.5h8.94c.12 0 .19.06.25.19a.28.28 0 01-.25.31zM720.8 73.88h-12.23a.25.25 0 010-.5h12.24c.12 0 .19.06.25.18a.28.28 0 01-.25.32zM713.98 75.37h-5.4a.25.25 0 010-.5h5.4c.12 0 .18.06.25.18 0 .25-.13.32-.25.32zM706.28 80.08a1.38 1.38 0 01-1.37-1.36 1.38 1.38 0 011.37-1.37 1.38 1.38 0 011.36 1.37 1.3 1.3 0 01-1.36 1.36zM720.8 78.22h-12.23a.25.25 0 010-.5h12.24c.12 0 .19.06.25.19a.28.28 0 01-.25.31zM713.98 79.71h-5.4a.25.25 0 010-.5h5.4c.12 0 .18.07.25.19 0 .25-.13.31-.25.31zM716.34 67.85h-4.41a.25.25 0 010-.5h4.4c.13 0 .2.06.25.19-.06.25-.12.31-.24.31zM661.16 76.36h-21.6a.25.25 0 110-.5h21.6c.13 0 .2.06.25.19-.06.24-.12.3-.24.3zM661.16 77.91h-21.6a.25.25 0 010-.5h21.6c.13 0 .2.06.25.19-.06.19-.12.31-.24.31zM650.2 79.4h-10.74a.25.25 0 110-.5h10.74c.12 0 .19.06.25.19-.06.19-.12.31-.25.31zM661.16 94.06h-21.6a.25.25 0 110-.5h21.6a.25.25 0 110 .5zM650.2 95.61h-10.74a.25.25 0 110-.5h10.74c.12 0 .19.06.25.19-.06.19-.12.31-.25.31z"/><g><path fill="#dac09b" d="M629.9 105.96c0 .93.07 1.86.07 2.8 0 .5.06.93.06 1.42l.06 1.43v.13l-.25 1.67c-.06.56-.18 1.12-.25 1.68l-.37 3.35a.34.34 0 01-.68-.06c.06-1.12.06-2.23.06-3.41v-3.23l-.31-1.37a8.81 8.81 0 00-.31-1.37c-.19-.93-.38-1.8-.62-2.73a1.44 1.44 0 011.05-1.55 1.22 1.22 0 011.5.93v.31z"/><path fill="#dac09b" d="M627.92 106.15c-.19 1.05-.25 2.05-.38 3.1a27.23 27.23 0 00-.24 3.1c-.07 1.06-.13 2.12-.13 3.17-.06 1.06-.06 2.12-.12 3.17a.35.35 0 01-.38.31.3.3 0 01-.3-.31l-.2-3.17-.18-3.16-.25-3.1a47.07 47.07 0 00-.3-3.11 1.26 1.26 0 112.48-.38v.38z"/><path fill="#a78d63" d="M630.15 110.5h-4.72c-.68-3.24-.56-5.78.56-7.77h3.3a21.82 21.82 0 01.86 7.76z"/><path fill="#327578" d="M628.6 120h.25l.06-1.12.5 1.12h1.49v-.25c0-.5-.69-.56-1.18-.56l-1.18-1.43c-.44.56.06 1.18.06 2.24zM626.24 120h1.24a1.77 1.77 0 000-.81c-.3-.06-.3-.93-.5-1.43h-.74a4.54 4.54 0 000 2.24z"/><path fill="#dac09b" d="M628.6 117.76l.43-.25.75 1.62zM626.3 117.76l.13 1.43h.68l-.06-1.43c-.06-.12-.75-.12-.75 0z"/><path fill="#327578" d="M631.64 94.66l-2.23.93-1.12.5-1.12.56a.6.6 0 00-.31.87.62.62 0 00.8.3c.38-.18.81-.3 1.19-.5l1.05-.5c.75-.3 1.5-.68 2.3-1.05z"/><path fill="#327578" d="M635.99 90.62c-.12-.12-.31-.06-.43 0-.38.31-.75.68-1.12 1.06l-1.06 1.05-2.11 2.11.87.87c.62-.74 1.3-1.49 1.92-2.3l.94-1.18.93-1.18c.25-.06.25-.31.06-.43z"/><path fill="#dac09b" d="M635.18 90.12l.38-.62a.32.32 0 01.24-.12l.56-.13c.19-.06.38.13.44.32v.18l-.31 1a.67.67 0 01-.87.43c-.06 0-.13-.06-.19-.06a.72.72 0 01-.25-1z"/><path fill="#327578" d="M629.22 102.73l.56-6.02a.77.77 0 00-.8-.75h-3.24a.8.8 0 00-.8.68l.99 6.03h3.3z"/><path fill="#fff" d="M649.34 92.3l-13.66 13.66a1.2 1.2 0 01-1.74 0l-5.77-5.78a1.2 1.2 0 010-1.73l13.66-13.67a1.2 1.2 0 011.74 0l5.77 5.78a1.2 1.2 0 010 1.74c.07-.07.07 0 0 0z"/><path fill="#7aafb4" d="M636.8 99.81l-2.05 2.05a1.35 1.35 0 01-1.86.06l-.07-.06-2.05-2.05a1.3 1.3 0 010-1.86l2.05-2.05a1.35 1.35 0 011.86-.06l.07.06 2.05 2.05a1.35 1.35 0 010 1.86z"/><g fill="#b7e2e6"><path d="M635.62 94.4a.23.23 0 01-.19-.05.28.28 0 010-.31l7.2-7.2a.28.28 0 01.31 0 .28.28 0 010 .3l-7.14 7.15c-.06.06-.12.06-.18.12zM636.49 95.22a.23.23 0 01-.19-.07.28.28 0 010-.3l7.14-7.15c.06-.12.19-.12.31 0 .13.06.13.19 0 .31l-7.14 7.15c0 .06-.06.06-.12.06zM637.36 96.09a.23.23 0 01-.19-.07.28.28 0 010-.3l7.14-7.2c.07-.13.19-.13.31 0 .13.05.13.18 0 .3l-7.14 7.2c-.06.07-.06.07-.12.07zM638.16 96.95a.23.23 0 01-.18-.06.28.28 0 010-.3l7.2-7.2a.22.22 0 11.3.3l-7.13 7.2c-.06 0-.12.06-.19.06zM639.03 97.76a.23.23 0 01-.18-.06.28.28 0 010-.31l7.2-7.14a.22.22 0 11.3.3l-7.13 7.15a.23.23 0 01-.19.06zM639.9 98.63a.23.23 0 01-.18-.06.28.28 0 010-.31l7.14-7.14a.22.22 0 11.31.3l-7.14 7.15c0 .06-.06.06-.13.06z"/></g><path fill="#fff" d="M627.3 97.02h1.3a.28.28 0 00.3-.25v-.8h-2.72a.06.06 0 00.06.05l.56.69c.06.25.25.3.5.3z"/><path fill="#327578" d="M626.05 96.7l1.3 4.66-.61-.43 3.6.06a.31.31 0 010 .62l-3.54.5a.55.55 0 01-.63-.37v-.06l-1.36-4.6a.55.55 0 01.43-.75.62.62 0 01.81.38z"/><path fill="#5f281b" d="M627.85 91.8v3.79h2.3c-1.3-1.37.25-3.48-1.3-4.66z"/><path fill="#dac09b" d="M630.65 101.61l.56-.37.18-.19.13-.5a.27.27 0 00-.25-.37h-.19l-.99.31a.63.63 0 00-.44.8.22.22 0 00.07.13.75.75 0 00.93.2zM627.1 95.96h.88V94.6l-1.06-.12z"/><path fill="#dac09b" d="M628.97 92.05c0-.62-.37-.93-1.3-.93-.87 0-1.3.37-1.3.93 0 .5-.06 1.36-.06 1.8a1.53 1.53 0 00.56 1.18 1.15 1.15 0 00.75.3 1.03 1.03 0 00.74-.3 1.53 1.53 0 00.56-1.18 5.78 5.78 0 00.05-1.8z"/><path fill="#5f281b" d="M626.92 90.25a2.27 2.27 0 011.56.18c.74.5.86 1.62-1.43 1.62a2.55 2.55 0 00-.37 1.49h-.38a6.38 6.38 0 01-.12-2.42 1.17 1.17 0 01.74-.87z"/><path fill="#5f281b" d="M625.56 95.59h1.92c-1.86-1.74 1-5.16-.68-5.16-1.42 0-2.05 2.92-1.24 5.16z"/><path fill="#dac09b" d="M626.05 92.92c-.12 0-.18.25-.12.5a.47.47 0 00.12.3l.19-.61a.2.2 0 00-.19-.2z"/><path fill="#462c23" d="M627.49 92.98h-.44c-.06 0-.06 0-.06-.06s0-.06.06-.06h.5c.06 0 .06 0 .06.06-.07.06-.07.06-.12.06zM628.79 92.98h-.44c-.06 0-.06 0-.06-.06s0-.06.06-.06h.5c.06 0 .06 0 .06.06s-.06.06-.12.06zM627.3 93.1c-.07 0-.13.13-.13.25s.06.25.12.25.13-.12.13-.25-.06-.25-.12-.25zM628.54 93.1c-.06 0-.13.13-.13.25s.07.25.13.25.12-.12.12-.25-.06-.25-.12-.25z"/><path fill="#c0a75c" d="M628.1 93.35a1 1 0 00.19.56v.13l-.25.06a.12.12 0 110-.25h.06l.25.06-.06.13a.61.61 0 01-.19-.69z"/><path fill="#fff" d="M628.41 94.4a.6.6 0 01-.8.2l-.19-.2z"/><path fill="#5f281b" d="M627.3 92.48a2.08 2.08 0 001.36-1.12l.25.2c-.19.55-.8.8-1.61.92z"/></g><g><path fill="#fff" d="M666.91 120a.13.13 0 00.13-.12V95.47a.12.12 0 00-.25 0v24.4c0 .07.06.07.12.13zM656.73 120c.06 0 .06-.06.12-.06l4.72-24.6c.07-.06 0-.12-.06-.12s-.12 0-.12.12l-4.78 24.47c0 .07 0 .13.12.19z"/><path fill="#fff" d="M662.13 120c.06 0 .06-.06.13-.06l4.78-24.53c0-.07 0-.13-.06-.13s-.13 0-.13.06l-4.84 24.47c-.06.07 0 .13.12.19z"/><path fill="#fff" d="M661.45 95.47h5.4a.13.13 0 00.12-.13.13.13 0 00-.12-.12h-5.4a.13.13 0 00-.12.12zM660.77 98.95h5.4a.12.12 0 000-.25h-5.4a.13.13 0 00-.13.12zM660.08 102.49h5.4a.12.12 0 100-.25h-5.4a.13.13 0 00-.12.12zM659.46 105.96h5.4a.12.12 0 100-.24h-5.4a.13.13 0 00-.12.12.13.13 0 00.12.12zM658.72 109.44h5.4a.12.12 0 000-.25h-5.4a.13.13 0 00-.13.13c.06.12.13.12.13.12zM658.1 112.98h5.34a.12.12 0 000-.25h-5.34a.12.12 0 000 .25zM657.41 116.46h5.4a.12.12 0 100-.25h-5.4a.13.13 0 00-.12.13.13.13 0 00.12.12z"/><path fill="none" stroke="#327578" stroke-linecap="round" stroke-linejoin="round" stroke-miterlimit="10" d="M666.91 120a.13.13 0 00.13-.12h0V95.47a.12.12 0 00-.25 0v24.4c0 .07.06.07.12.13zM656.73 120c.06 0 .06-.06.12-.06l4.72-24.6c.07-.06 0-.12-.06-.12s-.12 0-.12.12l-4.78 24.47c0 .07 0 .13.12.19z"/><path fill="none" stroke="#327578" stroke-linecap="round" stroke-linejoin="round" stroke-miterlimit="10" d="M662.13 120c.06 0 .06-.06.13-.06l4.78-24.53c0-.07 0-.13-.06-.13s-.13 0-.13.06l-4.84 24.47c-.06.07 0 .13.12.19z"/><path fill="none" stroke="#327578" stroke-linecap="round" stroke-linejoin="round" stroke-miterlimit="10" d="M661.45 95.47h5.4a.13.13 0 00.12-.13.13.13 0 00-.12-.12h-5.4a.13.13 0 00-.12.12h0zM660.77 98.95h5.4a.12.12 0 000-.25h-5.4a.13.13 0 00-.13.12zM660.08 102.49h5.4a.12.12 0 100-.25h-5.4a.13.13 0 00-.12.12h0zM659.46 105.96h5.4a.12.12 0 100-.24h-5.4a.13.13 0 00-.12.12h0a.13.13 0 00.12.12zM658.72 109.44h5.4a.12.12 0 000-.25h-5.4a.13.13 0 00-.13.13h0c.06.12.13.12.13.12zM658.1 112.98h5.34a.12.12 0 000-.25h-5.34a.12.12 0 000 .25zM657.41 116.46h5.4a.12.12 0 100-.25h-5.4a.13.13 0 00-.12.13h0a.13.13 0 00.12.12z"/></g><g><path fill="#82d6be" d="M664.66 76.88l3.29-1.67a.41.41 0 01.43.12.3.3 0 01-.06.43l-3.85 2.61c-.62.31-.8-.99.19-1.49z"/><path fill="#4dabf7" d="M659.56 74.59a.66.66 0 01.81-.2l3.42 2.3c1.11.7.99 1.3.62 1.56a.39.39 0 01-.5-.06l-4.22-2.73a.66.66 0 01-.13-.87z"/><path fill="#cdbe9e" d="M667.45 74.83l.56-.37a.37.37 0 01.25-.06l.56.06c.19.06.31.19.25.37a.22.22 0 01-.06.13l-.69.8a.68.68 0 01-.93.13c-.06-.06-.12-.13-.12-.19a.7.7 0 01.18-.87z"/><path fill="#327578" d="M664.81 94.2a.48.48 0 00.25.24c.43.19 1 .19 1.12.56l.06.25h-2.48l-.07-.87z"/><path fill="#dac09b" d="M663.75 93.82h.81l.25.37c-.5.5-.8.56-1.06.19zM660.96 97.36h.8l.25.43c.2.38-1.05.44-1.05 0z"/><path fill="#327578" d="M662.02 97.8l.06.12c.3.18.56.31.56.56v.25h-1.68v-.93c0-.2.8.18 1.06 0z"/><path fill="#ade0fc" d="M666.12 95.06v.19h-2.49v-.19zM662.64 98.54v.19h-1.68v-.19z"/><path fill="#a78d63" d="M666.86 88.04l-2.67-4.65a.99.99 0 00-1.24-.38.06.06 0 00-.07.07l-.43.3a.9.9 0 00-.31 1.25.06.06 0 00.06.06l1.99 3.04s.68.81 1.18 1.43a.96.96 0 001.3.13.97.97 0 00.19-1.25z"/><path fill="#a78d63" d="M666.36 87.61a.85.85 0 00-.99.56L663.63 94h1.18l2.11-5.28a.78.78 0 00-.5-1.06zM660.22 83.57l.12 3.48c0 1.18.06 2.36.12 3.48l.38 6.95h1.05l.25-6.89v-.87l.06-.87.13-1.74.24-3.47z"/><path fill="#a78d63" d="M660.84 84.57h3.23a.64.64 0 00.62-.69V82.7h-4.48v1.18a.64.64 0 00.63.69z"/><path fill="#82d6be" d="M666.8 78.6l2.67-2.54a.3.3 0 01.43 0 .38.38 0 01.07.5l-2.92 3.54c-.44.43-1.06-.68-.25-1.5z"/><path fill="#82d6be" d="M664.19 74.57a.65.65 0 01.8.25l1.8 3.72c.63 1.18.26 1.68-.24 1.68a.63.63 0 01-.5-.31l-2.1-4.47a.67.67 0 01.24-.87z"/><path fill="#7aafb4" d="M670.28 67.67h10.93a1.87 1.87 0 011.86 1.87v5.09a1.97 1.97 0 01-1.86 1.93h-1.5v2.1l-2.1-2.1h-7.33a1.87 1.87 0 01-1.87-1.87v-5.1a1.88 1.88 0 011.87-1.92z"/><path fill="#d3fdf1" d="M671.64 70.47h8.26a.31.31 0 100-.62h-8.26a.31.31 0 000 .62zM671.64 72.27h8.26a.31.31 0 100-.62h-8.26a.31.31 0 000 .62zM671.64 74.07h8.26a.31.31 0 100-.62h-8.26a.31.31 0 000 .62z"/><path fill="#dac09b" d="M668.85 76l.12-.69a.47.47 0 01.13-.25l.43-.3a.39.39 0 01.5.05.23.23 0 01.06.2l.06 1.05a.69.69 0 01-.62.74h-.18a.71.71 0 01-.5-.8z"/><path fill="#82d6be" d="M664.69 84.2l.24-9.2a.95.95 0 00-.93-.93h-3.9a.95.95 0 00-.94.93l1 9.2z"/><g><path fill="#dac09b" d="M662.43 73.38a1.67 1.67 0 001.67-1.68v-1.05a1.67 1.67 0 00-1.67-1.68 1.67 1.67 0 00-1.68 1.68v1.05a1.67 1.67 0 001.68 1.68z"/><path fill="#dac09b" d="M661.43 72.64h1.43V74h-1.43z"/><path fill="#5f281b" d="M662.43 68.97a1.67 1.67 0 00-1.68 1.68v1.05a1.65 1.65 0 00.68 1.37.72.72 0 001.06-.19l.62-.86.62-2.49a1.7 1.7 0 00-1.3-.56z"/><path fill="#5f281b" d="M663.92 69.84a1.8 1.8 0 00-1.5-.87 1.67 1.67 0 00-1.67 1.68v.8h2.48c.5 0 .81-1.36.69-1.61z"/><path fill="#5f281b" d="M661.93 68.97c-.5-.43-1.74.06-1.93.56h.5a.7.7 0 00-.37.87c0 .06.06.12.12.18a1.1 1.1 0 01.44-.5.95.95 0 00-.13 1.06 1.35 1.35 0 00.31-.5.63.63 0 00.13.56 7.77 7.77 0 00.93-2.23z"/><path fill="#5f281b" d="M661.87 69.34c0-1.11 1.61-1.18 2.86-.3a5.82 5.82 0 00-1-.26 1.6 1.6 0 011.18.81 1.27 1.27 0 01-.68 0 .85.85 0 01.5.62.8.8 0 01-.8-.3 2.18 2.18 0 01.36.86 2.76 2.76 0 00-1.36-.62 1.97 1.97 0 01.74.5 1.93 1.93 0 01-1.61-.37 1.1 1.1 0 01-.44.5c-.12-.32-.31-1.13.25-1.44z"/><path fill="#dac09b" d="M663.17 71.27a.13.13 0 00-.12.12v.5a.12.12 0 00.25 0v-.5a.13.13 0 00-.13-.12z"/></g></g><g><path fill="#a78d63" d="M598.92 68.79a.86.86 0 00-.93-.87h-.07a.9.9 0 00-.8 1v.06l.86 6.9h1.06z"/><path fill="#dac09b" d="M597.98 75.87v.25a.51.51 0 00.63.43.54.54 0 00.43-.56v-.18h-1.06z"/><path fill="#a78d63" d="M597.86 62.14l-.62.07a.85.85 0 00-.8.93v.06l.74 5.78a.93.93 0 00.93.8 1 1 0 00.87-.93l-.13-5.84a.92.92 0 00-.99-.87z"/><path fill="#a78d63" d="M595.25 63.88h2.61a.98.98 0 001-1v-.92h-4.54v.93a.93.93 0 00.93 1z"/><path fill="#a78d63" d="M595.81 62.14h-.62a1.07 1.07 0 00-1.06.94l-.68 5.83a.8.8 0 00.62.87h.19a1.12 1.12 0 001.05-.87l1.3-5.83a.88.88 0 00-.55-.94z"/><path fill="#dac09b" d="M592.64 75.93v.13a.47.47 0 00.38.5h.06a.65.65 0 00.62-.5v-.13z"/><path fill="#a78d63" d="M595.25 68.85a.77.77 0 00-.5-.93h-.18a1.07 1.07 0 00-1.06.93l-.87 7.08h1.06z"/><path fill="#dac09b" d="M598.21 57.41h1.43l.13 2.11a.62.62 0 01-.56.69.64.64 0 01-.69-.63z"/><path fill="#fff" d="M599.52 54.5a.94.94 0 00-.93-.88.83.83 0 00-.74.93v.07l.36 2.92h1.44z"/><g fill="#dac09b"><path d="M599.7 60.24l4.35-3.36a.4.4 0 00.07-.55.34.34 0 00-.5-.13l-4.6 2.98a.61.61 0 00-.18.87.61.61 0 00.87.19z"/><path d="M604.43 57.2l.62-.38.18-.18.2-.56a.35.35 0 00-.26-.44H605l-1 .25a.62.62 0 00-.5.8c0 .07.06.13.06.2a.64.64 0 00.87.3z"/></g><path fill="#fff" d="M599.23 54.38a1.27 1.27 0 00-.87-1.18 8.04 8.04 0 00-4.54 0 1.1 1.1 0 00-.74 1.18c.37 2.48.8 5.03 1.24 7.76h4.53c.13-2.73.25-5.34.38-7.76z"/><path fill="#82d6be" d="M593.02 54.38c.18 1.12.5 3.04.68 4.72a17.96 17.96 0 010 4.47h1.99l.56-4.34-1.5-6.21a5.17 5.17 0 00-.93.24 1.09 1.09 0 00-.8 1.12zm5.21-1.18l-.87 5.96.5 4.41h1c.12-3.6.25-6.7.37-9.19a1.27 1.27 0 00-.87-1.18z"/><path fill="#327578" d="M600.03 63.51h8.58a1.51 1.51 0 001.49-1.49v-8.57a1.51 1.51 0 00-1.5-1.5h-8.57a1.51 1.51 0 00-1.49 1.5v8.57a1.55 1.55 0 001.5 1.5z"/><path fill="#7aafb4" d="M603.2 60.6a5.51 5.51 0 00-.06-1.44 4.02 4.02 0 01-.5-.55 5.46 5.46 0 01-.62-2.24 2.58 2.58 0 01.18-1 1.38 1.38 0 01-.5-.8c1.18.3.87-1.12 2.68-1.12a2.31 2.31 0 011.73.8.63.63 0 01.13.57.83.83 0 01-.19.3 2.83 2.83 0 01.31 1.25 5.74 5.74 0 01-.62 2.24 2.14 2.14 0 01-.5.55 11 11 0 00-.06 1.43 12.85 12.85 0 001.43.25 3.25 3.25 0 01-4.6.37l-.36-.37c.68-.12 1.3-.19 1.55-.25z"/><path fill="#dac09b" d="M597.42 53.02a10.54 10.54 0 00-2.42-.07l1.8 2.24a22.2 22.2 0 00.62-2.17z"/><g fill="#82d6be"><path d="M592.52 57.1l1.37.31-.32 2.11a.73.73 0 01-.68.56.74.74 0 01-.56-.8z"/><path d="M594.38 54.5a.9.9 0 00-.68-1.06.88.88 0 00-.93.74v.06l-.25 2.92 1.36.31z"/></g><path fill="#a78d63" d="M592.58 76.06h1.11c.13 0 .25-.07.25-.19l.06-.31c0-.06-.06-.19-.12-.19h-1.17c-.13 0-.25.06-.25.19l-.07.31a.2.2 0 00.2.19zM598.05 76.12l1.11-.06a.17.17 0 00.19-.19v-.37a.17.17 0 00-.19-.19h-.06l-1.12.06a.17.17 0 00-.19.19v.37c.07.06.13.19.26.19z"/><path fill="#dac09b" d="M595.73 53.14h.87v-1.18l-1-.12z"/><path fill="#327578" d="M597.28 49.04a17.32 17.32 0 010 1.8h.37a6.7 6.7 0 00.13-2.48z"/><path fill="#dac09b" d="M597.65 49.29c0-.56-.43-.93-1.3-.93s-1.3.37-1.3.93c0 .5-.07 1.37-.07 1.86a1.41 1.41 0 00.63 1.18 1.23 1.23 0 00.74.38 1.3 1.3 0 00.8-.32 1.6 1.6 0 00.63-1.18c0-.55-.12-1.42-.12-1.92z"/><path fill="#327578" d="M595.3 51.4l1.36-.25 1 .25a1.3 1.3 0 01-.5 1 1.83 1.83 0 01-.81.3 1.03 1.03 0 01-.75-.3 1.6 1.6 0 01-.62-1.19v-.37h.31zM595.73 47.61h1.3c.44 0 1.13-.06 1.13.44 0 .43-.38.93-1.25.93-.93 0-1.55-.25-1.67 0l.06 1.86h-.38a6.64 6.64 0 01-.12-2.48.99.99 0 01.93-.75z"/><path fill="#fff" d="M596.16 51.46a.43.43 0 00.87 0 2.05 2.05 0 01-.87 0z"/><path fill="#dac09b" d="M594.61 50.72c.06.25.25.5.37.5s.2-.25.13-.5-.31-.5-.44-.5-.18.19-.06.5z"/><path fill="#462c23" d="M596.16 50.1h-.5c-.06 0-.06 0-.06-.07s0-.06.06-.06h.5c.07 0 .07 0 .07.06s0 .07-.07.07zM597.53 50.1h-.5c-.06 0-.06 0-.06-.07s0-.06.06-.06h.5a.06.06 0 01.06.06zM596.04 50.4c0 .13-.06.25-.12.25s-.07-.06-.07-.24.07-.25.13-.25c.06.06.06.12.06.25zM597.34 50.4c0 .13-.06.25-.12.25s-.06-.06-.06-.24.06-.25.12-.25c.06.06.06.12.06.25z"/><path fill="#c0a75c" d="M596.72 50.34v.69h-.24a.12.12 0 000 .25l.5-.07v-.06z"/><path fill="#327578" d="M597.72 47.24c.06.12.06.31-.07.37-.06 0-.06.06-.12.06l-1.86.19s1.24-.5 1.74-.74a.47.47 0 01.3.12z"/><g fill="#dac09b"><path d="M592.9 60.11l5.4.93c.2.06.38-.06.44-.3a.4.4 0 00-.3-.5l-5.22-1.37a.71.71 0 00-.8.43.68.68 0 00.5.8z"/><path d="M598.37 61.6l.69.25h.24l.5-.25a.33.33 0 00.13-.5c0-.06-.06-.06-.13-.12l-.86-.62a.68.68 0 00-.94.18v.13a.62.62 0 00.31.86.06.06 0 00.06.07z"/></g><path fill="#327578" d="M599.16 76.74a.48.48 0 00.25.25c.44.18 1 .18 1.12.56l.06.24h-2.48v-.86z"/><path fill="#dac09b" d="M598.1 76.37c0-.38.7-.31.81 0l.25.37c-.5.5-.8.56-1.05.19z"/><path fill="#327578" d="M593.51 76.8q.1 0 .19.19c.31.12.5.3.43.56l-.06.24h-1.68l.2-.93.92-.06z"/><path fill="#dac09b" d="M592.64 76.43c.06-.25.25-.37.44-.31a.33.33 0 01.3.3l.2.44c-.88-.18-1 .75-1.06 0z"/><path fill="#6cd6f6" d="M594.13 77.6l-.06.2h-1.68l.07-.2zM600.53 77.6l.06.2h-2.54v-.2z"/></g><g fill="#0c8599"><path d="M592.12 119.8a.13.13 0 00.13-.13v-41.8a.13.13 0 00-.13-.12.13.13 0 00-.12.13v41.8a.13.13 0 00.12.12z"/><path d="M592.12 97.5h8.45a.12.12 0 000-.25h-8.45a.13.13 0 00-.12.13.13.13 0 00.12.12zM592.12 105.14h8.45a.12.12 0 000-.25h-8.45a.12.12 0 000 .25zM592.12 112.78h8.45a.12.12 0 100-.25h-8.45a.12.12 0 100 .25zM592.12 101.1h8.45a.12.12 0 100-.24h-8.45a.12.12 0 100 .24zM592.12 108.74h8.45a.12.12 0 100-.24h-8.45a.13.13 0 00-.12.12c0 .12.06.12.12.12zM592.12 82.22h8.45a.12.12 0 000-.24h-8.45a.12.12 0 100 .24zM592.12 78h8.45a.13.13 0 00.12-.12.13.13 0 00-.12-.13h-8.45a.13.13 0 00-.12.13.13.13 0 00.12.12zM592.12 89.86h8.45a.12.12 0 000-.24h-8.45a.12.12 0 000 .24zM592.12 85.83h8.45a.12.12 0 000-.25h-8.45a.12.12 0 100 .25zM592.12 93.47h8.45a.12.12 0 000-.25h-8.45c-.06.06-.12.06-.12.12a.13.13 0 00.12.12z"/><path d="M600.57 119.8a.13.13 0 00.12-.13v-41.8a.12.12 0 00-.24 0v41.8a.13.13 0 00.12.13z"/></g><g transform="translate(634.54 2)"><path fill="#dac09b" d="M6.09 15.1v7.01l-.19 1.74a16.52 16.52 0 01-.19 1.74l-.12 1.74-.19 1.74h-.62a16.27 16.27 0 01-.06-1.74l-.06-1.74-.06-1.74-.07-1.74a1.06 1.06 0 00-.06-.43l-.12-.44-.06-.86-.19-1.74-.19-1.75-.18-1.74z"/><path fill="#dac09b" d="M4.04 15.22a15.38 15.38 0 01-.19 1.67l-.12 1.68-.19 1.68-.19 1.67V22l-.3 1.74a17.02 17.02 0 00-.32 1.73l-.37 1.74-.37 1.74-.62-.06c0-.62.06-1.18.06-1.8l.12-1.8c.06-.62.06-1.18.13-1.8l.12-1.8v-6.59z"/><path fill="#69a9cc" d="M4.16 20.37v-.13c0-.18-.06-.3-.06-.5-.06-.37-.06-.74-.13-1.11l-.18-1.74c0-.19-.06-.38-.06-.62a6 6 0 000-1.06v-.12l2.48-.12v5.46l-2.05-.06z"/><path fill="#69a9cc" d="M1.68 20.37v-5.4l2.48.12v.13c0 .37-.06.74-.06 1.11 0 .19-.06.38-.06.56l-.19 1.68c-.06.37-.06.74-.12 1.12a1.69 1.69 0 010 .55v.19z"/><path fill="#69a9cc" d="M2.3 16.27h3.23a.64.64 0 00.62-.68v-.62a.56.56 0 00-.56-.56H2.24a.56.56 0 00-.56.56v.62a.6.6 0 00.62.68z"/><path fill="#dac09b" d="M5.49 6.23L10.39 4V5.1L5.86 2.63a.36.36 0 01-.19-.44.44.44 0 01.38-.18L10.89 4a.55.55 0 01.31.74.75.75 0 01-.31.31L5.92 7.3a.64.64 0 01-.8-.31.63.63 0 01.37-.75z"/><path fill="#a78d63" d="M6.04 7.54a.78.78 0 01-.99-.44.77.77 0 01.31-1.12 15.17 15.17 0 011.5-.62L7.1 7.1z"/><path fill="#dac09b" d="M5.49 2.94l-.62-.31c-.06 0-.13-.06-.2-.12l-.18-.56a.32.32 0 01.19-.44h.19l.99.19a.64.64 0 01.56.74c0 .06-.06.13-.06.19a.62.62 0 01-.87.31z"/><path fill="#a78d63" d="M6.15 13.97l.25-7.45a.95.95 0 00-.94-.93H1.63a.95.95 0 00-.94.93l.94 7.4-.2 1.3h4.79z"/><path fill="#c0a75c" d="M2.73 5.65a.87.87 0 001.74 0H2.73zM2.92 5.65h1.12V4.53l-1.06-.18z"/><path fill="#15325c" d="M4.72 1.61a17.32 17.32 0 010 1.8h.31a4.32 4.32 0 00.25-2.3c-.19-.43-1-.43-1-.43z"/><path fill="#dac09b" d="M5.1 1.86q0-.93-1.3-.93t-1.3.93c0 .5-.07 1.37-.07 1.8A1.76 1.76 0 003 4.84a1.18 1.18 0 00.8.31 1.3 1.3 0 00.81-.3 1.53 1.53 0 00.56-1.19c0-.43-.07-1.3-.07-1.8z"/><path fill="#15325c" d="M2.73 3.42l.25.5 1.12-.19 1.06.12-.13.69a.76.76 0 01-.74.74h-.63a1.38 1.38 0 01-1.18-.8 2.15 2.15 0 01-.12-1.06zM2.73 1.61a17.32 17.32 0 000 1.8h-.3a5.75 5.75 0 01-.2-2.04z"/><path fill="#15325c" d="M5.28.93C5.22.56 4.78 0 3.42 0s-1.56 1.24-2.3 1.37a6.17 6.17 0 003.91.3l.31-.3c0-.19-.06-.31-.06-.44z"/><path fill="#fff" d="M3.6 3.98a.43.43 0 00.87 0 2.05 2.05 0 01-.87 0z"/><path fill="#c0a75c" d="M1.99 3.23c.06.25.25.5.37.5s.19-.24.12-.5-.24-.5-.37-.5-.18.25-.12.5z"/><ellipse cx=".12" cy=".25" fill="#462c23" rx=".12" ry=".25" transform="translate(3.23 2.73)"/><path fill="#462c23" d="M4.78 2.98c0 .12-.06.25-.12.25s-.13-.12-.13-.25.07-.25.13-.25.12.13.12.25z"/><path fill="#c0a75c" d="M4.1 2.86l.19.8c0 .07 0 .07-.07.07l-.3.06c-.07.06-.13 0-.2-.06a.13.13 0 01.13-.13l.31.06v.07z"/><path fill="#dac09b" d="M1.8 6.65A9.3 9.3 0 011.68 8c-.07.44-.07.94-.13 1.43a9.3 9.3 0 00-.12 1.37l-.19 1.36v3.66a7.92 7.92 0 01-.06 1.25.33.33 0 01-.31.3c-.13 0-.31-.12-.31-.24L.37 15.9c-.06-.44-.06-.8-.12-1.24s-.06-.8-.13-1.24L0 12.12v-.07l.12-1.37c.07-.5.07-.93.13-1.36l.18-1.37.2-1.43a.56.56 0 01.67-.56.61.61 0 01.5.69z"/><path fill="#a78d63" d="M.37 6.46a.77.77 0 01.87-.68.83.83 0 01.8.87c0 .8-.12 1.55-.18 2.3L0 8.2z"/><path fill="#dac09b" d="M.06 17.45v.75a.47.47 0 00.13.25l.43.3a.38.38 0 00.5 0 .23.23 0 00.06-.18l.25-1a.66.66 0 00-.5-.8H.74a.69.69 0 00-.68.68z"/><path fill="#6eb2d9" d="M6.27 20.37H4.1l-.12-1.05H6.2v1.05zM3.73 20.37H1.6l-.06-1.05h2.3z"/><g><path fill="#a78d63" d="M5.97 29.31a.51.51 0 01-.25-.37H4.66l-.06 1.18H7.1v-.25c0-.43-.69-.37-1.12-.56z"/><path fill="#255b5a" d="M5.29 29.81H4.6v.31H7.1V30h-1.3z"/><path fill="#fff" d="M5.84 29.25h-.12c-.06 0-.19-.06-.19-.12l-.18-.38c-.06-.06-.06-.12.06-.12h.12c.07 0 .19.06.19.12l.19.31c.06.13 0 .2-.07.2z"/></g><g><path fill="#a78d63" d="M2.3 29.31a.88.88 0 01-.13-.37h-.93l-.13 1.18H2.8v-.25c.06-.3-.19-.37-.5-.56z"/><path fill="#255b5a" d="M1.61 29.81h-.5v.31h1.74V30h-.93z"/><path fill="#fff" d="M2.17 29.25h-.25a.13.13 0 01-.12-.12l-.07-.38c-.06-.06 0-.12.07-.12h.3c.07 0 .13.06.2.12l.05.31c-.06.07-.06.13-.18.2z"/></g><path fill="#462c23" d="M3.66 2.6a.56.56 0 00-.62 0c-.06 0-.06.07-.06.13h.12a.68.68 0 01.5 0h.13c0-.06 0-.12-.07-.12zm1.37 0a.56.56 0 00-.62 0c-.06 0-.13.07-.06.13h.12a.68.68 0 01.5 0h.12c0-.06 0-.12-.06-.12z"/></g><g><path fill="#327578" d="M710.48 119.99a.35.35 0 01-.3-.38v-24.4a.3.3 0 01.3-.31.3.3 0 01.31.3v24.41a.31.31 0 01-.3.38z"/><g fill="#fff"><path d="M720.7 119.98a.28.28 0 01-.3-.25l-4.79-24.52a.35.35 0 01.68-.19l4.79 24.53a.27.27 0 01-.25.37h-.13zM715.3 119.98a.28.28 0 01-.31-.25l-4.78-24.52a.35.35 0 01.68-.19l4.78 24.53a.27.27 0 01-.25.37h-.12z"/></g><path fill="#fff" d="M715.95 95.45h-5.4a.3.3 0 01-.32-.3.35.35 0 01.31-.38h5.4a.3.3 0 01.31.31.35.35 0 01-.3.37zM716.57 98.93h-5.34a.31.31 0 010-.62h5.4a.3.3 0 01.3.31c0 .19-.12.31-.36.31zM717.31 102.47h-5.4a.31.31 0 010-.62h5.4a.31.31 0 110 .62zM717.94 105.95h-5.35a.31.31 0 010-.62h5.4a.3.3 0 01.32.31.35.35 0 01-.38.31zM718.62 109.49h-5.34a.31.31 0 110-.62h5.4a.3.3 0 01.3.31.35.35 0 01-.36.31zM719.3 112.97h-5.4a.31.31 0 010-.62h5.4a.3.3 0 01.31.3c.06.13-.12.32-.3.32zM719.98 116.45h-5.34a.31.31 0 110-.62h5.4a.3.3 0 01.31.3.35.35 0 01-.37.32z"/><path fill="#327578" d="M712.93 93.73a.48.48 0 01-.24.25c-.44.19-1 .19-1.12.56l-.06.25h2.48l-.06-.87z"/><path fill="#dac09b" d="M713.93 93.36h-.8l-.26.37c.5.5.81.56 1.06.19z"/><path fill="#327578" d="M715.6 97.46l-.06.12c-.3.19-.56.32-.56.56v.25h1.74v-.93z"/><path fill="#dac09b" d="M716.6 97.03h-.8l-.26.43c.87-.19.87.75 1.06 0z"/><path fill="#fff" d="M714.92 98.2v.2h1.74v-.2zM711.57 94.6l-.06.19h2.48v-.19z"/><path fill="#dfa570" d="M710.7 87.7l2.67-4.65a.99.99 0 011.24-.37.06.06 0 01.06.06l.44.31a.9.9 0 01.3 1.24.06.06 0 01-.05.07l-2 3.04s-.67.8-1.17 1.43a.96.96 0 01-1.3.12 1.16 1.16 0 01-.2-1.24z"/><path fill="#dfa570" d="M711.26 87.27a.73.73 0 01.93.56l1.86 5.72h-1.18l-2.23-5.16a.78.78 0 01.43-1.05c.06 0 .13-.07.19-.07zM717.4 83.24l-.12 3.48c-.06 1.18-.06 2.3-.18 3.47l-.37 6.96h-1.06l-.25-6.9v-.86l-.06-.87-.13-1.74-.25-3.48z"/><path fill="#dfa570" d="M716.79 84.23h-3.23a.64.64 0 01-.63-.68v-1.18h4.48v1.18a.64.64 0 01-.62.68z"/><path fill="#acd4d7" d="M713.68 75.04l-2.17 4.47a.55.55 0 01-.75.31c-.06-.06-.12-.06-.19-.18l-2.91-3.54a.39.39 0 01.06-.5.3.3 0 01.43 0l3.3 3.23-1 .18 2.11-4.47a.61.61 0 011.12.5z"/><path fill="#dac09b" d="M708.09 75.35l-.63-.37a.19.19 0 00-.24 0l-.5.12a.35.35 0 00-.25.44.22.22 0 00.06.12l.75.75a.76.76 0 001 0l.12-.13a.8.8 0 00-.31-.93z"/><path fill="#acd4d7" d="M712.93 83.8l-.24-9.2a.95.95 0 01.93-.93h3.85a.95.95 0 01.93.94l-1 9.19z"/><path fill="#fff" d="M717.22 73.61l-2.42 5.34-.93-5.34z"/><path fill="#dfa570" d="M714.8 78.95l.68-1.55-.25-2.55.5-.62-.5-.18-.5.18.38.62-.62 2.55z"/><g><path fill="#acd4d7" d="M718.59 74.67l.93 5.4v.06a.42.42 0 01-.18.5l-2.61 2.48a.38.38 0 01-.5 0 .3.3 0 010-.43l2.24-2.92-.13.56-.99-5.4a.64.64 0 01.5-.75.64.64 0 01.74.5z"/><path fill="#dac09b" d="M716.23 82.37l-.68-.25h-.25l-.5.25c-.19 0-.25.18-.19.37a.13.13 0 00.13.13l.8.62a.62.62 0 00.94-.13.2.2 0 00.06-.12.58.58 0 00-.31-.87z"/></g><g><path fill="#dac09b" d="M715.92 73.86c-.62.24-.93.18-.8-.31l.36-1 1.06.25z"/><path fill="#fff" d="M715.24 74.05l-1 .06.5-.68.5-.25a.74.74 0 000 .87z"/><path fill="#fff" d="M715.17 74.05l.69.68.37-.68-.19-.5a1.36 1.36 0 01-.87.5z"/><path fill="#5f281b" d="M715.86 69.57c-.25.56-.44 1.12-.62 1.68l-.32-.12a6.43 6.43 0 01.69-2.36z"/><path fill="#dac09b" d="M715.42 69.7c.19-.56.68-.75 1.55-.5s1.12.8.93 1.37c-.18.43-.37 1.3-.62 1.74a1.4 1.4 0 01-.93.93 1.06 1.06 0 01-.87 0 .92.92 0 01-.62-.56 1.39 1.39 0 01-.12-1.3c.12-.44.5-1.25.68-1.68z"/><path fill="#5f281b" d="M717.78 68.77l-1.24-.44c-.44-.12-1.06-.43-1.18 0-.19.44 0 1.06.8 1.3.87.31 1.56.31 1.56.56a16.4 16.4 0 01-.62 1.68l.31.12a5.3 5.3 0 00.93-2.3c.12-.36-.19-.74-.56-.92z"/><path fill="#dac09b" d="M717.84 72c-.18.25-.37.37-.5.37s-.12-.31 0-.5c.19-.25.38-.37.5-.31.19 0 .13.25 0 .44z"/><path fill="#462c23" d="M716.54 70.94l.43.19c.07 0 .07 0 .07-.06s0-.07-.07-.07l-.37-.18c-.06-.06-.06 0-.06 0a.09.09 0 000 .12zM715.24 70.5l.43.2c.06 0 .06 0 .06-.07s0-.06-.06-.06l-.37-.25c-.06 0-.06 0-.06.06zM716.54 71.25c-.06.13 0 .25.06.25s.13 0 .13-.12 0-.25-.07-.25a.13.13 0 00-.12.12zM715.3 70.88c-.07.12 0 .25.06.25s.12-.06.18-.19 0-.25-.06-.25c-.06-.06-.12.07-.18.19z"/><path fill="#c0a75c" d="M715.98 70.94l-.31.8-.06-.12.3.07-.05.24-.32-.18h-.12l.06-.13z"/><path fill="#5f281b" d="M716.04 67.77a.3.3 0 00-.06.38c0 .06.06.06.12.06.56.31 1.68.8 1.68.8s-.93-.86-1.36-1.24a.4.4 0 00-.38 0z"/><path fill="#fff" d="M715.11 72.06a5.46 5.46 0 00.93.31c-.12.5-1.05.19-.93-.31z"/></g></g><g><path fill="#12b886" d="M661.11 31.85h3.04a.67.67 0 00.63-.62V29.3h-4.29v1.93a.59.59 0 00.62.62z"/><path fill="#e2dce0" d="M669 38.3a.34.34 0 00.19.32c.3.3.86.5.8.8v.25l-2.23-.74.3-.75z"/><path fill="#dac09b" d="M668.13 37.69l.68.06.19.56c-.56.3-.87.3-1-.13z"/><path fill="#e2dce0" d="M663.9 38.12l.07.12c.31.13.56.31.56.56v.25h-1.62v-.87h1z"/><path fill="#12b886" d="M663.66 29.67l4.04 1h.06a.73.73 0 01.56.62l.62 6.46-.93.12-1.18-6.4.62.62-4.16-.3z"/><path fill="#dac09b" d="M662.91 37.75h.75l.25.37c-.87-.19-.87.68-1 0z"/><path fill="#12b886" d="M662.04 29.74l1.5.93.18.12a.74.74 0 01.31.56l-.25 6.46h-.93l-.31-6.4.43.68-1.73-.37z"/><path fill="#e2dce0" d="M664.53 38.87v.18h-1.68v-.18zM669.93 39.42v.19l-2.23-.68.06-.19z"/><path fill="#327578" d="M668.62 29.36l-2.6-2.6c-.5-.44-1.37.3-.88.8l3.05 2.3c.12.13.3.07.43 0a.38.38 0 000-.5z"/><path fill="#327578" d="M666.14 26.82l-1.3-4.97a.64.64 0 00-.75-.43.68.68 0 00-.44.74l1.43 5.28c.19.5 1.3.43 1.06-.62z"/><path fill="#dac09b" d="M668.5 29.99l.62.12a.37.37 0 00.25-.06l.43-.31a.33.33 0 00.13-.44c0-.06-.07-.06-.07-.12l-.8-.44a.73.73 0 00-.94.38v.06a.62.62 0 00.38.8z"/><path fill="#327578" d="M664.86 28.66l.05-6.34a1 1 0 00-.92-.93h-3.6a.85.85 0 00-.87.87v.06l1.05 6.34-.12 1.18 4.46-.37z"/><path fill="#fff" d="M663.12 21.4h-1.87c.81 1.73.81 4.65.62 8.25l2.24-.18c-.43-4.04.68-7.15-1-8.08z"/><path fill="#dac09b" d="M661.44 21.4a.85.85 0 00.87.86.82.82 0 00.8-.8h-1.67z"/><g><path fill="#327578" d="M660.5 22.15l-.07 5.46-.37-.56 3.41 1.68a.3.3 0 01-.18.55l-3.6-1.18a.42.42 0 01-.44-.43v-.06l.06-5.53a.61.61 0 01.62-.55.57.57 0 01.56.62z"/><path fill="#dac09b" d="M663.23 29.9l.62.2h.25l.5-.25a.32.32 0 00.18-.44c0-.06-.06-.06-.06-.12l-.74-.56a.68.68 0 00-.93.19c-.07.06-.07.06-.07.12a.55.55 0 00.25.8z"/></g><path fill="#dac09b" d="M661.67 21.41h1.12l-.06-1.05-1-.13z"/><g><path fill="#327578" d="M663.5 17.5a17.32 17.32 0 010 1.8h.31a4.32 4.32 0 00.25-2.3c-.18-.37-1-.43-1-.43z"/><path fill="#dac09b" d="M664 17.81q0-.93-1.3-.93t-1.3.93c0 .5-.07 1.37-.07 1.8a1.76 1.76 0 00.56 1.18 1.3 1.3 0 00.8.31 1.3 1.3 0 00.81-.3 1.53 1.53 0 00.56-1.19c0-.5-.06-1.36-.06-1.8z"/><path fill="#327578" d="M661.33 19.3v.31a1.76 1.76 0 00.56 1.18 1.3 1.3 0 00.8.31 1.3 1.3 0 00.81-.31 1.53 1.53 0 00.56-1.18v-.3l-.25.5h-1.86l-.37-.5zM661.58 17.5a17.32 17.32 0 000 1.8h-.31a5.75 5.75 0 01-.19-2.05z"/><path fill="#fff" d="M662.45 19.92a.42.42 0 00.43.44.52.52 0 00.44-.44 2.05 2.05 0 01-.87 0z"/><path fill="#dac09b" d="M660.83 19.18c.06.25.25.5.38.5s.18-.25.12-.5-.25-.5-.37-.5-.13.19-.13.5z"/><path fill="#462c23" d="M662.32 18.93c0 .12-.06.25-.12.25s-.06-.13-.06-.25.06-.25.12-.25a.64.64 0 01.06.25zM663.63 18.93c0 .12-.07.25-.13.25s-.12-.13-.12-.25.06-.25.12-.25.13.12.13.25z"/><path fill="#c0a75c" d="M662.94 18.8l.2.81c0 .06 0 .06-.07.06l-.31.07a.12.12 0 010-.25l.3.06-.05.06z"/><path fill="#327578" d="M661.58 17.5H664c.19-1.49-2.86-2.17-2.92-.25z"/><path fill="#c0a75c" d="M662.51 18.5a.56.56 0 00-.62 0 .2.2 0 00-.06.12h.12a.68.68 0 01.5 0h.12a.2.2 0 00-.06-.13zm1.37 0a.56.56 0 00-.63 0c-.06.06-.12.12-.06.12h.13a.53.53 0 01.43 0h.13v-.13z"/></g><g><path fill="#d6faf9" d="M670.04 25.6h-5.46v4.3h5.46a.27.27 0 00.25-.25v-3.73c0-.19-.06-.31-.25-.31z"/><path fill="#fff" d="M670.3 25.8c0-.13-.13-.2-.25-.2h-5.47v.2z" opacity=".5"/><path fill="#a8d8d7" d="M664.58 29.9a.28.28 0 00.31-.25v-3.73a.3.3 0 00-.31-.31z"/><path fill="#d6faf9" d="M663.96 29.9v.18a.27.27 0 00.25.25h5.21a.27.27 0 00.25-.25v-.19z"/><path fill="#355581" d="M663.96 29.9h5.7v.18h-5.7z" opacity=".2"/><path fill="#a8d8d7" d="M661.78 29.9v.18a.27.27 0 00.25.25h2.3a.27.27 0 00.25-.25v-.19z"/></g></g><g><path fill="#fff" d="M712.21 20.7h2.73a.3.3 0 00.31-.31v-4.1a.3.3 0 00-.3-.31h-2.74a.3.3 0 00-.31.3v4.1a.3.3 0 00.31.32z"/><path fill="#327578" d="M712.24 32.13h2.42v-.25c0-.43-.68-.3-1.12-.56-.12-.06-.18-.18-.3-.3a.42.42 0 00-.44-.26.49.49 0 00-.5.5z"/><path fill="#fff" d="M712.92 31.82h-.68v.31h2.42v-.12h-1.3z"/><path fill="#69a9cc" d="M708.3 25.17l.3-2.36 5.97 1.12h.13a.76.76 0 01.5.99l-1.93 6.09h-1.06l1.18-5.53z"/><path fill="#327578" d="M701.6 30.34l-1.75 1.74.19.19c.3.3.74-.25 1.18-.38h.5a.52.52 0 00.5-.18.67.67 0 00-.07-.75z"/><path fill="#fff" d="M701.28 31.02l.5-.43-.19-.25-1.74 1.74.06.06.94-.93z"/><path fill="#69a9cc" d="M707 29.89l-.69-6.9 2.36-.12v7.76a.86.86 0 01-.68.81l-6.21.56.3-1.12z"/><path fill="#69a9cc" d="M707 23.99h3.1a.62.62 0 00.62-.62v-1.18h-4.29v1.12a.56.56 0 00.56.68z"/><path fill="#a78d63" d="M706.37 22.43l-.93-6.76a.86.86 0 01.87-.94h3.66a.9.9 0 01.94.87l-.25 6.77v.31l-4.42.25z"/><path fill="#fff" d="M710.66 22.75v.43l-3.67.56a.64.64 0 01-.74-.5v-.19z"/><path fill="#dac09b" d="M710.16 11.44c0-.56-.37-.87-1.18-.87s-1.18.31-1.18.87a14.04 14.04 0 00.06 1.62 1.4 1.4 0 001.5 1.3h.06c.5 0 .68-.87.74-1.3a14 14 0 000-1.62z"/><path fill="#dac09b" d="M708.86 14.74h-1.25l.13-1.18a.53.53 0 01.43-.44.34.34 0 01.38.25l.3.56a.79.79 0 01.07.37z"/><path fill="#327578" d="M708.92 13.93h-1.24l-.93-2.11a.68.68 0 01-.07-.31 1.06 1.06 0 01.69-1l.61-.25 1.25.94z"/><path fill="#327578" d="M709.35 9.77c1.3 0 1.25 1.18.38 1.42-2.49.56-2.8-.3-2.8-.3-.12-.5 1.12-1.12 2.42-1.12z"/><path fill="#462c23" d="M710.04 12.13h-.43c-.07 0-.07 0-.07-.07s0-.06.07-.06h.43c.06 0 .06 0 .06.06zM709.91 12.37c0 .13-.06.19-.12.19s-.12-.06-.12-.19.06-.18.12-.18.12.12.12.18z"/><path fill="#dac09b" d="M710.22 12.13l.38.93h-.56zM709.79 15.85l.25 4.9v.07a.61.61 0 00.62.56h.18l3.86-1.43a.28.28 0 00.18-.37c-.06-.12-.25-.25-.37-.19l-3.98.87.75.56-.25-4.9a.61.61 0 00-.62-.56.48.48 0 00-.62.5z"/><path fill="#a78d63" d="M709.6 15.85a.81.81 0 011.62-.12l.12 2.23-1.67.38z"/><path fill="#dac09b" d="M715.13 19.83l.56-.38c.06-.06.12-.12.12-.18l.07-.5a.34.34 0 00-.25-.37h-.19l-.93.37a.65.65 0 00-.38.8.22.22 0 00.07.13.63.63 0 00.93.12z"/></g><text fill="#467274" font-family="NotoSansCJKtc-Medium, Noto Sans CJK TC" font-size="16" font-weight="500" letter-spacing=".07em" transform="translate(21 89)"><tspan x="0" y="0">獨家首創專利技術</tspan></text><text fill="#467274" font-family="NotoSansCJKtc-Medium, Noto Sans CJK TC" font-size="16" font-weight="500" letter-spacing=".07em" transform="translate(168 89)"><tspan x="0" y="0">自動產生個人化自傳</tspan></text><g><path fill="#3d3d3d" d="M83.8 31.4v-2.13h9.39v2.13zm9.39-6.5v2.12H83.8V24.9zm0-4.35v2.1H83.8v-2.1zm-4.27-2.34c.31-.73.63-1.53.93-2.35L87 15.53a23.9 23.9 0 01-.54 2.68h-5.05v16.46h2.39v-1.02h9.39v1h2.5V18.2zm24.52 6.92h1.36l-.16.08c.22.2.46.43.7.68l-1.9.02zm-4.49-1.35v-.84h2.21v.84zm0-2.95h2.21v.84h-2.2zm6.74 0v.84h-2.25v-.84zm0 2.95h-2.25v-.84h2.25zm.52 3.79l.59-.02c.18.24.35.47.47.67l1.68-.96a15.8 15.8 0 00-1.88-2.13h.87V19.5h-4.5v-.77h5.08v-1.77h-5.08v-1.25h-2.28v1.25h-4.81l.21-.6-2.23-.73a21.91 21.91 0 01-4.49 7.68 15.64 15.64 0 011.25 2.52 18.66 18.66 0 001.34-1.64v10.46h2.23V20.6c.5-.92.95-1.88 1.35-2.83v.97h5.15v.77h-4.36v5.63h4.36v.82c-1.95.02-3.75.04-5.15.04l.2 1.83c2.1-.05 4.88-.1 7.74-.19v.88h-8.36v1.84h2.75l-1 .66a15.65 15.65 0 012.3 2.8l1.86-1.23a15.8 15.8 0 00-1.95-2.23h4.4v2.05c0 .22-.1.3-.4.33-.27 0-1.28 0-2.2-.04a8.64 8.64 0 01.66 2.02 9.3 9.3 0 003.22-.3c.77-.31.97-.86.97-1.95v-2.1h2.5V28.5h-2.5zm8.65-8.5h14.72v-2h-6.92a44.1 44.1 0 00-.59-1.58l-2.47.59c.12.29.24.64.36.98h-7.27v6.53c0 2.91-.1 6.94-1.56 9.7a8.72 8.72 0 011.77 1.48c1.7-3.07 1.96-7.94 1.96-11.17zm11.16 5.5v-3.18h2.77v-1.37h-2.77v-.7h-1.68v.7h-2.11v1.37h2.11v3.17zm-2.25-2.75h-1.32v.67a1.62 1.62 0 01-.48 1.17l-.04-.65a1.85 1.85 0 01-.35.06c-.12-.02-.14-.13-.14-.35v-.88h-1.28v.86c0 .9.15 1.4 1.06 1.4h.1a2.09 2.09 0 00.67-.1l-.02-.24a7.1 7.1 0 01.97.9 2.7 2.7 0 00.83-2.1zm4.88 2.52a2.48 2.48 0 00.83-.09c-.04-.32-.04-.7-.06-1a2.93 2.93 0 01-.8.09h-.44c-.22 0-.26-.1-.26-.43V21.8h-1.28v1.1c0 .99.17 1.44 1.18 1.44zm-3.24 8.76c-.71 0-.83-.06-.83-.58V30.3h1.27a4.35 4.35 0 01-.64 1.25.63.63 0 01-.43.2 7.17 7.17 0 01.37 1.09 8.74 8.74 0 012.43-.63l.12.36.63-.24c-.07.65-.23.78-.69.78zm-7.43-4.92h3.22v.8h-3.22zm0-1.84h3.22v.76h-3.22zm8.26.76h-3.04v-.76h3.04zm-3.04 1.88v-.8h3.04v.8zm3.81 1.8l.24.53-.85.13a4.82 4.82 0 00.55-.96l-.53-.19h1.91v-5.26h-7.13c.18-.25.4-.51.57-.8l-2.19-.27v-2.58h2.25v-1.37h-2.25v-.7h-1.64v.7h-2.31v1.37h2.31v2.87h1.38l-.33.78h-3v5.26h3.1c-.44 1.37-1.46 2.21-4.47 2.73a5.54 5.54 0 011.09 1.74c3.8-.82 5.1-2.24 5.65-4.47h1.2v2.25c0 1.56.54 1.99 2.57 1.99h2.77c1.4 0 1.93-.4 2.1-1.92a5.23 5.23 0 01-1.43-.45 13.84 13.84 0 00-.7-1.6zm-9.62-8.96h-1.35v.67a1.41 1.41 0 01-1.02 1.33 11.32 11.32 0 01.99.96 2.37 2.37 0 001.38-2.23zm21.28-3.98a18.81 18.81 0 00-3.75-2.06l-1.29 1.8a18.5 18.5 0 013.68 2.27zm-1.2 5.4a17.82 17.82 0 00-3.76-2l-1.25 1.82a18.09 18.09 0 013.7 2.22zm-2.32 11.23c1.17-1.99 2.43-4.32 3.48-6.45l-1.74-1.64a56.7 56.7 0 01-3.73 6.45zm15.53-.88a23.58 23.58 0 00-3.26-5.82l-1.91 1a23.52 23.52 0 011.32 2.1l-4.64.5a39.2 39.2 0 002.74-5.27h5.38v-2.3h-4.76v-2.88h4.03V18.6h-4.03v-3.05h-2.4v3.05h-3.89v2.32h3.9v2.88h-4.69v2.3h3.72a30.55 30.55 0 01-2.1 4.38c-.45.73-.83 1.16-1.28 1.3a22.74 22.74 0 01.83 2.44c.65-.35 1.66-.51 8.24-1.33a9.59 9.59 0 01.7 1.8zm7.97-5.45v2.5h-2.3v-2.5zm-.2-5.42h-2.1v-2.1h2.1zm-2.1 2.04h4.17v-6.18h-2.49c.36-.82.73-1.82 1.05-2.78l-2.6-.23a22.79 22.79 0 01-.56 3.01h-1.64v15.38h2.07V32.7h4.37v-6.6h-4.37zm15.4-6.04v-2.2h-10.7v2.2h4.27v1.82h-3.6v11h2.14v-8.8h1.47v11.93h2.19V22.74h1.56v6.61c0 .2-.06.27-.24.27-.16 0-.65 0-1.14-.02a6.32 6.32 0 01.59 2.08 3.98 3.98 0 002.25-.39c.58-.36.71-.96.71-1.9v-8.84h-3.73v-1.82z"/><path fill="#b1b6bc" stroke="#b1b6bc" stroke-width=".5" d="M84.62 43.93h-2.6l-.57 1.68h-.85l2.37-6.41h.7l2.38 6.41h-.84zm-2.34-.69h2.1l-1.06-3zm7.66 1.9a1.64 1.64 0 01-1.35.56 1.4 1.4 0 01-1.12-.44 1.96 1.96 0 01-.4-1.31v-3.1h.8v3.07q0 1.09.84 1.09a1.17 1.17 0 001.2-.7v-3.46h.79v4.76h-.75zm3.4-5.44v1.15h.86v.63h-.85v2.96a.68.68 0 00.11.43.47.47 0 00.4.14 1.84 1.84 0 00.37-.05v.65a2.22 2.22 0 01-.6.1.96.96 0 01-.8-.34 1.45 1.45 0 01-.27-.94v-2.95h-.83v-.63h.83v-1.16zm1.87 3.48a2.9 2.9 0 01.27-1.25 2.03 2.03 0 01.74-.87 1.96 1.96 0 011.08-.3 1.9 1.9 0 011.52.68 2.65 2.65 0 01.58 1.79v.06a2.92 2.92 0 01-.26 1.24 2 2 0 01-.73.86 1.98 1.98 0 01-1.1.31 1.9 1.9 0 01-1.52-.67 2.64 2.64 0 01-.58-1.79zm.79.1a2.1 2.1 0 00.35 1.28 1.12 1.12 0 00.95.48 1.12 1.12 0 00.96-.49 2.29 2.29 0 00.35-1.36 2.09 2.09 0 00-.36-1.27 1.13 1.13 0 00-.95-.5 1.12 1.12 0 00-.94.49 2.27 2.27 0 00-.36 1.37zm8.66 0a2.9 2.9 0 01-.49 1.76 1.53 1.53 0 01-1.3.66 1.58 1.58 0 01-1.35-.63l-.03.55h-.73v-6.77h.79v2.52a1.57 1.57 0 011.31-.61 1.54 1.54 0 011.32.66 3 3 0 01.48 1.8zm-.79-.1a2.26 2.26 0 00-.31-1.28 1.02 1.02 0 00-.9-.45 1.15 1.15 0 00-1.11.74v2.07a1.19 1.19 0 001.13.75 1.01 1.01 0 00.88-.46 2.4 2.4 0 00.31-1.36zm3.01 2.43h-.78v-4.76h.78zm-.85-6.02a.5.5 0 01.12-.34.43.43 0 01.35-.14.44.44 0 01.34.14.5.5 0 01.12.34.47.47 0 01-.12.33.45.45 0 01-.34.13.44.44 0 01-.35-.13.48.48 0 01-.12-.33zm2.29 3.6a2.9 2.9 0 01.26-1.26 2.03 2.03 0 01.74-.87 1.96 1.96 0 011.08-.3 1.9 1.9 0 011.52.68 2.65 2.65 0 01.58 1.79v.06a2.92 2.92 0 01-.26 1.24 2 2 0 01-.73.86 1.98 1.98 0 01-1.1.31 1.9 1.9 0 01-1.51-.67 2.64 2.64 0 01-.58-1.79zm.79.1a2.1 2.1 0 00.35 1.27 1.12 1.12 0 00.95.48 1.12 1.12 0 00.95-.49 2.29 2.29 0 00.36-1.36 2.09 2.09 0 00-.36-1.27 1.13 1.13 0 00-.96-.5 1.12 1.12 0 00-.94.49 2.27 2.27 0 00-.35 1.38zm4.57-.1a2.87 2.87 0 01.5-1.78 1.57 1.57 0 011.32-.65 1.56 1.56 0 011.31.61l.04-.53h.72v4.65a1.98 1.98 0 01-.53 1.46 1.91 1.91 0 01-1.42.53 2.3 2.3 0 01-.97-.22 1.69 1.69 0 01-.73-.6l.4-.49a1.52 1.52 0 001.24.65 1.18 1.18 0 00.9-.33 1.3 1.3 0 00.32-.94v-.41a1.59 1.59 0 01-1.29.56 1.55 1.55 0 01-1.31-.67 3.02 3.02 0 01-.5-1.84zm.8.1a2.2 2.2 0 00.32 1.26 1.02 1.02 0 00.89.46 1.15 1.15 0 001.1-.7v-2.18a1.16 1.16 0 00-1.1-.68 1.03 1.03 0 00-.9.46 2.4 2.4 0 00-.31 1.38zm6.88-1.7a2.28 2.28 0 00-.38-.04 1.03 1.03 0 00-1.05.69v3.37h-.79v-4.76h.77v.55a1.22 1.22 0 011.1-.64.78.78 0 01.36.06zm3.77 4.02a1.76 1.76 0 01-.1-.5 1.73 1.73 0 01-1.32.6 1.59 1.59 0 01-1.11-.4 1.31 1.31 0 01-.44-1.02 1.36 1.36 0 01.55-1.16 2.5 2.5 0 011.54-.41h.76v-.38a.93.93 0 00-.25-.68.97.97 0 00-.72-.25 1.12 1.12 0 00-.7.22.66.66 0 00-.3.53h-.78a1.15 1.15 0 01.24-.69 1.68 1.68 0 01.66-.52 2.16 2.16 0 01.92-.2 1.78 1.78 0 011.25.42 1.51 1.51 0 01.47 1.13v2.2a2.77 2.77 0 00.16 1.04v.07zm-1.3-.62a1.34 1.34 0 00.7-.2 1.18 1.18 0 00.48-.52v-.98h-.62q-1.44 0-1.44.88a.75.75 0 00.24.6.93.93 0 00.64.21zm7.47-1.7a2.93 2.93 0 01-.48 1.75 1.52 1.52 0 01-1.3.66 1.66 1.66 0 01-1.32-.55v2.3h-.79v-6.6h.72l.04.52a1.6 1.6 0 011.33-.61 1.55 1.55 0 011.31.64 2.96 2.96 0 01.49 1.8zm-.79-.1a2.16 2.16 0 00-.33-1.27 1.06 1.06 0 00-.91-.47 1.15 1.15 0 00-1.07.66v2.28a1.15 1.15 0 001.08.64 1.05 1.05 0 00.9-.46 2.36 2.36 0 00.33-1.38zm2.95-1.77a1.65 1.65 0 011.36-.67q1.46 0 1.47 1.7v3.16h-.78v-3.15a1.12 1.12 0 00-.23-.76.9.9 0 00-.7-.25 1.1 1.1 0 00-.66.21 1.42 1.42 0 00-.45.56v3.4h-.8v-6.77h.8zm5.9 3l1.07-3.58h.84l-1.85 5.5q-.43 1.2-1.36 1.2l-.15-.02-.3-.05v-.66l.22.01a1.02 1.02 0 00.62-.16 1.22 1.22 0 00.37-.62l.17-.48-1.64-4.71h.86zm6.71-5.22l2.02 5.23 2.03-5.23h1.06v6.41h-.82v-2.5l.07-2.7-2.03 5.2h-.62l-2.03-5.18.08 2.69v2.5h-.81V39.2zm9.64 6.41a1.76 1.76 0 01-.1-.5 1.73 1.73 0 01-1.32.6 1.59 1.59 0 01-1.11-.4 1.31 1.31 0 01-.44-1.02 1.36 1.36 0 01.55-1.16 2.5 2.5 0 011.54-.41h.76v-.38a.93.93 0 00-.25-.68.97.97 0 00-.72-.25 1.12 1.12 0 00-.7.22.66.66 0 00-.3.53h-.78a1.15 1.15 0 01.24-.69 1.68 1.68 0 01.66-.52 2.16 2.16 0 01.92-.2 1.78 1.78 0 011.25.42 1.51 1.51 0 01.47 1.13v2.2a2.77 2.77 0 00.16 1.04v.07zm-1.3-.62a1.34 1.34 0 00.7-.2 1.18 1.18 0 00.48-.52v-.98h-.61q-1.45 0-1.45.88a.75.75 0 00.25.6.93.93 0 00.63.21zm3.4-1.8a2.87 2.87 0 01.5-1.78 1.57 1.57 0 011.32-.65 1.56 1.56 0 011.3.61l.05-.53h.72v4.65a1.98 1.98 0 01-.53 1.46 1.91 1.91 0 01-1.43.54 2.3 2.3 0 01-.97-.22 1.69 1.69 0 01-.73-.6l.4-.5a1.52 1.52 0 001.24.65 1.18 1.18 0 00.9-.33 1.3 1.3 0 00.32-.94v-.41a1.59 1.59 0 01-1.29.56 1.55 1.55 0 01-1.3-.67 3.02 3.02 0 01-.5-1.84zm.79.09a2.2 2.2 0 00.32 1.26 1.02 1.02 0 00.89.46 1.15 1.15 0 001.1-.7v-2.17a1.16 1.16 0 00-1.1-.68 1.03 1.03 0 00-.9.46 2.4 2.4 0 00-.31 1.38zm5.51 2.33h-.78v-4.76h.78zm-.85-6.02a.5.5 0 01.12-.34.43.43 0 01.35-.14.44.44 0 01.34.14.5.5 0 01.12.34.47.47 0 01-.12.33.45.45 0 01-.34.13.44.44 0 01-.35-.13.48.48 0 01-.12-.33zm4.34 5.44a1.1 1.1 0 00.73-.26.94.94 0 00.35-.66h.74a1.51 1.51 0 01-.27.78 1.81 1.81 0 01-.67.59 1.88 1.88 0 01-.88.22 1.86 1.86 0 01-1.5-.65 2.65 2.65 0 01-.55-1.78v-.13a2.96 2.96 0 01.24-1.24 1.93 1.93 0 01.71-.84 1.96 1.96 0 011.1-.3 1.8 1.8 0 011.28.48 1.74 1.74 0 01.54 1.25h-.74a1.14 1.14 0 00-.34-.76 1.03 1.03 0 00-.75-.3 1.09 1.09 0 00-.93.44 2.15 2.15 0 00-.33 1.3v.15a2.11 2.11 0 00.33 1.27 1.1 1.1 0 00.94.44zm3.95.58h-.8v-4.76h.8zm-.85-6.02a.5.5 0 01.11-.34.43.43 0 01.35-.14.44.44 0 01.35.14.5.5 0 01.12.34.47.47 0 01-.12.33.45.45 0 01-.35.13.44.44 0 01-.35-.13.48.48 0 01-.11-.33zm5.33 6.02a1.76 1.76 0 01-.12-.5 1.73 1.73 0 01-1.3.6 1.59 1.59 0 01-1.12-.4 1.31 1.31 0 01-.43-1.02 1.36 1.36 0 01.54-1.16 2.5 2.5 0 011.54-.41h.76v-.38a.93.93 0 00-.24-.68.97.97 0 00-.73-.25 1.12 1.12 0 00-.7.22.66.66 0 00-.3.53h-.78a1.15 1.15 0 01.24-.69 1.68 1.68 0 01.67-.52 2.16 2.16 0 01.92-.2 1.78 1.78 0 011.24.42 1.51 1.51 0 01.47 1.13v2.2a2.77 2.77 0 00.16 1.04v.07zm-1.31-.62a1.34 1.34 0 00.7-.2 1.18 1.18 0 00.48-.52v-.98h-.62q-1.44 0-1.44.88a.75.75 0 00.25.6.93.93 0 00.63.21zm4.33-4.15l.02.6a1.66 1.66 0 011.38-.68q1.46 0 1.47 1.7v3.15h-.79v-3.15a1.12 1.12 0 00-.22-.76.9.9 0 00-.7-.25 1.1 1.1 0 00-.67.21 1.42 1.42 0 00-.45.56v3.4h-.78v-4.77z"/><g><path fill="#fff" d="M20.92 48V27.23c0-1.15-.34-1.44-.55-1.66a1.63 1.63 0 00-.9-.28h-.15L18 25.5v-6.6l.83-.3a13.38 13.38 0 005.47-4.02.24.24 0 00.07-.14l.34-.43h6.45v34z"/><path fill="url(#a)" stroke="#fff" stroke-width=".5" d="M1.78 5.35s-.55.13-.55.35v4.25s-.07.06.21.06a2.57 2.57 0 012.63 1.66l.14 2v19.06h7.89V1.3H7.4a13.43 13.43 0 01-5.62 4.06z" transform="translate(17.92 13.98)"/><path fill="#fff" d="M36.04 48V27.23c0-1.15-.34-1.44-.55-1.66a1.63 1.63 0 00-.9-.28h-.14l-1.32.21v-6.6l.82-.3a13.38 13.38 0 005.48-4.02.24.24 0 00.07-.14l.34-.43h6.44v34z"/><path fill="url(#e)" stroke="#fff" stroke-width=".5" d="M16.78 5.35s-.55.13-.55.35v4.25s-.07.06.21.06a2.57 2.57 0 012.63 1.66l.14 2v19.06h7.89V1.3h-4.7a13.43 13.43 0 01-5.62 4.06z" transform="translate(18.04 13.98)"/><path fill="#fff" d="M50.84 48V27.23c0-1.15-.34-1.44-.55-1.66a1.63 1.63 0 00-.9-.28h-.15l-1.32.21v-6.6l.83-.3a13.38 13.38 0 005.48-4.02.24.24 0 00.06-.14l.34-.43h6.45v34z"/><path fill="url(#f)" stroke="#fff" stroke-width=".5" d="M31.78 5.35s-.55.13-.55.35v4.25s-.07.06.21.06a2.57 2.57 0 012.63 1.66l.14 2v19.06h7.89V1.3h-4.7a13.43 13.43 0 01-5.62 4.06z" transform="translate(17.84 13.98)"/><g><path fill="#fff" d="M65.96 48V27.23c0-1.15-.34-1.44-.55-1.66a1.63 1.63 0 00-.9-.28h-.14l-1.32.21v-6.6l.83-.3a13.38 13.38 0 005.47-4.02.24.24 0 00.07-.14l.34-.43h6.44v34z"/><path fill="url(#g)" stroke="#fff" stroke-width=".5" d="M46.78 5.35s-.55.13-.55.35v4.25s-.07.06.21.06a2.57 2.57 0 012.63 1.66l.14 2v19.06h7.89V1.3h-4.7a13.43 13.43 0 01-5.62 4.06z" transform="translate(17.97 13.98)"/></g></g></g><g><g filter="url(#h)"><rect width="180" height="40" fill="#22b8cf" rx="4" transform="translate(356 62)"/></g><text fill="#fff" font-family="NotoSansCJKtc-Regular, Noto Sans CJK TC" font-size="16" letter-spacing=".32em" transform="translate(446 89)"><tspan x="-39.68" y="0">開始使用</tspan></text></g></svg>