<svg xmlns="http://www.w3.org/2000/svg" xmlns:xlink="http://www.w3.org/1999/xlink" width="96" height="96" viewBox="0 0 96 96">
  <defs>
    <clipPath id="clip-path">
      <rect id="Rectangle_24480" data-name="Rectangle 24480" width="96" height="96" transform="translate(-23576 -3222)" fill="#233138"/>
    </clipPath>
  </defs>
  <g id="bg-hiring" transform="translate(23576 3222)" clip-path="url(#clip-path)">
    <path id="Union_148" data-name="Union 148" d="M42.041,114.432V104.416h-.869v3.629a.145.145,0,0,1-.291,0v-3.629H37.4v10.016a.145.145,0,0,1-.29,0V104.271a.145.145,0,0,1,.145-.146h4.937a.145.145,0,0,1,.145.146v10.161a.145.145,0,0,1-.291,0Zm-3.484,0v-5.226a.145.145,0,0,1,.291,0v5.226a.145.145,0,0,1-.291,0Zm-2.322,0v-6.823H33.041v2.468a.145.145,0,0,1-.291,0v-2.468H31.588v6.823a.145.145,0,0,1-.29,0v-6.968a.145.145,0,0,1,.145-.146H36.38a.145.145,0,0,1,.146.146v6.968a.145.145,0,0,1-.291,0Zm-1.162,0v-3.194a.145.145,0,0,1,.291,0v3.194a.145.145,0,0,1-.291,0Zm-4.645,0v-3.339h-.873v1.6a.145.145,0,0,1-.29,0v-1.6H25.783v3.339a.145.145,0,0,1-.291,0v-3.484a.146.146,0,0,1,.146-.146h4.936a.145.145,0,0,1,.145.146.147.147,0,0,1,0,.016v3.468a.145.145,0,0,1-.29,0Zm-3.773,0V113.27a.145.145,0,0,1,.29,0v1.162a.145.145,0,0,1-.29,0Zm62.548-1a1.115,1.115,0,0,1-.8-.33l-4.029-4.028a.141.141,0,0,1,0-.2l.1-.1L83.3,107.6a.14.14,0,1,1,.2-.2l1.183,1.182.8-.8L84.29,106.6a.141.141,0,1,1,.2-.2l1.182,1.182.1-.1a.141.141,0,0,1,.2,0h0l4.011,4.01.013.015,0,0a1.125,1.125,0,0,1-.794,1.921Zm0-.281h0a.845.845,0,0,0,.6-1.441l-.011-.012-.006-.006-3.912-3.913-1.194,1.194,3.93,3.93A.84.84,0,0,0,89.2,113.156Zm-5.657-.625c-.039-.268.239-.553.825-.848a4.644,4.644,0,0,1,1.183-.422A.977.977,0,0,1,86.64,112a3.956,3.956,0,0,1,.8.326.14.14,0,0,1-.066.265.132.132,0,0,1-.066-.016,3.829,3.829,0,0,0-.645-.274.976.976,0,0,1-.835.887,2.076,2.076,0,0,1-.286.015C85.049,113.207,83.624,113.083,83.546,112.532Zm2.048-.992a4.561,4.561,0,0,0-1.1.4c-.554.277-.684.481-.673.556.03.211.913.435,1.718.435a1.953,1.953,0,0,0,.247-.013.7.7,0,0,0,.6-.682,1.528,1.528,0,0,0-1.2.147.14.14,0,0,1-.172-.221,1.725,1.725,0,0,1,1.308-.223.7.7,0,0,0-.628-.4A.743.743,0,0,0,85.594,111.54Zm3.811.573-3.632-3.632a.14.14,0,1,1,.2-.2l3.632,3.632a.141.141,0,0,1,0,.2.144.144,0,0,1-.1.041A.141.141,0,0,1,89.4,112.113Zm-14.146-2.575a.791.791,0,0,1-.318-1.072,1.068,1.068,0,0,1,.677-.509,1.088,1.088,0,0,1,.87.165.141.141,0,0,1,.038.2.139.139,0,0,1-.194.038.8.8,0,0,0-.647-.124.778.778,0,0,0-.5.371.508.508,0,0,0,.2.689.379.379,0,0,0,.514-.152.274.274,0,0,0-.111-.373.184.184,0,0,0-.146-.015.188.188,0,0,0-.114.092.141.141,0,1,1-.247-.134.474.474,0,0,1,.643-.19.558.558,0,0,1,.223.755.663.663,0,0,1-.9.265Zm-50.2-.477h-.037l-.006,0h0a.146.146,0,0,1-.084-.2l.238-.714-.727-.243-.014,0h-.006a.146.146,0,0,1,.011-.27L34,103.268a.145.145,0,0,1,.121.265l-9.245,4.2.512.171.008,0a.145.145,0,0,1,.092.184l-.175.526,8.968-4.764a.145.145,0,1,1,.136.256l-9.278,4.929a.144.144,0,0,1-.078.023Zm62.743-.246a4.384,4.384,0,0,1,.018-1.055,1.448,1.448,0,0,1-.737-.5.992.992,0,0,1-.2-.85c.128-.514,1.008-2.062,1.739-2.062a.5.5,0,0,1,.122.015c.78.2.8,2.208.687,2.681a1.126,1.126,0,0,1-1.156.783h0a1.528,1.528,0,0,1-.181-.011,4.037,4.037,0,0,0-.016.959.14.14,0,0,1-.121.158l-.019,0A.141.141,0,0,1,87.8,108.815Zm.476-1.267a.851.851,0,0,0,.883-.57c.131-.523,0-2.219-.481-2.34a.218.218,0,0,0-.055-.006c-.506,0-1.345,1.359-1.466,1.848a.721.721,0,0,0,.148.613,1.154,1.154,0,0,0,.551.385,13.316,13.316,0,0,1,.327-1.51.141.141,0,0,1,.271.078,13.134,13.134,0,0,0-.322,1.494A1.28,1.28,0,0,0,88.275,107.548Zm-13.53-.746a6.326,6.326,0,1,1,4.475,1.854A6.335,6.335,0,0,1,74.745,106.8Zm.2-8.75a6.046,6.046,0,1,0,4.276-1.771A6.054,6.054,0,0,0,74.944,98.052Zm.2,8.352a5.766,5.766,0,1,1,4.077,1.688A5.73,5.73,0,0,1,75.143,106.4Zm.2-7.954a5.485,5.485,0,1,0,3.878-1.606A5.451,5.451,0,0,0,75.342,98.45Zm-41.388,6.5a.145.145,0,0,1,0-.205L35.7,103l-2.5.25h-.014a.145.145,0,0,1-.014-.29l2.893-.29a.145.145,0,0,1,.112.027l0,0h0a.144.144,0,0,1,.045.161h0v0a.145.145,0,0,1-.033.051l-2.032,2.032a.148.148,0,0,1-.1.042A.144.144,0,0,1,33.953,104.954Zm8.087-1.264v-.685c0-.244-.086-.339-.42-.464-.1-.036-.4-.147-.655-.266a.145.145,0,0,1,.121-.264c.251.115.541.222.636.258.308.115.608.267.608.736v.685a.145.145,0,1,1-.29,0Zm-4.936,0v-.685c0-.469.3-.621.608-.736.184-.068.422-.16.637-.258a.145.145,0,1,1,.122.264c-.224.1-.469.2-.657.266-.334.125-.42.22-.42.464v.685a.145.145,0,1,1-.29,0Zm2.474-.58a.144.144,0,0,1,.144-.145h0a.145.145,0,0,1,0,.29A.146.146,0,0,1,39.579,103.109Zm.574-.145h0a.147.147,0,0,1-.091-.032l-.343-.229-.355.237a.147.147,0,0,1-.073.024h-.008a.147.147,0,0,1-.1-.042l-.581-.58a.145.145,0,0,1,.205-.206l.5.5.331-.22a.144.144,0,0,1,.055-.025h0l.009,0h.011a2.13,2.13,0,0,1-1.586-2,.146.146,0,0,1,0-.017v-.146c-.112.058-.177.1-.18.1a.141.141,0,0,1-.073.02.149.149,0,0,1-.073-.019.147.147,0,0,1-.072-.126,1.936,1.936,0,0,1,.743-1.67l-.08-.074a.144.144,0,0,1-.044-.134.146.146,0,0,1,.091-.108,3.981,3.981,0,0,1,1.267-.234,1.6,1.6,0,0,1,1.225.452,1.914,1.914,0,0,1,.391,1.481s0,.006,0,.01v.453a.147.147,0,0,1,0,.017,2.13,2.13,0,0,1-1.587,2h.022l.009,0h0l.02.008h0l.009,0h0l.008,0h0l.336.224.5-.5a.146.146,0,0,1,.206.206l-.574.573a.144.144,0,0,1-.1.05h-.007Zm-1.741-2.6a1.857,1.857,0,0,0,1.307,1.724,1.859,1.859,0,0,0,1.306-1.724.147.147,0,0,1,0-.016v-.385l-.367-.454a5.366,5.366,0,0,0-2.247.567v.272A.147.147,0,0,1,38.412,100.369Zm.354-1.963.04.036a.146.146,0,0,1-.041.24,1.471,1.471,0,0,0-.74,1.263,5.9,5.9,0,0,1,2.715-.718.143.143,0,0,1,.1.054l.186.231a1.375,1.375,0,0,0-.319-.888,1.321,1.321,0,0,0-1.012-.36A3.528,3.528,0,0,0,38.766,98.406Zm35.814,3.922a4.645,4.645,0,0,1,4.64-4.64.141.141,0,0,1,0,.282,4.364,4.364,0,0,0-4.359,4.359.14.14,0,1,1-.281,0ZM.48,102.2a.149.149,0,0,1-.149-.149V84.35a.15.15,0,0,1,.3,0V101.9H13.379a.15.15,0,1,1,0,.3Zm59.639-.437a.141.141,0,0,1,.114-.163l.093-.016L59.092,99.13A.14.14,0,1,1,59.343,99l1.272,2.529,1.1-.193-1.234-2.454a.14.14,0,1,1,.25-.126L62,101.289l.174-.031a.141.141,0,0,1,.049.277l-.264.047-.023,0-1.363.24-.019,0-.27.048-.024,0A.141.141,0,0,1,60.119,101.763ZM1.08,101.6a.15.15,0,0,1-.149-.15V83.75a.15.15,0,1,1,.3,0V101.3h12.75a.15.15,0,0,1,0,.3Zm13.5-.6H1.679a.15.15,0,0,1-.15-.15V83.15a.151.151,0,0,1,.15-.15h11.1a.15.15,0,0,1,.106.044L14.67,84.83a.15.15,0,0,1,.06.12v15.9a.149.149,0,0,1-.15.149Zm-.149-.3V85.015L12.715,83.3H1.829v17.4Zm2.85-.3h-.022a.152.152,0,0,1-.1-.065l-.6-.9a.149.149,0,0,1-.018-.131l.292-.877V98.3h-.149a.149.149,0,0,1-.15-.15V95.756l-.3-7.478a.152.152,0,0,1,0-.028,1.258,1.258,0,0,1,.615-1.264.149.149,0,0,1,.135-.086h.6a.151.151,0,0,1,.136.086,1.255,1.255,0,0,1,.614,1.257s0,.009,0,.013l-.3,7.478a.147.147,0,0,1,0,.033v.567a.15.15,0,0,1,0,.016.153.153,0,0,1,0,.016v1.767a.151.151,0,0,1-.149.167h-.15v.126l.293.877a.149.149,0,0,1-.017.131l-.6.9a.149.149,0,0,1-.082.06h0l-.009,0h-.034Zm-.15-1.95a.17.17,0,0,1-.007.048l-.277.831.435.652.434-.652-.276-.831a.144.144,0,0,1-.008-.048V98.3h-.3Zm.6-.449V96.5h-.9V98h.9Zm0-1.8v-.3h-.9v.3Zm0-.6.294-7.355c0-.693-.254-1.045-.751-1.045s-.744.345-.75,1.026a.16.16,0,0,1,0,.018l.295,7.356Zm67.613,4.056a1.082,1.082,0,0,1-.634-.617.141.141,0,1,1,.259-.109.791.791,0,0,0,.47.461.781.781,0,0,0,.619-.035.509.509,0,0,0,.21-.688.379.379,0,0,0-.513-.157.275.275,0,0,0-.113.373.194.194,0,0,0,.114.094.191.191,0,0,0,.146-.014.141.141,0,0,1,.132.248.473.473,0,0,1-.641-.2.557.557,0,0,1,.23-.752.661.661,0,0,1,.893.274.789.789,0,0,1-.327,1.068,1.021,1.021,0,0,1-.478.115A1.086,1.086,0,0,1,85.349,99.656ZM9.081,99.163a.15.15,0,0,1-.014-.212l.044-.051H8.58a.15.15,0,0,1,0-.3h.779c.048-.06.094-.119.139-.178a.937.937,0,0,1,.189-.912.408.408,0,0,1,.448-.1.219.219,0,0,1,.134.157c.045.185-.168.547-.432.905.057.107.121.119.144.123l.02,0h.049a1.794,1.794,0,0,0,.813-.545.151.151,0,0,1,.167-.045.148.148,0,0,1,.1.14v.4l.325-.488A.151.151,0,0,1,11.579,98h.6a.15.15,0,0,1,0,.3h-.52l-.2.3h1.32a.15.15,0,1,1,0,.3H11.26l-.155.233a.15.15,0,0,1-.125.067.143.143,0,0,1-.043-.006.151.151,0,0,1-.106-.144V98.9H9.5c-.074.09-.146.174-.211.248a.149.149,0,0,1-.212.014ZM10.83,98.6v-.1c-.037.032-.078.065-.12.1Zm-.935-.873a.532.532,0,0,0-.134.331,1.716,1.716,0,0,0,.209-.374A.152.152,0,0,0,9.895,97.727Zm48.532.908-.055-.311a.141.141,0,1,1,.277-.049l.031.173,2.217-.383-.024-.137a.14.14,0,0,1,.276-.049l.047.266,0,.013a.141.141,0,0,1-.068.145h0l0,0h0l0,0h0a.14.14,0,0,1-.033.01h-.008l-2.487.431-.024,0A.141.141,0,0,1,58.426,98.635ZM61.97,98.5a.14.14,0,1,1,0-.281H64.5a.14.14,0,1,1,0,.281Zm-12.656,0a.985.985,0,0,1-.985-.984V85.984a.14.14,0,0,1,.281,0V97.516a.7.7,0,0,0,1.407.02.141.141,0,0,1,0-.02V85.141A.141.141,0,0,1,50.158,85H66.19a.14.14,0,0,1,.14.141v8.438a.14.14,0,1,1-.281,0v-8.3H50.3V97.5a.144.144,0,0,1,0,.016.98.98,0,0,1-.3.7h7.214a.14.14,0,1,1,0,.281Zm16.319-.139h0a.14.14,0,0,1-.138-.116c-.127-.716-2.862-.85-4.566-.766l-2.764.488-.024,0h0l-.029,0-1.482-.31a.14.14,0,0,1-.11-.113l-.489-2.77a.139.139,0,0,1,.065-.143l1.287-.8a.143.143,0,0,1,.057-.02l.131-.023h0a.141.141,0,0,1,.114-.163l.554-.1a.141.141,0,0,1,.163.114h0l1.795-.317H60.2c1.194-.211,4.245-1.031,4.025-2.281a.141.141,0,0,1,.113-.163h.007l.548-.1a.14.14,0,0,1,.1.022.139.139,0,0,1,.06.091l1.269,7.2a.14.14,0,0,1-.113.163l-.012,0-.542.1-.025,0Zm.1-.3.3-.053-1.221-6.924-.287.05c.032.707-.661,1.332-2.063,1.86a14.169,14.169,0,0,1-2.195.6l-.009,0-2.632.464.635,3.6,2.613-.46A.143.143,0,0,1,60.9,97.2c.123-.006.5-.022.983-.022C63.2,97.177,65.37,97.3,65.729,98.061Zm-9.405-3.242.455,2.581,1.186.248-.612-3.469Zm17.121,3.467a1.341,1.341,0,0,1-.928-.528.987.987,0,0,1,.221-1.378.817.817,0,0,1,1.142.185.685.685,0,0,1-.153.952.576.576,0,0,1-.8-.129.141.141,0,0,1,.228-.166.292.292,0,0,0,.409.066.4.4,0,0,0,.091-.56.538.538,0,0,0-.75-.121.705.705,0,0,0-.158.985,1.058,1.058,0,0,0,.732.413,1.077,1.077,0,0,0,.849-.279.141.141,0,0,1,.185.212,1.386,1.386,0,0,1-.915.355A1.4,1.4,0,0,1,73.445,98.285Zm-24.13-.348h0a.422.422,0,0,1-.421-.421.144.144,0,0,1,0-.016V85.7a.14.14,0,1,1,.281,0V97.516s0,.007,0,.011a.141.141,0,0,0,.14.13h0a.141.141,0,0,0,.141-.13s0-.007,0-.011V85.422a.14.14,0,0,1,.281,0V97.5a.144.144,0,0,1,0,.016.422.422,0,0,1-.422.421Zm2.546-.281a.141.141,0,0,1,0-.282H55.8a.141.141,0,1,1,0,.282Zm13.491-.242-.977-5.539a.14.14,0,0,1,.276-.049l.976,5.539a.14.14,0,0,1-.113.163l-.025,0A.141.141,0,0,1,65.351,97.414ZM38.7,97.448a.145.145,0,0,1-.146-.145v-.871a.145.145,0,0,1,.211-.13l.472.236.362-.483a.149.149,0,0,1,.232,0l.364.483.472-.236a.144.144,0,0,1,.141.005.146.146,0,0,1,.069.124V97.3a.145.145,0,0,1-.145.145Zm.145-.291h1.741v-.49l-.37.185a.147.147,0,0,1-.182-.043l-.319-.426-.319.426a.145.145,0,0,1-.181.043l-.371-.185Zm18.127-.266a.141.141,0,0,1,.114-.163l.277-.049a.141.141,0,1,1,.049.277L57.137,97l-.024,0A.14.14,0,0,1,56.975,96.891Zm3.7-.081-.489-2.77a.141.141,0,0,1,.277-.049l.489,2.769a.141.141,0,0,1-.114.163l-.024,0A.142.142,0,0,1,60.674,96.81Zm-8.815,0a.141.141,0,0,1,0-.282h3.657a.141.141,0,0,1,0,.282ZM3.48,96.2a.15.15,0,0,1,0-.3h4.8a.15.15,0,0,1,0,.3Zm53.35-.14a.141.141,0,0,1,.114-.163l.276-.049a.141.141,0,0,1,.05.277l-.277.049-.025,0A.141.141,0,0,1,56.831,96.061Zm-4.971-.092a.141.141,0,0,1,0-.282h3.375a.141.141,0,1,1,0,.282Zm4.824-.74a.141.141,0,0,1,.114-.163l.276-.049a.142.142,0,0,1,.163.114.14.14,0,0,1-.113.163l-.277.049-.024,0A.14.14,0,0,1,56.684,95.229Zm-4.824-.1a.14.14,0,1,1,0-.281h3.375a.14.14,0,1,1,0,.281ZM3.48,95a.15.15,0,0,1,0-.3h9.3a.15.15,0,0,1,0,.3Zm48.38-.719a.141.141,0,0,1,0-.282h3.657a.141.141,0,0,1,0,.282ZM3.48,93.8a.15.15,0,0,1,0-.3h9.3a.15.15,0,0,1,0,.3Zm53.147-.362a.141.141,0,0,1,0-.282h.563a.141.141,0,0,1,0,.282Zm-4.767,0a.141.141,0,0,1,0-.282H55.8a.141.141,0,1,1,0,.282ZM3.48,92.6a.15.15,0,0,1,0-.3h9.3a.15.15,0,0,1,0,.3Zm57.648-.006a.141.141,0,0,1,0-.282h.281a.141.141,0,1,1,0,.282Zm-4.5,0a.141.141,0,0,1,0-.282h3.657a.141.141,0,0,1,0,.282Zm-4.767,0a.141.141,0,0,1,0-.282H55.8a.141.141,0,1,1,0,.282ZM17.132,92.15v-4.5a.15.15,0,1,1,.3,0v4.5a.15.15,0,0,1-.3,0Zm44-.4a.141.141,0,0,1,0-.282h1.688a.141.141,0,0,1,0,.282Zm-4.5,0a.141.141,0,0,1,0-.282h3.657a.141.141,0,0,1,0,.282Zm-4.781,0a.141.141,0,0,1-.14-.14V89.078a.141.141,0,0,1,.14-.141h3.938a.141.141,0,0,1,.14.141v2.531a.14.14,0,0,1-.14.14Zm3.8-.281v-2.25H51.987v2.25h.7a.145.145,0,0,1-.078-.023.141.141,0,0,1-.039-.2l.556-.834a.141.141,0,0,1,.045-.049.139.139,0,0,1,.1-.022h.015l.021.007h0l.005,0,0,0,0,0,.013.008h0l0,0,0,0,0,0a.139.139,0,0,1,.026.031l.184.277a.141.141,0,0,1-.117.219.141.141,0,0,1-.117-.063l-.07-.1-.445.667a.143.143,0,0,1-.117.063h.844a.14.14,0,0,1-.112-.225l.841-1.122.008-.01h0l.006-.006h0l.006-.006,0,0,0,0,0,0h0l0,0,0,0h0a.14.14,0,0,1,.068-.022h.016a.14.14,0,0,1,.068.022h0l0,0,0,0h0a.138.138,0,0,1,.033.035l.839,1.118a.142.142,0,0,1-.029.2.14.14,0,0,1-.084.028Zm-.422,0a.142.142,0,0,1-.113-.057l-.731-.975-.731.975a.141.141,0,0,1-.112.057ZM3.48,91.4a.15.15,0,0,1,0-.3h9.3a.15.15,0,0,1,0,.3Zm57.648-.494a.141.141,0,0,1,0-.282h2.531a.141.141,0,1,1,0,.282Zm-4.5,0a.141.141,0,0,1,0-.282h3.657a.141.141,0,0,1,0,.282Zm-4.36-.985a.422.422,0,1,1,.421.422A.423.423,0,0,1,52.268,89.922Zm.281,0a.141.141,0,1,0,.14-.14A.141.141,0,0,0,52.548,89.922Zm8.58.14a.14.14,0,1,1,0-.281h3.937a.14.14,0,1,1,0,.281Zm-4.5,0a.14.14,0,1,1,0-.281h3.657a.14.14,0,1,1,0,.281ZM5.579,89.3H4.08a.149.149,0,0,1-.149-.149v-1.2a.15.15,0,0,1,.3,0V89h1.2v-.45a.15.15,0,1,1,.3,0V89h1.2V87.95a.15.15,0,0,1,.3,0v1.2a.149.149,0,0,1-.149.149Zm55.549-.081a.141.141,0,0,1,0-.282h3.937a.141.141,0,0,1,0,.282Zm-4.5,0a.141.141,0,0,1,0-.282h3.657a.141.141,0,0,1,0,.282Zm-15.5-.358-2.872-2.872a.141.141,0,0,1,0-.2l.1-.1-.512-.511a.141.141,0,0,1,.2-.2l.512.511.2-.2-.511-.511a.141.141,0,0,1,.2-.2l.511.511.1-.1a.141.141,0,0,1,.2,0l2.863,2.863.01.009a.7.7,0,0,1,0,.994h0a.705.705,0,0,1-.994,0Zm.8-.2h0a.421.421,0,0,0,.007-.589l-.007-.007-2.773-2.773-.089.088-.01.011-.01.008-.381.38-.007.008-.008.008-.092.092,2.773,2.773A.423.423,0,0,0,41.925,88.662Zm44.314.284H82.313a.163.163,0,0,1-.164-.164v-1.09c0-.638.338-.89.924-1.109.335-.125.767-.292,1.132-.466a.164.164,0,0,1,.141.3c-.377.18-.817.35-1.158.478-.56.209-.713.381-.713.8v.927h3.418a.164.164,0,0,1-.145-.181l.155-1.4-.107-.108a.164.164,0,0,1-.021-.025l-.113.056a.165.165,0,0,1-.189-.031l-.982-.982a.164.164,0,0,1,.231-.231l.9.9.512-.255a3.385,3.385,0,0,1-2.34-3.142v-.085c-.259.13-.413.218-.419.222a.166.166,0,0,1-.082.022.163.163,0,0,1-.164-.164,2.976,2.976,0,0,1,1.223-2.65l-.189-.175a.166.166,0,0,1-.05-.153.164.164,0,0,1,.105-.121,6.2,6.2,0,0,1,1.875-.32,2.6,2.6,0,0,1,1.991.728A3.052,3.052,0,0,1,88.7,82.9v.32a3.38,3.38,0,0,1-2.348,3.143l.511.254.9-.9a.164.164,0,1,1,.232.231l-.982.982a.165.165,0,0,1-.189.031l-.12-.059a.164.164,0,0,1-.023.029l-.107.107.154,1.395a.163.163,0,0,1-.144.181H90v-.926c0-.421-.153-.593-.712-.8-.342-.128-.782-.3-1.159-.479a.164.164,0,1,1,.141-.3c.365.175.8.342,1.132.467.586.219.924.471.924,1.109v1.09a.163.163,0,0,1-.163.164Zm-.017-.327h.329a.164.164,0,0,1-.145-.145l-.13-1.168a.162.162,0,0,1-.035,0h0a.164.164,0,0,1-.036,0l-.129,1.168a.164.164,0,0,1-.163.146Zm.018-1.7.046-.046,0,0,.112-.112-.156-.077-.162.08Zm.009-.87c.8,0,2.128-1.366,2.128-2.822a.164.164,0,0,1,0-.017v-.262l-.615-.875a8.585,8.585,0,0,0-3.641.912v.243C84.122,84.678,85.449,86.045,86.249,86.045Zm-1.653-5.7.145.134a.162.162,0,0,1,.049.148.165.165,0,0,1-.1.123,2.434,2.434,0,0,0-1.228,2.186,9.448,9.448,0,0,1,4.394-1.192.166.166,0,0,1,.124.069l.408.58a2.414,2.414,0,0,0-.546-1.643,2.287,2.287,0,0,0-1.751-.624A5.856,5.856,0,0,0,84.6,80.346Zm-8.174,8.6H72.494a.163.163,0,0,1-.163-.164v-1.09c0-.638.338-.89.924-1.109.2-.073.716-.267,1.132-.466a.164.164,0,0,1,.141.3c-.384.184-.846.361-1.159.478-.559.209-.712.381-.712.8v.927h7.528v-.926c0-.421-.153-.593-.712-.8-.313-.117-.775-.294-1.159-.479a.163.163,0,0,1,.14-.3c.373.178.825.352,1.133.467.586.219.924.471.924,1.109v1.09a.163.163,0,0,1-.164.164Zm-.156-.818a.162.162,0,0,1,.161-.164h0a.164.164,0,1,1-.165.164ZM7.574,88.056,5.58,86.063,3.587,88.056a.15.15,0,0,1-.106.044.15.15,0,0,1-.106-.256l2.1-2.1a.15.15,0,0,1,.212,0l2.1,2.1a.15.15,0,0,1-.212.211Zm44.273.038a.141.141,0,0,1-.14-.141V86.265a.141.141,0,0,1,.14-.14H65.065a.141.141,0,0,1,.14.14v1.688a.141.141,0,0,1-.14.141Zm.14-.282H64.924V86.406H51.987ZM24.471,87.66a.141.141,0,0,1-.141-.14V85.984c0-.989.511-1.368,1.454-1.721a10.515,10.515,0,0,0,2.131-1.076.141.141,0,1,1,.167.227,10.9,10.9,0,0,1-2.2,1.113c-.861.321-1.271.622-1.271,1.457v1.4H37.273V85.7a.141.141,0,1,1,.282,0V87.52a.141.141,0,0,1-.141.14Zm51.795-.187a.162.162,0,0,1,.161-.164h0a.164.164,0,1,1-.165.164ZM7.574,87.456,5.58,85.462,3.587,87.456a.15.15,0,0,1-.106.044.15.15,0,0,1-.106-.256l2.1-2.1a.15.15,0,0,1,.212,0l2.1,2.1a.15.15,0,0,1-.212.212Zm45.115-.206a.14.14,0,1,1,0-.281H64.22a.14.14,0,1,1,0,.281Zm24.319-.285-.581-.288-.581.288a.165.165,0,0,1-.189-.031l-.982-.982a.164.164,0,0,1,.232-.231l.9.9.509-.253,0,0a3.386,3.386,0,0,1-2.339-3.142v-.272a.162.162,0,0,1-.011-.045,2.771,2.771,0,0,1,.606-2.213,3.7,3.7,0,0,1,2.743-.958,5.531,5.531,0,0,1,.766.049.164.164,0,0,1,.038.313.529.529,0,0,0-.282.674,1.053,1.053,0,0,1,.76.359,2.157,2.157,0,0,1,.286,1.724.166.166,0,0,1,0,.037v.332a3.379,3.379,0,0,1-2.349,3.143l.511.254.9-.9a.164.164,0,0,1,.231.231l-.981.982a.165.165,0,0,1-.189.031Zm-.576-.92c.8,0,2.128-1.366,2.128-2.822v-.265l-.566-.849a4.837,4.837,0,0,1-1.563.291,5.01,5.01,0,0,1-1.582-.292l-.543.814v.3C74.3,84.678,75.632,86.045,76.432,86.045Zm1.761-4.226.4.606a1.544,1.544,0,0,0-.249-1.082.716.716,0,0,0-.55-.246c-.031,0-.052,0-.057,0a.165.165,0,0,1-.174-.1,1.015,1.015,0,0,1,.063-.928c-.093,0-.2-.008-.315-.008a3.392,3.392,0,0,0-2.5.851,2.216,2.216,0,0,0-.538,1.462l.372-.557a.162.162,0,0,1,.2-.06,4.811,4.811,0,0,0,1.584.315,4.587,4.587,0,0,0,1.563-.315.176.176,0,0,1,.064-.013A.163.163,0,0,1,78.193,81.818ZM30.806,86.675a.139.139,0,0,1,.139-.14h0a.14.14,0,1,1-.142.14ZM31.8,84.7a4.359,4.359,0,1,1,3.083,1.277A4.33,4.33,0,0,1,31.8,84.7Zm.2-5.966a4.079,4.079,0,1,0,2.885-1.194A4.054,4.054,0,0,0,31.993,78.729Zm-1.187,7.1a.139.139,0,0,1,.139-.141h0a.141.141,0,1,1-.142.141ZM32.193,84.3a3.8,3.8,0,1,1,2.685,1.112A3.8,3.8,0,0,1,32.193,84.3Zm.2-5.171a3.517,3.517,0,1,0,2.486-1.03A3.52,3.52,0,0,0,32.392,79.127ZM12.48,85.4a.149.149,0,0,1-.149-.15v-1.5a.15.15,0,1,1,.3,0V85.1h1.35a.15.15,0,1,1,0,.3Zm17.9-.553h-.026a.136.136,0,0,1-.074-.039l-2.234-1.955a.14.14,0,0,1-.057-.113v-.282a.141.141,0,0,1,.282,0v.218l2.1,1.842.189-.181a.141.141,0,0,1,.194.2l-.281.269-.008.007,0,0h0a.138.138,0,0,1-.06.028h-.026Zm-.041-1.228A5.763,5.763,0,0,1,26.862,78.6a.14.14,0,1,1,.281,0,5.451,5.451,0,0,0,3.277,4.75.14.14,0,0,1-.042.275A.138.138,0,0,1,30.335,83.62Zm1.588-2.007a2.957,2.957,0,0,1,2.954-2.953.14.14,0,1,1,0,.281,2.675,2.675,0,0,0-2.672,2.672.141.141,0,0,1-.282,0Zm54.163-2.65v-.818h-9.5v.818a.164.164,0,1,1-.328,0v-.982a.163.163,0,0,1,.164-.163h4.749V76.673a.164.164,0,0,1,.328,0v1.146h4.752a.164.164,0,0,1,.164.163v.982a.164.164,0,0,1-.328,0Zm-59.11-.593a.141.141,0,0,1-.114-.125,4.431,4.431,0,0,1,1.187-3.826c1.967-1.868,5.571-1.363,5.723-1.34a.14.14,0,0,1,.12.121.142.142,0,0,1-.086.148.908.908,0,0,0-.522.487,1.4,1.4,0,0,0,0,.9,1.726,1.726,0,0,1,1.077.377,2.32,2.32,0,0,1,.732,1.706.141.141,0,0,1-.281.019,2.051,2.051,0,0,0-.63-1.507,1.421,1.421,0,0,0-.98-.31.136.136,0,0,1-.147-.086,1.762,1.762,0,0,1-.036-1.21,1.1,1.1,0,0,1,.3-.412c-1-.075-3.587-.108-5.079,1.308A3.944,3.944,0,0,0,27.113,77.7l.608-1.211a.142.142,0,0,1,.169-.071,11.663,11.663,0,0,0,3.038.531,11.966,11.966,0,0,0,3.064-.531.141.141,0,0,1,.169.071l.14.281a.139.139,0,0,1-.062.188.141.141,0,0,1-.189-.062l-.087-.175a11.768,11.768,0,0,1-3.035.508,11.524,11.524,0,0,1-3.009-.508l-.79,1.574a.139.139,0,0,1-.125.078Zm35.781-.085a.143.143,0,0,1-.143-.143v-.472a.553.553,0,0,1,.445-.546,1.964,1.964,0,0,0,.554-.3v-.236a1.425,1.425,0,0,1-.284-.813,1.147,1.147,0,0,1,1.142-1.2,1.135,1.135,0,0,1,1.143,1.2,1.427,1.427,0,0,1-.287.817v.23a1.935,1.935,0,0,0,.553.3.553.553,0,0,1,.446.546v.472a.143.143,0,0,1-.143.143Zm.4-.894c-.225.085-.261.14-.261.279V78h3.143v-.329c0-.139-.035-.194-.26-.279-.117-.043-.667-.261-.733-.5a.788.788,0,0,1-1.155,0C63.835,77.122,63.324,77.331,63.161,77.392Zm1.312-.535a.934.934,0,0,0,.586-.384.143.143,0,0,1,.032-.041,1.119,1.119,0,0,0,.239-.659.859.859,0,1,0-1.714,0,1.124,1.124,0,0,0,.247.67l.013.017A.946.946,0,0,0,64.473,76.857Zm-16,1.428a.143.143,0,0,1-.143-.143v-.472a.553.553,0,0,1,.446-.546,1.973,1.973,0,0,0,.553-.3v-.235a1.426,1.426,0,0,1-.285-.815,1.148,1.148,0,0,1,1.143-1.2,1.135,1.135,0,0,1,1.143,1.2,1.424,1.424,0,0,1-.284.812v.238a1.989,1.989,0,0,0,.552.3.553.553,0,0,1,.446.546v.472a.143.143,0,0,1-.143.143Zm.4-.894c-.225.085-.261.141-.261.279V78h3.143v-.329c0-.139-.036-.194-.26-.279-.117-.043-.669-.262-.733-.5a.789.789,0,0,1-1.155,0C49.548,77.123,49.039,77.331,48.876,77.392Zm1.31-.535a1.181,1.181,0,0,0,.857-1.084.859.859,0,1,0-1.714,0,1.122,1.122,0,0,0,.244.665.143.143,0,0,1,.022.028A.941.941,0,0,0,50.187,76.857Zm-42.468.568H6.941a.141.141,0,0,1-.1-.041l-.818-.818-.2.016H5.817a.141.141,0,0,1-.011-.281l.152-.012v-.561l-.13.01H5.817a.141.141,0,0,1-.011-.281l.152-.012v-.561l-.13.01H5.817a.14.14,0,0,1-.011-.28l.152-.012v-.95a.141.141,0,0,1,0-.022v-.3A6.218,6.218,0,0,1,4.184,71.58q-.363.1-.7.19a10.137,10.137,0,0,1-2.336.394c-.659,0-.744-.206-.783-.3-.066-.158-.265-.64,2.291-2.15a.141.141,0,1,1,.143.242C.478,71.328.616,71.741.622,71.757s.2.4,2.79-.259q.3-.076.615-.165a6.184,6.184,0,0,1,5.162-9.364V60.141a.14.14,0,0,1,.281,0v.14H10.6a.141.141,0,0,1,.14.14v.421H12a.141.141,0,0,1,.083.254l-.168.168.168.168a.14.14,0,0,1-.083.253H10.033a.137.137,0,0,1-.1-.041.14.14,0,0,1,0-.2l.322-.322H9.47v.844a6.194,6.194,0,0,1,5.858,4.683q.288-.162.554-.319c2.3-1.363,2.163-1.773,2.156-1.79s-.192-.387-2.632.22a.141.141,0,0,1-.068-.273c2.7-.672,2.9-.208,2.959-.055s.264.636-2.273,2.138q-.3.179-.633.364a6.18,6.18,0,0,1-2.69,6.389v.288a.143.143,0,0,1,0,.016v.432l.13-.01a.14.14,0,1,1,.023.28l-.152.012v.562l.13-.01a.14.14,0,1,1,.023.28l-.152.012v.562l.13-.01a.14.14,0,1,1,.023.28l-.152.012v.41a.14.14,0,0,1-.041.1l-.843.843a.142.142,0,0,1-.1.041h-.782a2.159,2.159,0,0,1-1.609.563A2.161,2.161,0,0,1,7.718,77.425Zm1.61.281a2.2,2.2,0,0,0,1.158-.281H8.169A2.2,2.2,0,0,0,9.328,77.706ZM7,77.144h4.662l.76-.76v-.329l-6.03.482Zm-.76-.877,6.183-.494v-.562l-6.183.495Zm0-.843,6.183-.494v-.562l-6.183.495Zm0-.842,6.183-.495v-.315H6.239Zm-.067-1.449a.14.14,0,0,1,.065.119v.24H12.42v-.24a.139.139,0,0,1,.066-.119,5.9,5.9,0,0,0,2.648-6.051,55.625,55.625,0,0,1-5.226,2.463A55.689,55.689,0,0,1,4.469,71.5,5.94,5.94,0,0,0,6.172,73.131ZM3.427,68.151a5.87,5.87,0,0,0,.88,3.1A54.813,54.813,0,0,0,9.8,69.283a54.873,54.873,0,0,0,5.274-2.49A5.9,5.9,0,0,0,3.427,68.151Zm8.233-6.746-.041-.041a.141.141,0,0,1,0-.2l.04-.041H10.653l-.281.281Zm-1.205-.562v-.281H9.47v.281ZM54.576,77.021l-.191-.192a.143.143,0,0,1,.007-.232l.182-.183a.143.143,0,0,1,.232.158h5.065a.143.143,0,0,1,.229-.165l.2.2a.144.144,0,0,1-.025.225l-.178.177a.143.143,0,0,1-.2,0,.143.143,0,0,1-.031-.156H54.806a.143.143,0,0,1-.028.162.143.143,0,0,1-.2,0Zm25.936-1.33a.163.163,0,0,1,.327-.008c.01.06.124.172.491.172s.483-.113.491-.173a.158.158,0,0,1,.124-.155h-1.6a.164.164,0,0,1-.146-.09l-.282-.564H79.7a.164.164,0,0,1,0-.328h.161v-.327H79.7a.164.164,0,0,1,0-.328h.161v-.751a2.781,2.781,0,1,1,2.946,0v.751h.166a.164.164,0,1,1,0,.328H82.8v.327h.166a.164.164,0,1,1,0,.328H82.74l-.282.564a.165.165,0,0,1-.147.09h-.289a.169.169,0,0,1,.126.164c0,.02-.009.491-.818.491S80.512,75.711,80.512,75.691Zm-.063-.491h1.761l.163-.327H80.286Zm2.026-.654v-.327H80.185v.327Zm0-.654v-.328H80.185v.328Zm-3.6-3.109A2.464,2.464,0,0,0,80.1,72.905a.163.163,0,0,1,.082.141v.19h2.291v-.19a.163.163,0,0,1,.082-.141,2.454,2.454,0,1,0-3.682-2.124ZM62.758,75.143H62.47a.143.143,0,0,1-.047-.277l-1.189-1.193a.143.143,0,0,1,.2-.2l1.187,1.19a.143.143,0,0,1,.276.053v.256a.142.142,0,0,1-.04.131.141.141,0,0,1-.1.041Zm-10.859,0h0a.142.142,0,0,1-.139-.172v-.256a.143.143,0,0,1,.276-.053l1.187-1.19a.143.143,0,0,1,.2.2l-1.189,1.193a.143.143,0,0,1-.047.277Zm8.858-2H53.9A.143.143,0,0,1,53.757,73v-.952c0-.557.3-.777.807-.967.268-.1.661-.251.989-.407a.143.143,0,1,1,.122.257c-.337.161-.739.315-1.012.417-.488.183-.621.333-.621.7v.809h6.573v-.809c0-.367-.134-.517-.622-.7-.272-.1-.672-.255-1.012-.418a.143.143,0,0,1,.123-.258c.329.158.722.309.988.409.511.191.807.41.807.967V73a.143.143,0,0,1-.143.142Zm20.737-.4v-.26l-.163-.163-.165.165v.258a.164.164,0,1,1-.328,0v-.327a.163.163,0,0,1,.062-.128l.315-.315a.164.164,0,0,1,.231,0h0l.327.327a.163.163,0,0,1,.048.124v.319a.164.164,0,1,1-.328,0Zm-24.007-.016-.113-1.019a.148.148,0,0,1-.031,0,.141.141,0,0,1-.03,0L57.2,72.729a.143.143,0,0,1-.142.127h-.016a.143.143,0,0,1-.126-.158l.135-1.216-.1-.1a.144.144,0,0,1-.022-.028l-.111.055a.141.141,0,0,1-.165-.027l-.857-.857a.143.143,0,0,1,.2-.2l.785.785.446-.222a.144.144,0,0,1,.088-.033h0a2.881,2.881,0,0,1-2.143-2.749h0V67.87a.144.144,0,0,1-.01-.039,2.373,2.373,0,0,1,.512-1.893,3.068,3.068,0,0,1,2.274-.793,5.075,5.075,0,0,1,.825.063.142.142,0,0,1,.117.125.144.144,0,0,1-.087.148.424.424,0,0,0-.25.223.447.447,0,0,0-.011.262.92.92,0,0,1,.662.313,1.884,1.884,0,0,1,.249,1.508.144.144,0,0,1,0,.03v.29h0a2.886,2.886,0,0,1-2.135,2.749h0a.145.145,0,0,1,.1.033l.446.222.785-.785a.143.143,0,0,1,.2.2L58,71.385a.144.144,0,0,1-.1.042.148.148,0,0,1-.064-.015l-.092-.046a.144.144,0,0,1-.016.019l-.094.094.135,1.217a.143.143,0,0,1-.126.158H57.63A.143.143,0,0,1,57.488,72.729Zm-.144-1.361.035-.035.016-.016.084-.084-.147-.073-.131.065.09.09a.143.143,0,0,1,.023.023Zm-1.878-3.261a2.606,2.606,0,0,0,1.858,2.462,2.605,2.605,0,0,0,1.857-2.462h0v-.232l-.493-.741a4.217,4.217,0,0,1-1.364.255,4.328,4.328,0,0,1-1.381-.256l-.475.713v.261h0Zm3.395-1.227.353.528A1.344,1.344,0,0,0,59,66.465a.627.627,0,0,0-.481-.214c-.028,0-.046,0-.049,0a.143.143,0,0,1-.148-.082A.8.8,0,0,1,58.3,65.6a.6.6,0,0,1,.086-.151,3.159,3.159,0,0,0-2.489.683,1.881,1.881,0,0,0-.453,1.237l.324-.486a.142.142,0,0,1,.174-.053,4.191,4.191,0,0,0,1.383.274,4.008,4.008,0,0,0,1.364-.274.149.149,0,0,1,.055-.011A.141.141,0,0,1,58.861,66.881ZM7.925,71.944c0-.236.247-.421.562-.421s.562.185.562.421-.247.422-.562.422S7.925,72.181,7.925,71.944Zm.281,0c0,.058.11.141.282.141s.281-.084.281-.141-.113-.14-.281-.14S8.206,71.888,8.206,71.944Zm56.144,0-.178-.178a.143.143,0,0,1,.157-.232V66.753a.141.141,0,0,1-.059.013.144.144,0,0,1-.1-.042.142.142,0,0,1,0-.2l.191-.19a.143.143,0,0,1,.215-.014h0l.015.018.186.186a.142.142,0,0,1,0,.2.144.144,0,0,1-.1.042.141.141,0,0,1-.058-.013v4.781a.143.143,0,0,1,.166.228l-.2.2a.141.141,0,0,1-.073.039.143.143,0,0,1-.154-.064ZM50.06,71.935l-.173-.172a.143.143,0,0,1,.155-.233V66.753a.14.14,0,0,1-.06.014.143.143,0,0,1-.1-.244l.194-.194a.143.143,0,0,1,.11-.052.141.141,0,0,1,.059.013.142.142,0,0,1,.043.029l.015.018.186.186a.143.143,0,0,1-.16.231v4.782a.143.143,0,0,1,.167.227l-.2.2a.14.14,0,0,1-.077.039l-.029,0A.143.143,0,0,1,50.06,71.935ZM81.5,71.763V70.636a.165.165,0,0,1,0-.017.654.654,0,1,1,1.309,0,.164.164,0,0,1,0,.02.656.656,0,0,1-.654.634.164.164,0,0,1,0-.328.328.328,0,0,0,.328-.328s0-.009,0-.013a.327.327,0,0,0-.654,0s0,.009,0,.013v1.145a.164.164,0,1,1-.328,0Zm-.656,0V70.618s0-.009,0-.013a.327.327,0,1,0-.327.34.164.164,0,0,1,0,.328.655.655,0,1,1,.655-.654.164.164,0,0,1,0,.017v1.128a.164.164,0,1,1-.328,0Zm-69.816-.381a.14.14,0,0,1,.14-.14h0a.14.14,0,1,1,0,.281A.142.142,0,0,1,11.023,71.383Zm1.526-.535a.566.566,0,0,1,.1-.789.583.583,0,0,1,.789-.1.566.566,0,0,1-.1.789.7.7,0,0,1-.483.218A.427.427,0,0,1,12.549,70.847Zm.3-.59c-.144.144-.167.322-.1.392a.148.148,0,0,0,.107.038.426.426,0,0,0,.284-.136c.144-.144.167-.322.1-.392a.153.153,0,0,0-.107-.037A.426.426,0,0,0,12.846,70.257ZM5.4,68.993a.562.562,0,1,1,.563.563A.563.563,0,0,1,5.4,68.993Zm.281,0a.281.281,0,1,0,.282-.281A.282.282,0,0,0,5.677,68.993ZM4.271,68.15A5.065,5.065,0,0,1,9.33,63.091a.141.141,0,0,1,0,.282A4.783,4.783,0,0,0,4.552,68.15a.14.14,0,0,1-.281,0ZM7.925,66.6A1.342,1.342,0,0,1,9.331,65.34a1.272,1.272,0,1,1,0,2.529A1.342,1.342,0,0,1,7.925,66.6Zm.281,0a1.063,1.063,0,0,0,1.125.984.992.992,0,1,0,0-1.967A1.063,1.063,0,0,0,8.206,66.6Zm4.784.281a.139.139,0,0,1,.139-.14h0a.141.141,0,0,1,0,.282A.142.142,0,0,1,12.991,66.885Zm-6.464-.843a.139.139,0,0,1,.139-.14h0a.141.141,0,1,1-.141.14Zm54.707-.084a.143.143,0,0,1,0-.2l1.19-1.193a.143.143,0,0,1,.048-.277h.283a.145.145,0,0,1,.107.041.142.142,0,0,1,.04.126v.261a.143.143,0,0,1-.276.053l-1.188,1.191a.141.141,0,0,1-.2,0Zm-8.011,0-1.188-1.191a.143.143,0,0,1-.276-.053v-.261a.143.143,0,0,1,.152-.167h.278a.143.143,0,0,1,.048.277l1.19,1.193a.143.143,0,0,1-.2.2Zm-41.45-1.072c-.4-.4-.53-.871-.3-1.1s.716-.079,1.1.3c.4.4.53.872.3,1.1a.4.4,0,0,1-.293.112A1.264,1.264,0,0,1,11.772,64.886Zm-.105-.9c-.078.079,0,.4.3.7a1,1,0,0,0,.606.332.143.143,0,0,0,.1-.029c.078-.079,0-.4-.3-.7a1.007,1.007,0,0,0-.607-.332A.137.137,0,0,0,11.667,63.987ZM25.9,65.031a1.267,1.267,0,0,1-1.266-1.265V57.578a.141.141,0,1,1,.282,0v6.188a.985.985,0,0,0,.985.984H40.8a.985.985,0,0,0,.985-.984V57.578a.141.141,0,1,1,.282,0v6.188A1.267,1.267,0,0,1,40.8,65.031Zm13.853-.562a.14.14,0,1,1,0-.281h.563a.14.14,0,1,1,0,.281Zm-1.125,0a.14.14,0,1,1,0-.281h.563a.14.14,0,1,1,0,.281Zm-1.125,0a.14.14,0,1,1,0-.281h.563a.14.14,0,1,1,0,.281Zm-1.125,0a.14.14,0,1,1,0-.281h.563a.14.14,0,1,1,0,.281Zm-1.125,0a.14.14,0,1,1,0-.281h.563a.14.14,0,1,1,0,.281Zm-1.125,0a.14.14,0,1,1,0-.281h.563a.14.14,0,1,1,0,.281Zm-1.125,0a.14.14,0,1,1,0-.281h.563a.14.14,0,1,1,0,.281Zm-1.125,0a.14.14,0,1,1,0-.281h.562a.14.14,0,1,1,0,.281Zm-1.125,0a.14.14,0,1,1,0-.281h.563a.14.14,0,1,1,0,.281Zm-1.125,0a.14.14,0,1,1,0-.281h.563a.14.14,0,1,1,0,.281Zm-1.125,0a.14.14,0,1,1,0-.281h.563a.14.14,0,1,1,0,.281Zm-1.125,0a.14.14,0,1,1,0-.281h.563a.14.14,0,1,1,0,.281Zm-1.125,0a.14.14,0,1,1,0-.281h.563a.14.14,0,1,1,0,.281Zm14.486-.157a.14.14,0,0,1,.071-.185.719.719,0,0,0,.337-.315.14.14,0,1,1,.248.131.993.993,0,0,1-.469.44.148.148,0,0,1-.058.013A.141.141,0,0,1,40.736,64.312Zm-15.1-.005a1,1,0,0,1-.393-.51.141.141,0,1,1,.266-.09.718.718,0,0,0,.282.365.141.141,0,0,1-.077.258A.146.146,0,0,1,25.637,64.307Zm8.255-.541V63.2a.141.141,0,1,1,.282,0v.563a.141.141,0,0,1-.282,0Zm-.7,0V60.953a.141.141,0,1,1,.282,0v2.813a.141.141,0,0,1-.282,0Zm-.7,0V63.2a.141.141,0,1,1,.282,0v.563a.141.141,0,0,1-.282,0Zm30.271-.052a.143.143,0,0,1-.143-.142V63.1a.553.553,0,0,1,.445-.547,1.989,1.989,0,0,0,.554-.3v-.236a1.427,1.427,0,0,1-.284-.813A1.147,1.147,0,0,1,64.473,60a1.135,1.135,0,0,1,1.143,1.2,1.428,1.428,0,0,1-.287.817v.231a1.916,1.916,0,0,0,.553.3.553.553,0,0,1,.446.547v.472a.143.143,0,0,1-.143.142Zm.4-.894c-.225.085-.261.141-.261.28v.328h3.143V63.1c0-.139-.035-.2-.26-.279-.117-.044-.666-.262-.733-.5a.788.788,0,0,1-1.155,0C63.834,62.551,63.324,62.759,63.161,62.82Zm.455-1.618a1.18,1.18,0,0,0,.857,1.084.936.936,0,0,0,.587-.385.143.143,0,0,1,.028-.036,1.12,1.12,0,0,0,.241-.662.859.859,0,1,0-1.714,0ZM48.473,63.714a.143.143,0,0,1-.143-.142V63.1a.553.553,0,0,1,.446-.547,2,2,0,0,0,.553-.3v-.235a1.427,1.427,0,0,1-.285-.815A1.148,1.148,0,0,1,50.187,60a1.135,1.135,0,0,1,1.143,1.2,1.426,1.426,0,0,1-.284.812v.238a1.964,1.964,0,0,0,.552.3.551.551,0,0,1,.446.546v.472a.143.143,0,0,1-.143.142Zm.4-.894c-.225.085-.261.141-.261.28v.328h3.143V63.1c0-.139-.036-.2-.26-.279-.117-.044-.668-.263-.733-.5a.788.788,0,0,1-1.156,0C49.547,62.552,49.039,62.759,48.876,62.82Zm1.31-.535a1.181,1.181,0,0,0,.857-1.084.859.859,0,1,0-1.714,0,1.124,1.124,0,0,0,.247.669.143.143,0,0,1,.015.02A.944.944,0,0,0,50.187,62.285Zm-8.962,1.046v-.562a.14.14,0,0,1,.281,0v.563a.14.14,0,1,1-.281,0Zm-16.032-.137v-.562a.141.141,0,1,1,.282,0v.563a.141.141,0,0,1-.282,0Zm8.7-.554v-.562a.141.141,0,1,1,.282,0v.563a.141.141,0,0,1-.282,0Zm-1.406,0v-.562a.141.141,0,1,1,.282,0v.563a.141.141,0,0,1-.282,0Zm8.738-.435v-.562a.14.14,0,0,1,.281,0v.563a.14.14,0,1,1-.281,0Zm-16.032-.137v-.562a.141.141,0,1,1,.282,0v.563a.141.141,0,0,1-.282,0Zm29.382-.189-.2-.2a.142.142,0,0,1,0-.2h0l.018-.015.185-.185a.143.143,0,0,1,.232.158h5.066a.143.143,0,0,1,.228-.165l.2.2a.144.144,0,0,1-.025.225l-.178.177a.143.143,0,0,1-.232-.156H54.805a.144.144,0,0,1-.028.162.141.141,0,0,1-.1.041A.142.142,0,0,1,54.575,61.88Zm-20.683-.365v-.562a.141.141,0,1,1,.282,0v.563a.141.141,0,0,1-.282,0Zm-1.406,0v-.562a.141.141,0,1,1,.282,0v.563a.141.141,0,0,1-.282,0Zm8.738-.435v-.562a.14.14,0,0,1,.281,0v.563a.14.14,0,1,1-.281,0ZM72.33,58.639h0a1.458,1.458,0,0,1,.521-1.132c1.474-1.3,5.638-.819,5.963-.779.264-.02,3.248-.228,4.071.533a.661.661,0,0,1,.231.5c0,.56-3.691,1.022-4.343,1.022h-2.1a.141.141,0,0,1,0-.282h2.1a14.25,14.25,0,0,0,4.061-.77.394.394,0,0,0-.14-.262c-.626-.578-3.007-.526-3.872-.458h-.029c-.043-.005-4.35-.531-5.757.71a1.172,1.172,0,0,0-.426.921c0,1.666,4.269,2.26,8.264,2.26a23.055,23.055,0,0,0,5.06-1.282c2.334-.806,3.948-1.607,4.114-2.042-.225-.3-3.527-.079-6.455.3a.141.141,0,0,1-.036-.279c1.458-.19,6.252-.766,6.716-.179a.254.254,0,0,1,.038.256c-.466,1.223-7.8,3.506-9.437,3.506C78.306,61.18,72.333,60.932,72.33,58.639ZM25.193,60.944v-.562a.141.141,0,1,1,.282,0v.563a.141.141,0,0,1-.282,0Zm7.152-.413a.141.141,0,0,1-.141-.14V57.578a.141.141,0,0,1,.141-.141h1.968a.14.14,0,0,1,.14.141v2.813a.14.14,0,0,1-.14.14Zm.14-.282h1.688V58.568H32.486Zm1.688-1.964v-.567h-.281a.14.14,0,0,1-.14.14h-.843a.141.141,0,0,1-.141-.14h-.282v.567Zm7.052,1.67v-.562a.14.14,0,0,1,.281,0v.563a.14.14,0,1,1-.281,0Zm-8.035-.128v-.165a.422.422,0,1,1,.282,0v.166a.141.141,0,0,1-.282,0Zm0-.563a.141.141,0,1,0,.14-.14A.141.141,0,0,0,33.188,59.265Zm-8,.554v-.562a.141.141,0,1,1,.282,0v.563a.141.141,0,0,1-.282,0Zm16.032-.988v-.562a.14.14,0,0,1,.281,0v.563a.14.14,0,1,1-.281,0Zm-16.032-.137v-.562a.141.141,0,1,1,.282,0v.563a.141.141,0,0,1-.282,0Zm9.824-.313a.141.141,0,0,1,.132-.149,17.345,17.345,0,0,0,6.9-1.581V52.8a1.267,1.267,0,0,0-1.266-1.265H25.877A1.267,1.267,0,0,0,24.611,52.8v3.855a17.333,17.333,0,0,0,6.9,1.581.141.141,0,0,1-.008.281h-.009c-4.766-.288-7-1.6-7.095-1.659a.14.14,0,0,1-.068-.121V52.8a1.549,1.549,0,0,1,1.547-1.547H40.783A1.549,1.549,0,0,1,42.33,52.8v3.938a.139.139,0,0,1-.068.121c-.093.056-2.327,1.371-7.095,1.659h0A.146.146,0,0,1,35.017,58.381Zm-.844-1.225a.844.844,0,0,0-1.687,0,.141.141,0,0,1-.282,0,1.125,1.125,0,0,1,2.25,0,.14.14,0,0,1-.281,0Zm49.058.08a.142.142,0,0,1,.015-.2,2.54,2.54,0,0,0,.275-.284c.068-.079.142-.156.217-.231a2.259,2.259,0,0,0,.383-.469,2.171,2.171,0,0,0,.193-.647,2.3,2.3,0,0,1,.241-.766l.059-.1a5.5,5.5,0,0,0,.57-1.148,1.3,1.3,0,0,1-1.26-.511.392.392,0,0,1-.013-.422c.161-.219.493-.131.814-.044.194.052.46.123.545.066.006,0,.027-.017.033-.075.021-.171.409-.417.678-.523a5.091,5.091,0,0,0-2.756-2.7.771.771,0,0,1-.273.222c-.216.105-.445.2-.666.284a3.3,3.3,0,0,0-1.541.96c-.066.086-.112.2-.077.238s.227.009.328-.009a1.137,1.137,0,0,1,.263-.028c.154.011,2.009.293,2.09.708a.467.467,0,0,1-.237.436,1,1,0,0,1-1.076.062,6.336,6.336,0,0,0-.977-.225l-.045-.008a1.381,1.381,0,0,0-.854.355,1.562,1.562,0,0,0-.45,1.277.913.913,0,0,0,.967.959h.15c.508,0,1.085,0,1.279.7a4.692,4.692,0,0,1,.13.905c.012.145.022.29.04.434a.14.14,0,0,1-.121.157h-.018a.141.141,0,0,1-.14-.122c-.018-.149-.03-.3-.041-.447a4.546,4.546,0,0,0-.121-.851c-.131-.469-.468-.493-1.008-.494h-.154a1.2,1.2,0,0,1-1.244-1.231A1.813,1.813,0,0,1,80,51.943a1.6,1.6,0,0,1,1.067-.4l.044.008a5.076,5.076,0,0,1,1.063.256.719.719,0,0,0,.731-.014c.131-.08.171-.165.17-.185a5.84,5.84,0,0,0-1.833-.481,1.029,1.029,0,0,0-.194.024c-.2.035-.443.079-.587-.079s-.107-.374.062-.6a3.564,3.564,0,0,1,1.661-1.052c.216-.085.44-.174.646-.274a.568.568,0,0,0,.113-.074,5.061,5.061,0,0,0-6.55,3.691,6.217,6.217,0,0,1,.858,1.121c.063.1.113.172.145.216.07.1.145.2.219.293.1.135.205.27.3.409a1.965,1.965,0,0,1,.456,1.466.14.14,0,0,1-.138.112l-.028,0a.14.14,0,0,1-.111-.165,1.733,1.733,0,0,0-.412-1.252c-.093-.136-.193-.267-.293-.4-.076-.1-.151-.2-.223-.3-.032-.046-.085-.125-.151-.224a9.81,9.81,0,0,0-.686-.947,5.077,5.077,0,0,0-.059.775A5.008,5.008,0,0,0,76.8,56.12a.141.141,0,0,1-.252.125,5.358,5.358,0,0,1-.45-3.433.139.139,0,0,1,.006-.029,5.342,5.342,0,0,1,7.1-3.916l.015.005A5.369,5.369,0,0,1,86.292,51.9a.144.144,0,0,1,.018.047,5.345,5.345,0,0,1-.669,5.08.142.142,0,0,1-.113.058.138.138,0,0,1-.084-.028.14.14,0,0,1-.03-.2,5.062,5.062,0,0,0,.669-4.718,1.641,1.641,0,0,0-.5.321.365.365,0,0,1-.153.254c-.191.128-.474.052-.775-.028-.163-.044-.467-.125-.514-.061a.221.221,0,0,0,.051.151c.063.091.323.386,1.043.331a.208.208,0,0,1,.2.095c.112.177-.028.536-.575,1.48l-.058.1a2.09,2.09,0,0,0-.208.677,2.394,2.394,0,0,1-.222.73,2.5,2.5,0,0,1-.429.53c-.07.072-.139.143-.2.219a2.845,2.845,0,0,1-.306.315.138.138,0,0,1-.091.033A.141.141,0,0,1,83.231,57.236ZM24.892,56.172v-.281a.141.141,0,0,1,.282,0v.281a.141.141,0,1,1-.282,0Zm16.593,0v-.562a.141.141,0,0,1,.282,0v.563a.141.141,0,0,1-.282,0ZM88.357,55.7v-.421h-.14a.141.141,0,0,1,0-.282h.14v-.421a.141.141,0,1,1,.282,0V55h.14a.141.141,0,0,1,0,.282h-.14V55.7a.141.141,0,0,1-.282,0Zm-63.464-.427v-.619a.141.141,0,0,1,.282,0v.619a.141.141,0,0,1-.282,0Zm49.136-.136a.139.139,0,0,1,.139-.14h0a.141.141,0,0,1,0,.282A.142.142,0,0,1,74.029,55.136Zm-32.543-.089v-.562a.141.141,0,0,1,.282,0v.563a.141.141,0,0,1-.282,0ZM24.892,54.034v-.619a.141.141,0,0,1,.282,0v.619a.141.141,0,0,1-.282,0Zm16.593-.113v-.562a.141.141,0,0,1,.282,0v.563a.141.141,0,0,1-.282,0Zm-26.671-.609H11.44a.141.141,0,0,1-.141-.14v-.937c0-.548.292-.764.795-.953.288-.107.659-.25.973-.4a.141.141,0,1,1,.122.254c-.324.155-.7.3-1,.41-.481.18-.612.328-.612.689v.8H15.1a.142.142,0,0,1-.139-.126l-.111-1a.135.135,0,0,1-.061,0l-.111,1a.141.141,0,0,1-.139.125h-.016a.141.141,0,0,1-.124-.156l.133-1.2-.092-.092a.141.141,0,0,1-.018-.022l-.1.049a.143.143,0,0,1-.063.014.141.141,0,0,1-.1-.041l-.844-.843a.141.141,0,1,1,.2-.2l.772.772.441-.219a2.91,2.91,0,0,1-2.011-2.7v-.072c-.222.111-.354.187-.359.19a.14.14,0,0,1-.14,0,.142.142,0,0,1-.07-.122,2.558,2.558,0,0,1,1.051-2.277l-.163-.15a.144.144,0,0,1-.042-.131.139.139,0,0,1,.091-.1,5.319,5.319,0,0,1,1.611-.274,2.228,2.228,0,0,1,1.71.626,2.616,2.616,0,0,1,.532,2.04.141.141,0,0,1,0,.018v.235a.141.141,0,0,1,0,.022,2.9,2.9,0,0,1-2.018,2.7l.44.218.772-.772a.141.141,0,0,1,.2.2l-.843.843a.141.141,0,0,1-.1.041.139.139,0,0,1-.062-.014l-.1-.052a.141.141,0,0,1-.02.025l-.093.093.134,1.2a.142.142,0,0,1-.124.156h2.938v-.8c0-.362-.131-.51-.612-.689-.293-.11-.671-.256-1-.411a.141.141,0,0,1,.122-.254c.315.151.686.294.974.4.5.188.795.4.795.953v.937a.141.141,0,0,1-.141.14Zm0-1.746.138-.138-.134-.067-.14.069Zm.008-.747a2.564,2.564,0,0,0,1.828-2.41.141.141,0,0,1,0-.015v-.244l-.526-.748A7.41,7.41,0,0,0,13,48.187v.208A2.565,2.565,0,0,0,14.823,50.819Zm-1.42-4.9.124.115a.14.14,0,0,1,.043.127.142.142,0,0,1-.083.105,2.1,2.1,0,0,0-1.055,1.879,8.156,8.156,0,0,1,3.776-1.024.139.139,0,0,1,.107.06l.35.5a2.078,2.078,0,0,0-.47-1.413,1.965,1.965,0,0,0-1.5-.535A5.036,5.036,0,0,0,13.4,45.923Zm-9.556,7.39H.471a.141.141,0,0,1-.14-.14v-.938c0-.548.292-.764.795-.952.168-.063.616-.23.973-.4a.14.14,0,0,1,.187.066.141.141,0,0,1-.067.188c-.329.158-.726.31-1,.41-.481.179-.612.328-.612.688v.8h6.47v-.8c0-.362-.132-.51-.612-.689-.269-.1-.666-.253-1-.411a.141.141,0,1,1,.122-.254c.32.154.709.3.973.4.5.188.795.4.795.953v.937a.141.141,0,0,1-.14.14ZM41.486,52.8v-.281a.141.141,0,1,1,.282,0V52.8a.141.141,0,0,1-.282,0Zm-16.593,0v-.281a.141.141,0,1,1,.282,0V52.8a.141.141,0,0,1-.282,0ZM3.713,52.61a.139.139,0,0,1,.139-.14h0a.14.14,0,1,1-.142.14Zm69.19,0a.14.14,0,0,1,.139-.14h0a.141.141,0,0,1,0,.282A.142.142,0,0,1,72.9,52.606ZM28.69,52.375a.14.14,0,1,1,0-.281h9.281a.14.14,0,0,1,0,.281ZM3.713,52.047a.139.139,0,0,1,.139-.141h0a.141.141,0,1,1-.142.141Zm84.37-.284a.14.14,0,0,1,.14-.14h0a.14.14,0,0,1,0,.281A.142.142,0,0,1,88.083,51.763Zm-39.6.019a.14.14,0,0,1-.14-.141V44.669a.141.141,0,0,1,0-.119V39.828a.14.14,0,0,1,.14-.14h1.956a.141.141,0,0,1,0,.282H48.625v.653l1.917,1.917a.141.141,0,0,1,0,.2l-1.917,1.916V47.1l3.321,3.321a.141.141,0,0,1,0,.2l-.014.012-.872.872H52.63L54,50.135h0l0,0,0,0,0,0,0,0,0,0,0,0,0,0,0,0,0,0h0l0,0h0l.005,0h0a.141.141,0,0,1,.159.028l1.112,1.113.014.012a.141.141,0,0,1,0,.2l-.041.041h1.853l-2.992-2.992-1.026,1.026a.144.144,0,0,1-.1.041.14.14,0,0,1-.073-.021.145.145,0,0,1-.027-.021l-3.7-3.7a.141.141,0,0,1,0-.2l.01-.009L50.9,43.947a.141.141,0,0,1,.2.2l-1.589,1.589,3.5,3.5,1.026-1.026a.143.143,0,0,1,.2,0l3.29,3.29h1.006l.985-.985-3.556-3.556a.141.141,0,0,1,.2-.2l3.657,3.657a.141.141,0,0,1,0,.2l-.013.011-.874.874h2.133l.7-.7-4.963-4.963a.141.141,0,1,1,.2-.2L62.069,50.7a.141.141,0,0,1,0,.2l-.6.6h1.01l3.574-3.574V46.917l-3.266,3.266-.009.01a.14.14,0,0,1-.1.041h0a.137.137,0,0,1-.1-.041l-.009-.01L57.371,44.99a.141.141,0,1,1,.2-.2l5.1,5.1,3.375-3.375V44.667l-.323.323a.14.14,0,0,1-.1.041.137.137,0,0,1-.1-.041L64.4,43.865a.141.141,0,0,1,0-.2l1.647-1.647v-1.29L64.039,42.74a.141.141,0,0,1-.1.041h0a.141.141,0,0,1-.1-.041l-1.406-1.407a.141.141,0,0,1,0-.2L63.6,39.969H60.06l-1.365,1.364a.137.137,0,0,1-.1.041.141.141,0,0,1-.1-.24l1.166-1.166H58.316a.141.141,0,0,1,0-.282H66.19a.141.141,0,0,1,.14.14V51.64a.141.141,0,0,1-.14.141ZM66.049,51.5V50.292L64.841,51.5Zm-1.606,0,1.606-1.606V48.323L62.873,51.5Zm-9.562,0,.14-.14-.927-.927L53.028,51.5Zm-6.257,0h2.037l.985-.985-3.022-3.022Zm17-6.808.423-.423V42.417L64.7,43.766Zm-17-.435,1.619-1.618L48.625,41.02Zm15.314-1.815,2.11-2.11v-.363H64l-1.265,1.265ZM4.349,51.611l-.5-.248-.5.248a.139.139,0,0,1-.062.014.141.141,0,0,1-.1-.041l-.843-.843a.141.141,0,0,1,.2-.2l.772.772.438-.217,0,0a2.91,2.91,0,0,1-2.01-2.683.143.143,0,0,1,0-.017v-.239a.14.14,0,0,1-.007-.033,2.378,2.378,0,0,1,.521-1.9A3.179,3.179,0,0,1,4.615,45.4a4.742,4.742,0,0,1,.658.041.141.141,0,0,1,.032.269.454.454,0,0,0-.241.579.9.9,0,0,1,.652.309,1.855,1.855,0,0,1,.244,1.489.143.143,0,0,1,0,.024v.27a.141.141,0,0,1,0,.016,2.9,2.9,0,0,1-2.019,2.7h0l.438.217.773-.772a.141.141,0,0,1,.2.2l-.844.843a.141.141,0,0,1-.162.027ZM2.026,48.395a2.566,2.566,0,0,0,1.828,2.425,2.563,2.563,0,0,0,1.829-2.4.141.141,0,0,1,0-.021v-.234L5.2,47.437a4.164,4.164,0,0,1-1.343.25,4.287,4.287,0,0,1-1.36-.251l-.47.7v.238A.141.141,0,0,1,2.026,48.395Zm3.343-1.207.346.52a1.328,1.328,0,0,0-.213-.93.615.615,0,0,0-.473-.211c-.027,0-.045,0-.049,0a.14.14,0,0,1-.149-.086.867.867,0,0,1,.054-.8c-.08,0-.172-.007-.271-.007a2.917,2.917,0,0,0-2.149.731A1.907,1.907,0,0,0,2,47.666l.319-.479a.14.14,0,0,1,.17-.051,4.126,4.126,0,0,0,1.362.27,3.963,3.963,0,0,0,1.343-.27.146.146,0,0,1,.055-.011A.14.14,0,0,1,5.369,47.188Zm30.492,3.64v-.422H35.58v.422a.14.14,0,1,1-.281,0v-.422H31.361v.422a.14.14,0,1,1-.281,0v-.422H30.8v.422a.14.14,0,1,1-.281,0V49.7a.141.141,0,0,1,.04-.1c.024-.025.613-.606,2.773-.606s2.749.581,2.772.606a.138.138,0,0,1,.041.1v.563a.141.141,0,0,1,0,.016v.547a.14.14,0,1,1-.281,0ZM30.8,49.77v.355h5.062V49.77a4.506,4.506,0,0,0-2.531-.489A4.507,4.507,0,0,0,30.8,49.77Zm43.5.025v-.422h-.14a.14.14,0,1,1,0-.281h.14V48.67a.14.14,0,1,1,.281,0v.422h.14a.14.14,0,1,1,0,.281h-.14V49.8a.14.14,0,1,1-.281,0Zm15.189-.843a.138.138,0,0,1,.139-.14h0a.14.14,0,0,1,0,.281A.141.141,0,0,1,89.492,48.952Zm-26.965-.827a.14.14,0,0,1-.093-.041L58.5,44.146a.141.141,0,0,1,0-.2l1.959-1.959.009-.01a.142.142,0,0,1,.2,0l.009.01,3.919,3.919.01.009a.141.141,0,0,1,0,.2l-1.968,1.968a.14.14,0,0,1-.1.041Zm.007-.339L64.3,46.016l-3.739-3.739-1.77,1.769Zm24.42-.52v-.422h-.14a.14.14,0,1,1,0-.281h.14V46.14a.141.141,0,0,1,.282,0v.422h.14a.14.14,0,0,1,0,.281h-.14v.422a.141.141,0,0,1-.282,0Zm-2.523,0a.139.139,0,0,1,.14-.14h0a.14.14,0,0,1,0,.281A.142.142,0,0,1,84.43,47.265Zm-6.465,0a.138.138,0,0,1,.139-.14h0a.14.14,0,1,1,0,.281A.141.141,0,0,1,77.965,47.265Zm-27.1-5.75a3.515,3.515,0,1,1,7.031,0c0,1.954-2.686,5.766-3.515,5.766S50.862,43.469,50.862,41.515Zm.281,0C51.143,43.4,53.771,47,54.377,47s3.235-3.6,3.235-5.485a3.235,3.235,0,0,0-6.469,0ZM81.057,46.14A.139.139,0,0,1,81.2,46h0a.141.141,0,1,1-.141.14Zm-67.131-.991-1.666-.555H7.5a.7.7,0,0,1-.7-.7V38.828a.7.7,0,0,1,.7-.7h.423a.14.14,0,0,1,.14-.14h.843a.141.141,0,0,1,.141.14h.984a.141.141,0,0,1-.14-.14V37.14a.141.141,0,0,1,.14-.14h2.813a.14.14,0,0,1,.14.14v.547a.141.141,0,0,1,0,.016v.282a.141.141,0,0,1-.14.14h.985a.14.14,0,0,1,.14-.14h.843a.141.141,0,0,1,.141.14h.42a.7.7,0,0,1,.7.7V43.89a.7.7,0,0,1-.7.7H14.111v.421a.142.142,0,0,1-.141.141A.151.151,0,0,1,13.926,45.149ZM7.079,38.828V43.89a.422.422,0,0,0,.422.422h4.781a.152.152,0,0,1,.045.007l1.5.5v-.368a.141.141,0,0,1,.14-.14h1.407a.423.423,0,0,0,.422-.422V38.828a.423.423,0,0,0-.422-.421H7.5A.422.422,0,0,0,7.079,38.828Zm5.767-.7a.141.141,0,0,1-.14-.14v-.14H10.174v.14a.14.14,0,0,1-.14.14Zm-2.673-.562h2.532v-.281h-.281a.14.14,0,0,1-.281,0h-.282a.14.14,0,0,1-.281,0H11.3a.14.14,0,0,1-.281,0h-.281a.14.14,0,0,1-.281,0h-.282ZM3.217,44.577a.14.14,0,0,1-.074-.124v-.421H3a.7.7,0,0,1-.7-.7V40.515a.7.7,0,0,1,.7-.7H6.377a.141.141,0,1,1,0,.282H3a.422.422,0,0,0-.421.421v2.813A.422.422,0,0,0,3,43.75h.282a.141.141,0,0,1,.14.14v.3l.625-.417a.137.137,0,0,1,.077-.023h2.25a.141.141,0,1,1,0,.282H4.17l-.809.538a.134.134,0,0,1-.077.024A.144.144,0,0,1,3.217,44.577Zm5.411-1.67a.141.141,0,0,1,0-.282H11.44a.141.141,0,0,1,0,.282Zm-4.781-.282a.14.14,0,1,1,0-.281H6.377a.14.14,0,1,1,0,.281Zm29.476-.894a.141.141,0,1,1,.2-.2.562.562,0,0,0,.795-.8.14.14,0,1,1,.2-.2.843.843,0,0,1-1.192,1.193Zm-1.191-.4a.845.845,0,0,1,0-1.193l.6-.6a.863.863,0,0,1,1.193,0,.844.844,0,0,1,0,1.192l-.6.6a.844.844,0,0,1-1.193,0Zm.795-1.59-.6.6a.562.562,0,0,0,.8.795l.6-.6a.563.563,0,0,0-.8-.8ZM8.627,41.5a.141.141,0,0,1,0-.282h5.343a.141.141,0,1,1,0,.282Zm-4.781,0a.141.141,0,1,1,0-.282H6.377a.141.141,0,1,1,0,.282Zm30.866-1.161a.14.14,0,0,1,.2-.2.577.577,0,0,0,.8,0,.562.562,0,0,0,0-.795l-1.093-1.094a.141.141,0,1,1,.2-.2L35.9,39.147a.843.843,0,0,1,0,1.193.842.842,0,0,1-1.192,0Zm-3.974-.4a.845.845,0,0,1,0-1.193l.795-.8a.865.865,0,0,1,1.192,0,.846.846,0,0,1,0,1.193l-.795.795a.844.844,0,0,1-1.193,0Zm.994-1.789-.795.795a.563.563,0,0,0,0,.8.562.562,0,0,0,.795,0l.795-.795a.563.563,0,0,0,0-.8.564.564,0,0,0-.795,0ZM8.627,40.094a.141.141,0,0,1,0-.282h5.343a.141.141,0,1,1,0,.282Zm27.479-1.146-1.094-1.093a.141.141,0,1,1,.2-.2L36.3,38.75a.562.562,0,1,0,.8-.795l-1.093-1.093a.141.141,0,1,1,.2-.2L37.3,37.756a.843.843,0,0,1-1.193,1.193Zm-6.758-.4a.842.842,0,0,1,0-1.193l.6-.6a.863.863,0,0,1,1.192,0,.841.841,0,0,1,0,1.192l-.6.6a.844.844,0,0,1-1.192,0Zm.795-1.59-.6.6a.563.563,0,0,0,0,.795.575.575,0,0,0,.795,0l.6-.6a.563.563,0,0,0-.8-.8ZM87.1,38.25h0a.14.14,0,0,1-.1-.046l-2.805-3.077,0,0a.141.141,0,0,1,0-.2l1.4-1.407a.141.141,0,0,1,.1-.046H88.5a.14.14,0,0,1,.1.047l1.387,1.4.01.008a.14.14,0,0,1,.037.153h0l0,.006h0l0,0v0l0,0,0,0v0l0,0h0l-.014.017L87.2,38.2l0,0,0,0h0a.139.139,0,0,1-.087.037H87.1Zm0-.456,1.178-2.356H85.918Zm-.577-.525L85.6,35.422l-.924-.179Zm1.157,0,1.843-2.021-.922.179Zm.524-2.108L87.1,33.83l-1.1,1.326Zm.442-.03.979-.19-.979-.985Zm-3.094,0V33.95l-.98.986Zm2.813-.217V33.75H87.4Zm-2.532,0L86.8,33.75H85.83Zm-12.8,3.342h-.562a.14.14,0,0,1-.14-.14V27.422A.422.422,0,0,1,72.752,27H86.815a.422.422,0,0,1,.422.422V27.7a.143.143,0,0,1,0,.016v2.516a.14.14,0,1,1-.281,0V27.843H73.174V37.968h12.8a.141.141,0,0,1,0,.282Zm-.141-.282v-.681a.141.141,0,0,1-.139.118h-.14v.563Zm-.139-.843a.141.141,0,0,1,.139.118v-.8a.141.141,0,0,1-.139.119h-.14v.563Zm0-.844a.141.141,0,0,1,.139.118v-.8a.141.141,0,0,1-.139.118h-.14v.563Zm0-.843a.141.141,0,0,1,.139.118v-.8a.141.141,0,0,1-.139.118h-.14v.563Zm0-.844a.141.141,0,0,1,.139.119v-.8a.141.141,0,0,1-.139.118h-.14v.563Zm0-.843a.141.141,0,0,1,.139.118v-.8a.141.141,0,0,1-.139.119h-.14v.563Zm0-.844a.141.141,0,0,1,.139.118v-.8a.141.141,0,0,1-.139.118h-.14v.563Zm0-.843a.141.141,0,0,1,.139.118v-.8a.141.141,0,0,1-.139.118h-.14v.563Zm0-.844a.141.141,0,0,1,.139.119v-.8a.14.14,0,0,1-.139.118h-.14v.563Zm0-.843a.141.141,0,0,1,.139.118v-.8a.141.141,0,0,1-.139.119h-.14v.563Zm0-.844a.141.141,0,0,1,.139.118v-.8a.141.141,0,0,1-.139.119h-.14v.562Zm0-.843a.141.141,0,0,1,.139.118v-.962h-.28v.844Zm-.14-1.265v.14H86.955v-.14a.143.143,0,0,0-.14-.141H72.752A.141.141,0,0,0,72.612,27.422ZM37.495,37.558,36.4,36.464a.141.141,0,0,1,.2-.2l1.094,1.094a.562.562,0,0,0,.795-.8l-3.677-3.676a.141.141,0,1,1,.2-.2l3.676,3.677a.844.844,0,0,1-1.193,1.193Zm-9.536-.4a.843.843,0,0,1,0-1.192l.4-.4a.863.863,0,0,1,1.193,0,.844.844,0,0,1,0,1.193l-.4.4a.842.842,0,0,1-1.192,0Zm.6-1.391-.4.4a.563.563,0,0,0,.8.8l.4-.4a.562.562,0,1,0-.795-.795Zm45.322,1.637a.14.14,0,1,1,0-.281H75a.14.14,0,0,1,0,.281Zm.281-.843a.141.141,0,0,1,0-.282h3.094a.141.141,0,0,1,0,.282Zm-35.584-.715a.141.141,0,0,1-.032-.2,6.783,6.783,0,0,0,1-2.876.141.141,0,1,1,.28.025,6.955,6.955,0,0,1-1.053,3.015.14.14,0,0,1-.114.058A.138.138,0,0,1,38.573,35.848Zm37.273-.13a.14.14,0,1,1,0-.281h3.893a.14.14,0,0,1,0,.281Zm-1.406,0a.14.14,0,1,1,0-.281h.843a.14.14,0,1,1,0,.281Zm-46.8-.094a9.246,9.246,0,0,1-.816-2.417.14.14,0,0,1,.115-.162.142.142,0,0,1,.162.116,9.119,9.119,0,0,0,.79,2.335.141.141,0,0,1-.062.189.134.134,0,0,1-.063.016A.143.143,0,0,1,27.64,35.625Zm50.175-.75a.141.141,0,0,1,0-.282h3.938a.141.141,0,1,1,0,.282Zm-3.375,0a.141.141,0,0,1,0-.282h2.813a.141.141,0,0,1,0,.282Zm4.781-.843a.141.141,0,0,1,0-.282h1.688a.141.141,0,1,1,0,.282Zm-5.063,0a.141.141,0,0,1,0-.282h4.5a.141.141,0,1,1,0,.282Zm-43.22-.648a.845.845,0,0,1,0-1.193L32.229,30.9c1.211-1.212,3.939-1.614,4.055-1.63a.14.14,0,1,1,.04.278c-.027,0-2.75.4-3.9,1.55L31.136,32.39a.562.562,0,0,0,.795.795c.073-.073,1.8-1.777,2.683-.895a.141.141,0,0,1-.2.2c-.57-.569-1.843.453-2.285.895a.844.844,0,0,1-1.193,0Zm58.028-.238a.141.141,0,0,1,0-.2l1.125-1.125a.141.141,0,0,1,.2.2l-1.125,1.125a.144.144,0,0,1-.1.041A.142.142,0,0,1,88.966,33.146Zm-3.937,0L83.9,32.021a.141.141,0,0,1,.2-.2l1.125,1.125a.141.141,0,0,1,0,.2.144.144,0,0,1-.1.041A.142.142,0,0,1,85.028,33.146Zm-6.933.041a.141.141,0,1,1,0-.282h2.531a.141.141,0,0,1,0,.282Zm-3.656,0a.141.141,0,0,1,0-.282h3.093a.141.141,0,1,1,0,.282Zm-48.073-.061h0a.137.137,0,0,1-.1-.041l-.009-.01-.586-.586a.14.14,0,0,1,.2-.2l.5.5,3.576-3.577-.5-.5a.141.141,0,0,1,.2-.2l.6.6a.141.141,0,0,1,0,.2L26.48,33.071l-.012.014a.137.137,0,0,1-.1.041Zm60.588-.361V31.078a.14.14,0,1,1,.281,0v1.687a.14.14,0,1,1-.281,0Zm-46.683-.036a.14.14,0,0,1-.093-.041L36.4,28.913a.141.141,0,0,1,0-.2l.6-.6a.141.141,0,0,1,.2.2l-.5.5,3.577,3.578.5-.5a.141.141,0,1,1,.2.2l-.6.6a.14.14,0,0,1-.1.041Zm-15.3-.2h0a.138.138,0,0,1-.1-.041l-.5-.5a.141.141,0,0,1,.2-.2l.4.4,4.373-4.373-3.578-3.579a.14.14,0,1,1,.2-.2l3.669,3.669.01.009a.141.141,0,0,1,0,.2l-4.571,4.57a.137.137,0,0,1-.1.041Zm50.869-.186a.141.141,0,0,1,0-.282h3.893a.141.141,0,0,1,0,.282Zm-1.406,0a.141.141,0,0,1,0-.282h.843a.141.141,0,1,1,0,.282Zm-32.87-.252-.012-.014L37,27.521a.141.141,0,0,1,0-.2l3.281-3.281a.141.141,0,1,1,.2.2L37.3,27.422l4.371,4.371.418-.418a.141.141,0,1,1,.2.2l-.5.5-.015.018a.143.143,0,0,1-.06.035.138.138,0,0,1-.042.007A.141.141,0,0,1,41.57,32.092ZM74.721,31.5a.14.14,0,1,1,0-.281h6.188a.14.14,0,0,1,0,.281Zm-50.269-.326a.424.424,0,0,1,0-.6.432.432,0,0,1,.6,0,.422.422,0,0,1-.6.6Zm.2-.4a.141.141,0,0,0,0,.2.145.145,0,0,0,.2,0,.143.143,0,0,0,.041-.1.141.141,0,0,0-.041-.1.137.137,0,0,0-.1-.041A.14.14,0,0,0,24.651,30.776Zm7.27-.089c-.976-.409-1.638-.752-1.644-.756a.141.141,0,1,1,.13-.249c.006,0,.658.342,1.622.746a.14.14,0,0,1-.054.27A.144.144,0,0,1,31.921,30.687Zm47.58-.032a.14.14,0,1,1,0-.281h3.656a.14.14,0,0,1,0,.281Zm-5.062,0a.14.14,0,1,1,0-.281h4.5a.14.14,0,0,1,0,.281Zm1.687-.843a.141.141,0,0,1,0-.282h3.657a.141.141,0,0,1,0,.282Zm-1.969,0a.141.141,0,0,1,0-.282h1.407a.141.141,0,0,1,0,.282Zm-.281-.843a.141.141,0,0,1,0-.282H75a.141.141,0,0,1,0,.282Zm-8.391-.488V26.794a.141.141,0,0,1-.14.14.129.129,0,0,0-.141.14v1.407a.14.14,0,1,1-.281,0V27.075a.411.411,0,0,1,.422-.422.141.141,0,0,1,.14.141V23.559H64.079v4.922a.14.14,0,1,1-.281,0V23.559H50.862v4.922a.14.14,0,0,1-.281,0V23.559H49.173v4.922a.14.14,0,1,1-.281,0V23.559H48.47a.14.14,0,0,1-.14-.14V22.294a.141.141,0,0,1,.14-.14H66.19a.141.141,0,0,1,.14.14.144.144,0,0,1,0,.016V23.4a.14.14,0,0,1-.14.156h-.423v4.922a.14.14,0,1,1-.281,0Zm.563-5.2v-.844H48.611v.844Zm-16.592,5.2V26.512a.14.14,0,0,1,.281,0v1.969a.14.14,0,0,1-.281,0Zm13.358-.422H51.564a.141.141,0,0,1-.14-.14V24.262a.141.141,0,0,1,.14-.14h11.25a.141.141,0,0,1,.141.14.143.143,0,0,1,0,.016V26.49a.141.141,0,0,1,0,.022.143.143,0,0,1,0,.023V27.9a.14.14,0,0,1-.112.153l-.029,0Zm-.14-.282V26.653H60.284a.14.14,0,0,1,0-.281h2.389V24.841a.14.14,0,0,1-.14.125H58.315a.41.41,0,0,1-.422-.421.141.141,0,1,1,.282,0,.128.128,0,0,0,.14.14h4.218a.141.141,0,0,1,.14.125V24.4H51.705v1.407H55.22a.141.141,0,0,1,0,.282H51.705v1.687h1.829a.14.14,0,0,1-.14-.14.129.129,0,0,0-.141-.14H51.846a.141.141,0,0,1,0-.282h1.406a.411.411,0,0,1,.422.422.14.14,0,0,1-.14.14Zm11.352-.356a.138.138,0,0,1,.139-.14h0a.14.14,0,1,1-.141.14Zm-.562,0a.138.138,0,0,1,.139-.14h0a.14.14,0,1,1,0,.281A.142.142,0,0,1,73.463,27.422Zm-.563,0a.138.138,0,0,1,.139-.14h0a.14.14,0,1,1,0,.281A.142.142,0,0,1,72.9,27.422ZM64.361,25.95V23.981a.14.14,0,1,1,.281,0V25.95a.14.14,0,1,1-.281,0Zm-48.328-.277V19.611l-.047-.641a.86.86,0,0,0-.794-.53c-.027,0-.055,0-.083,0-.094,0-.07-.02-.07-.02v-1.35c0-.07.184-.114.184-.114A4.471,4.471,0,0,0,17.1,15.67h1.57v10Zm-.694-8.436v.912a1.157,1.157,0,0,1,.924.706l.019.045,0,.049.048.64v5.784h2.034v-9.4H17.231A4.782,4.782,0,0,1,15.339,17.237Zm-4.355,8.436V19.611l-.047-.641a.86.86,0,0,0-.794-.53c-.027,0-.055,0-.082,0-.094,0-.071-.02-.071-.02v-1.35c0-.07.184-.114.184-.114a4.48,4.48,0,0,0,1.875-1.29h1.57v10Zm-.694-8.436v.912a1.16,1.16,0,0,1,.925.706l.018.045,0,.049.046.64v5.784h2.034v-9.4H12.182A4.782,4.782,0,0,1,10.29,17.237ZM6.045,25.673V19.611L6,18.97a.858.858,0,0,0-.794-.53c-.028,0-.055,0-.083,0-.093,0-.07-.02-.07-.02v-1.35c0-.07.184-.114.184-.114a4.471,4.471,0,0,0,1.874-1.29H8.679v10Zm-.694-8.436v.912a1.159,1.159,0,0,1,.923.706l.019.045,0,.049.047.64v5.784H8.379v-9.4H7.243A4.785,4.785,0,0,1,5.351,17.237ZM1,25.673V19.611L.949,18.97a.858.858,0,0,0-.794-.53c-.027,0-.055,0-.083,0-.093,0-.07-.02-.07-.02v-1.35c0-.07.185-.114.185-.114a4.474,4.474,0,0,0,1.873-1.29H3.63v10ZM.3,17.237v.912a1.157,1.157,0,0,1,.923.706l.019.045,0,.049.047.64v5.784H3.33v-9.4H2.194A4.785,4.785,0,0,1,.3,17.237Zm49.716,7.87V23.7a.14.14,0,0,1,.281,0v1.407a.129.129,0,0,0,.142.14.142.142,0,0,1,.139.142.14.14,0,0,1-.139.14A.41.41,0,0,1,50.018,25.106ZM52.69,23a.14.14,0,0,1,0-.281h9.563a.14.14,0,1,1,0,.281Zm9-1.125a.14.14,0,0,1,0-.281h.142V18.919a.14.14,0,0,1,.14-.14h3.937a.14.14,0,0,1,.14.14v2.672h.139a.14.14,0,1,1,0,.281Zm.423-.281h3.657V19.059H62.112Zm-1.687.14v-.937c0-.362-.132-.51-.612-.689-.269-.1-.666-.253-1-.411a.141.141,0,1,1,.121-.254c.32.154.709.3.973.4.5.188.795.4.795.953v.937a.14.14,0,0,1-.281,0Zm-2.938.14a.141.141,0,0,1-.14-.128l-.116-1.28-.024,0h0l-.024,0-.116,1.28a.141.141,0,0,1-.14.128h-.013a.141.141,0,0,1-.128-.153l.135-1.481-.095-.095a.141.141,0,0,1-.021-.027l-.11.054a.139.139,0,0,1-.062.014.141.141,0,0,1-.1-.041l-.843-.843a.141.141,0,0,1,.2-.2l.772.772.44-.219a2.91,2.91,0,0,1-2.01-2.7v-.241a.139.139,0,0,1-.006-.03,2.356,2.356,0,0,1,.512-1.883,3.09,3.09,0,0,1,2.29-.8,4.834,4.834,0,0,1,.739.051.141.141,0,0,1,.031.269.392.392,0,0,0-.236.214.522.522,0,0,0-.009.311.9.9,0,0,1,.653.309,1.859,1.859,0,0,1,.244,1.49.14.14,0,0,1,0,.024v.285a.14.14,0,0,1,0,.017,2.906,2.906,0,0,1-2.017,2.684l.438.218L58.5,19.1a.141.141,0,0,1,.2.2l-.843.843a.141.141,0,0,1-.1.041.146.146,0,0,1-.063-.014l-.091-.045a.142.142,0,0,1-.015.018l-.095.1.135,1.481a.142.142,0,0,1-.128.153Zm-.281-1.745.035-.035.012-.012.086-.086-.145-.072-.129.064ZM57.2,19.38a2.566,2.566,0,0,0,1.828-2.425v-.233L58.542,16a4.164,4.164,0,0,1-1.343.25A4.281,4.281,0,0,1,55.84,16l-.471.707v.252A2.565,2.565,0,0,0,57.2,19.38Zm1.517-3.632.347.52a1.329,1.329,0,0,0-.213-.93.615.615,0,0,0-.473-.211c-.027,0-.045,0-.049,0a.14.14,0,0,1-.148-.082.881.881,0,0,1-.022-.617.635.635,0,0,1,.076-.137c-.1-.006-.219-.012-.349-.012a2.826,2.826,0,0,0-2.082.707,1.878,1.878,0,0,0-.454,1.238l.319-.479a.139.139,0,0,1,.17-.052,4.114,4.114,0,0,0,1.362.271,3.952,3.952,0,0,0,1.343-.271.146.146,0,0,1,.055-.011A.14.14,0,0,1,58.714,15.747Zm-5.041,5.984v-.937c0-.549.292-.765.795-.953.168-.063.616-.23.973-.4a.139.139,0,0,1,.187.066.142.142,0,0,1-.066.188c-.33.157-.727.31-1,.41-.48.179-.612.328-.612.689v.937a.14.14,0,1,1-.281,0Zm-1.265.14H48.47a.141.141,0,0,1-.14-.14V20.606a.141.141,0,0,1,.14-.14h4.218a.14.14,0,0,1,0,.281H52.47a.542.542,0,0,0,0,.844h.219a.14.14,0,0,1,0,.281Zm-3.8-.281h3.511a.723.723,0,0,1,0-.844H48.611Zm15.031-.967a.423.423,0,0,1,0-.6.434.434,0,0,1,.479-.081l.018-.018a.141.141,0,1,1,.2.2l-.018.017a.421.421,0,0,1-.381.6A.419.419,0,0,1,63.642,20.624Zm.2-.4a.136.136,0,0,0-.041.1.14.14,0,0,0,.041.1.145.145,0,0,0,.2,0,.141.141,0,0,0-.1-.24A.139.139,0,0,0,63.841,20.226Zm-14.807-.041a.141.141,0,0,1,0-.282.14.14,0,1,0,0-.281.141.141,0,0,1,0-.282h2.815a.141.141,0,0,1,.141.141v.563a.141.141,0,0,1-.141.14Zm.422-.422a.476.476,0,0,1-.02.14h2.27v-.281h-2.27A.481.481,0,0,1,49.456,19.762Zm10.967,0V18.637a.141.141,0,0,1,0-.015,3.228,3.228,0,0,0-.81-2.125.141.141,0,0,1,.212-.186,3.51,3.51,0,0,1,.879,2.327v1.124a.141.141,0,0,1-.282,0Zm-6.75,0V18.637a3.51,3.51,0,0,1,.879-2.327.14.14,0,0,1,.2-.013.142.142,0,0,1,.012.2,3.231,3.231,0,0,0-.809,2.14v1.124a.14.14,0,0,1-.281,0ZM42.041,18.432V8.416h-.869v3.629a.145.145,0,1,1-.291,0V8.416H37.4V18.432a.145.145,0,1,1-.29,0V8.271a.145.145,0,0,1,.145-.145h4.937a.145.145,0,0,1,.145.145V18.432a.145.145,0,0,1-.291,0Zm-3.484,0V13.207a.145.145,0,1,1,.291,0v5.225a.145.145,0,0,1-.291,0Zm-2.322,0V11.609H33.041v2.468a.145.145,0,0,1-.291,0V11.609H31.588v6.823a.145.145,0,0,1-.29,0V11.464a.145.145,0,0,1,.145-.145H36.38a.145.145,0,0,1,.146.145v6.968a.145.145,0,0,1-.291,0Zm-1.162,0V15.238a.145.145,0,0,1,.291,0v3.194a.145.145,0,0,1-.291,0Zm-4.645,0V15.093h-.873v1.6a.145.145,0,1,1-.29,0v-1.6H25.783v3.339a.145.145,0,0,1-.291,0V14.948a.146.146,0,0,1,.146-.145h4.936a.145.145,0,0,1,.145.145.147.147,0,0,1,0,.016v3.468a.145.145,0,0,1-.29,0Zm-3.773,0V17.271a.145.145,0,1,1,.29,0v1.161a.145.145,0,0,1-.29,0ZM89.2,17.438a1.115,1.115,0,0,1-.8-.33l-4.029-4.029a.141.141,0,0,1,0-.2l.1-.1L83.3,11.6a.141.141,0,0,1,.2-.2l1.182,1.182.8-.795L84.29,10.6a.141.141,0,0,1,.2-.2l1.182,1.183.1-.1a.142.142,0,0,1,.2,0l4.011,4.01.013.015,0,0a1.126,1.126,0,0,1-.794,1.921Zm0-.282h0a.845.845,0,0,0,.6-1.441l-.01-.011-.007-.007-3.912-3.912-.1.1,0,0,0,0-1.091,1.091,3.93,3.93A.84.84,0,0,0,89.2,17.156Zm-5.657-.625c-.039-.268.239-.554.825-.848a4.716,4.716,0,0,1,1.183-.422A.977.977,0,0,1,86.64,16a3.953,3.953,0,0,1,.8.326.141.141,0,0,1-.066.266.133.133,0,0,1-.066-.017,3.829,3.829,0,0,0-.645-.274.976.976,0,0,1-.835.887,2.077,2.077,0,0,1-.286.015C85.049,17.207,83.624,17.083,83.546,16.531Zm2.048-.991a4.511,4.511,0,0,0-1.1.4c-.554.278-.684.481-.673.556.03.212.913.435,1.718.435a1.953,1.953,0,0,0,.247-.013.694.694,0,0,0,.6-.682,1.523,1.523,0,0,0-1.2.148.141.141,0,0,1-.172-.222,1.731,1.731,0,0,1,1.308-.223.7.7,0,0,0-.628-.4A.618.618,0,0,0,85.594,15.54Zm3.811.572-3.632-3.631a.14.14,0,0,1,.2-.2L89.6,15.914a.141.141,0,0,1-.1.24A.137.137,0,0,1,89.4,16.113ZM75.258,13.538a.79.79,0,0,1-.318-1.071,1.065,1.065,0,0,1,.677-.509,1.084,1.084,0,0,1,.87.164.141.141,0,0,1-.157.234.794.794,0,0,0-.647-.125.778.778,0,0,0-.5.371.509.509,0,0,0,.2.69.38.38,0,0,0,.514-.152.274.274,0,0,0-.111-.373.192.192,0,0,0-.26.077.141.141,0,0,1-.247-.134.472.472,0,0,1,.643-.19.558.558,0,0,1,.223.754.662.662,0,0,1-.581.345A.65.65,0,0,1,75.258,13.538Zm-50.2-.477h-.036a.144.144,0,0,1-.094-.2l.238-.716-.734-.244a.146.146,0,0,1,0-.277L34,7.268a.145.145,0,1,1,.121.265l-9.245,4.2.512.171.008,0a.145.145,0,0,1,.092.184l-.176.527,8.969-4.765a.145.145,0,1,1,.136.257l-9.29,4.936h0l-.006,0h0a.145.145,0,0,1-.051.012h-.009ZM87.8,12.815a4.382,4.382,0,0,1,.018-1.054,1.448,1.448,0,0,1-.737-.5.994.994,0,0,1-.2-.851c.128-.514,1.008-2.061,1.739-2.061a.5.5,0,0,1,.122.014c.78.2.8,2.208.687,2.681a1.126,1.126,0,0,1-1.156.783h0a1.549,1.549,0,0,1-.181-.011,4.036,4.036,0,0,0-.016.959.141.141,0,0,1-.121.158h-.019A.141.141,0,0,1,87.8,12.815Zm.476-1.266a.851.851,0,0,0,.883-.571c.131-.523,0-2.219-.481-2.34a.27.27,0,0,0-.055-.006c-.506,0-1.345,1.359-1.466,1.849a.719.719,0,0,0,.148.612,1.151,1.151,0,0,0,.551.385,13.317,13.317,0,0,1,.327-1.51.141.141,0,0,1,.271.078,13.13,13.13,0,0,0-.322,1.494A1.235,1.235,0,0,0,88.275,11.549ZM74.745,10.8a6.326,6.326,0,1,1,4.475,1.854A6.335,6.335,0,0,1,74.745,10.8Zm.2-8.75A6.048,6.048,0,1,0,79.22.282,6.054,6.054,0,0,0,74.944,2.052Zm.2,8.352a5.766,5.766,0,1,1,4.077,1.688A5.728,5.728,0,0,1,75.143,10.4Zm.2-7.953A5.484,5.484,0,1,0,79.22.844,5.447,5.447,0,0,0,75.342,2.451Zm-41.388,6.5a.145.145,0,0,1,0-.205L35.7,7l-2.5.25h-.014a.145.145,0,0,1-.014-.29l2.893-.289a.146.146,0,0,1,.061,0,.143.143,0,0,1,.108.126.146.146,0,0,1-.048.122L34.159,8.954a.147.147,0,0,1-.1.042A.144.144,0,0,1,33.953,8.954Zm8.087-1.264V7c0-.244-.086-.339-.42-.464-.1-.036-.4-.147-.655-.266a.145.145,0,0,1,.121-.264c.251.115.541.223.636.258.308.115.608.267.608.736v.686a.145.145,0,1,1-.29,0Zm-4.936,0V7c0-.469.3-.621.608-.736.184-.068.422-.16.637-.258a.145.145,0,0,1,.122.264c-.224.1-.469.2-.657.267-.334.124-.42.22-.42.464v.686a.145.145,0,1,1-.29,0Zm2.474-.581a.144.144,0,0,1,.144-.145h0a.145.145,0,0,1,0,.291A.147.147,0,0,1,39.579,7.109Zm.574-.145h0a.147.147,0,0,1-.091-.032L39.718,6.7l-.355.237a.147.147,0,0,1-.073.024h-.008a.147.147,0,0,1-.1-.042L38.6,6.341a.145.145,0,0,1,.205-.205l.5.5.337-.225a.144.144,0,0,1,.072-.024h.016a.147.147,0,0,1,.073.024l.336.224.5-.5a.145.145,0,0,1,.206.205l-.574.573a.144.144,0,0,1-.1.05h-.007Zm34.426-.636a4.645,4.645,0,0,1,4.64-4.639.14.14,0,0,1,0,.281A4.364,4.364,0,0,0,74.86,6.328a.14.14,0,1,1-.281,0ZM38.121,4.386a.146.146,0,0,1,0-.017V4.223c-.112.058-.177.1-.18.1a.15.15,0,0,1-.146,0,.147.147,0,0,1-.072-.126,1.937,1.937,0,0,1,.743-1.67l-.08-.074a.144.144,0,0,1-.044-.134.146.146,0,0,1,.091-.108A3.981,3.981,0,0,1,39.7,1.974a1.6,1.6,0,0,1,1.225.452,1.916,1.916,0,0,1,.391,1.481s0,.006,0,.01v.453a.147.147,0,0,1,0,.017,2.122,2.122,0,0,1-1.6,2A2.121,2.121,0,0,1,38.121,4.386Zm.291-.017a1.857,1.857,0,0,0,1.307,1.723A1.857,1.857,0,0,0,41.025,4.37a.15.15,0,0,1,0-.016V3.968l-.367-.454a5.362,5.362,0,0,0-2.247.567v.272A.15.15,0,0,1,38.412,4.37Zm.354-1.964.04.037a.146.146,0,0,1,.044.131.144.144,0,0,1-.085.108,1.471,1.471,0,0,0-.74,1.263,5.9,5.9,0,0,1,2.715-.718.149.149,0,0,1,.1.054l.186.231a1.375,1.375,0,0,0-.319-.888A1.321,1.321,0,0,0,39.7,2.264,3.57,3.57,0,0,0,38.766,2.406ZM85.349,3.657a1.086,1.086,0,0,1-.634-.617.14.14,0,0,1,.259-.108.8.8,0,0,0,.47.461.784.784,0,0,0,.619-.036.509.509,0,0,0,.21-.688.379.379,0,0,0-.513-.156.273.273,0,0,0-.134.162.279.279,0,0,0,.021.21.194.194,0,0,0,.114.094.187.187,0,0,0,.146-.014.141.141,0,0,1,.132.248.474.474,0,0,1-.641-.2.557.557,0,0,1,.23-.752.659.659,0,0,1,.893.273A.789.789,0,0,1,86.195,3.6a1.021,1.021,0,0,1-.478.115A1.107,1.107,0,0,1,85.349,3.657Zm-11.9-1.372a1.338,1.338,0,0,1-.928-.528A.987.987,0,0,1,72.738.379.819.819,0,0,1,73.88.563a.685.685,0,0,1-.153.952.575.575,0,0,1-.8-.129.141.141,0,1,1,.228-.165.293.293,0,0,0,.409.066.4.4,0,0,0,.091-.56A.537.537,0,0,0,72.9.607a.706.706,0,0,0-.158.986,1.059,1.059,0,0,0,.732.414,1.075,1.075,0,0,0,.849-.28.141.141,0,0,1,.185.212,1.386,1.386,0,0,1-.915.355A1.4,1.4,0,0,1,73.445,2.285ZM38.7,1.448a.145.145,0,0,1-.146-.145V.432a.144.144,0,0,1,.069-.123A.146.146,0,0,1,38.768.3l.472.236L39.6.055a.151.151,0,0,1,.232,0L40.2.538,40.669.3a.146.146,0,0,1,.141.006.144.144,0,0,1,.069.123V1.3a.145.145,0,0,1-.145.145Zm.145-.29h1.741V.667l-.37.185a.147.147,0,0,1-.182-.043L39.719.383,39.4.809a.145.145,0,0,1-.181.043L38.848.667Z" transform="translate(-23573.33 -3231)" fill="#233138"/>
  </g>
</svg>
