<svg xmlns="http://www.w3.org/2000/svg" viewBox="0 0 837 790.71"><g fill="#c6d6e7"><path d="M691.34 40.22l5.5-23.13 3.63.86-5.5 23.13z"/><path d="M683.88 28.14l.86-3.63 23.14 5.5-.87 3.63z"/></g><g fill="#c6d6e7"><path d="M305.37 723.12l.37-2.58 16.48 2.38-.37 2.57z"/><path d="M311.3 731.08l2.38-16.48 2.57.37-2.37 16.48z"/></g><g fill="#c6d6e7"><path d="M30.76 8.51l.37-2.57L47.61 8.3l-.37 2.58z"/><path d="M36.72 16.48L39.09 0l2.58.37-2.38 16.48z"/></g><g fill="#c6d6e7"><path d="M146.6 123.53l.36-2.58 16.48 2.38-.37 2.57z"/><path d="M152.53 131.5L154.9 115l2.57.37-2.37 16.48z"/></g><g fill="#c6d6e7"><path d="M274.27 275.36l.37-2.57 16.48 2.37-.37 2.58z"/><path d="M280.24 283.3l2.38-16.48 2.57.37-2.38 16.48z"/></g><g fill="#fff"><path d="M349.47 591.06l5.5-23.13 3.63.86-5.5 23.13z"/><path d="M342.04 578.99l.86-3.63 23.14 5.5-.87 3.64z"/></g><g fill="#fe921f"><path d="M797.29 342.82l5.5-23.14 3.63.86-5.5 23.14z"/><path d="M789.85 330.74l.87-3.63 23.13 5.5-.86 3.64z"/></g><g fill="#fe921f"><path d="M753.85 604.77l5.5-23.13 3.63.86-5.5 23.13z"/><path d="M746.41 592.7l.87-3.63 23.13 5.5-.86 3.63z"/></g><path fill="#737bfb" d="M15.26 725.95a15.26 15.26 0 1115.26-15.26 15.26 15.26 0 01-15.26 15.26zm0-28.45a13.19 13.19 0 1013.19 13.2 13.19 13.19 0 00-13.19-13.2zM720.44 392a7.4 7.4 0 117.4-7.4 7.4 7.4 0 01-7.4 7.4zm0-13.82a6.39 6.39 0 106.4 6.4 6.39 6.39 0 00-6.4-6.4zM305.34 446.9a7.4 7.4 0 117.4-7.4 7.4 7.4 0 01-7.4 7.4zm0-13.82a6.39 6.39 0 106.39 6.39 6.39 6.39 0 00-6.39-6.39zM664.08 572a7.4 7.4 0 117.39-7.39 7.4 7.4 0 01-7.4 7.4zm0-13.77a6.4 6.4 0 100-.01z"/><path fill="#fff" d="M828.66 681.74a8.34 8.34 0 118.34-8.34 8.34 8.34 0 01-8.34 8.34zm0-13.81a5.47 5.47 0 105.47 5.47 5.47 5.47 0 00-5.47-5.47z"/><path fill="#7382fb" d="M107 254a18 18 0 1118-18.01A18 18 0 01107 254zm.71-7.42v5.91c1.85-.4 3.56-2.35 4.82-5.49a34.15 34.15 0 00-4.82-.42zm-6.22.42c1.27 3.1 2.98 5.09 4.82 5.49v-5.9a33.86 33.86 0 00-4.82.41zm-5.4 1.44a16.58 16.58 0 006.91 3.63 14.6 14.6 0 01-2.91-4.82 25.56 25.56 0 00-4 1.2zm17.82-1.2a14.24 14.24 0 01-2.91 4.83 16.58 16.58 0 006.91-3.62 24.2 24.2 0 00-4-1.2zm.49-1.33a26.75 26.75 0 014.67 1.47 16.57 16.57 0 004.53-10.68h-7.73a33.22 33.22 0 01-1.47 9.22zm-23.96-9.21a16.45 16.45 0 004.54 10.68 24.48 24.48 0 014.67-1.46 32.43 32.43 0 01-1.45-9.22zm17.27 8.46a37.45 37.45 0 015.31.49 31.2 31.2 0 001.42-8.95h-6.73zm-8.11-8.46a31.2 31.2 0 001.42 8.95 37.45 37.45 0 015.31-.49v-8.46zm16.24-1.4h7.74a16.56 16.56 0 00-4.58-10.75 26.5 26.5 0 01-4.64 1.47 31.98 31.98 0 011.48 9.28zm-8.13 0h6.71a30.66 30.66 0 00-1.44-9.02 36.84 36.84 0 01-5.3.5v8.52zm-8.11 0h6.71v-8.55a37.44 37.44 0 01-5.29-.49 30.95 30.95 0 00-1.42 9.04zm-9.16 0h7.74a32.76 32.76 0 011.46-9.28 23.22 23.22 0 01-4.64-1.47 16.49 16.49 0 00-4.56 10.75zm17.27-15.79v5.84a33.83 33.83 0 004.8-.42c-1.27-3.09-2.98-5.02-4.8-5.42zm-6.2 5.42a33.83 33.83 0 004.8.42v-5.84c-1.82.4-3.55 2.33-4.8 5.42zm9.51-5.02a14.07 14.07 0 012.87 4.75 23.12 23.12 0 003.98-1.17 16.5 16.5 0 00-6.85-3.58zm-14.86 3.58a23.12 23.12 0 003.97 1.17 14.82 14.82 0 012.87-4.75 16.76 16.76 0 00-6.84 3.58z"/><path fill="#fff" d="M143.53 788.58h-49.8a9.99 9.99 0 01-10-9.96v-75.9a9.99 9.99 0 0110-9.97h49.8a9.99 9.99 0 0110 9.96v75.9a10.1 10.1 0 01-10 9.97z"/><path fill="#cae2e9" d="M143.81 690.7H93.44a11.8 11.8 0 00-11.81 11.77v76.48a11.8 11.8 0 0011.81 11.76h50.37a11.8 11.8 0 0011.82-11.76v-76.57a11.79 11.79 0 00-11.82-11.67zm9.66 88.16a9.62 9.62 0 01-9.66 9.62H93.44a9.62 9.62 0 01-9.66-9.62v-76.48a9.62 9.62 0 019.66-9.61h50.37a9.62 9.62 0 019.66 9.61z"/><g fill="#e4ebef"><path d="M113.6 755.7H94.02a1.14 1.14 0 01-1.14-1.1 1.14 1.14 0 011.14-1.11h19.56a1.14 1.14 0 011.14 1.1 1.14 1.14 0 01-1.14 1.11zM106.87 760.05H93.94a1.14 1.14 0 01-1.13-1.1 1.14 1.14 0 011.13-1.12h12.93a1.14 1.14 0 011.13 1.11 1.14 1.14 0 01-1.13 1.11zM118.05 760.05h-7.08a1.14 1.14 0 01-1.13-1.1 1.14 1.14 0 011.13-1.12h7.08a1.14 1.14 0 011.13 1.11 1.28 1.28 0 01-1.13 1.11zM130.45 755.7h-12.49a1.14 1.14 0 01-1.13-1.1 1.14 1.14 0 011.13-1.11h12.5a1.14 1.14 0 011.13 1.1 1.2 1.2 0 01-1.14 1.11z"/></g><path fill="#e4ebef" d="M95.79 748.5h45.68a4.57 4.57 0 004.55-4.52v-39.46a4.57 4.57 0 00-4.55-4.52H95.79a4.57 4.57 0 00-4.55 4.52v39.47a4.57 4.57 0 004.55 4.51z"/><path fill="#f7b100" d="M118.72 707.08s-7.55-.26-9.42 8.44c-.59 2.8 1.79 4.77.34 6.9s-5.85 4.51-4.5 7.5-3.81 5.8-1.52 9.8c2.37 4 27.9 3.06 29.94.5s1.36-7.5-.5-9.54c-1.79-1.96-.69-5.37-.35-6.82.77-3.16-1.6-4.95-3.05-6.48-1.35-1.6-1.78-10.22-10.94-10.3z"/><path fill="#69808e" d="M109.29 729.41a14.12 14.12 0 012-.85l3.5-1.02.26-.09h.18l3.31-.94 3.32.69v.25l.18.09.44.17 3.31.93a7.78 7.78 0 012.1.94 9.85 9.85 0 015.16 8.61v4.1a.86.86 0 01-.88.85h-27.34a.86.86 0 01-.87-.86v-4.09a10.08 10.08 0 015.33-8.78z"/><path fill="#fdcdc1" d="M110.5 718.5c.1-.85.88-.68 1.14-.6v-.77c0-4.35 3.15-7.84 7-7.84s6.98 3.5 6.98 7.84v.77c.18-.09 1.05-.26 1.14.6.08.94-1.4 2.9-2.1 2.56a7 7 0 01-2.71 2.98v3.41a5.9 5.9 0 01-6.64 0v-3.4a7 7 0 01-2.7-3c-.7.26-2.19-1.61-2.1-2.55z"/><path fill="#f7b100" d="M116.71 711.6s2.54 4.08 5.77 5.1a2.32 2.32 0 012.7 0c.8.69 0 3.16 0 3.16s3.59-5.54 1.67-8.27c-2.54-3.5-5.42-4.6-8.04-4.6a8.85 8.85 0 00-6.9 3.5c-1.48 2.56-.26 7.93-.26 7.93a19.45 19.45 0 01.96-3.5c.43-1.03 4.1-3.33 4.1-3.33z"/><g><path fill="#f7b100" d="M93.94 771.87l1.57 3.15 3.59.51-2.62 2.48.6 3.5-3.14-1.7-3.23 1.7.61-3.5-2.53-2.48 3.5-.5zM106.29 771.87l1.57 3.15 3.58.51-2.62 2.48.61 3.5-3.14-1.7-3.24 1.7.62-3.5-2.54-2.48 3.5-.5zM118.63 771.87l1.57 3.15 3.58.51-2.62 2.48.62 3.5-3.15-1.7-3.23 1.7.61-3.5-2.53-2.48 3.5-.5zM130.97 771.87l1.58 3.15 3.58.51-2.62 2.48.6 3.5-3.14-1.7-3.23 1.7.61-3.5-2.53-2.48 3.58-.5z"/><path fill="#a1bacd" d="M146.46 781.93c-.1 0-.18 0-.18-.08l-2.97-1.54-2.97 1.54a.4.4 0 01-.44 0c-.17-.09-.17-.26-.17-.43l.61-3.24-2.45-2.3a.37.37 0 01-.08-.42c.08-.18.17-.26.35-.26l3.31-.51 1.49-2.99a.5.5 0 01.79 0l1.48 2.99 3.32.51c.17 0 .26.17.35.26a.37.37 0 01-.09.42l-2.44 2.3.6 3.24c0 .17 0 .34-.17.43-.17 0-.26.08-.34.08zm-7.43-6.05l1.92 1.87c.1.09.18.26.1.35l-.45 2.64 2.45-1.2a.4.4 0 01.44 0l2.44 1.2-.43-2.64c0-.17 0-.26.08-.35l1.92-1.87-2.7-.34c-.18 0-.27-.09-.35-.26l-1.23-2.38-1.22 2.38a1.2 1.2 0 01-.35.26z"/></g><g><path fill="#fff" d="M794.93 189.85h-49.86a9.99 9.99 0 01-10-9.95v-75.88a9.99 9.99 0 0110-9.96h49.85a9.99 9.99 0 0110 9.96v75.88a10.04 10.04 0 01-10 9.95z"/><path fill="#cae2e9" d="M795.18 92h-50.36A11.8 11.8 0 00733 103.76v76.48A11.8 11.8 0 00744.82 192h50.36A11.8 11.8 0 00807 180.24v-76.57A11.73 11.73 0 00795.18 92zm9.66 88.16a9.62 9.62 0 01-9.66 9.6h-50.36a9.62 9.62 0 01-9.66-9.6v-76.49a9.62 9.62 0 019.66-9.61h50.36a9.62 9.62 0 019.66 9.61z"/><path fill="#e4ebef" d="M747.06 149.85h45.88a4.59 4.59 0 004.57-4.55v-39.74a4.59 4.59 0 00-4.57-4.55h-45.88a4.59 4.59 0 00-4.57 4.55v39.74a4.59 4.59 0 004.57 4.55z"/><path fill="#37c876" d="M755.6 138.52v3.7h28.8v-3.7a9.85 9.85 0 00-5.09-8.67 22.1 22.1 0 00-2.07-.94l-3.27-.95-.43-.17-.18-.08-3.27-.95-3.28.95h-.17l-.26.08-3.45 1.03a8.15 8.15 0 00-1.99.86 10.12 10.12 0 00-5.34 8.84z"/><path fill="#fff" d="M766.3 142.21h7.58v-14.25l-.43-.17-.17-.08v-.26l-3.28-.69-3.28.95h-.17z"/><path fill="#fdcdc1" d="M761.98 118.78c.09-.86.86-.69 1.12-.6v-.77c0-4.38 3.1-7.9 6.9-7.9s6.9 3.52 6.9 7.9v.77c.17-.08 1.04-.26 1.12.6.09.95-1.38 2.92-2.07 2.58a7 7 0 01-2.67 3v3.43a5.73 5.73 0 01-6.56 0v-3.43a7 7 0 01-2.67-3c-.7.25-2.16-1.64-2.07-2.58z"/><path fill="#291a6d" d="M768.1 111.83s2.5 4.12 5.7 5.15a2.25 2.25 0 012.67 0c.78.69 0 3.17 0 3.17s3.36-5.4 1.64-8.32c-2.42-4.04-5.87-4.04-6.73-5.5l.09 1.12a2.13 2.13 0 01-1.47-1.37s-5.17 2.14-6.64 4.72-.26 7.98-.26 7.98a19.9 19.9 0 01.95-3.52c.52-1.11 4.05-3.43 4.05-3.43z"/><g fill="#f7b100"><path d="M747.58 173.03l1.63 3.18 3.45.51-2.5 2.49.6 3.52-3.19-1.72-3.1 1.72.6-3.52-2.58-2.49 3.53-.51zM760 173.03l1.63 3.18 3.45.51-2.5 2.49.6 3.52L760 181l-3.1 1.72.6-3.52-2.58-2.49 3.53-.51zM772.41 173.03l1.64 3.18 3.45.51-2.5 2.49.6 3.52-3.19-1.72-3.1 1.72.6-3.52-2.58-2.49 3.53-.51zM784.83 173.03l1.64 3.18 3.54.51-2.59 2.49.6 3.52-3.19-1.72-3.1 1.72.6-3.52-2.59-2.49 3.54-.51zM797.25 173.03l1.64 3.18 3.54.51-2.59 2.49.6 3.52-3.19-1.72-3.1 1.72.6-3.52-2.59-2.49 3.54-.51z"/></g><g fill="#e4ebef"><path d="M763.36 156.98h-19.32a1.14 1.14 0 01-1.12-1.12 1.14 1.14 0 011.12-1.11h19.32a1.14 1.14 0 011.12 1.11 1.14 1.14 0 01-1.12 1.12zM756.72 161.36h-12.68a1.14 1.14 0 01-1.12-1.12 1.14 1.14 0 011.12-1.11h12.76a1.14 1.14 0 011.13 1.11 1.28 1.28 0 01-1.21 1.12zM767.76 161.36h-6.99a1.14 1.14 0 01-1.12-1.12 1.14 1.14 0 011.12-1.11h6.99a1.14 1.14 0 011.12 1.11 1.28 1.28 0 01-1.12 1.12zM778.37 161.36h-7a1.14 1.14 0 01-1.11-1.12 1.14 1.14 0 011.12-1.11h6.99a1.14 1.14 0 011.12 1.11 1.14 1.14 0 01-1.13 1.12zM756.72 165.9h-12.68a1.14 1.14 0 01-1.12-1.11 1.14 1.14 0 011.12-1.12h12.76a1.14 1.14 0 011.13 1.12 1.28 1.28 0 01-1.21 1.12zM767.76 165.9h-6.99a1.14 1.14 0 01-1.12-1.11 1.14 1.14 0 011.12-1.12h6.99a1.14 1.14 0 011.12 1.12 1.28 1.28 0 01-1.12 1.12zM779.92 156.98h-12.34a1.14 1.14 0 01-1.12-1.12 1.14 1.14 0 011.12-1.11h12.34a1.14 1.14 0 011.12 1.11 1.08 1.08 0 01-1.12 1.12z"/></g></g></svg>