<svg xmlns="http://www.w3.org/2000/svg" xmlns:xlink="http://www.w3.org/1999/xlink" width="828" height="219" viewBox="0 0 828 219">
  <defs>
    <clipPath id="clip-path">
      <rect id="Rectangle_23294" data-name="Rectangle 23294" width="828" height="219" rx="4" transform="translate(426 270)" fill="#e0e0e0" stroke="#ebebeb" stroke-width="1"/>
    </clipPath>
  </defs>
  <g id="bg-video" transform="translate(-426 -270)" clip-path="url(#clip-path)">
    <path id="film_1_" data-name="film (1)" d="M365.477,0H11.03A11.03,11.03,0,0,0,0,11.03V303.3a11.03,11.03,0,0,0,11.03,11.031H365.477A11.03,11.03,0,0,0,376.507,303.3V11.03A11.03,11.03,0,0,0,365.477,0ZM141.59,194.194V120.134a14.162,14.162,0,0,1,7.885-12.6,15.636,15.636,0,0,1,15.526.816l63.115,36.843a11.066,11.066,0,0,1,.934.609,13.932,13.932,0,0,1,0,22.727,11.07,11.07,0,0,1-.934.609L165,205.98a15.642,15.642,0,0,1-15.526.813,14.149,14.149,0,0,1-7.885-12.6ZM259.019,41.267V22.061h37.012V41.267Zm-22.061,0H199.942V22.061h37.015Zm-59.076,0H140.869V22.061h37.012Zm-59.073,0H81.8V22.061h37.012Zm0,231.8v19.206H81.8V273.062Zm22.061,0h37.012v19.206H140.869Zm59.073,0h37.015v19.206H199.942Zm59.076,0h37.012v19.206H259.019Zm95.428-231.8H318.092V22.061h36.355ZM59.735,22.061V41.267H22.061V22.061Zm-37.673,251H59.735v19.206H22.061Zm296.031,19.206V273.062h36.355v19.206Zm0,0" transform="matrix(0.809, -0.588, 0.588, 0.809, 595.459, 371.702)" fill="#e0e0e0"/>
  </g>
</svg>
