<svg xmlns="http://www.w3.org/2000/svg" width="32" height="32"><path fill="#d3ebfc" d="M21.69 8.13a8.31 8.31 0 1 1-8.31 8.3 8.31 8.31 0 0 1 8.3-8.3z" data-name="Path 89126"/><path fill="#fee9ee" d="M7.25 20.38a3.94 3.94 0 1 1-3.94 3.93 3.94 3.94 0 0 1 3.94-3.94z" data-name="Path 89127"/><g fill="#808fa5" data-name="Group 84547"><path d="M16.88 17.75H6.38V6.37h10.5zm-9.63-.88H16V7.26H7.25z" data-name="Path 89117"/><path d="M16.6 7.21l-.31-.82 9.62-3.5.3.82z" data-name="Rectangle 23668"/><path d="M25.92 21.23l-9.62-3.5.3-.83 9.62 3.5z" data-name="Rectangle 23669"/><path d="M28.25 22.13h-2.63V2h2.63zm-1.75-.88h.88V2.87h-.88z" data-name="Path 89118"/><path d="M6.81 16H3.75V8.12h3.06V9H4.62v6.13h2.2z" data-name="Path 89119"/><path d="M4.19 9.88h1.3v.87H4.2z" data-name="Rectangle 23670"/><path d="M4.19 11.63h1.3v.87H4.2z" data-name="Rectangle 23671"/><path d="M4.19 13.38h1.3v.87H4.2z" data-name="Rectangle 23672"/><path d="M4.19 14.25H2V9.87h2.19v.88H2.88v2.63h1.3z" data-name="Path 89120"/><path d="M27.81 14.25v-.88a1.31 1.31 0 0 0 0-2.62v-.88a2.19 2.19 0 0 1 0 4.38z" data-name="Path 89121"/><path d="M15.56 19.5H7.7v-2.19h.87v1.32h6.13V17.3h.87z" data-name="Path 89122"/><path d="M15.56 30h-4.29l-2.7-10.85.87-.18 2.53 10.15h2.72v-1.57l-.88-.88v-7.6h.88v7.26l.87.87z" data-name="Path 89123"/><path d="M12.94 20.81h1.3v.88h-1.3z" data-name="Rectangle 23673"/><path d="M12.94 22.56h1.3v.88h-1.3z" data-name="Rectangle 23674"/><path d="M12.94 24.31h1.3v.88h-1.3z" data-name="Rectangle 23675"/><path d="M12.94 26.06h1.3v.88h-1.3z" data-name="Rectangle 23676"/><path d="M16.44 21.69h-2.19v-.88h1.31v-1.3h-1.31v-.88h2.19z" data-name="Path 89124"/><path d="M17.75 11.63h.88v.87h-.88z" data-name="Rectangle 23677"/><path d="M19.5 11.63h.88v.87h-.88z" data-name="Rectangle 23678"/><path d="M21.25 11.63h.88v.87h-.88z" data-name="Rectangle 23679"/><path d="M11.63 16h-3.5V8.12h3.5zM9 15.12h1.75V9H9z" data-name="Path 89125"/></g></svg>