<svg xmlns="http://www.w3.org/2000/svg" width="208" height="282"><defs><filter id="Rectangle_23789" width="131.41" height="48" x="43.59" y="52" filterUnits="userSpaceOnUse"><feOffset dx="1" dy="1"/><feGaussianBlur result="blur" stdDeviation=".5"/><feFlood flood-opacity=".16"/><feComposite in2="blur" operator="in"/><feComposite in="SourceGraphic"/></filter><filter id="Rectangle_23789-2" width="144.59" height="47.81" x="43.41" y="119" filterUnits="userSpaceOnUse"><feOffset dx="1" dy="1"/><feGaussianBlur result="blur-2" stdDeviation=".5"/><feFlood flood-opacity=".16"/><feComposite in2="blur-2" operator="in"/><feComposite in="SourceGraphic"/></filter><clipPath id="clip-path"><path id="Rectangle_23792" fill="#88a2c5" d="M0 0h208v282H0z" data-name="Rectangle 23792" transform="translate(-20287 -2898)"/></clipPath><clipPath id="clip-path-2"><circle id="Ellipse_2109" cx="10.23" cy="10.23" r="10.23" fill="none" data-name="Ellipse 2109"/></clipPath><filter id="Union_130" width="142.24" height="48" x="32.76" y="52" filterUnits="userSpaceOnUse"><feOffset dx="1" dy="1"/><feGaussianBlur result="blur-3" stdDeviation=".5"/><feFlood flood-opacity=".16"/><feComposite in2="blur-3" operator="in"/><feComposite in="SourceGraphic"/></filter><filter id="Union_129" width="155.15" height="47.81" x="32.86" y="119" filterUnits="userSpaceOnUse"><feOffset dx="1" dy="1"/><feGaussianBlur result="blur-4" stdDeviation=".5"/><feFlood flood-opacity=".16"/><feComposite in2="blur-4" operator="in"/><feComposite in="SourceGraphic"/></filter><clipPath id="clip-path-3"><circle id="Ellipse_2110" cx="12" cy="12" r="12" fill="none" data-name="Ellipse 2110"/></clipPath><clipPath id="clip-path-4"><path id="Path_88974" fill="#9fdff8" stroke="rgba(0,0,0,0)" d="M2.5 0C1.93 1.25 1.47 2.66.93 4.01-.86 12-.16 16.63 3.84 24.88l.2-.04a3.6 3.6 0 0 0 2.12-1 2.11 2.11 0 0 0 .17-.2c4.55-7 .66-11.52-2.47-16.22-.4-2.3-.89-4.93-1.36-7.42z" data-name="Path 88974" transform="rotate(-32.01 7.77 2.23)"/></clipPath><clipPath id="clip-path-6"><path id="Path_88960" fill="#a22722" d="M-739.9 798.17c-3.56-2.14-21.73-5.24-26.16-3.35s3.22 11.9 3.22 11.9-.88.22-.86.36 6.6.14 6.6.14 5.53-8.33 3.57-13.3c-1.76 2.7.34 11.27 1.9 13.3.05-.1 6.1.03 6.27-.11s-.68-.25-.68-.25 9.7-6.55 6.14-8.7z" data-name="Path 88960" transform="translate(767.44 -793.93)"/></clipPath><clipPath id="clip-path-7"><path id="Path_88855" fill="#545454" d="M-766.1 632.97c0-.15 0-.3-.02-.43l-.03-.22-.15.08-.22.12-.18.6-.61.46-.13.09a19.66 19.66 0 0 1-8.1 3.4 16.71 16.71 0 0 1-4.94.04h-.02a17.97 17.97 0 0 1-2.95-.67 23.95 23.95 0 0 1-7.25-3.88 25.57 25.57 0 0 0 .43 4.55c7.82 2.21 19.36 3.02 24.16-4.14z" data-name="Path 88855" transform="translate(790.7 -632.32)"/></clipPath></defs><g id="block-4" transform="translate(20341 2915)"><path id="Rectangle_23788" fill="#88a2c5" d="M0 0h208v282H0z" data-name="Rectangle 23788" transform="translate(-20341 -2915)"/><g id="Mask_Group_329" clip-path="url(#clip-path)" data-name="Mask Group 329" transform="translate(-54 -17)"><g id="Group_86742" data-name="Group 86742" transform="rotate(-37 -14226.94 28986)"><path id="Path_88482" fill="#91a9c9" d="M226.92 112.73c-1.34-3.73-4.76-6.88-9.62-8.83a29.02 29.02 0 0 0-10.89-2.05c-7.37 0-14.35 2.66-18.12 6.94l-14.3 15.69a62.88 62.88 0 0 0-5.76-6.58V38.53c0-7.25-8.68-13.18-19.39-13.18-10.66 0-19.38 5.9-19.38 13.18v57.51c-1.35-.4-2.75-.76-4.14-1.13V13.18c0-7.25-8.69-13.18-19.4-13.18S86.55 5.9 86.55 13.18v77.7c-1.4.05-2.79.05-4.14.15V27.4c0-7.25-8.68-13.18-19.38-13.18-10.66 0-19.39 5.9-19.39 13.18v72.71c-1.4.58-2.79 1.2-4.14 1.8V57.18C39.5 49.93 30.81 44 20.11 44 9.45 44 .72 49.9.72 57.18v88.58a41.7 41.7 0 0 0-.72 7.49c0 34.58 41.25 62.59 92.07 62.59 41.16 0 76.02-18.38 87.8-43.7a16.1 16.1 0 0 0 1.62-1.59l42.87-46.93c3.06-3.27 3.91-7.16 2.56-10.89z" data-name="Path 88482" transform="translate(15.52 15.39)"/></g></g><path id="Rectangle_23791" fill="#464e66" d="M0 0h208v42H0z" data-name="Rectangle 23791" transform="translate(-20341 -2915)"/><g id="Group_37577" data-name="Group 37577" transform="translate(-20334 -2855)"><circle id="Ellipse_1513" cx="10.23" cy="10.23" r="10.23" fill="#fff" data-name="Ellipse 1513"/><g id="Group_86735" data-name="Group 86735"><g id="Group_86734" clip-path="url(#clip-path-2)" data-name="Group 86734"><g id="Group_37576" data-name="Group 37576" transform="translate(1.57 .53)"><path id="Union_107" fill="#616161" d="M85.7-141.27a11.03 11.03 0 0 1-.89-2.36l.01.09c.1.78.22 1.37.32 1.83a8.46 8.46 0 0 0 .3.95 1.58 1.58 0 0 0 .13.29q-1.4.2-2.82.25a18.66 18.66 0 0 1-2.1-.01c-.57-.04-1-.1-1.3-.13a4.45 4.45 0 0 1-.44-.08 62.07 62.07 0 0 0 .52-1.98l-.01.02a7.96 7.96 0 0 1-1.68 2.1 8.17 8.17 0 0 1-2.64 1.58l-.2-.1a4.53 4.53 0 0 1-.43-.32 3.1 3.1 0 0 1-.48-.56 2.6 2.6 0 0 1-.35-.84 7.4 7.4 0 0 0 .83-.33 10.36 10.36 0 0 0 1.84-1.09 7.14 7.14 0 0 0 1.84-1.95 5.37 5.37 0 0 0 .85-2.93.34.34 0 0 1 .12-.25.39.39 0 0 1 .28-.12.5.5 0 0 1 .36.18 1.38 1.38 0 0 1 .1.11 1.49 1.49 0 0 1 .49-.47 3.74 3.74 0 0 1 1.71-.6 3.23 3.23 0 0 1 1.74.3 1.4 1.4 0 0 1 .7.7 6.38 6.38 0 0 1 .1-.93.9.9 0 0 1 .3.23 1.08 1.08 0 0 1 .18.27 1.9 1.9 0 0 1 .09.22l.03.09a10.08 10.08 0 0 0 1.02 3.4 9.13 9.13 0 0 0 1.57 2.21 8.91 8.91 0 0 0 1.46 1.2 5.74 5.74 0 0 0 .64.36 1.76 1.76 0 0 1-.23.87 2.28 2.28 0 0 1-.52.62 3.34 3.34 0 0 1-.5.37 1.76 1.76 0 0 1-.24.13 10.9 10.9 0 0 1-2.7-3.32z" data-name="Union 107" transform="translate(-73.14 163.94)"/><g id="Group_37569" data-name="Group 37569" transform="translate(6.12 15.55)"><path id="Union_108" fill="#fff" d="M86.1-146.35l-.41-.32-.37-.32-.12-.1-.1.1-.35.29-.38.3a.88.88 0 0 1-.24.13 1.89 1.89 0 0 1-.38-.19 4.58 4.58 0 0 1-.66-.48 2.13 2.13 0 0 1-.51-.58.46.46 0 0 1 .05-.57.94.94 0 0 1 .5-.24 2.91 2.91 0 0 1 .34-.1 8.82 8.82 0 0 1 .95-.13c.35-.03.7-.05 1.07-.05a8.63 8.63 0 0 1 1.03.06 4.31 4.31 0 0 1 .83.17l.16.04a1 1 0 0 1 .48.25.46.46 0 0 1 .05.6 2.25 2.25 0 0 1-.56.6 6.52 6.52 0 0 1-.72.5 2.12 2.12 0 0 1-.4.18.64.64 0 0 1-.26-.14z" data-name="Union 108" transform="translate(-82.52 148.62)"/></g><g id="Group_37554" data-name="Group 37554"><path id="Path_46585" fill="#464646" d="M87.59-160.22c.56 1.5.97 5 .05 6.42 2.52-3.9 2.24-8.43 2.03-12.73-.15-3.44-3.41-6.42-7.38-6.6-1.42-.07-3.08.28-3.68 1.4a4.18 4.18 0 0 0-3.65 1.05c-4.83 4.29-.16 11.72 2.51 15.87-.75-1.17-.43-2.88-.77-4.15-.3-1.18-.52-1.93.27-3.08a.58.58 0 0 1 .28-.24.49.49 0 0 1 .53.18 1.13 1.13 0 0 1 .19.5c.33 1.5.68 3.8 1.86 5 1.06 1.1 3.44-.36 4.18-1.82.84-1.64 1.88-1.4 2.66-3.12.18-.12.38.1.47.28l.45 1.03z" data-name="Path 46585" transform="translate(-72.86 173.14)"/></g><path id="Union_85" fill="#f5e7e5" d="M80.84-154.03a11.22 11.22 0 0 1-2.14-.97 10.5 10.5 0 0 1-1.58-1.15 1.75 1.75 0 0 1-.64-.9v-.45a.63.63 0 0 1-.1-.07 1.4 1.4 0 0 1-.42-.76 2.34 2.34 0 0 1-.05-.94c.05-.27.16-.49.34-.54a.66.66 0 0 1 .48.02l.16-.96c.14-.74.31-1.47.49-2.08a5.06 5.06 0 0 1 .56-1.36l.02-.03a7.05 7.05 0 0 1 2.63-2.27 5.43 5.43 0 0 1 2.77-.42 6.27 6.27 0 0 1 2.4.8 5.18 5.18 0 0 1 1.65 1.41 6.82 6.82 0 0 1 .64 1.36 25.32 25.32 0 0 1 1.16 4.24 7.85 7.85 0 0 1 .14 1.67 1.96 1.96 0 0 1-.58 1.02 8.08 8.08 0 0 1-1.45 1.23 9.73 9.73 0 0 1-1.98 1.05 7.08 7.08 0 0 1-2.21.47h-.07a6.87 6.87 0 0 1-2.22-.37zm-2.9-10.16v.02zm.02-.02c.49-.67.32-.44.15-.2l-.16.22z" data-name="Union 85" transform="translate(-73.97 170.87)"/><g id="Group_37575" data-name="Group 37575" transform="translate(2.5 3.75)"><path id="Path_46629" fill="#464646" d="M89.96-165.69c-.19-.11-3.19-1.5-3.4-1.53s-5.42.03-5.56.14-3.57 1.86-3.84 1.88l-.36 3.86.45 2.42s.11-3.12.71-4.12c.63-1.05 2.1-1.75 2.98-2.7-.8.87 3.57 1.76 3.93 1.85a4.27 4.27 0 0 1 3.04 3.25 15.42 15.42 0 0 1-.11 6.8 10.1 10.1 0 0 0 2.4-4.6 14.51 14.51 0 0 0 .4-4.17c-.08-.58-.01-2.7-.64-3.07z" data-name="Path 46629" transform="translate(-76.8 167.23)"/></g></g></g></g></g><g id="Group_86746" data-name="Group 86746" transform="translate(-20306 -2862)"><g id="Group_86738" data-name="Group 86738" filter="url(#Union_130)" transform="translate(-35 -53)"><path id="Union_130-2" fill="#fff" stroke="rgba(0,0,0,0)" d="M21.6 44a12 12 0 0 1-11.43-8.33v-1.82l-.45-.1A12.06 12.06 0 0 1 9.6 32v-6.85L0 23.05c.07-.02 6.75-2.65 10.37-6.77-.01-2.61-.04-5.6-.07-8.33A12 12 0 0 1 21.6 0H125a12 12 0 0 1 12 12v20a12 12 0 0 1-12 12z" data-name="Union 130" transform="translate(35 53)"/></g><g id="Group_86749" data-name="Group 86749" font-family="NotoSansCJKtc-Regular, Noto Sans CJK TC" font-size="12" letter-spacing=".06em" transform="translate(22 3)"><text id="保險直銷好積極_" data-name="保險直銷好積極～" transform="translate(0 15)"><tspan x="0" y="0">保險直銷好積極～</tspan></text><text id="但_..._我沒興趣啊_" data-name="但 ... 我沒興趣啊！" transform="translate(0 32)"><tspan x="0" y="0">但 ... 我沒興趣啊！</tspan></text></g></g><text id="封鎖產業及公司" fill="#fff" font-family="NotoSansCJKtc-Regular, Noto Sans CJK TC" font-size="14" letter-spacing=".06em" transform="translate(-20329 -2888)"><tspan x="0" y="0">封鎖產業及公司</tspan></text><g id="Group_86741" data-name="Group 86741" transform="translate(-20165 -2904)"><path id="Path_88484" fill="#fff" d="M63.23 92.19a10 10 0 1 0 10 10 10.01 10.01 0 0 0-10-10zm0 2.65a7.3 7.3 0 0 1 4.01 1.2l-9.84 10.62a7.35 7.35 0 0 1 5.83-11.82zm0 14.7a7.3 7.3 0 0 1-3.87-1.1l9.8-10.58a7.35 7.35 0 0 1-5.93 11.69z" data-name="Path 88484" transform="translate(-53.23 -92.19)"/></g><text id="下午_11:11" fill="#fff" data-name="下午 11:11" font-family="NotoSansCJKtc-Regular, Noto Sans CJK TC" font-size="8" letter-spacing=".06em" transform="translate(-20181 -2808)"><tspan x="0" y="0">下午 11:11</tspan></text><g id="Group_86747" data-name="Group 86747" transform="translate(-59 -12)"><g id="Group_86744" data-name="Group 86744" transform="translate(0 -40)"><g id="Group_86740" data-name="Group 86740" transform="translate(-4.67 .5)"><g id="Group_86739" data-name="Group 86739" filter="url(#Union_129)" transform="translate(-20277.33 -2863.5)"><path id="Union_129-2" fill="#fff" stroke="rgba(0,0,0,0)" d="M21.41 43.81a12 12 0 0 1-11.3-7.93v-2.61l-.63-.13a12.01 12.01 0 0 1-.07-1.33V24.4L0 22.27c.07-.03 6.84-2.8 10.34-7.1-.01-2.4-.04-5.1-.07-7.64A12 12 0 0 1 21.4 0H138a12 12 0 0 1 12 12v19.81a12 12 0 0 1-12 12z" data-name="Union 129" transform="translate(35 120)"/></g><text id="想轉職跳槽_" data-name="想轉職跳槽，" font-family="NotoSansCJKtc-Regular, Noto Sans CJK TC" font-size="12" transform="translate(-20220.33 -2725.5)"><tspan x="0" y="0">想轉職跳槽，</tspan></text><text id="希望老闆不要發現我_" data-name="希望老闆不要發現我！" font-family="NotoSansCJKtc-Regular, Noto Sans CJK TC" font-size="12" transform="translate(-20220.33 -2708.5)"><tspan x="0" y="0">希望老闆不要發現我！</tspan></text></g><g id="Group_37547" data-name="Group 37547" transform="translate(-20275 -2738)"><circle id="Ellipse_1507" cx="12" cy="12" r="12" fill="#fff" data-name="Ellipse 1507"/><g id="Group_86737" data-name="Group 86737"><g id="Group_86736" clip-path="url(#clip-path-3)" data-name="Group 86736"><g id="Group_37546" data-name="Group 37546" transform="translate(3.57 1.1)"><path id="Path_46551" fill="#f5e7e5" d="M198.78-70.95a6.62 6.62 0 0 0-1.92 2.88c-.3 1.43 1.37 2.63 1.37 2.63s.99-.72.42-1.29c-.66-.64-.92-.52-.92-1.1a10.57 10.57 0 0 1 1.47-2.65s.51-.82-.42-.47z" data-name="Path 46551" transform="translate(-192.96 88.88)"/><path id="Path_46552" fill="#f5e7e5" d="M207.33-70.63a10.94 10.94 0 0 1 1.92 2.88c.54 1.44-1.87 2.4-1.87 2.4s-1.46-1.7-.39-1.53c.91.13 1.41-.05 1.4-.63a10.6 10.6 0 0 0-1.48-2.64s-.52-.81.42-.48z" data-name="Path 46552" transform="translate(-195.47 88.8)"/><path id="Union_86" fill="#464646" d="M198.46-66.44l.6-4.2a2 2 0 0 1-1.26-.94s.83-1.1 1.52-.96c.4-2.6 3.57-3.63 4.44-.52l.19.56c.7-.3 1.62.92 1.62.92a2 2 0 0 1-1.1.9 22.1 22.1 0 0 1 .67 4.24 11.48 11.48 0 0 1-3.33.5 11.48 11.48 0 0 1-3.35-.5z" data-name="Union 86" transform="translate(-193.21 89.9)"/><path id="Path_46553" fill="#f5e7e5" d="M199.43-65.4s1.07.26.89.79-.83.1-.83.1.6 1.29-.1 1.62-1.26-.47-1.29-1.02a2.78 2.78 0 0 1 .3-1.68c.28-.37 1.03.18 1.03.18z" data-name="Path 46553" transform="translate(-193.28 87.52)"/><path id="Path_46554" fill="#f5e7e5" d="M206.03-65.13s-1.07.27-.89.8.83.1.83.1-.6 1.28.1 1.61 1.26-.46 1.29-1.02a2.78 2.78 0 0 0-.3-1.68c-.3-.37-1.03.19-1.03.19z" data-name="Path 46554" transform="translate(-195.09 87.45)"/><g id="Group_37545" data-name="Group 37545" transform="translate(7 15.36)"><path id="Path_46555" fill="#fff" d="M202.82-72.86v.38l-.32 5.17.63 1.53.86-1.36-.96-5.28.39-.47z" data-name="Path 46555" transform="translate(-201.41 74)"/><path id="Path_46556" fill="#5c5c5c" d="M203.13-73.27l.46.96a2.08 2.08 0 0 0 1.1-1.44 2.05 2.05 0 0 0-.21-.63 2.34 2.34 0 0 1-1.35 1.11z" data-name="Path 46556" transform="translate(-201.57 74.38)"/><path id="Path_46557" fill="#5c5c5c" d="M202.6-73.14l-.6.82a1.41 1.41 0 0 1-.97-1.03s.14-.47.29-.54a1.82 1.82 0 0 0 1.27.75z" data-name="Path 46557" transform="translate(-201.03 74.25)"/></g><path id="Union_87" fill="#f5e7e5" d="M198.95-76.19c-2.82-.13-4.7-1.1-5.49-2.46a3.43 3.43 0 0 1-.1-.19c-.57.77-1.73.47-1.13-1.12.32-.83-.92-1.46-.53-2.77a1.1 1.1 0 0 1 1.46-.5 26.43 26.43 0 0 1 .76-3.24c.95-3.01 3.96-4.03 6.21-4.05 2.76 0 5.25 1.26 5.76 4.46.2 1.2.37 2.41.45 3.55.5-.4 1.46-.25 1.6.32.3 1.12-.86 1.62-.6 2.34.54 1.5-.8 1.62-1.18.7a3.03 3.03 0 0 1-.52 1.1c-1.25 1.57-2.28 1.94-4.4 1.94-.64 0-1.4-.03-2.29-.08z" data-name="Union 87" transform="translate(-191.63 93.88)"/><path id="Path_9749" fill="#464646" d="M193.3-84.8a13.43 13.43 0 0 1 .3-5.45c.38-1.3.92-3.12 2.14-3.69 1.49-.72.48.4 3.61-.37 1.34-.33 2.58-1.08 4.79-.52 0 0 2.17.82 2.97 5.83v.02a16.12 16.12 0 0 1 .3 3.5 5.7 5.7 0 0 1-.51 2.1c-.37.32-.39-.04-.44-.05a16.2 16.2 0 0 1 .08-2.06c-.15-.84-.8-3.5-2.16-4.1a3.05 3.05 0 0 0-2.19.5c-2.6 1.43-3.88.3-4.23.22l-.46-.24a1.85 1.85 0 0 0-2.52.76c0 .02-.02.03-.03.05a7.5 7.5 0 0 0-.92 3.5c-.01.13-.4 1.5-.43 1.69-.02-.1-.22-.99-.3-1.69z" data-name="Path 9749" transform="translate(-192.01 95.03)"/></g></g></g></g></g><text id="下午_11:11-2" fill="#fff" data-name="下午 11:11" font-family="NotoSansCJKtc-Regular, Noto Sans CJK TC" font-size="8" letter-spacing=".06em" transform="translate(-20122 -2729)"><tspan x="0" y="0">下午 11:11</tspan></text></g><g id="Group_86748" data-name="Group 86748" transform="translate(-54 10)"><g id="Group_86745" data-name="Group 86745" transform="translate(-21239 -3116.5)"><g id="Group_83986" data-name="Group 83986" transform="translate(1044.54 370)"><ellipse id="Ellipse_2032" cx="10.24" cy=".76" fill="#999" data-name="Ellipse 2032" rx="10.24" ry=".76" transform="translate(43.6 89.28)"/><g id="Group_83985" data-name="Group 83985" transform="scale(-1) rotate(-6.02 -708.16 422.53)"><path id="Path_88968" fill="#9fdff8" stroke="rgba(0,0,0,0)" d="M2.5 0C1.93 1.25 1.47 2.66.93 4.01-.86 12-.16 16.63 3.84 24.88l.2-.04a3.6 3.6 0 0 0 2.12-1 2.11 2.11 0 0 0 .17-.2c4.55-7 .66-11.52-2.47-16.22-.4-2.3-.89-4.93-1.36-7.42z" data-name="Path 88968" transform="rotate(-32.01 7.77 2.23)"/><g id="Mask_Group_320" clip-path="url(#clip-path-4)" data-name="Mask Group 320"><g id="Group_83983" fill="#cef4fe" data-name="Group 83983" transform="translate(-9.34 3.74)"><path id="Path_88969" d="M0 .84s18.93-1.9 27.88 0 11.3 2.73 0 .64S0 1.48 0 1.48z" data-name="Path 88969" transform="rotate(36 4.91 15.12)"/><path id="Path_88970" d="M0 .84s18.93-1.9 27.88 0 11.3 2.73 0 .64S0 1.48 0 1.48z" data-name="Path 88970" transform="rotate(36 3.96 12.2)"/><path id="Path_88971" d="M0 .84s18.93-1.9 27.88 0 11.3 2.73 0 .64S0 1.48 0 1.48z" data-name="Path 88971" transform="rotate(36 2.7 8.3)"/><path id="Path_88972" d="M0 .84s18.93-1.9 27.88 0 11.3 2.73 0 .64S0 1.48 0 1.48z" data-name="Path 88972" transform="rotate(36 1.74 5.37)"/><path id="Path_88973" d="M0 .84s18.93-1.9 27.88 0 11.3 2.73 0 .64S0 1.48 0 1.48z" data-name="Path 88973" transform="rotate(36 .8 2.45)"/></g></g><path id="Path_88975" fill="#ffe1c4" d="M2.75 0A7.56 7.56 0 0 0 0 1.01l.18.7s.14.86.56.72c.11-.04.17-.2.2-.42.08.2.21.41.45.33.12-.04.18-.2.2-.41.08.2.22.4.45.32.12-.04.18-.2.21-.41.08.2.21.4.45.33.18-.06.23-.43.22-.82a7.6 7.6 0 0 0-.1-1.03z" data-name="Path 88975" transform="rotate(-40 41.1 -11.8)"/><g id="Group_83984" data-name="Group 83984" transform="rotate(-40 37.3 -9.19)"><path id="Path_88967" fill="#2e8db1" d="M.63.02h2.54C3.52.02 4.4-.1 4.4.24L3.8 2.56a.63.63 0 0 1-.63.63H.63A.63.63 0 0 1 0 2.56V.66A.63.63 0 0 1 .63.02z" data-name="Path 88967" transform="rotate(-12.04 4.36 .46)"/><ellipse id="Ellipse_2061" cx=".95" cy=".47" fill="#f6c44c" data-name="Ellipse 2061" rx=".95" ry=".47" transform="rotate(74.99 .02 1.64)"/></g></g><path id="Path_88857" fill="#9fdff8" stroke="rgba(0,0,0,0)" d="M2.5 0C1.93 1.25 1.47 2.66.93 4.01-.86 12-.16 16.63 3.84 24.88l.2-.04a3.6 3.6 0 0 0 2.12-1 2.11 2.11 0 0 0 .17-.2c4.55-7 .66-11.52-2.47-16.22-.4-2.3-.89-4.93-1.36-7.42z" data-name="Path 88857" transform="rotate(-32.01 134.48 -76.17)"/><g id="Mask_Group_319" clip-path="url(#clip-path-4)" data-name="Mask Group 319" transform="translate(60.81 55.24)"><g id="Group_83982" fill="#cef4fe" data-name="Group 83982" transform="translate(-9.34 3.74)"><path id="Path_88961" d="M0 .84s18.93-1.9 27.88 0 11.3 2.73 0 .64S0 1.48 0 1.48z" data-name="Path 88961" transform="rotate(36 4.91 15.12)"/><path id="Path_88963" d="M0 .84s18.93-1.9 27.88 0 11.3 2.73 0 .64S0 1.48 0 1.48z" data-name="Path 88963" transform="rotate(36 3.96 12.2)"/><path id="Path_88964" d="M0 .84s18.93-1.9 27.88 0 11.3 2.73 0 .64S0 1.48 0 1.48z" data-name="Path 88964" transform="rotate(36 2.7 8.3)"/><path id="Path_88965" d="M0 .84s18.93-1.9 27.88 0 11.3 2.73 0 .64S0 1.48 0 1.48z" data-name="Path 88965" transform="rotate(36 1.74 5.37)"/><path id="Path_88966" d="M0 .84s18.93-1.9 27.88 0 11.3 2.73 0 .64S0 1.48 0 1.48z" data-name="Path 88966" transform="rotate(36 .8 2.45)"/></g></g><path id="Path_88703" fill="#a22722" d="M-739.9 798.17c-3.56-2.14-21.73-5.24-26.16-3.35s3.22 11.9 3.22 11.9-.88.22-.86.36 6.6.14 6.6.14 5.53-8.33 3.57-13.3c-1.76 2.7.34 11.27 1.9 13.3.05-.1 6.1.03 6.27-.11s-.68-.25-.68-.25 9.7-6.55 6.14-8.7z" data-name="Path 88703" transform="translate(807.9 -717.51)"/><g id="Mask_Group_318" clip-path="url(#clip-path-6)" data-name="Mask Group 318" transform="translate(40.46 76.41)"><g id="Group_83981" fill="#e8615d" data-name="Group 83981" transform="translate(1.65 3.41)"><ellipse id="Ellipse_2048" cx=".51" cy="6.64" data-name="Ellipse 2048" rx=".51" ry="6.64" transform="translate(0 .02)"/><ellipse id="Ellipse_2049" cx=".51" cy="6.64" data-name="Ellipse 2049" rx=".51" ry="6.64" transform="rotate(5.13 1.38 30.09)"/><ellipse id="Ellipse_2050" cx=".51" cy="6.64" data-name="Ellipse 2050" rx=".51" ry="6.64" transform="rotate(5.13 2.46 53.52)"/><ellipse id="Ellipse_2051" cx=".51" cy="6.64" data-name="Ellipse 2051" rx=".51" ry="6.64" transform="rotate(5.13 3.54 76.94)"/><ellipse id="Ellipse_2052" cx=".51" cy="6.64" data-name="Ellipse 2052" rx=".51" ry="6.64" transform="rotate(5.13 4.61 100.37)"/><ellipse id="Ellipse_2053" cx=".51" cy="6.64" data-name="Ellipse 2053" rx=".51" ry="6.64" transform="rotate(5.13 5.7 123.78)"/><ellipse id="Ellipse_2054" cx=".51" cy="6.64" data-name="Ellipse 2054" rx=".51" ry="6.64" transform="rotate(5.13 6.77 147.22)"/><ellipse id="Ellipse_2055" cx=".51" cy="6.64" data-name="Ellipse 2055" rx=".51" ry="6.64" transform="rotate(5.13 7.85 170.64)"/><ellipse id="Ellipse_2056" cx=".51" cy="6.64" data-name="Ellipse 2056" rx=".51" ry="6.64" transform="rotate(5.13 8.92 194.07)"/><ellipse id="Ellipse_2057" cx=".51" cy="6.64" data-name="Ellipse 2057" rx=".51" ry="6.64" transform="rotate(5.13 10 217.5)"/><ellipse id="Ellipse_2058" cx=".51" cy="6.64" data-name="Ellipse 2058" rx=".51" ry="6.64" transform="rotate(5.13 11.08 240.93)"/><ellipse id="Ellipse_2059" cx=".51" cy="6.64" data-name="Ellipse 2059" rx=".51" ry="6.64" transform="rotate(5.13 12.15 264.36)"/><ellipse id="Ellipse_2060" cx=".51" cy="6.64" data-name="Ellipse 2060" rx=".51" ry="6.64" transform="rotate(5.13 13 282.68)"/></g></g><g id="Group_83980" data-name="Group 83980" transform="translate(18.03 44.35)"><g id="Group_83961" data-name="Group 83961"><g id="Group_83944" data-name="Group 83944" transform="translate(13.37 14.23)"><path id="Path_88928" fill="#fdba37" d="M-196.47 381.55a.98.98 0 0 0 .74-1.18l-.2-.87a.98.98 0 0 0-1.18-.74.98.98 0 0 0-.74 1.18l.2.87a.98.98 0 0 0 1.18.74zm-.52-2.27a.45.45 0 0 1 .54.34l.2.87a.45.45 0 0 1-.34.54.45.45 0 0 1-.54-.33l-.2-.88a.45.45 0 0 1 .34-.54z" data-name="Path 88928" transform="translate(197.87 -378.74)"/></g><g id="Group_83945" data-name="Group 83945" transform="translate(12.97 11.16)"><path id="Path_88929" fill="#fdba37" d="M-198.86 363.84a.98.98 0 0 0 .77-1.15l-.17-.88a.98.98 0 0 0-1.15-.78.98.98 0 0 0-.78 1.15l.17.88a.98.98 0 0 0 1.16.78zm-.45-2.29a.45.45 0 0 1 .53.36l.17.88a.45.45 0 0 1-.36.53.45.45 0 0 1-.53-.36l-.17-.88a.45.45 0 0 1 .36-.53z" data-name="Path 88929" transform="translate(200.2 -361.01)"/></g><g id="Group_83946" data-name="Group 83946" transform="translate(12.34 8.13)"><path id="Path_88930" fill="#fdba37" d="M-202.36 346.3a.98.98 0 0 0 .7-1.2l-.23-.87a.98.98 0 0 0-1.2-.7.98.98 0 0 0-.7 1.2l.23.87a.98.98 0 0 0 1.2.7zm-.6-2.25a.45.45 0 0 1 .56.32l.23.86a.45.45 0 0 1-.32.56.45.45 0 0 1-.55-.32l-.24-.87a.45.45 0 0 1 .32-.55z" data-name="Path 88930" transform="translate(203.82 -343.5)"/></g><g id="Group_83947" data-name="Group 83947" transform="translate(11.4 5.18)"><path id="Path_88931" fill="#fdba37" d="M-207.5 329.1a.98.98 0 0 0 .46-1.3l-.39-.81a.98.98 0 0 0-1.31-.46.98.98 0 0 0-.46 1.32l.4.8a.98.98 0 0 0 1.3.46zm-1.01-2.1a.45.45 0 0 1 .6.22l.4.8a.45.45 0 0 1-.22.6.45.45 0 0 1-.6-.2l-.39-.81a.45.45 0 0 1 .21-.6z" data-name="Path 88931" transform="translate(209.3 -326.43)"/></g><g id="Group_83948" data-name="Group 83948" transform="translate(9.6 2.67)"><path id="Path_88932" fill="#fdba37" d="M-217.36 314.2a.98.98 0 0 0-.03-1.39l-.64-.62a.98.98 0 0 0-1.4.03.98.98 0 0 0 .03 1.39l.65.62a.98.98 0 0 0 1.39-.03zm-1.68-1.61a.45.45 0 0 1 .64-.01l.64.62a.45.45 0 0 1 .02.64.45.45 0 0 1-.64 0l-.65-.61a.45.45 0 0 1 0-.64z" data-name="Path 88932" transform="translate(219.7 -311.92)"/></g><g id="Group_83949" data-name="Group 83949" transform="translate(7.13 .84)"><path id="Path_88933" fill="#fdba37" d="M-231.24 303.18a.98.98 0 0 0-.46-1.3l-.8-.4a.98.98 0 0 0-1.32.46.98.98 0 0 0 .46 1.31l.8.4a.98.98 0 0 0 1.32-.47zm-2.1-1.01a.45.45 0 0 1 .6-.21l.8.39a.45.45 0 0 1 .21.6.45.45 0 0 1-.6.2l-.8-.38a.45.45 0 0 1-.21-.6z" data-name="Path 88933" transform="translate(233.92 -301.38)"/></g><g id="Group_83951" data-name="Group 83951" transform="translate(4.13)"><g id="Group_83950" data-name="Group 83950"><path id="Path_88934" fill="#fdba37" d="M-248.39 297.45a.98.98 0 0 0-1.02-.94l-.9.03a.98.98 0 0 0-.94 1.02.98.98 0 0 0 1.02.95l.9-.04a.98.98 0 0 0 .94-1.02zm-2.33.1a.45.45 0 0 1 .44-.48l.9-.03a.45.45 0 0 1 .46.43.45.45 0 0 1-.43.47l-.9.03a.45.45 0 0 1-.47-.43z" data-name="Path 88934" transform="translate(251.25 -296.5)"/></g></g><g id="Group_83952" data-name="Group 83952" transform="translate(1.05 .12)"><path id="Path_88935" fill="#fdba37" d="M-266.26 298.02a.98.98 0 0 0-1.14-.79l-.88.16a.98.98 0 0 0-.8 1.15.98.98 0 0 0 1.15.79l.88-.16a.98.98 0 0 0 .8-1.15zm-2.29.42a.45.45 0 0 1 .36-.52l.88-.16a.45.45 0 0 1 .53.36.45.45 0 0 1-.36.52l-.89.16a.45.45 0 0 1-.52-.36z" data-name="Path 88935" transform="translate(269.09 -297.22)"/></g><g id="Group_83953" data-name="Group 83953" transform="translate(13.86 13.16)"><path id="Path_88936" fill="#f8e5a3" d="M-194.99 374.13a.38.38 0 0 0 .4.36.38.38 0 0 0 .36-.4l-.07-1.21a.38.38 0 0 0-.4-.36.38.38 0 0 0-.35.4z" data-name="Path 88936" transform="translate(195.06 -372.51)"/></g><g id="Group_83954" data-name="Group 83954" transform="translate(13.28 10.1)"><path id="Path_88937" fill="#f8e5a3" d="M-198.26 356.45a.38.38 0 0 0 .42.34.38.38 0 0 0 .34-.43l-.14-1.2a.38.38 0 0 0-.42-.33.38.38 0 0 0-.34.42z" data-name="Path 88937" transform="translate(198.4 -354.82)"/></g><g id="Group_83955" data-name="Group 83955" transform="translate(12.57 7.02)"><path id="Path_88938" fill="#f8e5a3" d="M-202.24 338.74a.38.38 0 0 0 .45.28.38.38 0 0 0 .29-.46l-.28-1.18a.38.38 0 0 0-.46-.28.38.38 0 0 0-.28.46z" data-name="Path 88938" transform="translate(202.53 -337.09)"/></g><g id="Group_83956" data-name="Group 83956" transform="translate(11.1 4.31)"><path id="Path_88939" fill="#f8e5a3" d="M-210.3 323.02a.38.38 0 0 0 .53.13.38.38 0 0 0 .13-.53l-.64-1.03a.38.38 0 0 0-.53-.12.38.38 0 0 0-.12.52z" data-name="Path 88939" transform="translate(210.99 -321.4)"/></g><g id="Group_83957" data-name="Group 83957" transform="translate(8.97 2.09)"><path id="Path_88940" fill="#f8e5a3" d="M-222.32 310.06a.38.38 0 0 0 .54-.01.38.38 0 0 0 0-.54l-.88-.84a.38.38 0 0 0-.54 0 .38.38 0 0 0 0 .55z" data-name="Path 88940" transform="translate(223.3 -308.56)"/></g><g id="Group_83958" data-name="Group 83958" transform="translate(6.2 .7)"><path id="Path_88941" fill="#fdba37" d="M-238 301.83a.38.38 0 0 0 .52-.18.38.38 0 0 0-.18-.5l-1.1-.54a.38.38 0 0 0-.5.18.38.38 0 0 0 .17.51z" data-name="Path 88941" transform="translate(239.3 -300.58)"/></g><g id="Group_83959" data-name="Group 83959" transform="translate(3.02 .6)"><path id="Path_88942" fill="#fdba37" d="M-256.06 300.7a.38.38 0 0 0 .33-.41.38.38 0 0 0-.42-.34l-1.2.14a.38.38 0 0 0-.34.42.38.38 0 0 0 .42.34z" data-name="Path 88942" transform="translate(257.7 -299.95)"/></g><g id="Group_83960" data-name="Group 83960" transform="translate(0 .96)"><path id="Path_88943" fill="#fdba37" d="M-273.48 302.81a.38.38 0 0 0 .27-.46.38.38 0 0 0-.47-.28l-1.17.3a.38.38 0 0 0-.27.47.38.38 0 0 0 .46.27z" data-name="Path 88943" transform="translate(275.13 -302.06)"/></g></g><g id="Group_83979" data-name="Group 83979" transform="translate(13.41 14.32)"><g id="Group_83962" data-name="Group 83962"><path id="Path_88944" fill="#fdba37" d="M-196.8 379.27a.98.98 0 0 0-.82 1.12l.13.89a.98.98 0 0 0 1.11.83.98.98 0 0 0 .83-1.12l-.13-.89a.98.98 0 0 0-1.11-.83zm.34 2.3a.45.45 0 0 1-.5-.37l-.14-.89a.45.45 0 0 1 .38-.51.45.45 0 0 1 .52.38l.13.89a.45.45 0 0 1-.39.51z" data-name="Path 88944" transform="translate(197.63 -379.26)"/></g><g id="Group_83963" data-name="Group 83963" transform="translate(.19 3.09)"><path id="Path_88945" fill="#fdba37" d="M-195.69 397.1a.98.98 0 0 0-.86 1.1l.1.88a.98.98 0 0 0 1.08.87.98.98 0 0 0 .87-1.09l-.1-.89a.98.98 0 0 0-1.09-.86zm.27 2.32a.45.45 0 0 1-.5-.4l-.1-.89a.45.45 0 0 1 .4-.5.45.45 0 0 1 .5.4l.1.9a.45.45 0 0 1-.4.5z" data-name="Path 88945" transform="translate(196.56 -397.1)"/></g><g id="Group_83964" data-name="Group 83964" transform="translate(.5 6.17)"><path id="Path_88946" fill="#fdba37" d="M-193.9 414.91a.98.98 0 0 0-.78 1.14l.16.89a.98.98 0 0 0 1.14.79.98.98 0 0 0 .79-1.15l-.16-.88a.98.98 0 0 0-1.14-.79zm.42 2.3a.45.45 0 0 1-.52-.37l-.16-.88a.45.45 0 0 1 .36-.53.45.45 0 0 1 .53.37l.16.88a.45.45 0 0 1-.37.52z" data-name="Path 88946" transform="translate(194.7 -414.9)"/></g><g id="Group_83965" data-name="Group 83965" transform="translate(1.05 9.23)"><path id="Path_88947" fill="#fdba37" d="M-190.94 432.68a.98.98 0 0 0-.56 1.28l.33.83a.98.98 0 0 0 1.27.56.98.98 0 0 0 .56-1.27l-.32-.84a.98.98 0 0 0-1.28-.56zm.85 2.17a.45.45 0 0 1-.58-.25l-.33-.84a.45.45 0 0 1 .26-.58.45.45 0 0 1 .58.26l.33.83a.45.45 0 0 1-.26.58z" data-name="Path 88947" transform="translate(191.56 -432.62)"/></g><g id="Group_83966" data-name="Group 83966" transform="translate(2.38 12.05)"><path id="Path_88948" fill="#fdba37" d="M-183.56 449.11a.98.98 0 0 0-.09 1.39l.6.67a.98.98 0 0 0 1.38.09.98.98 0 0 0 .09-1.4l-.6-.66a.98.98 0 0 0-1.38-.09zm1.54 1.75a.45.45 0 0 1-.64-.04l-.6-.67a.45.45 0 0 1 .05-.64.45.45 0 0 1 .64.04l.59.67a.45.45 0 0 1-.04.64z" data-name="Path 88948" transform="translate(183.9 -448.86)"/></g><g id="Group_83967" data-name="Group 83967" transform="translate(4.5 14.28)"><path id="Path_88949" fill="#fdba37" d="M-171.47 462.25a.98.98 0 0 0 .35 1.34l.77.46a.98.98 0 0 0 1.35-.36.98.98 0 0 0-.35-1.34l-.78-.45a.98.98 0 0 0-1.34.35zm2 1.18a.45.45 0 0 1-.6.16l-.78-.46a.45.45 0 0 1-.16-.61.45.45 0 0 1 .61-.16l.78.45a.45.45 0 0 1 .16.62z" data-name="Path 88949" transform="translate(171.6 -461.76)"/></g><g id="Group_83969" data-name="Group 83969" transform="translate(7.3 15.74)"><g id="Group_83968" data-name="Group 83968"><path id="Path_88950" fill="#fdba37" d="M-155.4 471.15a.98.98 0 0 0 .93 1.03l.9.03a.98.98 0 0 0 1.03-.94.98.98 0 0 0-.95-1.02l-.9-.04a.98.98 0 0 0-1.02.94zm2.32.1a.45.45 0 0 1-.47.43l-.9-.04a.45.45 0 0 1-.43-.46.45.45 0 0 1 .47-.44l.9.04a.45.45 0 0 1 .43.47z" data-name="Path 88950" transform="translate(155.41 -470.21)"/></g></g><g id="Group_83970" data-name="Group 83970" transform="translate(10.41 15.78)"><path id="Path_88951" fill="#fdba37" d="M-137.49 471.59a.98.98 0 0 0 1.08.88l.9-.1a.98.98 0 0 0 .87-1.07.98.98 0 0 0-1.08-.88l-.89.09a.98.98 0 0 0-.88 1.08zm2.32-.24a.45.45 0 0 1-.4.5l-.9.09a.45.45 0 0 1-.48-.4.45.45 0 0 1 .4-.5l.89-.09a.45.45 0 0 1 .5.4z" data-name="Path 88951" transform="translate(137.5 -470.41)"/></g><g id="Group_83971" data-name="Group 83971" transform="translate(.71 1.96)"><path id="Path_88952" fill="#fde49b" d="M-192.74 390.97a.38.38 0 0 0-.37-.39.38.38 0 0 0-.39.37l-.03 1.22a.38.38 0 0 0 .38.39.38.38 0 0 0 .39-.38z" data-name="Path 88952" transform="translate(193.53 -390.58)"/></g><g id="Group_83972" data-name="Group 83972" transform="translate(1 5.06)"><path id="Path_88953" fill="#fde49b" d="M-191.09 408.85a.38.38 0 0 0-.4-.36.38.38 0 0 0-.36.39l.04 1.21a.38.38 0 0 0 .4.37.38.38 0 0 0 .36-.4z" data-name="Path 88953" transform="translate(191.85 -408.49)"/></g><g id="Group_83973" data-name="Group 83973" transform="translate(1.33 8.19)"><path id="Path_88954" fill="#fde49b" d="M-189.2 426.89a.38.38 0 0 0-.43-.32.38.38 0 0 0-.32.43l.18 1.2a.38.38 0 0 0 .43.32.38.38 0 0 0 .32-.43z" data-name="Path 88954" transform="translate(189.96 -426.56)"/></g><g id="Group_83974" data-name="Group 83974" transform="translate(2.2 11.13)"><path id="Path_88955" fill="#fde49b" d="M-184.2 443.77a.38.38 0 0 0-.51-.16.38.38 0 0 0-.17.5l.55 1.09a.38.38 0 0 0 .52.16.38.38 0 0 0 .16-.5z" data-name="Path 88955" transform="translate(184.93 -443.56)"/></g><g id="Group_83975" data-name="Group 83975" transform="translate(3.9 13.69)"><path id="Path_88956" fill="#fde49b" d="M-174.45 458.47a.38.38 0 0 0-.54-.03.38.38 0 0 0-.03.53l.8.91a.38.38 0 0 0 .54.04.38.38 0 0 0 .03-.54z" data-name="Path 88956" transform="translate(175.12 -458.34)"/></g><g id="Group_83976" data-name="Group 83976" transform="translate(6.3 15.58)"><path id="Path_88957" fill="#fde49b" d="M-160.65 469.34a.38.38 0 0 0-.52.14.38.38 0 0 0 .14.52l1.04.61a.38.38 0 0 0 .53-.14.38.38 0 0 0-.14-.52z" data-name="Path 88957" transform="translate(161.22 -469.29)"/></g><g id="Group_83977" data-name="Group 83977" transform="translate(9.31 16.42)"><path id="Path_88958" fill="#fde49b" d="M-143.47 474.18a.38.38 0 0 0-.36.39.38.38 0 0 0 .4.37l1.2-.04a.38.38 0 0 0 .37-.4.38.38 0 0 0-.4-.37z" data-name="Path 88958" transform="translate(143.83 -474.13)"/></g><g id="Group_83978" data-name="Group 83978" transform="translate(12.38 16.13)"><path id="Path_88959" fill="#fde49b" d="M-125.79 472.68a.38.38 0 0 0-.3.44.38.38 0 0 0 .43.31l1.2-.2a.38.38 0 0 0 .31-.45.38.38 0 0 0-.44-.3z" data-name="Path 88959" transform="translate(126.1 -472.47)"/></g></g></g><path id="Path_88704" fill="#ffe1c4" d="M2.75 0A7.56 7.56 0 0 0 0 1.01l.18.7s.14.86.56.72c.11-.04.17-.2.2-.42.08.2.21.41.45.33.12-.04.18-.2.2-.41.08.2.22.4.45.32.12-.04.18-.2.21-.41.08.2.21.4.45.33.18-.06.23-.43.22-.82a7.6 7.6 0 0 0-.1-1.03z" data-name="Path 88704" transform="rotate(-40 147.4 -67.72)"/><path id="Path_88708" fill="#545454" d="M-766.1 632.97c0-.15 0-.3-.02-.43l-.03-.22-.15.08-.22.12-.18.6-.61.46-.13.09a19.66 19.66 0 0 1-8.1 3.4 16.71 16.71 0 0 1-4.94.04h-.02a17.97 17.97 0 0 1-2.95-.67 23.95 23.95 0 0 1-7.25-3.88 25.57 25.57 0 0 0 .43 4.55c7.82 2.21 19.36 3.02 24.16-4.14z" data-name="Path 88708" transform="translate(833.17 -569.1)"/><path id="Path_88709" fill="#ffb03a" d="M-767.55 768.93c.45 1.86.8 3.22.86 3.54 2.46-.27 20.3-1.64 28.1 0 .05-.12-.08-.4 0-.59-.48-.15-9-1.9-9.5-2-5.29-1.75-15.21 3.03-19.46-.95z" data-name="Path 88709" transform="translate(807.32 -689.78)"/><g id="Path_88710" fill="#ffc641" data-name="Path 88710"><path d="M-762.97 656.71c-1.55-.39-6-1.44-6.57-1.56-.92-.3-2.08-.45-3.55-.45-1.76 0-3.7.2-5.76.42-2.06.2-4.18.43-6.1.43-2.8 0-4.65-.47-5.81-1.48-.18-1.16.63-3.16 1.41-5.1.78-1.94 1.58-3.94 1.62-5.52 2.55.67 6.18 1.4 10.1 1.4 5.87 0 10.36-1.66 13.1-4.82.12 1.57.4 3.64.71 5.8.56 3.97 1.25 8.85.85 10.88z" transform="translate(831.16 -574.77)"/><path fill="#ffb03a" d="M-764.93 641.17c-2.87 2.74-7.2 4.17-12.7 4.17-3.68 0-7.11-.63-9.65-1.26-.19 1.55-.9 3.33-1.6 5.07-.69 1.7-1.46 3.6-1.4 4.67 1.06.83 2.82 1.23 5.33 1.23 1.9 0 4-.22 6.05-.43 2.07-.22 4.02-.42 5.8-.42 1.52 0 2.72.15 3.7.47.6.13 4.17.97 6.02 1.42.2-2.2-.45-6.74-.93-10.2-.24-1.69-.47-3.33-.62-4.72m.83-2.53c-.01 4.03 2.57 15.78 1.48 18.68-.47-.15-6.55-1.59-7.05-1.69-.95-.31-2.12-.43-3.42-.43-3.53 0-8.05.85-11.86.85-2.6 0-4.86-.4-6.27-1.72-.63-2.6 3.45-8.49 2.95-11.55 3.17.9 6.95 1.56 10.64 1.56 5.43 0 10.67-1.44 13.53-5.7z" transform="translate(831.16 -574.77)"/></g><path id="Path_88714" fill="#f6ca9e" d="M-782.1 376a6.9 6.9 0 0 1-2.45.43c-6.12.04-16.38-6.12-16.38-6.12.58-.34 2.03-1.03 2.94-1.45a9.99 9.99 0 0 1-4.74.16 24.66 24.66 0 0 1-4.8-1.53c.1-.16 2.2-2.33 2.2-2.33s-4.74-1.44-8.49 1.33l-.04.05-.52.75c1.82-.62 3.62-1.63 5.62-1.2-.58.87-.82 1.87-1.75 2.45 2.78.82 5.62 2.3 8.51 1.54-.39.28-.42.86-.8 1.14.86.42 1.85.5 2.7.9 5.02 2.84 10.23 6 16 5.23a9.6 9.6 0 0 0-2.2 3.9c-1.3 3.72-1.43 7.72-2.22 11.58l-.17.77.13-.09.61-.45c.07-.2.13-.4.18-.61a31.34 31.34 0 0 0 .8-3.65c2.34.74 3.36-3.47.48-3.2.54-3.5 1.32-6.75 4.38-9.6z" data-name="Path 88714" transform="translate(854.42 -329.03)"/><path id="Path_88715" fill="#ffe4c9" d="M-840.3 382.62c-.86-.41-1.86-.49-2.71-.9.38-.29.41-.86.8-1.15-2.9.75-5.73-.72-8.52-1.54.94-.57 1.18-1.58 1.76-2.45-2-.42-3.8.58-5.63 1.2a25.2 25.2 0 0 0-4.53 11.34 14.07 14.07 0 0 0 .57 5.64l.26.72a15.69 15.69 0 0 0 4.6 6.25c.52.45 1.03.86 1.54 1.25a23.95 23.95 0 0 0 7.24 3.88 17.98 17.98 0 0 0 2.96.67h.01a16.7 16.7 0 0 0 4.96-.05 19.65 19.65 0 0 0 8.09-3.38l.17-.77c.8-3.86.93-7.86 2.21-11.59a9.6 9.6 0 0 1 2.2-3.89c-5.76.76-10.97-2.39-15.99-5.23z" data-name="Path 88715" transform="translate(894.63 -339.52)"/><path id="Path_88716" fill="#423024" d="M-780 265.16c-.19-7.3-13.66-15-22.45-11.72-8.93 2.6-11.9 10.14-13.16 13a8.13 8.13 0 0 1 .69-.56c3.75-2.77 8.49-1.33 8.49-1.33a8.64 8.64 0 0 0-2.41 2.44 24.75 24.75 0 0 0 5 1.42 10 10 0 0 0 4.75-.16c-.9.42-2.36 1.11-2.93 1.45 0 0 10.25 6.16 16.37 6.12a6.9 6.9 0 0 0 2.44-.42c-3.06 2.84-3.83 6.1-4.38 9.59 2.88-.27 1.86 3.94-.48 3.2a29.47 29.47 0 0 1-.98 4.25c-.14.45-.3.89-.47 1.34 8.38-5 20.33-21.2 9.52-28.62z" data-name="Path 88716" transform="translate(855.52 -228.42)"/><g id="Group_83764" fill="#fda98e" data-name="Group 83764" transform="translate(38.7 45.56)"><path id="Path_88717" d="M-698.24 546.86c-.26.42-1.66.04-3.11-.87s-2.42-1.98-2.16-2.4 1.66-.05 3.12.86 2.42 1.98 2.15 2.4z" data-name="Path 88717" transform="translate(716.27 -534.87)"/><path id="Path_88718" d="M-822.23 463.95c-.29.41-1.66-.05-3.07-1.02s-2.32-2.1-2.03-2.52 1.66.05 3.06 1.02 2.32 2.1 2.04 2.52z" data-name="Path 88718" transform="translate(827.39 -460.26)"/></g><path id="Path_88719" fill="#333" d="M-780.62 425.8c-.37.84-1.03 1.36-1.48 1.16s-.5-1.04-.13-1.88 1.03-1.37 1.48-1.18.5 1.05.13 1.9z" data-name="Path 88719" transform="translate(825.79 -382.04)"/><path id="Path_88720" fill="#333" d="M-647.95 504.84c-.37.84-1.04 1.37-1.49 1.17s-.5-1.04-.13-1.89 1.04-1.37 1.49-1.17.5 1.05.13 1.89z" data-name="Path 88720" transform="translate(706.74 -452.97)"/><g id="Group_83765" data-name="Group 83765" transform="translate(38.66 54.09)"><path id="Path_88721" fill="#fff" d="M-809.39 552.13s-16.6-11.84-18.26-8.06c-.33.75.09 3.09 1.57 4.94 1.67-.98 4.5-.93 7.23.39a9.26 9.26 0 0 1 4.43 4.26 20.16 20.16 0 0 0 5.03-1.52z" data-name="Path 88721" transform="translate(827.76 -543.33)"/><path id="Path_88722" fill="#ff777c" d="M-811.02 592.02a14.39 14.39 0 0 0 5.37 4.05 11.17 11.17 0 0 0 6.3.58 9.24 9.24 0 0 0-4.47-4.2c-2.71-1.3-5.53-1.4-7.2-.43z" data-name="Path 88722" transform="translate(812.74 -586.43)"/></g><g id="Group_83879" data-name="Group 83879" transform="translate(37.23)"><g id="Group_83867" data-name="Group 83867" transform="rotate(41 -5.88 70.8)"><path id="Path_88824" fill="#f3b4a5" d="M0 12.7S2.73 4.21 6.97.57c2.1-1.8 10.26.8 15.46 5.76 5.3 5.06 9.1 10.92 3.34 12.73-6.37 1.82-13.45-9.83-13.45-9.83l-4.44 5.6A36.46 36.46 0 0 0 0 12.7z" data-name="Path 88824"/><path id="Path_88825" d="M0 9.73a35.74 35.74 0 0 1 4.5 1.44L8.9 5.6C7.96 4.65 6.75 1.66 6.15 0 4.1 1.47 1.55 5.83 0 9.73z" data-name="Path 88825" opacity=".2" transform="translate(3.37 3.65)"/></g><g id="Group_83868" data-name="Group 83868" transform="rotate(41 7.53 20.15)"><path id="Path_88826" fill="#f3b4a5" d="M26.97 10.05S22.11 2.58 17.06.2C14.56-1 7.38 3.64 3.66 9.8c-3.79 6.27-5.91 12.91.12 13.16 6.62.08 10.4-13.02 10.4-13.02l5.75 4.22a36.46 36.46 0 0 1 7.04-4.12z" data-name="Path 88826"/><path id="Path_88827" d="M9.67 7.77a35.72 35.72 0 0 0-3.97 2.58L0 6.13C.66 4.96 1.04 1.76 1.18 0c2.37.88 5.98 4.42 8.5 7.77z" data-name="Path 88827" opacity=".2" transform="translate(14.22 3.82)"/></g><path id="Subtraction_4" fill="#fec9c3" stroke="rgba(0,0,0,0)" d="M33.8 37.26a21.02 21.02 0 0 0-.4-13.24c-.68-4-3.33-7.44-7.87-10.23a22.94 22.94 0 0 0-13.39-4.24A23.1 23.1 0 0 0 0 12.97a18.74 18.74 0 0 1 4.45-7.01A22.28 22.28 0 0 1 19.27 0c.4 0 .8.01 1.2.04a21.9 21.9 0 0 1 5.06.93 22.36 22.36 0 0 1 4.92 2.2 24.69 24.69 0 0 1 8.37 8.51 18.61 18.61 0 0 1 2.67 8.58 21.09 21.09 0 0 1-2.03 10.1 17.18 17.18 0 0 1-5.66 6.9z" data-name="Subtraction 4" transform="translate(2.05 23.52)"/><ellipse id="Ellipse_2035" cx="1.54" cy=".61" fill="#903846" data-name="Ellipse 2035" opacity=".49" rx="1.54" ry=".61" transform="rotate(41 -27.18 63.89)"/><g id="Group_83875" data-name="Group 83875" transform="rotate(41 -20.55 46.08)"><path id="Path_88845" fill="#903846" d="M2.92.26c.1.32-.45.8-1.25 1.08S.13 1.6 0 1.28.46.48 1.26.19s1.55-.25 1.66.07z" data-name="Path 88845" opacity=".49" transform="translate(.84 1.91)"/><g id="Group_83874" data-name="Group 83874"><g id="Group_83873" data-name="Group 83873"><path id="Path_88846" fill="#3c2415" d="M2.8 1.5A1.4 1.4 0 1 1 1.5 0a1.4 1.4 0 0 1 1.3 1.5z" data-name="Path 88846"/><path id="Path_88847" fill="#fff" d="M.48.26A.24.24 0 1 1 .26 0a.24.24 0 0 1 .22.26z" data-name="Path 88847" transform="translate(.69 .47)"/></g></g></g><g id="Group_83877" data-name="Group 83877" transform="rotate(41 -24.34 64.6)"><g id="Group_83876" data-name="Group 83876"><circle id="Ellipse_2036" cx="1.4" cy="1.4" r="1.4" fill="#3c2415" data-name="Ellipse 2036" transform="rotate(-82.36 1.59 1.39)"/><path id="Path_88848" fill="#fff" d="M.48.26A.24.24 0 1 1 .26 0a.24.24 0 0 1 .22.26z" data-name="Path 88848" transform="translate(.86 .65)"/></g></g><ellipse id="Ellipse_2037" cx="3.3" cy="2.15" fill="#ec8282" data-name="Ellipse 2037" rx="3.3" ry="2.15" transform="rotate(31.81 -42.73 61.7)"/><path id="Path_88849" fill="#ec8282" d="M6.03 1.65C5.88.72 4.84.1 3.53 0a1.81 1.81 0 0 1 1.29 1.32c.17 1.08-1.04 2.18-2.7 2.45A4.06 4.06 0 0 1 0 3.58a3.73 3.73 0 0 0 3.12.72c1.8-.29 3.1-1.48 2.91-2.65z" data-name="Path 88849" transform="rotate(41 -29.17 52.03)"/><path id="Path_88850" fill="#fff" d="M1.05 20.21s-2.22-.2-.2-6.47C2.77 7.77 10.55 0 12.97 0c0 4.04-5.65 21.42-11.92 20.21z" data-name="Path 88850" opacity=".3" transform="rotate(41 5.4 20.25)"/><path id="Path_88851" fill="#fff" d="M14.97 15.44s2.87 0 .12-4.99C12.05 4.95 2.35-.55 0 .05 2.44 6.13 9.85 16.4 14.97 15.43z" data-name="Path 88851" opacity=".3" transform="rotate(41 -13.4 85.66)"/></g><path id="Path_88853" fill="none" stroke="#fff" d="M11459.67 20474.6s1.24 6.71.52 11.03" data-name="Path 88853" transform="translate(-11405.1 -20405.15)"/><path id="Path_88854" fill="none" stroke="#fff" d="M11443.25 20482.41c5.7 1 12.25 3.12 20.9 0" data-name="Path 88854" transform="translate(-11399.08 -20408.65)"/><path id="like" fill="#fc3b48" d="M1.77 2.58A.93.93 0 0 1 2.62 2a.98.98 0 0 1 .93.96.96.96 0 0 1-.03.37 1.61 1.61 0 0 1-.49.82L1.77 5.27.53 4.15a1.61 1.61 0 0 1-.5-.82.96.96 0 0 1-.02-.37A.98.98 0 0 1 .94 2a.9.9 0 0 1 .83.58z" transform="translate(49.32 68.49)"/><path id="like-2" fill="#fc3b48" d="M2.14.7A1.13 1.13 0 0 1 3.17 0 1.2 1.2 0 0 1 4.3 1.17a1.16 1.16 0 0 1-.04.44 1.95 1.95 0 0 1-.6.98L2.15 3.96.64 2.6a1.95 1.95 0 0 1-.6-.99 1.16 1.16 0 0 1-.03-.44A1.2 1.2 0 0 1 1.13 0a1.09 1.09 0 0 1 1 .7z" data-name="like" transform="rotate(18.01 -188.92 222.66)"/><path id="like-3" fill="#fc3b48" d="M2.14.7A1.13 1.13 0 0 1 3.17 0 1.2 1.2 0 0 1 4.3 1.17a1.16 1.16 0 0 1-.04.44 1.95 1.95 0 0 1-.6.98L2.15 3.96.64 2.6a1.95 1.95 0 0 1-.6-.99 1.16 1.16 0 0 1-.03-.44A1.2 1.2 0 0 1 1.13 0a1.09 1.09 0 0 1 1 .7z" data-name="like" transform="rotate(-24 210.47 -96.82)"/><path id="like-4" fill="#fc3b48" d="M2.14.7A1.13 1.13 0 0 1 3.17 0 1.2 1.2 0 0 1 4.3 1.17a1.16 1.16 0 0 1-.04.44 1.95 1.95 0 0 1-.6.98L2.15 3.96.64 2.6a1.95 1.95 0 0 1-.6-.99 1.16 1.16 0 0 1-.03-.44A1.2 1.2 0 0 1 1.13 0a1.09 1.09 0 0 1 1 .7z" data-name="like" transform="rotate(-7 643.54 -347.92)"/><path id="like-5" fill="#fc3b48" d="M.8.26A.42.42 0 0 1 1.18 0a.44.44 0 0 1 .42.43.43.43 0 0 1-.01.17.73.73 0 0 1-.22.37l-.57.5-.56-.5A.73.73 0 0 1 .02.6.43.43 0 0 1 0 .43.44.44 0 0 1 .42 0 .4.4 0 0 1 .8.26z" data-name="like" transform="rotate(-7 666.05 -385.42)"/><path id="like-6" fill="#fc3b48" d="M1.05.34a.55.55 0 0 1 .5-.34.58.58 0 0 1 .56.57.57.57 0 0 1-.02.22.95.95 0 0 1-.3.48l-.74.67-.74-.67A.95.95 0 0 1 .02.8.57.57 0 0 1 0 .57.58.58 0 0 1 .56 0a.54.54 0 0 1 .49.34z" data-name="like" transform="rotate(18.01 -199.33 216.98)"/><g id="Mask_Group_314" clip-path="url(#clip-path-7)" data-name="Mask Group 314" transform="translate(42.46 63.23)"><g id="Group_83891" fill="#b5b6b8" data-name="Group 83891" transform="translate(1.55 .14)"><ellipse id="Ellipse_2039" cx=".63" cy="2.54" data-name="Ellipse 2039" rx=".63" ry="2.54" transform="translate(0 .63)"/><ellipse id="Ellipse_2040" cx=".63" cy="2.54" data-name="Ellipse 2040" rx=".63" ry="2.54" transform="translate(2.54 1.27)"/><ellipse id="Ellipse_2041" cx=".63" cy="2.54" data-name="Ellipse 2041" rx=".63" ry="2.54" transform="translate(5.07 1.9)"/><ellipse id="Ellipse_2044" cx=".63" cy="2.54" data-name="Ellipse 2044" rx=".63" ry="2.54" transform="translate(13.94 1.9)"/><ellipse id="Ellipse_2045" cx=".63" cy="2.54" data-name="Ellipse 2045" rx=".63" ry="2.54" transform="translate(16.47 1.9)"/><ellipse id="Ellipse_2046" cx=".63" cy="2.54" data-name="Ellipse 2046" rx=".63" ry="2.54" transform="translate(19 1.9)"/><ellipse id="Ellipse_2047" cx=".63" cy="2.54" data-name="Ellipse 2047" rx=".63" ry="2.54" transform="translate(20.91)"/><ellipse id="Ellipse_2042" cx=".95" cy="2.54" data-name="Ellipse 2042" rx=".95" ry="2.54" transform="translate(7.6 2.54)"/><ellipse id="Ellipse_2043" cx=".95" cy="2.54" data-name="Ellipse 2043" rx=".95" ry="2.54" transform="translate(10.77 2.54)"/></g></g><g id="Group_83894" data-name="Group 83894" transform="rotate(-40 143.6 -65.1)"><path id="Path_88967-2" fill="#2e8db1" d="M.63.02h2.54C3.52.02 4.4-.1 4.4.24L3.8 2.56a.63.63 0 0 1-.63.63H.63A.63.63 0 0 1 0 2.56V.66A.63.63 0 0 1 .63.02z" data-name="Path 88967" transform="rotate(-12.04 4.36 .46)"/><ellipse id="Ellipse_2061-2" cx=".95" cy=".47" fill="#f6c44c" data-name="Ellipse 2061" rx=".95" ry=".47" transform="rotate(74.99 .02 1.64)"/></g></g><g id="Group_85695" data-name="Group 85695" transform="translate(841.48 615.5)"><path id="Path_90407" fill="#e9526a" d="M222.61-218.7h-12.17l-8.61 8.6v12.18l8.6 8.61h12.18l8.6-8.6v-12.18z" data-name="Path 90407"/><path id="Path_90408" fill="#e8e9ec" d="M222.76-219.06h-12.47l-8.83 8.82v12.47l8.82 8.82h12.47l8.82-8.82v-12.47zm7.5 20.75l-8.05 8.04h-11.38l-8.04-8.04v-11.38l8.04-8.04h11.38l8.05 8.04z" data-name="Path 90408"/><g id="Group_85694" data-name="Group 85694"><path id="Union_128" fill="#fff" stroke="rgba(0,0,0,0)" d="M19502.94 1829.81a5.43 5.43 0 0 1-5.41-5.43v-11.24a1 1 0 1 1 1.98-.01l.14 4.79h.27l-.01-6.23a1.06 1.06 0 0 1 2.12-.02l.2 6.25h.22l-.02-7.83a1.08 1.08 0 0 1 2.17 0l.05 7.83h.26l.09-6.77a1.08 1.08 0 1 1 2.16-.01l.05 8.9.3-.39c.33-.56.3-1.7 1.33-2.73 1.09-1.06 1.9-.32 1.88 0a65.4 65.4 0 0 1-1.57 6.77 9.26 9.26 0 0 1-1.52 3.46 5.42 5.42 0 0 1-4.66 2.67z" data-name="Union 128" transform="translate(-19287.03 -2023.88)"/></g><path id="Path_90417" fill="#fff" d="M223.98-222h-14.91l-10.55 10.54v14.92L209.07-186h14.9l10.55-10.54v-14.91zm7.24 24.09l-8.61 8.6h-12.17l-8.61-8.6v-12.17l8.6-8.61h12.18l8.6 8.6z" data-name="Path 90417"/></g></g><text id="已讀" fill="#fff" font-family="NotoSansCJKtc-Regular, Noto Sans CJK TC" font-size="8" letter-spacing=".06em" transform="translate(-20223 -2659)"><tspan x="0" y="0">已讀</tspan></text></g></g></svg>