<svg xmlns="http://www.w3.org/2000/svg" width="28" height="28" viewBox="0 0 28 28">
  <g id="camera" transform="translate(79 -305)">
    <circle id="Ellipse_544" data-name="Ellipse 544" cx="14" cy="14" r="14" transform="translate(-79 305)" fill="#707070" opacity="0"/>
    <g id="photo-camera" transform="translate(-74.333 312)">
      <g id="Group_10083" data-name="Group 10083" transform="translate(0 0)">
        <path id="Path_11549" data-name="Path 11549" d="M9.333,15.6a2.8,2.8,0,1,0,2.8,2.8A2.8,2.8,0,0,0,9.333,15.6ZM16.8,12.8H14.56a.831.831,0,0,1-.737-.531l-.579-1.738A.832.832,0,0,0,12.507,10H6.16a.831.831,0,0,0-.737.531l-.579,1.738a.832.832,0,0,1-.737.531H1.867A1.872,1.872,0,0,0,0,14.667v8.4a1.872,1.872,0,0,0,1.867,1.867H16.8a1.872,1.872,0,0,0,1.867-1.867v-8.4A1.872,1.872,0,0,0,16.8,12.8ZM9.333,23.067A4.667,4.667,0,1,1,14,18.4,4.667,4.667,0,0,1,9.333,23.067Zm6.813-7.095a.653.653,0,1,1,.653-.653A.653.653,0,0,1,16.147,15.972Z" transform="translate(0 -10)" fill="#fff"/>
      </g>
    </g>
  </g>
</svg>
