<svg xmlns="http://www.w3.org/2000/svg" width="67.4" height="57.86"><g transform="translate(-870.76 -580.04)"><path fill="#ffe1c4" d="M927.48 628.28a5.31 5.31 0 0 0-1.03 1.79l.42.3s.46.4.62.13c.05-.08.01-.2-.07-.32.13.07.3.12.39-.02.05-.08 0-.2-.08-.32.13.07.3.12.4-.03.04-.07 0-.19-.08-.31.13.07.3.12.39-.03.07-.12-.07-.34-.25-.54a5.46 5.46 0 0 0-.52-.51z" data-name="Path 91724"/><ellipse cx="7.25" cy=".54" fill="#999" data-name="Ellipse 2032" rx="7.25" ry=".54" transform="translate(901.63 636.83)"/><path fill="#9fdff8" d="M900.49 616.4l-.53-.76a41.61 41.61 0 0 1-6.64-4.5q-1.02-.9-1.8-1.63a2.53 2.53 0 0 0-.38.49l1.06.9a52.66 52.66 0 0 0 8.29 5.5z" data-name="Path 91661"/><path fill="#9fdff8" d="M901.27 617.68l-.37-.62a51 51 0 0 1-8.93-5.77l-1.03-.93a2.54 2.54 0 0 0-.17.6l.09.08a59 59 0 0 0 10.41 6.64z" data-name="Path 91662"/><path fill="#9fdff8" d="M899.26 614.77a20.88 20.88 0 0 0-6.83-4.95l1.11.94a45.08 45.08 0 0 0 5.72 4.01z" data-name="Path 91663"/><path fill="#9fdff8" d="M891.88 614.9c1.59 2.6 4.56 3.3 7.34 4.2 1.23 1.1 2.64 2.36 4 3.54-.16-.65-.37-1.32-.59-2a116.82 116.82 0 0 1-10.75-5.74z" data-name="Path 91664"/><path fill="#9fdff8" d="M902.34 619.73v-.01a93.31 93.31 0 0 1-11.12-6.28 6.96 6.96 0 0 0 .27.7 88.33 88.33 0 0 0 10.98 5.99l-.13-.4z" data-name="Path 91665"/><path fill="#9fdff8" d="M901.6 618.26c-3.72-1.91-8.22-4.45-10.79-6.69a10.26 10.26 0 0 0 .2 1.17 75.9 75.9 0 0 0 11.05 6.41l-.46-.9z" data-name="Path 91666"/><path fill="#cef4fe" stroke="rgba(0,0,0,0)" d="M891.88 614.9a7.39 7.39 0 0 1-.4-.76 88.75 88.75 0 0 0 10.98 5.98l.16.53a116.86 116.86 0 0 1-10.74-5.75zm-.67-1.46c-.07-.22-.14-.45-.2-.7a75.7 75.7 0 0 0 11.05 6.42l.28.56a92.06 92.06 0 0 1-11.13-6.28zm-.4-1.87l-.05-.4a1.47 1.47 0 0 1 0-.18.05.05 0 0 0 0-.03l.1.08a59.58 59.58 0 0 0 10.4 6.64l.33.58c-3.7-1.91-8.2-4.45-10.78-6.69zm1.17-.28l-1.03-.93a2.44 2.44 0 0 1 .19-.36l1.06.9a52.63 52.63 0 0 0 8.29 5.5l.42.66a50.9 50.9 0 0 1-8.93-5.77zm1.34-.14l-1.8-1.63c.03-.04.06-.08.1-.1l.81.4 1.11.94a44.67 44.67 0 0 0 5.72 4.01c.24.28.47.57.7.87a41.33 41.33 0 0 1-6.64-4.5z" data-name="Union 138"/><path fill="#ffe1c4" d="M889.72 610.76a5.31 5.31 0 0 0 .83-1.9l-.45-.25s-.5-.35-.63-.06c-.04.08.01.19.1.3-.13-.05-.3-.09-.38.07-.04.08.01.19.1.3-.13-.05-.3-.08-.38.08-.04.07.02.18.1.3-.13-.06-.3-.09-.38.07-.06.12.1.32.3.51a5.32 5.32 0 0 0 .58.45z" data-name="Path 88975"/><g data-name="Group 83984"><path fill="#2e8db1" d="M892.3 610.38l-.96 1.51c-.13.21-.38.8-.6.66l-1.16-1.22a.45.45 0 0 1-.15-.61l.95-1.52a.45.45 0 0 1 .62-.14l1.14.7a.45.45 0 0 1 .15.62z" data-name="Path 88967"/><path fill="#f6c44c" d="M891.03 610.36c-.33-.18-.52-.46-.43-.62s.43-.15.75.03.52.45.43.62-.43.15-.75-.03z" data-name="Path 91584"/></g><g stroke="rgba(0,0,0,0)" data-name="Group 87152"><path fill="#9fdff8" d="M923.94 627.51a41.55 41.55 0 0 0-6.12-5.16c-.16-.26-.3-.53-.45-.81a52.4 52.4 0 0 1 7.65 6.34l.97 1a2.51 2.51 0 0 1-.43.44q-.7-.8-1.62-1.8zm-5.53-4.22a44.55 44.55 0 0 1 5.27 4.59l1.02 1.06a20.96 20.96 0 0 1-6.29-5.65zm6.88 4.22a50.67 50.67 0 0 0-8.27-6.66l-.3-.66a58.53 58.53 0 0 1 9.65 7.69l.08.08a2.48 2.48 0 0 1-.24.58l-.92-1.03zm-8.83-7.93l-.37-.94a75.79 75.79 0 0 1 10.3 7.52 10.51 10.51 0 0 1 .08 1.19c-2.31-2.5-6.52-5.48-10.01-7.77zm-.58-1.53l-.08-.42a87.61 87.61 0 0 1 10.28 7.1 6.33 6.33 0 0 1 .2.72 92.88 92.88 0 0 0-10.4-7.4zm-.19-.95c-.14-.7-.29-1.38-.37-2.04 1.22 1.31 2.49 2.7 3.6 3.93 2.66 1.2 5.54 2.2 6.84 4.94a116.41 116.41 0 0 0-10.07-6.83z" data-name="Union 137"/><path fill="#cef4fe" d="M924.7 628.94l-1.02-1.06a44.59 44.59 0 0 0-5.26-4.6c-.21-.3-.42-.6-.6-.93a41.55 41.55 0 0 1 6.13 5.16l1.61 1.81-.1.1-.77-.48zm.33-1.06a52.56 52.56 0 0 0-7.66-6.34c-.12-.22-.24-.45-.35-.7a51.12 51.12 0 0 1 8.27 6.67l.93 1.03a3.14 3.14 0 0 1-.23.34l-.96-1zm1.34 0a58.74 58.74 0 0 0-9.65-7.7l-.26-.6c3.5 2.29 7.7 5.27 10.02 7.77v.4a1.23 1.23 0 0 1-.02.2v.01zm-10.27-9.24l-.22-.59a93.88 93.88 0 0 1 10.4 7.4c.04.23.09.46.12.71a75.14 75.14 0 0 0-10.3-7.52zm-.3-1l-.07-.35-.04-.19a116.73 116.73 0 0 1 10.07 6.83 6.98 6.98 0 0 1 .32.8 87.86 87.86 0 0 0-10.29-7.1z" data-name="Union 136"/></g><g data-name="Group 87153"><path fill="#a22722" d="M918.43 633.6c.98-1.12 1.5-2.24.47-2.85a4.43 4.43 0 0 0-.42-.21 22.4 22.4 0 0 1-.05 3.06z" data-name="Path 91683"/><path fill="#a22722" d="M912.91 630.2c.2.02.18 2.12-.05 4.69-.07.8-.15 1.56-.23 2.21h.81c.03-.67.08-1.45.15-2.27.23-2.58.57-4.65.77-4.63s.17 2.12-.05 4.69c-.07.8-.15 1.55-.24 2.2.37 0 .66 0 .82-.02v-.13a2.93 2.93 0 0 0-.33-.06l.35-.25c.03-.55.07-1.16.13-1.8.22-2.58.57-4.65.77-4.63s.17 2.12-.05 4.69l-.12 1.21.8-.63.05-.64c.22-2.58.57-4.65.77-4.63s.17 2.08-.05 4.61l.45-.4a25.56 25.56 0 0 1 .6-3.98 43.27 43.27 0 0 0-8.8-1.98 4 4 0 0 0-.2-.69 2.37 2.37 0 0 0-.28.62 43.47 43.47 0 0 0-5.35-.4 9.2 9.2 0 0 0-3.24.42c-1.7.72-.9 3.11.2 5.16.05-1.95.19-3.37.35-3.37.2 0 .36 2.05.36 4.6l.65 1 .08-.96c.22-2.57.57-4.64.76-4.63s.18 2.12-.05 4.7a60.9 60.9 0 0 1-.17 1.75l.1.13-.13.03c0 .1-.02.19-.03.28l.81.02c.03-.68.08-1.45.15-2.28.23-2.57.57-4.64.77-4.62s.17 2.11-.05 4.68c-.07.81-.15 1.57-.24 2.23h.82c.03-.67.08-1.45.15-2.3.22-2.56.57-4.64.76-4.62s.18 2.12-.05 4.69c-.07.81-.15 1.58-.24 2.24h.82c.03-.68.08-1.47.15-2.3.23-2.57.57-4.65.77-4.63s.18 2.12-.05 4.69a52.9 52.9 0 0 1-.21 2.02c.18-.29.52-.85.9-1.58l.04-.5c.22-2.57.57-4.64.76-4.63.16.02.18 1.38.06 3.26.14-.33.26-.68.38-1.03.09.52.2 1.04.33 1.53.22-2.15.5-3.77.68-3.76.2.02.18 2.12-.05 4.7l-.08.83a6.22 6.22 0 0 0 .66 1.33c.03-.66.08-1.42.15-2.23.22-2.57.57-4.64.76-4.63s.18 2.12-.05 4.7c-.07.8-.15 1.55-.23 2.2h.81c.03-.67.08-1.44.16-2.27.22-2.57.56-4.65.76-4.63z" data-name="Path 91684"/><path fill="#e8615d" d="M900.94 630.18c-.17 0-.3 1.43-.35 3.38.23.42.47.84.7 1.22 0-2.55-.15-4.6-.35-4.6z" data-name="Path 91685"/><path fill="#e8615d" d="M902.54 636.81c-.18.05-.5.15-.48.22a1.57 1.57 0 0 0 .45.05l.03-.27z" data-name="Path 91686"/><path fill="#e8615d" d="M902.8 630.2c-.2-.02-.55 2.05-.77 4.63l-.08.95c.27.4.5.7.62.86.06-.54.12-1.13.17-1.75.23-2.57.25-4.67.05-4.69z" data-name="Path 91687"/><path fill="#e8615d" d="M904.24 630.2c-.2-.02-.54 2.05-.77 4.63-.07.82-.12 1.6-.15 2.27l.63.01c.09-.66.17-1.41.24-2.22.22-2.57.24-4.67.05-4.69z" data-name="Path 91688"/><path fill="#e8615d" d="M905.68 630.2c-.2-.02-.53 2.05-.76 4.63-.07.83-.13 1.61-.15 2.3h.62c.09-.67.17-1.43.24-2.24.23-2.57.25-4.67.05-4.69z" data-name="Path 91689"/><path fill="#e8615d" d="M907.13 630.2c-.2-.02-.54 2.05-.77 4.63-.07.83-.12 1.62-.15 2.3h.52l.14-.22c.07-.61.15-1.3.2-2.02.23-2.57.26-4.67.06-4.69z" data-name="Path 91690"/><path fill="#e8615d" d="M908.58 630.2c-.2-.02-.54 2.05-.77 4.63l-.04.5c.28-.55.59-1.19.86-1.88.12-1.87.1-3.24-.05-3.25z" data-name="Path 91691"/><path fill="#e8615d" d="M910.02 630.2c-.17-.01-.46 1.6-.68 3.76a16.71 16.71 0 0 0 .55 1.77l.08-.84c.22-2.57.25-4.67.05-4.69z" data-name="Path 91692"/><path fill="#e8615d" d="M911.47 630.2c-.2-.02-.54 2.05-.77 4.63-.07.8-.12 1.57-.15 2.23l.05.07a3.7 3.7 0 0 1 .58-.03c.09-.65.17-1.4.24-2.21.22-2.57.24-4.67.05-4.69z" data-name="Path 91693"/><path fill="#e8615d" d="M912.63 637.1c.08-.66.16-1.4.23-2.21.23-2.57.25-4.67.05-4.69s-.54 2.05-.76 4.63c-.07.82-.12 1.6-.15 2.27h.63z" data-name="Path 91694"/><path fill="#e8615d" d="M914.36 630.2c-.2-.02-.54 2.05-.77 4.63-.07.82-.12 1.6-.15 2.27h.63c.09-.65.17-1.4.24-2.2.22-2.58.25-4.68.05-4.7z" data-name="Path 91695"/><path fill="#e8615d" d="M915.8 630.2c-.2-.02-.53 2.05-.76 4.63-.06.64-.1 1.25-.13 1.8l.73-.53.11-1.21c.23-2.57.25-4.67.05-4.69z" data-name="Path 91696"/><path fill="#e8615d" d="M915.04 637.05c.05-.04-.04-.08-.14-.1l-.01.12a.5.5 0 0 0 .15-.02z" data-name="Path 91697"/><path fill="#e8615d" d="M917.25 630.2c-.2-.02-.54 2.05-.76 4.63l-.06.64c.26-.2.52-.42.78-.66.21-2.53.24-4.6.04-4.6z" data-name="Path 91698"/><path fill="#e8615d" d="M918.43 633.6a22.4 22.4 0 0 0 .05-3.06 3.52 3.52 0 0 0-.23-.1 25.56 25.56 0 0 0-.6 3.96c.28-.26.54-.53.78-.8z" data-name="Path 91699"/></g><g data-name="Group 83980"><g data-name="Group 83961"><g data-name="Group 83944"><path fill="#fdba37" d="M894 617.2a.7.7 0 0 0 .51-.84l-.14-.61a.7.7 0 0 0-1.35.3l.14.62a.7.7 0 0 0 .83.52zm-.38-1.6a.32.32 0 0 1 .39.23l.14.62a.32.32 0 0 1-.62.14l-.15-.62a.32.32 0 0 1 .24-.38z" data-name="Path 88928"/></g><g data-name="Group 83945"><path fill="#fdba37" d="M893.66 615.04a.7.7 0 0 0 .55-.81l-.12-.62a.7.7 0 0 0-1.37.27l.13.61a.7.7 0 0 0 .81.55zm-.31-1.6a.32.32 0 0 1 .37.24l.12.62a.32.32 0 0 1-.25.37.32.32 0 0 1-.37-.25l-.13-.62a.32.32 0 0 1 .26-.37z" data-name="Path 88929"/></g><g data-name="Group 83946"><path fill="#fdba37" d="M893.3 612.89a.7.7 0 0 0 .5-.85l-.16-.61a.7.7 0 0 0-1.35.35l.16.61a.7.7 0 0 0 .86.5zm-.42-1.6a.32.32 0 0 1 .4.23l.16.61a.32.32 0 0 1-.62.17l-.16-.61a.32.32 0 0 1 .22-.4z" data-name="Path 88930"/></g><g data-name="Group 83947"><path fill="#fdba37" d="M892.88 610.72a.7.7 0 0 0 .32-.93l-.28-.56a.7.7 0 0 0-1.25.6l.28.56a.7.7 0 0 0 .93.33zm-.72-1.48a.32.32 0 0 1 .42.15l.28.57a.32.32 0 0 1-.15.42.32.32 0 0 1-.42-.15l-.28-.57a.32.32 0 0 1 .15-.42z" data-name="Path 88931"/></g><g data-name="Group 83953"><path fill="#f8e5a3" d="M893.4 615.59a.27.27 0 0 0 .28.25.27.27 0 0 0 .25-.28l-.05-.85a.27.27 0 0 0-.28-.26.27.27 0 0 0-.26.29z" data-name="Path 88936"/></g><g data-name="Group 83954"><path fill="#f8e5a3" d="M893.03 613.44a.27.27 0 0 0 .3.24.27.27 0 0 0 .24-.3l-.1-.85a.27.27 0 0 0-.3-.24.27.27 0 0 0-.24.3z" data-name="Path 88937"/></g><g data-name="Group 83955"><path fill="#f8e5a3" d="M892.63 611.3a.27.27 0 0 0 .33.2.27.27 0 0 0 .2-.33l-.2-.83a.27.27 0 0 0-.33-.2.27.27 0 0 0-.2.32z" data-name="Path 88938"/></g></g><g data-name="Group 83979"><g data-name="Group 83962"><path fill="#fdba37" d="M893.62 615.28a.7.7 0 0 0-.59.79l.1.62a.7.7 0 0 0 1.37-.2l-.09-.62a.7.7 0 0 0-.79-.59zm.24 1.63a.32.32 0 0 1-.36-.27l-.1-.63a.32.32 0 0 1 .64-.09l.09.63a.32.32 0 0 1-.27.36z" data-name="Path 88944"/></g><g data-name="Group 83963"><path fill="#fdba37" d="M893.78 617.45a.7.7 0 0 0-.62.77l.07.63a.7.7 0 0 0 1.39-.16l-.07-.63a.7.7 0 0 0-.77-.6zm.18 1.63a.32.32 0 0 1-.35-.28l-.07-.62a.32.32 0 0 1 .63-.08l.07.63a.32.32 0 0 1-.28.35z" data-name="Path 88945"/></g><g data-name="Group 83964"><path fill="#fdba37" d="M893.96 619.63a.7.7 0 0 0-.56.8l.11.62a.7.7 0 1 0 1.37-.25l-.11-.62a.7.7 0 0 0-.81-.55zm.3 1.61a.32.32 0 0 1-.37-.25l-.12-.62a.32.32 0 0 1 .26-.37.32.32 0 0 1 .37.25l.11.63a.32.32 0 0 1-.25.36z" data-name="Path 88946"/></g><g data-name="Group 83965"><path fill="#fdba37" d="M894.21 621.83a.7.7 0 0 0-.4.9l.24.58a.7.7 0 0 0 1.3-.5l-.24-.58a.7.7 0 0 0-.9-.4zm.6 1.52a.32.32 0 0 1-.41-.17l-.23-.6a.32.32 0 0 1 .18-.4.32.32 0 0 1 .41.17l.23.6a.32.32 0 0 1-.18.4z" data-name="Path 88947"/></g><g data-name="Group 83966"><path fill="#fdba37" d="M894.95 623.93a.7.7 0 0 0-.07.98l.42.47a.7.7 0 0 0 .98.06.7.7 0 0 0 .07-.97l-.42-.48a.7.7 0 0 0-.98-.06zm1.09 1.23a.32.32 0 0 1-.45-.02l-.42-.48a.32.32 0 0 1 .02-.45.32.32 0 0 1 .45.03l.42.48a.32.32 0 0 1-.02.44z" data-name="Path 88948"/></g><g data-name="Group 83967"><path fill="#fdba37" d="M896.31 625.67a.7.7 0 0 0 .25.95l.55.32a.7.7 0 1 0 .7-1.2l-.54-.31a.7.7 0 0 0-.96.24zm1.43.83a.32.32 0 0 1-.44.12l-.55-.32a.32.32 0 0 1-.11-.43.32.32 0 0 1 .43-.12l.55.32a.32.32 0 0 1 .12.43z" data-name="Path 88949"/></g><g data-name="Group 83969"><g data-name="Group 83968"><path fill="#fdba37" d="M898.2 627.03a.7.7 0 0 0 .67.71l.63.03a.7.7 0 1 0 .06-1.38l-.63-.03a.7.7 0 0 0-.73.67zm1.65.06a.32.32 0 0 1-.33.3l-.64-.02a.32.32 0 0 1 .03-.64l.63.03a.32.32 0 0 1 .31.33z" data-name="Path 88950"/></g></g><g data-name="Group 83970"><path fill="#fdba37" d="M900.4 627.21a.7.7 0 0 0 .76.62l.63-.06a.7.7 0 0 0-.14-1.38l-.63.06a.7.7 0 0 0-.62.76zm1.64-.16a.32.32 0 0 1-.28.34l-.64.07a.32.32 0 0 1-.06-.63l.63-.07a.32.32 0 0 1 .35.29z" data-name="Path 88951"/></g><g data-name="Group 83971"><path fill="#fde49b" d="M894.09 616.93a.27.27 0 0 0-.26-.28.27.27 0 0 0-.28.27l-.02.85a.27.27 0 0 0 .26.27.27.27 0 0 0 .28-.26z" data-name="Path 88952"/></g><g data-name="Group 83972"><path fill="#fde49b" d="M894.27 619.1a.27.27 0 0 0-.27-.26.27.27 0 0 0-.26.28l.03.85a.27.27 0 0 0 .27.26.27.27 0 0 0 .26-.28z" data-name="Path 88953"/></g><g data-name="Group 83973"><path fill="#fde49b" d="M894.5 621.27a.27.27 0 0 0-.3-.22.27.27 0 0 0-.23.3l.13.84a.27.27 0 0 0 .3.23.27.27 0 0 0 .23-.3z" data-name="Path 88954"/></g><g data-name="Group 83974"><path fill="#fde49b" d="M895.1 623.26a.27.27 0 0 0-.37-.12.27.27 0 0 0-.12.37l.4.76a.27.27 0 0 0 .36.12.27.27 0 0 0 .11-.36z" data-name="Path 88955"/></g><g data-name="Group 83975"><path fill="#fde49b" d="M896.26 625a.27.27 0 0 0-.38-.02.27.27 0 0 0-.03.38l.57.64a.27.27 0 0 0 .38.03.27.27 0 0 0 .02-.38z" data-name="Path 88956"/></g><g data-name="Group 83976"><path fill="#fde49b" d="M897.9 626.29a.27.27 0 0 0-.37.1.27.27 0 0 0 .1.36l.74.44a.27.27 0 0 0 .37-.1.27.27 0 0 0-.1-.37z" data-name="Path 88957"/></g><g data-name="Group 83977"><path fill="#fde49b" d="M899.88 626.87a.27.27 0 0 0-.26.28.27.27 0 0 0 .28.26l.86-.03a.27.27 0 0 0 .26-.28.27.27 0 0 0-.28-.26z" data-name="Path 88958"/></g><g data-name="Group 83978"><path fill="#fde49b" d="M902.02 626.79a.27.27 0 0 0-.22.3.27.27 0 0 0 .31.23l.85-.15a.27.27 0 0 0 .22-.31.27.27 0 0 0-.31-.22z" data-name="Path 88959"/></g></g></g><path fill="#ffb03a" d="M899.53 632.19c1.74-.2 14.37-1.16 19.89 0-.52-.3-.15.26-.08.15 0 0 .47-.45.45-.45.9-.9-1.56-10.25-1.55-12.95-2.03 3-5.74 4.01-9.58 4.01a28.54 28.54 0 0 1-7.53-1.1c.33 2.08-2.32 6-2.12 7.92a5.05 5.05 0 0 0 .52 2.42z" data-name="Path 91700"/><path fill="#ffc641" d="M919.14 631.82c-.95-.25-4.41-1.06-4.79-1.14a8.09 8.09 0 0 0-2.48-.3c-1.24 0-2.6.13-4.06.28s-2.97.3-4.33.3c-2.05 0-3.4-.34-4.24-1.1-.16-.84.43-2.3 1-3.7a11.57 11.57 0 0 0 1.14-4.01 28.52 28.52 0 0 0 7.28 1.02c4.26 0 7.49-1.23 9.37-3.58.07 1.12.3 2.72.53 4.38.44 3.05.92 6.48.58 7.85z" data-name="Path 91701"/><path fill="#fff" d="M910 630.66l-.45-.07a28.43 28.43 0 0 0-.37-7.69l.44-.08a28.16 28.16 0 0 1 .37 7.84z" data-name="Path 91702"/><path fill="#fff" d="M910.29 627.28a32.6 32.6 0 0 1-6.54-.82c-.6-.12-1.18-.24-1.75-.34l.07-.44 1.77.33c3.62.72 7.72 1.54 12.92-.32l.15.42a19.3 19.3 0 0 1-6.62 1.17z" data-name="Path 91703"/><path fill="#fc3b48" d="M906.93 624a.66.66 0 0 1 .6-.4.7.7 0 0 1 .66.68.68.68 0 0 1-.02.25 1.14 1.14 0 0 1-.35.58l-.89.8-.88-.8a1.14 1.14 0 0 1-.35-.57.68.68 0 0 1-.02-.26.7.7 0 0 1 .66-.69.64.64 0 0 1 .6.41z"/><path fill="#545454" d="M905.53 621.23a16.9 16.9 0 0 1-.93-.36l.01.39a5.12 5.12 0 0 1-.15 1.33q.56.1 1.14.16a5.88 5.88 0 0 1-.1-1.05l.03-.47z" data-name="Path 91704"/><path fill="#545454" d="M909.55 622.15v-.2q-.45 0-.9-.04v.24a4.26 4.26 0 0 1-.07.8l1.04-.02a4.32 4.32 0 0 1-.07-.78z" data-name="Path 91705"/><path fill="#545454" d="M910.84 622.83q.52-.06 1.02-.15a6.1 6.1 0 0 1-.07-.91l-.22.04-.69.09.01.24a4.41 4.41 0 0 1-.05.69z" data-name="Path 91706"/><path fill="#545454" d="M914.47 621.93a9.97 9.97 0 0 0 .91-.43 5.3 5.3 0 0 1 .11-.99c-.34.18-.69.34-1.05.48a6.56 6.56 0 0 1 .04.71v.23z" data-name="Path 91707"/><path fill="#545454" d="M912.63 622.52q.5-.12.98-.27a6.76 6.76 0 0 1-.01-.95q-.46.15-.92.27v.13a6.33 6.33 0 0 1-.04.82z" data-name="Path 91708"/><path fill="#545454" d="M916.73 620.59v-.23c0-.2 0-.39.02-.57q-.33.22-.68.41a3.22 3.22 0 0 1 .16.76l.5-.37z" data-name="Path 91709"/><path fill="#545454" d="M918.24 618.94l-.01-.3-.02-.16-.1.06-.16.08-.13.43-.3.22a4.73 4.73 0 0 1 .07.5 7.7 7.7 0 0 0 .65-.83z" data-name="Path 91710"/><path fill="#545454" d="M903.76 620.47q-.5-.25-1-.53a6.28 6.28 0 0 1 .06.86 4.83 4.83 0 0 1-.18 1.43l1.2.25a5.47 5.47 0 0 1-.12-1.23 6.48 6.48 0 0 1 .04-.78z" data-name="Path 91711"/><path fill="#545454" d="M907.33 621.72q-.47-.1-.93-.22v.2a5.7 5.7 0 0 1-.1 1.13q.53.05 1.07.08a4.3 4.3 0 0 1-.07-.77l.03-.42z" data-name="Path 91712"/><path fill="#545454" d="M902.06 619.52q-.63-.41-1.23-.88a17.93 17.93 0 0 0 .3 3.21c.3.09.61.17.93.24a6.02 6.02 0 0 1 0-2.57z" data-name="Path 91713"/><path fill="#b5b6b8" d="M902.76 619.94l-.7-.42a6.02 6.02 0 0 0 0 2.57l.58.14a4.83 4.83 0 0 0 .18-1.42 6.33 6.33 0 0 0-.06-.87z" data-name="Path 91714"/><path fill="#b5b6b8" d="M904.6 620.87c-.28-.12-.56-.26-.84-.4a6.4 6.4 0 0 0-.04.78 5.47 5.47 0 0 0 .12 1.23l.62.11a5.12 5.12 0 0 0 .15-1.34v-.38z" data-name="Path 91715"/><path fill="#b5b6b8" d="M906.4 621.5l-.44-.12c-.14-.04-.29-.1-.43-.16l-.02.48a5.92 5.92 0 0 0 .09 1.05l.7.08a5.7 5.7 0 0 0 .1-1.13v-.2z" data-name="Path 91716"/><path fill="#b5b6b8" d="M912.63 622.52a6.28 6.28 0 0 0 .06-.82v-.13l-.9.2a6.1 6.1 0 0 0 .08.9q.38-.06.76-.15z" data-name="Path 91717"/><path fill="#b5b6b8" d="M913.6 622.25c.3-.1.6-.2.88-.32v-.23a6.56 6.56 0 0 0-.03-.7l-.85.3a7.28 7.28 0 0 0 0 .95z" data-name="Path 91718"/><path fill="#b5b6b8" d="M916.24 620.96a3.22 3.22 0 0 0-.17-.76l-.58.31a5.26 5.26 0 0 0-.1.98 8.73 8.73 0 0 0 .85-.53z" data-name="Path 91719"/><path fill="#b5b6b8" d="M916.73 620.59a7.79 7.79 0 0 0 .86-.83 4.76 4.76 0 0 0-.07-.5l-.14.1-.09.06c-.17.13-.35.25-.54.37-.01.18-.03.36-.03.56l.01.24z" data-name="Path 91720"/><path fill="#b5b6b8" d="M908.65 621.91c-.2-.02-.4-.03-.59-.06-.25-.03-.49-.08-.73-.13a4.5 4.5 0 0 0-.02.42 4.3 4.3 0 0 0 .07.77l1.2.04a4.27 4.27 0 0 0 .07-.8v-.24z" data-name="Path 91721"/><path fill="#b5b6b8" d="M909.62 622.93q.62-.03 1.22-.1a4.4 4.4 0 0 0 .05-.69v-.24a11.83 11.83 0 0 1-1.33.05l-.01.2a4.3 4.3 0 0 0 .07.78z" data-name="Path 91722"/><path fill="#fc3b48" d="M914.2 623.68a.8.8 0 0 1 .85-.24.84.84 0 0 1 .5 1.02.8.8 0 0 1-.12.29 1.37 1.37 0 0 1-.62.53l-1.32.58-.72-1.24a1.36 1.36 0 0 1-.18-.79.8.8 0 0 1 .07-.3.84.84 0 0 1 1.02-.54.77.77 0 0 1 .52.69zM913.1 628.18a.8.8 0 0 1 .47-.74.84.84 0 0 1 1.06.42.8.8 0 0 1 .1.3 1.36 1.36 0 0 1-.1.8l-.59 1.32-1.36-.45a1.38 1.38 0 0 1-.67-.46.81.81 0 0 1-.15-.28.84.84 0 0 1 .39-1.07.78.78 0 0 1 .86.16zM905.74 627.66a.8.8 0 0 1 .66-.57.84.84 0 0 1 .9.71.82.82 0 0 1 0 .32 1.37 1.37 0 0 1-.32.74l-.96 1.08-1.17-.82a1.37 1.37 0 0 1-.5-.64.8.8 0 0 1-.07-.3.84.84 0 0 1 .7-.91.77.77 0 0 1 .76.4zM908.11 629.2a.3.3 0 0 1 .25-.2.31.31 0 0 1 .33.26.3.3 0 0 1 0 .12.51.51 0 0 1-.12.27l-.36.4-.44-.3a.52.52 0 0 1-.18-.24.3.3 0 0 1-.03-.12.31.31 0 0 1 .26-.34.29.29 0 0 1 .3.16zM911.94 625.28a.4.4 0 0 1 .42-.12.41.41 0 0 1 .25.5.4.4 0 0 1-.06.14.68.68 0 0 1-.3.26l-.65.28-.35-.6a.68.68 0 0 1-.1-.4.4.4 0 0 1 .04-.15.41.41 0 0 1 .5-.26.38.38 0 0 1 .25.35z"/><path fill="#2e8db1" d="M924.88 628.38l1.1-1.4c.15-.2.47-.75.66-.6l1.03 1.34a.45.45 0 0 1 .08.63l-1.1 1.4a.45.45 0 0 1-.63.08l-1.06-.82a.44.44 0 0 1-.08-.63z" data-name="Path 88967-2"/><path fill="#f6c44c" d="M926.13 628.54c.3.21.47.5.36.66s-.44.1-.74-.11-.47-.51-.36-.66.44-.1.74.1z" data-name="Path 91588"/><g data-name="Group 83896"><path fill="#fde49b" d="M871.66 600.47a12.67 12.67 0 1 0 12.74-12.6h-.07a12.63 12.63 0 0 0-12.67 12.6z" data-name="Path 88786"/></g><g data-name="Group 83828"><path fill="#fdba37" d="M870.76 599.57a12.67 12.67 0 1 0 12.74-12.6h-.07a12.63 12.63 0 0 0-12.66 12.6z" data-name="Path 88786-2"/></g><g data-name="Group 83829"><path fill="#fbd180" d="M872.1 599.57a11.33 11.33 0 1 0 11.39-11.26h-.06a11.3 11.3 0 0 0-11.33 11.26z" data-name="Path 88787"/><path fill="#fde4a2" d="M875.7 599.57a7.73 7.73 0 1 0 7.76-7.7h-.03a7.71 7.71 0 0 0-7.74 7.7z" data-name="Path 88867"/></g><g data-name="Group 83838"><path fill="#363432" d="M882.34 599.54a1.06 1.06 0 1 0 1.06-1.05 1.05 1.05 0 0 0-1.06 1.04z" data-name="Path 88794"/></g><path fill="#242424" d="M883.13 590.02h-.44v-.03l.06-.02a.04.04 0 0 0 .02 0 .02.02 0 0 0 0-.02.08.08 0 0 0 0-.04l-.03-.04-.14-.23-.13.2-.04.06a.1.1 0 0 0-.01.05.03.03 0 0 0 0 .01.04.04 0 0 0 .01.01l.06.02v.03h-.31v-.03l.07-.02a.1.1 0 0 0 .05-.03.22.22 0 0 0 .03-.04l.22-.33-.22-.35a.23.23 0 0 0-.04-.05.09.09 0 0 0-.04-.02l-.07-.02v-.03h.44v.03l-.06.02a.04.04 0 0 0-.02 0 .02.02 0 0 0 0 .02.08.08 0 0 0 0 .04l.03.05.12.17.1-.15a.59.59 0 0 0 .03-.06.1.1 0 0 0 .02-.04c0-.02-.01-.02-.03-.03l-.06-.02v-.03h.32v.03l-.08.02a.1.1 0 0 0-.04.03.46.46 0 0 0-.04.05l-.19.27.25.4a.31.31 0 0 0 .05.05.09.09 0 0 0 .03.02l.07.02zm.34-.2v.12c0 .01 0 .02.02.03l.08.02v.03h-.4V590l.08-.02a.02.02 0 0 0 .02-.02v-.77a.02.02 0 0 0-.01-.02l-.1-.02v-.04H883.58v.04l-.09.02a.02.02 0 0 0-.02.02v.11zm.53 0v.12c0 .01 0 .02.02.03l.08.02v.03h-.4V590l.09-.02a.02.02 0 0 0 .02-.02v-.76a.02.02 0 0 0-.02-.02l-.09-.03v-.03h.4v.03l-.09.02a.02.02 0 0 0-.02.02v.11z" data-name="Path 91646"/><path fill="#242424" d="M888.38 591.6v.13c0 .01 0 .02.02.02l.08.03v.03h-.4v-.03l.1-.03a.02.02 0 0 0 .01-.02v-.76a.02.02 0 0 0-.02-.02l-.09-.03v-.03h.4v.03l-.08.03a.02.02 0 0 0-.02.02v.63z" data-name="Path 91647"/><path fill="#242424" d="M888.05 607.54l.03.08.02-.08.16-.42.02-.06a.12.12 0 0 0 0-.03.02.02 0 0 0 0-.02.04.04 0 0 0-.02 0l-.06-.03v-.03h.3v.03l-.08.02a.07.07 0 0 0-.03.03.3.3 0 0 0-.03.05l-.32.8h-.07l-.28-.8a.22.22 0 0 0-.03-.05.08.08 0 0 0-.04-.03l-.06-.02v-.03H887.97v.03l-.07.02a.04.04 0 0 0-.02.01.02.02 0 0 0 0 .02.11.11 0 0 0 0 .03l.02.06z" data-name="Path 91639"/><path fill="#242424" d="M877.74 607.54l.02.08.02-.08.16-.42.02-.06a.12.12 0 0 0 0-.03.02.02 0 0 0 0-.02.04.04 0 0 0-.02 0l-.06-.03v-.03H878.18v.03l-.07.02a.07.07 0 0 0-.04.03.31.31 0 0 0-.02.05l-.33.8h-.07l-.28-.8a.22.22 0 0 0-.03-.05.08.08 0 0 0-.04-.03l-.06-.02v-.03H877.65v.03l-.07.02a.04.04 0 0 0-.01.01.02.02 0 0 0-.01.02.11.11 0 0 0 0 .03l.02.06zm.77.13v.13l.02.02.08.02v.03h-.4v-.03l.09-.02a.02.02 0 0 0 .02-.02v-.76a.02.02 0 0 0-.02-.03l-.09-.02v-.04h.4v.04l-.08.02a.02.02 0 0 0-.02.02v.11zm.52 0v.13l.02.02.08.02v.03h-.4v-.03l.1-.02a.02.02 0 0 0 .01-.02v-.77a.02.02 0 0 0-.01-.02l-.1-.02v-.04h.4v.04l-.08.02a.02.02 0 0 0-.02.02v.64z" data-name="Path 91641"/><path fill="#242424" d="M878.64 591.8h-.43v-.03h.06a.04.04 0 0 0 .02-.02.02.02 0 0 0 0-.02.08.08 0 0 0 0-.03l-.03-.05-.15-.22-.13.2-.03.06a.1.1 0 0 0-.02.04.03.03 0 0 0 0 .02.03.03 0 0 0 .02 0l.06.02v.03h-.32v-.03l.08-.02a.1.1 0 0 0 .04-.02.22.22 0 0 0 .04-.04l.22-.33-.23-.36a.24.24 0 0 0-.04-.05.09.09 0 0 0-.03-.02l-.07-.01v-.04h.43v.04l-.05.01a.04.04 0 0 0-.02.01.02.02 0 0 0 0 .02.08.08 0 0 0 0 .04l.03.04.11.18.1-.16a.61.61 0 0 0 .04-.05.1.1 0 0 0 .02-.05l-.03-.03-.06-.01v-.03h.31v.04l-.07.02a.1.1 0 0 0-.04.02.45.45 0 0 0-.04.06l-.19.27.25.4a.31.31 0 0 0 .04.05.09.09 0 0 0 .04.02l.07.01zm.34-.2v.13c0 .01.01.02.03.02l.08.03v.03h-.41v-.03l.09-.03a.02.02 0 0 0 .02-.02v-.76a.02.02 0 0 0-.02-.02l-.09-.03v-.03h.4v.03l-.08.02a.02.02 0 0 0-.02.02v.11z" data-name="Path 91645"/><path fill="#242424" d="M891.52 595.17v.13c0 .01 0 .02.02.02l.08.03v.03h-.4v-.03l.1-.03a.02.02 0 0 0 0-.02v-.76a.02.02 0 0 0 0-.02l-.1-.03v-.03h.4v.03l-.09.03a.02.02 0 0 0-.01.02v.63zm.52 0v.13c0 .01.01.02.03.02l.08.03v.03h-.4v-.03l.09-.03a.02.02 0 0 0 .02-.02v-.76a.02.02 0 0 0-.02-.02l-.1-.03v-.03H892.16v.03l-.09.03a.02.02 0 0 0-.01.02v.63z" data-name="Path 91648"/><path fill="#242424" d="M890.62 604.1v.13l.02.02.08.02v.03h-.4v-.03l.1-.02a.02.02 0 0 0 .01-.02v-.76a.02.02 0 0 0-.01-.03l-.1-.02v-.04H890.74v.04l-.09.02a.02.02 0 0 0-.02.02v.64zm.53 0v.13l.02.02.08.02v.03h-.4v-.03l.09-.02a.02.02 0 0 0 .02-.02v-.76a.02.02 0 0 0-.02-.03l-.09-.02v-.04h.4v.04l-.08.02a.02.02 0 0 0-.02.02v.64zm.52 0v.13l.02.02.09.02v.03h-.4v-.03l.09-.02a.02.02 0 0 0 .01-.02v-.76a.02.02 0 0 0-.01-.03l-.1-.02v-.04H891.79v.04l-.09.02a.02.02 0 0 0-.01.02v.64zm.53 0v.13l.02.02.08.02v.03h-.4v-.03l.1-.02a.02.02 0 0 0 .01-.02v-.76a.02.02 0 0 0-.02-.03l-.09-.02v-.04h.4v.04l-.09.02a.02.02 0 0 0-.01.02v.64z" data-name="Path 91638"/><path fill="#242424" d="M873.7 603.97l.02.08c0-.03.02-.05.03-.08l.15-.42.03-.06a.12.12 0 0 0 0-.03.02.02 0 0 0 0-.02.05.05 0 0 0-.02 0l-.07-.03v-.03H874.14v.03l-.07.02a.07.07 0 0 0-.04.03.3.3 0 0 0-.02.05l-.32.8h-.07l-.29-.8a.22.22 0 0 0-.03-.05.08.08 0 0 0-.03-.03l-.07-.02v-.03H873.61v.03l-.06.02a.04.04 0 0 0-.02.01.02.02 0 0 0 0 .02.12.12 0 0 0 0 .03l.01.06zm.77.13v.13l.02.02.08.02v.03h-.4v-.03l.1-.02a.02.02 0 0 0 0-.02v-.76a.02.02 0 0 0 0-.03l-.1-.02v-.04h.4v.04l-.08.02a.02.02 0 0 0-.02.02v.11zm.52 0v.13l.03.02.08.02v.03h-.4v-.03l.09-.02a.02.02 0 0 0 .02-.02v-.77a.02.02 0 0 0-.02-.02l-.1-.03v-.03h.4v.04l-.08.02a.02.02 0 0 0-.02.02v.64zm.53 0v.13l.02.02.08.02v.03h-.4v-.03l.1-.02a.02.02 0 0 0 .01-.02v-.76a.02.02 0 0 0-.02-.03l-.09-.02v-.04H875.63v.04l-.09.02a.02.02 0 0 0-.02.02v.64z" data-name="Path 91642"/><path fill="#242424" d="M875.05 595.38h-.43v-.04l.06-.01a.04.04 0 0 0 .02-.01.02.02 0 0 0 0-.02.08.08 0 0 0 0-.03l-.03-.05-.15-.22-.13.2-.03.06a.1.1 0 0 0-.02.04.03.03 0 0 0 0 .02.03.03 0 0 0 .02 0l.06.02v.03h-.32v-.03l.08-.02a.1.1 0 0 0 .04-.02.22.22 0 0 0 .04-.05l.22-.32-.23-.36a.24.24 0 0 0-.03-.05.09.09 0 0 0-.04-.02l-.07-.01v-.04h.44v.04l-.06.01a.04.04 0 0 0-.02.01.02.02 0 0 0 0 .02.08.08 0 0 0 0 .04l.03.04.11.18.1-.16a.6.6 0 0 0 .04-.05.1.1 0 0 0 .01-.05c0-.01 0-.02-.02-.02l-.06-.02v-.04h.31v.04l-.07.02a.1.1 0 0 0-.04.02.45.45 0 0 0-.05.06l-.18.27.25.4a.31.31 0 0 0 .04.05.09.09 0 0 0 .04.02l.07.01z" data-name="Path 91644"/><path fill="#242424" d="M892.52 599.63v.13l.02.02.09.03v.03h-.41v-.03l.09-.03a.02.02 0 0 0 .02-.02V599a.02.02 0 0 0-.02-.02l-.09-.03v-.03h.4v.03l-.08.03a.02.02 0 0 0-.02.02v.1zm.53 0v.13c0 .01 0 .02.02.02l.08.03v.03h-.4v-.03l.08-.03a.02.02 0 0 0 .02-.02V599a.02.02 0 0 0-.01-.02l-.1-.03v-.03h.4v.03l-.08.03a.02.02 0 0 0-.02.02v.63zm.52 0v.13c0 .01.01.02.03.02l.08.03v.03h-.4v-.03l.09-.02a.02.02 0 0 0 .02-.02V599a.02.02 0 0 0-.02-.02l-.09-.03v-.03h.4v.03l-.09.03a.02.02 0 0 0-.02.02v.63z" data-name="Path 91649"/><path fill="#242424" d="M873.3 599.63v.13c0 .01 0 .02.02.02l.08.03v.03h-.4v-.03l.09-.03a.02.02 0 0 0 .01-.02V599a.02.02 0 0 0-.01-.02l-.1-.03v-.03H873.4v.03l-.09.03a.02.02 0 0 0-.01.02v.63zm1.1.2h-.43v-.02l.06-.02a.04.04 0 0 0 .02 0 .02.02 0 0 0 0-.02.08.08 0 0 0 0-.04l-.03-.05-.14-.22-.13.2-.04.06a.1.1 0 0 0-.02.04.03.03 0 0 0 0 .02.03.03 0 0 0 .02 0l.06.02v.04h-.31v-.03l.07-.02a.1.1 0 0 0 .04-.03.21.21 0 0 0 .04-.04l.22-.33-.23-.36a.24.24 0 0 0-.03-.04.09.09 0 0 0-.04-.02l-.07-.02v-.03h.44v.03l-.06.02a.04.04 0 0 0-.02 0 .02.02 0 0 0 0 .02.08.08 0 0 0 0 .04l.03.04.11.18.1-.16a.6.6 0 0 0 .04-.05.1.1 0 0 0 .02-.05c0-.01-.01-.02-.03-.02l-.06-.02v-.03h.32v.03l-.08.02a.1.1 0 0 0-.04.03.46.46 0 0 0-.04.05l-.19.27.25.4a.3.3 0 0 0 .05.05.09.09 0 0 0 .03.02l.07.02z" data-name="Path 91643"/><path fill="#242424" d="M883.3 609.33l.03.07.02-.07.16-.42.02-.06a.11.11 0 0 0 0-.03.02.02 0 0 0 0-.02.05.05 0 0 0-.02-.01l-.06-.02v-.03H883.75v.03l-.07.02a.07.07 0 0 0-.04.02.3.3 0 0 0-.02.06l-.33.79h-.07l-.28-.79a.23.23 0 0 0-.03-.06.08.08 0 0 0-.04-.02l-.06-.02v-.03H883.22v.03l-.06.02a.05.05 0 0 0-.02 0 .03.03 0 0 0 0 .03.13.13 0 0 0 0 .03l.02.06zm.78.12v.13c0 .01 0 .02.02.02l.08.03v.03h-.4v-.03l.08-.02a.02.02 0 0 0 .02-.02v-.77a.02.02 0 0 0-.01-.02l-.1-.03v-.03H884.19v.03l-.09.03a.02.02 0 0 0-.02.02v.63z" data-name="Path 91640"/><path fill="#8d1d12" d="M890.2 599.56l-.8-.57v.44h-5.76v-7.5h.46l-.58-.8-.57.8h.47v7.5h-.07l-.06-.07-4.2 4.17-.4-.41-.22 1.34 1.35-.22-.34-.33 3.94-3.92v.02h.22v-.22h5.77v.35z" data-name="Path 91723"/><g data-name="Group 83839"><path fill="#544f49" d="M882.86 599.54a.53.53 0 1 0 .54-.53.53.53 0 0 0-.54.53z" data-name="Path 88795"/></g><path fill="#f6ca9e" d="M921.95 607.04a4.9 4.9 0 0 1-1.73.3c-4.33.02-11.59-4.31-11.59-4.31a33 33 0 0 1 2.08-1.03 7.1 7.1 0 0 1-3.36.12 17.55 17.55 0 0 1-3.39-1.08c.06-.11 1.55-1.64 1.55-1.64a7.43 7.43 0 0 0-6 .94l-.03.03-.38.53c1.3-.44 2.57-1.15 3.99-.85-.41.62-.58 1.32-1.24 1.73 1.96.58 3.98 1.62 6.02 1.09-.27.2-.3.6-.57.8.61.29 1.31.34 1.92.64 3.55 2 7.24 4.21 11.32 3.68a6.75 6.75 0 0 0-1.56 2.74c-.91 2.62-1 5.44-1.57 8.16l-.12.54.1-.06.43-.32.13-.43a21.98 21.98 0 0 0 .56-2.57c1.66.52 2.38-2.45.34-2.26.39-2.46.93-4.75 3.1-6.75z" data-name="Path 88714"/><path fill="#ffe4c9" d="M909.22 604.3c-.6-.29-1.31-.34-1.92-.64.28-.2.3-.6.57-.8-2.04.53-4.06-.5-6.03-1.08.67-.4.83-1.11 1.24-1.73-1.4-.3-2.68.41-3.98.85a17.73 17.73 0 0 0-3.2 7.98 9.86 9.86 0 0 0 .4 3.97l.18.52a11.05 11.05 0 0 0 3.26 4.4c.36.31.73.6 1.09.87a16.98 16.98 0 0 0 5.13 2.74 12.81 12.81 0 0 0 2.09.47 11.9 11.9 0 0 0 3.51-.04 13.95 13.95 0 0 0 5.73-2.39l.12-.54c.56-2.72.66-5.54 1.57-8.16a6.75 6.75 0 0 1 1.55-2.74c-4.07.54-7.76-1.68-11.31-3.68z" data-name="Path 88715"/><g fill="#fda98e" data-name="Group 83764"><path d="M910.93 614.48c-.2.3-1.18.02-2.21-.61s-1.71-1.4-1.53-1.7 1.18-.03 2.21.6 1.7 1.4 1.53 1.7z" data-name="Path 88717"/><path d="M901.8 608.63c-.2.3-1.17-.03-2.17-.72s-1.64-1.48-1.43-1.77 1.17.03 2.17.72 1.64 1.48 1.44 1.77z" data-name="Path 88718"/></g><path fill="#333" d="M902.74 604.76c-.26.6-.73.97-1.05.83s-.36-.74-.1-1.33.74-.97 1.06-.83.36.74.1 1.33z" data-name="Path 88719"/><path fill="#423024" d="M924.22 599.82c-.13-5.13-9.67-10.56-15.89-8.25-6.33 1.83-8.42 7.14-9.32 9.16a5.76 5.76 0 0 1 .5-.4 7.43 7.43 0 0 1 6-.93 6.1 6.1 0 0 0-1.7 1.71 17.61 17.61 0 0 0 3.54 1 7.1 7.1 0 0 0 3.36-.11c-.64.3-1.67.78-2.08 1.02 0 0 7.26 4.34 11.6 4.31a4.9 4.9 0 0 0 1.72-.3c-2.16 2-2.71 4.3-3.1 6.76 2.04-.19 1.32 2.78-.34 2.25a20.66 20.66 0 0 1-.69 3c-.1.32-.2.63-.33.94 5.92-3.51 14.39-14.93 6.73-20.16z" data-name="Path 88716"/><path fill="#333" d="M912.38 610.48c-.26.6-.73.96-1.05.82s-.36-.73-.1-1.33.74-.96 1.06-.82.36.73.1 1.33z" data-name="Path 88720"/><path fill="#fff" d="M911.14 618.25s-11.75-8.34-12.93-5.68a4.46 4.46 0 0 0 1.1 3.47 5.78 5.78 0 0 1 5.12.28 6.54 6.54 0 0 1 3.14 3 14.32 14.32 0 0 0 3.57-1.07z" data-name="Path 88721"/><path fill="#ff777c" d="M899.35 615.98a10.18 10.18 0 0 0 3.8 2.85 7.94 7.94 0 0 0 4.46.4 6.53 6.53 0 0 0-3.16-2.94c-1.92-.93-3.92-1-5.1-.31z" data-name="Path 88722"/><path fill="#f3b4a5" d="M923.08 595.64s5.4-3.25 9.36-3.22c1.96.01 5.11 5.16 5.59 10.2.48 5.14-.21 10-4.14 8.3-4.24-1.96-2.61-11.43-2.61-11.43l-4.97.92a25.65 25.65 0 0 0-3.23-4.76z" data-name="Path 88824"/><path fill="#c39084" d="M924.57 597.57a25.12 25.12 0 0 1 1.74 2.85l4.93-.93a14.77 14.77 0 0 1 1.13-4.25c-1.77-.17-5.16.97-7.8 2.33z" data-name="Path 88825"/><path fill="#f3b4a5" d="M917.53 591.75s.87-6.21-.71-9.82c-.8-1.79-6.78-2.64-11.63-1.08-4.94 1.59-9.16 4.14-6.05 7.06 3.5 3.1 11.6-2.12 11.6-2.12l1.11 4.9a25.92 25.92 0 0 1 5.68 1.06z" data-name="Path 88826"/><path fill="#c39084" d="M915.17 591.15a25.39 25.39 0 0 0-3.32-.46l-1.09-4.88a14.89 14.89 0 0 0 3.48-2.71c.86 1.55 1.14 5.1.93 8.05z" data-name="Path 88827"/><path fill="#fec9c3" d="M922.5 616.75a14.73 14.73 0 0 0-.28-9.32c-.48-2.82-2.36-5.24-5.57-7.2a16.55 16.55 0 0 0-18.08-.58 13.2 13.2 0 0 1 3.15-4.94 15.81 15.81 0 0 1 10.5-4.2c.28 0 .56 0 .84.03a15.6 15.6 0 0 1 3.59.65 15.86 15.86 0 0 1 3.48 1.56 17.43 17.43 0 0 1 5.93 5.99 13.06 13.06 0 0 1 1.89 6.04 14.78 14.78 0 0 1-1.44 7.12 12.1 12.1 0 0 1-4.01 4.85z" data-name="Subtraction 4"/><path fill="#c88286" d="M922.9 598.25c.45.4.7.86.54 1.04s-.65 0-1.1-.39-.7-.85-.55-1.03.65-.01 1.1.38z" data-name="Path 91585"/><path fill="#c88286" d="M915.95 594.3c-.09.22-.61.22-1.17 0s-.94-.58-.85-.8.6-.22 1.17 0 .94.58.85.8z" data-name="Path 88845"/><g data-name="Group 83873"><path fill="#3c2415" d="M915.75 593.5a1 1 0 0 1-1.4 0 .98.98 0 0 1 0-1.4 1 1 0 0 1 1.4 0 .98.98 0 0 1 0 1.4z" data-name="Path 88846"/><path fill="#fff" d="M915.24 592.33a.17.17 0 0 1-.25 0 .17.17 0 0 1 0-.24.17.17 0 0 1 .25 0 .17.17 0 0 1 0 .24z" data-name="Path 88847"/></g><path fill="#3c2415" d="M922.35 597.18a1 1 0 0 1 1.4.09.98.98 0 0 1-.08 1.39 1 1 0 0 1-1.4-.09.98.98 0 0 1 .08-1.39z" data-name="Path 91586"/><path fill="#fff" d="M923.2 597.45a.17.17 0 0 1-.25 0 .17.17 0 0 1 0-.23.17.17 0 0 1 .24 0 .17.17 0 0 1 0 .23z" data-name="Path 88848"/><path fill="#ec8282" d="M917.58 597.56c1.1.68 1.63 1.8 1.19 2.51s-1.7.74-2.8.06-1.62-1.8-1.18-2.5 1.7-.75 2.8-.07z" data-name="Path 91587"/><path fill="#f7cbc0" d="M898.63 586.18s-1.09-1.13 2.9-3.53c3.8-2.29 11.57-2.82 12.87-1.7-1.88 2.14-12.98 8.77-15.76 5.23z" data-name="Path 88850"/><path fill="#f7cbc0" d="M935.4 610.06s1.54 1.32 2.38-2.6c.93-4.32-1.7-11.73-3.23-12.5-1.52 4.37-2.33 13.25.85 15.1z" data-name="Path 88851"/></g></svg>