<svg xmlns="http://www.w3.org/2000/svg" width="211.79" height="173.28"><g transform="translate(-843.16 -559.4)"><path fill="#ffe1c4" d="M1031.13 712.96a11.84 11.84 0 0 0-2.3 3.98l.94.68s1.03.88 1.4.29c.1-.17 0-.43-.18-.71.3.16.67.27.88-.06.1-.17.01-.42-.17-.7.29.16.67.27.87-.06.1-.17.01-.43-.17-.71.3.16.67.27.88-.06.15-.26-.16-.75-.56-1.2a12.14 12.14 0 0 0-1.17-1.14z" data-name="Path 91724"/><path fill="#dff4ff" d="M968.36 559.4a31.03 31.03 0 1 1-31.03 31.03 31.03 31.03 0 0 1 31.03-31.03" data-name="Ellipse 1973"/><circle cx="20.69" cy="20.69" r="20.69" fill="#fffbd5" data-name="Ellipse 1971" transform="translate(883.78 564.25)"/><g data-name="Group 82504"><path fill="#f7dd69" d="M912.04 580.11v9.24l-4.63-4.62zm-7.33 6.33l7.15-7.15a.72.72 0 0 0-.56-.26h-13.2a.72.72 0 0 0-.56.26zm2.2-1.22l-1.97 1.99a.35.35 0 0 1-.5 0l-1.95-1.98-4.8 4.8a.72.72 0 0 0 .41.14h13.2a.71.71 0 0 0 .41-.14zm-9.54-5.1v9.23l4.62-4.62z" data-name="Group 73878"/></g><g data-name="Group 82505"><path fill="#82c2eb" d="M973.45 578.9h-11.08a1.1 1.1 0 0 0-1.1 1.1v19.95a1.1 1.1 0 0 0 1.1 1.11h11.08a1.1 1.1 0 0 0 1.12-1.1V580a1.1 1.1 0 0 0-1.11-1.1zm-7.75 1.77h4.43v.89h-4.43zm2.16 18.97a1.24 1.24 0 1 1 1.25-1.25 1.24 1.24 0 0 1-1.24 1.25zm5.81-3.9h-11.52v-12.4h11.53z" data-name="Group 73881"/></g><path fill="#efffd9" d="M882.25 667.38a22.4 22.4 0 1 1-22.41 22.41 22.4 22.4 0 0 1 22.4-22.4z" data-name="Path 87385"/><g data-name="Group 82509"><g data-name="Group 41805"><g data-name="Group 41804"><g fill="#81cc94" data-name="Group 41803"><path d="M887.07 681.57h-10.34a1.21 1.21 0 0 0-1.2 1.21v14.02a1.21 1.21 0 0 0 1.2 1.2h7.73a.4.4 0 0 0 .28-.1l3.4-3.4a.39.39 0 0 0 .12-.29V682.8a1.2 1.2 0 0 0-1.16-1.22zm-2.21 15.05v-1.64a.4.4 0 0 1 .4-.4h1.64zm-8.54.17v-14.02a.4.4 0 0 1 .41-.4h10.34a.4.4 0 0 1 .4.4v11h-2.2a1.21 1.21 0 0 0-1.21 1.21v2.21h-7.33a.4.4 0 0 1-.4-.4z" data-name="Path 52659"/><path d="M882.9 688.44h3.02a.4.4 0 0 0 .4-.4v-3.96a.4.4 0 0 0-.4-.41h-3.02a.41.41 0 0 0-.4.4v3.97a.43.43 0 0 0 .4.4zm.4-3.96h2.23v3.16h-2.22z" data-name="Path 52660"/><path d="M878.8 687.31a.25.25 0 0 0 .18-.07.23.23 0 0 0 .07-.18v-.5h-.5v.25h-.5v-1.51h.5v.25h.5v-.5a.26.26 0 0 0-.25-.26h-1a.23.23 0 0 0-.18.08.25.25 0 0 0-.07.18v2a.26.26 0 0 0 .25.26z" data-name="Path 52661"/><path d="M880.67 687.31l.69-2.5h-.56l-.38 1.82-.38-1.82h-.56l.69 2.5z" data-name="Path 52662"/><path d="M877.75 689.7h8.39v.8h-8.4z" data-name="Rectangle 9965"/><path d="M877.86 691.57h8.4v.8h-8.4z" data-name="Rectangle 9966"/><path d="M877.98 693.45h4.08v.8h-4.08z" data-name="Rectangle 9967"/></g></g></g></g><circle cx="25.73" cy="25.73" r="25.73" fill="#ffdfdf" data-name="Ellipse 1974" transform="translate(843.16 605.51)"/><path fill="#e9968e" d="M868.92 625.74a4.94 4.94 0 0 1 4.53-3.07c2.72 0 4.69 2.33 4.93 5.11a5.08 5.08 0 0 1-.16 1.94 8.53 8.53 0 0 1-2.6 4.34l-6.7 5.97-6.58-5.97a8.54 8.54 0 0 1-2.6-4.34 5.08 5.08 0 0 1-.16-1.94c.24-2.78 2.2-5.1 4.93-5.1a4.78 4.78 0 0 1 4.41 3.06z" data-name="Group 82512"/><g fill="#9fdff8" data-name="Group 87154"><path d="M970.96 686.47q-.58-.87-1.18-1.68c-5.7-3.27-11.2-6.8-14.8-10.03q-2.27-2.03-4.02-3.63a5.64 5.64 0 0 0-.84 1.07l2.37 2a117.4 117.4 0 0 0 18.47 12.27z" data-name="Path 91725"/><path d="M972.71 689.33l-.81-1.4c-7.37-3.96-15.23-8.66-19.91-12.86l-2.3-2.06a5.66 5.66 0 0 0-.4 1.34l.2.17c6.62 5.6 15.62 10.85 23.22 14.8z" data-name="Path 91726"/><path d="M968.22 682.84c-3.7-4.31-8.32-7.53-15.22-11.03l2.47 2.08a100.51 100.51 0 0 0 12.75 8.95z" data-name="Path 91727"/><path d="M975.73 695.94a260.44 260.44 0 0 1-23.96-12.82c3.54 5.8 10.16 7.34 16.36 9.39 2.74 2.45 5.9 5.24 8.9 7.87-.33-1.44-.82-2.93-1.3-4.44z" data-name="Path 91728"/><path d="M975.1 693.9l-.01-.03c-7.07-3.46-17.34-8.8-24.8-14a15.53 15.53 0 0 0 .6 1.55 196.9 196.9 0 0 0 24.48 13.36l-.28-.89z" data-name="Path 91729"/><path d="M973.43 690.63c-8.28-4.27-18.31-9.93-24.04-14.91a22.87 22.87 0 0 0 .45 2.6 169.21 169.21 0 0 0 24.63 14.3q-.52-1.03-1.04-2z" data-name="Path 91730"/></g><g fill="#cef4fe" data-name="Group 87155"><path d="M975.37 694.78a196.9 196.9 0 0 1-24.49-13.36 14.92 14.92 0 0 0 .9 1.7 260.44 260.44 0 0 0 23.95 12.82l-.36-1.16z" data-name="Path 91731"/><path d="M974.47 692.63a169.21 169.21 0 0 1-24.63-14.3c.13.54.28 1.06.45 1.55 7.46 5.19 17.73 10.53 24.8 14l-.62-1.25z" data-name="Path 91732"/><path d="M972.71 689.33c-7.6-3.96-16.6-9.2-23.2-14.81l-.2-.17a.4.4 0 0 1-.02.06 3.21 3.21 0 0 0 0 .42l.1.89c5.73 4.99 15.76 10.64 24.05 14.9l-.73-1.3z" data-name="Path 91733"/><path d="M971.9 687.93q-.46-.75-.94-1.46a117.41 117.41 0 0 1-18.47-12.26q-1.28-1.1-2.38-2.01a5.69 5.69 0 0 0-.42.8l2.3 2.07c4.68 4.2 12.54 8.9 19.91 12.86z" data-name="Path 91734"/><path d="M969.78 684.79a34.9 34.9 0 0 0-1.56-1.95 100.51 100.51 0 0 1-12.75-8.95l-2.46-2.08-1.84-.92-.2.23q1.74 1.6 4 3.64c3.61 3.23 9.1 6.76 14.8 10.03z" data-name="Path 91735"/></g><path fill="#ffe1c4" d="M946.95 673.89a11.84 11.84 0 0 0 1.86-4.2c-.47-.28-.84-.5-1-.58 0 0-1.12-.77-1.42-.14-.09.17.03.42.24.68-.3-.13-.7-.2-.86.15-.08.18.03.42.24.68-.3-.13-.69-.2-.86.15-.08.18.03.42.25.69-.31-.13-.7-.2-.87.15-.13.28.23.72.68 1.14a11.86 11.86 0 0 0 1.29 1z" data-name="Path 88975"/><g data-name="Group 83984"><path fill="#2e8db1" d="M952.7 673.05l-2.13 3.38c-.29.47-.86 1.76-1.33 1.47l-2.59-2.73a1 1 0 0 1-.33-1.37l2.13-3.38a1 1 0 0 1 1.38-.32l2.54 1.58a1 1 0 0 1 .33 1.37z" data-name="Path 88967"/><path fill="#f6c44c" d="M949.87 673c-.72-.4-1.15-1.02-.95-1.38s.95-.33 1.68.07 1.15 1.02.95 1.38-.95.33-1.68-.07z" data-name="Path 91584"/></g><g fill="#9fdff8" data-name="Group 87156"><path d="M1012.04 692.24a905.53 905.53 0 0 0-8.02-8.76c.19 1.48.51 3.01.83 4.55a259.5 259.5 0 0 1 22.45 15.24c-2.9-6.14-9.32-8.35-15.26-11.03z" data-name="Path 91736"/><path d="M1008.6 697.93q.48.93 1 1.8c5.31 3.84 10.4 7.93 13.65 11.51 1.36 1.5 2.57 2.85 3.61 4.03a5.61 5.61 0 0 0 .96-.98l-2.16-2.24a117.01 117.01 0 0 0-17.07-14.12z" data-name="Path 91737"/><path d="M1010.93 701.82c3.23 4.7 7.49 8.38 14 12.6l-2.27-2.37a100.3 100.3 0 0 0-11.73-10.23z" data-name="Path 91738"/><path d="M1028.01 705.04a196.26 196.26 0 0 0-22.92-15.82l.18.91v.03c6.66 4.18 16.3 10.56 23.17 16.49a16.4 16.4 0 0 0-.43-1.6z" data-name="Path 91739"/><path d="M1007.15 694.92c.22.5.44 1 .67 1.47 6.9 4.71 14.21 10.2 18.43 14.86l2.06 2.29a5.55 5.55 0 0 0 .53-1.3l-.17-.19c-5.98-6.26-14.38-12.41-21.52-17.13z" data-name="Path 91740"/><path d="M1028.9 710.87a23.3 23.3 0 0 0-.18-2.63 168.67 168.67 0 0 0-22.97-16.78q.4 1.08.82 2.1c7.79 5.1 17.15 11.76 22.33 17.31z" data-name="Path 91741"/></g><g fill="#cef4fe" data-name="Group 87157"><path d="M1009.6 699.74c.42.72.86 1.4 1.33 2.08a100.3 100.3 0 0 1 11.73 10.23l2.27 2.36c.55.36 1.1.72 1.69 1.08l.23-.2.01-.01a449.57 449.57 0 0 0-3.61-4.03c-3.25-3.59-8.34-7.67-13.66-11.51z" data-name="Path 91742"/><path d="M1028.44 706.65c-6.87-5.93-16.5-12.31-23.17-16.5l.49 1.3a168.67 168.67 0 0 1 22.96 16.78c-.07-.55-.17-1.08-.28-1.58z" data-name="Path 91743"/><path d="M1007.82 696.4c.25.52.5 1.03.77 1.53a117.02 117.02 0 0 1 17.07 14.12l2.15 2.25a5.66 5.66 0 0 0 .5-.76l-2.06-2.3c-4.22-4.65-11.53-10.14-18.43-14.85z" data-name="Path 91744"/><path d="M1006.57 693.55l.58 1.37c7.14 4.72 15.54 10.87 21.51 17.13l.18.19.02-.04a3.35 3.35 0 0 0 .04-.42v-.9c-5.18-5.56-14.54-12.22-22.33-17.33z" data-name="Path 91745"/><path d="M1027.3 703.27a259.57 259.57 0 0 0-22.45-15.24l.08.42.15.77a196.26 196.26 0 0 1 22.92 15.82 14.92 14.92 0 0 0-.7-1.77z" data-name="Path 91746"/></g><path fill="#a22722" d="M1010.96 724.81c2.18-2.49 3.33-4.98 1.06-6.34a9.9 9.9 0 0 0-.94-.48 49.91 49.91 0 0 1-.12 6.82z" data-name="Path 91683"/><path fill="#a22722" d="M998.66 717.24c.44.04.4 4.72-.1 10.45-.17 1.79-.35 3.47-.54 4.93h1.82c.06-1.5.18-3.23.34-5.07.5-5.73 1.26-10.35 1.7-10.31s.4 4.72-.1 10.45c-.16 1.79-.34 3.46-.53 4.92.8 0 1.45-.02 1.81-.05l.02-.3a6.56 6.56 0 0 0-.75-.13l.78-.55c.07-1.24.17-2.6.3-4.03.5-5.73 1.26-10.35 1.7-10.31s.39 4.72-.11 10.45c-.08.93-.17 1.84-.27 2.7.55-.41 1.15-.88 1.78-1.4l.12-1.44c.5-5.73 1.26-10.35 1.7-10.31s.4 4.62-.1 10.28l1-.92a57 57 0 0 1 1.32-8.84c-3.85-1.58-11.73-3.34-19.6-4.43a8.9 8.9 0 0 0-.44-1.52 5.3 5.3 0 0 0-.62 1.38 96.92 96.92 0 0 0-11.92-.9 20.52 20.52 0 0 0-7.24.92c-3.78 1.61-1.98 6.95.46 11.5.1-4.33.41-7.5.78-7.5.44 0 .8 4.56.8 10.23.52.84 1.01 1.59 1.45 2.24.05-.69.1-1.4.17-2.13.5-5.73 1.26-10.35 1.7-10.3s.4 4.7-.1 10.44c-.13 1.39-.27 2.7-.4 3.91l.22.3-.27.07-.08.6a76 76 0 0 0 1.8.06c.08-1.5.19-3.24.35-5.08.5-5.73 1.26-10.35 1.7-10.31s.4 4.72-.1 10.45c-.16 1.8-.35 3.5-.54 4.96l1.82.02c.07-1.52.18-3.26.34-5.12.5-5.73 1.27-10.35 1.7-10.31s.4 4.72-.1 10.45a120.5 120.5 0 0 1-.54 4.99h1.82c.07-1.52.18-3.26.35-5.13.5-5.73 1.26-10.35 1.7-10.31s.4 4.72-.1 10.45c-.15 1.62-.3 3.14-.48 4.5.4-.64 1.16-1.9 2-3.52l.1-1.12c.5-5.73 1.26-10.35 1.7-10.31.36.03.4 3.08.13 7.26.3-.75.59-1.52.84-2.3.2 1.16.45 2.31.74 3.42.49-4.8 1.13-8.41 1.52-8.38.44.04.39 4.72-.11 10.45l-.18 1.87a13.87 13.87 0 0 0 1.47 2.97c.07-1.48.18-3.18.34-4.98.5-5.73 1.26-10.35 1.7-10.3s.39 4.7-.11 10.44c-.16 1.8-.34 3.47-.53 4.94h1.81c.07-1.51.18-3.24.34-5.08.52-5.73 1.28-10.35 1.72-10.31z" data-name="Path 91684"/><g fill="#e8615d" data-name="Group 87158"><path d="M971.97 717.2c-.37 0-.68 3.18-.78 7.52.51.95 1.05 1.88 1.58 2.72 0-5.67-.37-10.24-.8-10.24z" data-name="Path 91747"/><path d="M976.1 717.24c-.44-.04-1.2 4.58-1.7 10.31l-.17 2.13c.6.88 1.1 1.56 1.36 1.92.15-1.2.28-2.52.4-3.91.5-5.73.55-10.41.11-10.45z" data-name="Path 91748"/><path d="M979.32 717.24c-.44-.04-1.2 4.58-1.7 10.31-.17 1.84-.28 3.57-.35 5.08l1.4.02c.2-1.47.38-3.16.54-4.96.5-5.73.55-10.41.11-10.45z" data-name="Path 91749"/><path d="M982.54 717.24c-.44-.04-1.2 4.58-1.7 10.31-.16 1.86-.28 3.6-.34 5.12h1.4c.19-1.47.37-3.17.53-4.98.5-5.73.55-10.41.11-10.45z" data-name="Path 91750"/><path d="M985.77 717.24c-.44-.04-1.2 4.58-1.7 10.31-.17 1.87-.29 3.61-.35 5.13h1.15l.31-.48c.17-1.37.34-2.9.48-4.51.5-5.73.55-10.41.1-10.45z" data-name="Path 91751"/><path d="M988.99 717.24c-.44-.04-1.2 4.58-1.7 10.31l-.1 1.12a48.04 48.04 0 0 0 1.93-4.17c.26-4.18.22-7.23-.13-7.26z" data-name="Path 91752"/><path d="M992.21 717.24c-.39-.03-1.03 3.58-1.52 8.38a37.24 37.24 0 0 0 1.24 3.94l.17-1.87c.5-5.73.55-10.41.11-10.45z" data-name="Path 91753"/><path d="M995.44 717.24c-.45-.04-1.2 4.58-1.7 10.31-.16 1.8-.27 3.5-.34 4.98l.1.15a8.24 8.24 0 0 1 1.3-.05c.2-1.47.38-3.15.53-4.94.5-5.73.55-10.41.1-10.45z" data-name="Path 91754"/><path d="M998.03 732.62z" data-name="Path 91755"/><path d="M998.66 717.24c-.44-.04-1.2 4.58-1.7 10.31-.16 1.84-.27 3.57-.34 5.07h1.4c.19-1.46.37-3.14.53-4.93.5-5.73.55-10.41.11-10.45z" data-name="Path 91756"/><path d="M1001.88 717.24c-.44-.04-1.2 4.58-1.7 10.31a118.9 118.9 0 0 0-.34 5.07h1.4c.2-1.47.38-3.14.53-4.93.5-5.73.55-10.41.11-10.45z" data-name="Path 91757"/><path d="M1005.1 717.24c-.43-.04-1.2 4.58-1.7 10.31-.12 1.43-.22 2.79-.29 4.03.42-.3.98-.7 1.62-1.2.1-.85.19-1.75.27-2.7.5-5.72.55-10.4.1-10.44z" data-name="Path 91758"/><path d="M1008.33 717.24c-.44-.04-1.2 4.58-1.7 10.31l-.12 1.44c.57-.46 1.15-.95 1.73-1.47.48-5.65.53-10.24.1-10.28z" data-name="Path 91759"/><path d="M1011.08 718l-.53-.24a57 57 0 0 0-1.32 8.84 28.3 28.3 0 0 0 1.73-1.79 49.91 49.91 0 0 0 .12-6.82z" data-name="Path 91760"/></g><g data-name="Group 83980"><g data-name="Group 83961"><g data-name="Group 83944"><path fill="#fdba37" d="M956.48 688.24a1.55 1.55 0 0 0 1.17-1.85l-.32-1.37a1.55 1.55 0 0 0-3.03.69l.32 1.37a1.55 1.55 0 0 0 1.86 1.16zm-.82-3.57a.71.71 0 0 1 .85.54l.32 1.37a.71.71 0 0 1-1.4.31l-.3-1.37a.71.71 0 0 1 .53-.84z" data-name="Path 88928"/></g><g data-name="Group 83945"><path fill="#fdba37" d="M955.75 683.44a1.54 1.54 0 0 0 1.22-1.8l-.27-1.39a1.55 1.55 0 0 0-3.04.6l.27 1.38a1.55 1.55 0 0 0 1.82 1.21zm-.7-3.59a.71.71 0 0 1 .83.56l.27 1.38a.71.71 0 0 1-.56.83.71.71 0 0 1-.84-.56l-.27-1.38a.71.71 0 0 1 .56-.83z" data-name="Path 88929"/></g><g data-name="Group 83946"><path fill="#fdba37" d="M954.95 678.64a1.54 1.54 0 0 0 1.1-1.89l-.36-1.36a1.55 1.55 0 0 0-3 .8l.36 1.35a1.55 1.55 0 0 0 1.9 1.1zm-.94-3.54a.71.71 0 0 1 .87.5l.36 1.36a.71.71 0 0 1-1.37.37l-.36-1.36a.7.7 0 0 1 .5-.87z" data-name="Path 88930"/></g><g data-name="Group 83947"><path fill="#fdba37" d="M954 673.8a1.54 1.54 0 0 0 .71-2.06l-.62-1.26a1.55 1.55 0 0 0-2.79 1.34l.62 1.27a1.56 1.56 0 0 0 2.07.71zm-1.62-3.3a.71.71 0 0 1 .96.34l.61 1.26a.7.7 0 0 1-.32.95.71.71 0 0 1-.95-.33l-.62-1.27a.7.7 0 0 1 .33-.94z" data-name="Path 88931"/></g><g data-name="Group 83953"><path fill="#f8e5a3" d="M955.14 684.66a.6.6 0 0 0 .64.57.6.6 0 0 0 .57-.63l-.11-1.9a.6.6 0 0 0-.64-.57.6.6 0 0 0-.57.64z" data-name="Path 88936"/></g><g data-name="Group 83954"><path fill="#f8e5a3" d="M954.35 679.88a.6.6 0 0 0 .66.53.6.6 0 0 0 .53-.67l-.22-1.89a.6.6 0 0 0-.67-.53.6.6 0 0 0-.52.67z" data-name="Path 88937"/></g><g data-name="Group 83955"><path fill="#f8e5a3" d="M953.44 675.1a.6.6 0 0 0 .73.44.6.6 0 0 0 .44-.72l-.43-1.86a.6.6 0 0 0-.72-.44.6.6 0 0 0-.45.71z" data-name="Path 88938"/></g></g><g data-name="Group 83979"><g data-name="Group 83962"><path fill="#fdba37" d="M955.66 683.98a1.55 1.55 0 0 0-1.31 1.75l.2 1.4a1.55 1.55 0 0 0 3.07-.46l-.2-1.39a1.55 1.55 0 0 0-1.76-1.3zm.53 3.62a.71.71 0 0 1-.8-.6l-.2-1.4a.71.71 0 0 1 1.4-.2l.2 1.4a.71.71 0 0 1-.6.8z" data-name="Path 88944"/></g><g data-name="Group 83963"><path fill="#fdba37" d="M956 688.82a1.55 1.55 0 0 0-1.37 1.7l.16 1.4a1.55 1.55 0 0 0 3.09-.34l-.16-1.4a1.55 1.55 0 0 0-1.72-1.36zm.41 3.64a.71.71 0 0 1-.78-.63l-.16-1.4a.71.71 0 0 1 1.41-.16l.16 1.4a.7.7 0 0 1-.62.79z" data-name="Path 88945"/></g><g data-name="Group 83964"><path fill="#fdba37" d="M956.4 693.67a1.55 1.55 0 0 0-1.25 1.8l.25 1.39a1.55 1.55 0 1 0 3.05-.56l-.25-1.38a1.55 1.55 0 0 0-1.8-1.25zm.66 3.6a.71.71 0 0 1-.83-.57l-.25-1.38a.7.7 0 0 1 .57-.83.71.71 0 0 1 .83.57l.25 1.39a.7.7 0 0 1-.57.82z" data-name="Path 88946"/></g><g data-name="Group 83965"><path fill="#fdba37" d="M956.98 698.57a1.54 1.54 0 0 0-.89 2l.52 1.31a1.55 1.55 0 0 0 2.89-1.12l-.52-1.31a1.56 1.56 0 0 0-2-.88zm1.33 3.4a.71.71 0 0 1-.92-.4l-.51-1.3a.7.7 0 0 1 .4-.92.71.71 0 0 1 .92.4l.51 1.31a.7.7 0 0 1-.4.92z" data-name="Path 88947"/></g><g data-name="Group 83966"><path fill="#fdba37" d="M958.6 703.27a1.54 1.54 0 0 0-.13 2.17l.94 1.06a1.56 1.56 0 0 0 2.19.13 1.54 1.54 0 0 0 .14-2.17l-.95-1.06a1.56 1.56 0 0 0-2.18-.13zm2.44 2.74a.71.71 0 0 1-1-.06l-.94-1.06a.7.7 0 0 1 .06-1 .71.71 0 0 1 1 .06l.94 1.06a.7.7 0 0 1-.06 1z" data-name="Path 88948"/></g><g data-name="Group 83967"><path fill="#fdba37" d="M961.65 707.15a1.54 1.54 0 0 0 .55 2.1l1.22.72a1.54 1.54 0 1 0 1.58-2.66l-1.22-.71a1.56 1.56 0 0 0-2.13.55zm3.18 1.85a.71.71 0 0 1-.98.25l-1.22-.71a.7.7 0 0 1-.25-.97.71.71 0 0 1 .97-.25l1.22.7a.7.7 0 0 1 .26.97z" data-name="Path 88949"/></g><g data-name="Group 83969"><g data-name="Group 83968"><path fill="#fdba37" d="M965.87 710.16a1.55 1.55 0 0 0 1.48 1.6l1.42.06a1.54 1.54 0 1 0 .12-3.08l-1.41-.06a1.55 1.55 0 0 0-1.61 1.48zm3.67.15a.71.71 0 0 1-.74.68l-1.41-.06a.7.7 0 0 1 .05-1.41l1.42.05a.71.71 0 0 1 .68.74z" data-name="Path 88950"/></g></g><g data-name="Group 83970"><path fill="#fdba37" d="M970.77 710.58a1.55 1.55 0 0 0 1.7 1.38l1.4-.15a1.54 1.54 0 1 0-.31-3.07l-1.4.15a1.55 1.55 0 0 0-1.4 1.69zm3.65-.37a.71.71 0 0 1-.63.77l-1.4.15a.7.7 0 0 1-.15-1.41l1.4-.15a.71.71 0 0 1 .78.64z" data-name="Path 88951"/></g><g data-name="Group 83971"><path fill="#fde49b" d="M956.7 687.65a.6.6 0 0 0-.59-.6.6.6 0 0 0-.61.58l-.05 1.9a.6.6 0 0 0 .6.6.6.6 0 0 0 .6-.58z" data-name="Path 88952"/></g><g data-name="Group 83972"><path fill="#fde49b" d="M957.11 692.48a.6.6 0 0 0-.62-.57.6.6 0 0 0-.58.61l.07 1.9a.6.6 0 0 0 .62.58.6.6 0 0 0 .58-.62z" data-name="Path 88953"/></g><g data-name="Group 83973"><path fill="#fde49b" d="M957.63 697.33a.6.6 0 0 0-.69-.5.6.6 0 0 0-.5.68l.28 1.88a.6.6 0 0 0 .69.5.6.6 0 0 0 .5-.68z" data-name="Path 88954"/></g><g data-name="Group 83974"><path fill="#fde49b" d="M958.94 701.76a.6.6 0 0 0-.8-.26.6.6 0 0 0-.27.81l.87 1.7a.6.6 0 0 0 .81.26.6.6 0 0 0 .26-.8z" data-name="Path 88955"/></g><g data-name="Group 83975"><path fill="#fde49b" d="M961.53 705.66a.6.6 0 0 0-.84-.06.6.6 0 0 0-.06.85l1.27 1.43a.6.6 0 0 0 .85.05.6.6 0 0 0 .05-.85z" data-name="Path 88956"/></g><g data-name="Group 83976"><path fill="#fde49b" d="M965.18 708.51a.6.6 0 0 0-.82.22.6.6 0 0 0 .22.81l1.65.97a.6.6 0 0 0 .82-.21.6.6 0 0 0-.21-.82z" data-name="Path 88957"/></g><g data-name="Group 83977"><path fill="#fde49b" d="M969.6 709.81a.6.6 0 0 0-.57.62.6.6 0 0 0 .62.58l1.91-.07a.6.6 0 0 0 .58-.62.6.6 0 0 0-.62-.57z" data-name="Path 88958"/></g><g data-name="Group 83978"><path fill="#fde49b" d="M974.37 709.63a.6.6 0 0 0-.49.69.6.6 0 0 0 .7.49l1.89-.33a.6.6 0 0 0 .49-.7.6.6 0 0 0-.7-.48z" data-name="Path 88959"/></g></g></g><path fill="#ffb03a" d="M968.82 721.67c3.88-.42 32.04-2.58 44.34 0-1.16-.67-.32.59-.16.33-.02 0 1.04-1 1-1 2-2-3.49-22.84-3.47-28.88-4.51 6.7-12.79 8.95-21.35 8.95a63.62 63.62 0 0 1-16.79-2.45c.75 4.63-5.18 13.38-4.72 17.66 0 0-.02 4.05 1.15 5.39z" data-name="Path 91700"/><path fill="#ffc641" d="M1012.54 720.84c-2.13-.54-9.83-2.35-10.67-2.52a18.03 18.03 0 0 0-5.53-.7c-2.76 0-5.82.31-9.06.65s-6.61.68-9.65.68c-4.56 0-7.56-.78-9.44-2.45-.36-1.9.95-5.14 2.22-8.28 1.29-3.17 2.61-6.44 2.54-8.93a63.58 63.58 0 0 0 16.23 2.28c9.5 0 16.69-2.76 20.9-8 .15 2.51.66 6.07 1.18 9.79.96 6.8 2.04 14.44 1.28 17.48z" data-name="Path 91701"/><path fill="#fff" d="M1007.58 708.12l-.34-.95a41.98 41.98 0 0 1-14.84 2.54 81.79 81.79 0 0 0-1.08-8.93l-.99.18a84.07 84.07 0 0 1 1.05 8.73 77.71 77.71 0 0 1-12.95-1.78c-1.34-.27-2.65-.53-3.93-.76l-.18.99c1.28.22 2.58.48 3.91.75a72.74 72.74 0 0 0 13.2 1.77 36.36 36.36 0 0 1-.27 7.44l.99.17a37.05 37.05 0 0 0 .3-7.56l.36.02a43.04 43.04 0 0 0 14.77-2.61z" data-name="Path 91761"/><path fill="#fc3b48" d="M985.33 703.42a1.47 1.47 0 0 1 1.35-.91 1.56 1.56 0 0 1 1.47 1.52 1.5 1.5 0 0 1-.05.57 2.54 2.54 0 0 1-.78 1.3l-1.99 1.77-1.96-1.77a2.54 2.54 0 0 1-.77-1.3 1.5 1.5 0 0 1-.05-.57 1.55 1.55 0 0 1 1.47-1.52 1.42 1.42 0 0 1 1.31.91z"/><path fill="#545454" d="M1010.53 692.12c0-.24 0-.46-.02-.67l-.04-.35-.23.13-.35.18-.29.96-.66.48a10.58 10.58 0 0 1 .16 1.1 17.17 17.17 0 0 0 1.43-1.83z" data-name="Path 91710"/><g fill="#545454" data-name="Group 87159"><path d="M982.2 697.23c-.7-.25-1.39-.51-2.06-.8l.02.86a11.4 11.4 0 0 1-.34 2.98q1.25.2 2.54.37a13.1 13.1 0 0 1-.2-2.35c0-.37.02-.72.04-1.06z" data-name="Path 91762"/><path d="M991.17 698.86q-1.02-.01-2.03-.1l.02.52a9.51 9.51 0 0 1-.17 1.8c.78 0 1.55-.02 2.33-.06a9.61 9.61 0 0 1-.16-1.74l.01-.42z" data-name="Path 91763"/><path d="M995.66 698.54c-.5.08-1.01.14-1.52.19l.02.55a9.84 9.84 0 0 1-.12 1.52q1.16-.13 2.28-.33a13.6 13.6 0 0 1-.16-2.03l-.5.1z" data-name="Path 91764"/><path d="M1002.16 698.3l-.01.5a22.21 22.21 0 0 0 2.02-.97 11.8 11.8 0 0 1 .25-2.19c-.77.39-1.55.75-2.34 1.07a14.63 14.63 0 0 1 .08 1.58z" data-name="Path 91765"/><path d="M1000.19 697.4q-1.01.34-2.04.6v.29a14.13 14.13 0 0 1-.1 1.83q1.1-.27 2.16-.61a14.7 14.7 0 0 1-.02-2.11z" data-name="Path 91766"/><path d="M1007.22 694.04q-.75.48-1.52.91a7.17 7.17 0 0 1 .37 1.7c.38-.27.74-.55 1.1-.84l-.01-.5c0-.45.02-.88.06-1.27z" data-name="Path 91767"/><path d="M978.26 695.56q-1.13-.56-2.23-1.2a13.97 13.97 0 0 1 .13 1.94 10.76 10.76 0 0 1-.4 3.17q1.31.3 2.68.56a12.21 12.21 0 0 1-.28-2.74 14.47 14.47 0 0 1 .1-1.73z" data-name="Path 91768"/><path d="M986.2 698.33q-1.03-.2-2.05-.5v.46a12.7 12.7 0 0 1-.22 2.52q1.18.12 2.38.18a9.6 9.6 0 0 1-.15-1.7c0-.34.02-.65.05-.96z" data-name="Path 91769"/><path d="M972.4 698.62c.67.19 1.36.37 2.07.55a13.43 13.43 0 0 1 0-5.75q-1.41-.91-2.75-1.95a39.96 39.96 0 0 0 .67 7.15z" data-name="Path 91770"/></g><g fill="#b5b6b8" data-name="Group 87160"><path d="M974.47 693.42a13.43 13.43 0 0 0 0 5.75l1.29.3a10.76 10.76 0 0 0 .4-3.17 14.13 14.13 0 0 0-.13-1.93c-.53-.3-1.05-.62-1.56-.95z" data-name="Path 91771"/><path d="M978.26 695.56a14.26 14.26 0 0 0-.1 1.73 12.21 12.21 0 0 0 .28 2.74q.68.13 1.38.24a11.4 11.4 0 0 0 .34-2.98q0-.44-.03-.86c-.63-.27-1.25-.56-1.87-.87z" data-name="Path 91772"/><path d="M983.16 697.57c-.33-.1-.64-.22-.96-.34-.02.34-.04.69-.04 1.06a13.2 13.2 0 0 0 .2 2.34q.78.1 1.57.18a12.71 12.71 0 0 0 .23-2.52l-.01-.45c-.33-.1-.67-.17-1-.27z" data-name="Path 91773"/><path d="M996.16 698.45a13.6 13.6 0 0 0 .16 2.02q.87-.16 1.72-.36a13.98 13.98 0 0 0 .12-1.82v-.3q-1 .26-2 .46z" data-name="Path 91774"/><path d="M1000.19 697.4a15.81 15.81 0 0 0 .02 2.1c.66-.2 1.3-.44 1.94-.7v-.51a14.63 14.63 0 0 0-.07-1.58c-.63.25-1.26.48-1.9.69z" data-name="Path 91775"/><path d="M1004.42 695.63a11.72 11.72 0 0 0-.25 2.2 19.44 19.44 0 0 0 1.9-1.18 7.17 7.17 0 0 0-.37-1.7c-.42.24-.85.47-1.28.68z" data-name="Path 91776"/><path d="M1008.94 692.85l-.31.23-.2.14-1.21.82c-.04.4-.06.82-.06 1.26l.01.51a17.35 17.35 0 0 0 1.93-1.85 10.58 10.58 0 0 0-.16-1.1z" data-name="Path 91777"/><path d="M987.84 698.63h-.02c-.54-.08-1.08-.2-1.61-.3-.03.3-.05.62-.05.95a9.6 9.6 0 0 0 .15 1.7q1.34.08 2.68.08a9.51 9.51 0 0 0 .17-1.78l-.02-.52c-.43-.04-.87-.07-1.3-.13z" data-name="Path 91778"/><path d="M991.17 698.86l-.01.42a9.58 9.58 0 0 0 .16 1.74q1.37-.06 2.72-.22a9.83 9.83 0 0 0 .12-1.52l-.02-.55a26.4 26.4 0 0 1-2.97.13z" data-name="Path 91779"/></g><path fill="#fc3b48" d="M1001.54 702.7a1.78 1.78 0 0 1 1.89-.54 1.87 1.87 0 0 1 1.12 2.28 1.8 1.8 0 0 1-.27.64 3.06 3.06 0 0 1-1.37 1.2l-2.96 1.29-1.59-2.77a3.04 3.04 0 0 1-.4-1.76 1.8 1.8 0 0 1 .15-.68 1.88 1.88 0 0 1 2.26-1.2 1.71 1.71 0 0 1 1.17 1.54zM999.1 712.74a1.77 1.77 0 0 1 1.03-1.66 1.88 1.88 0 0 1 2.37.95 1.8 1.8 0 0 1 .23.66 3.04 3.04 0 0 1-.22 1.8l-1.32 2.92-3.04-.99a3.08 3.08 0 0 1-1.5-1.04 1.8 1.8 0 0 1-.33-.6 1.86 1.86 0 0 1 .87-2.4 1.73 1.73 0 0 1 1.9.36zM982.67 711.59a1.77 1.77 0 0 1 1.48-1.3 1.88 1.88 0 0 1 1.99 1.6 1.82 1.82 0 0 1 .03.7 3.05 3.05 0 0 1-.74 1.66l-2.13 2.41-2.62-1.84a3.06 3.06 0 0 1-1.12-1.42 1.8 1.8 0 0 1-.14-.68 1.87 1.87 0 0 1 1.54-2.04 1.72 1.72 0 0 1 1.7.9zM987.96 715.03a.66.66 0 0 1 .55-.49.7.7 0 0 1 .74.6.67.67 0 0 1 .01.26 1.14 1.14 0 0 1-.27.62l-.8.9-.98-.69a1.15 1.15 0 0 1-.41-.53.69.69 0 0 1-.06-.25.7.7 0 0 1 .58-.76.64.64 0 0 1 .64.34zM996.5 706.26a.88.88 0 0 1 .93-.27.92.92 0 0 1 .55 1.13.88.88 0 0 1-.14.3 1.5 1.5 0 0 1-.67.59l-1.45.63-.78-1.35a1.5 1.5 0 0 1-.2-.87.9.9 0 0 1 .08-.33.92.92 0 0 1 1.1-.59.84.84 0 0 1 .58.76z"/><path fill="#2e8db1" d="M1025.34 713.19l2.46-3.14c.34-.43 1.04-1.66 1.48-1.32l2.29 2.99a1 1 0 0 1 .18 1.39l-2.47 3.14a1 1 0 0 1-1.4.17l-2.37-1.84a1 1 0 0 1-.18-1.39z" data-name="Path 88967-2"/><path fill="#f6c44c" d="M1028.14 713.53c.67.48 1.03 1.13.8 1.47s-.98.23-1.66-.24-1.04-1.13-.8-1.47.98-.23 1.66.24z" data-name="Path 91588"/><g data-name="Group 83896"><path fill="#fde49b" d="M906.7 650.95a28.24 28.24 0 1 0 28.39-28.09h-.15a28.16 28.16 0 0 0-28.24 28.09z" data-name="Path 88786"/></g><g data-name="Group 83828"><path fill="#fdba37" d="M904.7 648.96a28.24 28.24 0 1 0 28.39-28.09h-.15a28.16 28.16 0 0 0-28.24 28.09z" data-name="Path 88786-2"/></g><g data-name="Group 83829"><path fill="#fbd180" d="M907.69 648.96a25.25 25.25 0 1 0 25.37-25.12h-.12a25.19 25.19 0 0 0-25.25 25.12z" data-name="Path 88787"/><path fill="#fde4a2" d="M915.69 648.95A17.24 17.24 0 1 0 933 631.8h-.08a17.2 17.2 0 0 0-17.24 17.15z" data-name="Path 88867"/></g><g data-name="Group 83838"><path fill="#363432" d="M930.5 648.88a2.36 2.36 0 1 0 2.37-2.34 2.35 2.35 0 0 0-2.37 2.33z" data-name="Path 88794"/></g><path fill="#242424" d="M932.26 627.66h-.97v-.07l.13-.03a.1.1 0 0 0 .04-.02.04.04 0 0 0 .01-.04.19.19 0 0 0-.02-.08 2.22 2.22 0 0 0-.06-.1l-.32-.5-.29.45-.08.13a.21.21 0 0 0-.03.1.06.06 0 0 0 0 .03.08.08 0 0 0 .05.03l.13.03v.07h-.7l-.01-.07.17-.04a.24.24 0 0 0 .1-.05.48.48 0 0 0 .08-.1l.48-.73-.5-.8a.53.53 0 0 0-.08-.1.2.2 0 0 0-.08-.05l-.16-.03v-.08h.97v.08l-.12.03a.08.08 0 0 0-.05.02.05.05 0 0 0-.01.04.17.17 0 0 0 .03.08l.05.1.25.4.23-.34a1.34 1.34 0 0 0 .08-.13.23.23 0 0 0 .04-.1c0-.03-.02-.05-.06-.06l-.13-.04v-.07h.69l.01.07-.16.05a.22.22 0 0 0-.1.05 1 1 0 0 0-.09.12l-.4.6.55.88a.7.7 0 0 0 .09.12.2.2 0 0 0 .09.05l.14.03zm.76-.46v.3c0 .02.02.03.05.04l.18.05.01.07h-.9l-.02-.07.2-.05a.05.05 0 0 0 .04-.04v-1.7a.05.05 0 0 0-.03-.05l-.2-.06v-.07h.91v.07l-.2.05a.05.05 0 0 0-.03.05v.24zm1.17 0v.3c0 .02.02.03.05.04l.18.05v.08h-.9v-.07l.2-.06a.05.05 0 0 0 .04-.04v-1.7a.05.05 0 0 0-.04-.05l-.2-.06v-.07h.91v.07l-.2.06a.05.05 0 0 0-.03.04v.25z" data-name="Path 91646"/><path fill="#242424" d="M943.97 631.18v.3c0 .02.01.03.05.04l.18.05v.08h-.9l-.01-.07.2-.06a.05.05 0 0 0 .04-.04v-1.7a.05.05 0 0 0-.04-.05l-.2-.06v-.07h.91v.07l-.2.06a.05.05 0 0 0-.03.04v.25z" data-name="Path 91647"/><path fill="#242424" d="M943.24 666.73l.05.16.06-.16.35-.94.04-.13a.26.26 0 0 0 .02-.08.05.05 0 0 0-.01-.03.1.1 0 0 0-.05-.03l-.13-.04v-.07h.66v.07l-.15.05a.16.16 0 0 0-.08.05.68.68 0 0 0-.06.11l-.72 1.78-.16.01-.63-1.77a.5.5 0 0 0-.06-.13.18.18 0 0 0-.09-.06l-.14-.04v-.07h.91l.01.07-.14.04a.1.1 0 0 0-.05.03.05.05 0 0 0 0 .04.26.26 0 0 0 0 .07l.04.13z" data-name="Path 91639"/><path fill="#242424" d="M920.24 666.73l.05.16.06-.16.35-.94.04-.13a.26.26 0 0 0 .02-.08.05.05 0 0 0-.01-.03.1.1 0 0 0-.05-.03l-.13-.04v-.07h.66v.07l-.15.05a.16.16 0 0 0-.08.05.68.68 0 0 0-.06.11l-.72 1.78-.16.01-.63-1.77a.5.5 0 0 0-.06-.13.18.18 0 0 0-.09-.06l-.14-.04v-.07h.91l.01.07-.14.04a.1.1 0 0 0-.05.03.05.05 0 0 0 0 .04.26.26 0 0 0 0 .07l.04.13zm1.72.27v.29c0 .02.01.04.05.05l.18.05v.07h-.9l-.01-.06.2-.06a.05.05 0 0 0 .04-.04v-1.7a.05.05 0 0 0-.04-.05l-.2-.06v-.07h.91v.07l-.2.06a.05.05 0 0 0-.03.04v.24zm1.17 0v.29c0 .02.01.04.05.05l.18.05v.07h-.9l-.01-.07.2-.05a.05.05 0 0 0 .04-.05v-1.7a.05.05 0 0 0-.04-.05l-.2-.05v-.08h.91v.08l-.2.05a.05.05 0 0 0-.03.04V667z" data-name="Path 91641"/><path fill="#242424" d="M922.26 631.64h-.97v-.07l.13-.03a.1.1 0 0 0 .04-.02.04.04 0 0 0 .01-.04.19.19 0 0 0-.02-.08 2.22 2.22 0 0 0-.06-.1l-.32-.5-.29.45-.08.13a.21.21 0 0 0-.03.1.06.06 0 0 0 0 .03.08.08 0 0 0 .05.03l.13.03v.07h-.7l-.01-.07.17-.04a.24.24 0 0 0 .1-.05.48.48 0 0 0 .08-.1l.48-.73-.5-.8a.53.53 0 0 0-.08-.1.19.19 0 0 0-.08-.05l-.16-.03v-.08h.97v.08l-.12.03a.08.08 0 0 0-.04.02.05.05 0 0 0-.02.04.18.18 0 0 0 .03.08l.06.1.25.4.22-.35a1.36 1.36 0 0 0 .09-.13.23.23 0 0 0 .03-.1c0-.02-.02-.04-.06-.05l-.13-.04v-.07h.7v.07l-.16.05a.22.22 0 0 0-.1.05 1 1 0 0 0-.08.13l-.41.6.55.88a.7.7 0 0 0 .1.12.2.2 0 0 0 .08.04l.15.04zm.76-.46v.3c0 .02.02.03.05.04l.18.05.01.07h-.9l-.02-.07.2-.05a.05.05 0 0 0 .04-.04v-1.7a.05.05 0 0 0-.03-.05l-.2-.06v-.07h.91v.07l-.2.05a.05.05 0 0 0-.03.05v.24z" data-name="Path 91645"/><path fill="#242424" d="M950.97 639.14v.3c0 .02.01.03.05.04l.18.05v.08h-.9l-.01-.07.2-.06a.05.05 0 0 0 .04-.04v-1.7a.05.05 0 0 0-.04-.05l-.2-.06v-.07h.91v.07l-.2.06a.05.05 0 0 0-.03.04v.25zm1.17 0v.3c0 .02.01.03.05.04l.18.05v.08h-.9l-.01-.07.2-.06a.05.05 0 0 0 .04-.04v-1.7a.05.05 0 0 0-.04-.05l-.2-.06v-.07h.91v.07l-.2.06a.05.05 0 0 0-.03.04v1.41z" data-name="Path 91648"/><path fill="#242424" d="M948.97 659.04v.29c0 .02.01.04.05.05l.18.05v.07h-.9l-.01-.06.2-.06a.05.05 0 0 0 .04-.04v-1.7a.05.05 0 0 0-.04-.05l-.2-.06v-.07h.91v.07l-.2.06a.05.05 0 0 0-.03.04v.24zm1.17 0v.29c0 .02.01.04.05.05l.18.05v.07h-.9l-.01-.06.2-.06a.05.05 0 0 0 .04-.04v-1.7a.05.05 0 0 0-.04-.05l-.2-.06v-.07h.91v.07l-.2.05a.05.05 0 0 0-.03.05v1.41zm1.17 0v.29c0 .02.02.04.05.05l.18.05v.07h-.9v-.06l.2-.06a.05.05 0 0 0 .03-.04v-1.7a.05.05 0 0 0-.03-.05l-.2-.06v-.07h.9l.01.07-.2.06a.05.05 0 0 0-.04.04v.24zm1.17 0v.29c0 .02.02.04.05.05l.18.05v.07h-.9v-.06l.2-.06a.05.05 0 0 0 .03-.04v-1.7a.05.05 0 0 0-.03-.05l-.2-.06v-.07h.91v.07l-.2.06a.05.05 0 0 0-.03.04v.24z" data-name="Path 91638"/><path fill="#242424" d="M911.24 658.77l.05.16.06-.16.35-.94.04-.13a.26.26 0 0 0 .02-.08.05.05 0 0 0-.01-.03.1.1 0 0 0-.05-.02l-.13-.04v-.08h.66v.07l-.15.05a.16.16 0 0 0-.08.05.68.68 0 0 0-.06.12l-.72 1.77-.16.01-.63-1.77a.5.5 0 0 0-.06-.13.18.18 0 0 0-.09-.06l-.14-.04v-.07h.91l.01.07-.14.04a.1.1 0 0 0-.05.03.05.05 0 0 0 0 .04.26.26 0 0 0 0 .07l.04.13zm1.72.27v.29c0 .02.01.04.05.05l.18.05v.08h-.46l-.45-.01v-.07l.2-.05a.05.05 0 0 0 .04-.05v-1.7a.05.05 0 0 0-.04-.05l-.2-.05v-.08h.91v.08l-.2.05a.05.05 0 0 0-.03.04v.25zm1.17 0v.29c0 .02.01.04.05.05l.18.05v.07h-.9l-.01-.07.2-.05a.05.05 0 0 0 .04-.05v-1.7a.05.05 0 0 0-.04-.05l-.2-.05v-.08h.91v.08l-.2.05a.05.05 0 0 0-.03.04v1.42zm1.17 0v.29c0 .02.02.04.05.05l.18.05v.08h-.45l-.45-.01-.01-.07.2-.05a.05.05 0 0 0 .04-.05v-1.7a.05.05 0 0 0-.04-.05l-.2-.05v-.08h.91l.01.08-.2.05a.05.05 0 0 0-.04.04v.25z" data-name="Path 91642"/><path fill="#242424" d="M914.26 639.6h-.97v-.07l.13-.03a.1.1 0 0 0 .04-.03.04.04 0 0 0 .01-.03.19.19 0 0 0-.02-.08 2.22 2.22 0 0 0-.06-.1l-.32-.5-.29.45-.08.12a.21.21 0 0 0-.03.1.06.06 0 0 0 0 .04.08.08 0 0 0 .05.02l.13.04v.07h-.7l-.01-.07.17-.05a.24.24 0 0 0 .1-.05.48.48 0 0 0 .08-.1l.48-.72-.5-.8a.53.53 0 0 0-.08-.1.2.2 0 0 0-.08-.05l-.16-.04v-.07h.97v.07l-.12.04a.08.08 0 0 0-.05.02.05.05 0 0 0-.01.04.17.17 0 0 0 .03.08l.05.1.25.4.23-.35a1.35 1.35 0 0 0 .08-.13.24.24 0 0 0 .04-.1c0-.02-.02-.04-.06-.05l-.13-.04v-.08h.69l.01.08-.16.04a.22.22 0 0 0-.1.06 1 1 0 0 0-.09.12l-.4.6.55.88a.7.7 0 0 0 .09.12.2.2 0 0 0 .09.04l.14.04z" data-name="Path 91644"/><path fill="#242424" d="M953.2 649.1v.28c0 .03.02.04.06.05l.18.05v.08h-.91v-.08l.2-.05a.05.05 0 0 0 .04-.05v-1.7a.05.05 0 0 0-.04-.04l-.2-.06v-.08h.91v.07l-.2.06a.05.05 0 0 0-.03.04v.25zm1.18 0v.28c0 .03.02.04.05.05l.18.05v.07h-.9v-.07l.2-.05a.05.05 0 0 0 .03-.05v-1.7a.05.05 0 0 0-.03-.04l-.2-.06v-.08h.9v.07l-.2.06a.05.05 0 0 0-.03.04v1.42zm1.17 0v.28c0 .03.02.04.05.05l.18.05v.08h-.9v-.07l.2-.06a.05.05 0 0 0 .03-.04v-1.7a.05.05 0 0 0-.03-.05l-.2-.06v-.08h.91v.07l-.2.06a.05.05 0 0 0-.04.04v.25z" data-name="Path 91649"/><path fill="#242424" d="M910.35 649.1v.28c0 .03.02.04.05.05l.18.05v.08h-.9l-.01-.08.2-.05a.05.05 0 0 0 .04-.05v-1.7a.05.05 0 0 0-.04-.04l-.2-.06v-.08h.91v.07l-.2.06a.05.05 0 0 0-.03.04v.25zm2.47.45h-.97v-.07l.12-.03a.1.1 0 0 0 .05-.03.05.05 0 0 0 .01-.03.18.18 0 0 0-.02-.08l-.06-.1-.32-.5-.29.45-.08.13a.21.21 0 0 0-.04.1.06.06 0 0 0 .01.03.07.07 0 0 0 .05.02l.12.04v.07h-.7v-.07l.17-.04a.24.24 0 0 0 .1-.06.48.48 0 0 0 .08-.1l.48-.72-.5-.8a.53.53 0 0 0-.08-.1.2.2 0 0 0-.08-.05l-.15-.04-.01-.07h.97v.07l-.12.04a.1.1 0 0 0-.05.02.05.05 0 0 0 0 .04.18.18 0 0 0 .02.08l.06.1.25.4.22-.35a1.34 1.34 0 0 0 .08-.13.23.23 0 0 0 .04-.1c0-.03-.02-.05-.06-.06l-.13-.03v-.08h.69l.01.07-.16.05a.22.22 0 0 0-.1.05 1.01 1.01 0 0 0-.09.13l-.4.6.55.88a.7.7 0 0 0 .1.12.2.2 0 0 0 .08.04l.15.04z" data-name="Path 91643"/><path fill="#242424" d="M932.66 670.71l.05.16.06-.16.35-.94.04-.13a.25.25 0 0 0 .02-.08.05.05 0 0 0-.02-.03.1.1 0 0 0-.04-.03l-.14-.04v-.07H933.64l.01.07-.15.05a.16.16 0 0 0-.09.05.68.68 0 0 0-.05.11l-.72 1.78-.16.01-.63-1.77a.5.5 0 0 0-.06-.13.18.18 0 0 0-.09-.06l-.14-.04v-.07h.91v.07l-.14.04a.11.11 0 0 0-.04.03.06.06 0 0 0-.01.04.3.3 0 0 0 .01.07l.04.13zm1.72.27v.29c0 .02.01.04.05.05l.18.05v.07h-.91v-.06l.2-.06a.05.05 0 0 0 .03-.04v-1.7a.05.05 0 0 0-.03-.05l-.2-.06v-.07h.91v.07l-.2.06a.05.05 0 0 0-.04.04v1.42z" data-name="Path 91640"/><path fill="#8d1d12" d="M948.04 648.93l-1.79-1.28v.99h-12.84V631.9h1.02l-1.29-1.77-1.28 1.77h1.05v16.73h-.14l-.16-.15-9.33 9.28-.92-.91-.5 3 3.02-.49-.75-.75 8.78-8.74v.05h.5v-.5h12.84v.78z" data-name="Path 91723"/><g data-name="Group 83839"><path fill="#544f49" d="M931.67 648.88a1.19 1.19 0 1 0 1.2-1.17h-.01a1.19 1.19 0 0 0-1.2 1.17z" data-name="Path 88795"/></g><path fill="#f6ca9e" d="M1018.82 665.6a10.94 10.94 0 0 1-3.86.67c-9.66.06-25.84-9.6-25.84-9.6.9-.55 3.2-1.63 4.62-2.29a15.84 15.84 0 0 1-7.48.26 39.12 39.12 0 0 1-7.55-2.4c.13-.26 3.46-3.67 3.46-3.67s-7.49-2.26-13.4 2.1l-.06.07-.84 1.19c2.9-.98 5.73-2.56 8.88-1.9-.91 1.37-1.29 2.95-2.76 3.85 4.39 1.29 8.87 3.6 13.43 2.42-.6.44-.66 1.35-1.26 1.79 1.35.65 2.92.77 4.27 1.43 7.92 4.45 16.13 9.4 25.22 8.2a15.05 15.05 0 0 0-3.46 6.1c-2.03 5.86-2.24 12.14-3.5 18.2l-.26 1.21.2-.14.97-.71.29-.96a49.01 49.01 0 0 0 1.24-5.72c3.7 1.16 5.31-5.45.77-5.03.86-5.5 2.08-10.62 6.92-15.07z" data-name="Path 88714"/><path fill="#ffe4c9" d="M990.43 659.5c-1.35-.65-2.92-.77-4.27-1.42.6-.44.65-1.35 1.26-1.79-4.56 1.18-9.04-1.13-13.43-2.42 1.47-.9 1.85-2.48 2.76-3.85-3.15-.67-5.99.92-8.87 1.9-3.05 4.45-6.5 10.87-7.16 17.8a21.98 21.98 0 0 0 .9 8.84l.42 1.15a24.63 24.63 0 0 0 7.25 9.81c.82.7 1.63 1.34 2.43 1.95a37.86 37.86 0 0 0 11.43 6.1 28.58 28.58 0 0 0 4.66 1.05h.03a26.51 26.51 0 0 0 7.81-.08 31.1 31.1 0 0 0 12.77-5.32l.27-1.21c1.25-6.07 1.46-12.35 3.49-18.2a15.05 15.05 0 0 1 3.47-6.1c-9.09 1.19-17.3-3.75-25.22-8.2z" data-name="Path 88715"/><g fill="#fda98e" data-name="Group 83764"><path d="M994.22 682.19c-.42.67-2.62.06-4.92-1.36s-3.81-3.12-3.4-3.79 2.62-.06 4.92 1.36 3.82 3.12 3.4 3.79z" data-name="Path 88717"/><path d="M973.9 669.15c-.45.65-2.62-.06-4.84-1.6s-3.66-3.3-3.21-3.94 2.62.06 4.84 1.6 3.67 3.29 3.21 3.94z" data-name="Path 88718"/></g><path fill="#333" d="M975.99 660.53c-.6 1.32-1.64 2.15-2.35 1.84s-.8-1.64-.2-2.96 1.63-2.16 2.34-1.85.8 1.64.2 2.97z" data-name="Path 88719"/><path fill="#423024" d="M1023.88 649.52c-.3-11.45-21.57-23.54-35.43-18.4-14.1 4.08-18.78 15.92-20.77 20.43a12.87 12.87 0 0 1 1.09-.9c5.91-4.35 13.4-2.09 13.4-2.09a13.61 13.61 0 0 0-3.81 3.83 39.26 39.26 0 0 0 7.9 2.24 15.84 15.84 0 0 0 7.49-.26 73.4 73.4 0 0 0-4.63 2.28s16.18 9.67 25.84 9.61a10.94 10.94 0 0 0 3.86-.67c-4.84 4.46-6.06 9.58-6.92 15.07 4.54-.43 2.94 6.18-.76 5.02a46.06 46.06 0 0 1-1.54 6.69c-.22.69-.47 1.39-.75 2.08 13.23-7.83 32.09-33.28 15.03-44.93z" data-name="Path 88716"/><path fill="#333" d="M997.48 673.27c-.59 1.33-1.64 2.15-2.34 1.84s-.8-1.63-.21-2.96 1.64-2.15 2.34-1.84.8 1.63.21 2.96z" data-name="Path 88720"/><path fill="#fff" d="M994.7 690.59s-26.19-18.59-28.82-12.67c-.53 1.19.14 4.85 2.47 7.76 2.64-1.54 7.12-1.45 11.4.61a14.58 14.58 0 0 1 7 6.7 31.92 31.92 0 0 0 7.95-2.4z" data-name="Path 88721"/><path fill="#ff777c" d="M968.42 685.52a22.69 22.69 0 0 0 8.48 6.36 17.7 17.7 0 0 0 9.94.92 14.55 14.55 0 0 0-7.05-6.58c-4.28-2.07-8.73-2.23-11.37-.7z" data-name="Path 88722"/><path fill="#f3b4a5" d="M1021.33 640.2s12.04-7.25 20.86-7.19c4.37.03 11.4 11.5 12.46 22.75 1.07 11.46-.47 22.3-9.22 18.53-9.46-4.4-5.83-25.51-5.83-25.51l-11.08 2.05a57.2 57.2 0 0 0-7.19-10.63z" data-name="Path 88824"/><path fill="#c39084" d="M1024.65 644.48a56.01 56.01 0 0 1 3.87 6.36l11-2.07c-.13-2.12 1.53-6.9 2.53-9.48-3.96-.38-11.52 2.17-17.4 5.19z" data-name="Path 88825"/><path fill="#f3b4a5" d="M1008.95 631.53s1.95-13.86-1.59-21.9c-1.75-3.98-15.11-5.88-25.92-2.4-11 3.53-20.41 9.22-13.48 15.72 7.8 6.92 25.86-4.72 25.86-4.72l2.47 10.93a57.77 57.77 0 0 1 12.66 2.37z" data-name="Path 88826"/><path fill="#c39084" d="M1003.7 630.18a56.58 56.58 0 0 0-7.4-1.03l-2.44-10.87c2-.72 5.77-4.11 7.76-6.05 1.91 3.47 2.54 11.4 2.07 17.95z" data-name="Path 88827"/><path fill="#fec9c3" d="M1020.03 687.26a32.85 32.85 0 0 0-.62-20.78c-1.08-6.28-5.26-11.68-12.42-16.06a36.9 36.9 0 0 0-40.3-1.3 29.4 29.4 0 0 1 7.03-11 35.26 35.26 0 0 1 23.39-9.36c.63 0 1.26.02 1.88.06a34.77 34.77 0 0 1 8 1.47 35.36 35.36 0 0 1 7.76 3.46 38.87 38.87 0 0 1 13.2 13.36 29.12 29.12 0 0 1 4.22 13.47 32.96 32.96 0 0 1-3.2 15.87 27 27 0 0 1-8.93 10.81z" data-name="Subtraction 4"/><path fill="#c88286" d="M1020.91 646.02c1.01.87 1.55 1.9 1.2 2.3s-1.45.02-2.46-.86-1.55-1.9-1.2-2.3 1.45-.02 2.46.86z" data-name="Path 91585"/><path fill="#c88286" d="M1005.43 637.2c-.2.5-1.36.5-2.6 0s-2.1-1.3-1.9-1.78 1.35-.5 2.6 0 2.1 1.29 1.9 1.78z" data-name="Path 88845"/><g data-name="Group 83873"><path fill="#3c2415" d="M1004.99 635.4a2.22 2.22 0 0 1-3.13 0 2.2 2.2 0 0 1 0-3.1 2.22 2.22 0 0 1 3.13 0 2.2 2.2 0 0 1 0 3.1z" data-name="Path 88846"/><path fill="#fff" d="M1003.84 632.82a.38.38 0 0 1-.54 0 .38.38 0 0 1 0-.54.38.38 0 0 1 .54 0 .38.38 0 0 1 0 .53z" data-name="Path 88847"/></g><path fill="#3c2415" d="M1019.7 643.62a2.22 2.22 0 0 1 3.12.2 2.19 2.19 0 0 1-.18 3.1h-.01a2.22 2.22 0 0 1-3.12-.2 2.2 2.2 0 0 1 .18-3.09z" data-name="Path 91586"/><path fill="#fff" d="M1021.59 644.23a.38.38 0 0 1-.54 0 .38.38 0 0 1 0-.53.38.38 0 0 1 .53 0 .38.38 0 0 1 0 .53z" data-name="Path 88848"/><path fill="#ec8282" d="M1009.08 644.47c2.44 1.5 3.62 4.01 2.63 5.6s-3.77 1.65-6.22.14-3.62-4.02-2.63-5.6 3.77-1.65 6.22-.14z" data-name="Path 91587"/><path fill="#f7cbc0" d="M966.83 619.1s-2.44-2.53 6.46-7.87c8.48-5.1 25.78-6.3 28.67-3.8-4.19 4.8-28.92 19.56-35.13 11.67z" data-name="Path 88850"/><path fill="#f7cbc0" d="M1048.8 672.33s3.42 2.95 5.3-5.78c2.08-9.64-3.78-26.15-7.2-27.88-3.4 9.74-5.2 29.54 1.9 33.66z" data-name="Path 88851"/></g></svg>