<svg xmlns="http://www.w3.org/2000/svg" xmlns:xlink="http://www.w3.org/1999/xlink" width="1022" height="80"><defs><linearGradient id="a" x2="1" y2="1" gradientUnits="objectBoundingBox"><stop offset="0" stop-color="#dff5ff"/><stop offset="1" stop-color="#f6fcff"/></linearGradient><clipPath id="c"><path fill="url(#a)" d="M1.25 0h271.5c.69 0 1.25 1.8 1.25 4v72c0 2.2-.56 4-1.25 4H1.25C.56 80 0 78.2 0 76V4c0-2.2.56-4 1.25-4z" data-name="Path 86998" transform="translate(3574 6365)"/></clipPath><clipPath id="d"><path fill="#c4e8f8" d="M1.5 0h327c.82 0 1.5 1.8 1.5 4v72c0 2.2-.68 4-1.5 4H1.5C.69 80 0 78.2 0 76V4c0-2.2.68-4 1.5-4z" data-name="Path 87000" transform="translate(4268 6365)"/></clipPath><linearGradient id="b" x1="1" x2="1" y1="1" gradientUnits="objectBoundingBox"><stop offset="0" stop-color="#d50918"/><stop offset="1" stop-color="#ff4b2b"/></linearGradient><linearGradient id="e" x1=".74" x2=".74" xlink:href="#b"/><linearGradient id="f" x1=".74" x2=".83" xlink:href="#b"/><linearGradient id="g" x1=".83" x2=".77" xlink:href="#b"/></defs><path fill="#daf0f9" d="M4.67 0h1012.66c2.58 0 4.67 1.8 4.67 4v72c0 2.2-2.09 4-4.67 4H4.67C2.09 80 0 78.2 0 76V4c0-2.2 2.09-4 4.67-4z" data-name="Path 86997"/><g clip-path="url(#c)" data-name="Mask Group 304" transform="translate(-3574 -6365)"><g data-name="025-business" opacity=".8"><path fill="#f599ab" d="M3746.73 6342.27l-25.17 14.78 25.6 14.78 25.6-14.78z" data-name="Path 86854"/><path fill="#f6768f" d="M3747.17 6429.5v-57.67l25.6-14.78v56.64z" data-name="Path 86855"/><g fill="#f34466" data-name="Group 81833"><path d="M3760.35 6364.22v16.2l1.9-1.1v-16.2z" data-name="Path 86856"/><path d="M3747.16 6371.83l-25.6-14.78v57.66l25.6 14.79z" data-name="Path 86857"/></g><path fill="#55b2cb" d="M3798.36 6429.07l-25.6 15.2v-41.46l25.6-14.78z" data-name="Path 86858"/><path fill="#217dbb" d="M3747.16 6429.5v-41.47l25.6 14.78v41.47z" data-name="Path 86859"/><path fill="#76d3ec" d="M3772.76 6373.25l-25.6 14.78 25.6 14.78 25.6-14.78z" data-name="Path 86860"/><path fill="#57aa9a" d="M3824 6444l-25.63 15.08-.01-30.44 25.64-14.94z" data-name="Path 86861"/><path fill="#66bfae" d="M3798.4 6398.95l-25.64 14.91 25.6 14.78 25.6-14.98z" data-name="Path 86862"/><path fill="#389481" d="M3772.76 6444.28v-30.42l25.6 14.78.02 30.44z" data-name="Path 86863"/><path fill="#2fbbc5" d="M3762.25 6379.33l25.5 14.82-2 1.16-25.4-14.9z" data-name="Path 86864"/><path fill="#eb3400" d="M3744.26 6350.67c2.46 0 4.46 1.36 4.46 3.05a2.25 2.25 0 0 1-.38 1.22l13.9 8.19-1.9 1.09-13.59-7.98a5.97 5.97 0 0 1-2.5.53c-2.46 0-4.46-1.37-4.46-3.05s2-3.05 4.47-3.05z" data-name="Path 86865"/><path fill="#0e834c" d="M3785.75 6406.31l2-1.17 16.58 9.7a5.04 5.04 0 0 1 2.08-.36c2.46 0 4.46 1.37 4.46 3.05s-2 3.06-4.46 3.06-4.46-1.37-4.46-3.06a2.3 2.3 0 0 1 .46-1.34z" data-name="Path 86866"/><path fill="#f9e25f" d="M3797.99 6413.48l8.13-3.33-1.42-3.7-4.86 2.15-14.47-36.62-14.12 8.28-20.02-47.44-3.28 1.38 21.6 51.2 13.95-8.2z" data-name="Path 86867"/><g fill="#e74c3c" data-name="Group 81834" transform="translate(3745.3 6329.22)"><circle cx="4.3" cy="4.3" r="4.3" data-name="Ellipse 1951"/><circle cx="4.23" cy="4.23" r="4.23" data-name="Ellipse 1952" transform="translate(58.51 73.59)"/></g><path fill="#304e75" d="M3785.75 6395.3v11l2-1.16v-10.99z" data-name="Path 86868"/></g><g data-name="025-business" opacity=".8"><path fill="#f599ab" d="M3626.43 6367.97l15.13 8.88-15.38 8.89-15.39-8.89z" data-name="Path 86854"/><path fill="#f6768f" d="M3626.17 6420.4v-34.66l-15.38-8.88v34.04z" data-name="Path 86855"/><g fill="#f34466" data-name="Group 81833"><path d="M3618.25 6381.16v9.73l-1.14-.65v-9.74z" data-name="Path 86856"/><path d="M3626.18 6385.74l15.38-8.88v34.65l-15.39 8.88z" data-name="Path 86857"/></g><path fill="#55b2cb" d="M3595.41 6420.13l15.38 9.15v-24.93l-15.38-8.88z" data-name="Path 86858"/><path fill="#217dbb" d="M3626.18 6420.4v-24.93l-15.39 8.88v24.93z" data-name="Path 86859"/><path fill="#76d3ec" d="M3610.8 6386.59l15.38 8.88-15.39 8.88-15.38-8.88z" data-name="Path 86860"/><path fill="#16a085" d="M3580 6429.1l15.4 9.07v-18.3l-15.4-8.97z" data-name="Path 86861"/><path fill="#1abc9c" d="M3595.39 6402.04l15.4 8.95-15.38 8.89-15.38-9z" data-name="Path 86862"/><path fill="#128a72" d="M3610.8 6429.28V6411l-15.4 8.88v18.3z" data-name="Path 86863"/><path fill="#2fbbc5" d="M3617.11 6390.24l-15.32 8.91 1.2.7 15.26-8.96z" data-name="Path 86864"/><path fill="#eb3400" d="M3627.92 6373.02c-1.48 0-2.68.82-2.68 1.83a1.35 1.35 0 0 0 .23.74l-8.36 4.91 1.14.66 8.17-4.8a3.59 3.59 0 0 0 1.5.33c1.48 0 2.68-.83 2.68-1.84s-1.2-1.83-2.68-1.83z" data-name="Path 86865"/><path fill="#0e834c" d="M3602.99 6406.46l-1.2-.7-9.97 5.82a3.03 3.03 0 0 0-1.24-.2c-1.48 0-2.68.81-2.68 1.82s1.2 1.84 2.68 1.84 2.68-.82 2.68-1.84a1.38 1.38 0 0 0-.28-.8z" data-name="Path 86866"/><path fill="#f9e25f" d="M3595.63 6410.77l-4.89-2 .86-2.22 2.92 1.29 8.7-22.02 8.49 4.98 12.03-28.5 1.97.83-12.99 30.76-8.38-4.93z" data-name="Path 86867"/><g fill="#e74c3c" data-name="Group 81834" transform="translate(3587.05 6360.13)"><circle cx="2.58" cy="2.58" r="2.58" data-name="Ellipse 1951" transform="translate(35.09)"/><circle cx="2.54" cy="2.54" r="2.54" data-name="Ellipse 1952" transform="translate(0 44.23)"/></g><path fill="#304e75" d="M3602.99 6399.85v6.6l-1.2-.7v-6.6z" data-name="Path 86868"/></g></g><g data-name="Group 81849"><g data-name="019-doctor"><g fill="#6a7270" data-name="Group 81521"><path d="M103.62 18.07a4.38 4.38 0 0 0-1.97-3.42 1.33 1.33 0 0 0-1.46-.1l-1.4.81v2.92l1.49.88v-1.42a4.16 4.16 0 0 0 1.26 1.4v1.07l1.46-.84a1.36 1.36 0 0 0 .62-1.3z" data-name="Path 85269"/><path d="M101.65 14.65l-.07-.04-2.5 1.45v2.39l1.2.71v-1.43a4.16 4.16 0 0 0 1.27 1.4v1.07l1.46-.84a1.36 1.36 0 0 0 .62-1.3 4.38 4.38 0 0 0-1.98-3.41z" data-name="Path 85270"/><path d="M100.2 20.04a4.42 4.42 0 0 1-1.98-3.42c0-1.25.88-1.76 1.97-1.14a4.38 4.38 0 0 1 1.97 3.43c0 1.25-.88 1.76-1.96 1.13z" data-name="Path 85271"/><path d="M100.19 15.48a4.38 4.38 0 0 1 1.97 3.43c0 1.25-.88 1.76-1.96 1.13" data-name="Path 85272"/></g><path fill="#231f20" d="M101.14 20.26l.04 11.46-3.37 1.94V22.18z" data-name="Path 85273"/><path fill="#474747" d="M94.49 31.74l3.33 1.92V22.18l-3.37-1.94z" data-name="Path 85274"/><path fill="#858e8c" d="M94.5 31.74v3.84l13.3 7.7v-3.85z" data-name="Path 85275"/><path fill="#efb078" d="M111.08 37.5v3.84l-3.29 1.94v-3.85z" data-name="Path 85276"/><path fill="#e8a670" d="M107.8 43.28v-3.85l3.28-1.93" data-name="Path 85277"/><path fill="#b4c1bf" d="M101.18 31.72l9.9 5.78-3.29 1.93-9.96-5.77z" data-name="Path 85278"/><path fill="#c5d6d3" d="M97.83 33.66l3.35-1.94 9.9 5.78" data-name="Path 85279"/><path fill="#5e5e5e" d="M94.45 20.24l3.37-1.92 3.32 1.94-3.33 1.92z" data-name="Path 85280"/><path fill="#474747" d="M101.3 54.83l.04 7.67-3.37 1.94v-7.69z" data-name="Path 85281"/><path fill="#070606" d="M94.65 62.52l3.32 1.92v-7.69l-3.36-1.94z" data-name="Path 85282"/><path fill="#474747" d="M97.97 56.75l-3.36-1.94.04 7.7" data-name="Path 85283"/><path d="M84.69 72.13l13.3-7.68 6.66 3.84-13.31 7.68z" data-name="Path 85284" opacity=".15"/><path fill="#070606" d="M94.65 62.52v3.84l6.69 3.86v-3.85z" data-name="Path 85285"/><path fill="#474747" d="M104.63 64.44v3.83l-3.3 1.94v-3.85z" data-name="Path 85286"/><g fill="#666564" data-name="Group 81522"><path d="M101.34 62.5l3.29 1.94-3.3 1.93L98 64.44z" data-name="Path 85287"/><path d="M88.01 54.85l13.31-7.68v7.68l-13.3 7.68z" data-name="Path 85288"/></g><path fill="#474747" d="M88.01 62.53v-7.68l13.31-7.68" data-name="Path 85289"/><path fill="#070606" d="M81.36 51.01l6.65 3.84v7.69l-6.65-3.84z" data-name="Path 85290"/><path fill="#9b5d1f" d="M81.36 51.01l13.3-7.68 6.66 3.84-13.3 7.69z" data-name="Path 85291"/><path fill="#dde8e6" d="M88.01 31.8l13.31-7.67v23.04l-13.3 7.68z" data-name="Path 85292"/><path fill="#b4c1bf" d="M88.01 54.85V31.81l13.31-7.68" data-name="Path 85293"/><path fill="#474747" d="M93.8 28.82l2.36-1.36v15.37L93.8 44.2z" data-name="Path 85294"/><path fill="#070606" d="M93.8 44.2V28.81l2.36-1.36" data-name="Path 85295"/><g fill="#858e8c" data-name="Group 81523"><path d="M97.85 33.97l2.3-1.34v-.38l-2.3 1.33z" data-name="Path 85296"/><path d="M81.36 27.97l6.65 3.84v23.04l-6.65-3.84z" data-name="Path 85297"/><path d="M81.36 27.97l13.3-7.69 6.66 3.84-13.3 7.69z" data-name="Path 85298"/></g><path fill="#474747" d="M91.34 60.6l.04 7.67L88 70.2v-7.68z" data-name="Path 85299"/><path fill="#070606" d="M84.69 68.3L88 70.22v-7.69l-3.36-1.94z" data-name="Path 85300"/><path fill="#474747" d="M88.01 62.53l-3.36-1.94.04 7.7" data-name="Path 85301"/><path fill="#070606" d="M84.69 68.3v3.84L91.38 76v-3.85z" data-name="Path 85302"/><g fill="#474747" data-name="Group 81524"><path d="M94.67 70.22v3.84L91.37 76v-3.85z" data-name="Path 85303"/><path d="M94.65 66.36l6.69 3.86V68.9l-6.69-3.86z" data-name="Path 85304"/></g><path fill="#070606" d="M101.34 70.22l3.29-1.94v-1.32l-3.3 1.94z" data-name="Path 85305"/><path fill="#474747" d="M84.69 72.14L91.38 76v-1.32l-6.7-3.86z" data-name="Path 85306"/><path fill="#070606" d="M91.37 76l3.3-1.94v-1.32l-3.3 1.94z" data-name="Path 85307"/><path fill="#666564" d="M91.38 68.28l3.29 1.94-3.3 1.93-3.34-1.93z" data-name="Path 85308"/><path fill="#dde8e6" d="M84.69 29.9l.03 11.47-3.36 1.94V31.83z" data-name="Path 85309"/><g fill="#858e8c" data-name="Group 81525"><path d="M78.04 41.39l3.32 1.92V31.83L78 29.89z" data-name="Path 85310"/><path d="M78.04 41.39v3.84l13.3 7.7v-3.85z" data-name="Path 85311"/></g><path fill="#efb078" d="M94.63 47.15V51l-3.29 1.94v-3.85z" data-name="Path 85312"/><path fill="#e8a670" d="M91.34 52.93v-3.85l3.3-1.93" data-name="Path 85313"/><path fill="#b4c1bf" d="M84.72 41.37l9.91 5.78-3.29 1.93-9.96-5.77z" data-name="Path 85314"/><path fill="#c5d6d3" d="M81.38 43.31l3.35-1.94 9.9 5.78" data-name="Path 85315"/><path fill="#b4c1bf" d="M78 29.89l3.36-1.92 3.33 1.94-3.33 1.92z" data-name="Path 85316"/><path fill="#efb078" d="M91.37 14.51l9.97-5.75v17.27l-9.97 5.76z" data-name="Path 85317"/><path fill="#e8a670" d="M91.37 31.79V14.5l9.97-5.75" data-name="Path 85318"/><path fill="#7a4826" d="M91.37 14.51v3.86l9.97-5.76V8.76z" data-name="Path 85319"/><path fill="#6b3d1e" d="M101.35 8.76l-9.98 5.75v3.86" data-name="Path 85320"/><path fill="#e2935d" d="M81.4 8.76l9.98 5.75V31.8l-9.98-5.76z" data-name="Path 85321"/><path fill="#d68b54" d="M81.4 8.76l9.98 5.75V31.8" data-name="Path 85322"/><path fill="#96562a" d="M88.01 16.45l3.36 1.94v-3.88L81.4 8.76v17.27l6.61 3.82z" data-name="Path 85323"/><path fill="#7a4826" d="M88.01 29.85v-13.4l3.36 1.94v-3.88L81.4 8.76" data-name="Path 85324"/><path fill="#c66e42" d="M81.4 8.76L91.37 3l9.97 5.76-9.97 5.75z" data-name="Path 85325"/><path fill="#ba6738" d="M101.35 8.76l-9.98 5.75-9.97-5.75" data-name="Path 85326"/><path fill="#a56032" d="M91.42 14.51v3.86l-9.97-5.76V8.76z" data-name="Path 85327"/><path fill="#96562a" d="M81.45 8.76l9.97 5.75v3.86" data-name="Path 85328"/><g fill="#231f20" data-name="Group 81526"><path d="M92.73 23.07v2.47l2.15-1.24-.02-2.46z" data-name="Path 85329"/><path d="M97.85 20.1v2.47l2.15-1.24-.02-2.46z" data-name="Path 85330"/></g><path fill="#333232" d="M92.41 68.88v.54l-1.64.95v-.55z" data-name="Path 85331"/><path fill="#474747" d="M91.93 68.61l.48.28-1.64.94-.48-.27z" data-name="Path 85332"/><path fill="#070606" d="M90.3 69.56l.47.27v.54l-.48-.28" data-name="Path 85333"/><path fill="#333232" d="M93.7 69.62v.55l-1.63.95v-.55z" data-name="Path 85334"/><path fill="#474747" d="M93.23 69.36l.48.27-1.64.95-.48-.28z" data-name="Path 85335"/><path fill="#070606" d="M91.59 70.3l.48.28v.54l-.48-.28" data-name="Path 85336"/><path fill="#333232" d="M102.48 63.14v.54l-1.64.95v-.55z" data-name="Path 85337"/><path fill="#474747" d="M102 62.87l.48.27-1.64.95-.48-.28z" data-name="Path 85338"/><path fill="#070606" d="M100.36 63.81l.48.28v.54l-.48-.28" data-name="Path 85339"/><path fill="#333232" d="M103.78 63.88v.55l-1.65.94v-.54z" data-name="Path 85340"/><path fill="#474747" d="M103.3 63.61l.48.28-1.64.95-.48-.28z" data-name="Path 85341"/><path fill="#070606" d="M101.66 64.56l.47.28v.53l-.47-.27" data-name="Path 85342"/><path fill="#ad2d00" d="M95.7 26.25v1.68l1.46-.85v-1.67z" data-name="Path 85343"/><path fill="#ff3c00" d="M97.25 37.11l1.05-.6v-1.36l1.32-.76v1.36l.97-.56v1.8l-.97.56v1.36l-1.32.76v-1.36l-1.05.6z" data-name="Path 85344"/><path fill="#858e8c" d="M102 50.82a.28.28 0 0 1-.14-.54l.63-.36v-8.46l-5.62 3.31-.43-.24v-11.4a.28.28 0 1 1 .57 0v10.9l5.61-3.31.43.24v9.13l-.14.25-.76.44a.28.28 0 0 1-.15.04z" data-name="Path 85345"/><path fill="#6a7270" d="M86.43 39.34L86 39.1V25.42a.28.28 0 0 1 .57 0V38.6l9.48-5.45 5.9-3.44V17.4a.28.28 0 1 1 .56 0v12.48l-.14.24-7.4 4.3z" data-name="Path 85346"/><path fill="#dde8e6" d="M88.7 25.8a4.38 4.38 0 0 0-1.97-3.42 1.33 1.33 0 0 0-1.46-.09l-1.4.8v2.92l1.48.88v-1.42a4.16 4.16 0 0 0 1.27 1.4v1.07l1.45-.84a1.36 1.36 0 0 0 .63-1.3z" data-name="Path 85347"/><path fill="#b4c1bf" d="M86.73 22.38l-.07-.03-2.5 1.44v2.4l1.2.7v-1.42a4.16 4.16 0 0 0 1.27 1.4v1.07l1.45-.83a1.36 1.36 0 0 0 .62-1.3 4.38 4.38 0 0 0-1.97-3.43z" data-name="Path 85348"/><path fill="#858e8c" d="M85.27 27.78a4.42 4.42 0 0 1-1.97-3.42c0-1.26.88-1.77 1.96-1.14a4.38 4.38 0 0 1 1.97 3.42c0 1.26-.88 1.77-1.96 1.14z" data-name="Path 85349"/><path fill="#6a7270" d="M85.26 23.22a4.38 4.38 0 0 1 1.97 3.42c0 1.26-.88 1.77-1.96 1.14" data-name="Path 85350"/></g><g data-name="030-analysis"><path fill="#eb6b24" d="M108.23 40a2.25 2.25 0 0 1 .77-.85.7.7 0 0 1 .83-.03l10.51 6.1-.04.08a.56.56 0 0 1 .28.06.5.5 0 0 1 .04.03.84.84 0 0 1 .3.72 2.49 2.49 0 0 1-1.07 1.95.72.72 0 0 1-.8.05l-10.8-6.27a.8.8 0 0 1-.33-.75 2.36 2.36 0 0 1 .3-1.08z" data-name="Path 86975"/><path fill="#ffdc13" d="M119.84 45.44a2.22 2.22 0 0 0-.74.81l-10.87-6.24a2.25 2.25 0 0 1 .78-.86.7.7 0 0 1 .82-.03l10.51 6.1-.04.08a.96.96 0 0 0-.46.14z" data-name="Path 86976"/><path fill="#d74f00" d="M118.76 47.4a2.38 2.38 0 0 1 .34-1.15 2.22 2.22 0 0 1 .75-.8.96.96 0 0 1 .46-.15.56.56 0 0 1 .27.06.5.5 0 0 1 .05.02.84.84 0 0 1 .3.73 2.49 2.49 0 0 1-1.08 1.94.72.72 0 0 1-.79.06.84.84 0 0 1-.3-.72z" data-name="Path 86977"/><path fill="#fff" d="M104.01 57.88l18.48-10.67a3.77 3.77 0 0 1 3.77 0l25.77 14.88a1.93 1.93 0 0 1 0 3.34 1.93 1.93 0 0 0 .97-1.67v.89a1.93 1.93 0 0 1-.97 1.67l-17.77 10.26a4.5 4.5 0 0 1-4.5 0L104.01 61.7a1.7 1.7 0 0 1-.85-1.47v-.88a1.7 1.7 0 0 1 .85-1.48z" data-name="Path 86978"/><g fill="#a1b3c4" data-name="Group 81844"><path d="M146.2 61.77l-17.02 9.77-1.02-.57 17.1-9.78z" data-name="Path 86979"/><path d="M138.78 68.94l-7 4.01-1-.57 7.05-4.02z" data-name="Path 86980"/><path d="M143.67 60.38l-17.03 9.78-1-.58 17.09-9.78z" data-name="Path 86981"/><path d="M141.14 58.99l-17.03 9.78-1-.58 17.09-9.78z" data-name="Path 86982"/><path d="M138.61 57.6l-17.03 9.78-1-.58 17.09-9.78z" data-name="Path 86983"/><path d="M136.08 56.22l-17.03 9.77-1-.57 17.09-9.79z" data-name="Path 86984"/><path d="M133.55 54.83l-17.03 9.78-1.01-.58 17.1-9.78z" data-name="Path 86985"/><path d="M131.02 53.44l-17.03 9.78-1.02-.58 17.1-9.78z" data-name="Path 86986"/><path d="M128.5 52.06l-17.04 9.77-1.01-.57 17.1-9.78z" data-name="Path 86987"/><path d="M125.96 50.67l-17.03 9.78-1.01-.58 17.1-9.78z" data-name="Path 86988"/><path d="M119.32 58.34c0 2.7 4.6 4.88 10.26 4.88s10.26-2.18 10.26-4.88-4.6-4.88-10.26-4.88-10.26 2.19-10.26 4.88z" data-name="Path 86989" opacity=".59"/></g><g fill="#f60" data-name="Group 81845" transform="translate(117.77 42.66)"><path d="M11.5 0C17.85 0 23 2.97 23 6.64V9.2c0 3.67-5.15 6.64-11.5 6.64S0 12.86 0 9.2V6.64C0 2.97 5.15 0 11.5 0z" data-name="Path 86990"/><ellipse cx="11.5" cy="6.64" data-name="Ellipse 1957" rx="11.5" ry="6.64"/></g><path fill="#eb3400" d="M139.13 48.78a3.41 3.41 0 0 1-.68 1.99 2.93 2.93 0 0 0 .08-.63 3.27 3.27 0 0 0-.68-1.93c-1.39-1.91-4.77-3.26-8.72-3.26s-7.34 1.35-8.72 3.26a3.26 3.26 0 0 0-.68 1.93v.04a3.2 3.2 0 0 1-.33-1.4c0-3 4.42-5.45 9.87-5.45s9.86 2.45 9.86 5.45z" data-name="Path 86991"/><path fill="#72eef7" d="M120.4 48.2c1.4-1.9 4.77-3.25 8.73-3.25s7.33 1.35 8.72 3.26a3.27 3.27 0 0 1 .68 1.93 2.93 2.93 0 0 1-.08.63 5.36 5.36 0 0 1-.88.95c-1.75 1.51-4.81 2.5-8.3 2.5s-6.55-1-8.3-2.5a4.81 4.81 0 0 1-1.23-1.54v-.04a3.27 3.27 0 0 1 .67-1.93z" data-name="Path 86992"/><path fill="#d6d6d6" d="M132.01 76.3a4.5 4.5 0 0 0 2.26-.6l17.76-10.27a1.93 1.93 0 0 0 .97-1.67v.89a1.93 1.93 0 0 1-.97 1.67l-17.77 10.26a4.5 4.5 0 0 1-2.25.6v-.89z" data-name="Path 86993"/><path fill="#a1b3c4" d="M104.02 60.83l25.74 14.86a4.5 4.5 0 0 0 2.25.6v.89a4.5 4.5 0 0 1-2.25-.6L104.01 61.7a1.7 1.7 0 0 1-.85-1.47v-.88a1.7 1.7 0 0 0 .86 1.47z" data-name="Path 86994"/><path fill="#fff" d="M120.4 48.2h17.45a3.27 3.27 0 0 1 .68 1.94 2.93 2.93 0 0 1-.08.63 5.36 5.36 0 0 1-.88.95h-16.6a4.8 4.8 0 0 1-1.24-1.54v-.04a3.27 3.27 0 0 1 .68-1.93z" data-name="Path 86995"/><path fill="#a12300" d="M129.27 55.94c6.35 0 11.5-2.98 11.5-6.64v2.55c0 3.67-5.15 6.64-11.5 6.64s-11.5-2.97-11.5-6.64V49.3c0 3.66 5.15 6.64 11.5 6.64z" data-name="Path 86996"/></g></g><g clip-path="url(#d)" data-name="Mask Group 305" opacity=".47" transform="translate(-3576 -6365)"><g data-name="001-cogwheel" opacity=".8"><g data-name="Group 81857"><path fill="#a5f9ff" d="M4641.5 6211.41l-.2-.06c-5.31-1.6-22.68-6.53-23.45-6.73a.24.24 0 0 0-.04 0 332.32 332.32 0 0 0-85.51-10.8c-54.33 0-105.56 12.2-144.25 34.33-40.42 23.12-62.68 54.46-62.68 88.24 0 .99.04 1.97.08 2.96-.06 1.22-.1 2.44-.1 3.66 0 19.01 7.1 37.32 20.7 53.92l-10.8 6.48-.19.02v6.7l70.82 24.46v-6.64l.02.01-.02-.05-.08-.16-24.55-51.9-13.96 8.37c-13.47-13.84-20.96-29.05-21.87-44.62 1.55-25.16 20.07-49.08 52.58-67.68 35.7-20.42 83.4-31.67 134.27-31.67a309.63 309.63 0 0 1 85.52 11.53l23.7-13.34v-7h.03c0-.02-.02-.02-.02-.03z" data-name="Path 86279"/><g data-name="Group 81781"><path fill="#8dafd2" d="M4335.24 6383.4l-.18.04v6.69l70.82 24.46v-6.64l-70.8-24.44z" data-name="Path 86280"/><path fill="#80a0c8" d="M4532.3 6213.62c-48.38 0-90.79 6.8-134.28 31.67-33.98 19.44-52.7 44.69-52.7 71.1 0 1.07.04 2.14.1 3.21 1.54-25.16 20.07-49.08 52.58-67.68 35.7-20.43 83.4-31.67 134.27-31.67a309.63 309.63 0 0 1 85.52 11.53l23.7-13.34v-7l-23.68 13.71c-27.45-7.89-56.47-11.53-85.51-11.53z" data-name="Path 86281"/><path fill="#97bbda" d="M4325.45 6319.35c-.06 1.22-.1 2.44-.1 3.66 0 19.01 7.1 37.32 20.7 53.93l3.77-2.26c-15.28-16.88-23.61-35.71-24.37-55.33z" data-name="Path 86282"/><path fill="#304e75" d="M4641.5 6209.66h-.2l.2.06z" data-name="Path 86283"/><path fill="#304e75" d="M4405.88 6407.84l-.08-.15.08.17z" data-name="Path 86284"/></g></g><g data-name="Group 81856"><path fill="#ffb17d" d="M4601.11 6477.85c.05-1.12.08-2.24.08-3.37 0-17.12-5.73-33.78-16.72-49.13l10.5-6.07v-6.91l-.01-.01-69.18-23.6.01.03v6.9l23.74 49.84 13.76-7.95c10.88 12.68 16.96 26.4 17.83 40.34-1.53 25.37-20.06 49.5-52.57 68.25-35.71 20.6-83.4 31.95-134.28 31.95a320.62 320.62 0 0 1-72.15-8.24c-.06-.01-23.08 13.32-23.08 13.32l.03.02h-.02v6.92c6.66 4.07 22.76 7.17 22.76 7.17a336.13 336.13 0 0 0 72.47 7.7c54.33 0 105.55-12.3 144.24-34.62 40.42-23.31 62.68-54.9 62.68-88.97q0-1.78-.08-3.56z" data-name="Path 86297"/><g fill="#cf8671" data-name="Group 81783"><path d="M4584.47 6425.35l10.5-6.07v-6.91l-.02-.01-14.13 8.16c1.28 1.6 2.49 3.21 3.65 4.83z" data-name="Path 86298"/><path d="M4601.11 6477.86c-1.42 32.77-23.52 63.06-62.6 85.6-38.69 22.31-89.91 34.6-144.24 34.6a336.25 336.25 0 0 1-72.47-7.68s-16.06-3.1-22.74-7.16h-.01v6.92c6.66 4.07 22.76 7.17 22.76 7.17a336.12 336.12 0 0 0 72.46 7.69c54.33 0 105.56-12.29 144.25-34.6 40.42-23.32 62.68-54.92 62.68-88.98q0-1.78-.09-3.56z" data-name="Path 86299"/><path d="M4563.29 6430.64l-13.77 7.95-23.73-49.8v6.91l23.74 49.82 13.76-7.94c10.88 12.68 16.95 26.4 17.83 40.34.07-1.14.12-2.29.12-3.43 0-15.14-6.17-30.1-17.95-43.85z" data-name="Path 86300"/></g></g></g></g><g data-name="Group 81848"><g data-name="030-analysis"><path fill="#eb6b24" d="M889.35 38.18a2.23 2.23 0 0 0-.78-.85.7.7 0 0 0-.81-.03l-10.42 6.04.05.07a.55.55 0 0 0-.28.07.5.5 0 0 0-.04.02h-.01a.83.83 0 0 0-.3.72 2.47 2.47 0 0 0 1.08 1.93.71.71 0 0 0 .78.05l10.7-6.21a.8.8 0 0 0 .33-.74 2.33 2.33 0 0 0-.3-1.07z" data-name="Path 86975"/><path fill="#ffdc13" d="M877.84 43.56a2.2 2.2 0 0 1 .74.8l10.76-6.18a2.23 2.23 0 0 0-.77-.85.7.7 0 0 0-.81-.03l-10.42 6.04.04.07a.95.95 0 0 1 .46.15z" data-name="Path 86976"/><path fill="#d74f00" d="M878.91 45.5a2.36 2.36 0 0 0-.33-1.14 2.2 2.2 0 0 0-.74-.8.95.95 0 0 0-.45-.14.55.55 0 0 0-.28.06.5.5 0 0 0-.04.02h-.01a.83.83 0 0 0-.3.72 2.47 2.47 0 0 0 1.08 1.93.71.71 0 0 0 .78.05.83.83 0 0 0 .3-.7z" data-name="Path 86977"/><path fill="#fff" d="M893.52 55.88l-18.3-10.56a3.74 3.74 0 0 0-3.74 0l-25.52 14.73a1.91 1.91 0 0 0 0 3.31 1.91 1.91 0 0 1-.96-1.65v.88a1.9 1.9 0 0 0 .96 1.65l17.6 10.16a4.46 4.46 0 0 0 4.45 0l25.5-14.72a1.69 1.69 0 0 0 .85-1.46v-.88a1.69 1.69 0 0 0-.84-1.46z" data-name="Path 86978"/><g fill="#a1b3c4" data-name="Group 81844"><path d="M851.73 59.73l16.87 9.68 1-.57-16.93-9.68z" data-name="Path 86979"/><path d="M859.08 66.84l6.93 3.97 1-.57-7-3.98z" data-name="Path 86980"/><path d="M854.24 58.36l16.86 9.68 1-.57-16.93-9.69z" data-name="Path 86981"/><path d="M856.74 56.98l16.87 9.69 1-.58-16.93-9.68z" data-name="Path 86982"/><path d="M859.25 55.6l16.87 9.7 1-.58-16.94-9.69z" data-name="Path 86983"/><path d="M861.75 54.23l16.87 9.69 1-.57-16.93-9.69z" data-name="Path 86984"/><path d="M864.26 52.86l16.86 9.68 1-.57-16.93-9.68z" data-name="Path 86985"/><path d="M866.77 51.49l16.87 9.68 1-.57-16.93-9.69z" data-name="Path 86986"/><path d="M869.27 50.11l16.87 9.69 1-.57-16.93-9.7z" data-name="Path 86987"/><path d="M871.78 48.74l16.87 9.68 1-.57-16.93-9.69z" data-name="Path 86988"/><path d="M878.37 56.34c0 2.67-4.56 4.83-10.17 4.83s-10.17-2.16-10.17-4.83 4.55-4.83 10.17-4.83 10.16 2.16 10.16 4.83z" data-name="Path 86989" opacity=".59"/></g><g fill="#f60" data-name="Group 81845" transform="translate(857.11 40.8)"><path d="M11.4 0C5.1 0 0 2.94 0 6.58V9.1c0 3.64 5.1 6.58 11.4 6.58s11.38-2.94 11.38-6.58V6.58C22.78 2.95 17.68 0 11.4 0z" data-name="Path 86990"/><ellipse cx="11.39" cy="6.58" data-name="Ellipse 1957" rx="11.39" ry="6.58"/></g><path fill="#eb3400" d="M858.73 46.87a3.38 3.38 0 0 0 .68 1.97 2.9 2.9 0 0 1-.08-.63 3.23 3.23 0 0 1 .67-1.9c1.38-1.9 4.73-3.24 8.64-3.24s7.27 1.34 8.64 3.23a3.23 3.23 0 0 1 .67 1.91v.04a3.18 3.18 0 0 0 .33-1.38c0-2.98-4.38-5.4-9.77-5.4s-9.78 2.42-9.78 5.4z" data-name="Path 86991"/><path fill="#72eef7" d="M877.28 46.3c-1.37-1.89-4.72-3.22-8.64-3.22s-7.26 1.33-8.64 3.22a3.23 3.23 0 0 0-.67 1.91 2.9 2.9 0 0 0 .08.63 5.3 5.3 0 0 0 .87.94c1.74 1.5 4.77 2.49 8.22 2.49s6.49-1 8.23-2.49a4.76 4.76 0 0 0 1.22-1.52v-.05a3.23 3.23 0 0 0-.67-1.9z" data-name="Path 86992"/><path fill="#d6d6d6" d="M865.78 74.12a4.45 4.45 0 0 1-2.22-.6l-17.6-10.16a1.91 1.91 0 0 1-.96-1.65v.88a1.9 1.9 0 0 0 .95 1.65l17.6 10.16a4.45 4.45 0 0 0 2.23.6v-.88z" data-name="Path 86993"/><path fill="#a1b3c4" d="M893.52 58.8l-25.5 14.73a4.46 4.46 0 0 1-2.23.6V75a4.45 4.45 0 0 0 2.23-.6l25.5-14.72a1.69 1.69 0 0 0 .84-1.46v-.88a1.69 1.69 0 0 1-.84 1.46z" data-name="Path 86994"/><path fill="#fff" d="M877.28 46.3H860a3.23 3.23 0 0 0-.66 1.91 2.9 2.9 0 0 0 .07.63 5.3 5.3 0 0 0 .87.94h16.45a4.76 4.76 0 0 0 1.22-1.53v-.04a3.23 3.23 0 0 0-.67-1.9z" data-name="Path 86995"/><path fill="#a12300" d="M868.5 53.96c-6.29 0-11.39-2.95-11.39-6.58v2.53c0 3.63 5.1 6.57 11.4 6.57s11.39-2.94 11.39-6.57v-2.53c0 3.63-5.1 6.58-11.4 6.58z" data-name="Path 86996"/></g><g data-name="014-nurse"><path fill="#f9ad95" d="M894.44 53.17l-.03 7.52 3.3 1.9v-7.54z" data-name="Path 84748"/><path fill="#ea8457" d="M900.97 60.71l-3.26 1.88v-7.53l3.3-1.9z" data-name="Path 84749"/><path fill="#ef916c" d="M897.7 55.06l3.3-1.9-.03 7.56" data-name="Path 84750"/><path d="M910.74 70.14L897.7 62.6l-6.53 3.77 13.06 7.54z" data-name="Path 84751" opacity=".19"/><path fill="#070606" d="M900.97 60.71v3.77l-6.56 3.79v-3.78z" data-name="Path 84752"/><path fill="#474747" d="M891.18 62.6v3.76l3.23 1.9V64.5z" data-name="Path 84753"/><path fill="#332e2f" d="M894.41 60.69l-3.23 1.9 3.23 1.9 3.28-1.9z" data-name="Path 84754"/><path fill="#f9ad95" d="M904.22 58.83l-.04 7.52 3.3 1.9v-7.54z" data-name="Path 84755"/><path fill="#ea8457" d="M910.74 66.38l-3.26 1.89v-7.54l3.3-1.9z" data-name="Path 84756"/><path fill="#ef916c" d="M907.48 60.73l3.3-1.9-.04 7.56" data-name="Path 84757"/><path fill="#070606" d="M910.74 66.38v3.77l-6.56 3.79v-3.78z" data-name="Path 84758"/><g fill="#474747" data-name="Group 81503"><path d="M900.95 68.27v3.77l3.23 1.9v-3.78z" data-name="Path 84759"/><path d="M900.97 64.48l-6.56 3.79v-1.3l6.56-3.79z" data-name="Path 84760"/></g><path fill="#070606" d="M894.4 68.27l-3.22-1.9v-1.3l3.23 1.9z" data-name="Path 84761"/><path fill="#474747" d="M910.74 70.15l-6.56 3.8v-1.3l6.56-3.8z" data-name="Path 84762"/><path fill="#070606" d="M904.18 73.94l-3.23-1.9v-1.3l3.23 1.9z" data-name="Path 84763"/><path fill="#332e2f" d="M904.18 66.36l-3.23 1.9 3.23 1.9 3.28-1.9z" data-name="Path 84764"/><path fill="#231f20" d="M894.6 19.25l-.04 11.24 3.3 1.9V21.13z" data-name="Path 84765"/><path fill="#474747" d="M901.13 30.51l-3.27 1.89V21.13l3.3-1.9z" data-name="Path 84766"/><path fill="#ea8457" d="M901.13 30.51v3.77l-13.06 7.56v-3.78z" data-name="Path 84767"/><path fill="#ffbca4" d="M884.84 36.17v3.77l3.23 1.9v-3.78z" data-name="Path 84768"/><path fill="#f9ad95" d="M888.07 41.84v-3.78l-3.23-1.9" data-name="Path 84769"/><path fill="#ffbca4" d="M894.56 30.5l-9.72 5.67 3.23 1.9 9.78-5.67z" data-name="Path 84770"/><path fill="#ffd6ca" d="M897.85 32.4l-3.29-1.9-9.71 5.67" data-name="Path 84771"/><path fill="#5e5e5e" d="M901.16 19.23l-3.3-1.89-3.26 1.9 3.26 1.89z" data-name="Path 84772"/><path fill="#dde8e6" d="M907.48 30.58l-13.05-7.54v22.61l13.05 7.54z" data-name="Path 84773"/><path fill="#b4c1bf" d="M907.48 53.2V30.57l-13.05-7.54" data-name="Path 84774"/><g fill="#858e8c" data-name="Group 81504"><path d="M914 26.81l-6.52 3.77v22.61l6.53-3.77z" data-name="Path 84775"/><path d="M914.01 26.81l-13.05-7.54-6.53 3.77 13.05 7.54z" data-name="Path 84776"/></g><g fill="#aa3805" data-name="Group 81505"><path d="M916.27 7.86l-6.76-3.9v11.71l6.76 3.9z" data-name="Path 84777"/><path d="M916.27 19.58V7.86l-6.76-3.9" data-name="Path 84778"/></g><path fill="#ea552d" d="M919.66 5.9l-3.39 1.96v11.72l3.39-1.96z" data-name="Path 84779"/><path fill="#ef6130" d="M919.66 5.9L912.89 2l-3.38 1.95 6.76 3.9z" data-name="Path 84780"/><path fill="#dde8e6" d="M907.48 49.26l-13.05-7.54v11.63l13.05 7.54z" data-name="Path 84781"/><path fill="#b4c1bf" d="M907.48 60.9V49.25l-13.05-7.54" data-name="Path 84782"/><g fill="#858e8c" data-name="Group 81506"><path d="M914 45.49l-6.52 3.77v11.63l6.53-3.77z" data-name="Path 84783"/><path d="M914 45.49l-6.52 3.77v11.63" data-name="Path 84784"/></g><path fill="#dde8e6" d="M910.74 28.72l-.03 11.24 3.3 1.9V30.6z" data-name="Path 84785"/><path fill="#858e8c" d="M917.27 39.98l-3.26 1.89V30.6l3.3-1.9z" data-name="Path 84786"/><path fill="#ea8457" d="M917.27 39.98v3.77l-13.05 7.56v-3.78z" data-name="Path 84787"/><path fill="#ffbca4" d="M900.99 45.63v3.77l3.23 1.9v-3.78z" data-name="Path 84788"/><path fill="#f9ad95" d="M904.22 51.3v-3.77l-3.23-1.9" data-name="Path 84789"/><path fill="#ffbca4" d="M910.7 39.96L901 45.63l3.23 1.9 9.77-5.66z" data-name="Path 84790"/><path fill="#ffd6ca" d="M913.99 41.87l-3.28-1.9-9.72 5.67" data-name="Path 84791"/><path fill="#dde8e6" d="M917.3 28.7L914 26.8l-3.26 1.9 3.27 1.89z" data-name="Path 84792"/><path fill="#ffbca4" d="M904.18 13.61l-9.78-5.65v16.95l9.78 5.65z" data-name="Path 84793"/><path fill="#d33b22" d="M901.04 26.47l-3.5-2.02v-.44l3.5 2.02z" data-name="Path 84794"/><path fill="#f9ad95" d="M904.18 30.56V13.6l-9.78-5.65" data-name="Path 84795"/><path fill="#19cc9d" d="M904.18 13.61v3.78l-9.78-5.65V7.96z" data-name="Path 84796"/><path fill="#0fb787" d="M894.4 7.96l9.78 5.65v3.78" data-name="Path 84797"/><path fill="#ef916c" d="M913.97 7.96l-9.79 5.65v16.95l9.79-5.65z" data-name="Path 84798"/><path fill="#ea8457" d="M913.97 7.96l-9.79 5.65v16.95" data-name="Path 84799"/><path fill="#dd5b22" d="M907.48 15.51l-3.3 1.9v-3.8l9.78-5.65v16.95l-6.48 3.74z" data-name="Path 84800"/><path fill="#ce5011" d="M907.48 28.66V15.5l-3.3 1.9v-3.8l9.78-5.65" data-name="Path 84801"/><path fill="#5e5e5e" d="M913.97 7.96l-9.79-5.65-9.78 5.65 9.78 5.65z" data-name="Path 84802"/><path fill="#4c4a4b" d="M894.4 7.96l9.78 5.65 9.79-5.65" data-name="Path 84803"/><path fill="#dde8e6" d="M904.18 13.61v3.78l-9.78-5.65V7.96z" data-name="Path 84804"/><path fill="#b4c1bf" d="M894.4 7.96l9.78 5.65v3.78" data-name="Path 84805"/><path fill="#e4efed" d="M913.97 7.96l-9.79-5.65-9.78 5.65 9.78 5.65z" data-name="Path 84806"/><path fill="#dde8e6" d="M894.4 7.96l9.78 5.65 9.79-5.65" data-name="Path 84807"/><path fill="#949b99" d="M904.14 13.61v3.78l9.78-5.65V7.96z" data-name="Path 84808"/><path fill="#858e8c" d="M913.93 7.96l-9.79 5.65v3.78" data-name="Path 84809"/><g fill="#231f20" data-name="Group 81507"><path d="M902.86 22.01v2.42l-2.11-1.21.01-2.42z" data-name="Path 84810"/><path d="M897.83 19.1v2.42l-2.1-1.22v-2.42z" data-name="Path 84811"/></g><path fill="#474747" d="M903.17 66.95v.54l1.6.93v-.53z" data-name="Path 84812"/><path fill="#606060" d="M903.64 66.69l-.47.27 1.6.93.47-.27z" data-name="Path 84813"/><path fill="#231f20" d="M905.25 67.62l-.47.27v.53l.47-.27" data-name="Path 84814"/><path fill="#474747" d="M901.9 67.69v.53l1.6.93v-.53z" data-name="Path 84815"/><path fill="#606060" d="M902.36 67.42l-.46.27 1.6.93.47-.27z" data-name="Path 84816"/><path fill="#231f20" d="M903.97 68.35l-.47.27v.53l.47-.27" data-name="Path 84817"/><path fill="#474747" d="M893.29 61.32v.53l1.6.93v-.53z" data-name="Path 84818"/><path fill="#606060" d="M893.76 61.06l-.47.27 1.6.92.48-.27z" data-name="Path 84819"/><path fill="#231f20" d="M895.37 61.98l-.47.27v.53l.47-.27" data-name="Path 84820"/><path fill="#474747" d="M892.02 62.05v.54l1.6.93v-.54z" data-name="Path 84821"/><path fill="#606060" d="M892.49 61.79l-.47.27 1.6.93.47-.27z" data-name="Path 84822"/><path fill="#231f20" d="M894.1 62.72l-.47.27v.53l.47-.27" data-name="Path 84823"/><path fill="#858e8c" d="M899.4 34.72l-3.72-2.15v-.62l3.72 2.14z" data-name="Path 84824"/><path fill="#ff3c00" d="M899.18 36.95l-1.03-.59v-1.33l-1.3-.75v1.33l-.95-.55v1.77l.95.55v1.33l1.3.75v-1.33l1.03.59z" data-name="Path 84825"/></g></g><text fill="#434c64" data-name="人資想看的他們最知道！" font-family="NotoSansCJKtc-Medium, Noto Sans CJK TC" font-size="20" font-weight="500" transform="translate(273 31)"><tspan x="0" y="0">人資想看的他們最知道！</tspan></text><g data-name="Group 87225"><text fill="#434c64" data-name="履歷健診，交由產業專家您的履歷把關！" font-family="NotoSansCJKtc-Bold, Noto Sans CJK TC" font-size="20" font-weight="700" transform="translate(389 66)"><tspan x="0" y="0">履歷健診，交由產業專家您的履歷把關！</tspan></text><g data-name="圖層 1"><g data-name="Group 71901"><path fill="#fff" d="M333.78 71.16v-16.6c0-.92-.29-1.14-.46-1.32a1.41 1.41 0 0 0-.76-.22h-.12l-1.1.16v-5.27l.69-.24a11.2 11.2 0 0 0 4.58-3.21.2.2 0 0 0 .06-.12l.29-.34h5.4v27.15z" data-name="Union 81"/><path fill="url(#b)" d="M1.69 4.53s-.46.11-.46.28V8.2s-.06.05.18.05a2.16 2.16 0 0 1 2.2 1.32l.11 1.61V26.4h6.61V1.29H6.4a11.25 11.25 0 0 1-4.7 3.24z" data-name="Path 74681" transform="translate(331.07 43.72)"/></g><g data-name="Group 71900"><path fill="#fff" d="M346.45 71.16v-16.6c0-.92-.28-1.14-.46-1.32a1.41 1.41 0 0 0-.75-.22h-.13l-1.1.16v-5.27l.7-.24a11.2 11.2 0 0 0 4.58-3.21.2.2 0 0 0 .06-.12l.28-.34h5.4v27.15z" data-name="Union 82"/><path fill="url(#e)" d="M16.69 4.53s-.46.11-.46.28V8.2s-.06.05.17.05a2.16 2.16 0 0 1 2.2 1.32l.12 1.61V26.4h6.61V1.29H21.4a11.25 11.25 0 0 1-4.7 3.24z" data-name="Path 74682" transform="translate(328.74 43.72)"/></g><g data-name="Group 71898"><path fill="#fff" d="M358.85 71.16v-16.6c0-.92-.29-1.14-.46-1.32a1.41 1.41 0 0 0-.75-.22h-.13l-1.1.16v-5.27l.69-.24a11.2 11.2 0 0 0 4.59-3.21.2.2 0 0 0 .06-.12l.28-.34h5.4v27.15z" data-name="Union 83"/><path fill="url(#f)" d="M31.69 4.53s-.46.11-.46.28V8.2s-.06.05.17.05a2.16 2.16 0 0 1 2.2 1.32l.12 1.61V26.4h6.61V1.29H36.4a11.25 11.25 0 0 1-4.7 3.24z" data-name="Path 74683" transform="translate(326.14 43.72)"/></g><g data-name="Group 71899"><path fill="#fff" d="M371.52 71.16v-16.6c0-.92-.28-1.14-.46-1.32a1.41 1.41 0 0 0-.75-.22h-.13l-1.1.16v-5.27l.7-.24a11.2 11.2 0 0 0 4.58-3.21.2.2 0 0 0 .06-.12l.28-.34h5.4v27.15z" data-name="Union 80"/><path fill="url(#g)" d="M46.69 4.53s-.46.11-.46.28V8.2s-.06.05.18.05a2.16 2.16 0 0 1 2.2 1.32l.11 1.61V26.4h6.61V1.29H51.4a11.25 11.25 0 0 1-4.7 3.24z" data-name="Path 74684" transform="translate(323.81 43.72)"/></g></g></g></svg>