<svg xmlns="http://www.w3.org/2000/svg" width="62" height="62" viewBox="0 0 62 62">
    <defs>
        <style>
            .cls-1{fill:#1c84c6;opacity:.11}.cls-2{fill:#fff}.cls-3{fill:#dde6f3}.cls-4{fill:#2b7dbc}
        </style>
    </defs>
    <g id="driver-icon-lorry" transform="translate(-451 -730)">
        <rect id="Rectangle_23513" width="62" height="62" class="cls-1" data-name="Rectangle 23513" rx="31" transform="translate(451 730)"/>
        <path id="Path_91604" d="M29.5 0A29.5 29.5 0 1 1 0 29.5 29.5 29.5 0 0 1 29.5 0z" class="cls-2" data-name="Path 91604" transform="translate(452.5 731.5)"/>
        <path id="Path_91605" d="M29 0A29 29 0 1 1 0 29 29 29 0 0 1 29 0z" class="cls-3" data-name="Path 91605" transform="translate(453 732)"/>
        <g id="Group_87104" data-name="Group 87104" transform="translate(-12052 5350)">
            <g id="lorry" transform="translate(12515 -4690.6)">
                <g id="Group_84360" data-name="Group 84360" transform="translate(4.13 106.7)">
                    <g id="Group_84359" data-name="Group 84359">
                        <path id="Path_89031" d="M59.446 320a3.8 3.8 0 1 0 3.8 3.8 3.8 3.8 0 0 0-3.8-3.8zm0 6.333a2.533 2.533 0 1 1 2.533-2.533 2.536 2.536 0 0 1-2.533 2.533z" class="cls-4" data-name="Path 89031" transform="translate(-55.646 -320)"/>
                    </g>
                </g>
                <g id="Group_84362" data-name="Group 84362" transform="translate(25.659 106.7)">
                    <g id="Group_84361" data-name="Group 84361">
                        <path id="Path_89032" d="M349.519 320a3.8 3.8 0 1 0 3.8 3.8 3.8 3.8 0 0 0-3.8-3.8zm0 6.333a2.533 2.533 0 1 1 2.533-2.533 2.536 2.536 0 0 1-2.533 2.533z" class="cls-4" data-name="Path 89032" transform="translate(-345.719 -320)"/>
                    </g>
                </g>
                <g id="Group_84364" data-name="Group 84364" transform="translate(0 89.6)">
                    <g id="Group_84363" data-name="Group 84363">
                        <path id="Path_89033" d="M37.367 104.8h-.633V90.233a.634.634 0 0 0-.634-.633H16.467a2.533 2.533 0 0 0-2.533 2.533v13.3h-1.267v-9.5a.634.634 0 0 0-.633-.633h-7.6a.633.633 0 0 0-.527.282l-3.8 5.7a.633.633 0 0 0-.106.351v6.967a.634.634 0 0 0 .633.633h1.883a.641.641 0 0 0 .611-.414 5.075 5.075 0 0 1 4.782-3.386 6.713 6.713 0 0 1 3.7 1.108.678.678 0 0 0 .42.158h1.9v1.9a.634.634 0 0 0 .633.633h9.5a.641.641 0 0 0 .611-.414 5.069 5.069 0 0 1 9.549-.041.634.634 0 0 0 .607.454h2.533A.634.634 0 0 0 38 108.6v-3.167a.633.633 0 0 0-.633-.633zm-28.5-4.117a.317.317 0 0 1-.317.317H2.409a.316.316 0 0 1-.263-.492l2.533-3.8a.317.317 0 0 1 .263-.141H8.55a.317.317 0 0 1 .317.317z" class="cls-4" data-name="Path 89033" transform="translate(0 -89.6)"/>
                    </g>
                </g>
            </g>
        </g>
    </g>
</svg>
