<svg xmlns="http://www.w3.org/2000/svg" width="62" height="62" viewBox="0 0 62 62">
    <defs>
        <style>
            .cls-1{fill:#1c84c6;opacity:.11}.cls-2{fill:#fff}.cls-3{fill:#dde6f3}.cls-4{fill:#2b7dbc}
        </style>
    </defs>
    <g id="driver-icon-trailer" transform="translate(-451 -730)">
        <rect id="Rectangle_23513" width="62" height="62" class="cls-1" data-name="Rectangle 23513" rx="31" transform="translate(451 730)"/>
        <path id="Path_91604" d="M29.5 0A29.5 29.5 0 1 1 0 29.5 29.5 29.5 0 0 1 29.5 0z" class="cls-2" data-name="Path 91604" transform="translate(452.5 731.5)"/>
        <path id="Path_91605" d="M29 0A29 29 0 1 1 0 29 29 29 0 0 1 29 0z" class="cls-3" data-name="Path 91605" transform="translate(453 732)"/>
        <g id="Trailer" transform="translate(449 446.91)">
            <g id="Group_84365" data-name="Group 84365" transform="translate(10 305.09)">
                <path id="Path_89034" d="M262.126-205.826a2.257 2.257 0 0 0-1.119.668c-.4.489-.527 1.1-.527 2.652v1.392h1.12l.028-1.552.028-1.552.263-.254c.245-.254.31-.263 1.288-.291l1.035-.038v-1.11l-.913.009a9.017 9.017 0 0 0-1.203.076z" class="cls-4" data-name="Path 89034" transform="translate(-248.723 205.91)"/>
                <path id="Path_89035" d="M296.7-159.681c-.151.16-.16.762-.16 6.772 0 6.48 0 6.6.188 6.791.141.141.31.188.687.188h.489l.16-.452a2.547 2.547 0 0 1 3.518-1.383 2.531 2.531 0 0 1 1.26 1.467c.094.338.122.367.452.367s.357-.019.517-.47a2.537 2.537 0 0 1 3.123-1.552 2.689 2.689 0 0 1 1.665 1.589l.113.433h7.75l.151-.433a2.478 2.478 0 0 1 1.2-1.4 1.928 1.928 0 0 1 1.157-.273 2.442 2.442 0 0 1 2.407 1.6l.216.508h.452c.367 0 .452-.028.452-.169a2.959 2.959 0 0 1 .959-1.43 2.825 2.825 0 0 1 1.853-.527 2.78 2.78 0 0 1 2.2 1.693l.131.385.536.028c.865.047.9-.019.9-1.6v-1.3h-29.901v-11h-1.158c-1.007-.001-1.186.018-1.317.168z" class="cls-4" data-name="Path 89035" transform="translate(-283.09 162.012)"/>
                <path id="Path_89036" d="M372.653-159.88c-.16.16-.16 9.584 0 9.744s28.583.16 28.743 0 .16-9.584 0-9.744-28.583-.16-28.743 0zm2.521 4.919v3.245h-.47v-6.49h.47zm2.728 0v3.245h-.564v-6.49h.564zm2.634 0v3.245h-.47v-6.49h.47zm2.728 0v3.245h-.564v-6.49h.564v3.245zm2.728 0v3.245h-.565v-6.49h.564v3.245zm2.633 0v3.245h-.564v-6.49h.564zm2.634 0v3.245h-.47v-6.49h.47zm2.728 0v3.245h-.564v-6.49h.564zm2.633 0v3.245h-.47v-6.49h.47zm2.728 0v3.245h-.564v-6.49h.564z" class="cls-4" data-name="Path 89036" transform="translate(-355.516 162.155)"/>
                <path id="Path_89037" d="M17.515-93.457c-.245.226-.376.527-.884 2.182l-.592 1.928-2.709.856c-1.5.47-2.812.912-2.925.978-.358.226-.4.5-.4 2.3 0 2.088.019 2.135.9 2.2l.555.038.179-.452A2.457 2.457 0 0 1 13.9-85a2.314 2.314 0 0 1 2.22 1.4l.3.6h6.462v-4.985c0-5.342 0-5.4-.461-5.643a15.791 15.791 0 0 0-2.4-.094h-2.22zm4.223 2.5a5.56 5.56 0 0 1-.084 1.712c-.084.1-.517.132-2.078.132-1.693 0-1.966-.019-2.022-.151a17.194 17.194 0 0 1 .64-3.2c.094-.113.452-.132 1.815-.113l1.7.028z" class="cls-4" data-name="Path 89037" transform="translate(-10 98.986)"/>
                <path id="Path_89038" d="M56.815 109.045a1.633 1.633 0 0 0-.809.8 1.771 1.771 0 1 0 3.3.367 2.027 2.027 0 0 0-1.006-1.195 2.124 2.124 0 0 0-1.485.028zm1.3 1.27c.48.64-.433 1.345-1.006.771a.762.762 0 0 1 .009-.9.691.691 0 0 1 .995.129z" class="cls-4" data-name="Path 89038" transform="translate(-53.664 -94.12)"/>
                <path id="Path_89039" d="M343.618 108.767a1.647 1.647 0 0 0-.988 1.636 1.751 1.751 0 0 0 3.235.9 1.285 1.285 0 0 0 .226-1.016 1.468 1.468 0 0 0-.292-.969 1.839 1.839 0 0 0-2.181-.551zm1.195 1.129a.6.6 0 0 1 .122.771.592.592 0 0 1-.969.216.6.6 0 0 1-.113-.894.665.665 0 0 1 .959-.089z" class="cls-4" data-name="Path 89039" transform="translate(-327.017 -93.842)"/>
                <path id="Path_89040" d="M466.294 108.818a1.8 1.8 0 0 0-.9.941 1.719 1.719 0 0 0 1.242 2.408 1.773 1.773 0 0 0 1.843-2.718 1.879 1.879 0 0 0-2.185-.631zM467.47 110a.613.613 0 0 1-.056.931.536.536 0 0 1-.837-.038.612.612 0 0 1 .423-1.081.75.75 0 0 1 .47.188z" class="cls-4" data-name="Path 89040" transform="translate(-443.862 -93.921)"/>
                <path id="Path_89041" d="M738.529 108.776a1.711 1.711 0 0 0-.959 1.815 1.746 1.746 0 0 0 1.721 1.524 1.713 1.713 0 0 0 1.749-1.355 1.684 1.684 0 0 0-.414-1.571 1.742 1.742 0 0 0-2.097-.413zm1.279 1.157a.578.578 0 0 1-.047.874.536.536 0 0 1-.837.038.664.664 0 0 1-.085-.95.724.724 0 0 1 .969.038z" class="cls-4" data-name="Path 89041" transform="translate(-703.409 -93.833)"/>
                <path id="Path_89042" d="M867.38 108.861a1.917 1.917 0 0 0-.583.461 1.743 1.743 0 0 0 1.336 2.925 1.674 1.674 0 0 0 1.392-.715 1.836 1.836 0 0 0-.047-2.192 1.932 1.932 0 0 0-2.098-.479zm1.195 1.157a.654.654 0 0 1-.075.959.621.621 0 0 1-1.073-.489.711.711 0 0 1 1.148-.47z" class="cls-4" data-name="Path 89042" transform="translate(-826.138 -93.964)"/>
            </g>
        </g>
    </g>
</svg>
