<svg xmlns="http://www.w3.org/2000/svg" width="62" height="62" viewBox="0 0 62 62">
    <defs>
        <style>
            .cls-1{fill:#1c84c6;opacity:.11}.cls-2{fill:#fff}.cls-3{fill:#dde6f3}.cls-4{fill:#2b7dbc}
        </style>
    </defs>
    <g id="driver-icon-moto" transform="translate(-451 -730)">
        <rect id="Rectangle_23513" width="62" height="62" class="cls-1" data-name="Rectangle 23513" rx="31" transform="translate(451 730)"/>
        <path id="Path_91604" d="M29.5 0A29.5 29.5 0 1 1 0 29.5 29.5 29.5 0 0 1 29.5 0z" class="cls-2" data-name="Path 91604" transform="translate(452.5 731.5)"/>
        <path id="Path_91605" d="M29 0A29 29 0 1 1 0 29 29 29 0 0 1 29 0z" class="cls-3" data-name="Path 91605" transform="translate(453 732)"/>
        <g id="motorbike" transform="translate(464 746)">
            <g id="Group_84356" data-name="Group 84356">
                <g id="Group_84355" data-name="Group 84355">
                    <path id="Path_89029" d="M32.737 64.368a4.186 4.186 0 0 0-3.183.554l-.9-1.046c1.509-1.146 3.424-1.467 6.625-.823a.6.6 0 0 0 .721-.588c0-1.631-1.873-3.6-4.2-3.6a6.646 6.646 0 0 0-1.2.119c-.051-4.089-.771-5.943-3.171-8.343l-.19-.19a7.544 7.544 0 0 1-1.67-2.074 11.707 11.707 0 0 0 2.623.287.6.6 0 0 0 .613-.6v-4.8a.6.6 0 0 0-.587-.6c-3.139 0-5.566 1.081-5.953 2.579l-3.9 1.67a.6.6 0 0 0 .236 1.151.588.588 0 0 0 .236-.049l2.206-.946c0 .011 0 .022.007.032 2.631 6.074 3.173 10.047 1.658 12.147-1.193 1.654-3.764 2.336-8.04 2.117a.6.6 0 0 1-.549-.735c.215-.915.587-2.521.773-3.451a.6.6 0 0 0-.59-.715H1.875a.586.586 0 0 0-.493.256 7.027 7.027 0 0 0-.741 1.544L.2 60.065a14.671 14.671 0 0 0-.2 2.4 3.416 3.416 0 0 0 2.727 3.377 4.184 4.184 0 0 0-.354 4.741A4.142 4.142 0 0 0 5.1 72.571a4.16 4.16 0 0 0 4.956-5.126 36.075 36.075 0 0 0 4.843.344 32.11 32.11 0 0 0 9.756-1.523 9.781 9.781 0 0 0-.058 1 .6.6 0 0 0 1.114.31 17.647 17.647 0 0 1 2.056-2.89l.873 1.019a4.195 4.195 0 1 0 4.094-1.336zM8.971 68.884a3 3 0 1 1-5.83-1.351A2.9 2.9 0 0 1 4 66.229l.031-.028c.8.217 1.591.416 2.365.589L5.5 68.132a.6.6 0 0 0 1 .666l1.164-1.746c.366.071.728.134 1.088.195l.077.217a3.027 3.027 0 0 1 .142 1.42zM31 71.361a2.987 2.987 0 0 1-1.559-4.727l1.9 2.221a.6.6 0 1 0 .91-.781l-1.9-2.221a2.907 2.907 0 0 1 2.585-.16A3 3 0 0 1 31 71.361z" class="cls-4" data-name="Path 89029" transform="translate(0 -42.665)"/>
                </g>
            </g>
            <g id="Group_84358" data-name="Group 84358" transform="translate(1.8 10.2)">
                <g id="Group_84357" data-name="Group 84357">
                    <path id="Path_89030" d="M37.229 187.731H27.171c-.971 0-1.571.373-1.571 1.2v.6a.6.6 0 0 0 .6.6h12a.6.6 0 0 0 .6-.6v-.6c0-.831-.6-1.2-1.571-1.2z" class="cls-4" data-name="Path 89030" transform="translate(-25.6 -187.731)"/>
                </g>
            </g>
        </g>
    </g>
</svg>
