<svg xmlns="http://www.w3.org/2000/svg" width="48" height="48" viewBox="0 0 48 48">
  <g id="education" transform="translate(-7690 135)">
    <g id="education-2" data-name="education" transform="translate(7690 -135)">
      <g id="Path_88443" data-name="Path 88443" opacity="0">
        <path id="Path_91597" data-name="Path 91597" d="M46.5,46.5H.5V.5h46Z" transform="translate(0.5 0.5)" fill="gray"/>
        <path id="Path_91598" data-name="Path 91598" d="M2,2V46H46V2H2M0,0H48V48H0Z" fill="#707070"/>
      </g>
    </g>
    <g id="college-graduation_1_" data-name="college-graduation (1)" transform="translate(7693.991 -127.009)">
      <g id="Layer_5_59_">
        <g id="Group_82879" data-name="Group 82879">
          <path id="Path_88615" data-name="Path 88615" d="M65.288,209.7a5.2,5.2,0,0,1-5.134,0l-11.622-7.136s-1.05-.644-1.05.814V210.5c0,3.75,6.822,7.8,15.24,7.8s15.24-4.042,15.24-7.8v-7.52c0-1.17-.746-.6-.746-.6Z" transform="translate(-42.713 -185.634)" fill="gray"/>
          <path id="Path_88616" data-name="Path 88616" d="M39.334,47.909a1.076,1.076,0,0,0,0-2L21.628,37.054a3.414,3.414,0,0,0-3.248,0L.674,45.916a1.076,1.076,0,0,0,0,2L18.38,58.776a3.414,3.414,0,0,0,3.248,0" transform="translate(0.004 -36.644)" fill="gray"/>
          <path id="Path_88617" data-name="Path 88617" d="M358.742,198.091v-12s0-.568-.328-.38a9.814,9.814,0,0,0-1.166.724,1,1,0,0,0-.2.76v10.89a.32.32,0,0,1-.2.266,2.072,2.072,0,1,0,2.09,0,.308.308,0,0,1-.2-.26Z" transform="translate(-320.135 -170.728)" fill="gray"/>
        </g>
      </g>
    </g>
  </g>
</svg>
