<svg xmlns="http://www.w3.org/2000/svg" width="63.998" height="51.227" viewBox="0 0 63.998 51.227">
  <g id="filter-mail" transform="translate(0.001 0)">
    <path id="Path_88982" data-name="Path 88982" d="M26.888,141.094l10.8-9.163a18.058,18.058,0,0,1-1.344-1.282,17.366,17.366,0,0,1-4.739-11.076H5.078a4.538,4.538,0,0,0-4.445,3.651L21.739,141.1a3.97,3.97,0,0,0,5.15,0Zm0,0" transform="translate(-0.547 -103.152)" fill="#34495e"/>
    <path id="Path_88983" data-name="Path 88983" d="M290,73.819l6.432,7.21a.963.963,0,0,1,.244.641v8.1l3.953-1.879V81.67a.96.96,0,0,1,.244-.64l6.432-7.21v-.1H290Zm0,0" transform="translate(-250.173 -63.591)" fill="#34495e"/>
    <path id="Path_88984" data-name="Path 88984" d="M27.585,180.862a5.886,5.886,0,0,1-7.636,0L0,163.972v24.175a4.5,4.5,0,0,0,.551,2.164l11.485-11.747a.961.961,0,1,1,1.374,1.344l-11.6,11.863a4.509,4.509,0,0,0,2.719.908H42.986a4.508,4.508,0,0,0,2.713-.9L34.038,179.911a.962.962,0,0,1,1.371-1.348l11.555,11.756a4.5,4.5,0,0,0,.555-2.171V174.389a17.222,17.222,0,0,1-8.811-2.96Zm0,0" transform="translate(0 -141.453)" fill="#34495e"/>
    <path id="Path_88985" data-name="Path 88985" d="M290,51.309h17.3v1.154H290Zm0,0" transform="translate(-250.173 -44.262)" fill="#34495e"/>
    <path id="Path_88986" data-name="Path 88986" d="M255.516,0a15.519,15.519,0,0,0-11.281,26.177,15.807,15.807,0,0,0,1.971,1.764,1,1,0,0,1,.127.1,15.356,15.356,0,0,0,9.184,3,15.52,15.52,0,0,0,0-31.039Zm10.575,10.6a.961.961,0,0,1-.244.64l-6.432,7.21v6.462a.962.962,0,0,1-.549.869l-5.875,2.792a.961.961,0,0,1-1.373-.868V18.445l-6.432-7.21a.961.961,0,0,1-.244-.64V6.085a.962.962,0,0,1,.961-.961H265.13a.961.961,0,0,1,.961.961Zm0,0" transform="translate(-207.036)" fill="#34495e"/>
  </g>
</svg>
