<svg xmlns="http://www.w3.org/2000/svg" width="48" height="48"><defs><clipPath id="a"><circle cx="24" cy="24" r="24" fill="#d9edfb" data-name="Ellipse 254" transform="translate(10584 -192)"/></clipPath><clipPath id="b"><path fill="none" d="M0 0h46v46H0z" data-name="Rectangle 23903"/></clipPath></defs><g transform="translate(-10704 147)"><circle cx="24" cy="24" r="24" fill="#d9edfb" data-name="Ellipse 245" transform="translate(10704 -147)"/><g clip-path="url(#a)" data-name="Mask Group 24" transform="translate(120 45)"><g data-name="Group 84212"><g clip-path="url(#b)" data-name="Group 84211" transform="translate(10585 -190)"><g data-name="Group 84210"><g data-name="Group 84181"><g data-name="Group 84168"><g data-name="Group 84163"><g data-name="Group 84162"><path fill="#f0bc7a" d="M29.48 35.27c0 1.1-2.9 1.98-6.49 1.98s-6.48-.88-6.48-1.98c1.13 0 2.84-.92 2.84-2.05v-3.54h7.3v3.54c0 1.13 1.7 2.05 2.83 2.05z" data-name="Path 91869"/></g></g><g data-name="Group 84165"><g data-name="Group 84164"><path fill="#8d6b52" d="M32.87 14.5c-.11 1.52-.91 6.66-1.17 6.66H14.29c-.26 0-1.05-5.14-1.17-6.67-.38-5.13 4.4-9.32 9.88-9.32a10.28 10.28 0 0 1 5.03 1.3c3.04 1.7 5.09 4.77 4.84 8.02z" data-name="Path 91870"/></g></g><g data-name="Group 84167"><g data-name="Group 84166"><path fill="#fcca89" d="M31.71 14.77v6.1c0 2.72-2.33 6.71-5.07 8.88a6.75 6.75 0 0 1-3.18 1.52l-.22.02H23a3.6 3.6 0 0 1-.46-.03 6.6 6.6 0 0 1-3.19-1.5c-2.74-2.17-5.07-6.16-5.07-8.9v-6.09a8.71 8.71 0 1 1 17.43 0z" data-name="Path 91871"/></g></g></g><g data-name="Group 84170"><g data-name="Group 84169"><path fill="#fcca89" d="M15 17.52c0 1.59-.32 2.88-.72 2.88-.24 0-.45-.48-.59-1.22a10 10 0 0 1-.13-1.66 5.87 5.87 0 0 1 .13-1.4c.14-.5.35-.68.6-.68.4 0 .72.48.72 2.08z" data-name="Path 91872"/></g></g><g data-name="Group 84172"><g data-name="Group 84171"><path fill="#fcca89" d="M32.43 17.52a9.92 9.92 0 0 1-.12 1.63c-.13.76-.36 1.25-.6 1.25-.4 0-.73-1.29-.73-2.88s.33-2.08.73-2.08c.24 0 .46.19.6.7a5.86 5.86 0 0 1 .12 1.38z" data-name="Path 91873"/></g></g><g data-name="Group 84174"><g data-name="Group 84173"><path fill="#8d6b52" d="M26.09 5.76s3.82 1.65 5.91.66-.98 2.9-1.7 3.6c-2.67 2.6-4.17 4.06-16.15 3.62-1.1-.64 2.45-6.93 7.25-7.88.43-.09 4.69 0 4.69 0z" data-name="Path 91874"/></g></g><g data-name="Group 84176"><g data-name="Group 84175"><path fill="#8d6b52" d="M32.24 13.37a9.87 9.87 0 0 1-6.49-3.35c-.71-.7-3.8-4.6-1.7-3.6a6.02 6.02 0 0 0 3.7.06 9.3 9.3 0 0 1 4.49 6.9z" data-name="Path 91875"/></g></g><g data-name="Group 84178"><g data-name="Group 84177"><path fill="#8d6b52" d="M15.19 16.86a.98.98 0 0 1-.98.99v-5.2h.98z" data-name="Path 91876"/></g></g><g data-name="Group 84180"><g data-name="Group 84179"><path fill="#8d6b52" d="M31.78 17.84a.98.98 0 0 1-.98-.98v-4.2h.98z" data-name="Path 91877"/></g></g></g><g data-name="Group 84183"><g data-name="Group 84182"><path fill="#1966d3" d="M35.36 58.94v-23.3a5.28 5.28 0 0 0-1.94-.37h-3.93a.7.7 0 0 1-.14.4 1.44 1.44 0 0 1-.34.34l-.03.04a2.88 2.88 0 0 1-.27.15A12.73 12.73 0 0 1 23 37.25c-.4 0-.79 0-1.17-.03h-.14l-.32-.03a11.23 11.23 0 0 1-3.9-.88c-.6-.3-.96-.65-.96-1.03h-3.93a5.28 5.28 0 0 0-1.94.36v23.3z" data-name="Path 91878"/></g></g><g data-name="Group 84185"><g data-name="Group 84184"><path fill="#e6e6e6" d="M29.48 35.46l-.01.28a.96.96 0 0 1-.02.18 3.08 3.08 0 0 1-.1.53.97.97 0 0 1-.02.12 1.69 1.69 0 0 1-.06.2 4.08 4.08 0 0 1-.16.45l-.2.4a5.52 5.52 0 0 1-.37.57l-.14.18a9.7 9.7 0 0 1-.64.67l-.36.3a5.17 5.17 0 0 1-.78.5c-.14.07-.27.14-.42.2l-.43.2-.44.15-.45.13-.4.09a.53.53 0 0 0-.06 0l-.47.08h-.05a18.5 18.5 0 0 1-.9.05l-.46-.01-.47-.04-.27-.04a4.6 4.6 0 0 1-.66-.13l-.45-.13a11.86 11.86 0 0 1-.88-.34 3.53 3.53 0 0 1-.42-.21 5.67 5.67 0 0 1-.4-.24 4.07 4.07 0 0 1-.38-.26 4.24 4.24 0 0 1-.33-.28l-.03-.02c-.11-.1-.23-.2-.33-.31-.04-.04-.08-.08-.1-.12-.07-.06-.12-.12-.17-.19a.2.2 0 0 1-.04-.04c-.1-.12-.19-.24-.27-.37l-.03-.04-.2-.31a.11.11 0 0 1-.02-.03 4.94 4.94 0 0 1-.28-.62 4.34 4.34 0 0 1-.2-.65 4.33 4.33 0 0 1-.05-.37 3.75 3.75 0 0 1-.04-.53v-.18a.03.03 0 0 0 .02.01h.01a33.34 33.34 0 0 0 4.84.17l1.6 1.78 1.65-1.8a67 67 0 0 0 4.83-.17 1.61 1.61 0 0 1 0 .2z" data-name="Path 91879"/></g></g><g data-name="Group 84187"><g data-name="Group 84186"><path fill="#416691" d="M35.86 58.94v-23.3a8.23 8.23 0 0 0-2.44-.37h-3.93a.04.04 0 0 1-.02.01 1.7 1.7 0 0 1 0 .18v.27a.96.96 0 0 1-.02.18 3.06 3.06 0 0 1-.09.53.97.97 0 0 1-.03.13 1.68 1.68 0 0 1-.06.2 4.1 4.1 0 0 1-.16.44l-.2.41a5.5 5.5 0 0 1-.37.57l-.14.18a9.7 9.7 0 0 1-.64.66 11.43 11.43 0 0 1-.74.57l-.4.24c-.14.08-.27.14-.42.2l-.43.2-.44.15-.45.12-.4.1a.54.54 0 0 0-.06 0l-.47.07h-.05a18.5 18.5 0 0 1-.9.06c-.16 0-.31 0-.46-.02l-.47-.04c-.1 0-.18-.02-.27-.03a4.66 4.66 0 0 1-.66-.14l-.45-.12c-.15-.04-.3-.1-.45-.16l-.43-.19a3.5 3.5 0 0 1-.42-.2 6.08 6.08 0 0 1-.4-.24 4.15 4.15 0 0 1-.38-.27 4.46 4.46 0 0 1-.33-.27l-.03-.02c-.11-.1-.23-.2-.33-.32l-.1-.1-.17-.2a.2.2 0 0 1-.04-.04c-.1-.12-.19-.24-.27-.37l-.03-.04-.2-.31a.11.11 0 0 1-.01-.03 4.94 4.94 0 0 1-.29-.63 4.33 4.33 0 0 1-.19-.64 4.37 4.37 0 0 1-.06-.37 3.75 3.75 0 0 1-.03-.53v-.18a.03.03 0 0 1-.01-.01h-3.94a8.27 8.27 0 0 0-2.44.36v23.3z" data-name="Path 91880"/></g></g><g data-name="Group 84194"><g data-name="Group 84190"><g data-name="Group 84189"><g data-name="Group 84188"><path fill="#1966d3" d="M30.47 35.27h-.99a.04.04 0 0 1-.01.01 1.7 1.7 0 0 1 0 .18v.27a.96.96 0 0 1-.02.18 3.07 3.07 0 0 1-.1.54.96.96 0 0 1-.02.12 1.67 1.67 0 0 1-.06.2 4.08 4.08 0 0 1-.16.44l-.2.41a5.52 5.52 0 0 1-.37.57l-.15.18a9.7 9.7 0 0 1-.63.66 11.43 11.43 0 0 1-.74.57c-.13.08-.26.17-.4.24l-.42.2-.43.2-.44.15-.45.12-.4.1a.53.53 0 0 0-.06 0l-.47.07h-.05a18.5 18.5 0 0 1-.9.06c-.16 0-.31 0-.46-.02l-.47-.04c-.1 0-.18-.02-.27-.03a4.66 4.66 0 0 1-.66-.14l-.45-.12c-.15-.04-.3-.1-.45-.16l-.43-.18a3.5 3.5 0 0 1-.42-.22 6.35 6.35 0 0 1-.4-.23 4.14 4.14 0 0 1-.38-.27 4.46 4.46 0 0 1-.33-.27l-.03-.02c-.11-.1-.23-.2-.33-.31-.04-.04-.08-.08-.1-.12l-.17-.19a.2.2 0 0 1-.03-.04c-.1-.12-.2-.24-.28-.37l-.03-.04-.19-.31a.11.11 0 0 1-.02-.03 4.94 4.94 0 0 1-.28-.62 4.33 4.33 0 0 1-.2-.65 4.37 4.37 0 0 1-.06-.37 3.75 3.75 0 0 1-.03-.53v-.18l-.01-.01h-1v.2a4.06 4.06 0 0 0 .04.56.42.42 0 0 0 0 .08c0 .1.02.2.04.3a.03.03 0 0 0 0 .02.26.26 0 0 0 .02.08.1.1 0 0 0 0 .03.11.11 0 0 0 .01.04 4.45 4.45 0 0 0 .15.53 4.07 4.07 0 0 0 .19.52c.07.16.16.33.25.49l.03.06a2.89 2.89 0 0 0 .17.28l.09.12a4.2 4.2 0 0 0 .32.44l.11.13a.88.88 0 0 0 .1.12l.15.15a5.9 5.9 0 0 0 .78.69l.03.02c.14.11.3.21.44.3a.9.9 0 0 0 .08.06l.3.18.09.05.47.24.05.02.3.13.15.06.5.17.52.15.52.1c.17.06.35.06.52.08l.54.06.52.01c.18 0 .36 0 .53-.02a.37.37 0 0 0 .08 0l.46-.05c.17-.02.35-.04.52-.08l.52-.1a6.82 6.82 0 0 0 1.02-.33l.5-.2.24-.12.23-.13a7.73 7.73 0 0 0 .9-.58 5.24 5.24 0 0 0 .42-.34 1 1 0 0 0 .11-.1 1.74 1.74 0 0 0 .15-.13l.07-.07a.6.6 0 0 1 .06-.07l.36-.4a5 5 0 0 0 .33-.44 4.18 4.18 0 0 0 .28-.46l.11-.2.14-.3a3.5 3.5 0 0 0 .19-.52l.08-.26a2.58 2.58 0 0 0 .06-.26.02.02 0 0 0 0-.01 5.33 5.33 0 0 0 .1-.55.62.62 0 0 0 0-.08 1.5 1.5 0 0 0 0-.2 2.23 2.23 0 0 0 .02-.28v-.02a1.55 1.55 0 0 0 0-.17z" data-name="Path 91881"/></g></g></g><g data-name="Group 84193"><g data-name="Group 84192"><g data-name="Group 84191"><path fill="#4677af" d="M23 40.74l-.47-.01-.06 1 .53.02zm.94-.05h-.04l-.43.04.06 1h.08l.46-.05zm-2.15-.04a2.03 2.03 0 0 1-.2-.03l-.17.99.52.07.12-1-.27-.03zm3.09-.13l-.41.09a.53.53 0 0 0-.06 0l.18 1c.18-.04.35-.07.52-.12zm-4.2-.12l-.3.95.52.15.24-.98-.46-.13zm5.09-.16l-.44.15.3.96.12-.04.38-.14zm-5.96-.18l-.43.9v.01a.23.23 0 0 0 .05.02l.3.12.14.06.36-.93c-.14-.06-.29-.12-.42-.19zm6.8-.22l-.41.21.42.9a2.22 2.22 0 0 0 .25-.11l.23-.13zM19 39.61l-.55.84.08.05.3.17a.56.56 0 0 0 .09.06l.48-.89-.4-.23zm9.01.52l-.6-.8a7.2 7.2 0 0 1-.38.27l.54.84.44-.3zm-9.73-1.06l-.03-.02-.66.75.39.31.04.03.6-.8a3.58 3.58 0 0 1-.34-.27zm10.54.35l-.72-.7c-.1.12-.22.22-.33.32l.66.75.11-.1a1.74 1.74 0 0 0 .14-.14l.07-.06.07-.07zm-11-.8l-.17-.2a.2.2 0 0 1-.03-.03l-.78.63a1.51 1.51 0 0 0 .12.14.88.88 0 0 0 .1.11 2.08 2.08 0 0 0 .15.16l.71-.7-.1-.11zm11.69-.05l-.82-.56-.14.19-.14.18.77.63c.12-.14.23-.29.33-.44zm-12.2-.6l-.2-.3a.11.11 0 0 1-.01-.04l-.88.49a.48.48 0 0 0 .04.06 2.89 2.89 0 0 0 .17.28 1.2 1.2 0 0 0 .08.13l.83-.57-.03-.05zm12.73-.36l-.92-.4-.2.4.87.5.1-.2.15-.3zm-13.23-.6a1.5 1.5 0 0 1-.08-.2l-.95.3a4.07 4.07 0 0 0 .2.52l.91-.4-.08-.22zm12.58-.65a.39.39 0 0 1-.02.09.96.96 0 0 1-.03.12 1.67 1.67 0 0 1-.06.21v.01l.95.31.08-.27a2.58 2.58 0 0 0 .06-.25.02.02 0 0 0 0-.02zM16.55 36a.3.3 0 0 1-.01-.07l-1 .1.01.08.04.3a.03.03 0 0 0 .01.02.26.26 0 0 0 .02.08.1.1 0 0 0 0 .03.07.07 0 0 0 0 .04l.98-.21-.05-.38zm12.93-.54l-.01.28a.96.96 0 0 1-.02.18l1 .1a.62.62 0 0 0 0-.08 1.5 1.5 0 0 0 .01-.2 2.23 2.23 0 0 0 .02-.28v-.02zm-12.97-.2h-1v.22l1-.02v-.17-.02z" data-name="Path 91882"/></g></g></g></g><g data-name="Group 84199"><g data-name="Group 84196"><g data-name="Group 84195"><path fill="#fcca89" d="M35.3 47.55h6.52v11.39H35.3z" data-name="Rectangle 23901"/></g></g><g data-name="Group 84198"><g data-name="Group 84197"><path fill="#4677af" d="M42.37 58.94l-.53-15.25a8.41 8.41 0 0 0-5.98-8.06 5.29 5.29 0 0 0-1.94-.36l.64 23.67z" data-name="Path 91883"/></g></g></g><g data-name="Group 84204"><g data-name="Group 84201"><g data-name="Group 84200"><path fill="#fcca89" d="M4.16 47.55h6.52v11.39H4.16z" data-name="Rectangle 23902"/></g></g><g data-name="Group 84203"><g data-name="Group 84202"><path fill="#4677af" d="M11.44 58.94l.64-23.67a5.29 5.29 0 0 0-1.94.36 8.41 8.41 0 0 0-5.98 8.06l-.53 15.25z" data-name="Path 91884"/></g></g></g><g data-name="Group 84209"><g data-name="Group 84206"><g data-name="Group 84205"><path fill="#f2f2f2" d="M23 37.25l-1.58 2.26-4.87-4.2h-.01l-.03-.04 2.84-2.05 2.04 2.26z" data-name="Path 91885"/></g></g><g data-name="Group 84208"><g data-name="Group 84207"><path fill="#f2f2f2" d="M29.48 35.27l-.01.01-4.9 4.23L23 37.25l1.64-1.8 2.01-2.23z" data-name="Path 91886"/></g></g></g></g></g></g></g></g></svg>