<svg xmlns="http://www.w3.org/2000/svg" width="48" height="48"><defs><clipPath id="a"><circle cx="24" cy="24" r="24" fill="none" data-name="Ellipse 256"/></clipPath></defs><g data-name="Group 83647"><circle cx="24" cy="24" r="24" fill="#e8e8e8" data-name="Ellipse 245"/></g><g data-name="Group 84335"><g clip-path="url(#a)" data-name="Group 84334"><g data-name="Group 84333"><g data-name="Group 84247"><g data-name="Group 84216"><path fill="#fcca89" d="M40.76 19.54h-7.79a2.25 2.25 0 0 0-2.24 2.24v11.73a1.12 1.12 0 0 0 1.12 1.13 1.12 1.12 0 0 0 1.12-1.13V22.67a.27.27 0 0 1 .27-.26h7.25a.27.27 0 0 1 .27.26v10.84a1.12 1.12 0 0 0 1.12 1.13A1.12 1.12 0 0 0 43 33.5V21.78a2.25 2.25 0 0 0-2.24-2.24z" data-name="Path 91887"/></g><g data-name="Group 84217"><path fill="#416691" d="M43 21.83v-.05a2.25 2.25 0 0 0-2.24-2.24h-7.79a2.25 2.25 0 0 0-2.24 2.24v9.43h2.24v-8.54a.27.27 0 0 1 .27-.26h7.25a.27.27 0 0 1 .27.26v8.54H43z" data-name="Path 91888"/></g><g data-name="Group 84224"><g data-name="Group 84218"><path fill="#4b4e54" d="M33.74 12.82h6.17v7.9h-6.17z" data-name="Rectangle 23904"/></g><g data-name="Group 84219"><path fill="#f0bc7a" d="M39.05 19.54c0 .38-1 .68-2.23.68s-2.23-.3-2.23-.68c.39 0 .98-.32.98-.7v-1.22h2.5v1.21c0 .4.6.71.98.71z" data-name="Path 91889"/></g><g data-name="Group 84220"><path fill="#fcca89" d="M39.53 12.63v2.22a4.9 4.9 0 0 1-1.57 2.96 2.02 2.02 0 0 1-1 .52h-.14a1.05 1.05 0 0 1-.14 0 1.97 1.97 0 0 1-.99-.52 4.9 4.9 0 0 1-1.57-2.96v-2.23a1.77 1.77 0 0 1 .05-.21 2.74 2.74 0 0 1 2.66-1.73 2.99 2.99 0 0 1 1.4.34 3 3 0 0 1 .65.47 2.22 2.22 0 0 1 .65 1.14z" data-name="Path 91890"/></g><g data-name="Group 84221"><path fill="#fcca89" d="M34.11 13.12v1.7c-.08 0-.16-.16-.2-.42a3.43 3.43 0 0 1-.04-.57 2.02 2.02 0 0 1 .04-.48c.04-.17.12-.23.2-.23z" data-name="Path 91891"/></g><g data-name="Group 84222"><path fill="#fcca89" d="M39.78 13.83a3.4 3.4 0 0 1-.05.56c-.04.26-.12.43-.2.43v-1.7c.08 0 .16.06.2.24a2.02 2.02 0 0 1 .05.47z" data-name="Path 91892"/></g><g data-name="Group 84223"><path fill="#4b4e54" d="M40.13 20.8c0-.02-1.2-1.36-1.2-1.4l.8-6.28s-1.81.03-2.91.03c-1.07 0-2.91-.04-2.91-.04l.9 6.3c0 .03-1.3 1.36-1.3 1.4-.09 0 .04-7.5 0-8a2.48 2.48 0 0 1 .1-.91 3.3 3.3 0 0 1 3.2-2.21 3.43 3.43 0 0 1 1.69.43 3.52 3.52 0 0 1 .78.6 2.7 2.7 0 0 1 .84 2.08c-.04.51.1 8 0 8z" data-name="Path 91893"/></g></g><g data-name="Group 84225"><path fill="#f0bc7a" d="M38.85 19.6l-.1.23-.36.9-3.05-.02-.36-.88-.1-.25c.84.06 3.27.04 3.97.02z" data-name="Path 91894"/></g><g data-name="Group 84226"><path fill="#fcca89" d="M40.48 24.3l-.37 4.87.3 2.27-.09 8.18-.38 9.58h-2.48l-.04-9.58-.14-4.31a.46.46 0 0 0-.46-.43.46.46 0 0 0-.46.43l-.14 4.3-.04 9.6H33.7l-.38-9.6-.1-8.16.3-2.28-.39-4.84-.05-4.67c.17-.05.06-.09.04-.1 0-.01 0-.02.04-.02h1.43c0 .02.1.04.29.05l.1.25.36.88 3.05.02.37-.9.09-.24a1.24 1.24 0 0 0 .2-.01.14.14 0 0 0 0-.05h1.35c.3 0-.11.05.15.13z" data-name="Path 91895"/></g><g data-name="Group 84229"><g data-name="Group 84227"><path fill="#616161" d="M35.04 47.21h-.67a1.32 1.32 0 0 0-1.32 1.32h3.3a1.32 1.32 0 0 0-1.31-1.32z" data-name="Path 91896"/></g><g data-name="Group 84228"><path fill="#585a5c" d="M34.7 48.53h-1.65v.67h3.3v-.67z" data-name="Path 91897"/></g></g><g data-name="Group 84232"><g data-name="Group 84230"><path fill="#616161" d="M39.36 47.21h-.67a1.32 1.32 0 0 0-1.32 1.32h3.31a1.32 1.32 0 0 0-1.32-1.32z" data-name="Path 91898"/></g><g data-name="Group 84231"><path fill="#585a5c" d="M39.03 48.53h-1.65v.67h3.3v-.67z" data-name="Path 91899"/></g></g><g data-name="Group 84235"><g data-name="Group 84233"><path fill="#4677af" d="M41.27 39.62h-8.9l.43-6.91a13.45 13.45 0 0 1 .29-2.09l.09-.4.35-1.05h6.58l.35 1.03.1.42a13.89 13.89 0 0 1 .29 2.08z" data-name="Path 91900"/></g><g data-name="Group 84234"><path fill="#416691" d="M40.1 29.17l.38-4.86.3-4.65c-.27-.08-.04-.12-.33-.12H39.1l-.05.05-2.18 5.28-2.23-5.33h-1.47a.13.13 0 0 0-.04.01c-.03.02 0 .06-.17.11l.18 4.67.4 4.84-.36 1.05-.09.4a7.51 7.51 0 0 0 3.73-1.4 7.52 7.52 0 0 0 3.73 1.4 7.47 7.47 0 0 0-.1-.41z" data-name="Path 91901"/></g></g><g data-name="Group 84238"><g data-name="Group 84236"><path fill="#4677af" d="M37.1 25.88a.23.23 0 0 1-.23.23.23.23 0 0 1-.23-.23.23.23 0 0 1 .23-.23.23.23 0 0 1 .23.23z" data-name="Path 91902"/></g><g data-name="Group 84237"><path fill="#1656c1" d="M36.96 25.95h-.18a.07.07 0 0 1-.07-.07.07.07 0 0 1 .07-.07h.18a.07.07 0 0 1 .07.07.07.07 0 0 1-.07.07z" data-name="Path 91903"/></g></g><g data-name="Group 84241"><g data-name="Group 84239"><path fill="#4677af" d="M37.1 27.79a.23.23 0 0 1-.23.22.23.23 0 0 1-.23-.22.23.23 0 0 1 .23-.23.23.23 0 0 1 .23.23z" data-name="Path 91904"/></g><g data-name="Group 84240"><path fill="#1656c1" d="M36.96 27.85h-.18a.07.07 0 0 1-.07-.07.07.07 0 0 1 .07-.06h.18a.07.07 0 0 1 .07.06.07.07 0 0 1-.07.07z" data-name="Path 91905"/></g></g><g data-name="Group 84243"><g data-name="Group 84242"><path fill="#ebeef2" d="M39.28 20.74l-1.54 2.6-.87 1.33-.05-.09-1.7-3.25-.49-.62h.7l3.06.02z" data-name="Path 91906"/></g></g><g data-name="Group 84246"><g data-name="Group 84244"><path fill="#4677af" d="M39.95 19.54A7.5 7.5 0 0 1 38 23.69l-1.12 1.2-.33.4.22-.55.06-.15.05-.11.95-2.33.57-1.4.37-.9.1-.24.06-.19z" data-name="Path 91907"/></g><g data-name="Group 84245"><path fill="#4677af" d="M36.87 24.47v.4l-.11-.13-1-1.06a7.52 7.52 0 0 1-1.98-4.14l1.03-.13.07.18.1.24.36.89.58 1.42z" data-name="Path 91908"/></g></g></g><g data-name="Group 84287"><g data-name="Group 84258"><g data-name="Group 84251"><g data-name="Group 84248"><path fill="#f0bc7a" d="M14.47 19.57c0 .38-1 .68-2.23.68s-2.22-.3-2.22-.68c.4 0 .98-.31.98-.7v-1.21h2.5v1.21c-.01.39.58.7.97.7z" data-name="Path 91909"/></g><g data-name="Group 84249"><path fill="#4b4e54" d="M15.63 12.46a12.64 12.64 0 0 1-.4 2.28H9.26a12.75 12.75 0 0 1-.4-2.28 3.21 3.21 0 0 1 3.39-3.2 3.52 3.52 0 0 1 1.72.45 3 3 0 0 1 1.66 2.75z" data-name="Path 91910"/></g><g data-name="Group 84250"><path fill="#fcca89" d="M15.23 12.55v2.09a4.64 4.64 0 0 1-1.74 3.04 2.3 2.3 0 0 1-1.09.52.66.66 0 0 1-.07 0h-.08a1.2 1.2 0 0 1-.16 0 2.27 2.27 0 0 1-1.1-.52 4.65 4.65 0 0 1-1.73-3.05v-2.08a2.98 2.98 0 0 1 2.99-2.99 2.98 2.98 0 0 1 2.98 3z" data-name="Path 91911"/></g></g><g data-name="Group 84252"><path fill="#fcca89" d="M9.5 13.5c0 .54-.1.98-.24.98-.08 0-.16-.17-.2-.42a3.44 3.44 0 0 1-.05-.57 2.03 2.03 0 0 1 .05-.48c.05-.17.12-.23.2-.23.14 0 .25.16.25.71z" data-name="Path 91912"/></g><g data-name="Group 84253"><path fill="#fcca89" d="M15.48 13.5a3.4 3.4 0 0 1-.05.55c-.04.26-.12.43-.2.43-.13 0-.24-.44-.24-.99s.1-.71.24-.71c.09 0 .16.06.2.24a2.01 2.01 0 0 1 .05.47z" data-name="Path 91913"/></g><g data-name="Group 84254"><path fill="#4b4e54" d="M13.3 9.46a3.2 3.2 0 0 0 2.03.23c.72-.34-.34 1-.58 1.23-.92.9-1.43 1.4-5.54 1.24-.38-.22.84-2.37 2.49-2.7.14-.02 1.6 0 1.6 0z" data-name="Path 91914"/></g><g data-name="Group 84255"><path fill="#4b4e54" d="M15.4 12.07a3.38 3.38 0 0 1-2.21-1.15c-.25-.23-1.3-1.57-.59-1.23a2.07 2.07 0 0 0 1.27.02 3.19 3.19 0 0 1 1.54 2.36z" data-name="Path 91915"/></g><g data-name="Group 84256"><path fill="#4b4e54" d="M9.57 13.27a.34.34 0 0 1-.34.33v-1.77h.34z" data-name="Path 91916"/></g><g data-name="Group 84257"><path fill="#4b4e54" d="M15.25 13.6a.34.34 0 0 1-.33-.33v-1.44h.33z" data-name="Path 91917"/></g></g><g data-name="Group 84259"><path fill="#36404f" d="M15.81 19.57h-1.34a.24.24 0 0 1-.05.14.46.46 0 0 1-.12.11v.02l-.1.05a4.37 4.37 0 0 1-1.96.36l-.4-.01h-.04l-.11-.01a3.87 3.87 0 0 1-1.34-.3c-.2-.1-.33-.23-.33-.36H8.68a1.8 1.8 0 0 0-.67.13v29.4h3.33l.45-13.83a.46.46 0 0 1 .45-.43.46.46 0 0 1 .46.43l.44 13.82h3.34V19.7a1.8 1.8 0 0 0-.67-.13z" data-name="Path 91918"/></g><path fill="#5f7590" d="M16.64 19.7v13.15h-8.8V19.7a2.81 2.81 0 0 1 .83-.13h1.35v.07a1.31 1.31 0 0 0 0 .18l.03.13a1.32 1.32 0 0 0 .06.22 1.15 1.15 0 0 0 .1.21v.01l.07.1.01.02a1.31 1.31 0 0 0 .1.13.09.09 0 0 0 .01.01.74.74 0 0 0 .06.07l.03.04a1.64 1.64 0 0 0 .24.2 1.43 1.43 0 0 0 .13.1l.14.08a1.2 1.2 0 0 0 .14.07 2.36 2.36 0 0 0 .61.19.7.7 0 0 0 .07.01l.1.01.16.02h.32l.14-.01h.02l.16-.03h.02l.14-.03.15-.04.15-.06a2.17 2.17 0 0 0 .3-.13 1.5 1.5 0 0 0 .13-.08 2.16 2.16 0 0 0 .26-.2 1.55 1.55 0 0 0 .11-.1 2 2 0 0 0 .1-.12l.05-.06a1.69 1.69 0 0 0 .13-.2l.07-.14a1.18 1.18 0 0 0 .05-.15.38.38 0 0 0 .02-.07.22.22 0 0 0 .02-.04 1.04 1.04 0 0 0 .03-.19.38.38 0 0 0 0-.06.85.85 0 0 0 0-.1v-.05h1.35a2.8 2.8 0 0 1 .84.12z" data-name="Path 91919"/><g data-name="Group 84260"><path fill="#b3b3b3" d="M14.46 19.64a.85.85 0 0 1 0 .1.46.46 0 0 1 0 .05 1.29 1.29 0 0 1-.03.19v.04a.56.56 0 0 1-.03.07 1.46 1.46 0 0 1-.05.15l-.07.14a1.82 1.82 0 0 1-.13.2l-.05.06-.1.12c-.03.04-.08.07-.12.1l-.12.1a2.7 2.7 0 0 1-.27.18l-.14.07-.15.06-.15.06-.15.04-.14.03h-.02l-.16.02h-.02l-.14.02h-.33l-.16-.02-.1-.01-.06-.01-.16-.03-.15-.05-.15-.05a1.6 1.6 0 0 1-.15-.06 1.25 1.25 0 0 1-.14-.08l-.14-.08a1.44 1.44 0 0 1-.13-.09l-.12-.1a1.64 1.64 0 0 1-.12-.1l-.04-.04a.74.74 0 0 1-.05-.07l-.01-.01a1.4 1.4 0 0 1-.1-.13v-.01l-.07-.11-.01-.01a1.65 1.65 0 0 1-.1-.21 1.25 1.25 0 0 1-.06-.22l-.02-.13a1.25 1.25 0 0 1-.02-.18v-.07h.01a11.23 11.23 0 0 0 1.66.06l.55.61.56-.61c.85-.02 1.6-.04 1.66-.06v.07z" data-name="Path 91920"/></g><g data-name="Group 84270"><g data-name="Group 84262"><g data-name="Group 84261"><path fill="#516675" d="M7.84 32.5h8.81v.7H7.84z" data-name="Rectangle 23905"/></g></g><g data-name="Group 84269"><g data-name="Group 84264"><g data-name="Group 84263"><path fill="#778aa1" d="M7.84 32.5h.09v.7h-.09z" data-name="Rectangle 23906"/></g></g><g data-name="Group 84266"><g data-name="Group 84265"><path fill="#778aa1" d="M16.4 33.19h-.17v-.69h.17zm-.34 0h-.17v-.69h.17zm-.34 0h-.17v-.69h.17zm-.34 0h-.17v-.69h.17zm-.34 0h-.17v-.69h.17zm-.34 0h-.17v-.69h.17zm-.34 0h-.16v-.69h.16zm-.33 0h-.17v-.69h.17zm-.34 0h-.17v-.69h.17zm-.34 0h-.17v-.69h.17zm-.34 0h-.17v-.69h.17zm-.34 0h-.17v-.69h.17zm-.34 0h-.17v-.69h.17zm-.34 0h-.17v-.69H12zm-.33 0h-.18v-.69h.17zm-.34 0h-.17v-.69h.17zm-.34 0h-.17v-.69h.17zm-.34 0h-.17v-.69h.17zm-.34 0h-.17v-.69h.17zm-.34 0H9.8v-.69h.17zm-.34 0h-.16v-.69h.16zm-.33 0h-.17v-.69h.17zm-.34 0h-.17v-.69h.17zm-.34 0h-.17v-.69h.17zm-.34 0H8.1v-.69h.17z" data-name="Path 91921"/></g></g><g data-name="Group 84268"><g data-name="Group 84267"><path fill="#778aa1" d="M16.56 32.5h.1v.7h-.1z" data-name="Rectangle 23907"/></g></g></g></g><g data-name="Group 84275"><g data-name="Group 84272"><g data-name="Group 84271"><path fill="#516675" d="M14.8 19.57h-.33v.06a.85.85 0 0 1 0 .1.44.44 0 0 1 0 .06 1.28 1.28 0 0 1-.03.18l-.01.04a.53.53 0 0 1-.02.07 1.46 1.46 0 0 1-.06.15l-.07.14a1.84 1.84 0 0 1-.12.2l-.05.06-.1.12-.12.11-.12.1a2.7 2.7 0 0 1-.42.24l-.14.07-.15.05-.16.04-.14.03h-.02l-.16.03h-.01l-.15.01h-.32l-.16-.01-.1-.02h-.06l-.16-.04c-.06 0-.1-.03-.15-.04l-.16-.06a1.6 1.6 0 0 1-.14-.06 1.25 1.25 0 0 1-.15-.07l-.14-.08a1.43 1.43 0 0 1-.13-.1l-.11-.09h-.01a1.64 1.64 0 0 1-.11-.11l-.04-.04a.74.74 0 0 1-.06-.07 1.38 1.38 0 0 1-.1-.14l-.01-.01-.07-.1v-.02a1.51 1.51 0 0 1-.1-.21 1.24 1.24 0 0 1-.07-.22l-.02-.13a1.24 1.24 0 0 1-.01-.18v-.06H9.7v.06a1.36 1.36 0 0 0 .01.2.11.11 0 0 0 0 .02l.02.1v.03a.02.02 0 0 0 0 .01.02.02 0 0 0 0 .01 1.4 1.4 0 0 0 .05.19 1.37 1.37 0 0 0 .07.17l.08.17.01.03.06.1a.34.34 0 0 0 .03.03 1.68 1.68 0 0 0 .11.15l.04.05a.42.42 0 0 0 .03.04l.06.05a1.97 1.97 0 0 0 .26.24h.01c.05.04.1.08.15.1l.03.02.1.06.03.02.16.08.02.01.1.04.05.02.17.07.18.05.18.03a3.71 3.71 0 0 0 .36.05h.18l.18-.01a.12.12 0 0 0 .03 0l.16-.02.18-.02a2.17 2.17 0 0 0 .35-.1.36.36 0 0 0 .04 0 1.99 1.99 0 0 0 .3-.12l.09-.04.08-.05a2.92 2.92 0 0 0 .45-.31.4.4 0 0 0 .04-.04l.04-.04a.18.18 0 0 0 .03-.03.2.2 0 0 1 .02-.02l.12-.14.12-.15a1.67 1.67 0 0 0 .1-.16l.03-.07a.93.93 0 0 0 .05-.1 1.2 1.2 0 0 0 .07-.17l.02-.1a.6.6 0 0 0 .02-.08l.03-.19a.22.22 0 0 0 0-.02.45.45 0 0 0 0-.07v-.1-.05z" data-name="Path 91922"/></g></g><g data-name="Group 84274"><g data-name="Group 84273"><path fill="#778aa1" d="M12.24 21.44h-.16l-.02.35h.18zm.33-.01h-.16l.02.35h.02l.16-.02zm-.74-.02h-.07l-.06.33.18.03.04-.34-.09-.02zm1.06-.04l-.14.03h-.02l.06.34.18-.04zm-1.44-.04l-.1.32.18.05.08-.33-.16-.04zm1.74-.06l-.15.06.1.32.04-.01.13-.05zm-2.04-.06l-.15.31a.1.1 0 0 0 .02 0l.1.05.05.02.13-.32a1.6 1.6 0 0 1-.15-.06zm2.33-.07l-.14.07.14.3a.67.67 0 0 0 .09-.03l.08-.05zm-2.61-.08l-.19.28.03.02.1.06a.27.27 0 0 0 .03.02l.16-.3-.13-.08zm3.09.18l-.21-.28a2.5 2.5 0 0 1-.13.1l.19.28.15-.1zm-3.34-.37l-.23.25.13.1.01.02.2-.28a1.31 1.31 0 0 1-.1-.09zm3.61.12l-.24-.24a1.9 1.9 0 0 1-.12.11l.23.26.04-.04c0-.02.03-.03.05-.04a.18.18 0 0 0 .02-.03l.02-.02zm-3.77-.27a.74.74 0 0 1-.05-.07l-.01-.01-.27.21.04.05a.42.42 0 0 0 .04.04l.04.05.25-.23c0-.02-.02-.03-.03-.04zm4.01-.02l-.28-.19-.05.06-.05.06.27.22.1-.15zm-4.18-.2a2.72 2.72 0 0 1-.06-.1l-.01-.02-.3.17.01.02.06.1a.29.29 0 0 0 .03.04l.28-.2zm4.36-.13l-.31-.13-.07.14.3.16.04-.07.04-.1zm-4.53-.2a.56.56 0 0 1-.03-.07l-.32.1a1.37 1.37 0 0 0 .07.18l.31-.14-.03-.07zm4.31-.23a.23.23 0 0 1 0 .04l-.02.04a.53.53 0 0 1-.02.07l.33.1.02-.09a.6.6 0 0 0 .02-.08zm-4.4-.12a.08.08 0 0 1 0-.02l-.34.03v.03l.02.1V20a.02.02 0 0 0 0 .02l.34-.06-.01-.13zm4.43-.18a.85.85 0 0 1 0 .1.44.44 0 0 1 0 .05l.34.04a.22.22 0 0 0 0-.03.45.45 0 0 0 0-.07v-.1zm-4.44-.07h-.34v.07h.34v-.06z" data-name="Path 91923"/></g></g></g><g fill="#4b4e54" data-name="Group 84276"><path d="M9.96 46.57H9.1a1.68 1.68 0 0 0-1.67 1.67h4.2a1.68 1.68 0 0 0-1.68-1.67z" data-name="Path 91924"/><path d="M9.54 48.24h-2.1v.85h4.2v-.85z" data-name="Path 91925"/></g><g fill="#4b4e54" data-name="Group 84277"><path d="M15.3 46.57h-.85a1.68 1.68 0 0 0-1.68 1.67h4.2a1.68 1.68 0 0 0-1.68-1.67z" data-name="Path 91926"/><path d="M14.87 48.24h-2.1v.85h4.2v-.85z" data-name="Path 91927"/></g><g data-name="Group 84280"><g data-name="Group 84278"><path fill="#fcca89" d="M16.46 23.78v9.7a1.12 1.12 0 0 0 1.11 1.12 1.12 1.12 0 0 0 1.12-1.12v-9.7z" data-name="Path 91928"/></g><g data-name="Group 84279"><path fill="#778aa1" d="M15.99 19.58l.34 12.75h2.71l-.34-9.87a2.88 2.88 0 0 0-2.05-2.76 1.8 1.8 0 0 0-.66-.12z" data-name="Path 91929"/></g></g><g data-name="Group 84283"><g data-name="Group 84281"><path fill="#fcca89" d="M5.8 23.78v9.7A1.12 1.12 0 0 0 6.9 34.6a1.12 1.12 0 0 0 1.12-1.12v-9.7z" data-name="Path 91930"/></g><g data-name="Group 84282"><path fill="#778aa1" d="M8.5 19.58l-.34 12.75H5.45l.34-9.87a2.88 2.88 0 0 1 2.05-2.76 1.8 1.8 0 0 1 .67-.12z" data-name="Path 91931"/></g></g><g data-name="Group 84286"><g data-name="Group 84284"><path fill="#f2f2f2" d="M12.25 20.25l-.44.63a.16.16 0 0 1-.11.07.16.16 0 0 1-.13-.04l-1.53-1.33h-.01l.97-.7.7.76z" data-name="Path 91932"/></g><g data-name="Group 84285"><path fill="#f2f2f2" d="M14.47 19.57l-1.55 1.33a.16.16 0 0 1-.12.04.16.16 0 0 1-.11-.07l-.44-.63.56-.61.69-.77z" data-name="Path 91933"/></g></g></g><g data-name="Group 84332"><g data-name="Group 84291"><g data-name="Group 84288"><path fill="#f0bc7a" d="M27.3 21.26c0 .42-1.1.75-2.46.75s-2.45-.33-2.45-.75c.43 0 1.08-.34 1.08-.77v-1.34h2.75v1.34c0 .43.65.77 1.08.77z" data-name="Path 91934"/></g><g data-name="Group 84289"><path fill="#8c5919" d="M28.58 13.41a13.77 13.77 0 0 1-.45 2.52h-6.58a13.96 13.96 0 0 1-.44-2.52 2.8 2.8 0 0 1 .11-1.02 3.74 3.74 0 0 1 3.62-2.5 3.88 3.88 0 0 1 1.9.49 4.02 4.02 0 0 1 .9.67 3.05 3.05 0 0 1 .94 2.36z" data-name="Path 91935"/></g><g data-name="Group 84290"><path fill="#fcca89" d="M28.14 13.52v2.3a5.13 5.13 0 0 1-1.92 3.36 2.54 2.54 0 0 1-1.2.57h-.18a1.48 1.48 0 0 1-.16 0 2.48 2.48 0 0 1-1.2-.57 5.12 5.12 0 0 1-1.93-3.36v-2.3a3.3 3.3 0 0 1 3.3-3.3 3.3 3.3 0 0 1 3.29 3.3z" data-name="Path 91936"/></g></g><g data-name="Group 84292"><path fill="#585a5c" d="M29.52 21.4v32.43h-3.69l-.48-15.25a.5.5 0 0 0-.5-.47.5.5 0 0 0-.5.47l-.5 15.25h-3.67V21.4a3.04 3.04 0 0 1 .46-.12.57.57 0 0 1 .07 0 .04.04 0 0 1 .01 0 .04.04 0 0 1 .02 0 .02.02 0 0 1 .01 0l.16-.02h1.49c0 .15.13.28.36.4a1.74 1.74 0 0 0 .17.07 4.93 4.93 0 0 0 1.3.25l.12.02a.46.46 0 0 1 .05 0h.45a5.63 5.63 0 0 0 1.92-.28 1.88 1.88 0 0 0 .23-.11l.1-.06a.09.09 0 0 1 .02 0 .56.56 0 0 0 .13-.14.29.29 0 0 0 .05-.15h1.48l.18.01a.01.01 0 0 1 .01 0 .06.06 0 0 1 .02 0 .6.6 0 0 1 .07 0 3.15 3.15 0 0 1 .45.13z" data-name="Path 91937"/></g><g data-name="Group 84293"><path fill="#4b4e54" d="M29.7 21.4v15.65h-9.72V21.4a2.18 2.18 0 0 1 .27-.07l.13-.02.12-.02a.11.11 0 0 1 .04 0 .64.64 0 0 1 .1 0 .57.57 0 0 1 .07-.01.04.04 0 0 1 .01 0 .04.04 0 0 1 .02 0 .02.02 0 0 1 .01 0l.16-.01h1.49l.53.46 1.32 1.14.6-.86.59.86 1.32-1.14.54-.46h1.66a.01.01 0 0 1 .01 0 .06.06 0 0 1 .02 0 .6.6 0 0 1 .07.01 2.72 2.72 0 0 1 .64.12z" data-name="Path 91938"/></g><g data-name="Group 84294"><path fill="#4b4e54" d="M24.72 26.97l-.24.6v9.48h-4.5V21.4a2.18 2.18 0 0 1 .27-.07l.13-.02.12-.02a.11.11 0 0 1 .04 0 .95.95 0 0 1 .16-.01.04.04 0 0 1 .02 0 .02.02 0 0 1 .01 0 .02.02 0 0 1 .02 0l.16-.01h.9L22.96 24l-.76-.12z" data-name="Path 91939"/></g><g data-name="Group 84295"><path fill="#4b4e54" d="M29.7 21.4v15.65h-5.22v-9.49l.36-.44 2.65-3.23-.5.07-.26.04.03-.07 1.12-2.67h1.08a.01.01 0 0 1 .01 0 .06.06 0 0 1 .02 0 2.91 2.91 0 0 1 .71.14z" data-name="Path 91940"/></g><g data-name="Group 84296"><path fill="#b3b3b3" d="M29.27 21.4v15.65h-5.23v-9.49l.36-.44 2.65-3.24-.75.12 1.14-2.74h.9a3.11 3.11 0 0 1 .93.14z" data-name="Path 91941"/></g><g data-name="Group 84297"><path fill="#4b4e54" d="M29.7 21.4v15.65h-5.22v-9.49l.36-.44 2.65-3.23-.5.07-.26.04.03-.07 1.12-2.67h1.08a.01.01 0 0 1 .01 0 .06.06 0 0 1 .02 0 2.91 2.91 0 0 1 .71.14z" data-name="Path 91942"/></g><g data-name="Group 84298"><path fill="#4b4e54" d="M26.73 24l.76-.11-2.65 3.23-.36.44.24-.59-2.53-3.08.76.1-1.15-2.73h.6l.37.33.16.14 1.32 1.14.6-.86.59.86 1.32-1.15.16-.13.37-.32h.6z" data-name="Path 91943"/></g><g data-name="Group 84299"><path fill="#4b4e54" d="M24.84 22.01l-.6.86-1.31-1.14a4.8 4.8 0 0 0 1.3.25l.12.02h.05l.44.01z" data-name="Path 91944"/></g><g data-name="Group 84300"><path fill="#4b4e54" d="M26.76 21.72l-1.32 1.15-.6-.86a5.6 5.6 0 0 0 1.92-.29z" data-name="Path 91945"/></g><g fill="#4b4e54" data-name="Group 84301"><path d="M22.32 51.05h-.93a1.85 1.85 0 0 0-1.85 1.85h4.63a1.85 1.85 0 0 0-1.85-1.85z" data-name="Path 91946"/><path d="M21.86 52.9h-2.32v.94h4.63v-.94z" data-name="Path 91947"/></g><g fill="#4b4e54" data-name="Group 84302"><path d="M28.2 51.05h-.93a1.85 1.85 0 0 0-1.84 1.85h4.63a1.85 1.85 0 0 0-1.85-1.85z" data-name="Path 91948"/><path d="M27.74 52.9h-2.31v.94h4.63v-.94z" data-name="Path 91949"/></g><g data-name="Group 84305"><g data-name="Group 84303"><path fill="#fcca89" d="M29.5 25.9v10.7a1.23 1.23 0 0 0 1.22 1.23 1.23 1.23 0 0 0 1.24-1.23V25.9z" data-name="Path 91950"/></g><g data-name="Group 84304"><path fill="#585a5c" d="M32.34 35.34h-2.99l-.09-3.19-.29-10.82v-.06a.06.06 0 0 1 .02 0 2.91 2.91 0 0 1 .72.13 3.18 3.18 0 0 1 2.25 3.04z" data-name="Path 91951"/></g></g><g data-name="Group 84308"><g data-name="Group 84306"><path fill="#fcca89" d="M17.73 25.9v10.7a1.23 1.23 0 0 0 1.23 1.23 1.24 1.24 0 0 0 1.23-1.23V25.9z" data-name="Path 91952"/></g><g data-name="Group 84307"><path fill="#585a5c" d="M20.71 21.27l-.37 14.07h-3l.38-10.9a3.18 3.18 0 0 1 2.26-3.04 2.18 2.18 0 0 1 .27-.07l.13-.03.12-.01a.11.11 0 0 1 .04 0 .95.95 0 0 1 .16-.02.04.04 0 0 1 .02 0z" data-name="Path 91953"/></g></g><g data-name="Group 84309"><path fill="#e6e6e6" d="M24.84 26.9l-1.91-3.67-.54-1.93 1.03-.04 1.42 1.4 1.8-1.53.85.2-1.7 4.12z" data-name="Path 91954"/></g><g data-name="Group 84312"><g data-name="Group 84310"><path fill="#4b4e54" d="M24.2 22.66l.64-.65.66.65-.66.65z" data-name="Rectangle 23908"/></g><g data-name="Group 84311"><path fill="#4b4e54" d="M24.84 26.9l-.65-1.1.65-3.79.65 3.79z" data-name="Path 91955"/></g></g><g data-name="Group 84315"><g data-name="Group 84313"><path fill="#585a5c" d="M25.1 28.23a.25.25 0 0 1-.26.25.25.25 0 0 1-.25-.25.25.25 0 0 1 .25-.26.25.25 0 0 1 .25.26z" data-name="Path 91956"/></g><g data-name="Group 84314"><path fill="#585a5c" d="M24.94 28.3h-.2a.07.07 0 0 1-.06-.07.07.07 0 0 1 .06-.07h.2a.07.07 0 0 1 .07.07.07.07 0 0 1-.07.06z" data-name="Path 91957"/></g></g><g data-name="Group 84318"><g data-name="Group 84316"><path fill="#585a5c" d="M25.1 31.02a.25.25 0 0 1-.26.26.25.25 0 0 1-.25-.26.25.25 0 0 1 .26-.25.25.25 0 0 1 .24.25z" data-name="Path 91958"/></g><g data-name="Group 84317"><path fill="#585a5c" d="M24.94 31.09h-.2a.07.07 0 0 1-.06-.07.07.07 0 0 1 .06-.06h.2a.07.07 0 0 1 .07.06.07.07 0 0 1-.07.07z" data-name="Path 91959"/></g></g><g data-name="Group 84319"><path fill="#fcca89" d="M21.82 14.55c0 .6-.12 1.1-.27 1.1-.1 0-.17-.19-.22-.47a3.86 3.86 0 0 1-.05-.63 2.25 2.25 0 0 1 .05-.52c.05-.2.13-.26.22-.26.15 0 .27.18.27.78z" data-name="Path 91960"/></g><g data-name="Group 84320"><path fill="#fcca89" d="M28.4 14.55a3.9 3.9 0 0 1-.04.62c-.05.29-.13.48-.22.48-.15 0-.28-.5-.28-1.1s.13-.78.28-.78c.09 0 .17.07.22.26a2.3 2.3 0 0 1 .05.52z" data-name="Path 91961"/></g><g data-name="Group 84321"><path fill="#8c5919" d="M28.34 12.99c-.16.35-.35.49-.54.5 0 .4-1.25-.3-1.67-.62a1.9 1.9 0 0 0 .14.45c.34.72-1.15-.1-1.62-.45a1.86 1.86 0 0 0 .14.45c.34.72-1.15-.1-1.62-.45a1.98 1.98 0 0 0 .14.45c.38.79-1.45-.27-1.72-.54a8.97 8.97 0 0 1-.37-.4 3.74 3.74 0 0 1 3.62-2.5 3.88 3.88 0 0 1 1.9.5 4.02 4.02 0 0 1 .9.67v.14l-.01.06a3.5 3.5 0 0 1 .7 1.74z" data-name="Path 91962"/></g><g data-name="Group 84322"><path fill="#8c5919" d="M21.9 14.3a.37.37 0 0 1-.38.38v-1.96h.37z" data-name="Path 91963"/></g><g data-name="Group 84323"><path fill="#8c5919" d="M28.16 14.68a.37.37 0 0 1-.37-.37v-1.6h.37z" data-name="Path 91964"/></g><g data-name="Group 84324"><path fill="#f2f2f2" d="M24.84 22.01l-.6.86-1.31-1.14-.54-.47 1.08-.77z" data-name="Path 91965"/></g><g data-name="Group 84325"><path fill="#f2f2f2" d="M27.3 21.26l-.54.46-1.32 1.15-.6-.86 1.38-1.52z" data-name="Path 91966"/></g><g data-name="Group 84328"><g data-name="Group 84326"><path fill="#585a5c" d="M27.5 23.88l-2.66 3.24-.36.44.24-.59.12-.3 1.04-2.55.86-.13z" data-name="Path 91967"/></g><g data-name="Group 84327"><path fill="#585a5c" d="M28.23 21.26L26.73 24l-.85.12 1.04-2.53.18-.46z" data-name="Path 91968"/></g></g><g data-name="Group 84331"><g data-name="Group 84329"><path fill="#585a5c" d="M24.84 26.68v.44l-.12-.14-2.53-3.1.76.12.85.13z" data-name="Path 91969"/></g><g data-name="Group 84330"><path fill="#585a5c" d="M23.8 24.13l-.85-.13-1.5-2.74 1.13-.14.19.47z" data-name="Path 91970"/></g></g></g></g></g></g></svg>