<svg xmlns="http://www.w3.org/2000/svg" width="928" height="132.5"><defs><linearGradient id="a" x2="1" y1="1" y2="1" gradientUnits="objectBoundingBox"><stop offset="0" stop-color="#d3e9f8"/><stop offset=".5" stop-color="#b1d4eb"/><stop offset="1" stop-color="#d7eefe"/></linearGradient></defs><g data-name="Group 84215"><g data-name="Group 84214"><g data-name="Group 84032"><g data-name="Group 84001"><path fill="#fcca89" d="M901.68 50.35h-18.44a5.32 5.32 0 0 0-5.32 5.32v27.8a2.66 2.66 0 1 0 5.32 0V57.78a.63.63 0 0 1 .63-.63h17.18a.63.63 0 0 1 .63.63v25.7a2.66 2.66 0 1 0 5.32 0v-27.8a5.32 5.32 0 0 0-5.32-5.33z" data-name="Path 91769"/></g><g data-name="Group 84002"><path fill="#416691" d="M907 55.79v-.12a5.32 5.32 0 0 0-5.32-5.32h-18.44a5.32 5.32 0 0 0-5.32 5.32v22.35h5.32V57.78a.63.63 0 0 1 .63-.63h17.18a.63.63 0 0 1 .63.63v20.24H907z" data-name="Path 91770"/></g><g data-name="Group 84009"><g data-name="Group 84003"><path fill="#4b4e54" d="M885.04 34.43h14.61v18.74h-14.6z" data-name="Rectangle 23894"/></g><g data-name="Group 84004"><path fill="#f0bc7a" d="M897.64 50.36c0 .89-2.36 1.6-5.29 1.6s-5.29-.71-5.29-1.6c.93 0 2.32-.75 2.32-1.68v-2.89h5.95v2.89c0 .92 1.39 1.68 2.31 1.68z" data-name="Path 91771"/></g><g data-name="Group 84005"><path fill="#fcca89" d="M898.77 33.98V39.25a11.62 11.62 0 0 1-3.73 7.01 4.78 4.78 0 0 1-2.35 1.24l-.17.02h-.17a2.47 2.47 0 0 1-.33-.03 4.67 4.67 0 0 1-2.35-1.23 11.63 11.63 0 0 1-3.73-7.01l-.01-.24v-5.05a4 4 0 0 1 .13-.5c.72-2.36 3.36-4.08 6.3-4.08a7.08 7.08 0 0 1 3.3.8 7.16 7.16 0 0 1 1.55 1.1 5.26 5.26 0 0 1 1.56 2.7z" data-name="Path 91772"/></g><g data-name="Group 84006"><path fill="#fcca89" d="M885.93 35.13v4.05c-.2 0-.37-.4-.49-1a8.1 8.1 0 0 1-.1-1.35 4.79 4.79 0 0 1 .1-1.13c.12-.42.3-.57.49-.57z" data-name="Path 91773"/></g><g data-name="Group 84007"><path fill="#fcca89" d="M899.36 36.83a8.23 8.23 0 0 1-.1 1.33c-.1.61-.29 1.02-.49 1.02v-4.05c.2 0 .38.15.49.57a4.87 4.87 0 0 1 .1 1.13z" data-name="Path 91774"/></g><g data-name="Group 84008"><path fill="#4b4e54" d="M900.19 53.37c0-.08-2.85-3.24-2.85-3.32l1.91-14.91s-4.3.08-6.9.08c-2.53 0-6.9-.08-6.9-.08l2.14 14.91c0 .08-3.07 3.24-3.07 3.32-.2 0 .1-17.78.01-18.98a5.9 5.9 0 0 1 .23-2.15 7.83 7.83 0 0 1 7.6-5.23 8.13 8.13 0 0 1 3.98 1.03 8.3 8.3 0 0 1 1.86 1.41 6.4 6.4 0 0 1 1.97 4.94c-.1 1.2.22 18.98.02 18.98z" data-name="Path 91775"/></g></g><g data-name="Group 84010"><path fill="#f0bc7a" d="M897.17 50.5l-.22.55-.88 2.14-7.23-.04-.86-2.1-.23-.58c2 .13 7.75.08 9.42.02z" data-name="Path 91776"/></g><g data-name="Group 84011"><path fill="#fcca89" d="M901.03 61.66l-.89 11.51.74 5.38-.23 19.4-.9 22.71h-5.9l-.1-22.71-.32-10.21a1.09 1.09 0 0 0-2.18 0l-.32 10.21-.1 22.71h-5.89l-.9-22.71-.22-19.37.73-5.4-.93-11.47-.13-11.06c.4-.12.14-.22.1-.26 0-.02 0-.03.1-.03h.07a.76.76 0 0 1 .1 0h3.2c0 .05.26.08.7.11l.22.59.86 2.1 7.23.04.87-2.14v-.01l.22-.56a3.12 3.12 0 0 0 .46-.03.3.3 0 0 0 .02-.1h3.2c.7 0-.27.1.36.3z" data-name="Path 91777"/></g><g data-name="Group 84014"><g data-name="Group 84012"><path fill="#616161" d="M888.12 115.95h-1.58a3.13 3.13 0 0 0-3.13 3.13h7.84a3.13 3.13 0 0 0-3.13-3.13z" data-name="Path 91778"/></g><g data-name="Group 84013"><path fill="#585a5c" d="M887.33 119.08h-3.92v1.59h7.84v-1.6z" data-name="Path 91779"/></g></g><g data-name="Group 84017"><g data-name="Group 84015"><path fill="#616161" d="M898.37 115.95h-1.58a3.13 3.13 0 0 0-3.13 3.13h7.84a3.13 3.13 0 0 0-3.13-3.13z" data-name="Path 91780"/></g><g data-name="Group 84016"><path fill="#585a5c" d="M897.58 119.08h-3.92v1.59h7.84v-1.6z" data-name="Path 91781"/></g></g><g data-name="Group 84020"><g data-name="Group 84018"><path fill="#4677af" d="M902.9 97.95h-21.1l1.01-16.38a32.03 32.03 0 0 1 .7-4.94c.06-.32.14-.63.21-.95l.83-2.5h15.6l.81 2.46c.09.32.16.65.23.99a32.95 32.95 0 0 1 .69 4.92z" data-name="Path 91782"/></g><g data-name="Group 84019"><path fill="#416691" d="M900.14 73.17l.9-11.51.7-11.01c-.64-.2-.08-.3-.78-.3h-3.2l-.13.1L892.46 63l-5.29-12.65h-3.47a.28.28 0 0 0-.1.03c-.07.05.01.14-.4.26l.43 11.07.94 11.46-.83 2.5c-.08.32-.16.64-.22.95a17.8 17.8 0 0 0 8.84-3.31 17.82 17.82 0 0 0 8.84 3.31c-.07-.33-.14-.66-.23-.99z" data-name="Path 91783"/></g></g><g data-name="Group 84023"><g data-name="Group 84021"><path fill="#4677af" d="M893 65.39a.55.55 0 1 1-.54-.55.55.55 0 0 1 .54.55z" data-name="Path 91784"/></g><g data-name="Group 84022"><path fill="#1656c1" d="M892.68 65.54h-.44a.16.16 0 0 1 0-.31h.44a.16.16 0 0 1 0 .31z" data-name="Path 91785"/></g></g><g data-name="Group 84026"><g data-name="Group 84024"><path fill="#4677af" d="M893 69.9a.55.55 0 1 1-.54-.55.55.55 0 0 1 .54.55z" data-name="Path 91786"/></g><g data-name="Group 84025"><path fill="#1656c1" d="M892.68 70.06h-.44a.16.16 0 0 1 0-.32h.44a.16.16 0 0 1 0 .32z" data-name="Path 91787"/></g></g><g data-name="Group 84028"><g data-name="Group 84027"><path fill="#ebeef2" d="M898.18 53.2l-3.65 6.18-2.07 3.14-.1-.21-4.03-7.7-1.16-1.48 1.67.02 7.23.04z" data-name="Path 91788"/></g></g><g data-name="Group 84031"><g data-name="Group 84029"><path fill="#4677af" d="M899.77 50.35v.03a17.79 17.79 0 0 1-4.66 9.79L892.46 63l-.78.95.52-1.27.15-.37.1-.27 2.26-5.51 1.36-3.34.87-2.13.22-.57.18-.44z" data-name="Path 91789"/></g><g data-name="Group 84030"><path fill="#4677af" d="M892.46 62.03V63l-.26-.32-2.36-2.5a17.81 17.81 0 0 1-4.68-9.83l2.43-.3.16.41.23.59.86 2.1 1.38 3.37z" data-name="Path 91790"/></g></g></g><g data-name="Group 84072"><g data-name="Group 84043"><g data-name="Group 84036"><g data-name="Group 84033"><path fill="#f0bc7a" d="M839.37 50.43c0 .9-2.35 1.61-5.27 1.61s-5.26-.72-5.26-1.6c.92 0 2.3-.75 2.3-1.67v-2.88h5.92v2.88c0 .92 1.39 1.66 2.31 1.66z" data-name="Path 91791"/></g><g data-name="Group 84034"><path fill="#4b4e54" d="M842.12 33.57c-.09 1.23-.74 5.41-.95 5.41h-14.13c-.21 0-.86-4.18-.95-5.41-.31-4.17 3.58-7.57 8.02-7.57a8.36 8.36 0 0 1 4.09 1.06 7.12 7.12 0 0 1 3.92 6.5z" data-name="Path 91792"/></g><g data-name="Group 84035"><path fill="#fcca89" d="M841.18 33.8v4.94c0 2.22-1.89 5.46-4.11 7.21a5.46 5.46 0 0 1-2.59 1.24 1.6 1.6 0 0 1-.18.01h-.2a2.82 2.82 0 0 1-.36-.02 5.37 5.37 0 0 1-2.6-1.22c-2.22-1.76-4.1-5-4.1-7.22V33.8a7.08 7.08 0 1 1 14.14 0z" data-name="Path 91793"/></g></g><g data-name="Group 84037"><path fill="#fcca89" d="M827.62 36.02c0 1.3-.26 2.35-.59 2.35-.2 0-.37-.4-.48-1a8.28 8.28 0 0 1-.1-1.35 4.87 4.87 0 0 1 .1-1.13c.11-.4.29-.56.48-.56.33 0 .6.4.6 1.7z" data-name="Path 91794"/></g><g data-name="Group 84038"><path fill="#fcca89" d="M841.77 36.02a8.17 8.17 0 0 1-.1 1.33c-.11.61-.3 1.02-.49 1.02-.32 0-.59-1.06-.59-2.35s.27-1.68.59-1.68c.2 0 .38.14.49.57a4.83 4.83 0 0 1 .1 1.11z" data-name="Path 91795"/></g><g data-name="Group 84039"><path fill="#4b4e54" d="M836.62 26.48s3.1 1.33 4.8.53-.8 2.36-1.38 2.92c-2.18 2.12-3.4 3.3-13.11 2.95-.9-.52 1.99-5.63 5.88-6.4.35-.07 3.8 0 3.8 0z" data-name="Path 91796"/></g><g data-name="Group 84040"><path fill="#4b4e54" d="M841.6 32.66a8 8 0 0 1-5.26-2.73c-.58-.56-3.08-3.73-1.38-2.92a4.9 4.9 0 0 0 3 .05 7.55 7.55 0 0 1 3.65 5.6z" data-name="Path 91797"/></g><g data-name="Group 84041"><path fill="#4b4e54" d="M827.76 35.5a.8.8 0 0 1-.79.8v-4.22h.8z" data-name="Path 91798"/></g><g data-name="Group 84042"><path fill="#4b4e54" d="M841.24 36.29a.8.8 0 0 1-.8-.8v-3.41h.8z" data-name="Path 91799"/></g></g><g data-name="Group 84044"><path fill="#36404f" d="M842.57 50.43h-3.2a.56.56 0 0 1-.1.32 1.08 1.08 0 0 1-.28.28l-.03.03-.22.12a10.36 10.36 0 0 1-4.63.86c-.33 0-.64-.02-.95-.03h-.11c-.1 0-.17-.02-.26-.03a9.13 9.13 0 0 1-3.17-.71c-.48-.25-.78-.53-.78-.84h-3.19a4.27 4.27 0 0 0-1.58.3v69.67h7.9l1.06-32.76a1.08 1.08 0 0 1 2.16 0l1.05 32.76h7.9V50.73a4.25 4.25 0 0 0-1.57-.3z" data-name="Path 91800"/></g><path fill="#5f7590" d="M844.54 50.73v31.16h-20.88V50.73a6.66 6.66 0 0 1 1.98-.3h3.2V50.58a2.96 2.96 0 0 0 .03.44l.05.3a3.11 3.11 0 0 0 .15.52l.07.17c.05.12.11.23.17.33a.16.16 0 0 0 .01.03l.16.25.02.04a2.92 2.92 0 0 0 .23.3.22.22 0 0 0 .03.03 1.83 1.83 0 0 0 .13.15l.08.1.27.25.02.02.28.22a3.37 3.37 0 0 0 .3.22l.33.19a2.97 2.97 0 0 0 .34.17l.35.15.36.13c.12.05.25.07.37.1l.37.07.17.03.21.03.38.03.38.02c.12 0 .26 0 .4-.02l.33-.03h.04l.38-.05a.37.37 0 0 0 .04 0c.12-.04.23-.06.34-.08l.36-.1c.12-.03.24-.09.36-.13s.24-.1.35-.15l.34-.17a3.66 3.66 0 0 0 .32-.2 5.49 5.49 0 0 0 1.13-.99l.11-.14a4.35 4.35 0 0 0 .3-.47c.06-.1.11-.22.16-.33a3.3 3.3 0 0 0 .13-.35.95.95 0 0 0 .05-.17.8.8 0 0 0 .03-.1 2.47 2.47 0 0 0 .07-.43 1.07 1.07 0 0 0 .01-.15v-.22-.14a.02.02 0 0 0 .02-.01h3.19a6.63 6.63 0 0 1 1.98.29z" data-name="Path 91801"/><g data-name="Group 84045"><path fill="#b3b3b3" d="M839.36 50.6a1.99 1.99 0 0 1 0 .21 1.07 1.07 0 0 1-.02.15 2.73 2.73 0 0 1-.07.43.8.8 0 0 1-.02.1 1.06 1.06 0 0 1-.05.17 3.2 3.2 0 0 1-.13.35c-.05.11-.1.22-.17.33a4.34 4.34 0 0 1-.3.47l-.1.14c-.09.1-.17.2-.26.28a3.69 3.69 0 0 1-.27.26l-.3.24-.3.22c-.1.07-.22.13-.33.19l-.34.17-.34.15-.36.13c-.12.05-.25.07-.37.1l-.33.07a.41.41 0 0 1-.04 0c-.13.03-.25.05-.38.06h-.05l-.34.03-.38.01h-.38c-.12 0-.26-.03-.38-.04l-.22-.03-.17-.03-.37-.08-.36-.1a8.08 8.08 0 0 1-.36-.12 3.77 3.77 0 0 1-.35-.15 3.17 3.17 0 0 1-.34-.17l-.33-.2a3.39 3.39 0 0 1-.3-.21 4.6 4.6 0 0 1-.28-.22l-.02-.02c-.1-.08-.19-.16-.27-.25l-.09-.1a1.6 1.6 0 0 1-.13-.15l-.03-.03a3.54 3.54 0 0 1-.22-.3.44.44 0 0 1-.03-.04c-.06-.08-.1-.17-.15-.25a.16.16 0 0 1-.02-.03 4.24 4.24 0 0 1-.23-.5 3.04 3.04 0 0 1-.16-.52 3.9 3.9 0 0 1-.04-.3 2.96 2.96 0 0 1-.03-.44v-.14a.02.02 0 0 0 .01 0h.01a26.63 26.63 0 0 0 3.93.15l1.3 1.44 1.33-1.46c2.02-.03 3.77-.09 3.93-.14v.16z" data-name="Path 91802"/></g><g data-name="Group 84055"><g data-name="Group 84047"><g data-name="Group 84046"><path fill="#516675" d="M823.66 81.08h20.88v1.63h-20.88z" data-name="Rectangle 23895"/></g></g><g data-name="Group 84054"><g data-name="Group 84049"><g data-name="Group 84048"><path fill="#778aa1" d="M823.66 81.08h.2v1.63h-.2z" data-name="Rectangle 23896"/></g></g><g data-name="Group 84051"><g data-name="Group 84050"><path fill="#778aa1" d="M843.94 82.71h-.4v-1.63h.4zm-.8 0h-.4v-1.63h.4zm-.8 0h-.4v-1.63h.4zm-.8 0h-.4v-1.63h.4zm-.8 0h-.4v-1.63h.4zm-.8 0h-.4v-1.63h.4zm-.8 0h-.4v-1.63h.4zm-.8 0h-.4v-1.63h.4zm-.8 0h-.4v-1.63h.4zm-.8 0h-.4v-1.63h.4zm-.8 0h-.43v-1.63h.4zm-.8 0h-.4v-1.63h.4zm-.8 0h-.4v-1.63h.4zm-.8 0h-.4v-1.63h.4zm-.8 0h-.4v-1.63h.4zm-.8 0h-.4v-1.63h.4zm-.8 0h-.4v-1.63h.4zm-.8 0h-.4v-1.63h.4zm-.8 0h-.4v-1.63h.4zm-.8 0h-.4v-1.63h.4zm-.8 0h-.4v-1.63h.4zm-.8 0h-.4v-1.63h.4zm-.8 0h-.4v-1.63h.4zm-.8 0h-.4v-1.63h.4zm-.8 0h-.4v-1.63h.4z" data-name="Path 91803"/></g></g><g data-name="Group 84053"><g data-name="Group 84052"><path fill="#778aa1" d="M844.35 81.08h.2v1.63h-.2z" data-name="Rectangle 23897"/></g></g></g></g><g data-name="Group 84060"><g data-name="Group 84057"><g data-name="Group 84056"><path fill="#516675" d="M840.18 50.43h-.8a.02.02 0 0 1-.01.01v.15a1.99 1.99 0 0 1-.01.22 1.07 1.07 0 0 1-.01.14 2.74 2.74 0 0 1-.08.43.8.8 0 0 1-.02.1 1.07 1.07 0 0 1-.05.17 3.2 3.2 0 0 1-.13.36l-.16.33a4.34 4.34 0 0 1-.3.46l-.11.15-.26.28a3.7 3.7 0 0 1-.26.25l-.3.24-.3.22-.33.2-.34.16c-.12.05-.23.11-.35.15l-.36.13-.37.1-.33.07a.39.39 0 0 1-.04.01l-.38.06h-.04l-.34.03h-.77c-.13 0-.26-.02-.38-.04l-.22-.02-.16-.03-.37-.08-.37-.1c-.12-.03-.24-.08-.36-.13a3.77 3.77 0 0 1-.35-.15 3.17 3.17 0 0 1-.34-.17l-.33-.19a3.37 3.37 0 0 1-.3-.21 4.6 4.6 0 0 1-.28-.23l-.02-.01c-.1-.08-.18-.17-.27-.26l-.08-.1a1.62 1.62 0 0 1-.14-.15l-.03-.03a3.52 3.52 0 0 1-.22-.3.42.42 0 0 1-.03-.04l-.15-.25a.16.16 0 0 1-.02-.02 4.24 4.24 0 0 1-.23-.5 3.04 3.04 0 0 1-.15-.53 3.9 3.9 0 0 1-.05-.3 2.96 2.96 0 0 1-.03-.43v-.16h-.82v.17a3.2 3.2 0 0 0 .03.45.27.27 0 0 0 0 .06l.04.25a.03.03 0 0 0 0 .02.6.6 0 0 0 .01.06.07.07 0 0 0 0 .03.05.05 0 0 0 0 .03 4.21 4.21 0 0 0 .28.85l.2.4.03.05a2.48 2.48 0 0 0 .14.23.72.72 0 0 0 .07.1 4.17 4.17 0 0 0 .26.35l.1.1a.97.97 0 0 0 .08.1l.12.13.31.3.31.25.03.02a5.35 5.35 0 0 0 .66.44c.03 0 .05.02.08.04l.38.2a.34.34 0 0 0 .04.01l.24.1.12.05.41.14.42.12.42.1.43.05.43.05h.86a.27.27 0 0 0 .06 0l.37-.05c.14-.01.3-.03.43-.06l.42-.09.42-.12a.86.86 0 0 0 .1-.03l.3-.11c.15-.05.28-.11.4-.17l.2-.1.2-.1a6.17 6.17 0 0 0 1.06-.75.78.78 0 0 0 .1-.08l.11-.1a.5.5 0 0 0 .06-.06.45.45 0 0 1 .05-.06 6.64 6.64 0 0 0 .56-.68 3.94 3.94 0 0 0 .23-.38l.09-.16a2.02 2.02 0 0 0 .11-.24 2.73 2.73 0 0 0 .15-.41h.01l.06-.22a1.28 1.28 0 0 0 .05-.2.01.01 0 0 0 0-.02l.07-.45a.52.52 0 0 0 0-.06 1.06 1.06 0 0 0 .02-.16 2.03 2.03 0 0 0 0-.22v-.02a.34.34 0 0 0 .02-.14z" data-name="Path 91804"/></g></g><g data-name="Group 84059"><g data-name="Group 84058"><path fill="#778aa1" d="M834.1 54.87h-.37l-.05.8.43.02zm.77-.04h-.04l-.34.03.05.8h.06l.37-.03zm-1.75-.03l-.16-.03-.14.8.42.06.1-.8-.22-.03zm2.5-.11l-.33.07a.39.39 0 0 1-.04.01l.15.8.42-.09zm-3.4-.1l-.24.77.42.12.19-.79a8.54 8.54 0 0 1-.36-.1zm4.13-.13l-.36.13.25.77.1-.04.3-.1zm-4.84-.15l-.34.74a.2.2 0 0 0 .04.02l.24.1.12.05.3-.76a3.77 3.77 0 0 1-.36-.15zm5.53-.17a5.4 5.4 0 0 1-.34.17l.34.74a1.77 1.77 0 0 0 .2-.1l.2-.1zm-6.2-.2l-.44.69.06.04.25.14a.57.57 0 0 0 .07.04l.39-.71-.32-.19zm7.32.43l-.49-.64-.3.21.43.69.36-.26zm-7.9-.86l-.02-.01-.53.6c.1.1.2.17.31.26l.03.02.49-.65c-.1-.06-.18-.14-.28-.22zm8.56.28l-.58-.56a3.7 3.7 0 0 1-.27.26l.53.6a1.04 1.04 0 0 0 .1-.08l.1-.11a.5.5 0 0 0 .07-.05l.05-.06zm-8.93-.64a1.62 1.62 0 0 1-.14-.16l-.03-.03-.63.51.1.1a.97.97 0 0 0 .08.1l.12.13.58-.56-.08-.1zm9.49-.04l-.67-.46c-.03.06-.07.1-.11.15l-.11.15.62.51c.1-.12.2-.23.27-.35zm-9.9-.49a6.7 6.7 0 0 1-.16-.25.16.16 0 0 1-.01-.02l-.71.4a.5.5 0 0 0 .03.04 2.48 2.48 0 0 0 .14.23.69.69 0 0 0 .06.1l.68-.46a.42.42 0 0 1-.03-.03zm10.33-.29l-.74-.32-.16.33.7.4a3.08 3.08 0 0 0 .2-.4zm-10.73-.49a1.32 1.32 0 0 1-.07-.17l-.77.25a3.48 3.48 0 0 0 .16.42l.74-.32a1.71 1.71 0 0 1-.06-.18zm10.21-.53l-.02.07a.8.8 0 0 1-.02.1 1.07 1.07 0 0 1-.05.17v.01l.77.25.06-.21a1.28 1.28 0 0 0 .05-.21.01.01 0 0 0 0-.01zm-10.42-.3a.23.23 0 0 1 0-.05l-.81.09h-.01v.06l.04.24a.03.03 0 0 0 0 .02.6.6 0 0 0 .01.07.07.07 0 0 0 0 .02.1.1 0 0 0 0 .03l.8-.17-.03-.3zm10.5-.42a1.99 1.99 0 0 1-.01.22 1.07 1.07 0 0 1-.02.14l.82.08a.52.52 0 0 0 0-.06 1.06 1.06 0 0 0 0-.16 2.03 2.03 0 0 0 .02-.23v-.02zm-10.53-.16h-.81v.16h.82v-.15z" data-name="Path 91805"/></g></g></g><g fill="#4b4e54" data-name="Group 84061"><path d="M828.69 114.41h-2a3.97 3.97 0 0 0-3.97 3.98h9.95a3.97 3.97 0 0 0-3.98-3.98z" data-name="Path 91806"/><path d="M827.69 118.39h-4.98v2.01h9.96v-2.01z" data-name="Path 91807"/></g><g fill="#4b4e54" data-name="Group 84062"><path d="M841.33 114.41h-2a3.97 3.97 0 0 0-3.97 3.98h9.94a3.97 3.97 0 0 0-3.96-3.98z" data-name="Path 91808"/><path d="M840.33 118.39h-4.97v2.01h9.94v-2.01z" data-name="Path 91809"/></g><g data-name="Group 84065"><g data-name="Group 84063"><path fill="#fcca89" d="M844.1 60.4v23a2.65 2.65 0 1 0 5.3 0v-23z" data-name="Path 91810"/></g><g data-name="Group 84064"><path fill="#778aa1" d="M842.97 50.44l.82 30.23h6.43l-.82-23.4a6.83 6.83 0 0 0-4.85-6.54 4.26 4.26 0 0 0-1.58-.29z" data-name="Path 91811"/></g></g><g data-name="Group 84068"><g data-name="Group 84066"><path fill="#fcca89" d="M818.82 60.4v23a2.65 2.65 0 1 0 5.29 0v-23z" data-name="Path 91812"/></g><g data-name="Group 84067"><path fill="#778aa1" d="M825.24 50.44l-.81 30.23H818l.81-23.4a6.83 6.83 0 0 1 4.85-6.54 4.26 4.26 0 0 1 1.58-.29z" data-name="Path 91813"/></g></g><g data-name="Group 84071"><g data-name="Group 84069"><path fill="#f2f2f2" d="M834.1 52.04l-1.03 1.5a.38.38 0 0 1-.27.15.39.39 0 0 1-.3-.09l-3.63-3.14h-.01l-.03-.03 2.31-1.66 1.66 1.83z" data-name="Path 91814"/></g><g data-name="Group 84070"><path fill="#f2f2f2" d="M839.37 50.44l-3.67 3.16a.38.38 0 0 1-.56-.07l-1.03-1.5 1.32-1.46 1.64-1.8z" data-name="Path 91815"/></g></g></g><g data-name="Group 84117"><g data-name="Group 84076"><g data-name="Group 84073"><path fill="#f0bc7a" d="M869.78 54.44c0 .98-2.6 1.77-5.82 1.77s-5.8-.79-5.8-1.77c1.01 0 2.54-.82 2.54-1.84v-3.17h6.54v3.17c0 1.02 1.52 1.84 2.54 1.84z" data-name="Path 91816"/></g><g data-name="Group 84074"><path fill="#8c5919" d="M872.81 35.83c-.1 1.37-.82 5.97-1.05 5.97h-15.6c-.22 0-.94-4.6-1.04-5.97a6.7 6.7 0 0 1 .26-2.43c.99-3.41 4.59-5.92 8.58-5.92a9.2 9.2 0 0 1 4.52 1.17 9.46 9.46 0 0 1 2.1 1.6 7.23 7.23 0 0 1 2.23 5.58z" data-name="Path 91817"/></g><g data-name="Group 84075"><path fill="#fcca89" d="M871.77 36.08v5.46c0 2.44-2.09 6.02-4.54 7.96a6.03 6.03 0 0 1-2.85 1.36l-.2.02h-.21a3.46 3.46 0 0 1-.4-.03 5.89 5.89 0 0 1-2.86-1.35c-2.46-1.94-4.55-5.52-4.55-7.97v-5.45a7.8 7.8 0 1 1 15.62 0z" data-name="Path 91818"/></g></g><g data-name="Group 84077"><path fill="#585a5c" d="M875.04 54.77v76.87h-8.73l-1.15-36.15a1.2 1.2 0 0 0-2.39 0l-1.16 36.15h-8.72V54.76a7.04 7.04 0 0 1 1.1-.28 1.33 1.33 0 0 1 .15-.02.08.08 0 0 1 .04 0 .12.12 0 0 1 .04 0 .05.05 0 0 1 .04 0c.11-.02.23-.02.37-.02h3.52c0 .34.33.65.87.92a4.08 4.08 0 0 0 .4.17v.01a11.7 11.7 0 0 0 3.08.61l.29.03a.86.86 0 0 1 .12 0c.34.02.69.03 1.05.03a13.35 13.35 0 0 0 4.54-.68 4.47 4.47 0 0 0 .57-.26l.24-.14.03-.03a1.3 1.3 0 0 0 .3-.3.68.68 0 0 0 .13-.35v-.02h3.52c.15 0 .3 0 .41.02a.04.04 0 0 1 .04 0 .11.11 0 0 1 .05 0 1.46 1.46 0 0 1 .15.02 7.34 7.34 0 0 1 1.1.3z" data-name="Path 91819"/></g><g data-name="Group 84078"><path fill="#4b4e54" d="M875.49 54.77v37.08h-23.05V54.76l.48-.12a1.6 1.6 0 0 1 .16-.04l.3-.06c.1 0 .19-.02.28-.04a.27.27 0 0 1 .1 0 1.55 1.55 0 0 1 .23-.02 1.33 1.33 0 0 1 .15-.02.08.08 0 0 1 .04 0 .12.12 0 0 1 .04 0 .05.05 0 0 1 .04 0c.13-.02.25-.02.38-.02h3.51l1.27 1.1 3.13 2.7 1.41-2.03 1.4 2.03 3.15-2.7 1.27-1.1h3.93a.04.04 0 0 1 .04 0 .11.11 0 0 1 .04.01 1.46 1.46 0 0 1 .16.02 6.46 6.46 0 0 1 1.54.3z" data-name="Path 91820"/></g><g data-name="Group 84079"><path fill="#4b4e54" d="M863.68 67.98l-.57 1.4v22.47h-10.67V54.76l.48-.12a1.6 1.6 0 0 1 .16-.04l.3-.06c.1 0 .19-.02.28-.04a.27.27 0 0 1 .1 0 2.26 2.26 0 0 1 .39-.04.08.08 0 0 1 .03 0 .06.06 0 0 1 .04 0 .05.05 0 0 1 .04 0c.13-.02.25-.02.38-.02h2.12l2.72 6.48-1.8-.26z" data-name="Path 91821"/></g><g data-name="Group 84080"><path fill="#4b4e54" d="M875.49 54.77v37.08H863.1V69.37l.85-1.05 6.28-7.66-1.18.17-.6.1.06-.17 2.65-6.32h2.13l.42.01a.04.04 0 0 1 .03 0 .11.11 0 0 1 .05.01 6.92 6.92 0 0 1 1.69.3z" data-name="Path 91822"/></g><g data-name="Group 84081"><path fill="#b3b3b3" d="M874.45 54.77v37.08h-12.38V69.37l.85-1.05 6.28-7.66-1.8.26 2.73-6.48h2.13a7.34 7.34 0 0 1 2.19.33z" data-name="Path 91823"/></g><g data-name="Group 84082"><path fill="#4b4e54" d="M875.49 54.77v37.08H863.1V69.37l.85-1.05 6.28-7.66-1.18.17-.6.1.06-.17 2.65-6.32h2.13l.42.01a.04.04 0 0 1 .03 0 .11.11 0 0 1 .05.01 6.92 6.92 0 0 1 1.69.3z" data-name="Path 91824"/></g><g data-name="Group 84083"><path fill="#4b4e54" d="M868.45 60.92l1.8-.26-6.28 7.66-.86 1.05.58-1.4-6-7.32 1.8.27-2.72-6.48h1.4l.89.77.38.33 3.13 2.7 1.4-2.03 1.41 2.03 3.13-2.7.37-.32v-.01l.9-.77h1.39z" data-name="Path 91825"/></g><g data-name="Group 84084"><path fill="#4b4e54" d="M863.96 56.22l-1.4 2.02-3.13-2.7a11.44 11.44 0 0 0 3.08.61c.1.01.18.03.29.03a1.13 1.13 0 0 1 .12 0c.34.02.69.04 1.04.04z" data-name="Path 91826"/></g><g data-name="Group 84085"><path fill="#4b4e54" d="M868.51 55.53l-3.14 2.71-1.4-2.03a13.29 13.29 0 0 0 4.54-.68z" data-name="Path 91827"/></g><g fill="#4b4e54" data-name="Group 84086"><path d="M858 125.04h-2.22a4.38 4.38 0 0 0-4.38 4.38h10.98a4.39 4.39 0 0 0-4.39-4.38z" data-name="Path 91828"/><path d="M856.89 129.42h-5.5v2.23h10.99v-2.23z" data-name="Path 91829"/></g><g fill="#4b4e54" data-name="Group 84087"><path d="M871.94 125.04h-2.21a4.38 4.38 0 0 0-4.38 4.38h10.97a4.38 4.38 0 0 0-4.38-4.38z" data-name="Path 91830"/><path d="M870.83 129.42h-5.48v2.23h10.97v-2.23z" data-name="Path 91831"/></g><g data-name="Group 84090"><g data-name="Group 84088"><path fill="#fcca89" d="M874.98 65.44V90.8a2.92 2.92 0 1 0 5.85 0V65.44z" data-name="Path 91832"/></g><g data-name="Group 84089"><path fill="#585a5c" d="M881.74 87.8h-7.08l-.2-7.55-.7-25.65v-.15a.11.11 0 0 1 .05.01 6.91 6.91 0 0 1 1.69.3 7.54 7.54 0 0 1 5.34 7.22z" data-name="Path 91833"/></g></g><g data-name="Group 84093"><g data-name="Group 84091"><path fill="#fcca89" d="M847.1 65.44V90.8a2.92 2.92 0 1 0 5.84 0V65.44z" data-name="Path 91834"/></g><g data-name="Group 84092"><path fill="#585a5c" d="M854.18 54.45l-.9 33.36h-7.09l.9-25.83a7.55 7.55 0 0 1 5.35-7.21c.16-.05.32-.1.47-.13a1.6 1.6 0 0 1 .17-.04l.3-.06.28-.03a.27.27 0 0 1 .1-.02 2.26 2.26 0 0 1 .38-.03.08.08 0 0 1 .04 0z" data-name="Path 91835"/></g></g><g data-name="Group 84094"><path fill="#e6e6e6" d="M863.96 67.8l-4.53-8.7-1.28-4.57 2.44-.1 3.37 3.32 4.27-3.64 2.01.5-4 9.74z" data-name="Path 91836"/></g><g data-name="Group 84097"><g data-name="Group 84095"><path fill="#4b4e54" d="M862.43 57.75l1.53-1.54 1.54 1.54-1.54 1.53z" data-name="Rectangle 23898"/></g><g data-name="Group 84096"><path fill="#4b4e54" d="M863.96 67.8l-1.53-2.62 1.53-8.97 1.54 8.97z" data-name="Path 91837"/></g></g><g data-name="Group 84100"><g data-name="Group 84098"><path fill="#585a5c" d="M864.56 70.94a.6.6 0 1 1-.6-.6.6.6 0 0 1 .6.6z" data-name="Path 91838"/></g><g data-name="Group 84099"><path fill="#585a5c" d="M864.2 71.1h-.48a.16.16 0 0 1-.15-.15.16.16 0 0 1 .15-.16h.48a.16.16 0 0 1 .16.16.16.16 0 0 1-.16.15z" data-name="Path 91839"/></g></g><g data-name="Group 84103"><g data-name="Group 84101"><path fill="#585a5c" d="M864.56 77.58a.6.6 0 1 1-.6-.6.6.6 0 0 1 .6.6z" data-name="Path 91840"/></g><g data-name="Group 84102"><path fill="#585a5c" d="M864.2 77.73h-.48a.16.16 0 0 1 0-.31h.48a.16.16 0 1 1 0 .31z" data-name="Path 91841"/></g></g><g data-name="Group 84104"><path fill="#fcca89" d="M856.8 38.54c0 1.42-.28 2.58-.64 2.58-.22 0-.41-.43-.53-1.1a9.23 9.23 0 0 1-.12-1.48 5.4 5.4 0 0 1 .12-1.25c.12-.45.31-.6.53-.6.36-.01.65.41.65 1.85z" data-name="Path 91842"/></g><g data-name="Group 84105"><path fill="#fcca89" d="M872.42 38.54a9.09 9.09 0 0 1-.11 1.46c-.12.68-.32 1.12-.54 1.12-.36 0-.65-1.16-.65-2.58s.3-1.86.65-1.86c.22 0 .42.17.54.63a5.38 5.38 0 0 1 .1 1.23z" data-name="Path 91843"/></g><g data-name="Group 84106"><path fill="#8c5919" d="M872.24 34.83c-.37.82-.8 1.15-1.28 1.19.01.93-2.95-.71-3.95-1.47a4.51 4.51 0 0 0 .33 1.06c.82 1.71-2.73-.22-3.83-1.06a4.4 4.4 0 0 0 .33 1.06c.81 1.71-2.73-.22-3.83-1.06a4.68 4.68 0 0 0 .33 1.06c.9 1.88-3.46-.63-4.08-1.27l-.88-.94c.99-3.41 4.58-5.92 8.58-5.92a9.2 9.2 0 0 1 4.52 1.17 9.46 9.46 0 0 1 2.1 1.6v.32l-.03.15a8.3 8.3 0 0 1 1.7 4.11z" data-name="Path 91844"/></g><g data-name="Group 84107"><path fill="#8c5919" d="M856.97 37.96a.88.88 0 0 1-.88.87V34.2h.88z" data-name="Path 91845"/></g><g data-name="Group 84108"><path fill="#8c5919" d="M871.84 38.83a.88.88 0 0 1-.88-.87v-3.78h.88z" data-name="Path 91846"/></g><g data-name="Group 84109"><path fill="#f2f2f2" d="M863.96 56.22l-1.4 2.02-3.13-2.7-1.27-1.1 2.54-1.83z" data-name="Path 91847"/></g><g data-name="Group 84110"><path fill="#f2f2f2" d="M869.78 54.44l-1.26 1.1-3.15 2.7-1.4-2.02 3.26-3.62z" data-name="Path 91848"/></g><g data-name="Group 84113"><g data-name="Group 84111"><path fill="#585a5c" d="M870.24 60.66l-6.28 7.66-.86 1.05.58-1.4.28-.7 2.47-6.04 2.01-.3z" data-name="Path 91849"/></g><g data-name="Group 84112"><path fill="#585a5c" d="M871.99 54.44l-3.54 6.48-2.02.3 2.45-6v-.01l.44-1.1z" data-name="Path 91850"/></g></g><g data-name="Group 84116"><g data-name="Group 84114"><path fill="#585a5c" d="M863.96 67.27v1.05l-.28-.34-6-7.33 1.8.27 2.02.3z" data-name="Path 91851"/></g><g data-name="Group 84115"><path fill="#585a5c" d="M861.5 61.22l-2.02-.3-3.54-6.48 2.67-.33.44 1.1z" data-name="Path 91852"/></g></g></g></g></g><path fill="url(#a)" stroke="rgba(0,0,0,0)" d="M624 90V78h18v12zm-24 0V72h18v18zm-24 0V66h18v24zm-24 0V60h18v30zm-24 0V54h18v36zm-24 0V48h18v42zm-24 0V42h18v48zm-24 0V36h18v54zm-24 0V30h18v60zm-24 0V24h18v66zm-24 0V18h18v72zm-24 0V12h18v78zm-24 0V6h18v84zm-24 0V0h18v90zm-24 0V6h18v84zm-24 0V12h18v78zm-24 0V18h18v72zm-24 0V24h18v66zm-24 0V30h18v60zm-24 0V36h18v54zm-24 0V42h18v48zm-24 0V48h18v42zm-24 0V54h18v36zm-24 0V60h18v30zm-24 0V66h18v24zm-24 0V72h18v18zM0 90V78h18v12z" data-name="Union 25" transform="translate(156 42)"/></svg>