<svg xmlns="http://www.w3.org/2000/svg" width="195.58" height="200" viewBox="0 0 195.58 200"><g transform="translate(-7701.082 2480)"><g transform="translate(7622.381 -2573.1)" opacity="0.42"><path d="M159.553,347.5a85.76,85.76,0,0,1-7.406-8.464c-24.745-32.386-18.828-102.351,32.621-103.448a94.976,94.976,0,0,1,27.841,3.84c5.172,1.45,9.757,3.958,15.282,3.84,9.835-.2,16.595-8.444,26.156-9.424,72.806-7.523,86.383,85.913,44.142,128.135-13.558,13.538-35.364,20.611-53.821,24.04-17.261,3.194-28.37-4.9-43.3-11.814C186.1,367.265,171.309,359.291,159.553,347.5Z" transform="translate(-47.703 -112.821)" fill="#daf4fc"/><path d="M623.807,177.357c-.411-.627-.8-1.274-1.234-1.881-.666-.94-1.489-2.214-1.293-3.429.1-.607.568-.96,1.2-1.215.529-.216,1.038-.2,1.176-.666a4.516,4.516,0,0,0-.118-1.352c-.078-.47-.745-3-.137-3.331.686-.392,2.038,3.429,2.135,3.664.686,1.744,1.979,3.527,2.136,5.427.059.8.02,1.587.1,2.41a3.156,3.156,0,0,1-.372,2.351c-.216.255-1.254,1.117-1.567,1.078-.431-.059-1.176-1.783-1.45-2.194C624.16,177.906,623.983,177.632,623.807,177.357Z" transform="translate(-436.251 -58.18)" fill="#fc7354"/><path d="M673.806,1035.879l-.98-.02s-.078-4.761-.47-4.781-2.86,4.683-2.86,4.683l-4.545-.118a3.932,3.932,0,0,1,.039-1.724,8.434,8.434,0,0,1,2.429-1.8c4.271-.176,5.662-5.839,5.682-5.917a17.573,17.573,0,0,1,.882,1.685C674.473,1028.982,673.806,1035.879,673.806,1035.879Z" transform="translate(-471.321 -750.283)" fill="#10215f"/><path d="M980.052,860.153c-.313.529-1.94,1.724-4.722.137-.784-.451-2.077-1.038-3.331-1.783a.06.06,0,0,1,.039.02c.372.137,3.644,1.372,4.271,0h0c.666-1.45-2.429-3.527-2.429-3.527a29.518,29.518,0,0,1,3.037.627C980.209,856.509,981.306,857.978,980.052,860.153Z" transform="translate(-718.28 -612.625)" fill="#10215f"/><path d="M681.647,899.34a3.927,3.927,0,0,0,.607,1.685c-.02.078-1.411,5.741-5.682,5.917.49-.176,1.293-4.565,1.43-6.034s-.333-9.992-.509-14.5c-.137-3.292-.8-10.658-1.156-14.381-.059-.627-.118-1.136-.137-1.528a23.889,23.889,0,0,0,2.88.666,15.427,15.427,0,0,0,7.151-.49,3.609,3.609,0,0,1,.1.49,6.411,6.411,0,0,1,.059.921C686.408,878.513,681.666,898.5,681.647,899.34Z" transform="translate(-480.435 -625.088)" fill="#fc7354"/><path d="M842.569,786.835a15.66,15.66,0,0,0,3.644.764s3.1,2.077,2.43,3.527h0c-.705,1.313-3.9.137-4.271,0-.019,0-.019-.02-.039-.02a21.525,21.525,0,0,0-2.449-1.313c-2-.843-26.685-8.68-26.685-8.68l-.549-.176-1.45-.49a22.34,22.34,0,0,0,3-5.212,27.834,27.834,0,0,0,1.273-4.036c.294.137.745.372,1.313.646a45.293,45.293,0,0,1,4.173,2.312C824.485,775.217,841.766,786.286,842.569,786.835Z" transform="translate(-590.593 -545.243)" fill="#fc7354"/><g transform="translate(222.587 225.957)"><path d="M818.684,771.866c0,.02,0,.02-.02.039a27.839,27.839,0,0,1-1.274,4.036,22.629,22.629,0,0,1-2.841,5l-1.45-.49a22.341,22.341,0,0,0,3-5.212,27.854,27.854,0,0,0,1.274-4.036C817.665,771.357,818.135,771.592,818.684,771.866Z" transform="translate(-813.1 -771.2)" fill="#ed4d4c"/></g><g transform="translate(176.329 116.885)"><path d="M587.815,222.709a34.817,34.817,0,0,1-3.213,4.154,64.6,64.6,0,0,1-7.6,6.857c2.9,5.388,4.878,11.4,7.053,17.2a21.071,21.071,0,0,0,3.507,6.5c4.585,5.29,9.248,5.721,16.007,4.291,6.583-1.391,17.633-8.621,10.208-13.382-1.548-1,.235-1.1-3.958-2.057-3.1-.705-12.618.686-12.618.686-.176.02-3.84-29.9-4.761-32.465-1.979,1.509-2.41,4.134-3.468,6.25A20.441,20.441,0,0,1,587.815,222.709Z" transform="translate(-577 -214.5)" fill="#1b1937"/><path d="M678.991,399.408l-14.263,16.614s-3.938-6.544-5.682-9.718c-4.506-8.17-11.266-8.7-11.266-8.7s-11.011-1.9-15.909-2.606c-.98,3.683-1.92,7.367-2.88,11.031a241.707,241.707,0,0,1-7.817,25.549c-1.881,4.9-4.115,9.679-6.074,14.557l1.1.94-8.8,35.11c2.273,2.1,8.523,2.234,8.523,2.234l-.411,1.822a31.781,31.781,0,0,0,3.448,1.822,27.94,27.94,0,0,0,3.958,1.469c2.978.843,6.367,1.469,9.071-.176,1.273-.784,1.783-1.509,3.37-1.489,1.92.02,3.723.686,5.78.47a8.914,8.914,0,0,0,6.681-3.566,16.97,16.97,0,0,0,2.292-4.663c3.507.823,8.346-4.036,8.738-7.269,0,.02-4.095-3.311-4.33-4.781-.372-2.351.059-5.231.039-7.641q-.088-8.64-.176-17.3c-.059-6.407-.137-12.814-.2-19.24,0,0,1.43,9.659,7.347,11.089,6.309,1.528,18.534-15.38,18.534-15.38Z" transform="translate(-601.444 -359.636)" fill="#1b1937"/><path d="M756.593,403.717l-.725-4.9L749.5,397.8l5.976,12.461,12.931-7.6s-1.881-2.371-6.368-2.8Z" transform="translate(-715.703 -361.887)" fill="#ff9a01"/><g transform="translate(12.245 93.241)"><path d="M720.505,727.547l5.231-37.147L716.9,727.9Z" transform="translate(-701.735 -690.4)" fill="#1b1937"/><path d="M641.734,726.206l7.719-30.505L639.5,726.068Z" transform="translate(-639.5 -694.662)" fill="#1b1937"/><path d="M816.048,761.81,815.813,744,814.5,764.788A7.741,7.741,0,0,0,816.048,761.81Z" transform="translate(-780.213 -733.498)" fill="#1b1937"/></g></g><g transform="translate(199.664 135.361)"><path d="M775.8,330.943c.96,1.352.744,2.821.059,4.526a.7.7,0,0,1-.078.176l.686,4.389,5.447-3.86c.02,0,0-.039,0-.078a11.6,11.6,0,0,1,.1-4.075c1.078-6.936,1.215-12.206-1.352-13.284-.02,0-.02-.02-.039-.02-.1-.039-.216-.078-.314-.118-1.058.118-4.33.647-5.349,3.076A10.341,10.341,0,0,0,775.8,330.943Z" transform="translate(-758.934 -316.68)" fill="#fc7354"/><path d="M701.547,336.032a2.118,2.118,0,0,1-.451,2.136,15.91,15.91,0,0,0-1.469,2.116,56.177,56.177,0,0,0-2.9,5.564s-1.8,4.624.705,6.936a5.318,5.318,0,0,0,2.567,1.2,11.049,11.049,0,0,0,9.444-2.469,8.679,8.679,0,0,0,1.881-2.449c2.978-5.741,1.509-9.6.451-11.932-.039-.078-.078-.157-.118-.255-.784-1.7-1.469-2.939-.764-4.565.745-1.744,1.587-3.272,2.116-4.643.666-1.7.96-3.154,0-4.526a10.2,10.2,0,0,1-.862-9.287,3.512,3.512,0,0,1,.431-.745h0c1.313-1.783,3.977-2.234,4.918-2.332a.642.642,0,0,1,.353.059c1.176.49,1.783,1.861,2,3.879h0a17.853,17.853,0,0,1,.078,1.822,53.99,53.99,0,0,1-.725,7.582,11.58,11.58,0,0,0-.117,4.154c.176-.176.451-.431.8-.784h0c2.077-2.077,6.622-7.112,5.368-12.637-.8-3.605-6.524-6.015-6.524-6.015h0s-9.248-.607-11.834,2.939a3.55,3.55,0,0,0-.588,1.293c-1.234,5.839,1.254,7.465-.529,8.836a2.9,2.9,0,0,1-.255.176c-1.489,1.078-3.664,2.175-5.075,3.86a5.829,5.829,0,0,0-1.273,2.469,5.489,5.489,0,0,0-.137,1.156,6.32,6.32,0,0,0,.137,1.391C699.686,333.132,701.135,334.641,701.547,336.032Z" transform="translate(-696.1 -308.798)" fill="#10215f"/><path d="M786.885,377.8c-.843,3.194-4.526,5.29-4.526,5.29.666-1.7.9-3.174-.059-4.526C783.887,380.19,786.885,377.8,786.885,377.8Z" transform="translate(-765.411 -364.281)" fill="#fc7354"/></g><g transform="translate(211.223 126.525)"><path d="M782.752,270.538l-5.349.686-1.293,4.741-8.052.2-3.35-3.213,1.352-4.369-4.859-3.742,11.442-1.136Z" transform="translate(-760.005 -263.7)" fill="#1b1937"/><path d="M755.1,282.413l.294.1.607-1.94-.372,2.155.294.059.372-2.155-.059,2.038.314.02.1-3.292a.481.481,0,0,0,.235-.333.422.422,0,0,0-.235-.47l1.7-9.992-.313.039-1.685,9.914a.458.458,0,0,0-.372.372.433.433,0,0,0,.118.372Z" transform="translate(-755.1 -267.64)" fill="#ff9a01"/></g><g transform="translate(253.857 140.2)"><g transform="translate(3.331)"><path d="M989.719,334.48v.039l.451,10.952L989.7,357.7c0,.686,1.254,1.254,2.782,1.254,1.548,0,2.782-.549,2.782-1.254l-.157-4.017-.02-.49-.274-7.7.47-10.913v-.059a.814.814,0,0,0-.2-.47,5.094,5.094,0,0,0-2.567-.549,5.243,5.243,0,0,0-2.606.529A1.131,1.131,0,0,0,989.719,334.48Z" transform="translate(-989.7 -333.5)" fill="#fff"/><path d="M989.8,334.462a.177.177,0,0,0,.02.1c.059.176.294.333.627.47.059,1.156.47,9.933.294,11.677-.176,1.861-.627,11.56-.627,11.658l.2.157c0-.1.47-9.953.646-11.795.157-1.724-.216-10.09-.294-11.6a6.849,6.849,0,0,0,1.94.255c1.352,0,2.527-.314,2.782-.725a.464.464,0,0,0,.039-.157.444.444,0,0,0-.235-.353,5.1,5.1,0,0,0-2.567-.549,5.242,5.242,0,0,0-2.606.529A.436.436,0,0,0,989.8,334.462Z" transform="translate(-989.78 -333.58)" fill="#8ee2ff"/><path d="M991.7,388.594v.921h4.839v-.921h-1.822c.862-.451,1.058-1.2.568-1.391-.47-.176-1,.842-1.254,1.371v.02h-.02v-.02c-.216-.49-.8-1.626-1.293-1.45-.529.2-.274,1.019.705,1.469Z" transform="translate(-991.308 -376.603)" fill="#ed4d4c"/><path d="M1003.1,419.551a3.04,3.04,0,0,0,2.782,2.958h.02l-.02-.49a3.049,3.049,0,0,1-2.7-2.919A1.671,1.671,0,0,0,1003.1,419.551Z" transform="translate(-1000.475 -402.329)" fill="#8ee2ff"/></g><g transform="translate(0 13.323)"><path d="M972.7,404.694s2.723-2.958,3.7-3.1a15.93,15.93,0,0,1,2.567-.078s-.02,1-1.332,1.352a1.666,1.666,0,0,0-1.391,1.881c-.019.607-.137,4.173-.137,4.173l-3.135,1.254Z" transform="translate(-972.7 -401.5)" fill="#fc7354"/><path d="M1003.6,408.982v.039a3.044,3.044,0,0,0,2.782,2.919c.2,0,.353-.333.47-.843.353-1.587.216-4.859-.666-4.506C1006.167,406.592,1003.6,407.532,1003.6,408.982Z" transform="translate(-997.546 -405.573)" fill="#fc7354"/></g></g><g transform="translate(121.823 93.1)"><path d="M325.328,93.1l-4.683,5.505,2.978,5.878-7.837,7.426-6.23-.176-2.567-5.545-8.19.647,10.325-11.442Z" transform="translate(-298.8 -93.1)" fill="#1b1937"/><path d="M316.3,169.293l.372-.176-1.136-2.488,1.587,2.488.353-.216-1.587-2.488,1.763,2.1.314-.274-2.861-3.37a.627.627,0,0,0-.059-.529.59.59,0,0,0-.647-.274L307.094,152.6l-.294.313,7.249,11.383a.6.6,0,0,0,.411.98Z" transform="translate(-305.233 -140.943)" fill="#ff9a01"/></g><g transform="translate(78.7 101.387)"><path d="M81.561,722.4l-.313.98s4.722,1.724,4.585,2.116c-.118.392-5.662,1.215-5.662,1.215L78.7,731.276a3.978,3.978,0,0,0,1.724.549,8.6,8.6,0,0,0,2.625-1.8c1.665-4.193,7.778-3.605,7.876-3.605-.47-.509-.921-1.058-1.371-1.469C88.653,724.144,81.561,722.4,81.561,722.4Z" transform="translate(-78.7 -607.392)" fill="#10215f"/><path d="M110.346,737.253a4.375,4.375,0,0,1-1.469-1.176c-.078,0-6.211-.588-7.876,3.605.353-.431,5,.294,6.5.666s9.835,3.8,14.263,5.545c4.389,1.724,8.562,3.919,12.911,5.7,5.055,2.057,11.618-1.881,16.36-4.154,5.153-2.488,8.229-5.76,11.246-10.364-6.485-7.994-20.063,4.448-26.959,3.977-5.094-.353-10.364-1.842-15.458-2.508C116.85,738.115,113.265,738.193,110.346,737.253Z" transform="translate(-96.631 -617.033)" fill="#fc7354"/><path d="M445.529,148.115c.1-3.37.274-6.309-1.019-9.522-.274-.705-1.665-3.644-2.9-3.135-1.7.686.176,6.27-.431,7.7-.764-.666-1.92-2.018-3.115-1.744-.118,1.274,1,2.253,1.528,3.292.49.96.49,2.018.96,2.978.372.764.842,1.45,1.215,2.234a3.336,3.336,0,0,0,1.607,1.92,4.118,4.118,0,0,0,2,.118c.353-.274.1-2.253.118-2.763C445.51,148.82,445.51,148.467,445.529,148.115Z" transform="translate(-367.649 -135.399)" fill="#fc7354"/><path d="M161.8,953.022l.568.862s4.31-2.567,4.545-2.214c.216.353-2.625,5.153-2.625,5.153l2.606,4.016s1.234-.49,1.528-1a8.666,8.666,0,0,0,.274-3.174c-2.194-3.938,2.136-8.307,2.194-8.366-.686.039-1.411.039-2,.137C167.639,948.613,161.8,953.022,161.8,953.022Z" transform="translate(-145.519 -789.033)" fill="#10215f"/><path d="M198.391,814.546a4.219,4.219,0,0,1-1.842.392c-.059.059-4.389,4.428-2.194,8.366-.1-.549,3.389-3.683,4.624-4.6s9.169-5.212,13.3-7.543c5.349-3,11.364-6.407,17.32-7.857,5.408-1.313,12.128-3.057,16.458-6.72,3.389-2.88,8.484-6.8,7.563-11.814-.451-2.469-.392-1.959-2.861-2.194a24.832,24.832,0,0,0-11.089,1.528c-4.447,1.724-8.268,4.624-12.343,7.014a103.3,103.3,0,0,0-17.672,12.892C206.032,807.317,202.506,811.862,198.391,814.546Z" transform="translate(-171.197 -655.69)" fill="#fc7354"/><g transform="translate(25.294 11.814)"><path d="M445.619,196.8c2.234,1,4.526,2.41,6.446,3.135a86.387,86.387,0,0,0,10.8,3.389c3.468.823,3.448.627,3.115,3.625a87.551,87.551,0,0,1-9.111,29.6c-1.763,3.429-8.66,17.966-14.42,14.165-3.487-2.292.078-11.834.98-14.636,1.646-5.094,4.33-11.07,3.292-16.438-1.548-7.955-3.233-16.007-4.859-23.942A11.759,11.759,0,0,1,445.619,196.8Z" transform="translate(-395.266 -195.7)" fill="#1b1937"/><path d="M208.878,409.663l15.027,17.5s4.154-6.9,6-10.247c4.741-8.621,11.873-9.169,11.873-9.169s11.6-2,16.771-2.743c1.038,3.879,2.038,7.759,3.037,11.638,1.685,6.446,4.585,12.559,5.917,19.083a148.522,148.522,0,0,1,2.077,42.5,17.057,17.057,0,0,1-4.095,9.013c-2.684,2.939-8.327,2.821-9.15,7.5-.176-.117-1.626-1.587-1.489-1.626-5.937,1.763-9.757.255-12.911-5.27-4.6.333-8.386,3.037-13.245,1.489-3.174-1-5.329-3.331-4.976-6.8-7.621,1.587-11.207-7.112-11.658-13.519a32.611,32.611,0,0,0,9.346-1.371c3.507-1.176,6.622-3.194,9.953-4.722,3.566-1.626,4.722-1.234,4.663-5.447-.1-7.347-2.038-14.655-.94-22.022,0,0-1.509,10.168-7.739,11.7-6.642,1.626-19.534-16.2-19.534-16.2Z" transform="translate(-207.8 -363.993)" fill="#1b1937"/><path d="M302.339,755c-2.606,1.411-4.683,3.585-7.014,5.388a20.651,20.651,0,0,1-4.252,2.527c-.627.294-1.273.549-1.9.823a3.525,3.525,0,0,0-.431.255,6,6,0,0,0,.607,3.448C292.876,762.622,298.479,759.585,302.339,755Z" transform="translate(-272.852 -645.419)" fill="#090916"/><path d="M435.3,810.964a17.987,17.987,0,0,0,2.449-.549,1.65,1.65,0,0,0,.255.49c1.822-3.84,4.428-7.328,5.917-11.3C441.3,803.577,438.787,807.692,435.3,810.964Z" transform="translate(-390.727 -681.281)" fill="#090916"/><path d="M382.016,797.9a44.937,44.937,0,0,1-6.916,6.015c.431-.078.862-.118,1.313-.157a21.181,21.181,0,0,0,1.313,2.018A45.239,45.239,0,0,1,382.016,797.9Z" transform="translate(-342.322 -679.914)" fill="#090916"/><path d="M359.422,414.25l.764-5.172,6.72-1.078-6.289,13.127L347,413.114s1.979-2.508,6.72-2.958Z" transform="translate(-319.727 -366.405)" fill="#ff9a01"/></g><g transform="translate(28.058 32.363)"><path d="M383.924,334.793c-1.019,1.43-.784,2.978-.059,4.781a.7.7,0,0,0,.078.176l-.725,4.624-5.741-4.075c-.02,0,0-.039,0-.078a12.061,12.061,0,0,0-.118-4.31,65.024,65.024,0,0,1-.764-7.014,13.221,13.221,0,0,1,.509-4.957c.274-.764.118-1.607.607-2.214.823-.98,2.645-.509,3.84-.549a3.11,3.11,0,0,1,1.9.666,1.924,1.924,0,0,1,.764,1.391,7.845,7.845,0,0,0,.549,1.783A10.737,10.737,0,0,1,383.924,334.793Z" transform="translate(-346.269 -317.077)" fill="#fc7354"/><path d="M251.235,321.647a10.344,10.344,0,0,1-2.88,2.488c-2.547,1.607-6.054,3.742-8.973,4.448-2.861.686-5.6-.705-8.425-.078a7.04,7.04,0,0,1-7.367-2.469c-1.019-1.136-2.527-2.743-1.1-4.212,1.136-1.156,3.194-.235,4.6-.411a18.439,18.439,0,0,0,5.447-1.744c3.233-1.567,5.388-4.252,7.582-7.014,2.332-2.919,4.173-7.23,7.053-9.581,2.312-1.9,5.153-3.233,8.15-2.038a3.424,3.424,0,0,0,.607.294c.1,0,.2-.157.294-.176.411-.1.862-.372,1.254-.431a3.731,3.731,0,0,1,1.45.333,3.931,3.931,0,0,1,2.547,2.429,7.316,7.316,0,0,1,.118,2.449,18.076,18.076,0,0,0,.509,2.488c.157,1.176.49,3.056-.274,4.114-.157.216-.745.647-.745.921a20.09,20.09,0,0,0-.392-3.9c-.294-1.411-1.1-2.625-1.352-4.056a3.284,3.284,0,0,1-1.685.118c-.294-.078-.549-.255-.862-.313a4.18,4.18,0,0,0-2.351-.039,4.515,4.515,0,0,0-1.117.9,6.6,6.6,0,0,0-1.1,3.311h0a16.011,16.011,0,0,0,.215,3.507C252.783,316.749,252.979,319.355,251.235,321.647Z" transform="translate(-221.906 -300.582)" fill="#10215f"/><path d="M389.4,386.9c.882,3.35,4.781,5.564,4.781,5.564-.705-1.8-.94-3.35.059-4.781C392.554,389.427,389.4,386.9,389.4,386.9Z" transform="translate(-356.584 -369.988)" fill="#fc7354"/></g><g transform="translate(16.435 40.145)"><g transform="translate(0.493)"><path d="M171.178,341.338v.039l-.47,11.54.49,12.872c0,.725-1.313,1.313-2.939,1.313s-2.939-.588-2.939-1.313l.157-4.232.02-.529.294-8.111-.49-11.5v-.059a.739.739,0,0,1,.216-.49,5.373,5.373,0,0,1,2.723-.568,5.458,5.458,0,0,1,2.743.568A.814.814,0,0,1,171.178,341.338Z" transform="translate(-165.261 -340.3)" fill="#fff"/><path d="M171.037,341.321a.147.147,0,0,1-.02.1c-.059.176-.294.353-.666.49-.059,1.234-.49,10.462-.313,12.285.176,1.959.647,12.187.647,12.284l-.216.176c0-.1-.509-10.482-.686-12.441-.176-1.822.235-10.639.313-12.226a7.65,7.65,0,0,1-2.038.274c-1.43,0-2.665-.313-2.919-.764a.236.236,0,0,1-.039-.157c0-.137.1-.255.255-.372a5.373,5.373,0,0,1,2.723-.568,5.458,5.458,0,0,1,2.743.568A.438.438,0,0,1,171.037,341.321Z" transform="translate(-165.1 -340.38)" fill="#8ee2ff"/><path d="M172.494,398.375v.96H167.4v-.96h1.92c-.9-.47-1.117-1.274-.588-1.45.49-.176,1.058.882,1.313,1.43v.02h.02v-.02c.235-.529.842-1.7,1.352-1.528.549.2.274,1.078-.745,1.548Z" transform="translate(-166.949 -385.737)" fill="#ed4d4c"/><path d="M169.158,430.89a3.218,3.218,0,0,1-2.919,3.115H166.2l.02-.529a3.2,3.2,0,0,0,2.841-3.076A1.1,1.1,0,0,1,169.158,430.89Z" transform="translate(-165.984 -412.747)" fill="#8ee2ff"/></g><g transform="translate(0 14.028)"><path d="M186.222,415.27s-2.88-3.115-3.918-3.272a17.683,17.683,0,0,0-2.7-.078s.02,1.058,1.411,1.43a1.765,1.765,0,0,1,1.469,1.979c.02.647.137,4.408.137,4.408l3.311,1.332Z" transform="translate(-176.266 -411.9)" fill="#fc7354"/><path d="M166.173,419.893v.039a3.222,3.222,0,0,1-2.919,3.076c-.216,0-.372-.353-.49-.882-.353-1.685-.216-5.114.686-4.741C163.45,417.365,166.173,418.345,166.173,419.893Z" transform="translate(-162.585 -416.288)" fill="#fc7354"/></g></g></g><ellipse cx="37.657" cy="4.702" rx="37.657" ry="4.702" transform="translate(99.409 283.696)" fill="#daf4fc"/><ellipse cx="37.657" cy="4.702" rx="37.657" ry="4.702" transform="translate(190.514 280.894)" fill="#daf4fc"/></g></g></svg>