<svg xmlns="http://www.w3.org/2000/svg" viewBox="0 0 104 104"><defs><clipPath id="a"><path d="M100 173.8a50 50 0 11-49.96-50 50.01 50.01 0 0149.96 50z" data-name="Path 94779" transform="translate(0 -123.8)"/></clipPath></defs><g data-name="Group 88438"><g data-name="Group 88361"><path fill="#dbe4ff" stroke="#fff" stroke-width="4" d="M102 52A50 50 0 1152.04 2 50.01 50.01 0 01102 52z" data-name="Path 94763"/><g clip-path="url(#a)" data-name="Group 88360" transform="translate(2 2)"><path fill="#432917" d="M72.65 56.14s-6.43 21.85-17.87 23.2v-5c-.08 0 11.69-21.84 17.87-18.2z" data-name="Path 94764"/><path fill="#f8bb94" d="M45.05 73.75h9.82v5.84h-9.82z" data-name="Rectangle 24238"/><path fill="#c6c6c6" d="M45.64 78.15a6.8 6.8 0 014.32-1.94c1.44-.09 3.8.17 4.57-1.27a.87.87 0 01.42-.51v-.6h-9.9v5.09a2.98 2.98 0 01.59-.77z" data-name="Path 94765"/><g data-name="Group 88357"><path fill="#f8bb94" d="M74.6 54.95a4.58 4.58 0 11-4.57-4.4 4.58 4.58 0 014.57 4.4z" data-name="Path 94766"/><g data-name="Group 88356"><path fill="#dadada" d="M70.7 52.58h.34a1.4 1.4 0 01.76.17 1.58 1.58 0 01.94.76c.08.09.08.17.16.34a.5.5 0 01.09.34v.68a2 2 0 01-.17.67 4.13 4.13 0 01-.25.6 2.7 2.7 0 01-.85.84 1.43 1.43 0 01-.42.17c-.17 0-.26.09-.34.09h-.34a.66.66 0 00.25-.09c.09 0 .17-.08.26-.17s.25-.16.34-.25l.33-.34c.09-.17.17-.25.26-.42a1.2 1.2 0 00.17-.5 1.26 1.26 0 00.08-.6v-.51a.31.31 0 00-.08-.25c0-.09-.09-.17-.09-.26a1.73 1.73 0 00-.67-.68 5 5 0 00-.68-.33c0-.26-.09-.26-.09-.26z" data-name="Path 94767"/></g><path fill="#dadada" d="M71.3 55.2a.77.77 0 11-.77-.84.78.78 0 01.77.85z" data-name="Path 94768"/></g><g data-name="Group 88359"><path fill="#f8bb94" d="M26 54.95a4.58 4.58 0 104.57-4.4 4.58 4.58 0 00-4.57 4.4z" data-name="Path 94769"/><g data-name="Group 88358"><path fill="#dadada" d="M29.97 52.58h-.34a1.4 1.4 0 00-.76.17 1.58 1.58 0 00-.93.76c-.08.09-.08.17-.17.34 0 .09-.08.26-.08.34v.68a2 2 0 00.17.67 4.13 4.13 0 00.25.6 2.7 2.7 0 00.85.84 1.43 1.43 0 00.42.17c.17 0 .25.09.34.09h.34a.66.66 0 01-.26-.09c-.08 0-.16-.08-.25-.17s-.25-.16-.34-.25l-.34-.34c-.08-.17-.17-.25-.25-.42a1.2 1.2 0 01-.17-.5 1.26 1.26 0 01-.09-.6v-.51c0-.09.09-.17.09-.25s.08-.17.08-.26a1.73 1.73 0 01.68-.68 4.99 4.99 0 01.68-.33c-.09-.26.08-.26.08-.26z" data-name="Path 94770"/></g><path fill="#dadada" d="M29.38 55.2a.77.77 0 10.76-.84.78.78 0 00-.76.85z" data-name="Path 94771"/></g><path fill="#f8bb94" d="M70.11 49.2c0 14.9-6.94 25.31-20.07 25.31S29.98 64.1 29.98 49.2s7.28-26.92 20.32-26.92S70.1 34.29 70.1 49.19z" data-name="Path 94772"/><path fill="#f8bb94" d="M45.3 79.34s-12.45 1.6-16.93 5.5c-4.58 3.98-5.93 7.37-7.54 15.16h58.51c-1.61-7.79-2.96-11.26-7.54-15.16-4.48-3.9-16.93-5.5-16.93-5.5z" data-name="Path 94773"/><path fill="#e74645" d="M54.7 79.34a63.03 63.03 0 0111.68 2.8s-3.13 7.53 0 17.95H34.21s2.2-6.36.85-18.46a76.2 76.2 0 0110.24-2.29l4.49 8.8z" data-name="Path 94774"/><path fill="#432917" d="M70.87 50.64C64.1 48.94 60.8 40.56 60.8 40.56a10.13 10.13 0 00.26 4.06A62.38 62.38 0 0141.32 29.9c-6.27-7.7 3.8-12.79 3.8-12.79 16.1-5.67 22.96 5.08 22.96 5.08s11.43 10.33 5.75 30.23a5.68 5.68 0 00-2.96-1.77z" data-name="Path 94776"/><path fill="#432917" d="M43.18 21.76s-14.4.5-17.18 23.29c0 0-3.98 41.66 14.73 48.68 0 0-1.19-11.77 4.4-14.3V74S31.5 71.63 31.67 53.77c0 0 .08-20.58 10.5-24.47z" data-name="Path 94777"/><path fill="#fff" d="M71.63 59.19a1.52 1.52 0 11-1.52-1.53 1.52 1.52 0 011.52 1.53z" data-name="Path 94778"/></g></g></g></svg>