<svg xmlns="http://www.w3.org/2000/svg" viewBox="0 0 104 104"><defs><clipPath id="a"><circle cx="50" cy="50" r="50" data-name="Ellipse 2158"/></clipPath></defs><g data-name="Group 88437"><g data-name="Group 88368" transform="translate(2 2)"><circle cx="50" cy="50" r="50" fill="#c5f6fa" stroke="#fff" stroke-width="4" data-name="Ellipse 2157"/><g clip-path="url(#a)" data-name="Group 88367"><path fill="#f8bb94" d="M45.1 73.6h9.8v5.84h-9.8z" data-name="Rectangle 24239"/><path fill="#c6c6c6" d="M45.69 78A6.8 6.8 0 0150 76.06c1.44-.09 3.8.17 4.57-1.27a.87.87 0 01.42-.5v-.6h-9.81v5.08a1.52 1.52 0 01.5-.77z" data-name="Path 94780"/><g data-name="Group 88364"><path fill="#f8bb94" d="M74.62 54.9a4.57 4.57 0 11-4.57-4.4 4.46 4.46 0 014.57 4.4z" data-name="Path 94781"/><g data-name="Group 88363"><path fill="#dadada" d="M70.64 52.45h.34a1.4 1.4 0 01.76.17 1.57 1.57 0 01.93.76c.09.09.09.17.17.34 0 .09.09.26.09.34v.68a2 2 0 01-.17.67 4.13 4.13 0 01-.26.6 2.69 2.69 0 01-.84.84 1.43 1.43 0 01-.43.17c-.16 0-.25.09-.33.09h-.34a.66.66 0 00.25-.09c.09 0 .17-.08.26-.17s.25-.17.33-.25l.34-.34c.09-.17.17-.25.26-.42a1.2 1.2 0 00.16-.51 1.25 1.25 0 00.09-.6v-.5a.31.31 0 00-.09-.26c0-.08-.08-.16-.08-.25a1.73 1.73 0 00-.68-.68 4.99 4.99 0 00-.67-.33c.08-.26-.09-.26-.09-.26z" data-name="Path 94782"/></g><path fill="#dadada" d="M71.23 55.08a.77.77 0 11-.76-.85.83.83 0 01.76.85z" data-name="Path 94783"/></g><g data-name="Group 88366"><path fill="#f8bb94" d="M26.06 54.9a4.57 4.57 0 104.57-4.4 4.46 4.46 0 00-4.57 4.4z" data-name="Path 94784"/><g data-name="Group 88365"><path fill="#dadada" d="M29.95 52.45h-.34a1.4 1.4 0 00-.76.17 1.57 1.57 0 00-.93.76c-.09.09-.09.17-.17.34 0 .09-.09.26-.09.34v.68a2 2 0 00.17.67 4.13 4.13 0 00.26.6 2.69 2.69 0 00.84.84 1.43 1.43 0 00.43.17c.17 0 .25.09.33.09h.34a.66.66 0 01-.25-.09c-.09 0-.17-.08-.26-.17s-.25-.17-.33-.25l-.34-.34c-.09-.17-.17-.25-.26-.42a1.2 1.2 0 01-.16-.51 1.25 1.25 0 01-.09-.6v-.5a.31.31 0 01.09-.26c0-.08.08-.16.08-.25a1.73 1.73 0 01.68-.68 4.99 4.99 0 01.67-.33c0-.26.09-.26.09-.26z" data-name="Path 94785"/></g><path fill="#dadada" d="M29.44 55.08a.77.77 0 10.76-.85.78.78 0 00-.76.85z" data-name="Path 94786"/></g><path fill="#f8bb94" d="M70.13 49.15c0 14.89-6.93 25.3-20.05 25.3s-20.05-10.4-20.05-25.3 7.28-26.9 20.3-26.9c13.04-.08 19.8 12.01 19.8 26.9z" data-name="Path 94787"/><path fill="#f8bb94" d="M45.35 79.27s-12.44 1.6-16.92 5.5c-4.57 3.98-5.92 7.36-7.53 15.15h58.46c-1.61-7.79-2.96-11.26-7.53-15.15-4.49-3.89-16.92-5.5-16.92-5.5h-9.56z" data-name="Path 94788"/><path fill="#00b1c3" d="M38.66 80.54s1.36-.59-3.55 1.02c1.35 12.26-.85 18.44-.85 18.44H66.5c-3.13-10.4 0-17.94 0-17.94l-2.96-1.1s-.26 14.9-13.62 13.88c-.09 0-11.68 1.1-11.26-14.3z" data-name="Path 94789"/><path fill="#732400" d="M43.15 21.74s-14.39.51-17.18 23.27c0 0-2.7 18.7 6.43 34.69a59.58 59.58 0 0112.7-.34v-5.42s-13.63-2.37-13.46-20.22c0 0 .09-20.55 10.5-24.45z" data-name="Path 94791"/><path fill="#732400" d="M56.85 21.74s16.33-.25 19.04 22.5c0 0 1.44 15.23-8.3 35.45a59.58 59.58 0 00-12.68-.34v-5.4s13.62-2.38 13.45-20.23c0 0-.09-20.55-10.5-24.45z" data-name="Path 94792"/><path fill="#732400" d="M37.4 27.5A31.85 31.85 0 0066 40.86l3.8 9.65 3.8 1.52s5.68-1.52-.25-24.61c0 0-6.09-16.84-28.25-11.85 0 .08-11 2.11-7.7 11.93z" data-name="Path 94793"/></g></g></g></svg>