<svg xmlns="http://www.w3.org/2000/svg" viewBox="0 0 104 104"><defs><clipPath id="a"><path d="M193.5 253.9a50 50 0 11-50-50 49.99 49.99 0 0150 50z" data-name="Path 94809" transform="translate(-93.5 -203.9)"/></clipPath></defs><g data-name="Group 88436"><g data-name="Group 88375"><path fill="#edf2ff" stroke="#fff" stroke-width="4" d="M102 52A50 50 0 1152 2a49.99 49.99 0 0150 50z" data-name="Path 94794"/><g clip-path="url(#a)" data-name="Group 88374" transform="translate(2 2)"><path fill="#f8bb94" d="M45.1 73.69h9.8v5.84h-9.8z" data-name="Rectangle 24240"/><path fill="#c6c6c6" d="M45.69 78A6.8 6.8 0 0150 76.06c1.44-.09 3.8.17 4.57-1.27a.87.87 0 01.42-.5v-.6h-9.81v5.08a2 2 0 01.5-.77z" data-name="Path 94795"/><g data-name="Group 88371"><path fill="#f8bb94" d="M74.62 54.9a4.57 4.57 0 11-4.57-4.4 4.46 4.46 0 014.57 4.4z" data-name="Path 94796"/><g data-name="Group 88370"><path fill="#dadada" d="M70.64 52.45h.34a1.4 1.4 0 01.76.17 1.57 1.57 0 01.93.76c.09.09.09.17.17.34 0 .09.09.26.09.34v.68a2 2 0 01-.17.67 4.13 4.13 0 01-.26.6 2.69 2.69 0 01-.84.84 1.43 1.43 0 01-.43.17c-.16 0-.25.09-.33.09h-.34a.66.66 0 00.25-.09c.09 0 .17-.08.26-.17s.25-.17.33-.25l.34-.34c.09-.17.17-.25.26-.42a1.2 1.2 0 00.16-.51 1.25 1.25 0 00.09-.6v-.5a.31.31 0 00-.09-.25c0-.09-.08-.17-.08-.26a1.73 1.73 0 00-.68-.68 4.99 4.99 0 00-.67-.33.37.37 0 00-.09-.26z" data-name="Path 94797"/></g><path fill="#dadada" d="M71.24 55.16a.77.77 0 11-.77-.84.78.78 0 01.77.84z" data-name="Path 94798"/></g><g data-name="Group 88373"><path fill="#f8bb94" d="M26.06 54.9a4.57 4.57 0 104.57-4.4 4.41 4.41 0 00-4.57 4.4z" data-name="Path 94799"/><g data-name="Group 88372"><path fill="#dadada" d="M29.95 52.45h-.34a1.4 1.4 0 00-.76.17 1.57 1.57 0 00-.93.76c-.09.09-.09.17-.17.34 0 .09-.08.26-.08.34v.68a2 2 0 00.16.67 4.13 4.13 0 00.26.6 2.69 2.69 0 00.84.84 1.43 1.43 0 00.43.17c.17 0 .25.09.34.09h.33a.66.66 0 01-.25-.09c-.09 0-.17-.08-.25-.17s-.26-.17-.34-.25l-.34-.34c-.09-.17-.17-.25-.25-.42a1.2 1.2 0 01-.17-.51 1.25 1.25 0 01-.09-.6v-.5a.31.31 0 01.09-.25c0-.09.08-.17.08-.26a1.73 1.73 0 01.68-.68 4.99 4.99 0 01.68-.33.37.37 0 01.08-.26z" data-name="Path 94800"/></g><path fill="#dadada" d="M29.36 55.16a.77.77 0 10.76-.84.78.78 0 00-.76.84z" data-name="Path 94801"/></g><path fill="#f8bb94" d="M70.05 49.15c0 14.89-6.94 25.3-20.05 25.3s-20.05-10.4-20.05-25.3 7.27-26.9 20.3-26.9 19.8 12.01 19.8 26.9z" data-name="Path 94802"/><path fill="#f8bb94" d="M45.26 79.27s-12.43 1.6-16.92 5.5c-4.57 3.98-5.92 7.36-7.53 15.15h58.46c-1.6-7.79-2.96-11.26-7.53-15.15-4.48-3.89-16.92-5.5-16.92-5.5z" data-name="Path 94803"/><path fill="#881718" d="M60.74 80.37c3.81.85 8.55 2.29 10.92 4.4 4.57 3.98 5.92 7.36 7.53 15.15H20.73c1.6-7.79 2.96-11.26 7.53-15.15 2.45-2.11 7.36-3.55 11.25-4.48l10.4 11.25z" data-name="Path 94804"/><path fill="#432917" d="M43.15 21.74s-14.38.51-17.18 23.27c0 0-.5 19.54-.5 42.64 0 0 3.3-5.75 19.62-8.3v-5.4s-13.62-2.38-13.45-20.23c0 0 .09-20.55 10.5-24.45z" data-name="Path 94806"/><path fill="#432917" d="M56.85 21.74s16.33-.84 19.12 21.92c0 0 .34 20.13-1.35 44.16 0 0-4.57-6.43-19.71-8.55v-5.41s13.62-2.37 13.45-20.22c0 0-.09-20.56-10.5-24.45z" data-name="Path 94807"/><path fill="#432917" d="M47.8 43.65l2.03-10.15v10.15H59.9l1.69-7.19 1.78 7.2h12.6a64.6 64.6 0 00-1.35-13.12s-3.39-15.82-27.07-14.47c0 0-19.97 0-21.4 27.58z" data-name="Path 94808"/></g></g></g></svg>