<svg xmlns="http://www.w3.org/2000/svg" viewBox="0 0 104 104"><defs><clipPath id="a"><path d="M193.5 150.8a50 50 0 11-50-50 49.99 49.99 0 0150 50z" data-name="Path 94762" transform="translate(-93.5 -100.8)"/></clipPath></defs><g data-name="Group 88433"><g data-name="Group 88354"><path fill="#edf2ff" stroke="#fff" stroke-width="4" d="M102 52A50 50 0 1152 2a49.99 49.99 0 0150 50z" data-name="Path 94745"/><g clip-path="url(#a)" data-name="Group 88353" transform="translate(2 2)"><path fill="#f8bb94" d="M45.1 73.69h9.8v5.84h-9.8z" data-name="Rectangle 24237"/><path fill="#c6c6c6" d="M45.69 78A6.8 6.8 0 0150 76.06c1.44-.09 3.8.17 4.57-1.27a.87.87 0 01.42-.5v-.6h-9.81v5.08a2 2 0 01.5-.77z" data-name="Path 94746"/><g data-name="Group 88348"><path fill="#f8bb94" d="M74.62 54.9a4.57 4.57 0 11-4.57-4.4 4.46 4.46 0 014.57 4.4z" data-name="Path 94747"/><g data-name="Group 88347"><path fill="#dadada" d="M70.64 52.45h.34a1.84 1.84 0 01.85.17 1.57 1.57 0 01.93.76c.08.09.08.17.17.34 0 .09.08.26.08.34v.68a2 2 0 01-.17.67 4.12 4.12 0 01-.25.6 2.03 2.03 0 01-.85.84 1.43 1.43 0 01-.42.17c-.17 0-.25.09-.34.09h-.34a.37.37 0 01.26-.09c.08 0 .17-.08.25-.17s.25-.17.34-.25l.34-.34c.08-.17.17-.25.25-.42a1.2 1.2 0 00.17-.51 1.25 1.25 0 00.08-.6v-.5a.31.31 0 00-.08-.25c0-.09-.09-.17-.09-.26a1.73 1.73 0 00-.67-.68 4.99 4.99 0 00-.68-.33 1.05 1.05 0 00-.17-.26z" data-name="Path 94748"/></g><path fill="#dadada" d="M71.24 55.08a.78.78 0 01-.77.84.83.83 0 01-.76-.84.78.78 0 01.76-.85.83.83 0 01.77.85z" data-name="Path 94749"/></g><g data-name="Group 88350"><path fill="#f8bb94" d="M26.06 54.9a4.57 4.57 0 104.57-4.4 4.46 4.46 0 00-4.57 4.4z" data-name="Path 94750"/><g data-name="Group 88349"><path fill="#dadada" d="M29.95 52.45h-.34a1.4 1.4 0 00-.76.17 1.57 1.57 0 00-.93.76c-.09.09-.09.17-.17.34 0 .09-.08.26-.08.34v.68a2 2 0 00.16.67 4.12 4.12 0 00.26.6 2.03 2.03 0 00.84.84 1.43 1.43 0 00.43.17c.17 0 .25.09.34.09h.33a.37.37 0 00-.25-.09c-.09 0-.17-.08-.25-.17s-.26-.17-.34-.25l-.34-.34c-.09-.17-.17-.25-.25-.42a1.2 1.2 0 01-.17-.51 1.25 1.25 0 01-.09-.6v-.5a.31.31 0 01.09-.25c0-.09.08-.17.08-.26a1.73 1.73 0 01.68-.68 4.99 4.99 0 01.68-.33.37.37 0 01.08-.26z" data-name="Path 94751"/></g><path fill="#dadada" d="M29.36 55.08a.78.78 0 00.76.84.83.83 0 00.76-.84.78.78 0 00-.76-.85.83.83 0 00-.76.85z" data-name="Path 94752"/></g><path fill="#f8bb94" d="M70.05 49.15c0 14.89-6.94 25.3-20.05 25.3s-20.05-10.4-20.05-25.3 7.27-26.9 20.3-26.9c13.12 0 19.8 12.01 19.8 26.9z" data-name="Path 94753"/><path fill="#f8bb94" d="M45.26 79.27s-12.43 1.6-16.92 5.5c-4.57 3.98-5.92 7.36-7.53 15.15h58.46c-1.6-7.79-2.96-11.26-7.53-15.15-4.48-3.89-16.92-5.5-16.92-5.5z" data-name="Path 94754"/><path fill="#363c47" d="M40.52 80.12s-7.7.76-12.18 4.65c-4.57 3.98-5.92 7.36-7.53 15.15h58.46c-1.6-7.79-2.96-11.26-7.53-15.15-4.48-3.9-12.1-4.65-12.1-4.65l-9.56 9.47z" data-name="Path 94755"/><path fill="#432917" d="M29.35 40.95l.76 12.1 1.78.5c-1.52-19.54 8.8-24.02 8.8-24.02l2.88-12.27a14.55 14.55 0 00-12.7 7.02s-3.29 3.3-1.52 16.67z" data-name="Path 94756"/><g data-name="Group 88351"><path fill="#2a1705" d="M29.44 42.55s-.34-1.52-.67-3.8a48.2 48.2 0 01-.43-3.98 19.25 19.25 0 01-.17-2.2c0-.34-.08-.76-.08-1.18V30.2a8.8 8.8 0 01.17-1.27l.25-1.18c.09-.17.09-.42.17-.6l.25-.58c.17-.34.34-.77.51-1.1a6.31 6.31 0 01.6-1.02 7.32 7.32 0 01.59-.85 10.95 10.95 0 011.27-1.43c.42-.43.84-.76 1.18-1.1s.76-.51 1.01-.76c.6-.34.94-.51.94-.51a22.45 22.45 0 00-2.37 2.96l-.51.76-.51.76a3.95 3.95 0 00-.42.85c-.17.33-.26.59-.43.93a4.77 4.77 0 00-.33 1.01l-.26 1.02a4.25 4.25 0 00-.17 1.01 4.47 4.47 0 00-.08 1.1v.85-.09 3.64c0 1.44 0 2.8-.09 3.98-.17 2.37-.42 3.97-.42 3.97z" data-name="Path 94757"/></g><path fill="#c6c6c6" d="M39.42 30.2s6.18 10.66 26.06 10.16c0 0-3.72-4.4-1.86-6.52.09.08-19.2-9.14-24.2-3.64z" data-name="Path 94758"/><path fill="#432917" d="M70.47 43.32l-.76 12.1-1.77.5c1.52-19.54-8.8-24.02-8.8-24.02l-2.88-12.27a14.55 14.55 0 0112.7 7.02s3.3 3.3 1.51 16.67z" data-name="Path 94759"/><path fill="#432917" d="M36.21 19.04s2.88-5.84 13.11-7.45c0 0 17.1-2.03 22.5 9.82 0 0 2.8 5.66 1.78 15.73 0 0-1.01-4.48-3.8-6 0 0-.51 5.32-7.87 2.02 0 0-1.19 2.2 1.43 6.1 0 .08-23.94.08-27.15-20.22z" data-name="Path 94760"/><g data-name="Group 88352"><path fill="#2a1705" d="M36.21 19.03a11.34 11.34 0 01.93-1.6 17.11 17.11 0 011.36-1.6 4.43 4.43 0 01.93-.86 14.35 14.35 0 011.18-.84 18.32 18.32 0 012.88-1.6 14.55 14.55 0 013.38-1.2c.6-.16 1.27-.25 1.86-.42l.5-.08.52-.09c.33 0 .67-.08 1.01-.08a31.18 31.18 0 013.98 0 31.94 31.94 0 013.97.5 27 27 0 013.73 1.1 19.89 19.89 0 013.3 1.61 16.24 16.24 0 012.62 1.95 12.15 12.15 0 011.78 2.03 11.39 11.39 0 011.1 1.78 6.53 6.53 0 01.5 1.27 3.56 3.56 0 00.17.42 4.4 4.4 0 00-.25-.42c-.17-.26-.42-.68-.76-1.1a17.22 17.22 0 00-1.27-1.53 9.26 9.26 0 00-.93-.85c-.34-.25-.68-.59-1.02-.84a15.41 15.41 0 00-2.62-1.6 17.3 17.3 0 00-3.13-1.28 21.85 21.85 0 00-3.55-.84 26.36 26.36 0 00-3.73-.43c-1.27-.08-2.53-.08-3.8-.08a3.47 3.47 0 00-.93.08h-.43l-.42.09a13.13 13.13 0 00-1.78.34 18.8 18.8 0 00-3.3.93l-.76.25a1.7 1.7 0 00-.68.34 6.75 6.75 0 00-1.35.68A16.68 16.68 0 0039 16.4c-.6.42-1.1.93-1.52 1.27-.43.42-.68.76-.85.93z" data-name="Path 94761"/></g></g></g></g></svg>