<svg xmlns="http://www.w3.org/2000/svg" viewBox="0 0 104.19 104.19"><defs><clipPath id="a"><circle cx="47.68" cy="47.68" r="47.68" data-name="Ellipse 2156" transform="rotate(-2.85 95.3 2.37)"/></clipPath></defs><g data-name="Group 88439"><g data-name="Group 88345" transform="translate(2.1 2.1)"><circle cx="47.68" cy="47.68" r="47.68" fill="#dbe4ff" stroke="#fff" stroke-width="4" data-name="Ellipse 2155" transform="rotate(-2.85 95.3 2.37)"/><g clip-path="url(#a)" data-name="Group 88344"><path fill="#f8bb94" d="M45.31 72.58h9.36v5.57h-9.36z" data-name="Rectangle 24236"/><path fill="#c6c6c6" d="M45.88 76.78a6.48 6.48 0 014.11-1.86c1.38-.08 3.64.16 4.36-1.2a.83.83 0 01.4-.5v-.56H45.4v4.84a1.18 1.18 0 01.48-.72z" data-name="Path 94729"/><g data-name="Group 88338"><path fill="#f8bb94" d="M73.47 54.68a4.36 4.36 0 11-4.36-4.2 4.36 4.36 0 014.36 4.2z" data-name="Path 94730"/><g data-name="Group 88337"><path fill="#dadada" d="M69.76 52.41h.32a1.33 1.33 0 01.73.16 1.5 1.5 0 01.88.73c.08.08.08.16.16.32 0 .08.08.24.08.33v.64a1.9 1.9 0 01-.16.65 3.94 3.94 0 01-.24.56 1.93 1.93 0 01-.8.8 1.36 1.36 0 01-.4.17c-.17 0-.25.08-.33.08h-.32a.62.62 0 00.24-.08c.08 0 .16-.08.24-.16s.25-.16.33-.24l.32-.33c.08-.16.16-.24.24-.4a1.15 1.15 0 00.16-.48 1.2 1.2 0 00.08-.57v-.48a.3.3 0 00-.08-.24c0-.08-.08-.16-.08-.24a1.65 1.65 0 00-.64-.65 4.76 4.76 0 00-.65-.32c0-.25-.08-.25-.08-.25z" data-name="Path 94731"/></g><path fill="#dadada" d="M70.24 54.91a.73.73 0 11-.72-.8c.48 0 .72.32.72.8z" data-name="Path 94732"/></g><g data-name="Group 88340"><path fill="#f8bb94" d="M27.16 54.68a4.36 4.36 0 104.36-4.2 4.36 4.36 0 00-4.36 4.2z" data-name="Path 94733"/><g data-name="Group 88339"><path fill="#dadada" d="M30.95 52.41h-.32a1.33 1.33 0 00-.73.16 1.5 1.5 0 00-.88.73c-.08.08-.08.16-.16.32 0 .08-.08.24-.08.33v.64a1.9 1.9 0 00.16.65 3.93 3.93 0 00.24.56 1.93 1.93 0 00.8.8 1.36 1.36 0 00.4.17c.17 0 .25.08.33.08h.32a.62.62 0 01-.24-.08c-.08 0-.16-.08-.24-.16s-.25-.16-.33-.24l-.32-.33c-.08-.16-.16-.24-.24-.4a1.15 1.15 0 01-.16-.48 1.2 1.2 0 01-.08-.57v-.48c0-.08.08-.16.08-.24s.08-.16.08-.24a1.65 1.65 0 01.64-.65 4.76 4.76 0 01.65-.32c-.08-.25.08-.25.08-.25z" data-name="Path 94734"/></g><path fill="#dadada" d="M30.39 54.91a.73.73 0 10.72-.8.74.74 0 00-.72.8z" data-name="Path 94735"/></g><path fill="#f8bb94" d="M69.2 49.18c0 14.2-6.62 24.13-19.12 24.13s-19.13-9.93-19.13-24.13 6.94-25.65 19.37-25.65S69.2 34.99 69.2 49.18z" data-name="Path 94736"/><path fill="#f8bb94" d="M45.56 77.9s-11.86 1.54-16.14 5.25c-4.36 3.8-5.65 7.02-7.18 14.44h55.67c-1.53-7.42-2.82-10.73-7.18-14.44-4.28-3.71-16.14-5.24-16.14-5.24z" data-name="Path 94737"/><path fill="#197290" d="M59.11 78.71s7.26.73 11.54 4.44c4.35 3.8 5.65 7.02 7.18 14.44H22.16c1.53-7.42 2.82-10.73 7.18-14.44 4.28-3.71 11.62-4.44 11.62-4.44S39.34 88.88 50.4 88.8c0 0 9.2.4 8.71-10.09z" data-name="Path 94738"/><path fill="#197290" d="M50.23 97.67h-.4" data-name="Line 951"/><g data-name="Group 88341"><path fill="#034153" d="M42.49 78.47v.57c0 .08-.48 3.7 1.53 6.05 1.3 1.53 3.47 2.26 6.38 2.26h.08a7.73 7.73 0 005.16-2.02c1.45-1.45 2.1-3.95 1.94-6.86l3.06.57q.12 5.44-2.9 8.47a10.73 10.73 0 01-7.26 2.9h-.24c-3.8 0-6.7-1.13-8.55-3.31-2.5-2.9-2.42-6.7-2.34-8.07z" data-name="Path 94739"/></g><path fill="#732400" d="M30.39 41.36l.72 11.54 1.7.48c-1.45-18.64 8.39-22.91 8.39-22.91l2.74-11.7a13.88 13.88 0 00-12.1 6.7s-3.22 3.14-1.45 15.89z" data-name="Path 94740"/><g data-name="Group 88342"><path fill="#501700" d="M30.47 42.9s-.32-1.46-.65-3.64a44.42 44.42 0 01-.4-3.8 18.36 18.36 0 01-.16-2.1c0-.32-.08-.72-.08-1.12V31.1a6.33 6.33 0 01.16-1.12l.24-1.13c.09-.16.09-.4.17-.57l.24-.56c.16-.32.32-.73.48-1.05l.49-.97a6.98 6.98 0 01.56-.8 10.44 10.44 0 011.21-1.38c.4-.4.8-.72 1.13-1.05a7.57 7.57 0 01.97-.72c.56-.33.89-.49.89-.49a25.92 25.92 0 00-2.34 2.83l-.49.72-.48.73a3.77 3.77 0 00-.4.8 4.33 4.33 0 00-.4.9 4.55 4.55 0 00-.32.96 4.25 4.25 0 00-.25.97 4.05 4.05 0 00-.16.97 4.26 4.26 0 00-.08 1.05v.8-.08 3.47c0 1.37 0 2.66-.08 3.8-.09 2.26-.25 3.71-.25 3.71z" data-name="Path 94741"/></g><path fill="#732400" d="M69.52 43.7l-.73 11.53-1.7.49c1.7-24.93-7.58-25.34-7.58-25.34l-3.55-9.27a13.88 13.88 0 0112.1 6.7s3.23 3.06 1.46 15.89z" data-name="Path 94742"/><path fill="#732400" d="M41.2 30.39a28.87 28.87 0 0121.86 1.45l.81-8.55S61.69 6.59 39.91 11.9a16.43 16.43 0 013.87 2.5s-8.39-.56-12.1 7.02c0 0 5.65-1.86 10.25-.65.08.08-6.78 4.6-.73 9.6z" data-name="Path 94743"/><g data-name="Group 88343"><path fill="#501700" d="M63.87 23.29l-.4-1.21a31.9 31.9 0 00-1.45-2.99 12.31 12.31 0 00-1.3-1.77 17.2 17.2 0 00-1.69-1.78 14.05 14.05 0 00-2.1-1.53 8.32 8.32 0 00-2.42-1.13 6.05 6.05 0 00-1.3-.4 7.55 7.55 0 00-1.28-.33c-.89-.16-1.78-.32-2.58-.4a6.94 6.94 0 00-1.3-.08c-.4 0-.8-.08-1.2-.08a20.4 20.4 0 00-2.26.08 13.39 13.39 0 00-1.94.16c-.56.08-1.05.08-1.45.16-.8.09-1.3.17-1.3.17l1.22-.4a6.26 6.26 0 011.45-.4 11.64 11.64 0 011.94-.4 4.76 4.76 0 011.13-.17 6.23 6.23 0 001.2-.16 6.52 6.52 0 011.3-.08h1.37a7.83 7.83 0 011.37.08 9.1 9.1 0 011.45.25 9.38 9.38 0 011.45.32 6.87 6.87 0 011.38.48 13.93 13.93 0 012.66 1.37 15.6 15.6 0 012.26 1.78 13.93 13.93 0 012.82 4.11 18.43 18.43 0 011.05 3.31 8.32 8.32 0 00-.08 1.04z" data-name="Path 94744"/></g></g></g></g></svg>