<svg xmlns="http://www.w3.org/2000/svg" viewBox="0 0 104 104"><defs><clipPath id="a"><path d="M139.5 66.3a50 50 0 11-50-50 49.99 49.99 0 0150 50z" data-name="Path 94728" transform="translate(-39.5 -16.3)"/></clipPath></defs><g data-name="Group 88432"><g data-name="Group 88335"><path fill="#c5f6fa" stroke="#fff" stroke-width="4" d="M102 52A50 50 0 1152 2a49.99 49.99 0 0150 50z" data-name="Path 94705"/><g clip-path="url(#a)" data-name="Group 88334" transform="translate(2 2)"><path fill="#f8bb94" d="M46.1 73.35h9.82v5.84H46.1z" data-name="Rectangle 24235"/><path fill="#dadada" d="M52.37 78.43c-2.03-.68-3.8-1.95-4.06-4.23a2.6 2.6 0 01.08-.85h-2.28v5.84h9.81v-.76a6.34 6.34 0 01-3.55 0z" data-name="Path 94706"/><g data-name="Group 88328"><path fill="#f8bb94" d="M75.63 54.65a4.57 4.57 0 11-4.56-4.4 4.46 4.46 0 014.56 4.4z" data-name="Path 94707"/><g data-name="Group 88327"><path fill="#dadada" d="M71.66 52.2H72a1.84 1.84 0 01.84.17 1.57 1.57 0 01.93.76c.09.08.09.17.17.34 0 .08.09.25.09.34v.67a2 2 0 01-.17.68 4.12 4.12 0 01-.26.6 2.03 2.03 0 01-.84.84 1.43 1.43 0 01-.43.17c-.16 0-.25.08-.33.08h-.34a.66.66 0 00.25-.08c.09 0 .17-.09.26-.17s.25-.17.33-.26l.34-.33c.09-.17.17-.26.26-.43a1.2 1.2 0 00.17-.5 1.25 1.25 0 00.08-.6v-.5a.31.31 0 00-.09-.26c0-.08-.08-.17-.08-.25a1.73 1.73 0 00-.68-.68 4.99 4.99 0 00-.67-.34c0-.25-.17-.25-.17-.25z" data-name="Path 94708"/></g><path fill="#dadada" d="M72.25 54.82a.78.78 0 01-.76.85.83.83 0 01-.76-.85.78.78 0 01.76-.84.83.83 0 01.76.84z" data-name="Path 94709"/></g><g data-name="Group 88330"><path fill="#f8bb94" d="M27.07 54.65a4.57 4.57 0 104.57-4.4 4.46 4.46 0 00-4.57 4.4z" data-name="Path 94710"/><g data-name="Group 88329"><path fill="#dadada" d="M30.96 52.2h-.33a1.4 1.4 0 00-.77.17 1.57 1.57 0 00-.93.76c-.08.08-.08.17-.17.34 0 .08-.08.25-.08.34v.67a2 2 0 00.17.68 4.12 4.12 0 00.25.6 2.03 2.03 0 00.85.84 1.43 1.43 0 00.42.17c.17 0 .26.08.34.08h.34a.66.66 0 01-.26-.08c-.08 0-.17-.09-.25-.17s-.25-.17-.34-.26l-.34-.33c-.08-.17-.17-.26-.25-.43a1.2 1.2 0 01-.17-.5 1.25 1.25 0 01-.08-.6v-.5a.31.31 0 01.08-.26c0-.08.09-.17.09-.25a1.73 1.73 0 01.67-.68 4.99 4.99 0 01.68-.34c0-.25.08-.25.08-.25z" data-name="Path 94711"/></g><path fill="#dadada" d="M30.46 54.82a.78.78 0 00.76.85.83.83 0 00.76-.85.77.77 0 10-1.52 0z" data-name="Path 94712"/></g><path fill="#f8bb94" d="M71.15 48.81c0 14.9-6.94 25.3-20.05 25.3s-20.05-10.4-20.05-25.3 7.28-26.9 20.3-26.9 19.8 12.1 19.8 26.9z" data-name="Path 94713"/><path fill="#f8bb94" d="M46.36 79.02s-12.44 1.6-16.92 5.5c-4.57 3.98-5.92 7.36-7.53 15.14h58.46c-1.6-7.78-2.96-11.25-7.53-15.14-4.48-3.9-16.92-5.5-16.92-5.5h-9.56z" data-name="Path 94714"/><path fill="#fff" d="M42.56 79.61s-8.72 1.02-13.2 4.9c-4.57 3.98-5.93 7.37-7.53 15.15h58.46c-1.61-7.78-2.97-11.25-7.53-15.14-3.81-3.22-12.27-4.74-12.27-4.74l-4.65-.85h-9.48z" data-name="Path 94715"/><g data-name="Group 88331"><path fill="#e74645" d="M48.73 86.55l.17-.17-.17.17-1.6 13.11h7.86l-1.6-13.11 1.1-4.48a1.93 1.93 0 00.08-2.12 2.57 2.57 0 00-1.44-1.1 11.58 11.58 0 00-2.96-.08 2.46 2.46 0 00-2.28.84 1.92 1.92 0 00-.17 2.45z" data-name="Path 94716"/><path fill="#c6c6c6" d="M48.56 85.87s3.3-1.52 4.82.68a5.12 5.12 0 00-4.65 0z" data-name="Path 94717"/></g><path fill="#0c3853" d="M42.56 79.61s-8.72 1.02-13.2 4.9c-4.57 3.98-5.93 7.37-7.53 15.15h58.46c-1.61-7.78-2.97-11.25-7.53-15.14-3.81-3.22-12.27-4.74-12.27-4.74l-9.4 19.37z" data-name="Path 94718"/><path fill="#021c2d" d="M42.64 79.78l8.38 19.38-8.89-5.76 2.03-3.46-9.98-8.21s5.67-2.2 8.46-1.95z" data-name="Path 94719"/><path fill="#021c2d" d="M60.4 79.78l-9.38 19.37 8.88-5.75-2.03-3.47 9.98-8.2s-4.57-2.12-7.44-1.95z" data-name="Path 94720"/><path fill="#b2b2b2" d="M40.78 79.78l7.53 5.25-.6-2.63z" data-name="Path 94721"/><path fill="#b2b2b2" d="M62.01 79.87l-8.29 5.24.76-3.05z" data-name="Path 94722"/><g data-name="Group 88332"><path fill="#fff" d="M46.1 77.24l-5.32 2.54 6.34 3.72 4.4-4.82z" data-name="Path 94723"/><path fill="#dadada" d="M46.02 79.1a3.76 3.76 0 012.8-1.1l-2.71-.76-5.33 2.54 4.74 2.88a2.94 2.94 0 01.5-3.56z" data-name="Path 94724"/></g><g data-name="Group 88333"><path fill="#fff" d="M56.77 77.24l5.33 2.54-6.26 3.72-4.4-4.82z" data-name="Path 94725"/><path fill="#dadada" d="M56.85 79.1a3.76 3.76 0 00-2.79-1.1l2.7-.76 5.34 2.54-4.74 2.88a2.94 2.94 0 00-.5-3.56z" data-name="Path 94726"/></g><path fill="#956000" d="M31.05 52.45l2.03 2.03.34-16.32s.17-8.46 9.13-8.46a22.83 22.83 0 0016.84.67s8.46-1.35 9.48 7.45l-.09 17.09 2.2-2.63.09-2.2a67.27 67.27 0 000-17.85s-1.7-11.76-12.27-13.7c0 0-17.34-4.49-24.62 6.43a21.92 21.92 0 00-4.06 16.66z" data-name="Path 94727"/></g></g></g></svg>