<svg xmlns="http://www.w3.org/2000/svg" width="20" height="20" viewBox="0 0 20 20">
  <g id="heart" transform="translate(-13288 -52)">
    <g id="Rectangle_23870" data-name="Rectangle 23870" transform="translate(13288 52)" fill="#fff" stroke="#707070" stroke-width="1" opacity="0">
      <rect width="20" height="20" stroke="none"/>
      <rect x="0.5" y="0.5" width="19" height="19" fill="none"/>
    </g>
    <path id="heart-2" data-name="heart" d="M9.94,5.25A5.231,5.231,0,0,1,14.736,2c2.889,0,4.97,2.472,5.232,5.417a5.391,5.391,0,0,1-.17,2.048,9.053,9.053,0,0,1-2.759,4.6L9.94,20.4,2.961,14.066A9.052,9.052,0,0,1,.2,9.465a5.391,5.391,0,0,1-.17-2.048C.294,4.472,2.374,2,5.264,2A5.069,5.069,0,0,1,9.94,5.25Z" transform="translate(13288 51)" fill="#b1b6bc"/>
  </g>
</svg>
