<svg xmlns="http://www.w3.org/2000/svg" id="icon-title-position" width="60" height="60" viewBox="0 0 60 60">
    <defs>
        <style>
            .cls-1{fill:#fff;stroke:#707070;opacity:0}.cls-2{fill:#fee9ee}.cls-3{fill:#d3ebfc}.cls-4{fill:#808fa5}.cls-5{stroke:none}.cls-6{fill:none}
        </style>
    </defs>
    <g id="Group_82222" data-name="Group 82222">
        <g id="Rectangle_22929" class="cls-1" data-name="Rectangle 22929">
            <path d="M0 0h60v60H0z" class="cls-5"/>
            <path d="M.5.5h59v59H.5z" class="cls-6"/>
        </g>
    </g>
    <g id="briefcase_1_" data-name="briefcase (1)" transform="translate(4.287 8.571)">
        <circle id="Ellipse_11" cx="15.268" cy="15.268" r="15.268" class="cls-2" data-name="Ellipse 11" transform="translate(20.088 1.607)"/>
        <circle id="Ellipse_12" cx="6.429" cy="6.429" r="6.429" class="cls-3" data-name="Ellipse 12" transform="translate(6.428 26.518)"/>
        <g id="Group_82240" data-name="Group 82240">
            <path id="Union_4" d="M6.429 42.59a2.187 2.187 0 0 1-1.687-.724 2.676 2.676 0 0 1-.724-1.687v-4.018h1.606v4.017a.826.826 0 0 0 .8.8H45a.824.824 0 0 0 .8-.8v-4.017h1.608v4.017a2.19 2.19 0 0 1-.724 1.688A2.683 2.683 0 0 1 45 42.59zm20.089-4.822v-1.607h15.267a.824.824 0 0 0 .8-.8v-.8H5.624c-.161 0-.24 0-.321-.08L.482 32.063A.923.923 0 0 1 0 31.339a.771.771 0 0 1 .482-.722L5.3 28.206a.481.481 0 0 1 .321-.081h41.79v.8h4.018v4.825h-4.018v.8H44.2v.8a2.186 2.186 0 0 1-.724 1.688 2.676 2.676 0 0 1-1.687.724zM44.2 32.947h1.6v-3.215h-1.6zm-27.321 0h25.709v-3.215H16.875zm-3.214 0h1.606v-3.215h-1.61zM2.57 31.339l3.214 1.608h6.268v-3.215H5.785zm47.25.8v-1.603h-2.41v1.608zm-4.02-5.621v-6.585c-.027.026-.053.052-.08.076a5.226 5.226 0 0 1-3.935 1.691h-.8v-1.611h.8a3.768 3.768 0 0 0 2.815-1.205 4.093 4.093 0 0 0 1.2-2.812V8.84H5.624v7.232a3.772 3.772 0 0 0 1.206 2.812 4.093 4.093 0 0 0 2.813 1.206h.8v1.61h-.8a5.226 5.226 0 0 1-3.938-1.687l-.081-.082v6.592H4.018V7.232h11.25V2.411a2.188 2.188 0 0 1 .723-1.687A2.314 2.314 0 0 1 17.678 0H33.75a2.191 2.191 0 0 1 1.688.724 2.681 2.681 0 0 1 .722 1.688v4.82h11.251v19.286zM16.875 7.232h17.678V4.821H16.875zm.24-5.384a.729.729 0 0 0-.24.563v.8h17.678v-.8a.731.731 0 0 0-.242-.563.73.73 0 0 0-.562-.242H17.678a.731.731 0 0 0-.563.242zm11.01 23.867v-1.608h1.608v1.608zm-3.214 0v-1.608h1.608v1.608zm-3.214 0v-1.608H23.3v1.608zM37.768 23.3v-4.819H36.16V23.3h-1.607v-4.819a1.647 1.647 0 0 1 1.606-1.606h1.608a1.647 1.647 0 0 1 1.607 1.606V23.3zm-22.5 0v-4.819h-1.607V23.3h-1.608v-4.819a1.647 1.647 0 0 1 1.608-1.606h1.606a1.647 1.647 0 0 1 1.608 1.606V23.3zm3.213-1.6v-1.611h14.464V21.7z" class="cls-4" data-name="Union 4"/>
        </g>
    </g>
</svg>
