<svg xmlns="http://www.w3.org/2000/svg" width="48" height="48" viewBox="0 0 48 48">
  <g id="icon-note" transform="translate(3945 -15967)">
    <g id="notes" transform="translate(-3939 15974.999)">
      <g id="Group_82295" data-name="Group 82295">
        <g id="Group_82294" data-name="Group 82294">
          <path id="Path_87298" data-name="Path 87298" d="M312.687,26.6a3.724,3.724,0,1,0-3.724-3.724A3.724,3.724,0,0,0,312.687,26.6Z" transform="translate(-287.238 -19.154)" fill="gray"/>
          <path id="Path_87299" data-name="Path 87299" d="M5.712,86.2a1.839,1.839,0,0,1,.8-.54l-3.566-.311a.608.608,0,0,0-.454.144.619.619,0,0,0-.22.421L0,111.872a.621.621,0,0,0,.563.671l6.955.608L5.284,87.561A1.868,1.868,0,0,1,5.712,86.2Z" transform="translate(0.001 -80.684)" fill="gray"/>
          <path id="Path_87300" data-name="Path 87300" d="M122.158,100.064,119.89,74.1a.619.619,0,0,0-.671-.563l-2.657.232a4.953,4.953,0,0,1-7.988,3.584l-2.106,2.108a.621.621,0,0,1-.878-.878l2.108-2.108a4.969,4.969,0,0,1-.9-1.85L93.251,75.8a.621.621,0,0,0-.563.671l2.266,25.978a.621.621,0,0,0,.617.567h.054l25.969-2.271a.621.621,0,0,0,.563-.684ZM116.7,90.637a.619.619,0,0,1-.563.673l-1.237.108h-.052a.621.621,0,0,1-.054-1.238l1.237-.108a.616.616,0,0,1,.67.565Zm-.324-3.708a.621.621,0,0,1-.563.671l-4.32.378h-.054a.621.621,0,0,1-.054-1.238l4.32-.378a.621.621,0,0,1,.671.567Zm-3.949,4.707-6.184.54h-.054a.621.621,0,0,1-.054-1.238l6.184-.54a.621.621,0,0,1,.108,1.237Zm1.1-8.819,1.854-.162a.621.621,0,1,1,.108,1.237l-1.856.162h-.054a.621.621,0,0,1-.052-1.238Zm-6.8.6,4.32-.378a.621.621,0,1,1,.108,1.237l-4.32.378h-.054a.621.621,0,0,1-.052-1.238Zm-8.6,1.375a.621.621,0,0,1,.563-.671l5.565-.486a.621.621,0,0,1,.108,1.236l-5.565.486h-.054a.621.621,0,0,1-.616-.565Zm.326,3.71a.621.621,0,0,1,.563-.671l1.854-.162a.621.621,0,1,1,.108,1.237l-1.854.162h-.054A.621.621,0,0,1,98.448,88.5Zm3.175,7.822-1.854.162h-.054a.621.621,0,0,1-.054-1.238l1.854-.162a.621.621,0,0,1,.108,1.237Zm.913-3.818-3.092.27h-.054a.621.621,0,0,1-.054-1.238l3.092-.27a.621.621,0,0,1,.108,1.237Zm.239-4.381a.621.621,0,0,1,.563-.671l4.32-.378a.621.621,0,1,1,.108,1.237l-4.32.378h-.054a.621.621,0,0,1-.616-.567Zm3.794,7.768L104.1,96.1h-.045A.621.621,0,0,1,104,94.866l2.473-.216a.621.621,0,0,1,.108,1.237Zm9.9-.866-6.183.54h-.054a.621.621,0,0,1-.054-1.238l6.183-.54a.621.621,0,0,1,.108,1.237Z" transform="translate(-86.161 -69.707)" fill="gray"/>
        </g>
      </g>
    </g>
    <g id="Rectangle_23835" data-name="Rectangle 23835" transform="translate(-3945 15967)" fill="gray" stroke="#707070" stroke-width="1" opacity="0">
      <rect width="48" height="48" stroke="none"/>
      <rect x="0.5" y="0.5" width="47" height="47" fill="none"/>
    </g>
  </g>
</svg>
