<svg xmlns="http://www.w3.org/2000/svg" width="48" height="48" viewBox="0 0 48 48">
  <g id="icon4" transform="translate(3655 -15906)">
    <rect id="Rectangle_23841" data-name="Rectangle 23841" width="48" height="48" transform="translate(-3655 15906)" fill="#34495e" opacity="0"/>
    <g id="gift" transform="translate(-3649 15912)">
      <path id="Path_948" data-name="Path 948" d="M3,12V9A3,3,0,0,1,6,6H36a3,3,0,0,1,3,3v3Z" transform="translate(-3 -1.5)" fill="#34495e"/>
      <g id="Group_762" data-name="Group 762" transform="translate(1.5 13.5)">
        <path id="Path_949" data-name="Path 949" d="M19,12H4V31.5a3,3,0,0,0,3,3H19Z" transform="translate(-4 -12)" fill="#34495e"/>
        <path id="Path_950" data-name="Path 950" d="M16,12V34.5H28a3,3,0,0,0,3-3V12Z" transform="translate(2 -12)" fill="#34495e"/>
      </g>
      <path id="Path_951" data-name="Path 951" d="M15,6V9h3a3,3,0,1,0-3-3Z" transform="translate(3 -3)" fill="none" stroke="#34495e" stroke-linecap="round" stroke-linejoin="round" stroke-miterlimit="10" stroke-width="2"/>
      <path id="Path_952" data-name="Path 952" d="M17,6V9H14a3,3,0,1,1,3-3Z" transform="translate(1 -3)" fill="none" stroke="#34495e" stroke-linecap="round" stroke-linejoin="round" stroke-miterlimit="10" stroke-width="2"/>
    </g>
  </g>
</svg>
