<svg xmlns="http://www.w3.org/2000/svg" width="60" height="60"><defs><style>.cls-4{fill:#808fa5}</style></defs><g id="icon-title-skill" transform="translate(-604 -3614)"><g id="Group_83264" data-name="Group 83264" transform="translate(-1.6 71)"><circle id="Ellipse_2002" cx="8.7" cy="8.7" r="8.7" fill="#d3ebfc" data-name="Ellipse 2002" transform="translate(643.6 3550.5)"/><circle id="Ellipse_2003" cx="13.9" cy="13.9" r="13.9" fill="#fee9ee" data-name="Ellipse 2003" transform="translate(609.6 3567.7)"/><g id="skills" transform="translate(613 3550)"><path id="Path_88556" d="M80.94 261.88a.94.94 0 1 0-.94-.94.94.94 0 0 0 .94.93zm0 0" class="cls-4" data-name="Path 88556" transform="translate(-72.5 -235.63)"/><path id="Path_88557" d="M397.63 11.25A5.63 5.63 0 1 0 392 5.62a5.63 5.63 0 0 0 5.63 5.63zm0-9.38a3.75 3.75 0 1 1-3.75 3.75 3.75 3.75 0 0 1 3.75-3.75zm0 0" class="cls-4" data-name="Path 88557" transform="translate(-355.25)"/><path id="Path_88558" d="M397.63 201.25a5.63 5.63 0 1 0-5.63-5.63 5.63 5.63 0 0 0 5.63 5.63zm0-9.38a3.75 3.75 0 1 1-3.75 3.75 3.75 3.75 0 0 1 3.75-3.75zm0 0" class="cls-4" data-name="Path 88558" transform="translate(-355.25 -172.19)"/><path id="Path_88559" d="M397.63 391.25a5.63 5.63 0 1 0-5.63-5.63 5.63 5.63 0 0 0 5.63 5.63zm0-9.38a3.75 3.75 0 1 1-3.75 3.75 3.75 3.75 0 0 1 3.75-3.75zm0 0" class="cls-4" data-name="Path 88559" transform="translate(-355.25 -344.38)"/><path id="Path_88560" d="M3.75 57.19v12.19a2.82 2.82 0 0 0 2.81 2.8h3.75a2.82 2.82 0 0 0 2.82-2.8v-12.2a3.75 3.75 0 0 0 3.75-3.74v-2.81h6.18v15.93a2.82 2.82 0 0 0 2.82 2.81h5.8l-.28.28a.94.94 0 1 0 1.33 1.33l1.87-1.88a.94.94 0 0 0 0-1.33l-1.88-1.87a.94.94 0 1 0-1.32 1.32l.27.28h-5.8a.94.94 0 0 1-.93-.94V50.62h6.73l-.27.28a.94.94 0 1 0 1.33 1.33l1.87-1.88a.94.94 0 0 0 0-1.33l-1.88-1.87a.94.94 0 1 0-1.32 1.32l.27.28h-6.73V34.69a.94.94 0 0 1 .94-.94h5.8l-.28.28a.94.94 0 1 0 1.33 1.32l1.87-1.88a.94.94 0 0 0 0-1.32l-1.88-1.88a.94.94 0 1 0-1.32 1.33l.27.28h-5.8a2.82 2.82 0 0 0-2.8 2.8v14.07h-6.2V45a6.57 6.57 0 0 0-6.56-6.56H6.56A6.57 6.57 0 0 0 0 45v8.44a3.75 3.75 0 0 0 3.75 3.75zM1.87 45a4.7 4.7 0 0 1 4.7-4.69h3.74A4.7 4.7 0 0 1 15 45v8.44a1.88 1.88 0 0 1-1.88 1.87V45a.94.94 0 0 0-1.87 0v24.38a.94.94 0 0 1-.94.93h-.93V56.25a.94.94 0 0 0-1.88 0v14.06h-.94a.94.94 0 0 1-.93-.94V45a.94.94 0 0 0-1.88 0v10.31a1.88 1.88 0 0 1-1.88-1.87zm0 0" class="cls-4" data-name="Path 88560" transform="translate(0 -27.19)"/><path id="Path_88561" d="M49.38 24.69a4.69 4.69 0 1 0-4.7 4.69 4.7 4.7 0 0 0 4.7-4.7zm-4.7 2.81a2.81 2.81 0 1 1 2.82-2.81 2.82 2.82 0 0 1-2.81 2.81zm0 0" class="cls-4" data-name="Path 88561" transform="translate(-36.25 -18.13)"/></g></g></g></svg>