<svg xmlns="http://www.w3.org/2000/svg" width="40" height="40"><g transform="translate(2.86 5.71)"><circle cx="10.18" cy="10.18" r="10.18" fill="#fee9ee" data-name="Ellipse 5" transform="translate(9.1 4.29)"/><circle cx="4.29" cy="4.29" r="4.29" fill="#d3ebfc" data-name="Ellipse 6" transform="translate(1.07 20.9)"/><g fill="#808fa5" data-name="Group 82237"><path d="M6.96 27.32H5.9v-5.36c0-3.2 2.19-4.34 4.63-5.31l2.67-1.08.4 1-2.67 1.07c-2.62 1.05-3.95 2-3.95 4.32z" data-name="Path 87416"/><path d="M28.4 27.32h-1.08v-5.36c0-2.32-1.33-3.27-3.95-4.32l-2.68-1.07.4-1 2.68 1.07c2.44.98 4.63 2.12 4.63 5.32z" data-name="Path 87417"/><path d="M13.93 12.32H15V15h-1.07z" data-name="Rectangle 22954"/><path d="M19.29 12.32h1.07V15h-1.07z" data-name="Rectangle 22955"/><path d="M9.64 23.57h1.07v3.75H9.64z" data-name="Rectangle 22956"/><path d="M23.57 23.57h1.07v3.75h-1.07z" data-name="Rectangle 22957"/><path d="M16.6 21.43h1.08v1.07H16.6z" data-name="Rectangle 22958"/><path d="M16.6 23.57h1.08v1.07H16.6z" data-name="Rectangle 22959"/><path d="M21.43 20.5l-2.81-.7.26-1.03 1.48.37V16.3l-.54-.54-2.68 2.68-2.68-2.68-.53.54v2.84l1.47-.37.26 1.04-2.8.7v-4.66l1.6-1.6 2.68 2.68 2.68-2.68 1.6 1.6z" data-name="Path 87418"/><path d="M16.6 17.68h1.08v2.68H16.6z" data-name="Rectangle 22960"/><path d="M22.5 6.96h-1.07a1.07 1.07 0 0 0-1.07-1.07h-.54a1.6 1.6 0 0 1-1.28-.64l-.48.49a.54.54 0 0 1-.38.15h-3.75a1.07 1.07 0 0 0-1.07 1.07h-1.07a2.14 2.14 0 0 1 2.14-2.14h3.53l.91-.91a.54.54 0 0 1 .91.38.54.54 0 0 0 .54.53h.54a2.14 2.14 0 0 1 2.14 2.14z" data-name="Path 87419"/><path d="M17.14 13.93c-2.97 0-4.64-2.49-4.8-4.96a1.08 1.08 0 0 1-.24-.18 1.06 1.06 0 0 1-.31-.75V5.36a5.36 5.36 0 0 1 10.71 0v2.68a1.07 1.07 0 0 1-.55.93c-.16 2.47-1.84 4.96-4.8 4.96zm0-12.86a4.29 4.29 0 0 0-4.28 4.29v2.68a.54.54 0 0 1 .53.53c0 1.66 1.02 4.29 3.75 4.29s3.75-2.63 3.75-4.29a.54.54 0 0 1 .54-.53V5.36a4.29 4.29 0 0 0-4.29-4.29z" data-name="Path 87420"/><path d="M34.29 21.43H33.2V16.6a2.14 2.14 0 0 0-1.93-2.13l-2.35 2.35-2.36-2.36a2.15 2.15 0 0 0-1.93 2.14v1.07h-1.07V16.6a3.21 3.21 0 0 1 3.22-3.22H27l1.92 1.92 1.92-1.92h.22a3.21 3.21 0 0 1 3.22 3.22z" data-name="Path 87421"/><path d="M28.4 17.68h1.06v1.07H28.4z" data-name="Rectangle 22961"/><path d="M28.93 12.86a3.21 3.21 0 1 1 3.21-3.22 3.22 3.22 0 0 1-3.21 3.22zm0-5.36a2.14 2.14 0 1 0 2.14 2.14 2.15 2.15 0 0 0-2.14-2.14z" data-name="Path 87422"/><path d="M1.07 21.43H0V16.6a3.21 3.21 0 0 1 3.21-3.22h.23l1.92 1.92 1.92-1.92h.22a3.21 3.21 0 0 1 3.21 3.22v1.07H9.64V16.6a2.14 2.14 0 0 0-1.93-2.14l-2.35 2.36L3 14.47a2.14 2.14 0 0 0-1.93 2.14z" data-name="Path 87423"/><path d="M4.82 17.68H5.9v1.07H4.82z" data-name="Rectangle 22962"/><path d="M5.36 12.86a3.21 3.21 0 1 1 3.21-3.22 3.22 3.22 0 0 1-3.21 3.22zm0-5.36A2.14 2.14 0 1 0 7.5 9.64 2.15 2.15 0 0 0 5.36 7.5z" data-name="Path 87424"/></g></g></svg>