<svg xmlns="http://www.w3.org/2000/svg" width="60" height="60" viewBox="0 0 60 60">
    <defs>
        <style>
            .cls-1,.cls-2{fill:#c5d0dc}.cls-1{stroke:#707070;opacity:0}.cls-3{stroke:none}.cls-4{fill:none}
        </style>
    </defs>
    <g id="icon-title-language" transform="translate(-528 -2761)">
        <g id="Group_82222" data-name="Group 82222" transform="translate(528 2761)">
            <g id="Rectangle_22929" class="cls-1" data-name="Rectangle 22929">
                <path d="M0 0h60v60H0z" class="cls-3"/>
                <path d="M.5.5h59v59H.5z" class="cls-4"/>
            </g>
        </g>
        <g id="Group_83224" data-name="Group 83224" transform="translate(-10787.736 894.667)">
            <g id="Group_83212" data-name="Group 83212" transform="translate(11341.259 1888.206)">
                <g id="Group_83211" data-name="Group 83211">
                    <path id="Path_88538" d="M331.626 309.12l-4.456 11.968h8.912z" class="cls-2" data-name="Path 88538" transform="translate(-327.17 -309.12)"/>
                </g>
            </g>
            <g id="Group_83214" data-name="Group 83214" transform="translate(11321.736 1872.333)">
                <g id="Group_83213" data-name="Group 83213">
                    <path id="Path_88539" d="M271.943 229.333h-37.73a5.178 5.178 0 0 0-5.178 5.178v37.729a5.135 5.135 0 0 0 5.177 5.093h37.73a5.135 5.135 0 0 0 5.093-5.093v-37.772a5.135 5.135 0 0 0-5.092-5.135zm-7.632 39.811a2.013 2.013 0 0 1-.22.083h.042a2.037 2.037 0 0 1-2.628-1.18v-.008l-2.5-6.79h-11.889l-2.5 6.79a2 2 0 0 1-1.91 1.316 1.78 1.78 0 0 1-.679 0 2 2 0 0 1-1.273-2.844l10.4-27.968a2.079 2.079 0 0 1 1.91-1.4 2.037 2.037 0 0 1 1.91 1.4l10.355 27.968a2 2 0 0 1-1.018 2.633z" class="cls-2" data-name="Path 88539" transform="translate(-229.036 -229.333)"/>
                </g>
            </g>
        </g>
    </g>
</svg>
