<svg xmlns="http://www.w3.org/2000/svg" width="40" height="40"><g transform="translate(-11 4)"><circle cx="9.5" cy="9.5" r="9.5" fill="#d3ebfc" data-name="Ellipse 243" transform="translate(16.5 12.5)"/><circle cx="4" cy="4" r="4" fill="#fee9ee" data-name="Ellipse 244" transform="translate(33.5 4)"/><g fill="#808fa5" data-name="Group 83538"><path d="M19 30h-1v-3.5h-1V30h-1v-4.5h3z" data-name="Path 90305"/><path d="M23.5 30h-1v-9h-1v9h-1V20h3z" data-name="Path 90306"/><path d="M28 30h-1v-7.5h-1V30h-1v-8.5h3z" data-name="Path 90307"/><path d="M32.5 30h-1V19.5h-1V30h-1V18.5h3z" data-name="Path 90308"/><path d="M37 30h-1v-5.5h-1V30h-1v-6.5h3z" data-name="Path 90309"/><path d="M41.5 30h-1V18h-1v12h-1V17h3z" data-name="Path 90310"/><path d="M46 30h-1v-8.5h-1V30h-1v-9.5h3z" data-name="Path 90311"/><path d="M16 31h30v1H16z" data-name="Rectangle 23855"/><path d="M31 6a3 3 0 1 1 3-3 3 3 0 0 1-3 3zm0-5a2 2 0 1 0 2 2 2 2 0 0 0-2-2z" data-name="Path 90312"/><path d="M30.5 9h1v1h-1z" data-name="Rectangle 23856"/><path d="M30.5 11h1v1h-1z" data-name="Rectangle 23857"/><path d="M37 16h-2.5v-1H36v-4.5A2.5 2.5 0 0 0 33.5 8h-5a2.5 2.5 0 0 0-2.5 2.5V15h1.5v1H25v-5.5A3.5 3.5 0 0 1 28.5 7h5a3.5 3.5 0 0 1 3.5 3.5z" data-name="Path 90313"/><path d="M34 12h1v6.5h-1z" data-name="Rectangle 23858"/><path d="M27 12h1v6.5h-1z" data-name="Rectangle 23859"/><path d="M22 6a3 3 0 1 1 3-3 3 3 0 0 1-3 3zm0-5a2 2 0 1 0 2 2 2 2 0 0 0-2-2z" data-name="Path 90314"/><path d="M21.5 9h1v1h-1z" data-name="Rectangle 23860"/><path d="M21.5 11h1v1h-1z" data-name="Rectangle 23861"/><path d="M18.5 16H16v-5.5A3.5 3.5 0 0 1 19.5 7h5v1h-5a2.5 2.5 0 0 0-2.5 2.5V15h1.5z" data-name="Path 90315"/><path d="M18 12h1v6.5h-1z" data-name="Rectangle 23862"/><path d="M40 6a3 3 0 1 1 3-3 3 3 0 0 1-3 3zm0-5a2 2 0 1 0 2 2 2 2 0 0 0-2-2z" data-name="Path 90316"/><path d="M39.5 9h1v1h-1z" data-name="Rectangle 23863"/><path d="M39.5 11h1v1h-1z" data-name="Rectangle 23864"/><path d="M46 16h-2.5v-1H45v-4.5A2.5 2.5 0 0 0 42.5 8h-5V7h5a3.5 3.5 0 0 1 3.5 3.5z" data-name="Path 90317"/><path d="M43 12h1v6.5h-1z" data-name="Rectangle 23865"/></g></g></svg>