<svg xmlns="http://www.w3.org/2000/svg" width="60" height="60" viewBox="0 0 60 60">
    <defs>
        <style>
            .cls-1,.cls-2{fill:#c5d0dc}.cls-1{opacity:0}.cls-3,.cls-4{stroke:none}.cls-4{fill:#707070}
        </style>
    </defs>
    <g id="icon-title-chinese" transform="translate(-528 -2909)">
        <g id="Path_88422" class="cls-1" data-name="Path 88422">
            <path d="M59.5 59.5H.5V.5h59v59z" class="cls-3" transform="translate(528 2909)"/>
            <path d="M1 1v58h58V1H1M0 0h60v60H0V0z" class="cls-4" transform="translate(528 2909)"/>
        </g>
        <path id="Subtraction_3" d="M5.134 48A5.136 5.136 0 0 1 0 42.907V5.178A5.174 5.174 0 0 1 5.178 0h37.73A5.135 5.135 0 0 1 48 5.136v37.771A5.135 5.135 0 0 1 42.907 48H5.134zm18.8-10.6a23.185 23.185 0 0 0 13.408 4.244h.046a2.122 2.122 0 1 0 0-4.244 18.993 18.993 0 0 1-10.058-2.928A23.459 23.459 0 0 0 33.82 20.3h3.523a2.122 2.122 0 0 0 0-4.244h-11.29V8.289a2.122 2.122 0 0 0-4.244 0v7.767H10.477a2.122 2.122 0 0 0 0 4.244H14a23.457 23.457 0 0 0 6.536 14.175A18.994 18.994 0 0 1 10.477 37.4a2.122 2.122 0 0 0 0 4.244h.046A23.182 23.182 0 0 0 23.931 37.4zm0-5.475a19.138 19.138 0 0 1-5.544-11.5h11.1a19.138 19.138 0 0 1-5.56 11.5z" class="cls-2" data-name="Subtraction 3" transform="translate(534 2915)"/>
    </g>
</svg>
