<svg xmlns="http://www.w3.org/2000/svg" id="icon-title-salary" width="60" height="60" viewBox="0 0 60 60">
    <defs>
        <style>
            .cls-1{fill:#fff;opacity:0}.cls-2{fill:#fee9ee}.cls-3{fill:#d3ebfc}.cls-4{fill:#808fa5}.cls-5,.cls-6{stroke:none}.cls-6{fill:#707070}
        </style>
    </defs>
    <g id="Path_88422" class="cls-1" data-name="Path 88422">
        <path d="M59.5 59.5H.5V.5h59v59z" class="cls-5"/>
        <path d="M1 1v58h58V1H1M0 0h60v60H0V0z" class="cls-6"/>
    </g>
    <g id="piggy-bank_1_" data-name="piggy-bank (1)" transform="translate(4.287 4.287)">
        <circle id="Ellipse_7" cx="15.268" cy="15.268" r="15.268" class="cls-2" data-name="Ellipse 7" transform="translate(12.856 8.035)"/>
        <circle id="Ellipse_8" cx="6.429" cy="6.429" r="6.429" class="cls-3" data-name="Ellipse 8" transform="translate(4.017 34.553)"/>
        <g id="Group_82238" data-name="Group 82238">
            <path id="Union_2" d="M38.41 49.82zm-5.947 0l-2.642-4.4a23.057 23.057 0 0 1-4.108.385 22.8 22.8 0 0 1-4.146-.394l-2.6 4.412h-6.11v-7.796a18.28 18.28 0 0 1-6.943-8.277H2.41a2.316 2.316 0 0 1-1.688-.724A2.313 2.313 0 0 1 0 31.339V24.91a2.313 2.313 0 0 1 .722-1.687A2.316 2.316 0 0 1 2.41 22.5h3.456a16.152 16.152 0 0 1 3.777-5.624V8.838h.8a8.815 8.815 0 0 1 6.268 2.572c.161.161.321.4.482.563l1.767-.724.563 1.527-2.89 1.124-.4-.482c-.162-.161-.483-.643-.724-.884a6.942 6.942 0 0 0-4.339-2.089v6.99l-.242.242a14.733 14.733 0 0 0-3.777 5.786l-.161.562H2.41a.729.729 0 0 0-.562.242.73.73 0 0 0-.242.563v6.427a.73.73 0 0 0 .242.563.729.729 0 0 0 .562.242h6.428v1.688H7.675a16.832 16.832 0 0 0 6.468 7.15l.4.242v7.071h3.536l1.864-3.171a14.1 14.1 0 0 1-2.588-.927l.724-1.446a20.251 20.251 0 0 0 15.428 0l.724 1.446a17.39 17.39 0 0 1-2.786.946l1.9 3.233h3.536v-7.072l.4-.24c4.9-3.054 7.633-7.714 7.633-12.857 0-6.911-5.223-13.1-13.1-15.267l.4-1.527c8.186 2.312 13.766 8.621 14.203 15.944a3.971 3.971 0 0 0 3.4-3.972h1.608a5.587 5.587 0 0 1-5 5.59c-.229 5.266-3.091 9.978-8.02 13.212v7.715zM24.91 36.16v-1.687a3.671 3.671 0 0 1-2.01-1.125 4.093 4.093 0 0 1-1.2-2.812h1.6a2.19 2.19 0 0 0 .722 1.688 2.481 2.481 0 0 0 3.375 0 2.314 2.314 0 0 0 .724-1.687 2.186 2.186 0 0 0-.724-1.687 2.311 2.311 0 0 0-1.687-.724 3.772 3.772 0 0 1-2.81-1.207 4.09 4.09 0 0 1-1.2-2.812 3.768 3.768 0 0 1 1.2-2.812 4.208 4.208 0 0 1 2.009-1.113v-1.7h1.607v1.688a3.662 3.662 0 0 1 2.01 1.125 4.094 4.094 0 0 1 1.206 2.812h-1.607a2.188 2.188 0 0 0-.724-1.687 2.478 2.478 0 0 0-3.375 0 2.312 2.312 0 0 0-.722 1.688 2.19 2.19 0 0 0 .722 1.688 2.314 2.314 0 0 0 1.688.724 3.773 3.773 0 0 1 2.813 1.206 4.1 4.1 0 0 1 1.206 2.813 3.772 3.772 0 0 1-1.206 2.812 3.67 3.67 0 0 1-2.01 1.125v1.684zm-21.7-7.232v-1.607h1.611v1.607zm6.429-4.821h1.611a1.607 1.607 0 0 0 3.214 0h1.606a3.214 3.214 0 1 1-6.427 0zm16.07-8.84a20.272 20.272 0 0 0-6.187.8l-.482-1.527a18.3 18.3 0 0 1 2.727-.567 4.81 4.81 0 1 1 8.764-2.728 4.723 4.723 0 0 1-.868 2.732 18.689 18.689 0 0 1 2.716.563l-.479 1.532a23.545 23.545 0 0 0-6.187-.805zm2-1.47a3.17 3.17 0 0 0 1.215-2.547 3.214 3.214 0 1 0-5.2 2.545q.952-.055 1.987-.054c.689-.001 1.355.017 2.002.059zm-1.191-8.976V1.606h1.607v3.215zM23.3 3.214V0h1.61v3.214z" class="cls-4" data-name="Union 2"/>
        </g>
    </g>
</svg>
