<svg xmlns="http://www.w3.org/2000/svg" width="48" height="48" viewBox="0 0 48 48">
  <g id="icon6" transform="translate(3578 -15896)">
    <rect id="Rectangle_23838" data-name="Rectangle 23838" width="48" height="48" transform="translate(-3578 15896)" fill="#34495e" opacity="0"/>
    <g id="rocket" transform="translate(-3572 15901.999)">
      <path id="Path_1111" data-name="Path 1111" d="M12.5,26.011,8,21.507V14L20.011,26.011Z" transform="translate(-0.493 2.483)" fill="#34495e"/>
      <path id="Path_1112" data-name="Path 1112" d="M36.188,3.021A36.877,36.877,0,0,0,12.2,13.5c-4.489,4.489-4.5,12.011-1.5,15.013S21.221,31.5,25.71,27.01A36.877,36.877,0,0,0,36.188,3.021ZM21.206,15a3,3,0,1,1,3,3A3,3,0,0,1,21.206,15Z" transform="translate(-0.188 -3.021)" fill="#34495e"/>
      <path id="Path_1113" data-name="Path 1113" d="M22.225,18.676s1.136,5.681-1.136,7.952C17.681,30.036,12,31.173,12,31.173l1.5-10.509Z" transform="translate(1.512 4.827)" fill="#34495e"/>
      <path id="Path_1114" data-name="Path 1114" d="M15.5,11.284S9.816,10.147,7.544,12.42C4.136,15.828,3,21.509,3,21.509l10.509-1.5Z" transform="translate(-3 0.979)" fill="#34495e"/>
      <path id="Path_1115" data-name="Path 1115" d="M11.819,23.515a1.874,1.874,0,0,1-.2.293,3.831,3.831,0,0,1-3.66.733A3.827,3.827,0,0,1,8.7,20.88a2.069,2.069,0,0,1,.293-.2L8.3,20a3.41,3.41,0,0,0-1.558.881c-2.051,2.051-1.725,6.606-1.725,6.606s4.528.353,6.606-1.725a3.41,3.41,0,0,0,.881-1.558Z" transform="translate(-1.997 5.489)" fill="#34495e"/>
    </g>
  </g>
</svg>
