<svg xmlns="http://www.w3.org/2000/svg" viewBox="0 0 400.37 304.91"><g opacity=".3"><g data-name="组 89387"><g data-name="组 89342"><g data-name="组 89339"><g data-name="组 89338"><path fill="#ededed" d="M25.84 172.5l-7.5-1.6 1.6-7.5a2.47 2.47 0 013-1.8l2.6.6a2.43 2.43 0 011.9 2.8z" data-name="路径 99643"/></g></g><g data-name="组 89341"><g data-name="组 89340"><path fill="#c1c1c1" d="M26.14 173l-8.3-1.8 1.7-7.9a2.92 2.92 0 012.9-2.2 1.95 1.95 0 01.7.1l2.6.6a3.14 3.14 0 011.9 1.3 2.81 2.81 0 01.4 2zm-7.3-2.4l6.6 1.4 1.6-7.1a1.74 1.74 0 00-.3-1.4 1.96 1.96 0 00-1.3-.9l-2.6-.6a2.18 2.18 0 00-2.5 1.5z" data-name="路径 99644"/></g></g></g><g data-name="组 89347"><g data-name="组 89344"><g data-name="组 89343"><path fill="#ededed" d="M14.24 189.3l7.5 1.6-1.6 7.5a2.47 2.47 0 01-3 1.8l-2.6-.6a2.43 2.43 0 01-1.9-2.8z" data-name="路径 99645"/></g></g><g data-name="组 89346"><g data-name="组 89345"><path fill="#c1c1c1" d="M17.64 200.8a1.95 1.95 0 01-.7-.1l-2.6-.6a3.14 3.14 0 01-1.9-1.3 2.81 2.81 0 01-.4-2l1.7-8 8.3 1.8-1.7 7.9a2.63 2.63 0 01-2.7 2.3zm-3.1-11l-1.5 7.2a1.74 1.74 0 00.3 1.4 1.96 1.96 0 001.3.9l2.6.6a2.18 2.18 0 002.5-1.5l1.6-7.1z" data-name="路径 99646"/></g></g></g><g data-name="组 89352"><g data-name="组 89349"><g data-name="组 89348"><path fill="#ededed" d="M28.54 186.7l1.6-7.4 7.5 1.6a2.43 2.43 0 011.9 2.8l-.6 2.8a2.47 2.47 0 01-3 1.8z" data-name="路径 99647"/></g></g><g data-name="组 89351"><g data-name="组 89350"><path fill="#c1c1c1" d="M36.54 188.8a1.95 1.95 0 01-.7-.1l-7.8-1.7 1.8-8.2 7.9 1.7a3.14 3.14 0 011.9 1.3 2.81 2.81 0 01.4 2l-.6 2.8a3.23 3.23 0 01-2.9 2.2zm-7.5-2.5l7 1.5a2.18 2.18 0 002.5-1.5l.6-2.8a1.74 1.74 0 00-.3-1.4 1.96 1.96 0 00-1.3-.9l-7.1-1.5z" data-name="路径 99648"/></g></g></g><g data-name="组 89357"><g data-name="组 89354"><g data-name="组 89353"><path fill="#ededed" d="M11.54 175.2l-1.6 7.4-7.5-1.6a2.43 2.43 0 01-1.9-2.8l.6-2.8a2.47 2.47 0 013-1.8z" data-name="路径 99649"/></g></g><g data-name="组 89356"><g data-name="组 89355"><path fill="#c1c1c1" d="M10.24 183.1l-7.9-1.7a3.14 3.14 0 01-1.9-1.3 2.81 2.81 0 01-.4-2l.6-2.8a2.92 2.92 0 012.9-2.2 1.95 1.95 0 01.7.1l7.8 1.7zm-6.7-9.2a2.04 2.04 0 00-2 1.6l-.6 2.8a1.74 1.74 0 00.3 1.4 1.96 1.96 0 001.3.9l7.1 1.5 1.5-6.6-7.1-1.5c-.2 0-.3-.1-.5-.1z" data-name="路径 99650"/></g></g></g><g data-name="组 89362"><g data-name="组 89359"><g data-name="组 89358"><path fill="#ededed" d="M30.14 179l-4.1-6.4 6.4-4a2.6 2.6 0 013.6.8l1.5 2.3a2.29 2.29 0 01-.7 3.2z" data-name="路径 99651"/></g></g><g data-name="组 89361"><g data-name="组 89360"><path fill="#c1c1c1" d="M29.94 179.6l-4.6-7.1 6.7-4.3a2.96 2.96 0 014.1.8l1.5 2.3a2.7 2.7 0 01-.8 3.8zm-3.4-6.8l3.7 5.7 6.2-3.9a2.15 2.15 0 00.9-1.2 1.74 1.74 0 00-.3-1.4l-1.5-2.3a2.23 2.23 0 00-1.8-1 2.66 2.66 0 00-1.2.3z" data-name="路径 99652"/></g></g></g><g data-name="组 89367"><g data-name="组 89364"><g data-name="组 89363"><path fill="#ededed" d="M9.94 182.8l4.1 6.4-6.4 4a2.6 2.6 0 01-3.6-.8l-1.5-2.3a2.29 2.29 0 01.7-3.2z" data-name="路径 99653"/></g></g><g data-name="组 89366"><g data-name="组 89365"><path fill="#c1c1c1" d="M6.34 194.1a2.99 2.99 0 01-2.5-1.3l-1.5-2.3a2.7 2.7 0 01.8-3.8l6.9-4.4 4.6 7.1-6.7 4.3a4.2 4.2 0 01-1.6.4zm3.5-10.7l-6.2 3.9a2.15 2.15 0 00-.9 1.2 1.74 1.74 0 00.3 1.4l1.5 2.3a2.23 2.23 0 001.8 1 2.66 2.66 0 001.2-.3l6-3.8z" data-name="路径 99654"/></g></g></g><g data-name="组 89372"><g data-name="组 89369"><g data-name="组 89368"><path fill="#ededed" d="M21.94 190.9l6.4-4.1 4.2 6.5a2.29 2.29 0 01-.7 3.2l-2.3 1.4a2.6 2.6 0 01-3.6-.8z" data-name="路径 99655"/></g></g><g data-name="组 89371"><g data-name="组 89370"><path fill="#c1c1c1" d="M28.24 198.9a2.99 2.99 0 01-2.5-1.3l-4.3-6.7 7.1-4.5 4.4 6.9a2.7 2.7 0 01-.8 3.8l-2.3 1.4a4.2 4.2 0 01-1.6.4zm-5.7-7.8l3.9 6a2.23 2.23 0 001.8 1 2.66 2.66 0 001.2-.3l2.3-1.4a2.15 2.15 0 00.9-1.2 1.74 1.74 0 00-.3-1.4l-4-6.2z" data-name="路径 99656"/></g></g></g><g data-name="组 89377"><g data-name="组 89374"><g data-name="组 89373"><path fill="#ededed" d="M18.14 170.9l-6.4 4.1-4.2-6.5a2.29 2.29 0 01.7-3.2l2.3-1.4a2.6 2.6 0 013.6.8z" data-name="路径 99657"/></g></g><g data-name="组 89376"><g data-name="组 89375"><path fill="#c1c1c1" d="M11.54 175.6l-4.4-6.9a2.7 2.7 0 01.8-3.8l2.3-1.4a2.96 2.96 0 014.1.8l4.3 6.7zm.3-11.8a2.66 2.66 0 00-1.2.3l-2.3 1.4a2.15 2.15 0 00-.9 1.2 1.74 1.74 0 00.3 1.4l4 6.2 5.7-3.6-3.9-6a1.94 1.94 0 00-1.7-.9z" data-name="路径 99658"/></g></g></g><g data-name="组 89386"><g data-name="组 89381"><g data-name="组 89380"><g data-name="组 89379"><g data-name="组 89378"><path fill="#ededed" d="M22.64 168.9a12.71 12.71 0 108.08 5.56 12.75 12.75 0 00-8.08-5.55zm-4.5 20.6a8.35 8.35 0 01-6.4-10 8.48 8.48 0 0110.1-6.4 8.35 8.35 0 016.4 10 8.48 8.48 0 01-10.1 6.4z" data-name="路径 99659"/></g></g></g></g><g data-name="组 89385"><g data-name="组 89384"><g data-name="组 89383"><g data-name="组 89382"><path fill="#c1c1c1" d="M19.94 194.5a12.65 12.65 0 01-2.8-.3 13.14 13.14 0 012.8-26 12.65 12.65 0 012.8.3 13.14 13.14 0 01-2.8 26zm0-25.5a12.5 12.5 0 00-12.1 9.7 11.92 11.92 0 001.7 9.2 12.45 12.45 0 0022.6-4 11.92 11.92 0 00-1.7-9.2 12.58 12.58 0 00-10.5-5.7zm0 21.1a12.25 12.25 0 01-1.9-.2 8.95 8.95 0 01-5.6-3.9 8.56 8.56 0 01-1.2-6.6 8.87 8.87 0 018.6-6.9 12.25 12.25 0 011.9.2 8.95 8.95 0 015.6 3.9 8.56 8.56 0 011.2 6.6 8.79 8.79 0 01-8.6 6.9zm0-16.7a8.01 8.01 0 00-7.8 6.3 7.5 7.5 0 001.1 6 7.98 7.98 0 005.1 3.5 11.13 11.13 0 001.7.2 8.01 8.01 0 007.8-6.3 7.5 7.5 0 00-1.1-6 7.98 7.98 0 00-5.1-3.5 4.95 4.95 0 00-1.7-.2z" data-name="路径 99660"/></g></g></g></g></g></g><g data-name="组 89398"><g data-name="组 89394"><g data-name="组 89389"><g data-name="组 89388"><path fill="#c1c1c1" d="M335.04 86.1l1.9-8.2 8.1-2.5 6.2 5.8-1.9 8.2-8.1 2.5zm11.5.7a4.6 4.6 0 10-6.5.2 4.5 4.5 0 006.5-.2z" data-name="路径 99661" opacity=".25"/></g></g><g data-name="组 89393"><g data-name="组 89392"><g data-name="组 89391"><g data-name="组 89390"><path fill="#fff" d="M332.74 85.3l1.9-8.2 8.1-2.5 6.2 5.8-1.9 8.2-8.1 2.5zm11.5.6a4.6 4.6 0 10-6.5.2 4.5 4.5 0 006.5-.2z" data-name="路径 99662"/></g></g></g></g></g><g data-name="组 89397"><g data-name="组 89396"><g data-name="组 89395"><path fill="#c1c1c1" d="M338.84 91.3l-6.4-6 2-8.5 8.4-2.5 6.4 6-2 8.5zm-5.8-6.1l6 5.6 7.8-2.4 1.9-8-6-5.6-7.8 2.4zm8.1 2.4a4.88 4.88 0 01-3.6-1.3 4.8 4.8 0 01-.2-6.9 4.63 4.63 0 013.3-1.5 4.88 4.88 0 013.6 1.3 4.8 4.8 0 01.2 6.9 4.63 4.63 0 01-3.3 1.5zm-.5-9.1a4.03 4.03 0 00-2.9 1.4 4.38 4.38 0 00.2 6.1 4.72 4.72 0 003.2 1.2 4.03 4.03 0 002.9-1.4 4.38 4.38 0 00-.2-6.1 3.93 3.93 0 00-3.2-1.2z" data-name="路径 99663"/></g></g></g></g><g data-name="组 89425"><g data-name="组 89408" opacity=".25"><g data-name="组 89401"><g data-name="组 89400"><g data-name="组 89399"><path fill="#c1c1c1" d="M48.04 82.2h11.8v5.5h-11.8z" data-name="矩形 24504"/></g></g></g><g data-name="组 89404"><g data-name="组 89403"><g data-name="组 89402"><path fill="#c1c1c1" d="M48.04 77h11.8v2.8h-11.8z" data-name="矩形 24505"/></g></g></g><g data-name="组 89407"><g data-name="组 89406"><g data-name="组 89405"><path fill="#c1c1c1" d="M53.94 107.7l10.2-10.8h-4.3v-6.4h-11.8v6.4h-4.3z" data-name="路径 99664"/></g></g></g></g><g data-name="组 89424"><g data-name="组 89413"><g data-name="组 89410"><g data-name="组 89409"><path fill="#fff" d="M57.2 86.72H45.4v-5.5h11.8z" data-name="矩形 24506"/></g></g><g data-name="组 89412"><g data-name="组 89411"><path fill="#c1c1c1" d="M45.04 87v-6.2h12.4V87zm.6-5.6v4.9h11.2v-4.9z" data-name="路径 99665"/></g></g></g><g data-name="组 89418"><g data-name="组 89415"><g data-name="组 89414"><path fill="#fff" d="M57.2 78.77H45.4v-2.8h11.8z" data-name="矩形 24507"/></g></g><g data-name="组 89417"><g data-name="组 89416"><path fill="#c1c1c1" d="M45.04 79v-3.4h12.4V79zm.6-2.7v2.1h11.2v-2.1z" data-name="路径 99666"/></g></g></g><g data-name="组 89423"><g data-name="组 89420"><g data-name="组 89419"><path fill="#fff" d="M51.24 106.7l10.2-10.8h-4.3v-6.5h-11.8v6.5h-4.2z" data-name="路径 99667"/></g></g><g data-name="组 89422"><g data-name="组 89421"><path fill="#c1c1c1" d="M40.34 95.5h4.7v-6.4h12.4v6.4h4.7l-10.9 11.6zm5.3-5.7v6.4h-3.9l9.5 10.1 9.5-10.1h-3.9v-6.4z" data-name="路径 99668"/></g></g></g></g></g><g data-name="组 89432"><g data-name="组 89428"><g data-name="组 89427"><g data-name="组 89426" opacity=".25"><path fill="#c1c1c1" d="M199.64 2.3a8.9 8.9 0 00-7.5 4.1 6.28 6.28 0 00-1.9-.3 7 7 0 000 14h9.4a8.9 8.9 0 000-17.8z" data-name="路径 99669"/></g></g></g><g data-name="组 89431"><g data-name="组 89429"><path fill="#fff" d="M197.54.5a8.9 8.9 0 00-7.5 4.1 6.28 6.28 0 00-1.9-.3 7 7 0 000 14h9.4a8.92 8.92 0 008.9-8.9 8.98 8.98 0 00-8.9-8.9z" data-name="路径 99670"/></g><g data-name="组 89430"><path fill="#c1c1c1" d="M197.54 18.8h-9.5a7.5 7.5 0 010-15 9.85 9.85 0 011.7.2 9.4 9.4 0 0117.1 5.4 9.3 9.3 0 01-9.3 9.4zm-9.5-13.9a6.4 6.4 0 000 12.8h9.4a8.3 8.3 0 10-7-12.8l-.2.3-.4-.1a11.02 11.02 0 00-1.8-.2z" data-name="路径 99671"/></g></g></g><g data-name="组 89439"><g data-name="组 89435"><g data-name="组 89434"><g data-name="组 89433" opacity=".25"><path fill="#c1c1c1" d="M236.24 17.7a14.92 14.92 0 012.1.2 10.06 10.06 0 019.2-5.4c5.5 0 10 4.1 10 9.1 4.7.4 8.3 3.9 8.3 8.3 0 4.6-4.1 8.3-9.2 8.3h-20.9c-6.1-.2-10.9-4.7-10.9-10.2.1-5.7 5.2-10.3 11.4-10.3z" data-name="路径 99672"/></g></g></g><g data-name="组 89438"><g data-name="组 89436"><path fill="#fff" d="M223.44 25.9c0-5.6 5.1-10.2 11.3-10.2a14.92 14.92 0 012.1.2 10.06 10.06 0 019.2-5.4c5.5 0 10 4.1 10 9.1 4.7.4 8.3 3.9 8.3 8.3 0 4.6-4.1 8.3-9.2 8.3h-20.9c-6-.3-10.8-4.8-10.8-10.3z" data-name="路径 99673"/></g><g data-name="组 89437"><path fill="#c1c1c1" d="M234.34 36.6h20.9c5.3 0 9.6-3.9 9.6-8.7 0-4.4-3.6-8.1-8.4-8.7-.2-5.1-4.8-9.1-10.5-9.1a10.8 10.8 0 00-9.5 5.4 10.87 10.87 0 00-1.8-.1c-6.5 0-11.7 4.8-11.7 10.6 0 5.6 4.8 10.2 10.9 10.6zm11.7-25.7c5.3 0 9.6 3.9 9.6 8.6v.4h.4c4.5.4 7.9 3.7 7.9 7.8 0 4.3-3.9 7.9-8.8 7.9h-20.9c-5.9-.2-10.5-4.5-10.5-9.7 0-5.4 4.9-9.8 10.9-9.8a13.55 13.55 0 012 .2l.3.1.1-.3a10.14 10.14 0 019-5.2z" data-name="路径 99674"/></g></g></g><g data-name="组 89471"><g data-name="组 89442"><g data-name="组 89441"><g data-name="组 89440" opacity=".25"><path fill="#cecece" d="M305.04 212.8a14.4 14.4 0 007.2-12.7l-.9-139.1a14.79 14.79 0 00-14.8-14.6l-203.8 1.3a14.79 14.79 0 00-14.6 14.8l.9 139.1a14.5 14.5 0 007.4 12.6l-18.9.1v1.6a14.92 14.92 0 00.2 2.1c1.5 8.7 12.1 15.4 24.8 15.3l206.6-1.3c12.7-.1 23.1-6.9 24.6-15.6a14.92 14.92 0 00.2-2.1v-1.6z" data-name="路径 99675"/></g></g></g><g data-name="组 89445"><g data-name="组 89443"><path fill="#ededed" d="M300.44 211.1l-203.9 1.3a14.72 14.72 0 01-14.8-14.6l-.9-139A14.72 14.72 0 0195.44 44l203.9-1.3a14.72 14.72 0 0114.8 14.6l.9 139.1a14.64 14.64 0 01-14.6 14.7z" data-name="路径 99676"/></g><g data-name="组 89444"><path fill="#c1c1c1" d="M96.44 213.4a15.6 15.6 0 01-15.6-15.5l-.9-139.1a15.83 15.83 0 014.5-11.1 15.6 15.6 0 0111-4.7l204-1.3a15.6 15.6 0 0115.6 15.5l.9 139.1a15.56 15.56 0 01-15.5 15.7zm203-169.8l-204 1.4a13.62 13.62 0 00-9.7 4.1 13.2 13.2 0 00-3.9 9.7l.9 139.1a13.7 13.7 0 0013.7 13.6h.1l203.9-1.3a13.6 13.6 0 0013.6-13.8l-.9-139.1a13.79 13.79 0 00-13.7-13.7z" data-name="路径 99677"/></g></g><g data-name="组 89448"><g data-name="组 89446"><path fill="#fff" d="M304.94 60.4l.8 130.2a8.32 8.32 0 01-8.2 8.3l-198.5 1.3a8.32 8.32 0 01-8.3-8.2l-.7-130.2a8.32 8.32 0 018.2-8.3l198.5-1.3a8.24 8.24 0 018.2 8.2z" data-name="路径 99678"/></g><g data-name="组 89447"><path fill="#c1c1c1" d="M99.04 200.6a8.6 8.6 0 01-8.6-8.6l-.8-130.2a8.62 8.62 0 018.6-8.7l198.5-1.3a8.62 8.62 0 018.7 8.6l.8 130.2a8.62 8.62 0 01-8.6 8.7zm197.7-148l-198.5 1.3a7.9 7.9 0 00-7.8 7.9l.8 130.2a7.81 7.81 0 007.8 7.8v.4l.1-.4 198.5-1.3a7.9 7.9 0 007.8-7.9l-.8-130.2a7.96 7.96 0 00-7.9-7.8z" data-name="路径 99679"/></g></g><g data-name="组 89451"><g data-name="组 89449"><path fill="#ededed" d="M326.64 210.6a7.49 7.49 0 01-.2 2.1 10.46 10.46 0 01-.4 1.7c-2.4 7.9-12.3 13.9-24.2 13.9l-206.6 1.3c-12.5.1-22.9-6.4-24.7-14.9 0-.1-.1-.2-.1-.4a14.92 14.92 0 01-.2-2.1v-1.6l256.3-1.7z" data-name="路径 99680"/></g><g data-name="组 89450"><path fill="#c1c1c1" d="M95.04 230.7c-12.8 0-23.5-6.6-25.4-15.7 0-.1-.1-.3-.1-.4a15.16 15.16 0 01-.2-2.3v-2.6l258.3-1.7v2.6a15.15 15.15 0 01-.2 2.3 11.63 11.63 0 01-.4 1.8c-2.6 8.5-12.9 14.5-25.1 14.6zm-23.8-19.1v.6a12.31 12.31 0 00.2 2 .37.37 0 00.1.3c1.7 8.1 11.8 14.2 23.5 14.2h.2l206.6-1.3c11.2-.1 20.9-5.6 23.3-13.2a7.5 7.5 0 00.4-1.6 12.3 12.3 0 00.2-2v-.6z" data-name="路径 99681"/></g></g><g data-name="组 89453"><g data-name="组 89452"><path fill="#fff" d="M325.64 211.9a11.38 11.38 0 01-.5 2.3q-126.75.3-253.6.5a5.9 5.9 0 01-.2-1.4 12.13 12.13 0 01-.1-1.8q127.2-.9 254.4-1.7a7.35 7.35 0 010 2.1z" data-name="路径 99682"/></g></g><g data-name="组 89456"><g data-name="组 89454"><path fill="#ededed" d="M70.84 215.1q127.5-.3 254.9-.7" data-name="路径 99683"/></g><g data-name="组 89455"><path fill="#c1c1c1" d="M70.84 214.77l254.9-.72v.8l-254.9.72z" data-name="矩形 24508"/></g></g><g data-name="组 89470"><g data-name="组 89457"><path fill="#fff" d="M155.94 65.7h79.5v10.1h-79.5z" data-name="矩形 24509"/><path fill="#c1c1c1" d="M235.84 76.2h-80.2V65.4h80.2zm-79.5-.7h78.8v-9.4h-78.8z" data-name="路径 99684"/></g><g data-name="组 89458"><path fill="#ededed" d="M103.54 101.7h188.8v57.9h-188.8z" data-name="矩形 24510"/><path fill="#c1c1c1" d="M292.64 159.9h-189.5v-58.6h189.5zm-188.8-.7h188.1V102h-188.1z" data-name="路径 99685"/></g><g data-name="组 89463"><g data-name="组 89459"><path fill="#fff" d="M103.54 86.3h44.5v5h-44.5z" data-name="矩形 24511"/><path fill="#c1c1c1" d="M148.34 91.7h-45.2V86h45.2zm-44.5-.7h43.8v-4.3h-43.8z" data-name="路径 99686"/></g><g data-name="组 89460"><path fill="#fff" d="M151.64 86.3h44.5v5h-44.5z" data-name="矩形 24512"/><path fill="#c1c1c1" d="M196.44 91.7h-45.2V86h45.2zm-44.5-.7h43.8v-4.3h-43.8z" data-name="路径 99687"/></g><g data-name="组 89461"><path fill="#fff" d="M199.74 86.3h44.5v5h-44.5z" data-name="矩形 24513"/><path fill="#c1c1c1" d="M244.54 91.7h-45.2V86h45.2zm-44.4-.7h43.8v-4.3h-43.8z" data-name="路径 99688"/></g><g data-name="组 89462"><path fill="#fff" d="M247.84 86.3h44.5v5h-44.5z" data-name="矩形 24514"/><path fill="#c1c1c1" d="M292.64 91.7h-45.2V86h45.2zm-44.4-.7h43.8v-4.3h-43.8z" data-name="路径 99689"/></g></g><g data-name="组 89465"><g data-name="组 89464"><path fill="#fff" d="M103.54 165h188.8v5h-188.8z" data-name="矩形 24515"/><path fill="#c1c1c1" d="M292.64 170.4h-189.5v-5.7h189.5zm-188.8-.7h188.1v-4.3h-188.1z" data-name="路径 99690"/></g></g><g data-name="组 89467"><g data-name="组 89466"><path fill="#fff" d="M103.54 173.3h188.8v5h-188.8z" data-name="矩形 24516"/><path fill="#c1c1c1" d="M292.64 178.7h-189.5V173h189.5zm-188.8-.7h188.1v-4.3h-188.1z" data-name="路径 99691"/></g></g><g data-name="组 89469"><g data-name="组 89468"><path fill="#fff" d="M103.54 181.7h188.8v5h-188.8z" data-name="矩形 24517"/><path fill="#c1c1c1" d="M292.64 187h-189.5v-5.7h189.5zm-188.8-.7h188.1V182h-188.1z" data-name="路径 99692"/></g></g></g></g><g data-name="组 89479"><g data-name="组 89472"><path fill="#fff" d="M271.65 142.75h-24.1v-24.1h24.1z" data-name="矩形 24518"/><path fill="#c1c1c1" d="M271.94 143h-24.8v-24.8h24.8zm-24.2-.6h23.5v-23.5h-23.5v23.5z" data-name="路径 99693"/></g><g data-name="组 89473" transform="translate(.04)"><circle cx="17.3" cy="17.3" r="17.3" fill="#cecece" data-name="椭圆 2172" transform="translate(220.4 115.9)"/><path fill="#c1c1c1" d="M237.7 150.8a17.6 17.6 0 1117.6-17.6 17.6 17.6 0 01-17.6 17.6zm0-34.6a16.99 16.99 0 1012.02 4.98 17 17 0 00-12.02-4.98z" data-name="路径 99694"/></g><g data-name="组 89474"><path fill="#fff" d="M229.08 142.75h-24.1v-24.1h24.1z" data-name="矩形 24519"/><path fill="#c1c1c1" d="M229.34 143h-24.8v-24.8h24.8zm-24.1-.6h23.5v-23.5h-23.5z" data-name="路径 99695"/></g><g data-name="组 89475" transform="translate(.04)"><circle cx="17.3" cy="17.3" r="17.3" fill="#cecece" data-name="椭圆 2173" transform="translate(181.5 117.1)"/><path fill="#c1c1c1" d="M198.8 152a17.6 17.6 0 1117.6-17.6 17.6 17.6 0 01-17.6 17.6zm0-34.6a16.99 16.99 0 1012.02 4.98 17 17 0 00-12.02-4.98z" data-name="路径 99696"/></g><g data-name="组 89476"><path fill="#fff" d="M190.66 142.75h-24.1v-24.1h24.1z" data-name="矩形 24520"/><path fill="#c1c1c1" d="M190.94 143h-24.8v-24.8h24.8zm-24.1-.6h23.5v-23.5h-23.5z" data-name="路径 99697"/></g><g data-name="组 89477" transform="translate(.04)"><circle cx="17.3" cy="17.3" r="17.3" fill="#cecece" data-name="椭圆 2174" transform="translate(140 115.9)"/><path fill="#c1c1c1" d="M157.3 150.8a17.6 17.6 0 1117.6-17.6 17.6 17.6 0 01-17.6 17.6zm0-34.6a16.99 16.99 0 1012.02 4.98 17 17 0 00-12.02-4.98z" data-name="路径 99698"/></g><g data-name="组 89478"><path fill="#fff" d="M148.1 142.75H124v-24.1h24.1z" data-name="矩形 24521"/><path fill="#c1c1c1" d="M148.44 143h-24.8v-24.8h24.8zm-24.2-.6h23.5v-23.5h-23.5z" data-name="路径 99699"/></g></g><g data-name="组 89514"><g data-name="组 89492"><g data-name="组 89481"><g data-name="组 89480"><path fill="#c1c1c1" d="M131.04 282.1l12.1.4 16.4.5.3.9 206.4-69.9-1-2.8 11.5-3.9a7.97 7.97 0 10-5.1-15.1l-11.5 3.9-1-2.8-206.3 69.9.3.9-12.7 10.4-9.4 7.6z" data-name="路径 99700" opacity=".25"/></g></g><g data-name="组 89491"><g data-name="组 89484"><g data-name="组 89482"><path fill="#ededed" d="M157.16 256.47l206.38-69.92 7.03 20.74L164.2 277.2z" data-name="矩形 24522"/></g><g data-name="组 89483"><path fill="#c1c1c1" d="M163.54 278.8l-7.8-23.1 1.1-.4 207.5-70.3 7.8 23.1-1.1.4zm-4.8-21.6l6.3 18.5 204-69.1-6.3-18.5z" data-name="路径 99701"/></g></g><g data-name="组 89487"><g data-name="组 89485"><path fill="#fff" d="M381.14 200.6l-11.5 3.9-5.1-15.1 11.5-3.9a7.97 7.97 0 115.1 15.1z" data-name="路径 99702"/></g><g data-name="组 89486"><path fill="#c1c1c1" d="M368.84 206l-5.9-17.4 12.7-4.3a10.47 10.47 0 013-.5 9.18 9.18 0 012.9 17.9zm-2.8-15.9l4.4 12.8 10.4-3.5a6.82 6.82 0 004.2-8.6 6.66 6.66 0 00-6.4-4.6 5.7 5.7 0 00-2.2.4z" data-name="路径 99703"/></g></g><g data-name="组 89488"><path fill="#fff" d="M160.74 266.8q103.2-34.94 206.3-69.9" data-name="路径 99704"/><path fill="#c1c1c1" d="M160.32 265.77l206.35-69.95.77 2.27-206.35 69.95z" data-name="矩形 24523"/></g><g data-name="组 89489"><path fill="#fff" d="M157.54 257.3l6.4 19.1-16.4-.6-12.1-.4 9.3-7.7z" data-name="路径 99705"/><path fill="#c1c1c1" d="M165.64 277.6l-33.5-1.1 26-21.3zm-27-3.3l23.6.8-5.3-15.8z" data-name="路径 99706"/></g><g data-name="组 89490"><path fill="#c1c1c1" d="M145.04 268.3l2.3 6.9-11.9.2z" data-name="路径 99707"/></g></g></g><g data-name="组 89513"><g data-name="组 89498" opacity=".25"><g data-name="组 89494"><g data-name="组 89493"><path fill="#c1c1c1" d="M209.54 291.5a25.13 25.13 0 003.4 13.4 24.92 24.92 0 016.9-8.6c6.1-4.8 11.3-3.7 16.2-8.3 1.9-1.8 4.2-4.8 5.4-10.4l.4.4 42.2-38.5 111.9-115a9.06 9.06 0 00-12.8-12.8l-115 111.9-38.5 42.2.9.9a22.05 22.05 0 00-10.8 3.8c-9.7 6.7-10.1 19.3-10.2 21z" data-name="路径 99708"/></g></g><g data-name="组 89495"><path fill="#c1c1c1" d="M262.64 233.5l15.3 15.3" data-name="直线 961"/></g><g data-name="组 89496"><path fill="#c1c1c1" d="M258.84 237.8l14.8 14.8" data-name="直线 962"/></g><g data-name="组 89497"><path fill="#c1c1c1" d="M254.94 242l14.5 14.5" data-name="直线 963"/></g></g><g data-name="组 89512"><g data-name="组 89508"><g data-name="组 89501"><g data-name="组 89499"><path fill="#c1c1c1" d="M208.94 282.5a25.13 25.13 0 003.4 13.4 24.92 24.92 0 016.9-8.6c6.1-4.8 11.3-3.7 16.2-8.3 1.9-1.8 4.2-4.8 5.4-10.4l.4.4 42.2-38.5 111.9-115a9.06 9.06 0 00-12.8-12.8l-115 111.9-38.5 42.1.9.9a22.05 22.05 0 00-10.8 3.8c-9.7 6.8-10.1 19.4-10.2 21.1z" data-name="路径 99709"/></g><g data-name="组 89500"><path fill="#c1c1c1" d="M212.54 301.3l-2.4-4.1a28.43 28.43 0 01-3.8-14.8c.1-3.7 1.3-16.2 11.3-23.2a22.92 22.92 0 019.1-3.8l39-42.7 115-111.9a11.73 11.73 0 017.9-3.1 11.9 11.9 0 018.3 3.4 11.66 11.66 0 01.4 16.1l-112 115.2-42.4 38.6a19.53 19.53 0 01-5.7 9.8c-2.9 2.8-5.9 3.8-8.8 4.7a22.57 22.57 0 00-7.6 3.8 23.67 23.67 0 00-6.2 7.7zm20.1-44.6l3.1 3.1-5.7.4a18.71 18.71 0 00-9.5 3.3c-8 5.6-9 16-9.1 19.1a22.68 22.68 0 001.1 7.8 24.22 24.22 0 015-5.1 28.15 28.15 0 019.2-4.6c2.6-.9 4.8-1.6 6.8-3.6a17.12 17.12 0 004.6-9.1l1-4.7 2.1 2.1 40.3-36.8 111.8-114.9a6.52 6.52 0 00-9.3-9.1l-114.6 111.8z" data-name="路径 99710"/></g></g><g data-name="组 89507"><g data-name="组 89502"><path fill="#ededed" d="M283.44 230.5l111.9-115a9.06 9.06 0 00-12.8-12.8l-115 111.9z" data-name="路径 99711"/><path fill="#c1c1c1" d="M283.44 231.9l-17.3-17.3L381.84 102a10.14 10.14 0 016.8-2.6 9.9 9.9 0 017.1 2.9 10.1 10.1 0 01.3 13.9zm-14.5-17.3l14.5 14.5 111.2-114.3a7.97 7.97 0 00-.3-11.1 8.2 8.2 0 00-5.7-2.4 7.64 7.64 0 00-5.4 2.1z" data-name="路径 99712"/></g><g data-name="组 89503"><path fill="#fff" d="M267.54 214.6l-38.5 42.1 12.3 12.3 42.1-38.5z" data-name="路径 99713"/><path fill="#c1c1c1" d="M241.24 270.3l-13.6-13.6 39.8-43.6 17.4 17.4zm-10.8-13.6l10.9 10.9 40.7-37.2-14.5-14.4z" data-name="路径 99714"/></g><g data-name="组 89506"><g data-name="组 89504"><path fill="#c1c1c1" d="M212.34 295.9a24.92 24.92 0 016.9-8.6c6.1-4.8 11.3-3.7 16.2-8.3 1.9-1.8 4.2-4.8 5.4-10.4l-10.9-10.9a22.05 22.05 0 00-10.8 3.8c-9.7 6.8-10.1 19.4-10.2 21.1a25.01 25.01 0 003.4 13.3z" data-name="路径 99715"/></g><g data-name="组 89505"><path fill="#c1c1c1" d="M212.44 297.9l-.9-1.5a25.08 25.08 0 01-3.5-13.9c.1-3.5 1.2-15.3 10.6-21.9a22.54 22.54 0 0111.3-3.9h.4l11.6 11.6-.1.5a20.4 20.4 0 01-5.7 10.9c-2.7 2.5-5.3 3.4-8.2 4.4a26.4 26.4 0 00-8.1 4 23.83 23.83 0 00-6.6 8.3zm17.1-39.3a19.76 19.76 0 00-9.8 3.6c-8.6 6-9.7 17.1-9.8 20.4a24.47 24.47 0 002.4 11.3 24.84 24.84 0 016.3-7.3 24.14 24.14 0 018.7-4.3c2.7-.9 5.1-1.7 7.4-3.9a18.15 18.15 0 005-9.4z" data-name="路径 99716"/></g></g></g></g><g data-name="组 89509"><path fill="#c1c1c1" d="M259.75 223.13l.91-.92 15.2 15.2-.9.92z" data-name="矩形 24524"/></g><g data-name="组 89510"><path fill="#c1c1c1" d="M255.92 227.33l.92-.92 14.85 14.85-.92.92z" data-name="矩形 24525"/></g><g data-name="组 89511"><path fill="#c1c1c1" d="M252.1 231.52l.92-.92 14.5 14.5-.92.92z" data-name="矩形 24526"/></g></g></g></g></g></svg>