<svg xmlns="http://www.w3.org/2000/svg" viewBox="0 0 392.9 266"><g opacity=".3"><g data-name="组 89530"><g data-name="组 89518"><g data-name="组 89517"><g data-name="组 89516"><path fill="#c1c1c1" d="M239.4 170.3a57.6 57.6 0 1157.6-57.6 57.6 57.6 0 01-57.6 57.6zm0-103.2a45.6 45.6 0 1045.6 45.6 45.6 45.6 0 00-45.6-45.6z" data-name="路径 99717"/></g></g></g><g data-name="组 89521"><g data-name="组 89519"><path fill="#fff" d="M128.4 112.7h222v64.2h-222z" data-name="矩形 24527"/></g><g data-name="组 89520"><path fill="#c1c1c1" d="M352.2 178.7H126.6v-67.8h225.6zm-222-3.6h218.4v-60.6H130.2z" data-name="路径 99718"/></g></g><g data-name="组 89526"><g data-name="组 89523"><g data-name="组 89522"><path fill="#cecece" d="M128.4 176.9h222v79.8h-222z" data-name="矩形 24528"/></g></g><g data-name="组 89525"><g data-name="组 89524"><path fill="#c1c1c1" d="M352.2 258.5H126.6v-83.4h225.6zm-222-3.6h218.4v-76.2H130.2z" data-name="路径 99719"/></g></g></g><g data-name="组 89529"><g data-name="组 89527"><circle cx="9.6" cy="9.6" r="9.6" fill="#fff" data-name="椭圆 2175" transform="rotate(-45 300.59 -194.79)"/></g><g data-name="组 89528"><path fill="#c1c1c1" d="M239.4 166.1a10.5 10.5 0 1110.5-10.5 10.5 10.5 0 01-10.5 10.5zm0-19.2a8.7 8.7 0 108.7 8.7 8.7 8.7 0 00-8.7-8.7z" data-name="路径 99720"/></g></g></g><g data-name="组 89537"><g data-name="组 89533"><g data-name="组 89532"><g data-name="组 89531" opacity=".25"><path fill="#c1c1c1" d="M333.9 82.2a9.75 9.75 0 00-8.2 4.5 7.6 7.6 0 10-2.1 14.9h10.3a9.7 9.7 0 100-19.4z" data-name="路径 99721"/></g></g></g><g data-name="组 89536"><g data-name="组 89534"><path fill="#fff" d="M335 80.3a9.75 9.75 0 00-8.2 4.5 7.6 7.6 0 10-2.1 14.9H335a9.7 9.7 0 100-19.4z" data-name="路径 99722"/></g><g data-name="组 89535"><path fill="#c1c1c1" d="M335 100.3h-10.3a8.2 8.2 0 110-16.4 13.66 13.66 0 011.9.2 10.16 10.16 0 018.4-4.4 10.3 10.3 0 010 20.6zm-10.3-15.2a7 7 0 000 14H335a9.1 9.1 0 000-18.2 9.24 9.24 0 00-7.7 4.2l-.2.4-.4-.1a7.46 7.46 0 00-2-.3z" data-name="路径 99723"/></g></g></g><g data-name="组 89544"><g data-name="组 89540"><g data-name="组 89539"><g data-name="组 89538" opacity=".25"><path fill="#c1c1c1" d="M346.6 128.4a14.53 14.53 0 013 .3 14.7 14.7 0 0113.4-7.9c8.1 0 14.6 5.9 14.6 13.2v.1c6.8.6 12.2 5.7 12.2 12 0 6.7-6 12.1-13.4 12.1H346c-8.8-.3-15.9-6.8-15.9-14.8 0-8.3 7.4-15 16.5-15z" data-name="路径 99724"/></g></g></g><g data-name="组 89543"><g data-name="组 89541"><path fill="#fff" d="M332.6 140.4c0-8.2 7.4-14.8 16.5-14.8a14.53 14.53 0 013 .3 14.7 14.7 0 0113.4-7.9c8.1 0 14.6 5.9 14.6 13.2v.1c6.8.6 12.2 5.7 12.2 12 0 6.7-6 12.1-13.4 12.1h-30.4c-8.9-.5-15.9-7-15.9-15z" data-name="路径 99725"/></g><g data-name="组 89542"><path fill="#c1c1c1" d="M348.5 155.9h30.4c7.7 0 14-5.7 14-12.7 0-6.4-5.2-11.8-12.2-12.6-.3-7.4-7-13.3-15.3-13.3a15.6 15.6 0 00-13.8 7.9 24.52 24.52 0 00-2.7-.2c-9.4 0-17.1 6.9-17.1 15.5 0 8.2 6.9 14.9 15.9 15.4h.8zm17-37.4c7.7 0 14 5.6 14 12.6v.6h.6c6.6.5 11.6 5.4 11.6 11.4 0 6.3-5.7 11.5-12.8 11.5h-30.4c-8.6-.3-15.3-6.5-15.3-14.2 0-7.8 7.1-14.2 15.8-14.2a26.4 26.4 0 012.9.2l.5.1.2-.4a14.3 14.3 0 0112.9-7.6z" data-name="路径 99726"/></g></g></g><g data-name="组 89557"><g data-name="组 89546"><g data-name="组 89545"><path fill="#c1c1c1" d="M0 107.5l13.3.4 18 .6.3.9 225.9-76.5-1-3.1 12.6-4.3a8.76 8.76 0 10-5.6-16.6l-12.6 4.3-1-3.1L24 86.6l.3.9-14 11.6z" data-name="路径 99727" opacity=".25"/></g></g><g data-name="组 89556"><g data-name="组 89549"><g data-name="组 89547"><path fill="#ededed" d="M28.63 79.55L254.52 3.02l7.7 22.73-225.89 76.52z" data-name="矩形 24529"/></g><g data-name="组 89548"><path fill="#c1c1c1" d="M35.6 103.9L27 78.7 255.4 1.3l8.6 25.2zm-5.2-23.6l6.9 20.2 223.4-75.7-6.9-20.2z" data-name="路径 99728"/></g></g><g data-name="组 89552"><g data-name="组 89550"><path fill="#fff" d="M273.9 18.3l-12.6 4.3L255.7 6l12.6-4.3a8.8 8.8 0 0111.1 5.5 8.84 8.84 0 01-5.5 11.1z" data-name="路径 99729"/></g><g data-name="组 89551"><path fill="#c1c1c1" d="M260.4 24.3l-6.5-19.1L267.8.5A8.6 8.6 0 01271 0a10 10 0 019.5 6.8 9.8 9.8 0 01-.5 7.7 10.08 10.08 0 01-5.8 5.1zm-3.1-17.4l4.8 14.1 11.4-3.9a7.38 7.38 0 00-2.3-14.4 6.72 6.72 0 00-2.4.4z" data-name="路径 99730"/></g></g><g data-name="组 89553"><path fill="#fff" d="M32.6 90.9l225.9-76.5" data-name="路径 99731"/><path fill="#c1c1c1" d="M32.1 89.63l225.88-76.55.84 2.46L32.93 92.09z" data-name="矩形 24530"/></g><g data-name="组 89554"><path fill="#fff" d="M29 80.4l7.1 20.9-18-.6-13.3-.4 10.3-8.4z" data-name="路径 99732"/><path fill="#c1c1c1" d="M38 102.7l-36.7-1.2 28.4-23.3zM8.4 99.1l25.9.9-5.8-17.2z" data-name="路径 99733"/></g><g data-name="组 89555"><path fill="#c1c1c1" d="M15.3 92.5l2.6 7.6-13.1.2z" data-name="路径 99734"/></g></g></g><g data-name="组 89593"><g data-name="组 89558"><path fill="#c1c1c1" d="M66.2 14.04L189.63 3.06 204.73 173 81.3 183.97z" data-name="矩形 24531" opacity=".25"/></g><g data-name="组 89592"><g data-name="组 89559"><path fill="#fff" d="M211.42 176.51L88 187.48 72.9 17.56 196.31 6.58z" data-name="矩形 24532"/><path fill="#c1c1c1" d="M87 188.8L71.7 16.6 197.4 5.4l15.3 172.2zM74.2 18.6l14.9 167.7 121.1-10.8L195.3 7.8z" data-name="路径 99735"/></g><g data-name="组 89563"><g data-name="组 89562"><g data-name="组 89560"><path fill="#fff" d="M102.85 167.28l89.05-7.92.47 5.28-89.05 7.93z" data-name="矩形 24533"/></g><g data-name="组 89561"><path fill="#ededed" d="M102.7 173.2l-.6-6.4 90.2-8 .6 6.4zm.7-5.4l.4 4.1 87.9-7.8-.4-4.1z" data-name="路径 99736"/></g></g></g><g data-name="组 89568"><g data-name="组 89564"><path fill="#ededed" d="M97.39 155.16l97.51-8.66.25 2.79-97.52 8.66z" data-name="矩形 24534"/></g><g data-name="组 89565"><path fill="#ededed" d="M96.98 150.16l97.52-8.66.24 2.78-97.51 8.67z" data-name="矩形 24535"/></g><g data-name="组 89566"><path fill="#ededed" d="M96.49 145.26L194 136.6l.25 2.79-97.52 8.67z" data-name="矩形 24536"/></g><g data-name="组 89567"><path fill="#ededed" d="M96.08 140.25l97.52-8.66.25 2.8-97.52 8.66z" data-name="矩形 24537"/></g></g><g data-name="组 89573"><g data-name="组 89569"><path fill="#ededed" d="M95.38 132.87l97.52-8.67.25 2.79-97.52 8.67z" data-name="矩形 24538"/></g><g data-name="组 89570"><path fill="#ededed" d="M94.98 127.85l97.51-8.66.25 2.8-97.51 8.66z" data-name="矩形 24539"/></g><g data-name="组 89571"><path fill="#ededed" d="M94.58 122.95l97.52-8.67.25 2.8-97.52 8.66z" data-name="矩形 24540"/></g><g data-name="组 89572"><path fill="#ededed" d="M94.08 117.95l97.52-8.66.24 2.8-97.51 8.66z" data-name="矩形 24541"/></g></g><g data-name="组 89578"><g data-name="组 89574"><path fill="#ededed" d="M93.48 110.55l97.52-8.67.24 2.8-97.51 8.66z" data-name="矩形 24542"/></g><g data-name="组 89575"><path fill="#ededed" d="M92.99 105.66L190.5 97l.25 2.8-97.52 8.66z" data-name="矩形 24543"/></g><g data-name="组 89576"><path fill="#ededed" d="M92.58 100.66l97.52-8.67.25 2.8-97.52 8.65z" data-name="矩形 24544"/></g><g data-name="组 89577"><path fill="#ededed" d="M92.09 95.75l97.51-8.66.25 2.8-97.52 8.66z" data-name="矩形 24545"/></g></g><g data-name="组 89591"><g data-name="组 89579"><path fill="#ededed" d="M91.48 88.25l97.51-8.67.25 2.8-97.51 8.67z" data-name="矩形 24546"/></g><g data-name="组 89580"><path fill="#ededed" d="M90.98 83.36l97.52-8.67.25 2.8-97.52 8.66z" data-name="矩形 24547"/></g><g data-name="组 89581"><path fill="#ededed" d="M90.58 78.35l97.51-8.66.25 2.8-97.51 8.66z" data-name="矩形 24548"/></g><g data-name="组 89582"><path fill="#ededed" d="M90.16 73.4l87.35-7.76.25 2.78-87.35 7.77z" data-name="矩形 24549"/></g><g data-name="组 89583"><path fill="#ededed" d="M90.18 73.45l97.52-8.67.25 2.8-97.52 8.66z" data-name="矩形 24550"/></g><g data-name="组 89590"><g data-name="组 89584"><path fill="#ededed" d="M89.33 64.06l97.61-8.68.35 3.9-97.62 8.66z" data-name="矩形 24551"/></g><g data-name="组 89585"><path fill="#ededed" d="M88.63 56.87l97.62-8.67.34 3.87-97.61 8.68z" data-name="矩形 24552"/></g><g data-name="组 89586"><path fill="#ededed" d="M88.04 49.66L185.65 41l.35 3.88-97.62 8.68z" data-name="矩形 24553"/></g><g data-name="组 89587"><path fill="#ededed" d="M87.43 42.36l97.62-8.67.34 3.88-97.61 8.68z" data-name="矩形 24554"/></g><g data-name="组 89588"><path fill="#ededed" d="M86.73 35.16l97.62-8.67.34 3.89-97.61 8.67z" data-name="矩形 24555"/></g><g data-name="组 89589"><path fill="#ededed" d="M129.75 24.02l53.89-4.8.34 3.9-53.89 4.78z" data-name="矩形 24556"/></g></g></g></g></g><g data-name="组 89633"><g data-name="组 89594"><path fill="#c1c1c1" d="M48.57 149.26l70.18-69.97 96.38 96.66-70.17 69.97z" data-name="矩形 24557" opacity=".25"/></g><g data-name="组 89632"><g data-name="组 89595"><path fill="#fff" d="M42.68 150.5l70.17-69.97 96.38 96.66-70.17 69.97z" data-name="矩形 24558"/><path fill="#c1c1c1" d="M139 248.4l-97.7-97.9 71.5-71.3 97.7 97.9zm-95-97.9l95.1 95.3 68.9-68.7-95.2-95.3z" data-name="路径 99737"/></g><g data-name="组 89599"><g data-name="组 89598"><g data-name="组 89596"><path fill="#fff" d="M60.55 148.06l50.63-50.5 2.97 2.98-50.63 50.48z" data-name="矩形 24559"/></g><g data-name="组 89597"><path fill="#ededed" d="M63.5 151.7l-3.6-3.6L111.2 97l3.6 3.6zm-2.3-3.7l2.3 2.3 50-49.8-2.3-2.3z" data-name="路径 99738"/></g></g></g><g data-name="组 89605"><g data-name="组 89600"><path fill="#ededed" d="M72.44 153.2l49.64-49.5 1.55 1.56-49.64 49.5z" data-name="矩形 24560"/></g><g data-name="组 89601"><path fill="#ededed" d="M75.23 156.01l49.64-49.5 1.55 1.56-49.64 49.5z" data-name="矩形 24561"/></g><g data-name="组 89602"><path fill="#ededed" d="M78.02 158.84l49.64-49.5 1.55 1.56-49.64 49.5z" data-name="矩形 24562"/></g><g data-name="组 89603"><path fill="#ededed" d="M80.88 161.7l49.64-49.49 1.55 1.56-49.64 49.5z" data-name="矩形 24563"/></g><g data-name="组 89604"><path fill="#ededed" d="M66.62 159.03l3.33-3.31 3.1 3.1-3.32 3.33z" data-name="矩形 24564"/></g></g><g data-name="组 89611"><g data-name="组 89606"><path fill="#ededed" d="M85.07 165.91l49.64-49.5 1.55 1.56-49.63 49.5z" data-name="矩形 24565"/></g><g data-name="组 89607"><path fill="#ededed" d="M87.86 168.73l49.64-49.5 1.55 1.56-49.63 49.5z" data-name="矩形 24566"/></g><g data-name="组 89608"><path fill="#ededed" d="M90.65 171.54l49.64-49.5 1.55 1.56-49.63 49.5z" data-name="矩形 24567"/></g><g data-name="组 89609"><path fill="#ededed" d="M93.44 174.35l49.64-49.5 1.56 1.56L95 175.91z" data-name="矩形 24568"/></g><g data-name="组 89610"><path fill="#ededed" d="M79.18 171.69l3.33-3.32 3.1 3.1-3.32 3.33z" data-name="矩形 24569"/></g></g><g data-name="组 89617"><g data-name="组 89612"><path fill="#ededed" d="M97.63 178.56l49.64-49.5 1.56 1.55-49.64 49.5z" data-name="矩形 24570"/></g><g data-name="组 89613"><path fill="#ededed" d="M100.5 181.3l49.63-49.5 1.56 1.56-49.64 49.5z" data-name="矩形 24571"/></g><g data-name="组 89614"><path fill="#ededed" d="M103.36 184.19l49.64-49.5 1.55 1.56-49.64 49.5z" data-name="矩形 24572"/></g><g data-name="组 89615"><path fill="#ededed" d="M106.15 187l49.64-49.5 1.55 1.56-49.64 49.5z" data-name="矩形 24573"/></g><g data-name="组 89616"><path fill="#ededed" d="M91.82 184.4l3.33-3.33 3.1 3.12-3.33 3.31z" data-name="矩形 24574"/></g></g><g data-name="组 89631"><g data-name="组 89618"><path fill="#ededed" d="M110.34 191.2l49.64-49.5 1.55 1.56-49.64 49.5z" data-name="矩形 24575"/></g><g data-name="组 89619"><path fill="#ededed" d="M113.13 194l49.64-49.5 1.55 1.57-49.64 49.5z" data-name="矩形 24576"/></g><g data-name="组 89620"><path fill="#ededed" d="M115.92 196.82l49.64-49.5 1.55 1.56-49.64 49.5z" data-name="矩形 24577"/></g><g data-name="组 89621"><path fill="#ededed" d="M118.71 199.63l49.64-49.5 1.55 1.56-49.64 49.5z" data-name="矩形 24578"/></g><g data-name="组 89622"><path fill="#ededed" d="M118.71 199.63l49.64-49.5 1.55 1.56-49.64 49.5z" data-name="矩形 24579"/></g><g data-name="组 89629"><g data-name="组 89623"><path fill="#ededed" d="M117.55 210.19l55.51-55.36 2.2 2.2-55.52 55.34z" data-name="矩形 24580"/></g><g data-name="组 89624"><path fill="#ededed" d="M121.64 214.3l55.51-55.37 2.2 2.2-55.52 55.35z" data-name="矩形 24581"/></g><g data-name="组 89625"><path fill="#ededed" d="M125.73 218.4l55.51-55.36 2.2 2.2-55.52 55.35z" data-name="矩形 24582"/></g><g data-name="组 89626"><path fill="#ededed" d="M129.89 222.44l55.51-55.36 2.2 2.2-55.52 55.35z" data-name="矩形 24583"/></g><g data-name="组 89627"><path fill="#ededed" d="M133.98 226.54l55.51-55.36 2.2 2.2-55.52 55.36z" data-name="矩形 24584"/></g><g data-name="组 89628"><path fill="#ededed" d="M138.07 230.69l30.66-30.58 2.19 2.2-30.66 30.57z" data-name="矩形 24585"/></g></g><g data-name="组 89630"><path fill="#ededed" d="M104.52 197.01l3.33-3.3 3.1 3.1-3.32 3.32z" data-name="矩形 24586"/></g></g></g></g><g data-name="组 89654"><g data-name="组 89639" opacity=".25"><g data-name="组 89635"><g data-name="组 89634"><path fill="#c1c1c1" d="M62.8 259.3a13.87 13.87 0 004.4 6.7 13.85 13.85 0 012.2-6c2.5-3.8 5.5-4.2 7.3-7.7a11.25 11.25 0 001-6.8l.3.2 15.9-29.2 39.7-84.7a5.24 5.24 0 00-9.4-4.6l-42 83.5-13.1 30.6.6.3a12.82 12.82 0 00-5.2 4.1c-4.2 5.6-2 12.6-1.7 13.6z" data-name="路径 99739"/></g></g><g data-name="组 89636"><path fill="#c1c1c1" d="M81 217.2l11.3 5.5" data-name="直线 964"/></g><g data-name="组 89637"><path fill="#c1c1c1" d="M79.7 220.3l11 5.3" data-name="直线 965"/></g><g data-name="组 89638"><path fill="#c1c1c1" d="M78.4 223.3l10.7 5.2" data-name="直线 966"/></g></g><g data-name="组 89653"><g data-name="组 89649"><g data-name="组 89642"><g data-name="组 89640"><path fill="#c1c1c1" d="M60.7 254.4a13.87 13.87 0 004.4 6.7 13.85 13.85 0 012.2-6c2.5-3.8 5.5-4.2 7.3-7.7a11.25 11.25 0 001-6.8l.3.2 15.9-29.2 39.7-84.7a5.24 5.24 0 00-9.4-4.6l-42 83.5L67 236.4l.6.3a12.82 12.82 0 00-5.2 4.1c-4.1 5.6-1.9 12.7-1.7 13.6z" data-name="路径 99740"/></g><g data-name="组 89641"><path fill="#c1c1c1" d="M66.3 264.1l-2.1-1.8a16.09 16.09 0 01-4.9-7.4c-.6-2-2.4-9.2 1.8-14.9a12.08 12.08 0 014.3-3.8l13.3-30.9 42-83.6a6.87 6.87 0 016-3.6 6.58 6.58 0 013 .7 6.83 6.83 0 013.3 8.8l-39.7 84.7-16 29.4a13.5 13.5 0 01-1.2 6.5 12.67 12.67 0 01-3.9 4.3 16.55 16.55 0 00-3.5 3.5 12.47 12.47 0 00-1.9 5.4zm2.6-28.5l2.3 1.1-3.1 1.3a10.91 10.91 0 00-4.6 3.6c-3.4 4.6-1.9 10.5-1.4 12.2a14.44 14.44 0 002.1 4.1 13.27 13.27 0 011.8-3.8 14.38 14.38 0 014.2-4.3 10.9 10.9 0 003.1-3.3 10.16 10.16 0 00.8-5.9l-.3-2.8 1.5.7 15.2-28 39.6-84.6a3.7 3.7 0 00-1.8-4.8 3.17 3.17 0 00-1.6-.4 3.71 3.71 0 00-3.3 2l-42 83.5z" data-name="路径 99741"/></g></g><g data-name="组 89648"><g data-name="组 89643"><path fill="#ededed" d="M91.9 211.5l39.7-84.7a5.24 5.24 0 00-9.4-4.6l-42 83.5z" data-name="路径 99742"/><path fill="#c1c1c1" d="M92.1 212.3l-12.8-6.2 42.2-84.1a5.86 5.86 0 015.2-3.1 6.16 6.16 0 012.6.6 5.83 5.83 0 012.8 7.6zm-11.3-6.7l10.8 5.2 39.4-84.1a4.79 4.79 0 00-4.4-6.6 4.53 4.53 0 00-4.1 2.5z" data-name="路径 99743"/></g><g data-name="组 89644"><path fill="#fff" d="M80 205.8l-13.1 30.6 9.1 4.4 15.9-29.3z" data-name="路径 99744"/><path fill="#c1c1c1" d="M76.2 241.5l-10.1-4.9L79.7 205l12.9 6.3zm-8.6-5.4l8.1 3.9L91 211.8l-10.7-5.2z" data-name="路径 99745"/></g><g data-name="组 89647"><g data-name="组 89645"><path fill="#c1c1c1" d="M65.2 261.1a13.85 13.85 0 012.2-6c2.5-3.8 5.5-4.2 7.3-7.7a11.25 11.25 0 001-6.8l-8.1-3.9a12.82 12.82 0 00-5.2 4.1c-4.1 5.6-1.9 12.6-1.6 13.6a13.21 13.21 0 004.4 6.7z" data-name="路径 99746"/></g><g data-name="组 89646"><path fill="#c1c1c1" d="M65.6 262.2l-.8-.7a14.83 14.83 0 01-4.6-7c-.6-1.9-2.3-8.7 1.7-14.1a12.64 12.64 0 015.4-4.3l.2-.1 8.5 4.1.1.3a12.6 12.6 0 01-1 7.1 11.96 11.96 0 01-3.7 4 16.8 16.8 0 00-3.7 3.8 13.91 13.91 0 00-2.1 5.8zm1.9-24.9a12.55 12.55 0 00-4.7 3.8c-3.6 5-2.1 11.3-1.5 13.1a14.36 14.36 0 003.5 5.8 14.97 14.97 0 012.1-5.2 13.72 13.72 0 014-4 9.6 9.6 0 003.3-3.6 10.97 10.97 0 001-6.1z" data-name="路径 99747"/></g></g></g></g><g data-name="组 89650"><path fill="#c1c1c1" d="M77.36 212.03l.35-.72 11.25 5.47-.35.72z" data-name="矩形 24587"/></g><g data-name="组 89651"><path fill="#c1c1c1" d="M76.07 215.1l.35-.72 10.98 5.33-.35.72z" data-name="矩形 24588"/></g><g data-name="组 89652"><path fill="#c1c1c1" d="M74.78 218.1l.34-.72 10.71 5.2-.34.72z" data-name="矩形 24589"/></g></g></g></g></svg>