<svg xmlns="http://www.w3.org/2000/svg" width="152" height="152" viewBox="0 0 152 152">
  <g id="Group_1" data-name="Group 1" transform="translate(525 1303)">
    <g id="Rectangle_1" data-name="Rectangle 1" transform="translate(-525 -1303)" fill="#fff" stroke="#707070" stroke-width="1" opacity="0">
      <rect width="152" height="152" stroke="none"/>
      <rect x="0.5" y="0.5" width="151" height="151" fill="none"/>
    </g>
    <g id="Group" transform="translate(-522 -1250)">
      <g id="Group_4" data-name="Group 4">
        <g id="Group_3" data-name="Group 3">
          <path id="J_BZ" data-name="J BZ" d="M6.014,38.319a28.028,28.028,0,0,1-2.967-.156A25.944,25.944,0,0,1,0,37.643l.475-5.125a1.542,1.542,0,0,1,.54-1.093,2.042,2.042,0,0,1,1.359-.416,5.421,5.421,0,0,1,1.108.143,7.6,7.6,0,0,0,1.582.143,6.608,6.608,0,0,0,2.255-.351,3.507,3.507,0,0,0,1.6-1.171,5.618,5.618,0,0,0,.949-2.146,14.419,14.419,0,0,0,.317-3.278V0H19.1V24.168a19.58,19.58,0,0,1-.8,5.775A12.2,12.2,0,0,1,15.866,34.4a10.959,10.959,0,0,1-4.075,2.888A14.957,14.957,0,0,1,6.014,38.319Zm140.9-.416H117.271V34.521a3.492,3.492,0,0,1,.211-1.184,4.2,4.2,0,0,1,.58-1.08l18.1-25.494h-17.41V0H147.5V3.173a4.069,4.069,0,0,1-.224,1.328,5.047,5.047,0,0,1-.62,1.222L128.614,31.14h18.305V37.9Zm-49.9,0H81.671V0H95.809a27.394,27.394,0,0,1,6.78.728,13.061,13.061,0,0,1,4.563,2.056,7.843,7.843,0,0,1,2.572,3.226,10.836,10.836,0,0,1,.8,4.241,8.232,8.232,0,0,1-.369,2.458A7.227,7.227,0,0,1,109,14.933a8.687,8.687,0,0,1-2.031,1.886,13.227,13.227,0,0,1-2.981,1.47,10.684,10.684,0,0,1,5.619,2.953,7.617,7.617,0,0,1,1.82,5.242,10.769,10.769,0,0,1-.949,4.5,10.367,10.367,0,0,1-2.783,3.629,13.317,13.317,0,0,1-4.524,2.42A20.032,20.032,0,0,1,97.023,37.9ZM90.586,21.826V31.27h6.278a8.017,8.017,0,0,0,2.888-.442,4.6,4.6,0,0,0,1.754-1.145,3.84,3.84,0,0,0,.87-1.587,6.932,6.932,0,0,0,.238-1.8,5.948,5.948,0,0,0-.277-1.873,3.109,3.109,0,0,0-.949-1.4,4.7,4.7,0,0,0-1.78-.885,10.577,10.577,0,0,0-2.8-.312Zm0-15.244v9.365h4.643a15.591,15.591,0,0,0,2.664-.208,5.626,5.626,0,0,0,2.018-.729,3.378,3.378,0,0,0,1.266-1.43,5.336,5.336,0,0,0,.435-2.29,6.382,6.382,0,0,0-.343-2.25A3.246,3.246,0,0,0,100.214,7.6a4.5,4.5,0,0,0-1.807-.78,12.661,12.661,0,0,0-2.6-.234Z" fill="#538227"/>
          <path id="J_BZ-2" data-name="J BZ" d="M6.014,38.319a28.028,28.028,0,0,1-2.967-.156A25.944,25.944,0,0,1,0,37.643l.475-5.125a1.542,1.542,0,0,1,.54-1.093,2.042,2.042,0,0,1,1.359-.416,5.421,5.421,0,0,1,1.108.143,7.6,7.6,0,0,0,1.582.143,6.608,6.608,0,0,0,2.255-.351,3.507,3.507,0,0,0,1.6-1.171,5.618,5.618,0,0,0,.949-2.146,14.419,14.419,0,0,0,.317-3.278V0H19.1V24.168a19.58,19.58,0,0,1-.8,5.775A12.2,12.2,0,0,1,15.866,34.4a10.959,10.959,0,0,1-4.075,2.888A14.957,14.957,0,0,1,6.014,38.319Zm140.9-.416H117.271V34.521a3.492,3.492,0,0,1,.211-1.184,4.2,4.2,0,0,1,.58-1.08l18.1-25.494h-17.41V0H147.5V3.173a4.069,4.069,0,0,1-.224,1.328,5.047,5.047,0,0,1-.62,1.222L128.614,31.14h18.305V37.9Zm-49.9,0H81.671V0H95.809a27.394,27.394,0,0,1,6.78.728,13.061,13.061,0,0,1,4.563,2.056,7.843,7.843,0,0,1,2.572,3.226,10.836,10.836,0,0,1,.8,4.241,8.232,8.232,0,0,1-.369,2.458A7.227,7.227,0,0,1,109,14.933a8.687,8.687,0,0,1-2.031,1.886,13.227,13.227,0,0,1-2.981,1.47,10.684,10.684,0,0,1,5.619,2.953,7.617,7.617,0,0,1,1.82,5.242,10.769,10.769,0,0,1-.949,4.5,10.367,10.367,0,0,1-2.783,3.629,13.317,13.317,0,0,1-4.524,2.42A20.032,20.032,0,0,1,97.023,37.9ZM90.586,21.826V31.27h6.278a8.017,8.017,0,0,0,2.888-.442,4.6,4.6,0,0,0,1.754-1.145,3.84,3.84,0,0,0,.87-1.587,6.932,6.932,0,0,0,.238-1.8,5.948,5.948,0,0,0-.277-1.873,3.109,3.109,0,0,0-.949-1.4,4.7,4.7,0,0,0-1.78-.885,10.577,10.577,0,0,0-2.8-.312Zm0-15.244v9.365h4.643a15.591,15.591,0,0,0,2.664-.208,5.626,5.626,0,0,0,2.018-.729,3.378,3.378,0,0,0,1.266-1.43,5.336,5.336,0,0,0,.435-2.29,6.382,6.382,0,0,0-.343-2.25A3.246,3.246,0,0,0,100.214,7.6a4.5,4.5,0,0,0-1.807-.78,12.661,12.661,0,0,0-2.6-.234Z" transform="translate(0 1.293)" fill="#7cc13c"/>
          <ellipse id="Oval" cx="15.728" cy="15.512" rx="15.728" ry="15.512" transform="translate(33.983 3.648)" fill="rgba(216,216,216,0)" stroke="#000" stroke-miterlimit="10" stroke-width="8"/>
          <ellipse id="Oval-2" data-name="Oval" cx="5.898" cy="5.817" rx="5.898" ry="5.817" transform="translate(43.486 13.343)" fill="#242424"/>
        </g>
      </g>
      <g id="Group_3-2" data-name="Group 3">
        <path id="J_BZ-3" data-name="J BZ" d="M6.014,38.319a28.028,28.028,0,0,1-2.967-.156A25.944,25.944,0,0,1,0,37.643l.475-5.125a1.542,1.542,0,0,1,.54-1.093,2.042,2.042,0,0,1,1.359-.416,5.421,5.421,0,0,1,1.108.143,7.6,7.6,0,0,0,1.582.143,6.608,6.608,0,0,0,2.255-.351,3.507,3.507,0,0,0,1.6-1.171,5.618,5.618,0,0,0,.949-2.146,14.419,14.419,0,0,0,.317-3.278V0H19.1V24.168a19.58,19.58,0,0,1-.8,5.775A12.2,12.2,0,0,1,15.866,34.4a10.959,10.959,0,0,1-4.075,2.888A14.957,14.957,0,0,1,6.014,38.319Zm140.9-.416H117.271V34.521a3.492,3.492,0,0,1,.211-1.184,4.2,4.2,0,0,1,.58-1.08l18.1-25.494h-17.41V0H147.5V3.173a4.069,4.069,0,0,1-.224,1.328,5.047,5.047,0,0,1-.62,1.222L128.614,31.14h18.305V37.9Zm-49.9,0H81.671V0H95.809a27.394,27.394,0,0,1,6.78.728,13.061,13.061,0,0,1,4.563,2.056,7.843,7.843,0,0,1,2.572,3.226,10.836,10.836,0,0,1,.8,4.241,8.232,8.232,0,0,1-.369,2.458A7.227,7.227,0,0,1,109,14.933a8.687,8.687,0,0,1-2.031,1.886,13.227,13.227,0,0,1-2.981,1.47,10.684,10.684,0,0,1,5.619,2.953,7.617,7.617,0,0,1,1.82,5.242,10.769,10.769,0,0,1-.949,4.5,10.367,10.367,0,0,1-2.783,3.629,13.317,13.317,0,0,1-4.524,2.42A20.032,20.032,0,0,1,97.023,37.9ZM90.586,21.826V31.27h6.278a8.017,8.017,0,0,0,2.888-.442,4.6,4.6,0,0,0,1.754-1.145,3.84,3.84,0,0,0,.87-1.587,6.932,6.932,0,0,0,.238-1.8,5.948,5.948,0,0,0-.277-1.873,3.109,3.109,0,0,0-.949-1.4,4.7,4.7,0,0,0-1.78-.885,10.577,10.577,0,0,0-2.8-.312Zm0-15.244v9.365h4.643a15.591,15.591,0,0,0,2.664-.208,5.626,5.626,0,0,0,2.018-.729,3.378,3.378,0,0,0,1.266-1.43,5.336,5.336,0,0,0,.435-2.29,6.382,6.382,0,0,0-.343-2.25A3.246,3.246,0,0,0,100.214,7.6a4.5,4.5,0,0,0-1.807-.78,12.661,12.661,0,0,0-2.6-.234Z" fill="#538227"/>
        <path id="J_BZ-4" data-name="J BZ" d="M6.014,38.319a28.028,28.028,0,0,1-2.967-.156A25.944,25.944,0,0,1,0,37.643l.475-5.125a1.542,1.542,0,0,1,.54-1.093,2.042,2.042,0,0,1,1.359-.416,5.421,5.421,0,0,1,1.108.143,7.6,7.6,0,0,0,1.582.143,6.608,6.608,0,0,0,2.255-.351,3.507,3.507,0,0,0,1.6-1.171,5.618,5.618,0,0,0,.949-2.146,14.419,14.419,0,0,0,.317-3.278V0H19.1V24.168a19.58,19.58,0,0,1-.8,5.775A12.2,12.2,0,0,1,15.866,34.4a10.959,10.959,0,0,1-4.075,2.888A14.957,14.957,0,0,1,6.014,38.319Zm140.9-.416H117.271V34.521a3.492,3.492,0,0,1,.211-1.184,4.2,4.2,0,0,1,.58-1.08l18.1-25.494h-17.41V0H147.5V3.173a4.069,4.069,0,0,1-.224,1.328,5.047,5.047,0,0,1-.62,1.222L128.614,31.14h18.305V37.9Zm-49.9,0H81.671V0H95.809a27.394,27.394,0,0,1,6.78.728,13.061,13.061,0,0,1,4.563,2.056,7.843,7.843,0,0,1,2.572,3.226,10.836,10.836,0,0,1,.8,4.241,8.232,8.232,0,0,1-.369,2.458A7.227,7.227,0,0,1,109,14.933a8.687,8.687,0,0,1-2.031,1.886,13.227,13.227,0,0,1-2.981,1.47,10.684,10.684,0,0,1,5.619,2.953,7.617,7.617,0,0,1,1.82,5.242,10.769,10.769,0,0,1-.949,4.5,10.367,10.367,0,0,1-2.783,3.629,13.317,13.317,0,0,1-4.524,2.42A20.032,20.032,0,0,1,97.023,37.9ZM90.586,21.826V31.27h6.278a8.017,8.017,0,0,0,2.888-.442,4.6,4.6,0,0,0,1.754-1.145,3.84,3.84,0,0,0,.87-1.587,6.932,6.932,0,0,0,.238-1.8,5.948,5.948,0,0,0-.277-1.873,3.109,3.109,0,0,0-.949-1.4,4.7,4.7,0,0,0-1.78-.885,10.577,10.577,0,0,0-2.8-.312Zm0-15.244v9.365h4.643a15.591,15.591,0,0,0,2.664-.208,5.626,5.626,0,0,0,2.018-.729,3.378,3.378,0,0,0,1.266-1.43,5.336,5.336,0,0,0,.435-2.29,6.382,6.382,0,0,0-.343-2.25A3.246,3.246,0,0,0,100.214,7.6a4.5,4.5,0,0,0-1.807-.78,12.661,12.661,0,0,0-2.6-.234Z" transform="translate(0 1.293)" fill="#7cc13c"/>
        <ellipse id="Oval-3" data-name="Oval" cx="15.728" cy="15.512" rx="15.728" ry="15.512" transform="translate(33.983 3.648)" fill="rgba(216,216,216,0)" stroke="#000" stroke-miterlimit="10" stroke-width="8"/>
        <ellipse id="Oval-4" data-name="Oval" cx="5.898" cy="5.817" rx="5.898" ry="5.817" transform="translate(43.486 13.343)" fill="#242424"/>
      </g>
      <path id="J_BZ-5" data-name="J BZ" d="M6.014,38.319a28.028,28.028,0,0,1-2.967-.156A25.944,25.944,0,0,1,0,37.643l.475-5.125a1.542,1.542,0,0,1,.54-1.093,2.042,2.042,0,0,1,1.359-.416,5.421,5.421,0,0,1,1.108.143,7.6,7.6,0,0,0,1.582.143,6.608,6.608,0,0,0,2.255-.351,3.507,3.507,0,0,0,1.6-1.171,5.618,5.618,0,0,0,.949-2.146,14.419,14.419,0,0,0,.317-3.278V0H19.1V24.168a19.58,19.58,0,0,1-.8,5.775A12.2,12.2,0,0,1,15.866,34.4a10.959,10.959,0,0,1-4.075,2.888A14.957,14.957,0,0,1,6.014,38.319Zm140.9-.416H117.271V34.521a3.492,3.492,0,0,1,.211-1.184,4.2,4.2,0,0,1,.58-1.08l18.1-25.494h-17.41V0H147.5V3.173a4.069,4.069,0,0,1-.224,1.328,5.047,5.047,0,0,1-.62,1.222L128.614,31.14h18.305V37.9Zm-49.9,0H81.671V0H95.809a27.394,27.394,0,0,1,6.78.728,13.061,13.061,0,0,1,4.563,2.056,7.843,7.843,0,0,1,2.572,3.226,10.836,10.836,0,0,1,.8,4.241,8.232,8.232,0,0,1-.369,2.458A7.227,7.227,0,0,1,109,14.933a8.687,8.687,0,0,1-2.031,1.886,13.227,13.227,0,0,1-2.981,1.47,10.684,10.684,0,0,1,5.619,2.953,7.617,7.617,0,0,1,1.82,5.242,10.769,10.769,0,0,1-.949,4.5,10.367,10.367,0,0,1-2.783,3.629,13.317,13.317,0,0,1-4.524,2.42A20.032,20.032,0,0,1,97.023,37.9ZM90.586,21.826V31.27h6.278a8.017,8.017,0,0,0,2.888-.442,4.6,4.6,0,0,0,1.754-1.145,3.84,3.84,0,0,0,.87-1.587,6.932,6.932,0,0,0,.238-1.8,5.948,5.948,0,0,0-.277-1.873,3.109,3.109,0,0,0-.949-1.4,4.7,4.7,0,0,0-1.78-.885,10.577,10.577,0,0,0-2.8-.312Zm0-15.244v9.365h4.643a15.591,15.591,0,0,0,2.664-.208,5.626,5.626,0,0,0,2.018-.729,3.378,3.378,0,0,0,1.266-1.43,5.336,5.336,0,0,0,.435-2.29,6.382,6.382,0,0,0-.343-2.25A3.246,3.246,0,0,0,100.214,7.6a4.5,4.5,0,0,0-1.807-.78,12.661,12.661,0,0,0-2.6-.234Z" fill="#538227"/>
      <path id="Path" d="M19.1,24.168a19.492,19.492,0,0,1-.8,5.775A12.151,12.151,0,0,1,15.866,34.4a10.9,10.9,0,0,1-4.075,2.888A14.883,14.883,0,0,1,6.014,38.32a27.972,27.972,0,0,1-2.967-.156A25.8,25.8,0,0,1,0,37.643l.475-5.125a1.533,1.533,0,0,1,.541-1.093,2.029,2.029,0,0,1,1.358-.416,5.389,5.389,0,0,1,1.108.143,7.569,7.569,0,0,0,1.583.143,6.576,6.576,0,0,0,2.255-.351,3.492,3.492,0,0,0,1.6-1.171,5.6,5.6,0,0,0,.95-2.146,14.388,14.388,0,0,0,.317-3.278V0H19.1Z" fill="#7cc13c"/>
      <path id="Path-2" data-name="Path" d="M0,0V9.443H6.278A7.972,7.972,0,0,0,9.166,9,4.57,4.57,0,0,0,10.92,7.856a3.824,3.824,0,0,0,.87-1.587,6.9,6.9,0,0,0,.237-1.8A5.915,5.915,0,0,0,11.751,2.6a3.1,3.1,0,0,0-.95-1.4A4.664,4.664,0,0,0,9.021.312,10.513,10.513,0,0,0,6.225,0Z" transform="translate(91 22)" fill="#d8d8d8" stroke="#979797" stroke-miterlimit="10" stroke-width="1"/>
      <path id="Path-3" data-name="Path" d="M0,9.365H4.642a15.506,15.506,0,0,0,2.664-.208,5.588,5.588,0,0,0,2.018-.728A3.358,3.358,0,0,0,10.591,7a5.3,5.3,0,0,0,.435-2.289,6.359,6.359,0,0,0-.343-2.25A3.226,3.226,0,0,0,9.628,1.015,4.46,4.46,0,0,0,7.821.234,12.573,12.573,0,0,0,5.223,0H0Z" transform="translate(91 7)" fill="#d8d8d8" stroke="#979797" stroke-miterlimit="10" stroke-width="1"/>
      <path id="J_BZ-6" data-name="J BZ" d="M6.014,38.319a28.028,28.028,0,0,1-2.967-.156A25.944,25.944,0,0,1,0,37.643l.475-5.125a1.542,1.542,0,0,1,.54-1.093,2.042,2.042,0,0,1,1.359-.416,5.421,5.421,0,0,1,1.108.143,7.6,7.6,0,0,0,1.582.143,6.608,6.608,0,0,0,2.255-.351,3.507,3.507,0,0,0,1.6-1.171,5.618,5.618,0,0,0,.949-2.146,14.419,14.419,0,0,0,.317-3.278V0H19.1V24.168a19.58,19.58,0,0,1-.8,5.775A12.2,12.2,0,0,1,15.866,34.4a10.959,10.959,0,0,1-4.075,2.888A14.957,14.957,0,0,1,6.014,38.319Zm140.9-.416H117.271V34.521a3.492,3.492,0,0,1,.211-1.184,4.2,4.2,0,0,1,.58-1.08l18.1-25.494h-17.41V0H147.5V3.173a4.069,4.069,0,0,1-.224,1.328,5.047,5.047,0,0,1-.62,1.222L128.614,31.14h18.305V37.9Zm-49.9,0H81.671V0H95.809a27.394,27.394,0,0,1,6.78.728,13.061,13.061,0,0,1,4.563,2.056,7.843,7.843,0,0,1,2.572,3.226,10.836,10.836,0,0,1,.8,4.241,8.232,8.232,0,0,1-.369,2.458A7.227,7.227,0,0,1,109,14.933a8.687,8.687,0,0,1-2.031,1.886,13.227,13.227,0,0,1-2.981,1.47,10.684,10.684,0,0,1,5.619,2.953,7.617,7.617,0,0,1,1.82,5.242,10.769,10.769,0,0,1-.949,4.5,10.367,10.367,0,0,1-2.783,3.629,13.317,13.317,0,0,1-4.524,2.42A20.032,20.032,0,0,1,97.023,37.9ZM90.586,21.826V31.27h6.278a8.017,8.017,0,0,0,2.888-.442,4.6,4.6,0,0,0,1.754-1.145,3.84,3.84,0,0,0,.87-1.587,6.932,6.932,0,0,0,.238-1.8,5.948,5.948,0,0,0-.277-1.873,3.109,3.109,0,0,0-.949-1.4,4.7,4.7,0,0,0-1.78-.885,10.577,10.577,0,0,0-2.8-.312Zm0-15.244v9.365h4.643a15.591,15.591,0,0,0,2.664-.208,5.626,5.626,0,0,0,2.018-.729,3.378,3.378,0,0,0,1.266-1.43,5.336,5.336,0,0,0,.435-2.29,6.382,6.382,0,0,0-.343-2.25A3.246,3.246,0,0,0,100.214,7.6a4.5,4.5,0,0,0-1.807-.78,12.661,12.661,0,0,0-2.6-.234Z" transform="translate(0 2)" fill="#7cc13c"/>
      <path id="Path-4" data-name="Path" d="M19.1,24.168a19.492,19.492,0,0,1-.8,5.775A12.151,12.151,0,0,1,15.866,34.4a10.9,10.9,0,0,1-4.075,2.888A14.883,14.883,0,0,1,6.014,38.32a27.972,27.972,0,0,1-2.967-.156A25.8,25.8,0,0,1,0,37.643l.475-5.125a1.533,1.533,0,0,1,.541-1.093,2.029,2.029,0,0,1,1.358-.416,5.389,5.389,0,0,1,1.108.143,7.569,7.569,0,0,0,1.583.143,6.576,6.576,0,0,0,2.255-.351,3.492,3.492,0,0,0,1.6-1.171,5.6,5.6,0,0,0,.95-2.146,14.388,14.388,0,0,0,.317-3.278V0H19.1Z" transform="translate(0 2)" fill="#7cc13c"/>
      <path id="Path-5" data-name="Path" d="M0,37.9V0H14.138a27.24,27.24,0,0,1,6.779.728,13,13,0,0,1,4.563,2.055,7.806,7.806,0,0,1,2.572,3.226,10.769,10.769,0,0,1,.8,4.24,8.206,8.206,0,0,1-.369,2.458,7.2,7.2,0,0,1-1.161,2.224A8.618,8.618,0,0,1,25.3,16.818a13.165,13.165,0,0,1-2.981,1.47,10.627,10.627,0,0,1,5.618,2.953,7.583,7.583,0,0,1,1.82,5.242,10.712,10.712,0,0,1-.95,4.5,10.321,10.321,0,0,1-2.783,3.629A13.251,13.251,0,0,1,21.5,37.032a19.927,19.927,0,0,1-6.146.871Z" transform="translate(82 2)" fill="#7cc13c"/>
      <path id="Path-6" data-name="Path" d="M0,0V9.443H6.278A7.972,7.972,0,0,0,9.166,9,4.57,4.57,0,0,0,10.92,7.856a3.824,3.824,0,0,0,.87-1.587,6.9,6.9,0,0,0,.237-1.8A5.915,5.915,0,0,0,11.751,2.6a3.1,3.1,0,0,0-.95-1.4A4.664,4.664,0,0,0,9.021.312,10.513,10.513,0,0,0,6.225,0Z" transform="translate(91 23)" fill="#fff"/>
      <path id="Path-7" data-name="Path" d="M0,9.365H4.642a15.506,15.506,0,0,0,2.664-.208,5.588,5.588,0,0,0,2.018-.728A3.358,3.358,0,0,0,10.591,7a5.3,5.3,0,0,0,.435-2.289,6.359,6.359,0,0,0-.343-2.25A3.226,3.226,0,0,0,9.628,1.015,4.46,4.46,0,0,0,7.821.234,12.573,12.573,0,0,0,5.223,0H0Z" transform="translate(91 8)" fill="#fff"/>
      <path id="Path-8" data-name="Path" d="M30.229,0V3.174A4.044,4.044,0,0,1,30,4.5a5.016,5.016,0,0,1-.62,1.223L11.342,31.14H29.648V37.9H0V34.521a3.467,3.467,0,0,1,.211-1.184,4.138,4.138,0,0,1,.58-1.08L18.886,6.764H1.477V0Z" transform="translate(117 2)" fill="#7cc13c"/>
      <ellipse id="Oval-5" data-name="Oval" cx="15.728" cy="15.512" rx="15.728" ry="15.512" transform="translate(34 4)" fill="rgba(216,216,216,0)" stroke="#000" stroke-miterlimit="10" stroke-width="8"/>
      <ellipse id="Path-9" data-name="Path" cx="15.728" cy="15.512" rx="15.728" ry="15.512" transform="translate(34 4)" fill="#fff" stroke="#000" stroke-miterlimit="10" stroke-width="1"/>
      <ellipse id="Oval-6" data-name="Oval" cx="5.898" cy="5.817" rx="5.898" ry="5.817" transform="translate(43 14)" fill="#242424"/>
      <ellipse id="Path-10" data-name="Path" cx="5.898" cy="5.817" rx="5.898" ry="5.817" transform="translate(43 14)" fill="#7cc13c"/>
      <path id="Rectangle" d="M3.113,0A3.092,3.092,0,0,1,6.226,3.07V16.643a3.092,3.092,0,0,1-3.113,3.07A3.092,3.092,0,0,1,0,16.643V3.07A3.092,3.092,0,0,1,3.113,0Z" transform="matrix(0.839, -0.545, 0.545, 0.839, 58.269, 42.624)" fill="#7cc13c"/>
    </g>
  </g>
</svg>
