<svg xmlns="http://www.w3.org/2000/svg" xmlns:xlink="http://www.w3.org/1999/xlink" width="156.201" height="38.84" viewBox="0 0 156.201 38.84">
  <defs>
    <linearGradient id="linear-gradient" x1="-4.638" y1="33.155" x2="-4.645" y2="33.155" gradientUnits="objectBoundingBox">
      <stop offset="0" stop-color="#233138"/>
      <stop offset="1" stop-color="#293338" stop-opacity="0"/>
    </linearGradient>
    <linearGradient id="linear-gradient-2" x1="-46.438" y1="10.234" x2="-46.438" y2="10.208" gradientUnits="objectBoundingBox">
      <stop offset="0" stop-color="#d50918"/>
      <stop offset="1" stop-color="#ff4b2b"/>
    </linearGradient>
    <linearGradient id="linear-gradient-3" x1="-47.825" y1="10.234" x2="-47.825" y2="10.208" xlink:href="#linear-gradient-2"/>
    <linearGradient id="linear-gradient-4" x1="-49.188" y1="10.234" x2="-49.188" y2="10.208" xlink:href="#linear-gradient-2"/>
    <linearGradient id="linear-gradient-5" x1="-50.576" y1="10.234" x2="-50.576" y2="10.208" xlink:href="#linear-gradient-2"/>
  </defs>
  <g id="jobbank-logo-sec-2" transform="translate(-685.445 -364.556)">
    <path id="Subtraction_8" data-name="Subtraction 8" d="M841.646,402.091h-82.47v-10.6h82.471v10.6Zm-31-7a2.04,2.04,0,0,0-2.019,1.863,2.19,2.19,0,0,0,.021.485,2.509,2.509,0,0,0,.536,1.616,2.186,2.186,0,0,0,1.611.724h.016a.572.572,0,0,0,.084-.007,2.333,2.333,0,0,0,1.08-.268,1.721,1.721,0,0,0,.986-1.348l-.9-.086a1.138,1.138,0,0,1-1.136,1.084h-.01a1.057,1.057,0,0,1-.113,0c-.907,0-1.348-.559-1.348-1.709,0-1.182.444-1.709,1.44-1.709h.035a1.062,1.062,0,0,1,1.045.9l.81-.087a1.04,1.04,0,0,0-.273-.724,1.942,1.942,0,0,0-1.514-.72h-.184a1.177,1.177,0,0,0-.167-.011Zm18.141.188h0v.63h.629v2.514a2.12,2.12,0,0,0,.183.993c.08.246.384.356.985.356a1.319,1.319,0,0,0,.252-.037,1.722,1.722,0,0,1,.377-.051l-.09-.536h-.406a.544.544,0,0,1-.4-.183.661.661,0,0,1-.09-.447v-2.605h.81v-.63h-.81v-1.529l-.807.449v1.079Zm-9.8,0h0v4.491h.806v-2.328a1.974,1.974,0,0,1,.18-1.079c0-.176.166-.261.342-.352l.019-.01a1.643,1.643,0,0,1,.631-.181.473.473,0,0,1,.084-.005.726.726,0,0,1,.634.367c.088.086.088.363.088.63v2.876h.9V397.08a1.238,1.238,0,0,1,.182-.812,1.171,1.171,0,0,1,.922-.451h.07c.479,0,.721.108.811.363a1.589,1.589,0,0,1,.087.717v2.789h.9v-2.968a1.382,1.382,0,0,0-1.219-1.529h0c-.054,0-.1-.007-.154-.007a1,1,0,0,0-.154.009h-.047a1.752,1.752,0,0,0-1.483.811,1.437,1.437,0,0,0-1.3-.818.815.815,0,0,0-.139.007h-.018a1.753,1.753,0,0,0-1.418.723v-.63h-.72Zm-43.629.055h0l1.482,4.372h.9l.965-3.425v.086c.077.323.163.58.18.629l.811,2.7h.9l1.523-4.5h-.892l-.811,2.608a.568.568,0,0,1-.056.246.351.351,0,0,0-.032.116,2.439,2.439,0,0,1-.1.237l-.006.013a.645.645,0,0,0-.079.286.542.542,0,0,1-.111-.274c-.019-.088-.042-.176-.069-.263a.563.563,0,0,0-.051-.232v-.008a.307.307,0,0,1-.035-.121l-.723-2.608h-.806l-.811,2.61-.093.181a5.976,5.976,0,0,1-.18.718,4.407,4.407,0,0,1-.27-.718l-.81-2.789h-1.616l-.8,2.608a.559.559,0,0,1-.061.246l0,.016a.285.285,0,0,0-.027.1,2.472,2.472,0,0,1-.1.245l-.005.016a.685.685,0,0,0-.073.274.534.534,0,0,1-.109-.27v-.01c-.022-.1-.044-.177-.068-.257a.559.559,0,0,0-.055-.234v-.006a.331.331,0,0,1-.037-.122l-.811-2.608h-.806l-.816,2.6-.087.181a6.832,6.832,0,0,1-.18.717,3.846,3.846,0,0,1-.275-.717l-.8-2.789h-1.707l-.81,2.608a.555.555,0,0,1-.057.246.373.373,0,0,0-.031.116,1.847,1.847,0,0,1-.1.251v.008a.631.631,0,0,0-.077.276.512.512,0,0,1-.1-.262v-.011l-.015-.058c-.016-.062-.034-.13-.06-.2a.554.554,0,0,0-.054-.24.33.33,0,0,1-.033-.122l-.714-2.607h-.811l-.81,2.608-.088.181a6.832,6.832,0,0,1-.18.717,3.6,3.6,0,0,1-.27-.717l-.81-2.789h-.9l1.529,4.5h.9l.985-3.419v.094c.089.342.178.622.181.63l.811,2.7h.9l1.483-4.364,1.48,4.364h.9l.987-3.419v.095c.089.349.178.627.179.629l.811,2.7h.9l1.482-4.361Zm40.3,4.352h0a1.8,1.8,0,0,0,.18.006A2.161,2.161,0,0,0,818,397.54a1.412,1.412,0,0,0-.008-.193,2.9,2.9,0,0,0-.718-1.89,2.8,2.8,0,0,0-1.527-.449h-.1a2.379,2.379,0,0,0-1.7.72,2.549,2.549,0,0,0-.543,1.622,2.139,2.139,0,0,0,.455,1.622,2.521,2.521,0,0,0,1.753.718Zm15.641-4.5,1.529,4.5h.9l.98-3.41h0v.079c.072.277.142.509.178.622v.008l.81,2.7h.9l1.529-4.5h-.893l-.81,2.608a.556.556,0,0,1-.058.246.348.348,0,0,0-.031.116,2.427,2.427,0,0,1-.1.237l0,.014a.66.66,0,0,0-.081.286.561.561,0,0,1-.109-.274c-.018-.083-.041-.169-.07-.263a.559.559,0,0,0-.055-.234v-.006a.332.332,0,0,1-.037-.122l-.717-2.608h-.812l-.8,2.608-.094.181a5.962,5.962,0,0,1-.18.717,4.3,4.3,0,0,1-.269-.717l-.811-2.789Zm-4.4,3.6h0v.9h.986v-.9Zm-20.408,0h0v.9h.986v-.9Zm-23.558,0h0v.9h.993v-.9Zm20.232-3.954v4.853h.9v-6.2h-.541a3.991,3.991,0,0,1-1.979,1.529v.718a4.657,4.657,0,0,0,1.617-.9Zm-5.215,0v4.853h.9v-6.2h-.537a4,4,0,0,1-1.983,1.529v.718a4.69,4.69,0,0,0,1.617-.9Zm-5.215,0v4.853h.9v-6.2h-.543a3.916,3.916,0,0,1-1.973,1.529v.718a4.677,4.677,0,0,0,1.614-.9Zm-5.216,0v4.853h.9v-6.2h-.537a4.014,4.014,0,0,1-1.976,1.529v.718a4.582,4.582,0,0,0,1.611-.9Zm-29.59,7.256H747.7v-10.6h10.231v10.6Zm-11.477,0h-6.881v-10.6h6.878v10.6Zm-8.128,0H728.095v-10.6h10.226v10.6Zm-11.479,0H720.4v-10.6h6.449v10.6Zm-7.7,0H708.914v-10.6h10.229v10.6Zm-11.478,0h-6.872v-10.6h6.87v10.6Zm-8.123,0H693.2v-10.6h6.339v10.6Zm116.221-2.931h-.129a1.54,1.54,0,0,1-.869-.269,1.921,1.921,0,0,1-.543-1.441,1.6,1.6,0,0,1,.537-1.354,1.538,1.538,0,0,1,.877-.269h.092a1.34,1.34,0,0,1,.923.363,1.768,1.768,0,0,1,.449,1.26,1.93,1.93,0,0,1-.27,1.079,1.234,1.234,0,0,1-1.07.633Z" fill="url(#linear-gradient)"/>
    <path id="Subtraction_12" data-name="Subtraction 12" d="M699.542,403.4H689.313V379.859l-.182-2.489a3.327,3.327,0,0,0-3.083-2.064,3.155,3.155,0,0,0-.321.016c-.217,0-.272-.027-.281-.05a.029.029,0,0,1,.009-.027v-5.239c0-.266.7-.438.712-.44a17.439,17.439,0,0,0,7.275-5.01h6.1Z" fill="url(#linear-gradient-2)"/>
    <path id="Subtraction_11" data-name="Subtraction 11" d="M719.143,403.4H708.915V379.859l-.181-2.489a3.329,3.329,0,0,0-3.084-2.064,3.141,3.141,0,0,0-.321.016c-.217,0-.272-.027-.281-.05a.027.027,0,0,1,.009-.027v-5.239c0-.266.7-.438.712-.44a17.438,17.438,0,0,0,7.276-5.01h6.1Z" fill="url(#linear-gradient-3)"/>
    <path id="Subtraction_10" data-name="Subtraction 10" d="M738.322,403.4H728.093V379.859l-.181-2.489a3.33,3.33,0,0,0-3.085-2.064,3.149,3.149,0,0,0-.32.016c-.216,0-.272-.027-.28-.05a.025.025,0,0,1,.009-.027v-5.239c0-.266.7-.438.712-.44a17.445,17.445,0,0,0,7.275-5.01h6.1Z" fill="url(#linear-gradient-4)"/>
    <path id="Subtraction_9" data-name="Subtraction 9" d="M757.926,403.4H747.7V379.859l-.182-2.489a3.329,3.329,0,0,0-3.084-2.064,3.14,3.14,0,0,0-.321.016c-.217,0-.272-.027-.281-.05a.027.027,0,0,1,.009-.027v-5.239c0-.266.7-.438.712-.44a17.448,17.448,0,0,0,7.276-5.01h6.1Z" fill="url(#linear-gradient-5)"/>
    <g id="Group_71897" data-name="Group 71897">
      <path id="Path_99705" data-name="Path 99705" d="M775.186,377.84a7.4,7.4,0,0,1-.826,1.656l1.113.419a7.121,7.121,0,0,0,.846-1.784Zm-5.352-.018-1.131.364a10.328,10.328,0,0,1,.862,1.729l1.131-.289a10.33,10.33,0,0,0-.862-1.8Zm-3.753-1.327v4.824h12.894v-4.844c.323.146.647.309.988.473l.9-1.456a45.425,45.425,0,0,1-7.812-4.1h-1.042a46.789,46.789,0,0,1-7.813,4.118l.9,1.438C765.416,376.785,765.757,376.639,766.081,376.495Zm12.822-.057H766.188c.952-.473,1.868-.928,2.73-1.383v.637h7.2v-.673c.845.473,1.778.947,2.785,1.42Zm-1.487,3.6H773.3v-2.307h4.116Zm-5.657,0h-4.12v-2.307h4.116Zm6.555,2.022H766.763v6.168H768.4v-.6h8.281v.582h1.636Zm-9.917,4.2v-.884h8.281v.892Zm0-2.075v-.848h8.281v.855Zm6.645-9.774h-4.988c.878-.528,1.7-1.058,2.474-1.563.754.513,1.58,1.024,2.514,1.57Zm11.906-2.473v3.829h10.685v-3.822ZM796,374.473h-7.417v-1.219H796Zm-9.913,2.111v8.354h3.3a25.214,25.214,0,0,1-4.937,2.057l.988,1.292a24.245,24.245,0,0,0,5.513-2.585l-.88-.764h4.382l-.776.746a30.026,30.026,0,0,1,5.123,2.622l1.189-1.2a38.519,38.519,0,0,0-4.669-2.166h3.215v-8.356Zm10.811,6.9h-9.179v-1.023H796.9Zm-9.179-2.326v-.952H796.9v.946Zm0-2.257v-.947H796.9v.946Zm23.436-7.59v3.148h-6.375v8.791h1.706v-1.041h4.669v6.1h1.76v-6.1H817.6v1.037h1.706v-8.791h-6.39v-3.149Zm-4.669,9.21v-4.369h4.669v4.368Zm6.429,0v-4.369H817.6v4.368Zm21.247,7.058a2,2,0,0,0,1.652-.692c.4-.506.664-2.039.808-4.623L835,381.718a14.079,14.079,0,0,1-.4,3.64.811.811,0,0,1-.772.528H830.7q-.915,0-.916-.764v-9.941h-1.706v10.3a1.866,1.866,0,0,0,1.592,2.1,1.9,1.9,0,0,0,.511,0Zm-8.8-10.593a38.161,38.161,0,0,1-1.922,7.808l1.473.928a40.4,40.4,0,0,0,2.087-8.4Zm12.072-.491-1.652.564a58.712,58.712,0,0,1,2.851,7.932l1.562-.708a65.587,65.587,0,0,0-2.766-7.786Zm-6.4-5.155-1.4.892a37.234,37.234,0,0,1,3.628,4.914l1.437-.983a40.637,40.637,0,0,0-3.659-4.825Z" fill="#233138"/>
    </g>
  </g>
</svg>
