<svg xmlns="http://www.w3.org/2000/svg" xmlns:xlink="http://www.w3.org/1999/xlink" viewBox="0 0 274 52.5"><defs><linearGradient id="a" x1="1" x2="1" y1="1" gradientUnits="objectBoundingBox"><stop offset="0" stop-color="#d50918"/><stop offset="1" stop-color="#ff4b2b"/></linearGradient><linearGradient id="b" x1=".74" x2=".74" xlink:href="#a"/><linearGradient id="c" x1=".74" x2=".83" xlink:href="#a"/><linearGradient id="d" x1=".83" x2=".77" xlink:href="#a"/></defs><path fill="#3d3d3d" d="M104.15 28.9v-3.54h16.27v3.53zm16.27-10.78v3.5h-16.27v-3.5zm0-7.23v3.5h-16.27v-3.5zm-7.4-3.87c.55-1.23 1.1-2.55 1.61-3.91l-4.93-.55a38.16 38.16 0 01-.93 4.45H100v27.32h4.15v-1.7h16.27v1.66h4.35V7.02zm42.52 11.48h2.37l-.28.13c.38.34.8.72 1.2 1.13l-3.29.03zm-7.77-2.24v-1.4h3.84v1.4zm0-4.9h3.84v1.4h-3.84zm11.68 0v1.4h-3.9v-1.4zm0 4.9h-3.9v-1.4h3.9zm.9 6.28l1.02-.03c.3.4.62.78.82 1.12l2.91-1.6a26.6 26.6 0 00-3.25-3.54h1.5V9.15h-7.8V7.86h8.8V4.94h-8.8V2.87h-3.95v2.07h-8.36l.38-.98-3.87-1.23a36.05 36.05 0 01-7.78 12.75 25.5 25.5 0 012.16 4.17 31.29 31.29 0 002.33-2.71v17.35h3.87V10.96a54.91 54.91 0 002.33-4.69v1.6h8.94v1.3h-7.57v9.33h7.57v1.36c-3.39.04-6.5.07-8.94.07l.34 3.02c3.64-.07 8.47-.17 13.44-.3v1.46h-14.5v3.05h4.76l-1.74 1.09a26.25 26.25 0 014.01 4.65l3.22-2.04a26.6 26.6 0 00-3.4-3.7h7.65v3.4c0 .38-.18.51-.69.55-.48 0-2.23 0-3.8-.07a13.9 13.9 0 011.13 3.36c2.47 0 4.28 0 5.59-.5 1.33-.52 1.68-1.43 1.68-3.23v-3.5h4.35V24.1h-4.36zm15-14.1h25.53V5.11h-12a59 59 0 00-1.03-2.61l-4.28.98c.2.48.41 1.05.62 1.63h-12.6v10.84c0 4.82-.18 11.52-2.72 16.1a14.99 14.99 0 013.09 2.45c2.94-5.1 3.39-13.18 3.39-18.55zm19.36 9.1v-5.26h4.8V10h-4.8V8.85h-2.91V10h-3.67v2.28h3.67v5.26zm-3.9-4.55h-2.3v1.12a2.62 2.62 0 01-.82 1.94c-.04-.38-.04-.75-.07-1.09a3.33 3.33 0 01-.62.1c-.2-.03-.24-.2-.24-.58v-1.45h-2.23v1.43c0 1.5.28 2.31 1.85 2.31h.17a3.77 3.77 0 001.17-.14l-.03-.4a12.1 12.1 0 011.68 1.49 4.37 4.37 0 001.44-3.5zm8.46 4.18a4.49 4.49 0 001.44-.14c-.07-.54-.07-1.15-.1-1.66a5.3 5.3 0 01-1.4.13h-.75c-.38 0-.45-.17-.45-.71v-1.83h-2.24v1.83c0 1.63.3 2.38 2.06 2.38zm-5.62 14.54c-1.24 0-1.44-.1-1.44-.95v-3.7h2.2a7.11 7.11 0 01-1.1 2.07 1.12 1.12 0 01-.76.34 11.55 11.55 0 01.65 1.8c.38-.24 1.06-.44 4.21-1.05l.2.61 1.1-.4c-.13 1.08-.4 1.28-1.2 1.28zm-12.89-8.15h5.59v1.33h-5.59zm0-3.06h5.59v1.26h-5.59zm14.33 1.26h-5.28V20.5h5.28zm-5.28 3.12v-1.32h5.28v1.33zm6.61 3c.14.27.28.57.41.88l-1.47.2a7.92 7.92 0 00.96-1.6l-.93-.3h3.33v-8.73h-12.37c.3-.4.68-.85 1-1.32l-3.8-.44v-4.28h3.9V10h-3.91V8.85h-2.85v1.16h-4v2.28h4v4.75h2.4c-.17.41-.37.85-.58 1.3h-5.2v8.72h5.37c-.75 2.27-2.53 3.67-7.74 4.52a9.14 9.14 0 011.88 2.88c6.58-1.35 8.84-3.7 9.8-7.4h2.1v3.74c0 2.58.92 3.3 4.45 3.3h4.8c2.43 0 3.36-.68 3.63-3.2a9.37 9.37 0 01-2.47-.74 22.48 22.48 0 00-1.23-2.65zM179.74 13h-2.33v1.12a2.35 2.35 0 01-1.79 2.2 19.27 19.27 0 011.72 1.6 3.91 3.91 0 002.4-3.7zm36.9-6.6a33.08 33.08 0 00-6.51-3.43l-2.23 3a32.34 32.34 0 016.37 3.76zm-2.1 8.97a31.39 31.39 0 00-6.5-3.33l-2.16 3.03a31.68 31.68 0 016.4 3.67zm-4 18.62c2.02-3.3 4.21-7.17 6.03-10.7l-3.01-2.72a93.2 93.2 0 01-6.48 10.7zm26.93-1.46c-.9-2.75-3.4-6.69-5.65-9.65l-3.33 1.64a38.82 38.82 0 012.3 3.5l-8.05.81a64.1 64.1 0 004.76-8.73h9.32v-3.8h-8.25v-4.79h6.99V7.67h-7V2.61h-4.14v5.06h-6.75v3.84h6.75v4.8h-8.12v3.8h6.44a49.8 49.8 0 01-3.63 7.26c-.79 1.23-1.44 1.94-2.23 2.18a36.63 36.63 0 011.44 4.04c1.13-.58 2.88-.85 14.29-2.2a15.49 15.49 0 011.2 2.98zm13.81-9.04v4.14h-3.97V23.5zm-.34-9h-3.63v-3.46h3.63zm-3.63 3.4h7.23V7.63h-4.32a54.28 54.28 0 001.82-4.62l-4.53-.37a36.35 36.35 0 01-.96 5h-2.84v25.5h3.6v-2.1h7.57V20.1h-7.57zM274 7.87V4.2h-18.54v3.67h7.4v3.02h-6.23v18.24h3.7v-14.6h2.53v19.8h3.8v-19.8h2.71V25.5c0 .34-.1.44-.41.44-.27 0-1.13 0-1.99-.04a10.14 10.14 0 011.03 3.47c1.75 0 2.95-.03 3.9-.65 1-.6 1.24-1.6 1.24-3.15V10.89h-6.47V7.87z"/><path fill="#b1b6bc" d="M106.9 46.7h-4.45l-1 2.7H100l4.06-10.33h1.22l4.07 10.33h-1.44zm-4.03-1.12h3.61l-1.8-4.83zm13.15 3.06a2.9 2.9 0 01-2.31.9 2.5 2.5 0 01-1.93-.71 3.03 3.03 0 01-.66-2.12v-5h1.35v4.96q0 1.75 1.46 1.75a2.03 2.03 0 002.05-1.12v-5.58h1.35v7.68h-1.28zm5.86-8.78v1.86h1.47v1.01h-1.47v4.77a1.04 1.04 0 00.2.7.84.84 0 00.67.23 3.36 3.36 0 00.64-.09v1.06a4.04 4.04 0 01-1.04.14 1.7 1.7 0 01-1.36-.53 2.24 2.24 0 01-.46-1.51v-4.77h-1.44v-1.01h1.44v-1.86zm3.2 5.63a4.43 4.43 0 01.45-2.03 3.34 3.34 0 011.27-1.4 3.53 3.53 0 011.86-.48 3.38 3.38 0 012.6 1.08 4.1 4.1 0 011 2.9v.1a4.47 4.47 0 01-.43 2 3.3 3.3 0 01-1.26 1.38 3.57 3.57 0 01-1.9.5 3.37 3.37 0 01-2.6-1.08 4.08 4.08 0 01-1-2.88zm1.35.15a3.22 3.22 0 00.61 2.05 1.97 1.97 0 001.63.78 1.96 1.96 0 001.64-.79 3.52 3.52 0 00.6-2.2 3.21 3.21 0 00-.62-2.04 1.98 1.98 0 00-1.63-.8 1.96 1.96 0 00-1.62.78 3.5 3.5 0 00-.6 2.23zm14.87 0a4.47 4.47 0 01-.83 2.83 2.69 2.69 0 01-2.23 1.07 2.79 2.79 0 01-2.31-1.03l-.07.89h-1.24V38.5h1.35v4.06a2.77 2.77 0 012.25-.98 2.7 2.7 0 012.26 1.06 4.6 4.6 0 01.83 2.9zm-1.35-.15a3.47 3.47 0 00-.53-2.07 1.78 1.78 0 00-1.52-.73 1.99 1.99 0 00-1.92 1.2v3.33a2.04 2.04 0 001.93 1.2 1.77 1.77 0 001.5-.73 3.7 3.7 0 00.55-2.2zm5.18 3.9h-1.35v-7.67h1.35zm-1.46-9.7a.77.77 0 01.2-.55.77.77 0 01.6-.22.78.78 0 01.6.22.76.76 0 01.2.54.74.74 0 01-.2.53.8.8 0 01-.6.22.78.78 0 01-.6-.22.75.75 0 01-.2-.53zm3.92 5.8a4.43 4.43 0 01.45-2.04 3.34 3.34 0 011.27-1.4 3.53 3.53 0 011.86-.48 3.38 3.38 0 012.6 1.08 4.1 4.1 0 011 2.9v.1a4.47 4.47 0 01-.43 2 3.3 3.3 0 01-1.26 1.39 3.57 3.57 0 01-1.9.5 3.37 3.37 0 01-2.6-1.09 4.08 4.08 0 01-1-2.87zm1.35.15a3.22 3.22 0 00.61 2.05 1.97 1.97 0 001.63.77 1.96 1.96 0 001.64-.78 3.52 3.52 0 00.6-2.2 3.21 3.21 0 00-.61-2.05 1.98 1.98 0 00-1.64-.78 1.96 1.96 0 00-1.61.77 3.5 3.5 0 00-.61 2.23zm7.87-.15a4.42 4.42 0 01.85-2.86 2.76 2.76 0 012.27-1.05 2.75 2.75 0 012.25 1l.07-.86h1.23v7.5a3.08 3.08 0 01-.9 2.34 3.4 3.4 0 01-2.45.86 4.16 4.16 0 01-1.67-.35 2.86 2.86 0 01-1.25-.98l.7-.78a2.67 2.67 0 002.13 1.04 2.1 2.1 0 001.53-.54 2.03 2.03 0 00.55-1.52v-.66a2.81 2.81 0 01-2.2.91 2.72 2.72 0 01-2.25-1.1 4.65 4.65 0 01-.86-2.95zm1.35.15a3.37 3.37 0 00.55 2.04 1.8 1.8 0 001.53.74 1.98 1.98 0 001.88-1.13v-3.5a2 2 0 00-1.86-1.1 1.81 1.81 0 00-1.54.75 3.67 3.67 0 00-.55 2.2zM170 42.9a4.16 4.16 0 00-.67-.05 1.78 1.78 0 00-1.8 1.1v5.45h-1.35v-7.68h1.3l.03.89a2.12 2.12 0 011.89-1.03 1.41 1.41 0 01.6.1zm6.48 6.5a2.7 2.7 0 01-.2-.81 3.05 3.05 0 01-2.24.95 2.84 2.84 0 01-1.92-.64 2.05 2.05 0 01-.74-1.63 2.15 2.15 0 01.93-1.86 4.52 4.52 0 012.64-.66h1.32v-.6a1.45 1.45 0 00-.43-1.1 1.73 1.73 0 00-1.24-.41 2 2 0 00-1.22.35 1.04 1.04 0 00-.48.86h-1.37a1.78 1.78 0 01.42-1.11 2.86 2.86 0 011.15-.85 3.92 3.92 0 011.58-.31 3.18 3.18 0 012.13.66 2.36 2.36 0 01.8 1.83v3.53a4.21 4.21 0 00.29 1.68v.12zm-2.24-1a2.42 2.42 0 001.2-.32 1.96 1.96 0 00.82-.83v-1.58h-1.06q-2.48 0-2.48 1.41a1.18 1.18 0 00.43.97 1.66 1.66 0 001.08.35zm12.82-2.75a4.5 4.5 0 01-.83 2.82 2.67 2.67 0 01-2.23 1.07 2.94 2.94 0 01-2.26-.9v3.7h-1.35V41.73h1.23l.07.85a2.82 2.82 0 012.29-1 2.72 2.72 0 012.25 1.05 4.55 4.55 0 01.83 2.9zm-1.35-.15a3.32 3.32 0 00-.57-2.05 1.85 1.85 0 00-1.56-.75 2 2 0 00-1.84 1.05v3.67a2 2 0 001.85 1.05 1.84 1.84 0 001.55-.75 3.63 3.63 0 00.57-2.23zm5.07-2.85a2.9 2.9 0 012.34-1.07q2.5 0 2.52 2.74v5.08h-1.34v-5.08a1.74 1.74 0 00-.4-1.23 1.6 1.6 0 00-1.19-.4 1.99 1.99 0 00-1.15.34 2.33 2.33 0 00-.77.9v5.47h-1.35V38.5h1.35zm10.13 4.82l1.83-5.75h1.45l-3.17 8.86a2.5 2.5 0 01-2.35 1.92l-.25-.02-.5-.1v-1.06l.36.03a1.84 1.84 0 001.07-.27 1.95 1.95 0 00.63-.99l.3-.78-2.82-7.59h1.47zm11.52-8.4l3.48 8.43 3.47-8.43h1.81V49.4h-1.4v-4.03l.14-4.34-3.5 8.37h-1.07l-3.48-8.35.14 4.32v4.03h-1.4V39.07zM229 49.4a2.7 2.7 0 01-.19-.81 3.05 3.05 0 01-2.24.95 2.84 2.84 0 01-1.92-.64 2.05 2.05 0 01-.74-1.63 2.15 2.15 0 01.93-1.86 4.52 4.52 0 012.64-.67h1.32v-.6a1.45 1.45 0 00-.43-1.1 1.73 1.73 0 00-1.25-.4 2 2 0 00-1.2.35 1.04 1.04 0 00-.5.86h-1.35a1.78 1.78 0 01.42-1.11 2.86 2.86 0 011.13-.85 3.92 3.92 0 011.58-.31 3.18 3.18 0 012.14.66 2.36 2.36 0 01.8 1.83v3.53a4.21 4.21 0 00.28 1.68v.12zm-2.24-1a2.42 2.42 0 001.2-.32 1.96 1.96 0 00.83-.83v-1.58h-1.06q-2.48 0-2.48 1.41a1.18 1.18 0 00.42.97 1.66 1.66 0 001.1.35zm5.84-2.9a4.42 4.42 0 01.85-2.86 2.76 2.76 0 012.26-1.06 2.75 2.75 0 012.26 1l.06-.86h1.24v7.5a3.08 3.08 0 01-.91 2.34 3.4 3.4 0 01-2.44.86 4.16 4.16 0 01-1.67-.35 2.86 2.86 0 01-1.25-.98l.7-.78a2.67 2.67 0 002.12 1.04 2.1 2.1 0 001.54-.54 2.03 2.03 0 00.54-1.52v-.66a2.81 2.81 0 01-2.2.91 2.72 2.72 0 01-2.25-1.09 4.65 4.65 0 01-.86-2.96zm1.35.15a3.37 3.37 0 00.55 2.04 1.8 1.8 0 001.53.74 1.98 1.98 0 001.87-1.13v-3.5a2 2 0 00-1.86-1.1 1.81 1.81 0 00-1.54.74 3.67 3.67 0 00-.55 2.2zm9.48 3.75h-1.35v-7.68h1.35zm-1.46-9.71a.77.77 0 01.2-.54.77.77 0 01.6-.22.78.78 0 01.6.22.76.76 0 01.2.54.74.74 0 01-.2.53.8.8 0 01-.6.21.78.78 0 01-.6-.21.75.75 0 01-.2-.54zm7.44 8.78a1.98 1.98 0 001.27-.42 1.49 1.49 0 00.6-1.07h1.27a2.34 2.34 0 01-.46 1.26 3.06 3.06 0 01-1.15.95 3.4 3.4 0 01-1.53.35 3.3 3.3 0 01-2.56-1.04 4.1 4.1 0 01-.95-2.87v-.22a4.51 4.51 0 01.42-1.99 3.16 3.16 0 011.21-1.36 3.53 3.53 0 011.87-.48 3.22 3.22 0 012.21.77 2.73 2.73 0 01.94 2.01h-1.28a1.79 1.79 0 00-.58-1.22 1.83 1.83 0 00-1.28-.48 1.91 1.91 0 00-1.6.72 3.31 3.31 0 00-.57 2.08v.25a3.25 3.25 0 00.56 2.04 1.92 1.92 0 001.61.72zm6.78.93h-1.35v-7.68h1.35zm-1.46-9.71a.77.77 0 01.2-.54.77.77 0 01.6-.22.78.78 0 01.6.22.76.76 0 01.2.54.74.74 0 01-.2.53.8.8 0 01-.6.21.78.78 0 01-.6-.21.75.75 0 01-.2-.54zm9.16 9.71a2.7 2.7 0 01-.2-.8 3.05 3.05 0 01-2.24.94 2.84 2.84 0 01-1.92-.64 2.05 2.05 0 01-.75-1.63 2.15 2.15 0 01.94-1.86 4.52 4.52 0 012.64-.66h1.31v-.6a1.45 1.45 0 00-.42-1.1 1.73 1.73 0 00-1.25-.4 2 2 0 00-1.2.35 1.04 1.04 0 00-.5.85h-1.35a1.78 1.78 0 01.42-1.1 2.86 2.86 0 011.13-.85 3.92 3.92 0 011.58-.32 3.18 3.18 0 012.14.67 2.36 2.36 0 01.8 1.82v3.54a4.21 4.21 0 00.29 1.67v.12zm-2.24-1a2.42 2.42 0 001.2-.32 1.96 1.96 0 00.82-.83v-1.58h-1.06q-2.48 0-2.48 1.41a1.18 1.18 0 00.42.97 1.66 1.66 0 001.1.35zm7.43-6.68l.04.97a2.9 2.9 0 012.36-1.11q2.5 0 2.53 2.74v5.08h-1.35v-5.08a1.74 1.74 0 00-.39-1.23 1.6 1.6 0 00-1.2-.4 1.99 1.99 0 00-1.15.34 2.33 2.33 0 00-.77.9v5.47h-1.35v-7.68z"/><g><path fill="#fff" d="M4.68 52V20.23c0-1.76-.54-2.2-.88-2.53a2.7 2.7 0 00-1.44-.44h-.24L0 17.6V7.49l1.33-.45A21.44 21.44 0 0010.12.88a.36.36 0 00.1-.22l.55-.66h10.34v52z"/><path fill="url(#a)" d="M2.12 7.5s-.89.2-.89.54v6.49s-.1.1.34.1a4.14 4.14 0 014.22 2.53L6 20.24v29.14h12.66V1.29h-7.55a21.54 21.54 0 01-9 6.2z" transform="translate(.6 .65)"/><path fill="#fff" d="M28.95 52V20.23c0-1.76-.54-2.2-.88-2.53a2.7 2.7 0 00-1.44-.44h-.24l-2.12.33V7.49l1.33-.45A21.44 21.44 0 0034.4.88a.36.36 0 00.1-.22l.55-.66H45.4v52z"/><path fill="url(#b)" d="M17.12 7.5s-.89.2-.89.54v6.49s-.1.1.34.1a4.14 4.14 0 014.22 2.53l.22 3.08v29.14h12.66V1.29h-7.55a21.54 21.54 0 01-9 6.2z" transform="translate(9.88 .65)"/><path fill="#fff" d="M52.7 52V20.23c0-1.76-.55-2.2-.89-2.53a2.7 2.7 0 00-1.44-.44h-.24l-2.11.33V7.49l1.33-.45A21.44 21.44 0 0058.13.88a.36.36 0 00.11-.22L58.8 0h10.34v52z"/><path fill="url(#c)" d="M32.12 7.5s-.89.2-.89.54v6.49s-.1.1.34.1a4.14 4.14 0 014.22 2.53l.22 3.08v29.14h12.66V1.29h-7.55a21.54 21.54 0 01-9 6.2z" transform="translate(18.62 .65)"/><g><path fill="#fff" d="M76.97 52V20.23c0-1.76-.55-2.2-.88-2.53a2.7 2.7 0 00-1.45-.44h-.23l-2.12.33V7.49l1.33-.45A21.44 21.44 0 0082.4.88a.36.36 0 00.11-.22l.55-.66H93.4v52z"/><path fill="url(#d)" d="M47.12 7.5s-.89.2-.89.54v6.49s-.1.1.34.1a4.14 4.14 0 014.22 2.53l.22 3.08v29.14h12.66V1.29h-7.55a21.54 21.54 0 01-9 6.2z" transform="translate(27.9 .65)"/></g></g></svg>