<svg xmlns="http://www.w3.org/2000/svg" width="423.5" height="348.392" viewBox="0 0 423.5 348.392">
  <g id="Build" transform="translate(-667.4 -1925.708)">
    <g id="Group_1668" data-name="Group 1668">
      <g id="Group_1667" data-name="Group 1667">
        <path id="Path_723" data-name="Path 723" d="M1090.3,2274.1H668a.6.6,0,0,1,0-1.2h422.3a.6.6,0,0,1,0,1.2Z" fill="#010101"/>
      </g>
    </g>
    <g id="Group_2024" data-name="Group 2024">
      <g id="Group_1932" data-name="Group 1932">
        <g id="Group_1672" data-name="Group 1672">
          <g id="Group_1671" data-name="Group 1671">
            <g id="Group_1669" data-name="Group 1669">
              <path id="Path_724" data-name="Path 724" d="M843,2062.5c1.2-.2,2.5,1,3.5,3s4.6,3.2,6.7,2.4-3.2-7-.3-6.9,7.1,6.5,7.1,6.5,17.3.6,30.5,5.6l6.2-29.1,18.3,4.2s-7.2,34.9-11.8,41.9c-4.8,7.4-38.8-5.6-45.6-12-12.3-3.1-15.1-7.1-15.4-8.4a7.384,7.384,0,0,1,.5-3.3C841.9,2064.8,841.8,2062.7,843,2062.5Z" fill="#fff"/>
            </g>
            <g id="Group_1670" data-name="Group 1670">
              <path id="Path_725" data-name="Path 725" d="M896.8,2092.8c-11.4,0-33.7-9-39.5-14.3-14-3.6-15.5-8.2-15.7-8.7a7.079,7.079,0,0,1,.4-3.4,4.37,4.37,0,0,1-.3-3.5,1.442,1.442,0,0,1,1.2-.9h0c1.4-.2,2.9,1,4.1,3.3.8,1.7,4.2,2.9,6,2.1a.1.1,0,0,0,.1-.1c.2-.5-.4-1.8-.8-2.8-.6-1.5-1.2-2.8-.7-3.6.2-.3.5-.5,1.3-.5,2.9.1,6.5,5.2,7.4,6.5,2.3.1,17.7,1,29.7,5.4l6.1-28.5a.536.536,0,0,1,.3-.4.6.6,0,0,1,.4-.1l18.3,4.2a.569.569,0,0,1,.4.7c-.3,1.4-7.3,35.1-11.8,42.1-.8,1.3-2.5,2.1-4.8,2.4C898.2,2092.7,897.5,2092.8,896.8,2092.8ZM843,2063.1c-.1,0-.2,0-.3.2a3.5,3.5,0,0,0,.4,2.7.446.446,0,0,1,0,.5,5.634,5.634,0,0,0-.4,3s1.2,4.4,15,7.9c.1,0,.2.1.3.1,5.8,5.5,30.3,15.2,40.7,14,2-.2,3.4-.9,4-1.9,4.1-6.4,10.6-36.7,11.6-41.2l-17.1-3.9-6.1,28.5c0,.2-.1.3-.3.4a.446.446,0,0,1-.5,0c-12.9-4.8-30.1-5.5-30.3-5.5a.55.55,0,0,1-.5-.3c-1.1-1.7-4.5-6.2-6.7-6.2h-.3c-.2.3.4,1.7.8,2.5.6,1.4,1.2,2.7.8,3.7a1.207,1.207,0,0,1-.7.7c-2.4,1-6.3-.4-7.4-2.7-.9-1.6-2-2.7-3-2.5Z" fill="#010101"/>
            </g>
          </g>
        </g>
        <g id="Group_1679" data-name="Group 1679">
          <g id="Group_1675" data-name="Group 1675">
            <g id="Group_1673" data-name="Group 1673">
              <path id="Path_726" data-name="Path 726" d="M849.8,2056.5l-8.3,2.6,6.9,24.4a4.983,4.983,0,0,0,2.5,3,4.9,4.9,0,0,0,6.5-2.1,5.077,5.077,0,0,0,.3-3.8Z" fill="#fff"/>
            </g>
            <g id="Group_1674" data-name="Group 1674">
              <path id="Path_727" data-name="Path 727" d="M853,2087.6a5.024,5.024,0,0,1-2.4-.6,5.29,5.29,0,0,1-2.8-3.4l-6.9-24.4a.569.569,0,0,1,.4-.7l8.3-2.6a.569.569,0,0,1,.7.4l7.9,24a5.153,5.153,0,0,1-.4,4.2,5.834,5.834,0,0,1-3.1,2.7A3.533,3.533,0,0,1,853,2087.6Zm-10.8-28.1,6.7,23.8a4.226,4.226,0,0,0,5.5,2.9,4.361,4.361,0,0,0,2.5-2.1,4.084,4.084,0,0,0,.3-3.4l-7.7-23.5Z" fill="#010101"/>
            </g>
          </g>
          <g id="Group_1678" data-name="Group 1678">
            <g id="Group_1676" data-name="Group 1676">
              <path id="Path_728" data-name="Path 728" d="M828.8,2055.9l-2.5-9.7a.863.863,0,0,1,.6-1.1l5-1.7a.616.616,0,0,1,.7.1l.8.4.4-.8a1.2,1.2,0,0,1,.5-.5l10.1-3.3a12.251,12.251,0,0,1,16.2,8.2.906.906,0,0,1-.3,1,.92.92,0,0,1-1,.1c-6.7-3.4-9-.9-10.1,1.2a6.546,6.546,0,0,0-.3,4.7l.6,1.9-8.3,2.6-.6-1.8h0c-1-1.7-2.5-4-3.5-4.4l-.6,1.1a1.206,1.206,0,0,1-.5.5l-6.3,2.1a.616.616,0,0,1-.7-.1h0A4.225,4.225,0,0,1,828.8,2055.9Z" fill="#010101"/>
            </g>
            <g id="Group_1677" data-name="Group 1677">
              <path id="Path_729" data-name="Path 729" d="M841.5,2059.7c-.2,0-.5-.2-.5-.4l-.5-1.7a13.193,13.193,0,0,0-2.8-3.8l-.3.6a1.765,1.765,0,0,1-.9.8l-6.3,2.1a1.671,1.671,0,0,1-1.2-.1,1.589,1.589,0,0,1-.8-1l-2.5-9.7a1.431,1.431,0,0,1,1-1.8l5-1.7a1.673,1.673,0,0,1,1.2.1l.3.2.2-.3a1.765,1.765,0,0,1,.9-.8l10.1-3.3a12.66,12.66,0,0,1,10.4.5,12.134,12.134,0,0,1,6.6,8,1.555,1.555,0,0,1-.4,1.6,1.514,1.514,0,0,1-1.7.2c-2.9-1.4-5.1-1.9-6.7-1.4a4.755,4.755,0,0,0-2.6,2.4,5.9,5.9,0,0,0-.2,4.3l.6,1.9v.4l-.3.3-8.3,2.6Zm-.1-2.7c0,.1.1.1.1.2l.4,1.2,7.2-2.2-.4-1.4a7.089,7.089,0,0,1,.3-5.1,5.507,5.507,0,0,1,3.3-3c1.9-.6,4.4-.1,7.6,1.5.1.1.3,0,.4,0,.1-.1.2-.3.1-.4a11.032,11.032,0,0,0-6-7.4,11.385,11.385,0,0,0-9.5-.5l-10.1,3.3a.215.215,0,0,0-.2.2l-.4.8a.63.63,0,0,1-.8.3l-.8-.4c-.1,0-.2-.1-.3,0l-5,1.7c-.2.1-.3.3-.2.4l2.5,9.7h0a.215.215,0,0,0,.2.2c.1,0,.2.1.3,0l6.3-2.1a.215.215,0,0,0,.2-.2l.6-1.1a.517.517,0,0,1,.7-.3C839,2052.9,840.7,2055.7,841.4,2057Z" fill="#010101"/>
            </g>
          </g>
        </g>
        <g id="Group_1931" data-name="Group 1931">
          <g id="Group_1710" data-name="Group 1710">
            <g id="Group_1684" data-name="Group 1684">
              <g id="Group_1681" data-name="Group 1681">
                <g id="Group_1680" data-name="Group 1680">
                  <path id="Path_730" data-name="Path 730" d="M921.2,2253.8s-25.9,12.8-24.8,17.1,41.9,2.1,42.2,1.4,0-9.8,0-9.8l-11.1-8Z" fill="#fff"/>
                </g>
              </g>
              <g id="Group_1683" data-name="Group 1683">
                <g id="Group_1682" data-name="Group 1682">
                  <path id="Path_731" data-name="Path 731" d="M915.8,2274.1c-3.5,0-6.8-.1-9.5-.2-8.8-.5-10.2-1.8-10.5-2.8-.4-1.3.5-3.9,12.2-10.8,6.3-3.7,12.8-6.9,12.9-7,.1,0,.2-.1.3-.1l6.3.7a.367.367,0,0,1,.3.1l11.1,8a.759.759,0,0,1,.2.4c.1,2.8.3,9.3,0,10.1-.1.3-.3.8-12,1.3C923.1,2274,919.3,2274.1,915.8,2274.1Zm5.5-19.7c-17.5,8.7-24.8,14.8-24.3,16.4,0,.1.1.2.6.5,5.7,2.9,37.3,1.3,40.5.7.1-1.2,0-5.8-.1-9.1l-10.8-7.7Z" fill="#010101"/>
                </g>
              </g>
            </g>
            <g id="Group_1689" data-name="Group 1689">
              <g id="Group_1686" data-name="Group 1686">
                <g id="Group_1685" data-name="Group 1685">
                  <path id="Path_732" data-name="Path 732" d="M921.2,2244.6v9.3s3.7-.1,5.6,5.3,11.8,3.4,11.8,3.4v-18Z" fill="#fff"/>
                </g>
              </g>
              <g id="Group_1688" data-name="Group 1688">
                <g id="Group_1687" data-name="Group 1687">
                  <path id="Path_733" data-name="Path 733" d="M934.6,2263.4c-3.2,0-7.2-.7-8.4-4.2-1.7-4.9-4.9-4.9-5-4.9a.707.707,0,0,1-.6-.6v-9.3a.645.645,0,0,1,.6-.6h17.4a.645.645,0,0,1,.6.6v18a.634.634,0,0,1-.5.6A17.663,17.663,0,0,1,934.6,2263.4Zm-12.8-10.1c1.2.2,4,1.1,5.5,5.6,1.5,4.3,8.8,3.4,10.7,3.1v-16.9H921.8Z" fill="#010101"/>
                </g>
              </g>
            </g>
            <g id="Group_1694" data-name="Group 1694">
              <g id="Group_1691" data-name="Group 1691">
                <g id="Group_1690" data-name="Group 1690">
                  <path id="Path_734" data-name="Path 734" d="M938.6,2272.3a15.038,15.038,0,0,0,.1-2.7h0c-5,.4-32.2,1.8-34.3-.9-2.1-2.8-4-2.7-4-2.7-2.6,2-4.3,3.8-4,4.9C897.5,2275.2,938.3,2273,938.6,2272.3Z" fill="#fff"/>
                </g>
              </g>
              <g id="Group_1693" data-name="Group 1693">
                <g id="Group_1692" data-name="Group 1692">
                  <path id="Path_735" data-name="Path 735" d="M915.8,2274.1c-3.5,0-6.8-.1-9.5-.2-8.8-.5-10.2-1.8-10.5-2.8-.4-1.3,1-3.1,4.2-5.5a.367.367,0,0,1,.3-.1c.1,0,2.3,0,4.5,2.9.3.4,2.2,1.5,15.6,1.4,7.6-.1,15.5-.5,18.2-.7.2,0,.3,0,.4.2a.759.759,0,0,1,.2.4c0,2.5-.1,2.8-.2,2.9-.1.3-.3.8-12,1.3C923.1,2274,919.3,2274.1,915.8,2274.1Zm-15.3-7.5c-3.6,2.8-3.7,3.9-3.6,4.2,0,.1.1.2.6.5,5.7,2.9,37.3,1.3,40.5.7a16.011,16.011,0,0,1,.1-1.7c-4.5.3-31.8,1.9-34.2-1.2C902.4,2267,901,2266.6,900.5,2266.6Z" fill="#010101"/>
                </g>
              </g>
            </g>
            <g id="Group_1699" data-name="Group 1699">
              <g id="Group_1696" data-name="Group 1696">
                <g id="Group_1695" data-name="Group 1695">
                  <line id="Line_27" data-name="Line 27" x2="5" y2="5.1" transform="translate(913.4 2255)" fill="#fff"/>
                </g>
              </g>
              <g id="Group_1698" data-name="Group 1698">
                <g id="Group_1697" data-name="Group 1697">
                  <path id="Path_736" data-name="Path 736" d="M918.4,2260.7a.759.759,0,0,1-.4-.2l-5-5.1a.566.566,0,0,1,.8-.8l5,5.1a.608.608,0,0,1,0,.8A.519.519,0,0,1,918.4,2260.7Z" fill="#010101"/>
                </g>
              </g>
            </g>
            <g id="Group_1704" data-name="Group 1704">
              <g id="Group_1701" data-name="Group 1701">
                <g id="Group_1700" data-name="Group 1700">
                  <line id="Line_28" data-name="Line 28" x2="5" y2="5.2" transform="translate(910.9 2256.6)" fill="#fff"/>
                </g>
              </g>
              <g id="Group_1703" data-name="Group 1703">
                <g id="Group_1702" data-name="Group 1702">
                  <path id="Path_737" data-name="Path 737" d="M915.9,2262.3a.759.759,0,0,1-.4-.2l-5-5.1a.566.566,0,0,1,.8-.8l5,5.1a.608.608,0,0,1,0,.8C916.2,2262.3,916.1,2262.3,915.9,2262.3Z" fill="#010101"/>
                </g>
              </g>
            </g>
            <g id="Group_1709" data-name="Group 1709">
              <g id="Group_1706" data-name="Group 1706">
                <g id="Group_1705" data-name="Group 1705">
                  <line id="Line_29" data-name="Line 29" x2="5" y2="5.1" transform="translate(908.4 2258.3)" fill="#fff"/>
                </g>
              </g>
              <g id="Group_1708" data-name="Group 1708">
                <g id="Group_1707" data-name="Group 1707">
                  <path id="Path_738" data-name="Path 738" d="M913.4,2264a.759.759,0,0,1-.4-.2l-5-5.1a.566.566,0,0,1,.8-.8l5,5.1a.608.608,0,0,1,0,.8A.759.759,0,0,1,913.4,2264Z" fill="#010101"/>
                </g>
              </g>
            </g>
          </g>
          <g id="Group_1715" data-name="Group 1715">
            <g id="Group_1712" data-name="Group 1712">
              <g id="Group_1711" data-name="Group 1711">
                <path id="Path_739" data-name="Path 739" d="M953.6,2004.2s32.3-3.7,44.8,48.7l-19.1,9.7a379.681,379.681,0,0,1,1.4,76.1c-3.5,41.3-3.4,105.7-3.4,105.7H949.4s-3.4-51.9-3.4-60.1c0,0-3.8,44.2-2.7,60.1H911.8s-5.3-146.7-.2-183.2c0,0-14.3-1.1-22.6-10,0,0,8.1-37.9,41.2-47Z" fill="#fff"/>
              </g>
            </g>
            <g id="Group_1714" data-name="Group 1714">
              <g id="Group_1713" data-name="Group 1713">
                <path id="Path_740" data-name="Path 740" d="M977.3,2245H949.4a.634.634,0,0,1-.6-.5c0-.4-2.2-32.9-3-50.4-1,13.9-2.7,39.2-1.9,50.3,0,.2,0,.3-.2.4a.757.757,0,0,1-.4.2H911.8a.56.56,0,0,1-.6-.5c-.1-1.5-5.2-145.7-.3-182.7-2.8-.3-14.9-2.1-22.3-10.1a.44.44,0,0,1-.1-.5,75.835,75.835,0,0,1,8.3-20.3c5.7-9.8,16.1-22.4,33.4-27.2h23.5c.7-.1,8.6-.7,18,4.8,16.1,9.4,23.8,29.3,27.4,44.4a.486.486,0,0,1-.3.6l-18.7,9.5a391.591,391.591,0,0,1,1.4,75.8c-3.4,40.8-3.4,105-3.4,105.7C977.9,2244.7,977.6,2245,977.3,2245Zm-27.4-1.2h26.8c0-6.5.2-66.4,3.4-105.2a392.281,392.281,0,0,0-1.4-76,.713.713,0,0,1,.3-.6l18.7-9.5c-3.6-14.8-11.1-34.1-26.7-43.2-9.4-5.5-17.3-4.6-17.4-4.6H930.2c-30.8,8.5-39.8,42.8-40.7,46.3,8,8.4,21.9,9.6,22,9.6a.52.52,0,0,1,.4.2.6.6,0,0,1,.1.4c-4.8,34.9-.1,172.7.2,182.6h30.4c-1-16.3,2.7-59.2,2.7-59.6a.552.552,0,1,1,1.1.1C946.5,2192,949.6,2238.3,949.9,2243.8Zm3.7-239.6Z" fill="#010101"/>
              </g>
            </g>
          </g>
          <g id="Group_1720" data-name="Group 1720">
            <g id="Group_1717" data-name="Group 1717">
              <g id="Group_1716" data-name="Group 1716">
                <path id="Path_741" data-name="Path 741" d="M980.1,2069.7h-9.4a8.28,8.28,0,0,1-8.3-8.3v-17.6H918v18.6a7.341,7.341,0,0,1-7.3,7.3h0c-3.5,46.6,1.1,174.7,1.1,174.7h31.5c-1.1-16,2.7-60.1,2.7-60.1,0,8.3,3.4,60.1,3.4,60.1h27.9s0-64.4,3.4-105.7A397.17,397.17,0,0,0,980.1,2069.7Z" fill="#fff"/>
              </g>
            </g>
            <g id="Group_1719" data-name="Group 1719">
              <g id="Group_1718" data-name="Group 1718">
                <path id="Path_742" data-name="Path 742" d="M977.3,2245H949.4a.634.634,0,0,1-.6-.5c0-.4-2.2-32.9-3-50.4-1,13.9-2.7,39.2-1.9,50.3,0,.2,0,.3-.2.4a.757.757,0,0,1-.4.2H911.8a.56.56,0,0,1-.6-.5c0-1.3-4.6-128.7-1.1-174.7a.56.56,0,0,1,.6-.5,6.7,6.7,0,0,0,6.7-6.7V2044a.645.645,0,0,1,.6-.6h44.4a.645.645,0,0,1,.6.6v17.6a7.7,7.7,0,0,0,7.7,7.7h9.4a.634.634,0,0,1,.6.5,390.839,390.839,0,0,1,.6,69.1c-3.4,40.8-3.4,105-3.4,105.7A.716.716,0,0,1,977.3,2245Zm-27.4-1.2h26.8c0-6.5.2-66.4,3.4-105.2a392.754,392.754,0,0,0-.6-68.3h-8.9a8.813,8.813,0,0,1-8.8-8.8v-17H918.5v18a7.854,7.854,0,0,1-7.3,7.8c-3.3,44.9.8,164.4,1.1,173.5h30.4c-1-16.3,2.7-59.2,2.7-59.6a.552.552,0,1,1,1.1.1C946.5,2192,949.6,2238.3,949.9,2243.8Z" fill="#010101"/>
              </g>
            </g>
          </g>
          <g id="Group_1725" data-name="Group 1725">
            <g id="Group_1722" data-name="Group 1722">
              <g id="Group_1721" data-name="Group 1721">
                <path id="Path_743" data-name="Path 743" d="M981.5,2109H909.7a3.757,3.757,0,0,1-3.7-3.7h0a3.757,3.757,0,0,1,3.7-3.7h71.8Z" fill="#010101"/>
              </g>
            </g>
            <g id="Group_1724" data-name="Group 1724">
              <g id="Group_1723" data-name="Group 1723">
                <path id="Path_744" data-name="Path 744" d="M981.5,2109.6H909.7a4.3,4.3,0,0,1,0-8.6h71.8a.645.645,0,0,1,.6.6v7.4C982,2109.3,981.8,2109.6,981.5,2109.6Zm-71.8-7.4a3.1,3.1,0,0,0,0,6.2h71.2v-6.3H909.7Z" fill="#010101"/>
              </g>
            </g>
          </g>
          <g id="Group_1739" data-name="Group 1739">
            <g id="Group_1730" data-name="Group 1730">
              <g id="Group_1727" data-name="Group 1727">
                <g id="Group_1726" data-name="Group 1726">
                  <path id="Path_745" data-name="Path 745" d="M934.6,2116h0a6.659,6.659,0,0,1-6.6-6.6v-6.1a6.659,6.659,0,0,1,6.6-6.6h0a6.659,6.659,0,0,1,6.6,6.6v6.1A6.593,6.593,0,0,1,934.6,2116Z" fill="#fff"/>
                </g>
              </g>
              <g id="Group_1729" data-name="Group 1729">
                <g id="Group_1728" data-name="Group 1728">
                  <path id="Path_746" data-name="Path 746" d="M934.6,2116.6a7.17,7.17,0,0,1-7.2-7.2v-6.1a7.2,7.2,0,0,1,14.4,0v6.1A7.3,7.3,0,0,1,934.6,2116.6Zm0-19.4a6.018,6.018,0,0,0-6,6v6.1a6,6,0,0,0,12,0v-6.1A6.083,6.083,0,0,0,934.6,2097.2Z" fill="#010101"/>
                </g>
              </g>
            </g>
            <g id="Group_1735" data-name="Group 1735">
              <g id="Group_1732" data-name="Group 1732">
                <g id="Group_1731" data-name="Group 1731">
                  <path id="Path_747" data-name="Path 747" d="M934.6,2096.7a5.849,5.849,0,1,0,0,11.6h0a6.607,6.607,0,0,0,6.6-5.8,6.758,6.758,0,0,0-6.6-5.8Z" fill="#fff"/>
                </g>
              </g>
              <g id="Group_1734" data-name="Group 1734">
                <g id="Group_1733" data-name="Group 1733">
                  <path id="Path_748" data-name="Path 748" d="M934.6,2108.9a7.138,7.138,0,0,1-7.1-6.3v-.1a7.151,7.151,0,0,1,14.2,0v.1A7.138,7.138,0,0,1,934.6,2108.9Zm-6-6.4a6.05,6.05,0,0,0,6,5.3,6.126,6.126,0,0,0,6-5.3,6.046,6.046,0,0,0-12,0Z" fill="#010101"/>
                </g>
              </g>
            </g>
            <g id="Group_1738" data-name="Group 1738">
              <g id="Group_1737" data-name="Group 1737">
                <g id="Group_1736" data-name="Group 1736">
                  <circle id="Ellipse_23" data-name="Ellipse 23" cx="1" cy="1" r="1" transform="translate(933.6 2104.3)" fill="#010101"/>
                </g>
              </g>
            </g>
          </g>
          <g id="Group_1753" data-name="Group 1753">
            <g id="Group_1742" data-name="Group 1742">
              <g id="Group_1741" data-name="Group 1741">
                <g id="Group_1740" data-name="Group 1740">
                  <line id="Line_30" data-name="Line 30" x1="3.9" y2="174.7" transform="translate(966.8 2069.7)" fill="#fff"/>
                </g>
              </g>
            </g>
            <g id="Group_1752" data-name="Group 1752">
              <g id="Group_1745" data-name="Group 1745">
                <g id="Group_1744" data-name="Group 1744">
                  <g id="Group_1743" data-name="Group 1743">
                    <path id="Path_749" data-name="Path 749" d="M970.6,2073.7h0a.645.645,0,0,1-.6-.6l.1-3.4a.6.6,0,1,1,1.2,0l-.1,3.4Q971.05,2073.7,970.6,2073.7Z" fill="#010101"/>
                  </g>
                </g>
              </g>
              <g id="Group_1748" data-name="Group 1748">
                <g id="Group_1747" data-name="Group 1747">
                  <g id="Group_1746" data-name="Group 1746">
                    <path id="Path_750" data-name="Path 750" d="M967,2234.8h0a.645.645,0,0,1-.6-.6l.1-6.7a.6.6,0,1,1,1.2,0l-.1,6.7A.576.576,0,0,1,967,2234.8Zm.3-13.4h0a.645.645,0,0,1-.6-.6l.1-6.7a.6.6,0,1,1,1.2,0l-.1,6.7A.576.576,0,0,1,967.3,2221.4Zm.3-13.4h0a.645.645,0,0,1-.6-.6l.1-6.7a.6.6,0,1,1,1.2,0l-.1,6.7A.645.645,0,0,1,967.6,2208Zm.3-13.5h0a.645.645,0,0,1-.6-.6l.1-6.7a.6.6,0,1,1,1.2,0l-.1,6.7A.576.576,0,0,1,967.9,2194.5Zm.3-13.4h0a.645.645,0,0,1-.6-.6l.1-6.7a.6.6,0,1,1,1.2,0l-.1,6.7A.577.577,0,0,1,968.2,2181.1Zm.3-13.4h0a.645.645,0,0,1-.6-.6l.1-6.7a.6.6,0,1,1,1.2,0l-.1,6.7A.645.645,0,0,1,968.5,2167.7Zm.3-13.4h0a.645.645,0,0,1-.6-.6l.1-6.7a.6.6,0,1,1,1.2,0l-.1,6.7A.645.645,0,0,1,968.8,2154.3Zm.3-13.5h0a.645.645,0,0,1-.6-.6l.1-6.7c0-.3.3-.5.6-.6a.645.645,0,0,1,.6.6l-.1,6.7A.576.576,0,0,1,969.1,2140.8Zm.3-13.4h0a.645.645,0,0,1-.6-.6l.1-6.7a.6.6,0,1,1,1.2,0l-.1,6.7A.576.576,0,0,1,969.4,2127.4Zm.3-13.4h0a.645.645,0,0,1-.6-.6l.1-6.7a.6.6,0,1,1,1.2,0l-.1,6.7C970.2,2113.7,970,2114,969.7,2114Zm.3-13.4h0a.645.645,0,0,1-.6-.6l.1-6.7a.6.6,0,1,1,1.2,0l-.1,6.7C970.5,2100.3,970.3,2100.6,970,2100.6Zm.3-13.5h0a.645.645,0,0,1-.6-.6l.1-6.7a.6.6,0,1,1,1.2,0l-.1,6.7Q970.75,2087.1,970.3,2087.1Z" fill="#010101"/>
                  </g>
                </g>
              </g>
              <g id="Group_1751" data-name="Group 1751">
                <g id="Group_1750" data-name="Group 1750">
                  <g id="Group_1749" data-name="Group 1749">
                    <path id="Path_751" data-name="Path 751" d="M966.8,2245h0a.645.645,0,0,1-.6-.6l.1-3.4a.6.6,0,1,1,1.2,0l-.1,3.4C967.3,2244.7,967.1,2245,966.8,2245Z" fill="#010101"/>
                  </g>
                </g>
              </g>
            </g>
          </g>
          <g id="Group_1758" data-name="Group 1758">
            <g id="Group_1755" data-name="Group 1755">
              <g id="Group_1754" data-name="Group 1754">
                <path id="Path_752" data-name="Path 752" d="M962.8,1973.4a18.172,18.172,0,0,0,2.1-5.7H912.6c.8,3.5,1.1,5.2.6,8.5-.6,4-5.1,12.5,1.1,20.5a19.359,19.359,0,0,0,15.4,7.4v6a7.791,7.791,0,0,0,8.9,7.7h.2c6.8-1.1,12.5-8.5,14.2-13.7v-11.4s9.1-.6,11.4-9.7S962.8,1973.4,962.8,1973.4Z" fill="#fff"/>
              </g>
            </g>
            <g id="Group_1757" data-name="Group 1757">
              <g id="Group_1756" data-name="Group 1756">
                <path id="Path_753" data-name="Path 753" d="M937.5,2018.5a8.307,8.307,0,0,1-8.3-8.4v-5.4a19.983,19.983,0,0,1-15.3-7.6c-5.2-6.6-3.2-13.5-2-18.1a23.777,23.777,0,0,0,.7-2.9c.5-3.3.1-5-.6-8.3a.9.9,0,0,1,.1-.5.758.758,0,0,1,.4-.2h52.3a.52.52,0,0,1,.4.2.44.44,0,0,1,.1.5,23.894,23.894,0,0,1-1.8,5.3,3.006,3.006,0,0,1,1.2,1.1c1.2,1.8,1.3,4.8.2,9-2,8.1-9.3,9.8-11.4,10.1v11.1c-1.7,5-7.5,12.9-14.7,14.1h-1.3Zm-7.8-14.9a.707.707,0,0,1,.6.6v6a7.3,7.3,0,0,0,2.5,5.5,6.69,6.69,0,0,0,5.7,1.6h.2c6.7-1.1,12.2-8.5,13.8-13.2v-11.3a.634.634,0,0,1,.5-.6,12.334,12.334,0,0,0,10.9-9.3c1.2-4.7.6-7-.1-8-.5-.8-1.2-.9-1.2-1-.2,0-.3-.2-.4-.3a.446.446,0,0,1,0-.5,22.367,22.367,0,0,0,1.9-4.8H913.2a19.493,19.493,0,0,1,.5,8,24.837,24.837,0,0,1-.7,3c-1.2,4.4-3.1,10.9,1.8,17.1a18.787,18.787,0,0,0,14.9,7.2Zm23.4.6Z" fill="#010101"/>
              </g>
            </g>
          </g>
          <g id="Group_1761" data-name="Group 1761">
            <g id="Group_1760" data-name="Group 1760">
              <g id="Group_1759" data-name="Group 1759">
                <path id="Path_754" data-name="Path 754" d="M955.9,1986.2a.56.56,0,0,1-.6-.5c-.2-5.4,3.6-7.3,3.8-7.4a.6.6,0,0,1,.5,1.1h0a6.592,6.592,0,0,0-3.2,6.3c.1.2-.1.5-.5.5Z" fill="#010101"/>
              </g>
            </g>
          </g>
          <g id="Group_1764" data-name="Group 1764">
            <g id="Group_1763" data-name="Group 1763">
              <g id="Group_1762" data-name="Group 1762">
                <ellipse id="Ellipse_24" data-name="Ellipse 24" cx="1.4" cy="2.2" rx="1.4" ry="2.2" transform="translate(917.1 1976.4)" fill="#010101"/>
              </g>
            </g>
          </g>
          <g id="Group_1767" data-name="Group 1767">
            <g id="Group_1766" data-name="Group 1766">
              <g id="Group_1765" data-name="Group 1765">
                <ellipse id="Ellipse_25" data-name="Ellipse 25" cx="1.4" cy="2.2" rx="1.4" ry="2.2" transform="translate(929.8 1976.4)" fill="#010101"/>
              </g>
            </g>
          </g>
          <g id="Group_1770" data-name="Group 1770">
            <g id="Group_1769" data-name="Group 1769">
              <g id="Group_1768" data-name="Group 1768">
                <path id="Path_755" data-name="Path 755" d="M926.6,1986.4c.1.4-1,1-2.5,1s-2.7-.6-2.5-1c.1-.4,1.2-.4,2.5-.4S926.5,1986,926.6,1986.4Z" fill="#010101"/>
              </g>
            </g>
          </g>
          <g id="Group_1774" data-name="Group 1774">
            <g id="Group_1773" data-name="Group 1773">
              <g id="Group_1772" data-name="Group 1772">
                <g id="Group_1771" data-name="Group 1771">
                  <path id="Path_756" data-name="Path 756" d="M918,1971.4a6.7,6.7,0,0,1,3.1.7.6.6,0,0,1-.5,1.1,6.152,6.152,0,0,0-5.3,0,.6.6,0,0,1-.5-1.1A7.729,7.729,0,0,1,918,1971.4Z" fill="#010101"/>
                </g>
              </g>
            </g>
          </g>
          <g id="Group_1778" data-name="Group 1778">
            <g id="Group_1777" data-name="Group 1777">
              <g id="Group_1776" data-name="Group 1776">
                <g id="Group_1775" data-name="Group 1775">
                  <path id="Path_757" data-name="Path 757" d="M932.4,1971.2a6.7,6.7,0,0,1,3.1.7.6.6,0,0,1-.5,1.1,6.152,6.152,0,0,0-5.3,0,.6.6,0,0,1-.5-1.1A7.411,7.411,0,0,1,932.4,1971.2Z" fill="#010101"/>
                </g>
              </g>
            </g>
          </g>
          <g id="Group_1783" data-name="Group 1783">
            <g id="Group_1780" data-name="Group 1780">
              <g id="Group_1779" data-name="Group 1779">
                <path id="Path_758" data-name="Path 758" d="M968.5,1960.5a30.148,30.148,0,0,0-30.1-29.2h0a30.139,30.139,0,0,0-30.1,29.5" fill="#fff"/>
              </g>
            </g>
            <g id="Group_1782" data-name="Group 1782">
              <g id="Group_1781" data-name="Group 1781">
                <path id="Path_759" data-name="Path 759" d="M908.3,1961.4h0a.645.645,0,0,1-.6-.6,30.7,30.7,0,0,1,52.1-21.4,31.1,31.1,0,0,1,9.3,21.1.6.6,0,0,1-1.2,0,29.495,29.495,0,0,0-50.2-20.2,28.947,28.947,0,0,0-8.8,20.5A.645.645,0,0,1,908.3,1961.4Z" fill="#010101"/>
              </g>
            </g>
          </g>
          <g id="Group_1788" data-name="Group 1788">
            <g id="Group_1785" data-name="Group 1785">
              <g id="Group_1784" data-name="Group 1784">
                <path id="Path_760" data-name="Path 760" d="M969.6,1967.7H908.5a3.543,3.543,0,0,1-3.5-3.5h0a3.543,3.543,0,0,1,3.5-3.5h61.1a3.543,3.543,0,0,1,3.5,3.5h0A3.418,3.418,0,0,1,969.6,1967.7Z" fill="#fff"/>
              </g>
            </g>
            <g id="Group_1787" data-name="Group 1787">
              <g id="Group_1786" data-name="Group 1786">
                <path id="Path_761" data-name="Path 761" d="M969.9,1968.3H908.2a3.691,3.691,0,0,1-3.7-3.7v-.6a3.691,3.691,0,0,1,3.7-3.7h61.7a3.691,3.691,0,0,1,3.7,3.7v.6A3.629,3.629,0,0,1,969.9,1968.3Zm-61.7-6.9a2.647,2.647,0,0,0-2.6,2.6v.6a2.647,2.647,0,0,0,2.6,2.6h61.7a2.647,2.647,0,0,0,2.6-2.6v-.6a2.647,2.647,0,0,0-2.6-2.6Z" fill="#010101"/>
              </g>
            </g>
          </g>
          <g id="Group_1794" data-name="Group 1794">
            <g id="Group_1793" data-name="Group 1793">
              <g id="Group_1790" data-name="Group 1790">
                <g id="Group_1789" data-name="Group 1789">
                  <path id="Path_762" data-name="Path 762" d="M924,1951.6a2.2,2.2,0,0,1-.8-.1,4,4,0,0,1-3.2-4.7,25.576,25.576,0,0,1,19-20.6,4,4,0,0,1,4.7,3.2,4.062,4.062,0,0,1-3.1,4.7c-.5.1-10.4,2.4-12.7,14.2A4.031,4.031,0,0,1,924,1951.6Z" fill="#fff"/>
                </g>
              </g>
              <g id="Group_1792" data-name="Group 1792">
                <g id="Group_1791" data-name="Group 1791">
                  <path id="Path_763" data-name="Path 763" d="M924,1952.2h0a2.77,2.77,0,0,1-.9-.1,4.52,4.52,0,0,1-3.6-5.3c3.4-17.7,18.8-20.9,19.4-21a4.423,4.423,0,0,1,5.3,3.6,4.471,4.471,0,0,1-3.6,5.3c-.4.1-10,2.3-12.3,13.8A4.4,4.4,0,0,1,924,1952.2Zm15.8-25.4a1.953,1.953,0,0,0-.7.1c-.6.1-15.3,3.2-18.5,20.1a3.415,3.415,0,0,0,2.7,4c.2,0,.4.1.7.1a3.611,3.611,0,0,0,3.4-2.8c2.4-12.3,12.7-14.6,13.1-14.7a3.549,3.549,0,0,0,2.7-4A3.611,3.611,0,0,0,939.8,1926.8Z" fill="#010101"/>
                </g>
              </g>
            </g>
          </g>
          <g id="Group_1799" data-name="Group 1799">
            <g id="Group_1796" data-name="Group 1796">
              <g id="Group_1795" data-name="Group 1795">
                <path id="Path_764" data-name="Path 764" d="M945,1967.7c1.2,3.9,3.3,8.4,6.7,10.7,0,0,3.8-8.6,11.1-5a18.172,18.172,0,0,0,2.1-5.7Z" fill="#010101"/>
              </g>
            </g>
            <g id="Group_1798" data-name="Group 1798">
              <g id="Group_1797" data-name="Group 1797">
                <path id="Path_765" data-name="Path 765" d="M951.7,1979a.367.367,0,0,1-.3-.1c-2.9-2-5.3-5.7-6.9-11a.44.44,0,0,1,.1-.5.764.764,0,0,1,.5-.2H965a.52.52,0,0,1,.4.2.44.44,0,0,1,.1.5,16.725,16.725,0,0,1-2.2,5.9.663.663,0,0,1-.7.2,6.4,6.4,0,0,0-5.2-.5c-3.3,1.2-5.2,5.2-5.2,5.2-.1.2-.2.3-.4.3Zm-5.9-10.7c1.1,3.2,2.9,7.1,5.7,9.3a11.15,11.15,0,0,1,5.5-5.2,7.807,7.807,0,0,1,5.6.3,18.194,18.194,0,0,0,1.6-4.4H945.8Z" fill="#010101"/>
              </g>
            </g>
          </g>
          <g id="Group_1802" data-name="Group 1802">
            <g id="Group_1801" data-name="Group 1801">
              <g id="Group_1800" data-name="Group 1800">
                <path id="Path_766" data-name="Path 766" d="M911.6,2061.7h0a.645.645,0,0,1-.6-.6l1-18.8a.56.56,0,0,1,.6-.5.5.5,0,0,1,.5.6l-1,18.8A.472.472,0,0,1,911.6,2061.7Z" fill="#010101"/>
              </g>
            </g>
          </g>
          <g id="Group_1823" data-name="Group 1823">
            <g id="Group_1807" data-name="Group 1807">
              <g id="Group_1804" data-name="Group 1804">
                <g id="Group_1803" data-name="Group 1803">
                  <path id="Path_767" data-name="Path 767" d="M1038.4,2079.2a4.1,4.1,0,0,0-1.1.1l-44.4,4.9a19.286,19.286,0,0,1-3.4,0l-45.5-5.1v28.6l44-5.9a22.861,22.861,0,0,1,6.4,0l42.7,5.7a5.847,5.847,0,0,0,1.3.2c4.7,0,8.5-6.4,8.5-14.3C1046.9,2085.6,1043.1,2079.2,1038.4,2079.2Z" fill="#fff"/>
                </g>
              </g>
              <g id="Group_1806" data-name="Group 1806">
                <g id="Group_1805" data-name="Group 1805">
                  <path id="Path_768" data-name="Path 768" d="M944,2108.4a.6.6,0,0,1-.4-.1.759.759,0,0,1-.2-.4v-28.6a.519.519,0,0,1,.2-.4c.1-.1.3-.2.4-.1l45.5,5.1a18.17,18.17,0,0,0,3.3,0l44.4-4.9a4.864,4.864,0,0,1,1.2-.1c5,0,9.1,6.7,9.1,14.9s-4.1,14.9-9.1,14.9a7.73,7.73,0,0,1-1.5-.2l-42.6-5.7a21.465,21.465,0,0,0-6.2,0l-44.1,5.6Zm47.2-7.2c1.1,0,2.2.1,3.3.2l42.7,5.7h.1a5.015,5.015,0,0,0,1.2.2c4.4,0,8-6.2,8-13.8s-3.6-13.8-8-13.8a3.748,3.748,0,0,0-1,.1h-.1l-44.4,4.9a20.434,20.434,0,0,1-3.5,0l-44.9-5v27.4l43.4-5.8C989,2101.3,990.1,2101.2,991.2,2101.2Zm46.1-21.9Z" fill="#010101"/>
                </g>
              </g>
            </g>
            <g id="Group_1812" data-name="Group 1812">
              <g id="Group_1809" data-name="Group 1809">
                <g id="Group_1808" data-name="Group 1808">
                  <ellipse id="Ellipse_26" data-name="Ellipse 26" cx="8.5" cy="14.3" rx="8.5" ry="14.3" transform="translate(935.5 2079.2)" fill="#fff"/>
                </g>
              </g>
              <g id="Group_1811" data-name="Group 1811">
                <g id="Group_1810" data-name="Group 1810">
                  <path id="Path_769" data-name="Path 769" d="M944,2108.4c-5,0-9.1-6.7-9.1-14.9s4.1-14.9,9.1-14.9,9.1,6.7,9.1,14.9S949,2108.4,944,2108.4Zm0-28.6c-4.4,0-8,6.2-8,13.8s3.6,13.8,8,13.8,8-6.2,8-13.8S948.4,2079.8,944,2079.8Z" fill="#010101"/>
                </g>
              </g>
            </g>
            <g id="Group_1817" data-name="Group 1817">
              <g id="Group_1814" data-name="Group 1814">
                <g id="Group_1813" data-name="Group 1813">
                  <ellipse id="Ellipse_27" data-name="Ellipse 27" cx="5.6" cy="9.4" rx="5.6" ry="9.4" transform="translate(938.4 2084.1)" fill="#fff"/>
                </g>
              </g>
              <g id="Group_1816" data-name="Group 1816">
                <g id="Group_1815" data-name="Group 1815">
                  <path id="Path_770" data-name="Path 770" d="M944,2103.5c-3.5,0-6.2-4.4-6.2-10s2.7-10,6.2-10,6.2,4.4,6.2,10S947.5,2103.5,944,2103.5Zm0-18.8c-2.7,0-5,4-5,8.8s2.3,8.8,5,8.8,5-4,5-8.8S946.7,2084.7,944,2084.7Z" fill="#010101"/>
                </g>
              </g>
            </g>
            <g id="Group_1822" data-name="Group 1822">
              <g id="Group_1819" data-name="Group 1819">
                <g id="Group_1818" data-name="Group 1818">
                  <ellipse id="Ellipse_28" data-name="Ellipse 28" cx="3.1" cy="5.2" rx="3.1" ry="5.2" transform="translate(940.9 2088.3)" fill="#010101"/>
                </g>
              </g>
              <g id="Group_1821" data-name="Group 1821">
                <g id="Group_1820" data-name="Group 1820">
                  <path id="Path_771" data-name="Path 771" d="M944,2099.3c-2.1,0-3.7-2.5-3.7-5.8s1.6-5.8,3.7-5.8,3.7,2.5,3.7,5.8S946.1,2099.3,944,2099.3Zm0-10.4c-1.4,0-2.5,2.1-2.5,4.6s1.2,4.6,2.5,4.6c1.4,0,2.5-2.1,2.5-4.6S945.4,2088.9,944,2088.9Z" fill="#010101"/>
                </g>
              </g>
            </g>
          </g>
          <g id="Group_1844" data-name="Group 1844">
            <g id="Group_1828" data-name="Group 1828">
              <g id="Group_1825" data-name="Group 1825">
                <g id="Group_1824" data-name="Group 1824">
                  <path id="Path_772" data-name="Path 772" d="M1019.3,2053a3.043,3.043,0,0,0-.8.8l-31.8,31.4a17.09,17.09,0,0,1-2.6,2.1l-38.8,24.3,17.8,22.5,30.9-31.9a23.265,23.265,0,0,1,5-3.9l37-22a7.445,7.445,0,0,0,1.2-.7c3.7-2.9,2.7-10.3-2.2-16.5C1030,2052.8,1023,2050.1,1019.3,2053Z" fill="#fff"/>
                </g>
              </g>
              <g id="Group_1827" data-name="Group 1827">
                <g id="Group_1826" data-name="Group 1826">
                  <path id="Path_773" data-name="Path 773" d="M963.1,2134.6h0a.52.52,0,0,1-.4-.2l-17.8-22.5a.75.75,0,0,1-.1-.5c0-.2.1-.3.3-.4l38.8-24.3a25.619,25.619,0,0,0,2.6-2l31.8-31.4a6.461,6.461,0,0,1,.9-.8h0c3.9-3.1,11.3-.4,16.4,6a20.919,20.919,0,0,1,4.4,9.8c.4,3.3-.4,6-2.3,7.6a5.667,5.667,0,0,1-1.3.8l-37,22a26.255,26.255,0,0,0-4.9,3.9l-30.9,31.9A1.088,1.088,0,0,1,963.1,2134.6Zm-17-22.9,17,21.5,30.4-31.4a21.991,21.991,0,0,1,5.1-4l37-22h.1a8.761,8.761,0,0,0,1-.6c1.6-1.3,2.3-3.6,1.9-6.5a19.545,19.545,0,0,0-4.2-9.2c-4.7-5.9-11.3-8.6-14.8-5.9a4.615,4.615,0,0,0-.7.7h0l-31.8,31.4a18.553,18.553,0,0,1-2.7,2.2Zm72.5-57.9Z" fill="#010101"/>
                </g>
              </g>
            </g>
            <g id="Group_1833" data-name="Group 1833">
              <g id="Group_1830" data-name="Group 1830">
                <g id="Group_1829" data-name="Group 1829">
                  <ellipse id="Ellipse_29" data-name="Ellipse 29" cx="8.5" cy="14.3" rx="8.5" ry="14.3" transform="translate(938.711 2116.848) rotate(-38.337)" fill="#fff"/>
                </g>
              </g>
              <g id="Group_1832" data-name="Group 1832">
                <g id="Group_1831" data-name="Group 1831">
                  <path id="Path_774" data-name="Path 774" d="M959.4,2135.8a11.8,11.8,0,0,1-3.9-.8,21.637,21.637,0,0,1-8.5-6.6c-5.1-6.4-6-14.2-2.1-17.3s11.3-.4,16.4,6h0a20.919,20.919,0,0,1,4.4,9.8c.4,3.3-.4,6-2.3,7.6A6.2,6.2,0,0,1,959.4,2135.8ZM949,2111a5.147,5.147,0,0,0-3.4,1.1c-3.4,2.7-2.4,9.8,2.3,15.7a20.02,20.02,0,0,0,8,6.2c2.7,1,5.2.9,6.8-.4s2.3-3.6,1.9-6.5a19.544,19.544,0,0,0-4.2-9.2C957,2113.5,952.5,2111,949,2111Z" fill="#010101"/>
                </g>
              </g>
            </g>
            <g id="Group_1838" data-name="Group 1838">
              <g id="Group_1835" data-name="Group 1835">
                <g id="Group_1834" data-name="Group 1834">
                  <ellipse id="Ellipse_30" data-name="Ellipse 30" cx="5.6" cy="9.4" rx="5.6" ry="9.4" transform="translate(944.026 2118.893) rotate(-38.337)" fill="#fff"/>
                </g>
              </g>
              <g id="Group_1837" data-name="Group 1837">
                <g id="Group_1836" data-name="Group 1836">
                  <path id="Path_775" data-name="Path 775" d="M957.6,2131.6c-2.6,0-5.8-1.8-8.2-4.9a14.175,14.175,0,0,1-3-6.5c-.3-2.3.3-4.1,1.6-5.1,2.7-2.1,7.6-.4,11,4a14.175,14.175,0,0,1,3,6.5c.3,2.3-.3,4.1-1.6,5.1A4.679,4.679,0,0,1,957.6,2131.6Zm-6.9-16.3a3.173,3.173,0,0,0-2,.6c-1,.8-1.4,2.3-1.2,4.1a13.351,13.351,0,0,0,2.7,6c3,3.8,7.3,5.5,9.4,3.8,1-.8,1.4-2.3,1.2-4.1a13.351,13.351,0,0,0-2.7-6C955.9,2116.9,953,2115.3,950.7,2115.3Z" fill="#010101"/>
                </g>
              </g>
            </g>
            <g id="Group_1843" data-name="Group 1843">
              <g id="Group_1840" data-name="Group 1840">
                <g id="Group_1839" data-name="Group 1839">
                  <ellipse id="Ellipse_31" data-name="Ellipse 31" cx="3.1" cy="5.2" rx="3.1" ry="5.2" transform="translate(948.592 2120.637) rotate(-38.337)" fill="#010101"/>
                </g>
              </g>
              <g id="Group_1842" data-name="Group 1842">
                <g id="Group_1841" data-name="Group 1841">
                  <path id="Path_776" data-name="Path 776" d="M956.1,2127.9a4.014,4.014,0,0,1-1.5-.3,6.882,6.882,0,0,1-3.2-2.5,8.783,8.783,0,0,1-1.7-3.7,3.317,3.317,0,0,1,1-3.1c1.6-1.3,4.5-.3,6.5,2.3h0c2,2.5,2.3,5.5.7,6.8A4.074,4.074,0,0,1,956.1,2127.9Zm-3.8-9a1.69,1.69,0,0,0-1,.3,2.136,2.136,0,0,0-.6,2,6.662,6.662,0,0,0,1.5,3.2,6.115,6.115,0,0,0,2.8,2.1,2.155,2.155,0,0,0,2.1-.1c1.1-.9.7-3.2-.9-5.2A6.037,6.037,0,0,0,952.3,2118.9Z" fill="#010101"/>
                </g>
              </g>
            </g>
          </g>
          <g id="Group_1849" data-name="Group 1849">
            <g id="Group_1846" data-name="Group 1846">
              <g id="Group_1845" data-name="Group 1845">
                <path id="Path_777" data-name="Path 777" d="M995.3,2054.5l-19.7,9.3,11.3,23.2a3.079,3.079,0,0,1,.3,1.9c-.4,4.3-2,21.9-1.8,32.3,0,0-5.5,4.7-4.9,9.1s2.3,5.9,2.3,5.9-1.2,3.7,1.4,4.6a3.081,3.081,0,0,0,3.8-1.4,5.724,5.724,0,0,0,2.4,1.6,3.6,3.6,0,0,0,3-.7,6.877,6.877,0,0,0,4.3-.4c2-1.1,4.3-9.3,2.8-15.6l6.4-37.7a5.333,5.333,0,0,0-.2-2.5Z" fill="#fff"/>
              </g>
            </g>
            <g id="Group_1848" data-name="Group 1848">
              <g id="Group_1847" data-name="Group 1847">
                <path id="Path_778" data-name="Path 778" d="M991,2141.7a1.487,1.487,0,0,1-.9-.2,6.881,6.881,0,0,1-2.1-1.3,3.59,3.59,0,0,1-4.1,1.1c-2.3-.8-2.2-3.4-1.8-5a11.981,11.981,0,0,1-2.2-6c-.5-4.2,3.9-8.5,4.9-9.4-.1-10.3,1.4-27.1,1.8-32.1a2.319,2.319,0,0,0-.3-1.6L975,2064a.3.3,0,0,1,0-.4c.1-.1.2-.3.3-.3L995,2054a.446.446,0,0,1,.5,0c.1.1.3.2.3.3l11.3,29.6a6.719,6.719,0,0,1,.3,2.8l-6.4,37.5c1.6,6.5-.8,14.9-3.1,16.2a6.334,6.334,0,0,1-4.5.5A4.5,4.5,0,0,1,991,2141.7Zm-3.1-2.9a.52.52,0,0,1,.4.2,5.477,5.477,0,0,0,2.1,1.5c1.1.4,2.4-.6,2.5-.6a.749.749,0,0,1,.5-.1,5.7,5.7,0,0,0,3.9-.4c1.7-.9,4-8.8,2.5-15v-.2l6.4-37.7a4.158,4.158,0,0,0-.2-2.2l-11.1-29-18.7,8.8,11.1,22.7a4.128,4.128,0,0,1,.4,2.2c-.5,5-2,22-1.8,32.2a.519.519,0,0,1-.2.4c-.1,0-5.3,4.6-4.7,8.6.5,4.1,2.1,5.5,2.1,5.6a.735.735,0,0,1,.2.6c0,.1-1,3.1,1,3.9a2.583,2.583,0,0,0,3.2-1.2.446.446,0,0,1,.4-.3Z" fill="#010101"/>
              </g>
            </g>
          </g>
          <g id="Group_1854" data-name="Group 1854">
            <g id="Group_1851" data-name="Group 1851">
              <g id="Group_1850" data-name="Group 1850">
                <line id="Line_31" data-name="Line 31" x1="3" y1="6" transform="translate(972.5 2057.8)" fill="#fff"/>
              </g>
            </g>
            <g id="Group_1853" data-name="Group 1853">
              <g id="Group_1852" data-name="Group 1852">
                <path id="Path_779" data-name="Path 779" d="M975.5,2064.4a.55.55,0,0,1-.5-.3l-3-6.1a.6.6,0,1,1,1.1-.5l3,6.1a.67.67,0,0,1-.3.8Z" fill="#010101"/>
              </g>
            </g>
          </g>
          <g id="Group_1857" data-name="Group 1857">
            <g id="Group_1856" data-name="Group 1856">
              <g id="Group_1855" data-name="Group 1855">
                <path id="Path_780" data-name="Path 780" d="M982.7,2136.8h-.2a.55.55,0,0,1-.3-.7,15.259,15.259,0,0,0,1.2-5.8.552.552,0,1,1,1.1-.1,19.573,19.573,0,0,1-1.3,6.3C983.2,2136.7,983,2136.8,982.7,2136.8Z" fill="#010101"/>
              </g>
            </g>
          </g>
          <g id="Group_1860" data-name="Group 1860">
            <g id="Group_1859" data-name="Group 1859">
              <g id="Group_1858" data-name="Group 1858">
                <path id="Path_781" data-name="Path 781" d="M946,2184.8a.645.645,0,0,1-.6-.6v-30l-9.5-9.8a.566.566,0,0,1,.8-.8l9.6,9.9a.52.52,0,0,1,.2.4v30.2C946.5,2184.6,946.3,2184.8,946,2184.8Z" fill="#010101"/>
              </g>
            </g>
          </g>
          <g id="Group_1865" data-name="Group 1865">
            <g id="Group_1862" data-name="Group 1862">
              <g id="Group_1861" data-name="Group 1861">
                <path id="Path_782" data-name="Path 782" d="M921.6,2049.3h0a3.585,3.585,0,0,1-3.6-3.6v-37.9a3.585,3.585,0,0,1,3.6-3.6h0a3.585,3.585,0,0,1,3.6,3.6v37.9A3.65,3.65,0,0,1,921.6,2049.3Z" fill="#fff"/>
              </g>
            </g>
            <g id="Group_1864" data-name="Group 1864">
              <g id="Group_1863" data-name="Group 1863">
                <path id="Path_783" data-name="Path 783" d="M921.6,2049.9a4.225,4.225,0,0,1-4.2-4.2v-37.9a4.2,4.2,0,0,1,8.4,0v37.9A4.225,4.225,0,0,1,921.6,2049.9Zm0-45.2a3.116,3.116,0,0,0-3.1,3.1v37.9a3.1,3.1,0,1,0,6.2,0v-37.9A3.254,3.254,0,0,0,921.6,2004.7Z" fill="#010101"/>
              </g>
            </g>
          </g>
          <g id="Group_1870" data-name="Group 1870">
            <g id="Group_1867" data-name="Group 1867">
              <g id="Group_1866" data-name="Group 1866">
                <path id="Path_784" data-name="Path 784" d="M959.1,2048h0a3.585,3.585,0,0,1-3.6-3.6v-39.2a3.585,3.585,0,0,1,3.6-3.6h0a3.585,3.585,0,0,1,3.6,3.6v39.2A3.65,3.65,0,0,1,959.1,2048Z" fill="#fff"/>
              </g>
            </g>
            <g id="Group_1869" data-name="Group 1869">
              <g id="Group_1868" data-name="Group 1868">
                <path id="Path_785" data-name="Path 785" d="M959.1,2048.5a4.225,4.225,0,0,1-4.2-4.2v-39.2a4.2,4.2,0,0,1,8.4,0v39.2A4.225,4.225,0,0,1,959.1,2048.5Zm0-46.5a3.116,3.116,0,0,0-3.1,3.1v39.2a3.1,3.1,0,0,0,6.2,0v-39.2A3.254,3.254,0,0,0,959.1,2002Z" fill="#010101"/>
              </g>
            </g>
          </g>
          <g id="Group_1875" data-name="Group 1875">
            <g id="Group_1872" data-name="Group 1872">
              <g id="Group_1871" data-name="Group 1871">
                <circle id="Ellipse_32" data-name="Ellipse 32" cx="2.2" cy="2.2" r="2.2" transform="translate(919.4 2043)" fill="#fff"/>
              </g>
            </g>
            <g id="Group_1874" data-name="Group 1874">
              <g id="Group_1873" data-name="Group 1873">
                <path id="Path_786" data-name="Path 786" d="M921.6,2048a2.8,2.8,0,0,1,0-5.6,2.862,2.862,0,0,1,2.8,2.8A2.8,2.8,0,0,1,921.6,2048Zm0-4.4a1.7,1.7,0,1,0,1.7,1.7A1.752,1.752,0,0,0,921.6,2043.6Z" fill="#010101"/>
              </g>
            </g>
          </g>
          <g id="Group_1880" data-name="Group 1880">
            <g id="Group_1877" data-name="Group 1877">
              <g id="Group_1876" data-name="Group 1876">
                <circle id="Ellipse_33" data-name="Ellipse 33" cx="2.2" cy="2.2" r="2.2" transform="translate(956.9 2041.7)" fill="#fff"/>
              </g>
            </g>
            <g id="Group_1879" data-name="Group 1879">
              <g id="Group_1878" data-name="Group 1878">
                <path id="Path_787" data-name="Path 787" d="M959.1,2046.7a2.8,2.8,0,0,1,0-5.6,2.8,2.8,0,0,1,0,5.6Zm0-4.5a1.7,1.7,0,1,0,1.7,1.7A1.752,1.752,0,0,0,959.1,2042.2Z" fill="#010101"/>
              </g>
            </g>
          </g>
          <g id="Group_1911" data-name="Group 1911">
            <g id="Group_1885" data-name="Group 1885">
              <g id="Group_1882" data-name="Group 1882">
                <g id="Group_1881" data-name="Group 1881">
                  <path id="Path_788" data-name="Path 788" d="M955.1,2253.7s-25.9,12.8-24.8,17.1,41.9,2.1,42.2,1.4,0-9.8,0-9.8l-11.1-8Z" fill="#fff"/>
                </g>
              </g>
              <g id="Group_1884" data-name="Group 1884">
                <g id="Group_1883" data-name="Group 1883">
                  <path id="Path_789" data-name="Path 789" d="M949.7,2273.9c-3.5,0-6.8-.1-9.5-.2-8.8-.5-10.2-1.8-10.5-2.8-.4-1.3.5-3.9,12.2-10.8,6.3-3.7,12.8-6.9,12.9-7,.1,0,.2-.1.3-.1l6.3.7a.367.367,0,0,1,.3.1l11.1,8a.759.759,0,0,1,.2.4c.1,2.8.3,9.3,0,10.1-.1.3-.3.8-12,1.3C957,2273.8,953.2,2273.9,949.7,2273.9Zm5.5-19.7c-17.5,8.7-24.8,14.8-24.3,16.4,0,.1.1.2.6.5,5.7,2.9,37.3,1.3,40.5.7.1-1.2,0-5.8-.1-9.1l-10.8-7.7Z" fill="#010101"/>
                </g>
              </g>
            </g>
            <g id="Group_1890" data-name="Group 1890">
              <g id="Group_1887" data-name="Group 1887">
                <g id="Group_1886" data-name="Group 1886">
                  <path id="Path_790" data-name="Path 790" d="M955.1,2244.4v9.3s3.7-.1,5.6,5.3,11.8,3.4,11.8,3.4v-18Z" fill="#fff"/>
                </g>
              </g>
              <g id="Group_1889" data-name="Group 1889">
                <g id="Group_1888" data-name="Group 1888">
                  <path id="Path_791" data-name="Path 791" d="M968.5,2263.3c-3.2,0-7.2-.7-8.4-4.2-1.7-4.9-4.9-4.9-5-4.9a.707.707,0,0,1-.6-.6v-9.3a.645.645,0,0,1,.6-.6h17.4a.645.645,0,0,1,.6.6v18a.634.634,0,0,1-.5.6A27.161,27.161,0,0,1,968.5,2263.3Zm-12.8-10.2c1.2.2,4,1.1,5.5,5.6,1.5,4.3,8.8,3.4,10.7,3.1V2245H955.7Z" fill="#010101"/>
                </g>
              </g>
            </g>
            <g id="Group_1895" data-name="Group 1895">
              <g id="Group_1892" data-name="Group 1892">
                <g id="Group_1891" data-name="Group 1891">
                  <path id="Path_792" data-name="Path 792" d="M972.5,2272.2a15.038,15.038,0,0,0,.1-2.7h0c-5,.4-32.2,1.8-34.3-.9-2.1-2.8-4-2.7-4-2.7-2.6,2-4.3,3.8-4,4.9C931.4,2275,972.2,2272.9,972.5,2272.2Z" fill="#fff"/>
                </g>
              </g>
              <g id="Group_1894" data-name="Group 1894">
                <g id="Group_1893" data-name="Group 1893">
                  <path id="Path_793" data-name="Path 793" d="M949.7,2273.9c-3.5,0-6.8-.1-9.5-.2-8.8-.5-10.2-1.8-10.5-2.8-.4-1.3,1-3.1,4.2-5.5a.367.367,0,0,1,.3-.1c.1,0,2.3,0,4.5,2.9.3.4,2.2,1.5,15.6,1.4,7.6-.1,15.5-.5,18.2-.7.2,0,.3,0,.4.2a.759.759,0,0,1,.2.4c0,2.5-.1,2.8-.2,2.9-.1.3-.3.8-12,1.3C957,2273.8,953.2,2273.9,949.7,2273.9Zm-15.3-7.5c-3.6,2.8-3.7,3.9-3.6,4.2,0,.1.1.2.6.5,5.7,2.9,37.3,1.3,40.5.7a16.011,16.011,0,0,1,.1-1.7c-4.5.3-31.8,1.9-34.2-1.2A5.342,5.342,0,0,0,934.4,2266.4Z" fill="#010101"/>
                </g>
              </g>
            </g>
            <g id="Group_1900" data-name="Group 1900">
              <g id="Group_1897" data-name="Group 1897">
                <g id="Group_1896" data-name="Group 1896">
                  <line id="Line_32" data-name="Line 32" x2="5" y2="5.2" transform="translate(947.3 2254.8)" fill="#fff"/>
                </g>
              </g>
              <g id="Group_1899" data-name="Group 1899">
                <g id="Group_1898" data-name="Group 1898">
                  <path id="Path_794" data-name="Path 794" d="M952.3,2260.5a.759.759,0,0,1-.4-.2l-5-5.1a.566.566,0,0,1,.8-.8l5,5.1a.608.608,0,0,1,0,.8C952.6,2260.5,952.5,2260.5,952.3,2260.5Z" fill="#010101"/>
                </g>
              </g>
            </g>
            <g id="Group_1905" data-name="Group 1905">
              <g id="Group_1902" data-name="Group 1902">
                <g id="Group_1901" data-name="Group 1901">
                  <line id="Line_33" data-name="Line 33" x2="5" y2="5.1" transform="translate(944.8 2256.5)" fill="#fff"/>
                </g>
              </g>
              <g id="Group_1904" data-name="Group 1904">
                <g id="Group_1903" data-name="Group 1903">
                  <path id="Path_795" data-name="Path 795" d="M949.8,2262.2a.759.759,0,0,1-.4-.2l-5-5.1a.566.566,0,0,1,.8-.8l5,5.1a.608.608,0,0,1,0,.8A.519.519,0,0,1,949.8,2262.2Z" fill="#010101"/>
                </g>
              </g>
            </g>
            <g id="Group_1910" data-name="Group 1910">
              <g id="Group_1907" data-name="Group 1907">
                <g id="Group_1906" data-name="Group 1906">
                  <line id="Line_34" data-name="Line 34" x2="5" y2="5.1" transform="translate(942.3 2258.1)" fill="#fff"/>
                </g>
              </g>
              <g id="Group_1909" data-name="Group 1909">
                <g id="Group_1908" data-name="Group 1908">
                  <path id="Path_796" data-name="Path 796" d="M947.3,2263.8a.759.759,0,0,1-.4-.2l-5-5.1a.566.566,0,0,1,.8-.8l5,5.1a.608.608,0,0,1,0,.8A.759.759,0,0,1,947.3,2263.8Z" fill="#010101"/>
                </g>
              </g>
            </g>
          </g>
          <g id="Group_1916" data-name="Group 1916">
            <g id="Group_1913" data-name="Group 1913">
              <g id="Group_1912" data-name="Group 1912">
                <path id="Path_797" data-name="Path 797" d="M931.9,1994c.2-.1,5.6-1.8,7.2-6.6" fill="#fff"/>
              </g>
            </g>
            <g id="Group_1915" data-name="Group 1915">
              <g id="Group_1914" data-name="Group 1914">
                <path id="Path_798" data-name="Path 798" d="M931.9,1994.6c-.2,0-.3-.1-.5-.2a.605.605,0,0,1,.1-.8c.1-.1.2-.1.4-.2,4.3-1.8,6-4.3,6.6-6.1a.57.57,0,0,1,1.1.3c-.7,2.1-2.6,4.9-7.3,6.8-.1,0-.1.1-.2.1C932.1,1994.6,932,1994.6,931.9,1994.6Z" fill="#010101"/>
              </g>
            </g>
          </g>
          <g id="Group_1930" data-name="Group 1930">
            <g id="Group_1921" data-name="Group 1921">
              <g id="Group_1918" data-name="Group 1918">
                <g id="Group_1917" data-name="Group 1917">
                  <path id="Path_799" data-name="Path 799" d="M919.2,2115.4h0a6.659,6.659,0,0,1-6.6-6.6v-6.1a6.659,6.659,0,0,1,6.6-6.6h0a6.659,6.659,0,0,1,6.6,6.6v6.1A6.659,6.659,0,0,1,919.2,2115.4Z" fill="#fff"/>
                </g>
              </g>
              <g id="Group_1920" data-name="Group 1920">
                <g id="Group_1919" data-name="Group 1919">
                  <path id="Path_800" data-name="Path 800" d="M919.2,2115.9a7.17,7.17,0,0,1-7.2-7.2v-6.1a7.2,7.2,0,0,1,14.4,0v6.1A7.3,7.3,0,0,1,919.2,2115.9Zm0-19.3a6.018,6.018,0,0,0-6,6v6.1a6,6,0,0,0,12,0v-6.1A6.018,6.018,0,0,0,919.2,2096.6Z" fill="#010101"/>
                </g>
              </g>
            </g>
            <g id="Group_1926" data-name="Group 1926">
              <g id="Group_1923" data-name="Group 1923">
                <g id="Group_1922" data-name="Group 1922">
                  <path id="Path_801" data-name="Path 801" d="M919.2,2096a5.849,5.849,0,1,0,0,11.6h0a6.607,6.607,0,0,0,6.6-5.8,6.849,6.849,0,0,0-6.6-5.8Z" fill="#fff"/>
                </g>
              </g>
              <g id="Group_1925" data-name="Group 1925">
                <g id="Group_1924" data-name="Group 1924">
                  <path id="Path_802" data-name="Path 802" d="M919.2,2108.2a7.138,7.138,0,0,1-7.1-6.3v-.1a7.151,7.151,0,0,1,14.2,0v.1A7.213,7.213,0,0,1,919.2,2108.2Zm-6-6.4a6.05,6.05,0,0,0,6,5.3,6.126,6.126,0,0,0,6-5.3,6.05,6.05,0,0,0-6-5.3A6.136,6.136,0,0,0,913.2,2101.8Z" fill="#010101"/>
                </g>
              </g>
            </g>
            <g id="Group_1929" data-name="Group 1929">
              <g id="Group_1928" data-name="Group 1928">
                <g id="Group_1927" data-name="Group 1927">
                  <circle id="Ellipse_34" data-name="Ellipse 34" cx="1" cy="1" r="1" transform="translate(918.2 2103.6)" fill="#010101"/>
                </g>
              </g>
            </g>
          </g>
        </g>
      </g>
      <g id="Group_1935" data-name="Group 1935">
        <g id="Group_1933" data-name="Group 1933">
          <rect id="Rectangle_490" data-name="Rectangle 490" width="109.8" height="179.8" transform="translate(713.8 2093.5)" fill="#fff"/>
        </g>
        <g id="Group_1934" data-name="Group 1934">
          <path id="Path_803" data-name="Path 803" d="M823.6,2273.9H713.8a.645.645,0,0,1-.6-.6V2093.5a.645.645,0,0,1,.6-.6H823.6a.645.645,0,0,1,.6.6v179.8A.576.576,0,0,1,823.6,2273.9Zm-109.2-1.1H823V2094.1H714.4Z" fill="#010101"/>
        </g>
      </g>
      <g id="Group_1938" data-name="Group 1938">
        <g id="Group_1936" data-name="Group 1936">
          <rect id="Rectangle_491" data-name="Rectangle 491" width="109.8" height="8" transform="translate(713.8 2093.5)" fill="#fff"/>
        </g>
        <g id="Group_1937" data-name="Group 1937">
          <path id="Path_804" data-name="Path 804" d="M823.6,2102.2H713.8a.645.645,0,0,1-.6-.6v-8a.645.645,0,0,1,.6-.6H823.6a.645.645,0,0,1,.6.6v8A.645.645,0,0,1,823.6,2102.2ZM714.4,2101H823v-6.9H714.4Z" fill="#010101"/>
        </g>
      </g>
      <g id="Group_1957" data-name="Group 1957">
        <g id="Group_1941" data-name="Group 1941">
          <g id="Group_1939" data-name="Group 1939">
            <rect id="Rectangle_492" data-name="Rectangle 492" width="65.3" height="15.9" transform="translate(736.1 2085.6)" fill="#fff"/>
          </g>
          <g id="Group_1940" data-name="Group 1940">
            <path id="Path_805" data-name="Path 805" d="M801.3,2102.1H736a.645.645,0,0,1-.6-.6v-15.9a.645.645,0,0,1,.6-.6h65.3a.645.645,0,0,1,.6.6v15.9A.645.645,0,0,1,801.3,2102.1Zm-64.7-1.2h64.1v-14.8H736.6Z" fill="#010101"/>
          </g>
        </g>
        <g id="Group_1956" data-name="Group 1956">
          <g id="Group_1943" data-name="Group 1943">
            <g id="Group_1942" data-name="Group 1942">
              <path id="Path_806" data-name="Path 806" d="M751.1,2096.8a4.227,4.227,0,0,1-2-.5,2.122,2.122,0,0,1-1-1.3l1.8-1a1.291,1.291,0,0,0,1.3.9c.5,0,.7-.1.7-.4,0-.1,0-.1-.1-.2,0-.1-.1-.1-.2-.1s-.2-.1-.3-.1-.2-.1-.4-.1-.3-.1-.4-.1c-1.4-.4-2.1-1.2-2.1-2.3a1.865,1.865,0,0,1,.7-1.6,2.884,2.884,0,0,1,1.9-.6,2.727,2.727,0,0,1,1.6.4,3.179,3.179,0,0,1,1.1,1.2l-1.7,1a1.053,1.053,0,0,0-1-.8c-.2,0-.3,0-.4.1a.368.368,0,0,0-.1.3c0,.2.1.3.2.3a4.649,4.649,0,0,0,.9.3,6.891,6.891,0,0,1,.8.3,5.751,5.751,0,0,1,.7.4,2.645,2.645,0,0,1,.5.6,2.922,2.922,0,0,1,.2.9,2.136,2.136,0,0,1-.8,1.7A2.108,2.108,0,0,1,751.1,2096.8Z" fill="#010101"/>
            </g>
          </g>
          <g id="Group_1945" data-name="Group 1945">
            <g id="Group_1944" data-name="Group 1944">
              <path id="Path_807" data-name="Path 807" d="M759.4,2089.5v2h-1.7v5.2h-2.1v-5.2H754v-2Z" fill="#010101"/>
            </g>
          </g>
          <g id="Group_1947" data-name="Group 1947">
            <g id="Group_1946" data-name="Group 1946">
              <path id="Path_808" data-name="Path 808" d="M763.7,2096.7l-.2-.9h-2.1l-.2.9H759l2.3-7.2h2.4l2.3,7.2Zm-1.9-2.6H763l-.6-2.2Z" fill="#010101"/>
            </g>
          </g>
          <g id="Group_1949" data-name="Group 1949">
            <g id="Group_1948" data-name="Group 1948">
              <path id="Path_809" data-name="Path 809" d="M770,2096.7l-1.1-2.3h-.5v2.3h-2.1v-7.2h2.9a2.883,2.883,0,0,1,2,.7,2.172,2.172,0,0,1,.8,1.8,2.662,2.662,0,0,1-.3,1.2,3.043,3.043,0,0,1-.8.8l1.4,2.7Zm-1.6-5.3v1.3h.8c.2,0,.4,0,.5-.2a.7.7,0,0,0-.5-1.2h-.8Z" fill="#010101"/>
            </g>
          </g>
          <g id="Group_1951" data-name="Group 1951">
            <g id="Group_1950" data-name="Group 1950">
              <path id="Path_810" data-name="Path 810" d="M777.6,2089.5v2h-1.7v5.2h-2.1v-5.2h-1.7v-2Z" fill="#010101"/>
            </g>
          </g>
          <g id="Group_1953" data-name="Group 1953">
            <g id="Group_1952" data-name="Group 1952">
              <path id="Path_811" data-name="Path 811" d="M783.2,2096.1a3.5,3.5,0,0,1-4.2,0,2.561,2.561,0,0,1-.8-1.9v-4.8h2.1v4.6c0,.5.3.8.9.8s.9-.3.9-.8v-4.6h2.1v4.8A3.469,3.469,0,0,1,783.2,2096.1Z" fill="#010101"/>
            </g>
          </g>
          <g id="Group_1955" data-name="Group 1955">
            <g id="Group_1954" data-name="Group 1954">
              <path id="Path_812" data-name="Path 812" d="M787.8,2089.5a2.64,2.64,0,0,1,1.9.7,2.6,2.6,0,0,1-1.9,4.5H787v2h-2.1v-7.2h2.9Zm0,3.2a.6.6,0,0,0,0-1.2H787v1.2h.8Z" fill="#010101"/>
            </g>
          </g>
        </g>
      </g>
      <g id="Group_1964" data-name="Group 1964">
        <g id="Group_1960" data-name="Group 1960">
          <g id="Group_1958" data-name="Group 1958">
            <rect id="Rectangle_493" data-name="Rectangle 493" width="87.5" height="14.3" transform="translate(724.1 2115.4)" fill="#010101"/>
          </g>
          <g id="Group_1959" data-name="Group 1959">
            <path id="Path_813" data-name="Path 813" d="M811.5,2130.2H724a.645.645,0,0,1-.6-.6v-14.3a.645.645,0,0,1,.6-.6h87.5a.645.645,0,0,1,.6.6v14.3A.576.576,0,0,1,811.5,2130.2Zm-86.9-1.2H811v-13.1H724.7V2129Z" fill="#010101"/>
          </g>
        </g>
        <g id="Group_1963" data-name="Group 1963">
          <g id="Group_1961" data-name="Group 1961">
            <rect id="Rectangle_494" data-name="Rectangle 494" width="84.8" height="10.8" transform="translate(724.1 2115.4)" fill="#fff"/>
          </g>
          <g id="Group_1962" data-name="Group 1962">
            <path id="Path_814" data-name="Path 814" d="M808.9,2126.8H724.1a.645.645,0,0,1-.6-.6v-10.8a.645.645,0,0,1,.6-.6h84.8a.645.645,0,0,1,.6.6v10.8C809.4,2126.5,809.2,2126.8,808.9,2126.8Zm-84.3-1.2h83.7v-9.7H724.6Z" fill="#010101"/>
          </g>
        </g>
      </g>
      <g id="Group_1971" data-name="Group 1971">
        <g id="Group_1967" data-name="Group 1967">
          <g id="Group_1965" data-name="Group 1965">
            <rect id="Rectangle_495" data-name="Rectangle 495" width="87.5" height="14.3" transform="translate(724.1 2137)" fill="#010101"/>
          </g>
          <g id="Group_1966" data-name="Group 1966">
            <path id="Path_815" data-name="Path 815" d="M811.5,2151.8H724a.645.645,0,0,1-.6-.6V2137a.645.645,0,0,1,.6-.6h87.5a.645.645,0,0,1,.6.6v14.3C812.1,2151.6,811.9,2151.8,811.5,2151.8Zm-86.9-1.1H811v-13.1H724.7v13.1Z" fill="#010101"/>
          </g>
        </g>
        <g id="Group_1970" data-name="Group 1970">
          <g id="Group_1968" data-name="Group 1968">
            <rect id="Rectangle_496" data-name="Rectangle 496" width="84.8" height="10.8" transform="translate(724.1 2137)" fill="#fff"/>
          </g>
          <g id="Group_1969" data-name="Group 1969">
            <path id="Path_816" data-name="Path 816" d="M808.9,2148.4H724.1a.645.645,0,0,1-.6-.6V2137a.645.645,0,0,1,.6-.6h84.8a.645.645,0,0,1,.6.6v10.8Q809.35,2148.4,808.9,2148.4Zm-84.3-1.1h83.7v-9.7H724.6Z" fill="#010101"/>
          </g>
        </g>
      </g>
      <g id="Group_1978" data-name="Group 1978">
        <g id="Group_1974" data-name="Group 1974">
          <g id="Group_1972" data-name="Group 1972">
            <rect id="Rectangle_497" data-name="Rectangle 497" width="87.5" height="14.3" transform="translate(724.1 2158.7)" fill="#010101"/>
          </g>
          <g id="Group_1973" data-name="Group 1973">
            <path id="Path_817" data-name="Path 817" d="M811.5,2173.5H724a.645.645,0,0,1-.6-.6v-14.3a.645.645,0,0,1,.6-.6h87.5a.645.645,0,0,1,.6.6v14.3A.576.576,0,0,1,811.5,2173.5Zm-86.9-1.1H811v-13.1H724.7v13.1Z" fill="#010101"/>
          </g>
        </g>
        <g id="Group_1977" data-name="Group 1977">
          <g id="Group_1975" data-name="Group 1975">
            <rect id="Rectangle_498" data-name="Rectangle 498" width="84.8" height="10.8" transform="translate(724.1 2158.7)" fill="#fff"/>
          </g>
          <g id="Group_1976" data-name="Group 1976">
            <path id="Path_818" data-name="Path 818" d="M808.9,2170.1H724.1a.645.645,0,0,1-.6-.6v-10.8a.645.645,0,0,1,.6-.6h84.8a.645.645,0,0,1,.6.6v10.8C809.4,2169.8,809.2,2170.1,808.9,2170.1Zm-84.3-1.2h83.7v-9.7H724.6Z" fill="#010101"/>
          </g>
        </g>
      </g>
      <g id="Group_1985" data-name="Group 1985">
        <g id="Group_1981" data-name="Group 1981">
          <g id="Group_1979" data-name="Group 1979">
            <rect id="Rectangle_499" data-name="Rectangle 499" width="87.5" height="14.3" transform="translate(724.1 2180.3)" fill="#010101"/>
          </g>
          <g id="Group_1980" data-name="Group 1980">
            <path id="Path_819" data-name="Path 819" d="M811.5,2195.1H724a.645.645,0,0,1-.6-.6v-14.3a.645.645,0,0,1,.6-.6h87.5a.645.645,0,0,1,.6.6v14.3A.53.53,0,0,1,811.5,2195.1Zm-86.9-1.1H811v-13.1H724.7V2194Z" fill="#010101"/>
          </g>
        </g>
        <g id="Group_1984" data-name="Group 1984">
          <g id="Group_1982" data-name="Group 1982">
            <rect id="Rectangle_500" data-name="Rectangle 500" width="84.8" height="10.8" transform="translate(724.1 2180.3)" fill="#fff"/>
          </g>
          <g id="Group_1983" data-name="Group 1983">
            <path id="Path_820" data-name="Path 820" d="M808.9,2191.7H724.1a.645.645,0,0,1-.6-.6v-10.8a.645.645,0,0,1,.6-.6h84.8a.645.645,0,0,1,.6.6v10.8Q809.35,2191.7,808.9,2191.7Zm-84.3-1.1h83.7v-9.7H724.6Z" fill="#010101"/>
          </g>
        </g>
      </g>
      <g id="Group_1992" data-name="Group 1992">
        <g id="Group_1988" data-name="Group 1988">
          <g id="Group_1986" data-name="Group 1986">
            <rect id="Rectangle_501" data-name="Rectangle 501" width="87.5" height="14.3" transform="translate(724.1 2202)" fill="#010101"/>
          </g>
          <g id="Group_1987" data-name="Group 1987">
            <path id="Path_821" data-name="Path 821" d="M811.5,2216.8H724a.645.645,0,0,1-.6-.6V2202a.645.645,0,0,1,.6-.6h87.5a.645.645,0,0,1,.6.6v14.3A.562.562,0,0,1,811.5,2216.8Zm-86.9-1.1H811v-13.1H724.7v13.1Z" fill="#010101"/>
          </g>
        </g>
        <g id="Group_1991" data-name="Group 1991">
          <g id="Group_1989" data-name="Group 1989">
            <rect id="Rectangle_502" data-name="Rectangle 502" width="84.8" height="10.8" transform="translate(724.1 2202)" fill="#fff"/>
          </g>
          <g id="Group_1990" data-name="Group 1990">
            <path id="Path_822" data-name="Path 822" d="M808.9,2213.4H724.1a.645.645,0,0,1-.6-.6V2202a.645.645,0,0,1,.6-.6h84.8a.645.645,0,0,1,.6.6v10.8C809.4,2213.1,809.2,2213.4,808.9,2213.4Zm-84.3-1.2h83.7v-9.7H724.6Z" fill="#010101"/>
          </g>
        </g>
      </g>
      <g id="Group_1999" data-name="Group 1999">
        <g id="Group_1995" data-name="Group 1995">
          <g id="Group_1993" data-name="Group 1993">
            <rect id="Rectangle_503" data-name="Rectangle 503" width="87.5" height="14.3" transform="translate(724.1 2223.6)" fill="#010101"/>
          </g>
          <g id="Group_1994" data-name="Group 1994">
            <path id="Path_823" data-name="Path 823" d="M811.5,2238.5H724a.645.645,0,0,1-.6-.6v-14.3a.645.645,0,0,1,.6-.6h87.5a.645.645,0,0,1,.6.6v14.3A.576.576,0,0,1,811.5,2238.5Zm-86.9-1.2H811v-13.1H724.7v13.1Z" fill="#010101"/>
          </g>
        </g>
        <g id="Group_1998" data-name="Group 1998">
          <g id="Group_1996" data-name="Group 1996">
            <rect id="Rectangle_504" data-name="Rectangle 504" width="84.8" height="10.8" transform="translate(724.1 2223.6)" fill="#fff"/>
          </g>
          <g id="Group_1997" data-name="Group 1997">
            <path id="Path_824" data-name="Path 824" d="M808.9,2235H724.1a.645.645,0,0,1-.6-.6v-10.8a.645.645,0,0,1,.6-.6h84.8a.645.645,0,0,1,.6.6v10.8Q809.35,2235,808.9,2235Zm-84.3-1.1h83.7v-9.7H724.6Z" fill="#010101"/>
          </g>
        </g>
      </g>
      <g id="Group_2002" data-name="Group 2002">
        <g id="Group_2000" data-name="Group 2000">
          <rect id="Rectangle_505" data-name="Rectangle 505" width="38.1" height="89.9" transform="translate(823.6 2183.4)" fill="#fff"/>
        </g>
        <g id="Group_2001" data-name="Group 2001">
          <path id="Path_825" data-name="Path 825" d="M861.7,2273.9H823.6a.645.645,0,0,1-.6-.6v-89.9a.645.645,0,0,1,.6-.6h38.1a.645.645,0,0,1,.6.6v89.9A.576.576,0,0,1,861.7,2273.9Zm-37.5-1.1h36.9V2184H824.2Z" fill="#010101"/>
        </g>
      </g>
      <g id="Group_2009" data-name="Group 2009">
        <g id="Group_2005" data-name="Group 2005">
          <g id="Group_2003" data-name="Group 2003">
            <rect id="Rectangle_506" data-name="Rectangle 506" width="12.9" height="14.3" transform="translate(834.5 2194.9)" fill="#010101"/>
          </g>
          <g id="Group_2004" data-name="Group 2004">
            <path id="Path_826" data-name="Path 826" d="M847.5,2209.7H834.6a.645.645,0,0,1-.6-.6v-14.3a.645.645,0,0,1,.6-.6h12.9a.645.645,0,0,1,.6.6v14.3C848,2209.4,847.8,2209.7,847.5,2209.7Zm-12.4-1.2h11.8v-13.1H835.1Z" fill="#010101"/>
          </g>
        </g>
        <g id="Group_2008" data-name="Group 2008">
          <g id="Group_2006" data-name="Group 2006">
            <rect id="Rectangle_507" data-name="Rectangle 507" width="9.4" height="10.8" transform="translate(834.5 2194.9)" fill="#fff"/>
          </g>
          <g id="Group_2007" data-name="Group 2007">
            <path id="Path_827" data-name="Path 827" d="M843.9,2206.3h-9.4a.645.645,0,0,1-.6-.6v-10.8a.645.645,0,0,1,.6-.6h9.4a.645.645,0,0,1,.6.6v10.8A.576.576,0,0,1,843.9,2206.3Zm-8.8-1.2h8.3v-9.7h-8.3Z" fill="#010101"/>
          </g>
        </g>
      </g>
      <g id="Group_2016" data-name="Group 2016">
        <g id="Group_2012" data-name="Group 2012">
          <g id="Group_2010" data-name="Group 2010">
            <rect id="Rectangle_508" data-name="Rectangle 508" width="12.9" height="14.3" transform="translate(834.5 2216.5)" fill="#010101"/>
          </g>
          <g id="Group_2011" data-name="Group 2011">
            <path id="Path_828" data-name="Path 828" d="M847.5,2231.3H834.6a.645.645,0,0,1-.6-.6v-14.3a.645.645,0,0,1,.6-.6h12.9a.645.645,0,0,1,.6.6v14.3Q847.95,2231.3,847.5,2231.3Zm-12.4-1.1h11.8v-13.1H835.1Z" fill="#010101"/>
          </g>
        </g>
        <g id="Group_2015" data-name="Group 2015">
          <g id="Group_2013" data-name="Group 2013">
            <rect id="Rectangle_509" data-name="Rectangle 509" width="9.4" height="10.8" transform="translate(834.5 2216.5)" fill="#fff"/>
          </g>
          <g id="Group_2014" data-name="Group 2014">
            <path id="Path_829" data-name="Path 829" d="M843.9,2227.9h-9.4a.645.645,0,0,1-.6-.6v-10.8a.645.645,0,0,1,.6-.6h9.4a.645.645,0,0,1,.6.6v10.8A.53.53,0,0,1,843.9,2227.9Zm-8.8-1.1h8.3v-9.7h-8.3Z" fill="#010101"/>
          </g>
        </g>
      </g>
      <g id="Group_2023" data-name="Group 2023">
        <g id="Group_2019" data-name="Group 2019">
          <g id="Group_2017" data-name="Group 2017">
            <rect id="Rectangle_510" data-name="Rectangle 510" width="12.9" height="14.3" transform="translate(834.5 2238.2)" fill="#010101"/>
          </g>
          <g id="Group_2018" data-name="Group 2018">
            <path id="Path_830" data-name="Path 830" d="M847.5,2253H834.6a.645.645,0,0,1-.6-.6v-14.3a.645.645,0,0,1,.6-.6h12.9a.645.645,0,0,1,.6.6v14.3C848,2252.7,847.8,2253,847.5,2253Zm-12.4-1.2h11.8v-13.1H835.1Z" fill="#010101"/>
          </g>
        </g>
        <g id="Group_2022" data-name="Group 2022">
          <g id="Group_2020" data-name="Group 2020">
            <rect id="Rectangle_511" data-name="Rectangle 511" width="9.4" height="10.8" transform="translate(834.5 2238.2)" fill="#fff"/>
          </g>
          <g id="Group_2021" data-name="Group 2021">
            <path id="Path_831" data-name="Path 831" d="M843.9,2249.6h-9.4a.645.645,0,0,1-.6-.6v-10.8a.645.645,0,0,1,.6-.6h9.4a.645.645,0,0,1,.6.6V2249A.576.576,0,0,1,843.9,2249.6Zm-8.8-1.2h8.3v-9.7h-8.3Z" fill="#010101"/>
          </g>
        </g>
      </g>
    </g>
  </g>
</svg>
