<svg xmlns="http://www.w3.org/2000/svg" viewBox="0 0 780 120"><defs><clipPath id="a"><path fill="#364fc7" d="M0 0h780v120H0z" opacity=".24" transform="translate(-1194 5483)"/></clipPath><clipPath id="b"><path fill="#0b7285" d="M0 0h780v390H0z"/></clipPath><clipPath id="c"><path fill="#0b7285" d="M0 0h780v390H0z" opacity=".36"/></clipPath></defs><path fill="#e3fafc" d="M0 0h780v120H0z"/><g clip-path="url(#a)" opacity=".8" transform="translate(1194 -5483)"><g opacity=".24"><g clip-path="url(#b)" transform="translate(-1194 5440)"><path fill="#0b7285" d="M234.66 352.94l13.06-13.05.82.83-13.05 13.05zM247.72 352.95l13.05-13.05.83.83-13.05 13.05zM260.78 352.92l13.06-13.06.82.83-13.05 13.05zM273.84 352.9l13.06-13.05.82.83-13.05 13.05zM286.9 352.97l13.05-13.05.83.82-13.05 13.05z"/></g><g clip-path="url(#b)" transform="translate(-1194 5440)"><path fill="#0b7285" d="M460.85 274.94l13.06-13.05.82.82-13.05 13.06zM473.92 274.96l13.05-13.06.83.83-13.06 13.05zM486.97 274.91l13.06-13.05.82.83-13.05 13.05zM500.03 274.9l13.05-13.06.83.83-13.05 13.05zM513.1 274.96l13.06-13.05.83.82-13.06 13.05z"/></g><g clip-path="url(#b)" transform="translate(-1194 5440)"><path fill="#0b7285" d="M578.86 170.22L842.32-93.24l.92.92-263.46 263.46z"/></g><g clip-path="url(#b)" transform="translate(-1194 5440)"><path fill="#0b7285" d="M656.22 123.42l263.45-263.45.92.91-263.45 263.46z"/></g><g clip-path="url(#b)" transform="translate(-1194 5440)"><path fill="#0b7285" d="M285.05 582.32L548.5 318.86l.92.92-263.45 263.46z"/></g><g clip-path="url(#b)" transform="translate(-1194 5440)"><path fill="#0b7285" d="M362.4 535.52l263.45-263.46.92.92-263.45 263.46z"/></g><g clip-path="url(#b)" transform="translate(-1194 5440)"><path fill="#0b7285" d="M26.36 113L289.8-150.45l.92.91L27.28 113.92z"/></g><g clip-path="url(#b)" transform="translate(-1194 5440)"><path fill="#0b7285" d="M103.7 66.2l263.46-263.45.92.92L104.63 67.12z"/></g><g clip-path="url(#b)" transform="translate(-1194 5440)"><path fill="#0b7285" d="M38.94 366.05L302.39 102.6l.92.92L39.86 366.97z"/></g><g clip-path="url(#b)" transform="translate(-1194 5440)"><path fill="#0b7285" d="M27.3 357.25L290.74 93.8l.92.92L28.2 358.17z"/></g><g clip-path="url(#b)" opacity=".49" transform="translate(-1194 5440)"><path fill="#0b7285" d="M-59.54 146.64l-13.26 22.94a66.94 66.94 0 0113.26-22.94zM-48.69 136.76l-27.23 47.13c.2-1.7.39-3.38.71-5.07l22.49-38.94c1.3-1.04 2.6-2.08 4.03-3.12zM-40.69 131.75l-35.55 61.62c0-.78-.07-1.56-.07-2.4v-1.37l32.37-56.03c1.1-.64 2.15-1.3 3.25-1.81zM-33.67 128.5l-41.86 72.55-.39-3.12 39.39-68.19c.91-.45 1.89-.85 2.86-1.24zM-27.3 126.36l-46.93 81.25c-.26-.91-.46-1.82-.65-2.73l44.91-77.74 2.67-.78zM-21.39 125l-51.09 88.46c-.26-.78-.58-1.63-.78-2.4l49.4-85.55c.78-.19 1.63-.38 2.47-.51zM-15.8 124.22l-54.53 94.44c-.32-.72-.65-1.43-.91-2.15l53.1-92.04c.79-.06 1.57-.19 2.35-.25zM-10.47 123.89l-57.46 99.58c-.39-.65-.71-1.3-1.04-1.95l56.3-97.5c.7-.07 1.42-.07 2.2-.13zM-5.4 124.02l-59.92 103.74c-.4-.58-.78-1.17-1.17-1.82l58.95-102.05c.71.07 1.43.07 2.15.13zM-.52 124.48l-61.94 107.31a16.1 16.1 0 01-1.24-1.69l61.1-105.88a20.19 20.19 0 012.08.26zM4.16 125.25l-63.63 110.18-1.3-1.5L2.2 124.87zM8.71 126.3L-56.23 238.8l-1.36-1.36 64.41-111.6c.59.12 1.24.32 1.89.45zM13 127.66l-65.91 114.2a13.57 13.57 0 01-1.43-1.3l65.52-113.49c.65.2 1.23.4 1.82.59zM17.22 129.28L-49.4 244.72c-.52-.39-1.04-.78-1.5-1.17l66.37-114.98c.59.26 1.17.52 1.76.72zM21.26 131.23l-67.02 116.03c-.52-.33-1.04-.71-1.56-1.04l66.89-115.83c.58.26 1.1.52 1.69.84zM25.15 133.38l-67.08 116.16c-.58-.33-1.1-.65-1.62-.98l67.08-116.22c.52.39 1.1.72 1.62 1.04zM28.92 135.78l-66.88 115.83a13.66 13.66 0 01-1.69-.84l67.01-116.02c.46.32 1.05.65 1.56 1.03zM32.5 138.45l-66.36 114.92c-.59-.26-1.17-.46-1.76-.72L31 137.28c.52.39.98.78 1.5 1.17zM35.94 141.37l-65.58 113.56c-.59-.2-1.24-.39-1.82-.65l65.97-114.2c.46.45.92.84 1.43 1.3zM39.2 144.56l-64.42 111.6a15.94 15.94 0 01-1.88-.52l64.93-112.45c.45.46.97.91 1.37 1.37zM42.31 148.07L-20.6 257.14l-1.95-.39 63.57-110.18a14.28 14.28 0 011.3 1.5zM45.3 151.84l-61.1 105.89-2.07-.2 61.94-107.31 1.24 1.62zM48.03 156l-58.95 102.05c-.72 0-1.43-.07-2.15-.07l59.93-103.73c.4.52.79 1.17 1.18 1.75zM50.57 160.49l-56.29 97.5c-.72.06-1.5.06-2.21.06l57.46-99.52c.32.65.72 1.3 1.04 1.95zM52.84 165.49l-53.1 92.04c-.78.13-1.56.2-2.34.26l54.54-94.44c.32.65.58 1.36.9 2.14zM54.8 170.95L5.4 256.49c-.85.2-1.63.39-2.47.52L54 168.55a14.85 14.85 0 01.79 2.4zM56.42 177.06L11.51 254.8c-.85.26-1.76.58-2.67.78l46.93-81.25c.26.91.45 1.82.65 2.73zM57.53 184.02l-39.4 68.24c-.97.46-1.88.85-2.85 1.24l41.86-72.54.39 3.06zM57.85 190.97v1.36l-32.37 56.1a52.3 52.3 0 01-3.25 1.82l35.62-61.62zM57.52 198.06c-.2 1.69-.39 3.38-.71 5.07l-22.49 38.93c-1.3 1.1-2.67 2.15-4.03 3.19zM54.4 212.36a66.63 66.63 0 01-13.26 23z"/></g><g clip-path="url(#b)" transform="translate(-1194 5440)"><path fill="#0b7285" d="M668.98 360.3l-39.72-39.72 39.72-39.71 39.71 39.71zm-37.9-39.72l37.9 37.9 37.9-37.9-37.9-37.9z"/></g><g clip-path="url(#b)" transform="translate(-1194 5440)"><path fill="#0b7285" d="M203.9 155.22L162.9 114.2l41.02-41.01 41.01 41.02zm-39.2-41.02l39.2 39.2 39.2-39.2L203.9 75z"/></g><g clip-path="url(#b)" transform="translate(-1194 5440)"><path fill="#0b7285" d="M170.75 333.32l-18.26-18.26 18.26-18.27 18.27 18.27zm-16.44-18.26l16.45 16.44 16.44-16.45-16.44-16.44z"/></g><g clip-path="url(#b)" transform="translate(-1194 5440)"><path fill="#0b7285" d="M626.4 79.17l-18.26-18.26 18.26-18.27 18.27 18.27zm-16.44-18.26l16.44 16.44 16.45-16.44-16.45-16.45z"/></g><g clip-path="url(#b)" transform="translate(-1194 5440)"><path fill="#0b7285" d="M702.26 222.37l-12.74-12.74 12.74-12.74L715 209.63zm-10.92-12.8l10.92 10.92 10.92-10.93-10.92-10.92z"/></g><g clip-path="url(#b)" transform="translate(-1194 5440)"><path fill="#0b7285" d="M273.26 241.21l-12.74-12.74 12.74-12.74L286 228.47zm-10.92-12.8l10.92 10.92 10.92-10.92-10.92-10.92z"/></g><g clip-path="url(#c)" transform="translate(-1194 5440)"><path fill="#0b7285" d="M417.88 116.48a114.34 114.34 0 0024.18-8.84A117.28 117.28 0 00507.4 2.46V.06h-53.82c0 .78.07 1.63.07 2.4a63.57 63.57 0 01-127.14 0c0-.84 0-1.62.06-2.4h-53.82v2.4a117.39 117.39 0 0090.87 114.34 118.97 118.97 0 0025.61 3h.84a119.38 119.38 0 0027.82-3.32z" opacity=".36"/></g><g clip-path="url(#b)" transform="translate(-1194 5440)"><path fill="#0b7285" d="M428.87 0h-77.74a38.87 38.87 0 0077.74 0z" opacity=".21"/></g><g clip-path="url(#b)" transform="translate(-1194 5440)"><path fill="#0b7285" d="M390 130.78a1.3 1.3 0 011.3 1.3 1.3 1.3 0 01-1.3 1.3 1.3 1.3 0 01-1.3-1.3 1.4 1.4 0 011.3-1.3zm0-13.07a1.3 1.3 0 011.3 1.3 1.3 1.3 0 01-1.3 1.3 1.3 1.3 0 01-1.3-1.3 1.4 1.4 0 011.3-1.3zm0-13.06a1.3 1.3 0 011.3 1.3 1.3 1.3 0 01-1.3 1.3 1.3 1.3 0 01-1.3-1.3 1.4 1.4 0 011.3-1.3zm0-13.07a1.3 1.3 0 011.3 1.3 1.3 1.3 0 01-1.3 1.3 1.3 1.3 0 01-1.3-1.3 1.4 1.4 0 011.3-1.3zm0-13.06a1.3 1.3 0 011.3 1.3 1.3 1.3 0 01-1.3 1.3 1.3 1.3 0 01-1.3-1.3 1.35 1.35 0 011.3-1.3zm0-13.13a1.3 1.3 0 011.3 1.3 1.3 1.3 0 01-1.3 1.3 1.3 1.3 0 01-1.3-1.3 1.4 1.4 0 011.3-1.3zm0-13.07a1.3 1.3 0 011.3 1.3 1.3 1.3 0 01-1.3 1.3 1.3 1.3 0 01-1.3-1.3 1.4 1.4 0 011.3-1.3zm0-13.06a1.3 1.3 0 011.3 1.3 1.3 1.3 0 01-1.3 1.3 1.3 1.3 0 01-1.3-1.3 1.4 1.4 0 011.3-1.3zm0-13.07a1.3 1.3 0 011.3 1.3 1.3 1.3 0 01-1.3 1.3 1.3 1.3 0 01-1.3-1.3 1.4 1.4 0 011.3-1.3zm0-13.06a1.3 1.3 0 011.3 1.3 1.3 1.3 0 01-1.3 1.3 1.3 1.3 0 01-1.3-1.3 1.35 1.35 0 011.3-1.3zM390 0a1.3 1.3 0 011.3 1.3 1.3 1.3 0 01-1.3 1.3 1.3 1.3 0 01-1.3-1.3A1.4 1.4 0 01390 0z"/></g><g clip-path="url(#b)" transform="translate(-1194 5440)"><path fill="#0b7285" d="M496.93 120.65a140.72 140.72 0 10140.72 140.72 140.7 140.7 0 00-140.72-140.72zm0 248.43a107.64 107.64 0 11107.64-107.64 107.65 107.65 0 01-107.64 107.64z" opacity=".21"/></g><g clip-path="url(#b)" transform="translate(-1194 5440)"><path fill="#0b7285" d="M496.92 168.82a92.56 92.56 0 1092.56 92.56 92.6 92.6 0 00-92.56-92.56zm0 163.4a70.78 70.78 0 1170.85-70.84 70.78 70.78 0 01-70.85 70.85z" opacity=".21"/></g><g clip-path="url(#b)" transform="translate(-1194 5440)"><path fill="#0b7285" d="M755.63 126.75a86.78 86.78 0 1086.77 86.78 86.8 86.8 0 00-86.77-86.78zm0 153.2a66.36 66.36 0 1166.36-66.36 66.36 66.36 0 01-66.36 66.36z" opacity=".21"/></g><g clip-path="url(#b)" transform="translate(-1194 5440)"><path fill="#0b7285" d="M755.63 156.46a57.07 57.07 0 1057.07 57.07 57.06 57.06 0 00-57.07-57.08zm0 100.75a43.68 43.68 0 1143.68-43.68 43.7 43.7 0 01-43.69 43.67z" opacity=".21"/></g></g></g></svg>