<svg xmlns="http://www.w3.org/2000/svg" viewBox="0 0 152 118.5"><path fill="#327578" d="M149.08 64.35H90.27a2.92 2.92 0 01-2.92-2.92V5.29a2.9 2.9 0 012.86-2.92h58.87A2.92 2.92 0 01152 5.29v56.14a2.92 2.92 0 01-2.92 2.92z"/><path fill="#b7e2e6" d="M90.27 62.55a1.11 1.11 0 01-1.12-1.12V9.76a1.11 1.11 0 011.12-1.12h58.87a1.11 1.11 0 011.12 1.12v51.73a1.11 1.11 0 01-1.12 1.12z"/><g transform="translate(91.1 11.4)"><circle cx="1.3" cy="1.3" r="1.3" fill="#fff" transform="translate(36.52 3.6)"/><circle cx="1.3" cy="1.3" r="1.3" fill="#fff" transform="translate(40.62 3.6)"/><circle cx="1.3" cy="1.3" r="1.3" fill="#7aafb4" transform="translate(44.9 3.6)"/><path fill="#7aafb4" d="M51.6 4.9a1.31 1.31 0 01-1.3 1.3A1.35 1.35 0 0149 4.9a1.3 1.3 0 012.62 0z"/><circle cx="1.3" cy="1.3" r="1.3" fill="#7aafb4" transform="translate(53.1 3.6)"/><path fill="#fff" d="M39.13 11.12a1.27 1.27 0 01-1.3 1.3 1.31 1.31 0 01-1.3-1.3 1.37 1.37 0 011.29-1.37 1.26 1.26 0 011.3 1.37zM43.22 11.12a1.27 1.27 0 01-1.3 1.3 1.31 1.31 0 01-1.3-1.3 1.37 1.37 0 011.3-1.37 1.26 1.26 0 011.3 1.37z"/><path fill="#7aafb4" d="M47.57 11.11a1.3 1.3 0 11-2.6 0 1.27 1.27 0 011.3-1.3 1.31 1.31 0 011.3 1.3zM51.6 11.11a1.3 1.3 0 01-2.6 0 1.3 1.3 0 012.6 0zM55.7 11.11a1.3 1.3 0 01-2.6 0 1.3 1.3 0 012.6 0z"/><circle cx="1.3" cy="1.3" r="1.3" fill="#fff" transform="translate(36.52 16.02)"/><circle cx="1.3" cy="1.3" r="1.3" fill="#fff" transform="translate(40.62 16.02)"/><circle cx="1.3" cy="1.3" r="1.3" fill="#7aafb4" transform="translate(44.9 16.02)"/><path fill="#7aafb4" d="M51.6 17.32a1.3 1.3 0 01-2.6 0 1.3 1.3 0 012.6 0z"/><circle cx="1.3" cy="1.3" r="1.3" fill="#7aafb4" transform="translate(53.1 16.02)"/><circle cx="1.3" cy="1.3" r="1.3" fill="#fff" transform="translate(36.52 22.23)"/><circle cx="1.3" cy="1.3" r="1.3" fill="#fff" transform="translate(40.62 22.23)"/><circle cx="1.3" cy="1.3" r="1.3" fill="#7aafb4" transform="translate(44.9 22.23)"/><path fill="#7aafb4" d="M51.6 23.53a1.3 1.3 0 01-2.6 0 1.3 1.3 0 012.6 0z"/><circle cx="1.3" cy="1.3" r="1.3" fill="#7aafb4" transform="translate(53.1 22.23)"/><path fill="#fff" d="M6.33 1.18L5.4.25A.8.8 0 004.78 0H1.06A1.09 1.09 0 000 1.06v4.03a1.05 1.05 0 001.06 1.06h6.4A1.05 1.05 0 008.5 5.09V2.3a.85.85 0 00-.87-.87h-.68a.8.8 0 01-.63-.25zM0 7.4h8.45v.92H0zM0 9.07h4.35V10H0z"/><path fill="#7aafb4" d="M6.33 13.17l-.93-.94a.8.8 0 00-.62-.24H1.06A1.05 1.05 0 000 13.04v4.04a1.05 1.05 0 001.06 1.06h6.4a1.05 1.05 0 001.05-1.06v-2.8a.85.85 0 00-.87-.86h-.68a1.1 1.1 0 01-.63-.25z"/><path fill="#fff" d="M0 19.38h8.45v.93H0zM0 21.05h4.35v.93H0zM6.33 25.15l-.93-.93a.8.8 0 00-.62-.25H1.06A1.05 1.05 0 000 25.03v4.04a1.05 1.05 0 001.06 1.05h6.4a1.05 1.05 0 001.05-1.05v-2.8a.85.85 0 00-.87-.87h-.68a1.1 1.1 0 01-.63-.25zM0 31.36h8.45v.93H0zM0 32.98h4.35v.93H0zM17.45 1.18l-.93-.93A.8.8 0 0015.9 0h-3.73a1.05 1.05 0 00-1.05 1.06v4.03a1.05 1.05 0 001.05 1.06h6.4a1.05 1.05 0 001.06-1.06V2.3a.85.85 0 00-.87-.87h-.68a.72.72 0 01-.63-.25zM11.12 7.4h8.45v.92h-8.45zM11.12 9.07h4.35V10h-4.35zM17.45 13.17l-.93-.94a.8.8 0 00-.62-.24h-3.73a1.05 1.05 0 00-1.05 1.05v4.04a1.05 1.05 0 001.05 1.06h6.4a1.05 1.05 0 001.06-1.06v-2.8a.85.85 0 00-.87-.86h-.68a1.1 1.1 0 01-.63-.25zM11.12 19.38h8.45v.93h-8.45zM11.12 21.05h4.35v.93h-4.35z"/><path fill="#69a9cc" d="M17.45 25.15l-.93-.93a.8.8 0 00-.62-.25h-3.73a1.05 1.05 0 00-1.05 1.06v4.04a1.05 1.05 0 001.05 1.05h6.4a1.05 1.05 0 001.06-1.05v-2.8a.85.85 0 00-.87-.87h-.68a.95.95 0 01-.63-.25z"/><path fill="#fff" d="M11.12 31.36h8.45v.93h-8.45zM11.12 32.98h4.35v.93h-4.35z"/></g><g transform="translate(136.45 3.95)"><circle cx="1.61" cy="1.61" r="1.61" fill="#7aafb4"/><circle cx="1.61" cy="1.61" r="1.61" fill="#7aafb4" transform="translate(4.84)"/><circle cx="1.61" cy="1.61" r="1.61" fill="#fdfeff" transform="translate(9.69)"/></g><path fill="#327578" d="M133.71 112.12H14.35a2.95 2.95 0 01-2.99-2.92V33a2.94 2.94 0 012.92-2.92h119.37a2.95 2.95 0 012.98 2.91v76.27a2.88 2.88 0 01-2.92 2.86z"/><path fill="#fff" d="M14.3 110.31a1.13 1.13 0 01-1.14-1.11V41.87a1.13 1.13 0 011.15-1.11h119.44a1.13 1.13 0 011.15 1.12v67.32a1.13 1.13 0 01-1.15 1.11H14.31z"/><path fill="#7aafb4" d="M122.66 33.8a1.61 1.61 0 101.62 1.62 1.64 1.64 0 00-1.62-1.62zm4.85 0a1.61 1.61 0 101.61 1.62 1.6 1.6 0 00-1.62-1.62zm4.84 0a1.6 1.6 0 00-1.62 1.62 1.57 1.57 0 001.62 1.61 1.6 1.6 0 001.61-1.61 1.6 1.6 0 00-1.61-1.62z"/><path fill="#b7e2e6" d="M26.7 57.71h-8.5a1.51 1.51 0 01-1.5-1.49v-8.57a1.51 1.51 0 011.5-1.49h8.57a1.51 1.51 0 011.49 1.5v8.56a1.57 1.57 0 01-1.56 1.5zM102.85 61.31H36.27a.95.95 0 01-.93-.93V47.15a.95.95 0 01.93-.93h66.58a.95.95 0 01.93.93v13.17a.97.97 0 01-.93 1zM112.16 79.14h17.77a.95.95 0 00.93-.93V47.15a.95.95 0 00-.93-.93h-17.77a.95.95 0 00-.93.93v31.06a.92.92 0 00.93.93zM112.16 107.9h17.77a.95.95 0 00.93-.94v-24.1a.95.95 0 00-.93-.93h-17.77a.95.95 0 00-.93.93v24.1a.92.92 0 00.93.93z"/><path fill="#7aafb4" d="M113.28 97.9v-7.77a1.37 1.37 0 011.3-1.36h12.86a1.33 1.33 0 011.3 1.36v7.76a1.37 1.37 0 01-1.3 1.37h-12.86a1.41 1.41 0 01-1.3-1.37z"/><path fill="#b7e2e6" d="M102.85 79.14H36.27a.95.95 0 01-.93-.93V64.98a.95.95 0 01.93-.93h66.58a.95.95 0 01.93.93v13.17a.97.97 0 01-.93.99zM102.85 107.9H36.27a.95.95 0 01-.93-.94v-24.1a.95.95 0 01.93-.93h66.58a.95.95 0 01.93.93v24.1a.95.95 0 01-.93.93z"/><path fill="#7aafb4" d="M19.55 66.62h-1.99a.82.82 0 01-.8-.8v-2a.82.82 0 01.8-.8h1.99a.82.82 0 01.8.8v2a.82.82 0 01-.8.8zM30.17 65.25h-8.01a.43.43 0 010-.87h8a.43.43 0 110 .87zM19.55 71.83h-1.99a.82.82 0 01-.8-.8v-1.99a.82.82 0 01.8-.8h1.99a.82.82 0 01.8.8v1.99a.82.82 0 01-.8.8zM30.17 70.47h-8.01a.43.43 0 010-.87h8a.42.42 0 01.44.44.52.52 0 01-.43.43zM19.55 77.05h-1.99a.82.82 0 01-.8-.8v-2a.82.82 0 01.8-.8h1.99a.82.82 0 01.8.8v2a.87.87 0 01-.8.8zM30.17 75.63h-8.01a.43.43 0 010-.87h8a.43.43 0 110 .87zM19.55 87.42h-1.99a.82.82 0 01-.8-.8v-1.99a.82.82 0 01.8-.8h1.99a.82.82 0 01.8.8v1.99a.82.82 0 01-.8.8zM30.17 86.06h-8.01a.43.43 0 010-.87h8a.43.43 0 110 .87zM19.55 92.64h-1.99a.82.82 0 01-.8-.8v-2a.82.82 0 01.8-.8h1.99a.82.82 0 01.8.8v2a.82.82 0 01-.8.8zM30.17 91.21h-8.01a.43.43 0 010-.86h8a.43.43 0 010 .86zM19.55 97.8h-1.99a.82.82 0 01-.8-.8v-2a.82.82 0 01.8-.8h1.99a.82.82 0 01.8.8V97a.82.82 0 01-.8.8zM30.17 96.43h-8.01a.43.43 0 010-.87h8a.43.43 0 110 .87z"/><path fill="#b7e2e6" d="M28.86 80.78H16.7a.43.43 0 010-.87h12.17a.42.42 0 01.44.44.52.52 0 01-.44.43zM28.86 59.97H16.7a.42.42 0 01-.43-.43.42.42 0 01.43-.43h12.17a.42.42 0 01.44.43.52.52 0 01-.44.44z"/><path fill="#fff" d="M38.28 50.5a1.38 1.38 0 01-1.37-1.36 1.38 1.38 0 011.37-1.37 1.38 1.38 0 011.37 1.37 1.34 1.34 0 01-1.37 1.37zM50.52 49.58H41.4a.43.43 0 010-.87h9.13a.43.43 0 110 .87zM58.17 50.5a1.38 1.38 0 01-1.36-1.36 1.38 1.38 0 011.36-1.37 1.38 1.38 0 011.37 1.37 1.38 1.38 0 01-1.37 1.37zM70.38 49.58h-9.12a.43.43 0 010-.87h9.12a.43.43 0 010 .87zM77.94 50.5a1.38 1.38 0 01-1.37-1.36 1.38 1.38 0 011.37-1.36 1.38 1.38 0 011.36 1.36 1.3 1.3 0 01-1.36 1.37z"/><path fill="#b7e2e6" d="M114.28 73.8a1.38 1.38 0 01-1.37-1.37 1.38 1.38 0 011.37-1.37 1.38 1.38 0 011.36 1.37 1.38 1.38 0 01-1.36 1.37z"/><path fill="#fff" d="M90.24 49.58h-9.13a.43.43 0 010-.87h9.13a.43.43 0 010 .87zM37.9 52.68h63.28v.25H37.9zM63.2 57.59H37.43a.43.43 0 010-.87h25.71a.42.42 0 01.43.43.35.35 0 01-.37.44z"/><path fill="#7aafb4" d="M42.42 73.05H39.5a1.33 1.33 0 01-1.3-1.36v-2.92a1.37 1.37 0 011.3-1.37h2.92a1.33 1.33 0 011.3 1.37v2.91a1.26 1.26 0 01-1.3 1.37zM74.24 68.64h-26.7a.43.43 0 010-.87h26.7a.42.42 0 01.44.44.52.52 0 01-.44.43z"/><path fill="#fff" d="M84.68 71H47.73a.43.43 0 110-.87h36.95a.42.42 0 01.43.44.52.52 0 01-.43.43z"/><path fill="#7aafb4" d="M42.42 91H39.5a1.33 1.33 0 01-1.3-1.36v-2.92a1.37 1.37 0 011.3-1.37h2.92a1.33 1.33 0 011.3 1.37v2.91a1.29 1.29 0 01-1.3 1.37zM117.2 57.65h-2.93a1.33 1.33 0 01-1.3-1.37v-2.92a1.37 1.37 0 011.3-1.36h2.92a1.33 1.33 0 011.3 1.36v2.92a1.33 1.33 0 01-1.3 1.37zM74.24 86.53h-26.7a.43.43 0 110-.87h26.7a.42.42 0 01.44.43.47.47 0 01-.44.44z"/><path fill="#fff" d="M84.68 88.89H47.73a.43.43 0 010-.87h36.95a.42.42 0 01.43.43.52.52 0 01-.43.44z"/><path fill="#8dc3c5" d="M20.8 37.34h-.74a1.51 1.51 0 01-1.5-1.49v-.8a1.51 1.51 0 011.5-1.5h.74a1.51 1.51 0 011.5 1.5v.74a1.52 1.52 0 01-1.5 1.55z"/><path fill="#fff" d="M64.84 37.34H26.33a.56.56 0 01-.56-.56v-2.67a.56.56 0 01.56-.56h38.5a.56.56 0 01.56.56v2.67a.6.6 0 01-.55.56z"/><path fill="#7aafb4" d="M98.52 105.66H40.26a1.33 1.33 0 01-1.3-1.37v-6.4a1.37 1.37 0 011.3-1.36H98.5a1.33 1.33 0 011.3 1.36v6.4a1.33 1.33 0 01-1.3 1.37zM123.9 85.78h-10.62a.43.43 0 010-.87h10.62a.43.43 0 110 .87zM123.9 50.07h-10.62a.43.43 0 010-.87h10.62a.43.43 0 110 .87z"/><path fill="#fff" d="M128.68 100.88h-15.27a.25.25 0 010-.5h15.27c.13 0 .19.06.25.18a.28.28 0 01-.25.32zM128.68 102.18h-15.27a.25.25 0 010-.5h15.27a.25.25 0 010 .5zM124.34 103.49H113.4a.25.25 0 010-.5h10.93a.25.25 0 110 .5zM128.8 52.87h-8.93a.25.25 0 110-.5h8.94c.12 0 .18.06.25.19 0 .25-.13.31-.25.31zM128.8 54.36h-8.93a.25.25 0 110-.5h8.94c.12 0 .18.06.25.19 0 .25-.13.31-.25.31zM124.34 55.91h-4.41a.25.25 0 010-.5h4.4c.13 0 .2.07.25.19-.06.19-.12.31-.24.31z"/><path fill="#7aafb4" d="M117.2 67.59h-2.93a1.33 1.33 0 01-1.3-1.37V63.3a1.37 1.37 0 011.3-1.37h2.92a1.33 1.33 0 011.3 1.37v2.92a1.37 1.37 0 01-1.3 1.37z"/><path fill="#fff" d="M128.8 62.8h-8.93a.25.25 0 110-.5h8.94c.12 0 .18.07.25.2 0 .24-.13.3-.25.3zM128.8 64.36h-8.93a.25.25 0 110-.5h8.94c.12 0 .18.06.25.19a.28.28 0 01-.25.31zM128.8 71.88h-12.23a.25.25 0 010-.5h12.24c.12 0 .18.06.25.18a.28.28 0 01-.25.31zM121.98 73.37h-5.4a.25.25 0 010-.5h5.4c.12 0 .18.06.25.18 0 .25-.13.32-.25.32zM114.28 78.08a1.38 1.38 0 01-1.37-1.36 1.38 1.38 0 011.37-1.37 1.38 1.38 0 011.36 1.37 1.3 1.3 0 01-1.36 1.36zM128.8 76.22h-12.23a.25.25 0 010-.5h12.24c.12 0 .18.06.25.19a.28.28 0 01-.25.31zM121.98 77.71h-5.4a.25.25 0 010-.5h5.4c.12 0 .18.07.25.19 0 .25-.13.31-.25.31zM124.34 65.85h-4.41a.25.25 0 010-.5h4.4c.13 0 .2.06.25.19-.06.25-.12.31-.24.31zM69.16 74.36h-21.6a.25.25 0 110-.5h21.6c.13 0 .2.06.25.18-.06.25-.12.32-.25.32zM69.16 75.91h-21.6a.25.25 0 010-.5h21.6c.13 0 .2.06.25.19-.06.19-.12.31-.25.31zM58.2 77.4H47.46a.25.25 0 110-.5H58.2c.13 0 .19.06.25.19-.06.18-.13.31-.25.31zM69.16 92.06h-21.6a.25.25 0 110-.5h21.6a.25.25 0 110 .5zM58.2 93.61H47.46a.25.25 0 110-.5H58.2c.13 0 .19.06.25.19-.06.19-.13.31-.25.31z"/><g><path fill="#dac09b" d="M37.9 103.96c0 .93.07 1.86.07 2.8 0 .5.06.93.06 1.42l.06 1.43v.12l-.25 1.68c-.06.56-.18 1.12-.25 1.68l-.37 3.35a.34.34 0 01-.68-.06c.06-1.12.06-2.23.06-3.41v-3.23l-.31-1.37a8.81 8.81 0 00-.31-1.37c-.19-.93-.38-1.8-.62-2.73a1.44 1.44 0 011.05-1.55 1.22 1.22 0 011.5.93v.31z"/><path fill="#dac09b" d="M35.92 104.15c-.19 1.05-.25 2.04-.38 3.1a27.23 27.23 0 00-.24 3.1c-.07 1.06-.13 2.12-.13 3.17-.06 1.06-.06 2.12-.12 3.17a.35.35 0 01-.38.31.3.3 0 01-.3-.31l-.2-3.17-.18-3.16-.25-3.1a47.07 47.07 0 00-.3-3.11 1.26 1.26 0 112.48-.38v.38z"/><path fill="#a78d63" d="M38.15 108.5h-4.72c-.68-3.24-.56-5.78.56-7.77h3.3a21.82 21.82 0 01.86 7.76z"/><path fill="#327578" d="M36.6 118h.25l.06-1.12.5 1.12h1.49v-.25c0-.5-.69-.56-1.18-.56l-1.18-1.43c-.44.56.06 1.18.06 2.24zM34.24 118h1.24a1.77 1.77 0 000-.81c-.3-.06-.3-.93-.5-1.43h-.74a4.54 4.54 0 000 2.24z"/><path fill="#dac09b" d="M36.6 115.76l.43-.25.75 1.62zM34.3 115.76l.13 1.43h.68l-.06-1.43c-.06-.13-.75-.13-.75 0z"/><path fill="#327578" d="M39.64 92.66l-2.23.93-1.12.5-1.12.56a.6.6 0 00-.31.87.62.62 0 00.8.3c.38-.18.81-.3 1.19-.5l1.05-.5c.75-.3 1.5-.68 2.3-1.05z"/><path fill="#327578" d="M43.99 88.62c-.12-.13-.31-.06-.44 0-.37.31-.74.68-1.11 1.05l-1.06 1.06-2.11 2.11.87.87c.62-.74 1.3-1.49 1.92-2.3l.94-1.18.93-1.18c.25-.06.25-.31.06-.43z"/><path fill="#dac09b" d="M43.18 88.12l.38-.62a.32.32 0 01.24-.12l.56-.13c.19-.06.38.13.44.32v.18l-.31 1a.67.67 0 01-.87.43c-.06 0-.13-.06-.19-.06a.72.72 0 01-.25-1z"/><path fill="#327578" d="M37.22 100.73l.56-6.02a.77.77 0 00-.8-.75h-3.24a.8.8 0 00-.8.68l.99 6.03h3.3z"/><path fill="#fff" d="M57.34 90.3l-13.66 13.66a1.2 1.2 0 01-1.74 0l-5.77-5.78a1.2 1.2 0 010-1.74l13.66-13.66a1.2 1.2 0 011.74 0l5.77 5.78a1.2 1.2 0 010 1.74c.06-.07.06 0 0 0z"/><path fill="#7aafb4" d="M44.8 97.81l-2.05 2.05a1.35 1.35 0 01-1.87.06l-.06-.06-2.05-2.05a1.3 1.3 0 010-1.86l2.05-2.05a1.35 1.35 0 011.86-.06l.07.06 2.05 2.05a1.35 1.35 0 010 1.86z"/><g fill="#b7e2e6"><path d="M43.62 92.4a.23.23 0 01-.19-.05.28.28 0 010-.32l7.2-7.2a.28.28 0 01.31 0 .28.28 0 010 .32l-7.14 7.14c-.06.06-.12.06-.18.12zM44.49 93.22a.23.23 0 01-.19-.07.28.28 0 010-.3l7.14-7.15c.07-.12.19-.12.31 0 .13.06.13.19 0 .31l-7.14 7.15c0 .06-.06.06-.12.06zM45.36 94.09a.23.23 0 01-.19-.07.28.28 0 010-.3l7.14-7.2c.07-.13.19-.13.31 0 .13.05.13.18 0 .3l-7.14 7.2c-.06.07-.06.07-.12.07zM46.16 94.95a.23.23 0 01-.18-.06.28.28 0 010-.3l7.2-7.2a.22.22 0 11.3.3l-7.13 7.2c-.06 0-.12.06-.19.06zM47.03 95.76a.23.23 0 01-.18-.06.28.28 0 010-.31l7.2-7.14a.22.22 0 11.3.3l-7.13 7.15a.23.23 0 01-.19.06zM47.9 96.63a.23.23 0 01-.18-.06.28.28 0 010-.31l7.14-7.14a.22.22 0 11.31.3l-7.14 7.15c0 .06-.07.06-.13.06z"/></g><path fill="#fff" d="M35.3 95.02h1.3a.28.28 0 00.3-.25v-.8h-2.72a.06.06 0 00.06.05l.56.69c.06.25.25.3.5.3z"/><path fill="#327578" d="M34.05 94.7l1.3 4.66-.62-.43 3.6.06a.31.31 0 010 .62l-3.54.5a.55.55 0 01-.62-.37v-.06l-1.36-4.6a.55.55 0 01.43-.75.62.62 0 01.81.37z"/><path fill="#5f281b" d="M35.85 89.8v3.79h2.3c-1.3-1.37.25-3.48-1.3-4.66z"/><path fill="#dac09b" d="M38.65 99.61l.56-.37.18-.19.13-.5a.27.27 0 00-.25-.37h-.19l-.99.31a.63.63 0 00-.43.8.22.22 0 00.06.13.75.75 0 00.93.2zM35.1 93.96h.88V92.6l-1.06-.12z"/><path fill="#dac09b" d="M36.97 90.05c0-.62-.37-.93-1.3-.93-.87 0-1.3.37-1.3.93 0 .5-.06 1.36-.06 1.8a1.53 1.53 0 00.56 1.18 1.15 1.15 0 00.75.3 1.03 1.03 0 00.74-.3 1.53 1.53 0 00.56-1.18 5.78 5.78 0 00.05-1.8z"/><path fill="#5f281b" d="M34.92 88.25a2.27 2.27 0 011.56.18c.74.5.86 1.62-1.43 1.62a2.55 2.55 0 00-.38 1.49h-.37a6.38 6.38 0 01-.12-2.42 1.17 1.17 0 01.74-.87z"/><path fill="#5f281b" d="M33.56 93.59h1.92c-1.86-1.74 1-5.16-.68-5.16-1.43 0-2.05 2.92-1.24 5.16z"/><path fill="#dac09b" d="M34.05 90.92c-.12 0-.18.24-.12.5a.47.47 0 00.12.3l.19-.61a.2.2 0 00-.19-.2z"/><path fill="#462c23" d="M35.48 90.98h-.43c-.07 0-.07 0-.07-.06s0-.07.07-.07h.5c.06 0 .06 0 .06.07-.07.06-.07.06-.13.06zM36.79 90.98h-.44c-.06 0-.06 0-.06-.06s0-.07.06-.07h.5c.06 0 .06 0 .06.07s-.06.06-.12.06zM35.3 91.1c-.07 0-.13.13-.13.25s.06.25.12.25.13-.12.13-.25-.06-.25-.13-.25zM36.54 91.1c-.07 0-.13.13-.13.25s.07.25.13.25.12-.12.12-.25-.06-.25-.12-.25z"/><path fill="#c0a75c" d="M36.1 91.35a1 1 0 00.19.56v.13l-.25.06a.12.12 0 110-.25h.06l.25.06-.06.12a.61.61 0 01-.19-.68z"/><path fill="#fff" d="M36.41 92.4a.6.6 0 01-.8.2l-.19-.2z"/><path fill="#5f281b" d="M35.3 90.48a2.08 2.08 0 001.36-1.12l.25.2c-.19.55-.8.8-1.61.92z"/></g><g><path fill="#fff" d="M74.91 118a.13.13 0 00.13-.12V93.47a.12.12 0 00-.25 0v24.4c0 .07.06.07.12.13zM64.73 118c.06 0 .06-.06.12-.06l4.72-24.6c.07-.06 0-.12-.06-.12s-.12 0-.12.12l-4.78 24.47c0 .07 0 .13.12.19z"/><path fill="#fff" d="M70.13 118c.07 0 .07-.06.13-.06l4.78-24.53c0-.07 0-.13-.06-.13s-.13 0-.13.06l-4.84 24.47c-.06.07 0 .13.12.19z"/><path fill="#fff" d="M69.45 93.47h5.4a.13.13 0 00.12-.13.13.13 0 00-.12-.12h-5.4a.13.13 0 00-.12.12zM68.77 96.95h5.4a.12.12 0 000-.25h-5.4a.13.13 0 00-.13.12zM68.08 100.49h5.4a.12.12 0 100-.25h-5.4a.13.13 0 00-.12.12zM67.46 103.96h5.4a.12.12 0 100-.24h-5.4a.13.13 0 00-.12.12.13.13 0 00.12.12zM66.72 107.44h5.4a.12.12 0 000-.25h-5.4a.13.13 0 00-.13.13c.07.12.13.12.13.12zM66.1 110.98h5.34a.12.12 0 000-.25H66.1a.12.12 0 000 .25zM65.41 114.46h5.4a.12.12 0 100-.25h-5.4a.13.13 0 00-.12.13.13.13 0 00.12.12z"/><path fill="none" stroke="#327578" stroke-linecap="round" stroke-linejoin="round" stroke-miterlimit="10" d="M74.91 118a.13.13 0 00.13-.12h0V93.47a.12.12 0 00-.25 0v24.4c0 .07.06.07.12.13zM64.73 118c.06 0 .06-.06.12-.06l4.72-24.6c.07-.06 0-.12-.06-.12s-.12 0-.12.12l-4.78 24.47c0 .07 0 .13.12.19z"/><path fill="none" stroke="#327578" stroke-linecap="round" stroke-linejoin="round" stroke-miterlimit="10" d="M70.13 118c.07 0 .07-.06.13-.06l4.78-24.53c0-.07 0-.13-.06-.13s-.13 0-.13.06l-4.84 24.47c-.06.07 0 .13.12.19z"/><path fill="none" stroke="#327578" stroke-linecap="round" stroke-linejoin="round" stroke-miterlimit="10" d="M69.45 93.47h5.4a.13.13 0 00.12-.13.13.13 0 00-.12-.12h-5.4a.13.13 0 00-.12.12h0zM68.77 96.95h5.4a.12.12 0 000-.25h-5.4a.13.13 0 00-.13.12zM68.08 100.49h5.4a.12.12 0 100-.25h-5.4a.13.13 0 00-.12.12h0zM67.46 103.96h5.4a.12.12 0 100-.24h-5.4a.13.13 0 00-.12.12h0a.13.13 0 00.12.12zM66.72 107.44h5.4a.12.12 0 000-.25h-5.4a.13.13 0 00-.13.13h0c.07.12.13.12.13.12zM66.1 110.98h5.34a.12.12 0 000-.25H66.1a.12.12 0 000 .25zM65.41 114.46h5.4a.12.12 0 100-.25h-5.4a.13.13 0 00-.12.13h0a.13.13 0 00.12.12z"/></g><g><path fill="#82d6be" d="M72.66 74.88l3.29-1.67a.41.41 0 01.43.12.3.3 0 01-.06.43l-3.85 2.61c-.62.31-.8-.99.19-1.49z"/><path fill="#4dabf7" d="M67.56 72.58a.66.66 0 01.81-.18l3.42 2.3c1.11.68.99 1.3.62 1.55a.39.39 0 01-.5-.06l-4.22-2.74a.66.66 0 01-.13-.87z"/><path fill="#cdbe9e" d="M75.45 72.83l.56-.37a.37.37 0 01.25-.06l.56.06c.18.06.31.19.25.37a.22.22 0 01-.07.13l-.68.8a.68.68 0 01-.93.13c-.06-.06-.12-.13-.12-.19a.7.7 0 01.18-.87z"/><path fill="#327578" d="M72.81 92.2a.48.48 0 00.25.24c.43.19 1 .19 1.12.56l.06.25h-2.49l-.06-.87z"/><path fill="#dac09b" d="M71.75 91.82h.81l.25.37c-.5.5-.8.56-1.06.19zM68.96 95.36h.8l.25.43c.2.38-1.05.44-1.05 0z"/><path fill="#327578" d="M70.02 95.8l.06.12c.3.18.56.31.56.56v.25h-1.68v-.93c0-.2.8.18 1.06 0z"/><path fill="#ade0fc" d="M74.11 93.06v.19h-2.48v-.19zM70.64 96.54v.19h-1.68v-.19z"/><path fill="#a78d63" d="M74.86 86.04l-2.67-4.65a.99.99 0 00-1.24-.38.06.06 0 00-.07.06l-.43.32a.9.9 0 00-.31 1.24.06.06 0 00.06.06l1.99 3.04s.68.81 1.18 1.43a.96.96 0 001.3.13.97.97 0 00.19-1.25z"/><path fill="#a78d63" d="M74.36 85.61a.85.85 0 00-.99.56L71.63 92h1.18l2.11-5.28a.78.78 0 00-.5-1.06zM68.21 81.57l.13 3.48c0 1.18.06 2.36.12 3.48l.38 6.95h1.05l.25-6.89v-.87l.06-.87.13-1.74.24-3.47z"/><path fill="#a78d63" d="M68.84 82.57h3.23a.64.64 0 00.62-.69V80.7H68.2v1.18a.64.64 0 00.63.69z"/><path fill="#82d6be" d="M74.8 76.6l2.67-2.54a.3.3 0 01.43 0 .38.38 0 01.07.5l-2.92 3.54c-.44.43-1.06-.68-.25-1.5z"/><path fill="#82d6be" d="M72.19 72.57a.65.65 0 01.8.24l1.8 3.73c.63 1.18.25 1.68-.24 1.68a.63.63 0 01-.5-.31l-2.1-4.47a.67.67 0 01.24-.87z"/><path fill="#7aafb4" d="M78.28 65.67H89.2a1.87 1.87 0 011.86 1.87v5.09a1.97 1.97 0 01-1.86 1.93h-1.5v2.1l-2.1-2.1h-7.33a1.87 1.87 0 01-1.87-1.87v-5.1a1.88 1.88 0 011.87-1.92z"/><path fill="#d3fdf1" d="M79.64 68.47h8.26a.31.31 0 100-.62h-8.26a.31.31 0 000 .62zM79.64 70.27h8.26a.31.31 0 100-.62h-8.26a.31.31 0 000 .62zM79.64 72.07h8.26a.31.31 0 100-.62h-8.26a.31.31 0 000 .62z"/><path fill="#dac09b" d="M76.85 74l.12-.69a.47.47 0 01.12-.25l.44-.3a.39.39 0 01.5.05.23.23 0 01.06.2l.06 1.05a.69.69 0 01-.62.74h-.18a.71.71 0 01-.5-.8z"/><path fill="#82d6be" d="M72.69 82.2l.24-9.2a.95.95 0 00-.93-.93h-3.9a.95.95 0 00-.94.93l1 9.2z"/><g><path fill="#dac09b" d="M70.43 71.38a1.67 1.67 0 001.67-1.68v-1.05a1.67 1.67 0 00-1.67-1.68 1.67 1.67 0 00-1.68 1.68v1.05a1.67 1.67 0 001.68 1.68z"/><path fill="#dac09b" d="M69.43 70.63h1.43V72h-1.43z"/><path fill="#5f281b" d="M70.43 66.97a1.67 1.67 0 00-1.68 1.68v1.05a1.65 1.65 0 00.68 1.37.72.72 0 001.06-.19l.62-.86.62-2.49a1.7 1.7 0 00-1.3-.56z"/><path fill="#5f281b" d="M71.92 67.84a1.8 1.8 0 00-1.5-.87 1.67 1.67 0 00-1.67 1.68v.8h2.48c.5 0 .81-1.36.69-1.61z"/><path fill="#5f281b" d="M69.93 66.97c-.5-.43-1.74.06-1.93.56h.5a.7.7 0 00-.37.87c0 .06.06.12.12.18a1.1 1.1 0 01.44-.5.95.95 0 00-.13 1.06 1.35 1.35 0 00.31-.5.63.63 0 00.13.56 7.77 7.77 0 00.93-2.23z"/><path fill="#5f281b" d="M69.87 67.34c0-1.11 1.61-1.18 2.85-.3a5.82 5.82 0 00-.99-.26 1.6 1.6 0 011.18.81 1.27 1.27 0 01-.68 0 .85.85 0 01.5.62.8.8 0 01-.8-.3 2.18 2.18 0 01.36.86 2.76 2.76 0 00-1.36-.62 1.97 1.97 0 01.74.5 1.93 1.93 0 01-1.61-.37 1.1 1.1 0 01-.44.5c-.12-.32-.31-1.13.25-1.44z"/><path fill="#dac09b" d="M71.17 69.27a.13.13 0 00-.12.12v.5a.12.12 0 00.24 0v-.5a.13.13 0 00-.12-.12z"/></g></g><g><path fill="#a78d63" d="M6.92 66.79a.86.86 0 00-.93-.87h-.07a.9.9 0 00-.8 1v.06l.86 6.9h1.06z"/><path fill="#dac09b" d="M5.98 73.87v.25a.51.51 0 00.62.43.54.54 0 00.44-.56v-.18H5.98z"/><path fill="#a78d63" d="M5.86 60.14l-.62.07a.85.85 0 00-.8.93v.06l.74 5.78a.93.93 0 00.93.8 1 1 0 00.87-.93l-.13-5.84a.92.92 0 00-.99-.87z"/><path fill="#a78d63" d="M3.25 61.88h2.61a.98.98 0 001-1v-.92H2.31v.93a.93.93 0 00.93 1z"/><path fill="#a78d63" d="M3.81 60.14h-.62a1.07 1.07 0 00-1.06.94l-.68 5.83a.8.8 0 00.62.87h.19a1.12 1.12 0 001.05-.87l1.3-5.83a.88.88 0 00-.55-.94z"/><path fill="#dac09b" d="M.64 73.93v.13a.47.47 0 00.38.5h.06a.65.65 0 00.62-.5v-.13z"/><path fill="#a78d63" d="M3.25 66.85a.77.77 0 00-.5-.93h-.18a1.07 1.07 0 00-1.06.93l-.87 7.08H1.7z"/><path fill="#dac09b" d="M6.21 55.41h1.43l.13 2.11a.62.62 0 01-.56.68.64.64 0 01-.69-.62z"/><path fill="#fff" d="M7.52 52.5a.94.94 0 00-.93-.88.83.83 0 00-.74.93v.07l.36 2.91h1.44z"/><g fill="#dac09b"><path d="M7.7 58.24l4.35-3.36a.4.4 0 00.07-.56.34.34 0 00-.5-.12l-4.6 2.98a.61.61 0 00-.18.87.61.61 0 00.87.19z"/><path d="M12.43 55.2l.62-.38.18-.18.2-.56a.35.35 0 00-.26-.44H13l-1 .25a.62.62 0 00-.5.8c0 .07.06.13.06.2a.64.64 0 00.87.3z"/></g><path fill="#fff" d="M7.23 52.38a1.27 1.27 0 00-.87-1.18 8.04 8.04 0 00-4.54 0 1.1 1.1 0 00-.74 1.18c.37 2.48.8 5.03 1.24 7.76h4.53c.13-2.73.25-5.34.38-7.76z"/><path fill="#82d6be" d="M1.02 52.38c.18 1.12.5 3.04.68 4.72a17.96 17.96 0 010 4.47h1.99l.56-4.34L2.75 51a5.17 5.17 0 00-.93.25 1.09 1.09 0 00-.8 1.12zm5.21-1.18l-.87 5.96.5 4.41h1c.12-3.6.25-6.7.37-9.19a1.27 1.27 0 00-.87-1.18z"/><path fill="#327578" d="M8.03 61.51h8.57a1.51 1.51 0 001.5-1.49v-8.57a1.51 1.51 0 00-1.5-1.5H8.03a1.51 1.51 0 00-1.49 1.5v8.57a1.55 1.55 0 001.5 1.5z"/><path fill="#7aafb4" d="M11.2 58.6a5.51 5.51 0 00-.06-1.44 4.02 4.02 0 01-.5-.56 5.46 5.46 0 01-.62-2.23 2.58 2.58 0 01.18-1 1.38 1.38 0 01-.5-.8c1.18.3.87-1.12 2.67-1.12a2.31 2.31 0 011.74.8.63.63 0 01.13.57.83.83 0 01-.19.3 2.83 2.83 0 01.31 1.25 5.74 5.74 0 01-.62 2.23 2.14 2.14 0 01-.5.56 11 11 0 00-.06 1.43 12.85 12.85 0 001.43.25 3.25 3.25 0 01-4.6.37l-.36-.37c.68-.12 1.3-.19 1.55-.25z"/><path fill="#dac09b" d="M5.42 51.01A10.54 10.54 0 003 50.95l1.8 2.24A22.2 22.2 0 005.42 51z"/><g fill="#82d6be"><path d="M.52 55.1l1.36.31-.3 2.11a.73.73 0 01-.69.56.74.74 0 01-.56-.8z"/><path d="M2.38 52.5a.9.9 0 00-.68-1.06.88.88 0 00-.93.74v.06l-.25 2.92 1.36.31z"/></g><path fill="#a78d63" d="M.58 74.06H1.7c.13 0 .25-.07.25-.19l.06-.31c0-.06-.06-.19-.12-.19H.71c-.13 0-.25.06-.25.19l-.07.31a.2.2 0 00.2.19zM6.05 74.12l1.11-.06a.17.17 0 00.19-.19v-.37a.17.17 0 00-.19-.19H7.1l-1.12.06a.17.17 0 00-.19.19v.37c.07.06.13.19.26.19z"/><path fill="#dac09b" d="M3.73 51.13h.87v-1.17l-1-.13z"/><path fill="#327578" d="M5.28 47.04a17.32 17.32 0 010 1.8h.37a6.7 6.7 0 00.13-2.48z"/><path fill="#dac09b" d="M5.65 47.29c0-.56-.43-.93-1.3-.93s-1.3.37-1.3.93c0 .5-.07 1.37-.07 1.86a1.41 1.41 0 00.62 1.18 1.23 1.23 0 00.75.37 1.3 1.3 0 00.8-.3 1.6 1.6 0 00.63-1.19c0-.55-.13-1.43-.13-1.92z"/><path fill="#327578" d="M3.3 49.4l1.36-.25 1 .25a1.3 1.3 0 01-.5 1 1.83 1.83 0 01-.81.3 1.03 1.03 0 01-.75-.3 1.6 1.6 0 01-.62-1.19v-.37h.31zM3.73 45.61h1.3c.44 0 1.12-.06 1.12.44 0 .43-.37.93-1.24.93-.93 0-1.55-.25-1.67 0l.06 1.86h-.38a6.64 6.64 0 01-.12-2.48.99.99 0 01.93-.75z"/><path fill="#fff" d="M4.16 49.46a.43.43 0 00.87 0 2.05 2.05 0 01-.87 0z"/><path fill="#dac09b" d="M2.61 48.72c.06.25.25.5.37.5s.2-.25.13-.5-.31-.5-.44-.5-.18.19-.06.5z"/><path fill="#462c23" d="M4.16 48.1h-.5c-.06 0-.06 0-.06-.07s0-.06.06-.06h.5c.07 0 .07 0 .07.06s0 .07-.07.07zM5.53 48.1h-.5c-.06 0-.06 0-.06-.07s0-.06.06-.06h.5a.06.06 0 01.06.06zM4.04 48.4c0 .13-.06.25-.12.25s-.07-.06-.07-.24.07-.25.13-.25c.06.06.06.12.06.25zM5.34 48.4c0 .13-.06.25-.12.25s-.06-.06-.06-.24.06-.25.12-.25c.06.06.06.12.06.25z"/><path fill="#c0a75c" d="M4.72 48.34v.69h-.25a.12.12 0 000 .24l.5-.06v-.06z"/><path fill="#327578" d="M5.72 45.24c.06.12.06.31-.07.37-.06 0-.06.06-.12.06l-1.86.19s1.24-.5 1.74-.75a.47.47 0 01.3.13z"/><g fill="#dac09b"><path d="M.9 58.11l5.4.93c.2.06.38-.06.44-.3a.4.4 0 00-.3-.5l-5.22-1.37a.71.71 0 00-.8.43.68.68 0 00.5.8z"/><path d="M6.37 59.6l.69.25h.24l.5-.25a.33.33 0 00.13-.5c0-.06-.06-.06-.13-.12l-.87-.63a.68.68 0 00-.93.2v.11a.62.62 0 00.31.87.06.06 0 00.06.07z"/></g><path fill="#327578" d="M7.16 74.74a.48.48 0 00.25.25c.44.18 1 .18 1.12.56l.06.24H6.11v-.86z"/><path fill="#dac09b" d="M6.1 74.37c0-.38.7-.32.81 0l.25.37c-.5.5-.8.56-1.05.18z"/><path fill="#327578" d="M1.51 74.8q.1 0 .19.19c.31.12.5.3.43.56l-.06.24H.4l.2-.93.92-.06z"/><path fill="#dac09b" d="M.64 74.43c.06-.25.25-.38.44-.31a.33.33 0 01.3.3l.2.44c-.88-.18-1 .75-1.06 0z"/><path fill="#6cd6f6" d="M2.13 75.6l-.06.2H.4l.07-.2zM8.53 75.6l.06.2H6.05v-.2z"/></g><g fill="#0c8599"><path d="M.12 117.8a.13.13 0 00.13-.13v-41.8a.13.13 0 00-.13-.12.13.13 0 00-.12.13v41.8a.13.13 0 00.12.12z"/><path d="M.12 95.5h8.45a.12.12 0 000-.25H.12a.13.13 0 00-.12.13.13.13 0 00.12.12zM.12 103.14h8.45a.12.12 0 000-.25H.12a.12.12 0 000 .25zM.12 110.78h8.45a.12.12 0 100-.25H.12a.12.12 0 100 .25zM.12 99.1h8.45a.12.12 0 100-.24H.12a.12.12 0 100 .24zM.12 106.74h8.45a.12.12 0 100-.24H.12a.13.13 0 00-.12.12c0 .12.06.12.12.12zM.12 80.22h8.45a.12.12 0 000-.24H.12a.12.12 0 100 .24zM.12 76h8.45a.13.13 0 00.13-.12.13.13 0 00-.13-.13H.12a.13.13 0 00-.12.13.13.13 0 00.12.12zM.12 87.86h8.45a.12.12 0 000-.24H.12a.12.12 0 000 .24zM.12 83.83h8.45a.12.12 0 000-.25H.12a.12.12 0 100 .25zM.12 91.47h8.45a.12.12 0 000-.25H.12c-.06.06-.12.06-.12.12a.13.13 0 00.12.12z"/><path d="M8.57 117.8a.13.13 0 00.12-.13v-41.8a.12.12 0 00-.24 0v41.8a.13.13 0 00.12.13z"/></g><g transform="translate(42.54)"><path fill="#dac09b" d="M6.09 15.1v7.01l-.19 1.74a16.52 16.52 0 01-.19 1.74l-.12 1.74-.19 1.74h-.62a16.27 16.27 0 01-.06-1.74l-.06-1.74-.06-1.74-.07-1.74a1.06 1.06 0 00-.06-.43l-.12-.44-.06-.86-.19-1.74-.19-1.75-.18-1.74z"/><path fill="#dac09b" d="M4.04 15.22a15.38 15.38 0 01-.19 1.67l-.12 1.68-.19 1.68-.19 1.67V22l-.3 1.74a17.02 17.02 0 00-.32 1.73l-.37 1.74-.37 1.74-.62-.06c0-.62.06-1.18.06-1.8l.12-1.8c.06-.62.06-1.18.13-1.8l.12-1.8v-6.59z"/><path fill="#69a9cc" d="M4.16 20.37v-.13c0-.18-.06-.3-.06-.5-.06-.37-.06-.74-.13-1.11l-.18-1.74c0-.19-.06-.38-.06-.62a6 6 0 000-1.06v-.12l2.48-.12v5.46l-2.05-.06z"/><path fill="#69a9cc" d="M1.68 20.37v-5.4l2.48.12v.13c0 .37-.06.74-.06 1.11 0 .19-.06.38-.06.56l-.19 1.68c-.06.37-.06.74-.12 1.12a1.69 1.69 0 010 .55v.19z"/><path fill="#69a9cc" d="M2.3 16.27h3.23a.64.64 0 00.62-.68v-.62a.56.56 0 00-.56-.56H2.24a.56.56 0 00-.56.56v.62a.6.6 0 00.62.68z"/><path fill="#dac09b" d="M5.49 6.23L10.39 4V5.1L5.86 2.63a.36.36 0 01-.19-.44.44.44 0 01.38-.18L10.89 4a.55.55 0 01.31.74.75.75 0 01-.31.31L5.92 7.3a.64.64 0 01-.8-.31.63.63 0 01.37-.75z"/><path fill="#a78d63" d="M6.04 7.54a.78.78 0 01-.99-.44.77.77 0 01.31-1.12 15.17 15.17 0 011.5-.62L7.1 7.1z"/><path fill="#dac09b" d="M5.49 2.94l-.62-.31c-.06 0-.13-.06-.2-.12l-.18-.56a.32.32 0 01.19-.44h.19l.99.19a.64.64 0 01.56.74c0 .06-.06.13-.06.19a.62.62 0 01-.87.31z"/><path fill="#a78d63" d="M6.15 13.97l.25-7.45a.95.95 0 00-.94-.93H1.63a.95.95 0 00-.94.93l.94 7.4-.2 1.3h4.79z"/><path fill="#c0a75c" d="M2.73 5.65a.87.87 0 001.74 0H2.73zM2.92 5.65h1.12V4.53l-1.06-.18z"/><path fill="#15325c" d="M4.72 1.61a17.32 17.32 0 010 1.8h.31a4.32 4.32 0 00.25-2.3c-.19-.43-1-.43-1-.43z"/><path fill="#dac09b" d="M5.1 1.86q0-.93-1.3-.93t-1.3.93c0 .5-.07 1.37-.07 1.8A1.76 1.76 0 003 4.84a1.18 1.18 0 00.8.31 1.3 1.3 0 00.81-.3 1.53 1.53 0 00.56-1.19c0-.43-.07-1.3-.07-1.8z"/><path fill="#15325c" d="M2.73 3.42l.25.5 1.12-.19 1.06.12-.13.69a.76.76 0 01-.74.74h-.63a1.38 1.38 0 01-1.18-.8 2.15 2.15 0 01-.12-1.06zM2.73 1.61a17.32 17.32 0 000 1.8h-.3a5.75 5.75 0 01-.2-2.04z"/><path fill="#15325c" d="M5.28.93C5.22.56 4.78 0 3.42 0s-1.56 1.24-2.3 1.37a6.17 6.17 0 003.91.3l.31-.3c0-.19-.06-.31-.06-.44z"/><path fill="#fff" d="M3.6 3.98a.43.43 0 00.87 0 2.05 2.05 0 01-.87 0z"/><path fill="#c0a75c" d="M1.99 3.23c.06.25.25.5.37.5s.19-.24.12-.5-.24-.5-.37-.5-.18.25-.12.5z"/><ellipse cx=".12" cy=".25" fill="#462c23" rx=".12" ry=".25" transform="translate(3.23 2.73)"/><path fill="#462c23" d="M4.78 2.98c0 .12-.06.25-.12.25s-.13-.12-.13-.25.07-.25.13-.25.12.13.12.25z"/><path fill="#c0a75c" d="M4.1 2.86l.19.8c0 .07 0 .07-.07.07l-.3.06c-.07.06-.13 0-.2-.06a.13.13 0 01.13-.13l.31.06v.07z"/><path fill="#dac09b" d="M1.8 6.65A9.3 9.3 0 011.68 8c-.07.44-.07.94-.13 1.43a9.3 9.3 0 00-.12 1.37l-.19 1.36v3.66a7.92 7.92 0 01-.06 1.25.33.33 0 01-.31.3c-.13 0-.31-.12-.31-.24L.37 15.9c-.06-.44-.06-.8-.12-1.24s-.06-.8-.13-1.24L0 12.12v-.07l.12-1.37c.07-.5.07-.93.13-1.36l.18-1.37.2-1.43a.56.56 0 01.67-.56.61.61 0 01.5.69z"/><path fill="#a78d63" d="M.37 6.46a.77.77 0 01.87-.68.83.83 0 01.8.87c0 .8-.12 1.55-.18 2.3L0 8.2z"/><path fill="#dac09b" d="M.06 17.45v.75a.47.47 0 00.13.25l.43.3a.38.38 0 00.5 0 .23.23 0 00.06-.18l.25-1a.66.66 0 00-.5-.8H.74a.69.69 0 00-.68.68z"/><path fill="#6eb2d9" d="M6.27 20.37H4.1l-.12-1.05H6.2v1.05zM3.73 20.37H1.6l-.06-1.05h2.3z"/><g><path fill="#a78d63" d="M5.97 29.31a.51.51 0 01-.25-.37H4.66l-.06 1.18H7.1v-.25c0-.43-.69-.37-1.12-.56z"/><path fill="#255b5a" d="M5.29 29.81H4.6v.31H7.1V30h-1.3z"/><path fill="#fff" d="M5.84 29.25h-.12c-.06 0-.19-.06-.19-.12l-.18-.38c-.06-.06-.06-.12.06-.12h.12c.07 0 .19.06.19.12l.19.31c.06.13 0 .2-.07.2z"/></g><g><path fill="#a78d63" d="M2.3 29.31a.88.88 0 01-.13-.37h-.93l-.13 1.18H2.8v-.25c.06-.3-.19-.37-.5-.56z"/><path fill="#255b5a" d="M1.61 29.81h-.5v.31h1.74V30h-.93z"/><path fill="#fff" d="M2.17 29.25h-.25a.13.13 0 01-.12-.12l-.07-.38c-.06-.06 0-.12.07-.12h.3c.07 0 .13.06.2.12l.05.31c-.06.07-.06.13-.18.2z"/></g><path fill="#462c23" d="M3.66 2.6a.56.56 0 00-.62 0c-.06 0-.06.07-.06.13h.12a.68.68 0 01.5 0h.13c0-.06 0-.12-.07-.12zm1.37 0a.56.56 0 00-.62 0c-.06 0-.13.07-.06.13h.12a.68.68 0 01.5 0h.12c0-.06 0-.12-.06-.12z"/></g><g><path fill="#327578" d="M118.48 117.99a.35.35 0 01-.3-.38v-24.4a.3.3 0 01.3-.32.3.3 0 01.31.32v24.4a.31.31 0 01-.3.38z"/><g fill="#fff"><path d="M128.7 117.98a.28.28 0 01-.3-.25l-4.79-24.52a.35.35 0 01.68-.19l4.79 24.53a.27.27 0 01-.25.37h-.13zM123.3 117.98a.28.28 0 01-.31-.25l-4.78-24.52a.35.35 0 01.68-.19l4.78 24.53a.27.27 0 01-.25.37h-.12z"/></g><path fill="#fff" d="M123.95 93.45h-5.4a.3.3 0 01-.32-.3.35.35 0 01.31-.38h5.4a.3.3 0 01.32.31.35.35 0 01-.31.37zM124.57 96.93h-5.34a.31.31 0 010-.62h5.4a.3.3 0 01.3.31c0 .19-.12.31-.36.31zM125.31 100.47h-5.4a.31.31 0 010-.62h5.4a.31.31 0 110 .62zM125.94 103.95h-5.35a.31.31 0 010-.62h5.4a.3.3 0 01.32.31.35.35 0 01-.38.31zM126.62 107.49h-5.34a.31.31 0 110-.62h5.4a.3.3 0 01.3.31.35.35 0 01-.36.31zM127.3 110.97h-5.4a.31.31 0 010-.62h5.4a.3.3 0 01.31.3c.06.13-.12.32-.3.32zM127.98 114.45h-5.34a.31.31 0 110-.63h5.4a.3.3 0 01.31.32.35.35 0 01-.37.3z"/><path fill="#327578" d="M120.93 91.73a.48.48 0 01-.24.25c-.44.19-1 .19-1.12.56l-.06.25h2.48l-.06-.87z"/><path fill="#dac09b" d="M121.93 91.36h-.8l-.26.37c.5.5.81.56 1.06.19z"/><path fill="#327578" d="M123.6 95.46l-.06.12c-.3.19-.56.32-.56.56v.25h1.74v-.93z"/><path fill="#dac09b" d="M124.6 95.03h-.8l-.26.43c.87-.19.87.75 1.06 0z"/><path fill="#fff" d="M122.92 96.2v.2h1.74v-.2zM119.57 92.6l-.06.19h2.48v-.19z"/><path fill="#dfa570" d="M118.7 85.7l2.67-4.65a.99.99 0 011.24-.37.06.06 0 01.06.06l.44.31a.9.9 0 01.3 1.24.06.06 0 01-.05.07l-2 3.04s-.67.8-1.17 1.43a.96.96 0 01-1.3.12 1.16 1.16 0 01-.2-1.24z"/><path fill="#dfa570" d="M119.26 85.27a.73.73 0 01.93.56l1.86 5.72h-1.18l-2.23-5.16a.78.78 0 01.43-1.05c.06 0 .13-.07.19-.07zM125.4 81.24l-.12 3.48c-.06 1.18-.06 2.3-.18 3.47l-.37 6.96h-1.06l-.25-6.9v-.86l-.06-.87-.13-1.74-.25-3.48z"/><path fill="#dfa570" d="M124.79 82.23h-3.23a.64.64 0 01-.63-.68v-1.18h4.48v1.18a.64.64 0 01-.62.68z"/><path fill="#acd4d7" d="M121.68 73.04l-2.18 4.47a.55.55 0 01-.74.31c-.06-.06-.12-.06-.19-.18l-2.92-3.54a.39.39 0 01.07-.5.3.3 0 01.43 0l3.3 3.23-1 .18 2.11-4.47a.61.61 0 011.12.5z"/><path fill="#dac09b" d="M116.08 73.35l-.62-.37a.19.19 0 00-.24 0l-.5.12a.35.35 0 00-.25.44.22.22 0 00.06.12l.75.75a.76.76 0 001 0l.12-.13a.8.8 0 00-.32-.93z"/><path fill="#acd4d7" d="M120.93 81.8l-.24-9.2a.95.95 0 01.93-.93h3.85a.95.95 0 01.93.94l-1 9.19z"/><path fill="#fff" d="M125.22 71.61l-2.42 5.34-.93-5.34z"/><path fill="#dfa570" d="M122.8 76.95l.68-1.55-.25-2.55.5-.62-.5-.18-.5.18.38.62-.62 2.55z"/><g><path fill="#acd4d7" d="M126.59 72.67l.93 5.4v.06a.42.42 0 01-.18.5l-2.61 2.48a.38.38 0 01-.5 0 .3.3 0 010-.43l2.24-2.92-.13.56-.99-5.4a.64.64 0 01.5-.75.64.64 0 01.75.5z"/><path fill="#dac09b" d="M124.23 80.37l-.68-.25h-.25l-.5.25c-.19 0-.25.18-.19.37a.13.13 0 00.13.13l.8.62a.62.62 0 00.94-.13.2.2 0 00.06-.12.58.58 0 00-.31-.87z"/></g><g><path fill="#dac09b" d="M123.92 71.86c-.62.24-.93.18-.8-.32l.36-.98 1.06.24z"/><path fill="#fff" d="M123.23 72.05l-.99.06.5-.68.5-.25a.74.74 0 000 .87z"/><path fill="#fff" d="M123.17 72.05l.69.68.37-.68-.19-.5a1.36 1.36 0 01-.87.5z"/><path fill="#5f281b" d="M123.86 67.57c-.25.56-.44 1.12-.63 1.68l-.3-.12a6.43 6.43 0 01.68-2.36z"/><path fill="#dac09b" d="M123.42 67.7c.19-.56.68-.75 1.55-.5s1.12.8.93 1.37c-.18.43-.37 1.3-.62 1.74a1.4 1.4 0 01-.93.93 1.06 1.06 0 01-.87 0 .92.92 0 01-.62-.56 1.39 1.39 0 01-.12-1.3c.12-.44.5-1.25.68-1.68z"/><path fill="#5f281b" d="M125.78 66.77l-1.24-.44c-.44-.12-1.06-.43-1.18 0-.19.44 0 1.06.8 1.3.87.31 1.56.31 1.56.56a16.4 16.4 0 01-.62 1.68l.31.12a5.3 5.3 0 00.93-2.3c.12-.36-.19-.74-.56-.92z"/><path fill="#dac09b" d="M125.84 70c-.18.25-.37.37-.5.37s-.12-.31 0-.5c.19-.25.38-.37.5-.31.19 0 .13.25 0 .44z"/><path fill="#462c23" d="M124.54 68.94l.43.19c.07 0 .07 0 .07-.06s0-.07-.07-.07l-.37-.18c-.06-.06-.06 0-.06 0a.09.09 0 000 .12zM123.23 68.5l.44.2c.06 0 .06 0 .06-.07s0-.06-.06-.06l-.37-.25c-.07 0-.07 0-.07.06zM124.54 69.25c-.06.13 0 .25.06.25s.13 0 .13-.12 0-.25-.07-.25a.13.13 0 00-.12.12zM123.3 68.88c-.07.12 0 .25.06.25s.12-.06.18-.19 0-.25-.06-.25c-.06-.06-.12.07-.18.19z"/><path fill="#c0a75c" d="M123.98 68.94l-.31.8-.06-.12.3.07-.05.24-.31-.18h-.13l.06-.13z"/><path fill="#5f281b" d="M124.04 65.77a.3.3 0 00-.06.38c0 .06.06.06.12.06.56.31 1.68.8 1.68.8s-.93-.86-1.36-1.24a.4.4 0 00-.38 0z"/><path fill="#fff" d="M123.11 70.06a5.46 5.46 0 00.93.31c-.12.5-1.05.19-.93-.31z"/></g></g><g><path fill="#12b886" d="M69.11 29.85h3.04a.67.67 0 00.63-.63V27.3h-4.29v1.93a.59.59 0 00.62.62z"/><path fill="#e2dce0" d="M77 36.3a.34.34 0 00.18.32c.32.3.87.5.81.8v.25l-2.23-.74.3-.75z"/><path fill="#dac09b" d="M76.13 35.68l.68.07.19.56c-.56.3-.87.3-1-.13z"/><path fill="#e2dce0" d="M71.9 36.12l.07.12c.31.13.56.31.56.56v.25H70.9v-.87h1z"/><path fill="#12b886" d="M71.66 27.67l4.04 1h.06a.73.73 0 01.56.62l.62 6.46-.93.12-1.18-6.4.62.62-4.16-.3z"/><path fill="#dac09b" d="M70.91 35.75h.75l.25.37c-.87-.19-.87.68-1 0z"/><path fill="#12b886" d="M70.04 27.73l1.5.94.18.12a.74.74 0 01.31.56l-.25 6.46h-.93l-.31-6.4.43.68-1.73-.37z"/><path fill="#e2dce0" d="M72.53 36.87v.18h-1.68v-.18zM77.93 37.42v.19l-2.24-.68.07-.19z"/><path fill="#327578" d="M76.62 27.36l-2.6-2.6c-.5-.44-1.37.3-.88.8l3.05 2.3c.12.13.3.06.43 0a.38.38 0 000-.5z"/><path fill="#327578" d="M74.14 24.82l-1.3-4.97a.64.64 0 00-.75-.44.68.68 0 00-.44.75l1.43 5.28c.19.5 1.3.43 1.06-.62z"/><path fill="#dac09b" d="M76.5 27.99l.62.12a.37.37 0 00.25-.06l.43-.31a.33.33 0 00.13-.44c0-.06-.07-.06-.07-.12l-.8-.44a.73.73 0 00-.94.38v.06a.62.62 0 00.38.8z"/><path fill="#327578" d="M72.86 26.66l.05-6.34a1 1 0 00-.92-.93h-3.6a.85.85 0 00-.88.87v.06l1.06 6.34-.12 1.18 4.46-.38z"/><path fill="#fff" d="M71.12 19.4h-1.87c.81 1.73.81 4.65.63 8.25l2.23-.19c-.43-4.03.68-7.14-1-8.07z"/><path fill="#dac09b" d="M69.44 19.4a.85.85 0 00.87.86.82.82 0 00.8-.8h-1.67z"/><g><path fill="#327578" d="M68.5 20.15l-.07 5.46-.37-.56 3.41 1.67a.3.3 0 01-.18.56l-3.6-1.18a.42.42 0 01-.44-.43v-.06l.06-5.53a.61.61 0 01.62-.56.57.57 0 01.56.63z"/><path fill="#dac09b" d="M71.23 27.9l.62.2h.25l.5-.25a.32.32 0 00.18-.44c0-.06-.06-.06-.06-.12l-.74-.56a.68.68 0 00-.94.18c-.06.07-.06.07-.06.13a.55.55 0 00.25.8z"/></g><path fill="#dac09b" d="M69.67 19.41h1.12l-.06-1.05-1-.13z"/><g><path fill="#327578" d="M71.5 15.5a17.32 17.32 0 010 1.8h.31a4.32 4.32 0 00.25-2.3c-.18-.37-1-.43-1-.43z"/><path fill="#dac09b" d="M72 15.81q0-.93-1.3-.93t-1.3.93c0 .5-.07 1.37-.07 1.8a1.76 1.76 0 00.56 1.18 1.3 1.3 0 00.8.31 1.3 1.3 0 00.81-.3 1.53 1.53 0 00.56-1.19c0-.5-.06-1.36-.06-1.8z"/><path fill="#327578" d="M69.33 17.3v.31a1.76 1.76 0 00.56 1.18 1.3 1.3 0 00.8.31 1.3 1.3 0 00.81-.31 1.53 1.53 0 00.56-1.18v-.3l-.25.5h-1.86l-.37-.5zM69.58 15.5a17.32 17.32 0 000 1.8h-.31a5.75 5.75 0 01-.19-2.05z"/><path fill="#fff" d="M70.45 17.92a.42.42 0 00.43.44.52.52 0 00.44-.44 2.05 2.05 0 01-.87 0z"/><path fill="#dac09b" d="M68.83 17.18c.07.25.25.5.38.5s.18-.25.12-.5-.25-.5-.37-.5-.13.19-.13.5z"/><path fill="#462c23" d="M70.32 16.93c0 .12-.06.25-.12.25s-.06-.13-.06-.25.06-.25.12-.25a.64.64 0 01.06.25zM71.63 16.93c0 .12-.07.25-.13.25s-.12-.13-.12-.25.06-.25.12-.25.13.12.13.25z"/><path fill="#c0a75c" d="M70.94 16.8l.2.81c0 .06 0 .06-.07.06l-.31.07a.12.12 0 010-.25l.3.06-.05.06z"/><path fill="#327578" d="M69.58 15.5H72c.19-1.49-2.86-2.17-2.92-.25z"/><path fill="#c0a75c" d="M70.51 16.5a.56.56 0 00-.62 0 .2.2 0 00-.06.12h.12a.68.68 0 01.5 0h.13a.2.2 0 00-.07-.13zm1.37 0a.56.56 0 00-.62 0c-.07.06-.13.12-.07.12h.13a.53.53 0 01.43 0h.13v-.13z"/></g><g><path fill="#d6faf9" d="M78.04 23.6h-5.46v4.3h5.46a.27.27 0 00.25-.25v-3.73c0-.19-.06-.31-.25-.31z"/><path fill="#fff" d="M78.3 23.8c0-.13-.13-.2-.26-.2h-5.46v.2z" opacity=".5"/><path fill="#a8d8d7" d="M72.58 27.9a.28.28 0 00.31-.25v-3.73a.3.3 0 00-.31-.31z"/><path fill="#d6faf9" d="M71.96 27.9v.18a.27.27 0 00.25.25h5.21a.27.27 0 00.25-.25v-.19z"/><path fill="#355581" d="M71.96 27.9h5.7v.18h-5.7z" opacity=".2"/><path fill="#a8d8d7" d="M69.78 27.9v.18a.27.27 0 00.25.25h2.3a.27.27 0 00.25-.25v-.19z"/></g></g><g><path fill="#fff" d="M120.21 18.7h2.73a.3.3 0 00.32-.31v-4.1a.3.3 0 00-.32-.31h-2.73a.3.3 0 00-.31.3v4.1a.3.3 0 00.31.32z"/><path fill="#327578" d="M120.24 30.13h2.42v-.25c0-.43-.68-.3-1.12-.56-.12-.06-.18-.18-.3-.3a.42.42 0 00-.44-.26.49.49 0 00-.5.5z"/><path fill="#fff" d="M120.92 29.82h-.68v.31h2.42v-.12h-1.3z"/><path fill="#69a9cc" d="M116.3 23.17l.3-2.36 5.97 1.12h.13a.76.76 0 01.5.99l-1.93 6.09h-1.06l1.18-5.53z"/><path fill="#327578" d="M109.6 28.34l-1.75 1.74.19.19c.3.3.74-.25 1.18-.38h.5a.52.52 0 00.5-.18.67.67 0 00-.07-.75z"/><path fill="#fff" d="M109.28 29.02l.5-.43-.19-.25-1.74 1.74.06.06.94-.93z"/><path fill="#69a9cc" d="M115 27.89l-.69-6.9 2.36-.12v7.76a.86.86 0 01-.68.81l-6.21.56.3-1.12z"/><path fill="#69a9cc" d="M115 21.99h3.1a.62.62 0 00.62-.62v-1.18h-4.28v1.11a.56.56 0 00.55.69z"/><path fill="#a78d63" d="M114.37 20.43l-.93-6.76a.86.86 0 01.87-.94h3.67a.9.9 0 01.93.87l-.25 6.77v.31l-4.41.25z"/><path fill="#fff" d="M118.66 20.75v.43l-3.67.56a.64.64 0 01-.74-.5v-.19z"/><path fill="#dac09b" d="M118.16 9.44c0-.56-.37-.87-1.18-.87s-1.18.31-1.18.87a14.04 14.04 0 00.06 1.62 1.4 1.4 0 001.5 1.3h.06c.5 0 .68-.87.74-1.3a14 14 0 000-1.62z"/><path fill="#dac09b" d="M116.86 12.74h-1.24l.12-1.18a.53.53 0 01.43-.44.34.34 0 01.38.25l.3.56a.79.79 0 01.07.37z"/><path fill="#327578" d="M116.92 11.93h-1.24l-.93-2.11a.68.68 0 01-.07-.31 1.06 1.06 0 01.69-1l.61-.25 1.25.94z"/><path fill="#327578" d="M117.35 7.77c1.3 0 1.25 1.18.38 1.42-2.49.56-2.8-.3-2.8-.3-.12-.5 1.12-1.12 2.42-1.12z"/><path fill="#462c23" d="M118.04 10.13h-.44c-.06 0-.06 0-.06-.07s0-.06.06-.06h.44c.06 0 .06 0 .06.06zM117.91 10.37c0 .13-.06.19-.12.19s-.12-.06-.12-.19.06-.18.12-.18.12.12.12.18z"/><path fill="#dac09b" d="M118.22 10.13l.38.93h-.56zM117.79 13.85l.25 4.9v.07a.61.61 0 00.62.56h.18l3.86-1.43a.28.28 0 00.18-.37c-.06-.12-.25-.25-.37-.19l-3.98.87.75.56-.25-4.9a.61.61 0 00-.62-.56.48.48 0 00-.62.5z"/><path fill="#a78d63" d="M117.6 13.85a.81.81 0 011.62-.12l.12 2.23-1.68.38z"/><path fill="#dac09b" d="M123.13 17.83l.56-.38c.06-.06.12-.12.12-.18l.06-.5a.34.34 0 00-.24-.37h-.19l-.93.37a.65.65 0 00-.38.8.22.22 0 00.07.13.63.63 0 00.93.12z"/></g></svg>