<svg xmlns="http://www.w3.org/2000/svg" width="120" height="120" viewBox="0 0 120 120">
  <g id="mail_unverified" transform="translate(-886 -647)">
    <circle id="Ellipse_1977" data-name="Ellipse 1977" cx="60" cy="60" r="60" transform="translate(886 647)" fill="#fbfbfb" opacity="0"/>
    <g id="mail_unverified-2" data-name="mail_unverified" transform="translate(906 656.001)">
      <g id="certificate" transform="translate(0 0)">
        <path id="Path_87373" data-name="Path 87373" d="M187.279,161.452l-30.737,13.935,24.844,54.785,13.378-11.307,17.28-2.548Z" transform="translate(-136.077 -128.809)" fill="#bdc3c7"/>
        <path id="Path_87374" data-name="Path 87374" d="M97.892,164.209l30.737,13.935-24.844,54.865L90.407,221.622l-17.359-2.548Z" transform="translate(-69.464 -131.009)" fill="#ebebeb"/>
        <path id="Path_87375" data-name="Path 87375" d="M135.323,40c0,2.954-4.24,5.43-4.88,8.225-.64,2.875,2.16,6.947.96,9.582-1.28,2.635-6.16,2.954-7.92,5.19s-.96,7.186-3.2,9.023-6.72-.08-9.28,1.2-3.92,6.069-6.72,6.707c-2.72.639-6-3.034-8.88-3.034s-6.16,3.673-8.88,3.034c-2.8-.639-4.16-5.43-6.72-6.707s-7.12.639-9.28-1.2c-2.24-1.836-1.44-6.787-3.2-9.023s-6.64-2.555-7.92-5.19c-1.2-2.555,1.6-6.707.96-9.582-.8-2.795-5.04-5.27-5.04-8.225s4.24-5.43,4.88-8.225c.64-2.875-2.16-6.947-.96-9.582,1.28-2.635,6.16-2.954,7.92-5.19s.96-7.187,3.2-9.023,6.72.08,9.28-1.2S83.563.713,86.363.075c2.72-.639,6,3.034,8.88,3.034s6.16-3.673,8.88-3.034c2.8.639,4.16,5.43,6.72,6.707s7.12-.639,9.28,1.2c2.24,1.836,1.44,6.787,3.2,9.023s6.64,2.555,7.92,5.19c1.2,2.555-1.6,6.707-.96,9.582C131.083,34.57,135.323,37.046,135.323,40Z" transform="translate(-55.323 0)" fill="#ebebeb"/>
        <path id="Path_87376" data-name="Path 87376" d="M139.129,55.507a28.667,28.667,0,1,0,28.666,28.667A28.649,28.649,0,0,0,139.129,55.507Zm0,52.555a23.889,23.889,0,1,1,23.889-23.889A23.857,23.857,0,0,1,139.129,108.062Z" transform="translate(-99.314 -44.284)" fill="#d9d9d9"/>
        <g id="Group_87150" data-name="Group 87150" transform="translate(27.22 26.89)">
          <g id="Group_73878" data-name="Group 73878" transform="translate(-0.221 0.109)">
            <g id="Rectangle_21114" data-name="Rectangle 21114" fill="#cdcdcd" stroke="#707070" stroke-width="1" opacity="0">
              <rect width="26" height="26" stroke="none"/>
              <rect x="0.5" y="0.5" width="25" height="25" fill="none"/>
            </g>
            <path id="mail.1" d="M23.229,5.869v14.5l-7.261-7.261ZM11.714,15.8,22.95,4.578a1.133,1.133,0,0,0-.873-.418H1.351a1.133,1.133,0,0,0-.873.418Zm3.473-1.913-3.1,3.12a.557.557,0,0,1-.78,0L8.241,13.9.711,21.431a1.124,1.124,0,0,0,.641.223H22.077a1.124,1.124,0,0,0,.641-.223ZM.2,5.869v14.5l7.243-7.261Z" transform="translate(0.815 -0.101)" fill="#cdcdcd"/>
          </g>
        </g>
      </g>
    </g>
  </g>
</svg>
