<svg xmlns="http://www.w3.org/2000/svg" width="120" height="120" viewBox="0 0 120 120">
    <defs>
        <style>
            .cls-1{fill:#fffae3}.cls-2{fill:#d62c1a}.cls-3{fill:#e74c3c}.cls-4{fill:#fff944}.cls-5{opacity:.08}.cls-6{opacity:.12}.cls-7{stroke:#707070;opacity:0}.cls-8{stroke:none}.cls-9{fill:none}
        </style>
    </defs>
    <g id="mail_verify" transform="translate(-675 -647)">
        <circle id="Ellipse_1976" cx="60" cy="60" r="60" class="cls-1" data-name="Ellipse 1976" transform="translate(675 647)"/>
        <g id="Group_82495" data-name="Group 82495" transform="translate(695 654.2)">
            <g id="certificate">
                <path id="Path_87373" d="M187.4 161.452l-30.857 13.99 24.942 55 13.43-11.352 17.347-2.558z" class="cls-2" data-name="Path 87373" transform="translate(-135.997 -128.681)"/>
                <path id="Path_87374" d="M97.99 164.209l30.857 13.99-24.942 55.08-13.43-11.432-17.427-2.558z" class="cls-3" data-name="Path 87374" transform="translate(-69.45 -130.878)"/>
                <path id="Path_87375" d="M135.265 40.046c0 2.958-4.237 5.436-4.876 8.234-.64 2.878 2.158 6.955.959 9.593-1.279 2.638-6.155 2.958-7.914 5.2s-.959 7.195-3.2 9.033-6.715-.08-9.273 1.2-3.917 6.075-6.715 6.715c-2.718.64-6-3.038-8.874-3.038s-6.155 3.677-8.874 3.038c-2.8-.64-4.157-5.436-6.715-6.715s-7.115.64-9.273-1.2c-2.238-1.839-1.439-6.8-3.2-9.033s-6.635-2.558-7.914-5.2c-1.2-2.558 1.6-6.715.959-9.593-.8-2.8-5.036-5.276-5.036-8.234s4.237-5.436 4.877-8.234c.64-2.878-2.158-6.955-.959-9.593 1.279-2.638 6.155-2.958 7.914-5.2s.959-7.195 3.2-9.033 6.715.08 9.273-1.2S83.542.714 86.34.075c2.718-.64 6 3.038 8.874 3.038s6.155-3.677 8.874-3.038c2.8.64 4.157 5.436 6.715 6.715s7.115-.64 9.273 1.2c2.238 1.839 1.439 6.8 3.2 9.033s6.635 2.558 7.914 5.2c1.2 2.558-1.6 6.715-.959 9.593.797 2.794 5.034 5.272 5.034 8.23z" class="cls-4" data-name="Path 87375" transform="translate(-55.323)"/>
                <path id="Path_87376" d="M139.241 55.507a28.779 28.779 0 1 0 28.779 28.779 28.761 28.761 0 0 0-28.779-28.779zm0 52.761a23.982 23.982 0 1 1 23.982-23.982 23.95 23.95 0 0 1-23.982 23.982z" class="cls-5" data-name="Path 87376" transform="translate(-99.27 -44.24)"/>
            </g>
            <g id="Group_82494" class="cls-6" data-name="Group 82494" transform="translate(27.2 28)">
                <g id="Group_73878" data-name="Group 73878">
                    <g id="Rectangle_21114" class="cls-7" data-name="Rectangle 21114">
                        <path d="M0 0h25.6v25.6H0z" class="cls-8"/>
                        <path d="M.5.5h24.6v24.6H.5z" class="cls-9"/>
                    </g>
                    <path id="mail.1" d="M22.874 5.842v14.281l-7.15-7.15zm-11.337 9.783L22.6 4.571a1.115 1.115 0 0 0-.859-.411H1.334a1.115 1.115 0 0 0-.859.411zm3.419-1.883L11.9 16.814a.549.549 0 0 1-.768 0l-3.014-3.063L.7 21.166a1.106 1.106 0 0 0 .631.219h20.41a1.106 1.106 0 0 0 .631-.219zM.2 5.842v14.281l7.131-7.15z" transform="translate(1.628 -.503)"/>
                </g>
            </g>
        </g>
    </g>
</svg>
