<svg xmlns="http://www.w3.org/2000/svg" width="32" height="32"><g transform="translate(-12 3)"><circle cx="7.6" cy="7.6" r="7.6" fill="#d3ebfc" data-name="Ellipse 2069" transform="translate(22.8 6.4)"/><circle cx="3.2" cy="3.2" r="3.2" fill="#fee9ee" data-name="Ellipse 2070" transform="translate(16 1.2)"/><g fill="#808fa5" data-name="Group 84542"><path d="M28 3.6h.8v2H28z" data-name="Rectangle 23655"/><path d="M23.4 15.95l-3 1.64-.38-.7L23 15.25z" data-name="Rectangle 23656"/><path d="M36.79 8.71l-3 1.64-.38-.7 3-1.64z" data-name="Rectangle 23657"/><path d="M23.4 9.65l-.4.7-2.98-1.64.38-.7z" data-name="Rectangle 23658"/><path d="M36.78 16.89l-.38.7-2.99-1.64.38-.7z" data-name="Rectangle 23659"/><path d="M28 20h.8v2H28z" data-name="Rectangle 23660"/><path d="M28.4 19.2a6.4 6.4 0 1 1 6.4-6.4 6.4 6.4 0 0 1-6.4 6.4zm0-12a5.6 5.6 0 1 0 5.6 5.6 5.6 5.6 0 0 0-5.6-5.6z" data-name="Path 89099"/><path d="M28.4 16.4c-1.74 0-3.6-.1-3.6-1.2h.8s.03.4 2.8.4 2.8-.4 2.8-.4h.8c0 1.1-1.86 1.2-3.6 1.2z" data-name="Path 89100"/><path d="M32 15.2h-.8v-.97l-1.88-1.15-.4-.4.56-.56.37.36 2.15 1.3z" data-name="Path 89101"/><path d="M25.6 15.2h-.8v-1.43l2.15-1.29.37-.36.56.56-.47.46-1.81 1.09z" data-name="Path 89102"/><path d="M28.4 12.8a2 2 0 0 1-2-2v-.4a2 2 0 0 1 4 0v.4a2 2 0 0 1-2 2zm0-3.6a1.2 1.2 0 0 0-1.2 1.2v.4a1.2 1.2 0 1 0 2.4 0v-.4a1.2 1.2 0 0 0-1.2-1.2z" data-name="Path 89103"/><path d="M36.72 6.56a10.34 10.34 0 0 0-6.78-4.05l.11-.79a11.14 11.14 0 0 1 7.3 4.36z" data-name="Path 89104"/><path d="M30.06 23.88l-.12-.8a10.35 10.35 0 0 0 6.78-4.04l.64.48a11.14 11.14 0 0 1-7.3 4.36z" data-name="Path 89105"/><path d="M17.88 16.64a11.23 11.23 0 0 1 0-7.68l.75.28a10.43 10.43 0 0 0 0 7.12z" data-name="Path 89106"/><path d="M20.08 6.56l-.64-.48a11.14 11.14 0 0 1 7.3-4.36l.12.8a10.35 10.35 0 0 0-6.78 4.04z" data-name="Path 89107"/><path d="M26.74 23.88a11.15 11.15 0 0 1-7.3-4.36l.64-.48a10.35 10.35 0 0 0 6.78 4.05z" data-name="Path 89108"/><path d="M38.92 16.64l-.75-.28a10.43 10.43 0 0 0 0-7.12l.75-.28a11.23 11.23 0 0 1 0 7.68z" data-name="Path 89109"/><path d="M28.4 4a2 2 0 1 1 2-2 2 2 0 0 1-2 2zm0-3.2A1.2 1.2 0 1 0 29.6 2 1.2 1.2 0 0 0 28.4.8z" data-name="Path 89110"/><path d="M28 1.6h.8v.8H28z" data-name="Rectangle 23661"/><path d="M18.8 9.6a2 2 0 1 1 2-2 2 2 0 0 1-2 2zm0-3.2A1.2 1.2 0 1 0 20 7.6a1.2 1.2 0 0 0-1.2-1.2z" data-name="Path 89111"/><path d="M18.4 7.2h.8V8h-.8z" data-name="Rectangle 23662"/><path d="M38 9.6a2 2 0 1 1 2-2 2 2 0 0 1-2 2zm0-3.2a1.2 1.2 0 1 0 1.2 1.2A1.2 1.2 0 0 0 38 6.4z" data-name="Path 89112"/><path d="M37.6 7.2h.8V8h-.8z" data-name="Rectangle 23663"/><path d="M18.8 20a2 2 0 1 1 2-2 2 2 0 0 1-2 2zm0-3.2A1.2 1.2 0 1 0 20 18a1.2 1.2 0 0 0-1.2-1.2z" data-name="Path 89113"/><path d="M18.4 17.6h.8v.8h-.8z" data-name="Rectangle 23664"/><path d="M38 20a2 2 0 1 1 2-2 2 2 0 0 1-2 2zm0-3.2a1.2 1.2 0 1 0 1.2 1.2 1.2 1.2 0 0 0-1.2-1.2z" data-name="Path 89114"/><path d="M37.6 17.6h.8v.8h-.8z" data-name="Rectangle 23665"/><path d="M28.4 25.6a2 2 0 1 1 2-2 2 2 0 0 1-2 2zm0-3.2a1.2 1.2 0 1 0 1.2 1.2 1.2 1.2 0 0 0-1.2-1.2z" data-name="Path 89115"/><path d="M28 23.2h.8v.8H28z" data-name="Rectangle 23666"/></g></g></svg>