<svg xmlns="http://www.w3.org/2000/svg" width="48" height="48" viewBox="0 0 48 48">
  <g id="member-card-icon-3" transform="translate(19188 2571)">
    <circle id="Ellipse_2073" data-name="Ellipse 2073" cx="24" cy="24" r="24" transform="translate(-19188 -2571)" fill="#fff" opacity="0"/>
    <g id="shopping-list" transform="translate(-19240 -2563)">
      <g id="Group_84549" data-name="Group 84549" transform="translate(70)">
        <g id="Group_84548" data-name="Group 84548" transform="translate(0)">
          <path id="Path_89133" data-name="Path 89133" d="M171,2h-2.172a3,3,0,0,0-5.658,0H161a1,1,0,0,0-1,1V7a1,1,0,0,0,1,1h10a1,1,0,0,0,1-1V3A1,1,0,0,0,171,2Z" transform="translate(-160)" fill="#1abc9c"/>
        </g>
      </g>
      <g id="Group_84551" data-name="Group 84551" transform="translate(64 4)">
        <g id="Group_84550" data-name="Group 84550" transform="translate(0)">
          <path id="Path_89134" data-name="Path 89134" d="M86,64H84v3a3,3,0,0,1-3,3H71a3,3,0,0,1-3-3V64H66a2,2,0,0,0-2,2V90a1.978,1.978,0,0,0,2,2H86a1.978,1.978,0,0,0,2-2V66A1.978,1.978,0,0,0,86,64ZM75.708,81.708l-4,4a1,1,0,0,1-1.416,0l-2-2a1,1,0,0,1,1.414-1.414L71,83.586l3.292-3.292a1,1,0,0,1,1.416,1.414Zm0-8-4,4a1,1,0,0,1-1.416,0l-2-2a1,1,0,1,1,1.414-1.414L71,75.586l3.292-3.292a1,1,0,0,1,1.416,1.414ZM83,84H79a1,1,0,0,1,0-2h4a1,1,0,0,1,0,2Zm0-8H79a1,1,0,0,1,0-2h4a1,1,0,1,1,0,2Z" transform="translate(-64 -64)" fill="#1abc9c"/>
        </g>
      </g>
    </g>
  </g>
</svg>
