<svg xmlns="http://www.w3.org/2000/svg" width="48" height="48" viewBox="0 0 48 48">
  <g id="member-card-icon-2" transform="translate(19243 2571)">
    <circle id="Ellipse_2072" data-name="Ellipse 2072" cx="24" cy="24" r="24" transform="translate(-19243 -2571)" fill="#fff" opacity="0"/>
    <g id="eye" transform="translate(-19235 -2557)">
      <path id="Path_89131" data-name="Path 89131" d="M16,96A17.921,17.921,0,0,0,0,106a17.8,17.8,0,0,0,32,0A17.921,17.921,0,0,0,16,96Zm7.889,5.3a15.216,15.216,0,0,1,4.67,4.7,15.217,15.217,0,0,1-4.67,4.7,14.662,14.662,0,0,1-15.778,0,15.219,15.219,0,0,1-4.67-4.7,15.215,15.215,0,0,1,4.67-4.7c.122-.078.246-.154.371-.228a8,8,0,1,0,15.037,0Q23.7,101.187,23.889,101.3ZM16,102.812a3,3,0,1,1-3-3A3,3,0,0,1,16,102.812Z" transform="translate(0 -96)" fill="#1c84c6"/>
    </g>
  </g>
</svg>
