<svg xmlns="http://www.w3.org/2000/svg" width="20" height="18.504" viewBox="0 0 20 18.504">
    <defs>
        <style>
            .cls-1{fill:#e1e1e1}
        </style>
    </defs>
    <g id="notes" transform="translate(0 -19.154)">
        <g id="Group_82295" data-name="Group 82295" transform="translate(0 19.154)">
            <g id="Group_82294" data-name="Group 82294">
                <path id="Path_87298" d="M311.032 23.292a2.069 2.069 0 1 0-2.069-2.069 2.071 2.071 0 0 0 2.069 2.069z" class="cls-1" data-name="Path 87298" transform="translate(-296.894 -19.154)"/>
                <path id="Path_87299" d="M3.173 85.821a1.022 1.022 0 0 1 .444-.3l-1.981-.173a.338.338 0 0 0-.252.08.344.344 0 0 0-.122.234L0 100.084a.345.345 0 0 0 .313.373l3.864.338-1.242-14.218a1.038 1.038 0 0 1 .238-.756z" class="cls-1" data-name="Path 87299" transform="translate(0 -82.756)"/>
                <path id="Path_87300" d="M109.06 88.273l-1.26-14.427a.344.344 0 0 0-.373-.313l-1.476.129a2.752 2.752 0 0 1-4.438 1.991l-1.17 1.171a.345.345 0 1 1-.488-.488l1.171-1.171a2.761 2.761 0 0 1-.5-1.028L93 74.794a.345.345 0 0 0-.313.373L93.946 89.6a.345.345 0 0 0 .343.315h.03l14.428-1.262a.345.345 0 0 0 .313-.38zm-3.031-5.238a.344.344 0 0 1-.313.374l-.687.06H105a.345.345 0 0 1-.03-.688l.687-.06a.342.342 0 0 1 .372.314zm-.18-2.06a.345.345 0 0 1-.313.373l-2.4.21h-.03a.345.345 0 0 1-.03-.688l2.4-.21a.345.345 0 0 1 .373.315zm-2.194 2.615l-3.436.3h-.03a.345.345 0 0 1-.03-.688l3.436-.3a.345.345 0 0 1 .06.687zm.61-4.9l1.03-.09a.345.345 0 1 1 .06.687l-1.031.09h-.03a.345.345 0 0 1-.029-.688zm-3.779.331l2.4-.21a.345.345 0 1 1 .06.687l-2.4.21h-.03a.345.345 0 0 1-.029-.688zm-4.78.764a.345.345 0 0 1 .313-.373l3.092-.27a.345.345 0 0 1 .06.687l-3.092.27h-.03a.345.345 0 0 1-.342-.314zm.181 2.061a.345.345 0 0 1 .313-.373l1.03-.09a.345.345 0 1 1 .06.687l-1.03.09h-.03a.345.345 0 0 1-.343-.314zm1.764 4.346l-1.03.09h-.03a.345.345 0 0 1-.03-.688l1.03-.09a.345.345 0 0 1 .06.687zm.507-2.121l-1.718.15h-.03a.345.345 0 0 1-.03-.688l1.718-.15a.345.345 0 0 1 .06.687zm.133-2.434a.345.345 0 0 1 .313-.373l2.4-.21a.345.345 0 1 1 .06.687l-2.4.21h-.03a.345.345 0 0 1-.342-.315zm2.108 4.316l-1.374.12H99a.345.345 0 0 1-.03-.688l1.374-.12a.345.345 0 0 1 .06.687zm5.5-.481l-3.435.3h-.03a.345.345 0 0 1-.03-.688l3.435-.3a.345.345 0 0 1 .06.687z" class="cls-1" data-name="Path 87300" transform="translate(-89.062 -71.407)"/>
            </g>
        </g>
    </g>
</svg>
