<svg xmlns="http://www.w3.org/2000/svg" width="3.631" height="10.003" viewBox="0 0 3.631 10.003">
  <g id="one-border" transform="translate(-31.223 -1.29)" fill="none">
    <path d="M31.408,2.58s-.183.044-.183.113v1.35s-.023.02.07.02a.86.86,0,0,1,.877.527l.047.641v6.062h2.634v-10H33.282A4.481,4.481,0,0,1,31.408,2.58Z" stroke="none"/>
    <path d="M 33.41689682006836 1.590000152587891 C 32.89858245849609 2.157196044921875 32.24748229980469 2.593655586242676 31.52490234375 2.85715389251709 L 31.52490234375 3.768912315368652 C 31.93433380126953 3.820751190185547 32.28768539428711 4.086583137512207 32.44895553588867 4.475500106811523 L 32.46751403808594 4.520259857177734 L 32.47103500366211 4.56857967376709 L 32.51778411865234 5.20930004119873 L 32.51858520507812 5.220200061798096 L 32.51858520507812 5.23112964630127 L 32.51858520507812 10.99263954162598 L 34.55258178710938 10.99263954162598 L 34.55258178710938 1.590000152587891 L 33.41689682006836 1.590000152587891 M 33.28205490112305 1.289999961853027 L 34.85258483886719 1.289999961853027 L 34.85258483886719 11.29263973236084 L 32.21858215332031 11.29263973236084 L 32.21858215332031 5.23112964630127 L 32.17183303833008 4.590409755706787 C 32.03768539428711 4.26688289642334 31.72246170043945 4.059623718261719 31.37758636474609 4.05964183807373 C 31.3502082824707 4.059642791748047 31.32260131835938 4.06095027923584 31.29492568969727 4.063610076904297 C 31.20152282714844 4.063610076904297 31.22490310668945 4.04362964630127 31.22490310668945 4.04362964630127 L 31.22490310668945 2.693709373474121 C 31.22490310668945 2.624229431152344 31.40829467773438 2.580329895019531 31.40829467773438 2.580329895019531 C 32.13348388671875 2.31857967376709 32.77887344360352 1.874139785766602 33.28205490112305 1.289999961853027 Z" stroke="none" fill="#233138"/>
  </g>
</svg>
