<svg xmlns="http://www.w3.org/2000/svg" width="72.48" height="38.841" viewBox="0 0 72.48 38.841">
  <g id="Group_89140" data-name="Group 89140" transform="translate(23098.52 3070.932)">
    <g id="one-bk" transform="translate(-23100 -3072.5)">
      <path id="Path_74681" data-name="Path 74681" d="M1.945,6.3s-.712.17-.712.44v5.242s-.091.078.272.078a3.34,3.34,0,0,1,3.405,2.046l.182,2.488V40.131H15.319V1.29H9.22A17.4,17.4,0,0,1,1.945,6.3Z" transform="translate(0.257 0.278)" fill="#233138"/>
    </g>
    <g id="Group_71900" data-name="Group 71900" transform="translate(-23080.396 -3072.5)">
      <path id="Path_74682" data-name="Path 74682" d="M16.945,6.3s-.712.17-.712.44v5.242s-.091.078.272.078a3.34,3.34,0,0,1,3.405,2.046l.182,2.488V40.131H30.319V1.29h-6.1A17.4,17.4,0,0,1,16.945,6.3Z" transform="translate(-14.743 0.278)" fill="#233138"/>
    </g>
    <g id="Group_71898" data-name="Group 71898" transform="translate(-23061.219 -3072.5)">
      <path id="Path_74683" data-name="Path 74683" d="M31.945,6.3s-.712.17-.712.44v5.242s-.091.078.272.078a3.34,3.34,0,0,1,3.405,2.046l.182,2.488V40.131H45.319V1.29h-6.1A17.4,17.4,0,0,1,31.945,6.3Z" transform="translate(-29.743 0.278)" fill="#233138"/>
    </g>
    <g id="Group_71899" data-name="Group 71899" transform="translate(-23041.615 -3072.5)">
      <path id="Path_74684" data-name="Path 74684" d="M46.945,6.3s-.712.17-.712.44v5.242s-.091.078.272.078a3.34,3.34,0,0,1,3.405,2.046l.182,2.488V40.131H60.319V1.29h-6.1A17.4,17.4,0,0,1,46.945,6.3Z" transform="translate(-44.743 0.278)" fill="#233138"/>
    </g>
  </g>
</svg>
