<svg xmlns="http://www.w3.org/2000/svg" width="18.668" height="10.003" viewBox="0 0 18.668 10.003">
  <g id="ones-border" transform="translate(23680.332 2991.333)">
    <g id="Path_74681" data-name="Path 74681" transform="translate(-23681.555 -2992.623)" fill="none">
      <path d="M1.408,2.58s-.183.044-.183.113v1.35s-.023.02.07.02a.86.86,0,0,1,.877.527l.047.641v6.062H4.853v-10H3.282A4.481,4.481,0,0,1,1.408,2.58Z" stroke="none"/>
      <path d="M 3.416896104812622 1.590000152587891 C 2.898578882217407 2.157196044921875 2.247479915618896 2.593655586242676 1.52490234375 2.85715389251709 L 1.52490234375 3.768912315368652 C 1.934338092803955 3.82075023651123 2.28769326210022 4.086584091186523 2.448942184448242 4.475509643554688 L 2.467502117156982 4.520259857177734 L 2.471022129058838 4.56857967376709 L 2.517772197723389 5.20930004119873 L 2.518572092056274 5.220200061798096 L 2.518572092056274 5.23112964630127 L 2.518572092056274 10.99263954162598 L 4.552582263946533 10.99263954162598 L 4.552582263946533 1.590000152587891 L 3.416896104812622 1.590000152587891 M 3.282052278518677 1.289999961853027 L 4.852581977844238 1.289999961853027 L 4.852581977844238 11.29263973236084 L 2.21857213973999 11.29263973236084 L 2.21857213973999 5.23112964630127 L 2.171822071075439 4.590409755706787 C 2.037681102752686 4.26688289642334 1.722461700439453 4.059623718261719 1.377584457397461 4.05964183807373 C 1.35020637512207 4.059642791748047 1.322597980499268 4.06095027923584 1.294922351837158 4.063610076904297 C 1.201522350311279 4.063610076904297 1.224902153015137 4.04362964630127 1.224902153015137 4.04362964630127 L 1.224902153015137 2.693709373474121 C 1.224902153015137 2.624229431152344 1.408292293548584 2.580329895019531 1.408292293548584 2.580329895019531 C 2.133482217788696 2.31857967376709 2.77887225151062 1.874139785766602 3.282052278518677 1.289999961853027 Z" stroke="none" fill="#233138"/>
    </g>
    <g id="Path_74682" data-name="Path 74682" transform="translate(-23691.506 -2992.623)" fill="none">
      <path d="M16.408,2.58s-.183.044-.183.113v1.35s-.023.02.07.02a.86.86,0,0,1,.877.527l.047.641v6.062h2.634v-10H18.282A4.481,4.481,0,0,1,16.408,2.58Z" stroke="none"/>
      <path d="M 18.41689872741699 1.590000152587891 C 17.89858055114746 2.157196044921875 17.24748229980469 2.593655586242676 16.52490425109863 2.85715389251709 L 16.52490425109863 3.768912315368652 C 16.93433952331543 3.82075023651123 17.28769493103027 4.086584091186523 17.44894409179688 4.475509643554688 L 17.46750450134277 4.520259857177734 L 17.47102355957031 4.56857967376709 L 17.51777458190918 5.20930004119873 L 17.51857376098633 5.220200061798096 L 17.51857376098633 5.23112964630127 L 17.51857376098633 10.99263954162598 L 19.55258369445801 10.99263954162598 L 19.55258369445801 1.590000152587891 L 18.41689872741699 1.590000152587891 M 18.28205299377441 1.289999961853027 L 19.85258293151855 1.289999961853027 L 19.85258293151855 11.29263973236084 L 17.21857452392578 11.29263973236084 L 17.21857452392578 5.23112964630127 L 17.17182350158691 4.590409755706787 C 17.03768348693848 4.26688289642334 16.72246360778809 4.059623718261719 16.37758636474609 4.05964183807373 C 16.3502082824707 4.059642791748047 16.32259941101074 4.06095027923584 16.29492378234863 4.063610076904297 C 16.20152473449707 4.063610076904297 16.22490310668945 4.04362964630127 16.22490310668945 4.04362964630127 L 16.22490310668945 2.693709373474121 C 16.22490310668945 2.624229431152344 16.40829467773438 2.580329895019531 16.40829467773438 2.580329895019531 C 17.13348388671875 2.31857967376709 17.77887344360352 1.874139785766602 18.28205299377441 1.289999961853027 Z" stroke="none" fill="#233138"/>
    </g>
    <g id="Path_74683" data-name="Path 74683" transform="translate(-23701.566 -2992.623)" fill="none">
      <path d="M31.408,2.58s-.183.044-.183.113v1.35s-.023.02.07.02a.86.86,0,0,1,.877.527l.047.641v6.062h2.634v-10H33.282A4.481,4.481,0,0,1,31.408,2.58Z" stroke="none"/>
      <path d="M 33.41689682006836 1.590000152587891 C 32.89858245849609 2.157196044921875 32.24748229980469 2.593655586242676 31.52490234375 2.85715389251709 L 31.52490234375 3.768912315368652 C 31.93433380126953 3.820751190185547 32.28768539428711 4.086583137512207 32.44895553588867 4.475500106811523 L 32.46751403808594 4.520259857177734 L 32.47103500366211 4.56857967376709 L 32.51778411865234 5.20930004119873 L 32.51858520507812 5.220200061798096 L 32.51858520507812 5.23112964630127 L 32.51858520507812 10.99263954162598 L 34.55258178710938 10.99263954162598 L 34.55258178710938 1.590000152587891 L 33.41689682006836 1.590000152587891 M 33.28205490112305 1.289999961853027 L 34.85258483886719 1.289999961853027 L 34.85258483886719 11.29263973236084 L 32.21858215332031 11.29263973236084 L 32.21858215332031 5.23112964630127 L 32.17183303833008 4.590409755706787 C 32.03768539428711 4.26688289642334 31.72246170043945 4.059623718261719 31.37758636474609 4.05964183807373 C 31.3502082824707 4.059642791748047 31.32260131835938 4.06095027923584 31.29492568969727 4.063610076904297 C 31.20152282714844 4.063610076904297 31.22490310668945 4.04362964630127 31.22490310668945 4.04362964630127 L 31.22490310668945 2.693709373474121 C 31.22490310668945 2.624229431152344 31.40829467773438 2.580329895019531 31.40829467773438 2.580329895019531 C 32.13348388671875 2.31857967376709 32.77887344360352 1.874139785766602 33.28205490112305 1.289999961853027 Z" stroke="none" fill="#233138"/>
    </g>
    <g id="Path_74684" data-name="Path 74684" transform="translate(-23711.518 -2992.623)" fill="none">
      <path d="M46.408,2.58s-.183.044-.183.113v1.35s-.023.02.07.02a.86.86,0,0,1,.877.527l.047.641v6.062h2.634v-10H48.282a4.481,4.481,0,0,1-1.874,1.29Z" stroke="none"/>
      <path d="M 48.41689682006836 1.590000152587891 C 47.89856338500977 2.157196044921875 47.24747467041016 2.593655586242676 46.52489471435547 2.85715389251709 L 46.52489471435547 3.768912315368652 C 46.93433380126953 3.82075023651123 47.28768539428711 4.086584091186523 47.44893646240234 4.475509643554688 L 47.46749496459961 4.520259857177734 L 47.47101593017578 4.56857967376709 L 47.51776504516602 5.20930004119873 L 47.5185661315918 5.220200061798096 L 47.5185661315918 5.23112964630127 L 47.5185661315918 10.99263954162598 L 49.55257797241211 10.99263954162598 L 49.55257797241211 1.590000152587891 L 48.41689682006836 1.590000152587891 M 48.28205490112305 1.289999961853027 L 49.85257720947266 1.289999961853027 L 49.85257720947266 11.29263973236084 L 47.21856689453125 11.29263973236084 L 47.21856689453125 5.23112964630127 L 47.17181777954102 4.590409755706787 C 47.03767395019531 4.26688289642334 46.72245407104492 4.059623718261719 46.37757873535156 4.05964183807373 C 46.35020065307617 4.059642791748047 46.32259368896484 4.06095027923584 46.29491806030273 4.063610076904297 C 46.20151519775391 4.063610076904297 46.22489547729492 4.04362964630127 46.22489547729492 4.04362964630127 L 46.22489547729492 2.693709373474121 C 46.22489547729492 2.624229431152344 46.40828704833984 2.580329895019531 46.40828704833984 2.580329895019531 C 47.13347625732422 2.31857967376709 47.77886581420898 1.874139785766602 48.28205490112305 1.289999961853027 Z" stroke="none" fill="#233138"/>
    </g>
  </g>
</svg>
