<svg xmlns="http://www.w3.org/2000/svg" width="305" height="305"><g data-name="Group 86932"><g fill="#75a2ce" data-name="Group 86892"><path d="M260.79 248.93l.47 1.85-5.37 1.37-.47-1.85z" data-name="Rectangle 23817"/><path d="M258.05 251.6l.47 1.85-5.36 1.37-.48-1.85z" data-name="Rectangle 23818"/><path d="M255.31 254.27l.47 1.85-5.36 1.38-.48-1.85z" data-name="Rectangle 23819"/><path d="M252.57 256.94l.48 1.85-5.37 1.38-.48-1.85z" data-name="Rectangle 23820"/></g><g data-name="Group 86920"><path fill="#d6e0e8" d="M142.45 84.06l-50.4 29.57c-12.78-3.92-29.06-2.7-39.8 3.6-13.07 7.67-12.98 19.95.2 27.44a40.2 40.2 0 0 0 9.9 3.88 52.89 52.89 0 0 0 7.89 1.36c10.48 1.02 21.66-.85 29.73-5.58 9.76-5.73 12.18-14.04 7.28-21l6.95-4.08-.2-4.41 7.32-.05-.18-4.14 7.32-.05-.19-4.13 7.32-.05-.18-4.14 7.31-.05-.18-4.13 7.81-.06 2.39-1.4 2.63-10.85zm-70.92 56.58a13.68 13.68 0 0 1-12.37.09c-3.43-1.95-3.46-5.15-.05-7.15a13.68 13.68 0 0 1 12.37-.08c3.43 1.95 3.45 5.14.05 7.14z" data-name="Path 91510"/><path fill="#d6e0e8" d="M170.01 271.1l-67.96-39.08c-4.58-2.64-4-7.25 1.28-10.3l65.97-38.09c5.28-3.05 13.27-3.38 17.85-.74l67.97 39.08c4.57 2.64 4 7.26-1.29 10.3l-65.96 38.1c-5.29 3.04-13.28 3.37-17.86.73z" data-name="Path 91511"/><g data-name="Group 86895"><g data-name="Group 86893"><path fill="#75a2ce" d="M249.7 182.5l-11.75-6.78 43.32-25.01c2.05-1.19 2.05-3.1 0-4.29l-44.26-25.55a8.21 8.21 0 0 0-7.42 0l-43.33 25.01-11.75-6.78 43.33-25.02c8.52-4.92 22.4-4.92 30.92 0l44.26 25.55c8.53 4.93 8.53 12.93 0 17.86z" data-name="Path 91512"/></g><g data-name="Group 86894"><path fill="#eaf5ff" d="M268.66 185.49c0-6.28-3.82-13.58-8.53-16.3l-78.5-45.32c-2.1-1.22-4.03-1.3-5.52-.47l-93.72 54.46 90.63 68.3 92.33-53.6a4.28 4.28 0 0 0 .82-.47c1.53-1.17 2.5-3.46 2.5-6.6z" data-name="Path 91513"/><path fill="#28487a" d="M173.01 246.15l92.34-53.59a4.28 4.28 0 0 0 .81-.47c1.54-1.17 2.5-3.46 2.5-6.6a20.93 20.93 0 0 0-2.3-9.08L161.1 237.18z" data-name="Path 91514"/><path fill="#75a2ce" d="M167.1 245.9L88.62 200.6c-4.7-2.72-8.53-10.02-8.53-16.3 0-6.28 3.82-9.17 8.53-6.45l78.5 45.32c4.71 2.72 8.53 10.02 8.53 16.3 0 6.28-3.82 9.17-8.53 6.45z" data-name="Path 91515"/></g><path fill="#fff" d="M155.35 230.62l-9.43-5.44a4.07 4.07 0 0 1-1.7-3.25c0-1.25.76-1.83 1.7-1.28l9.43 5.44a4.07 4.07 0 0 1 1.7 3.25c0 1.25-.76 1.83-1.7 1.28z" data-name="Path 91516"/></g><g data-name="Group 86919"><g data-name="Group 86918"><path fill="#527aaa" d="M84.49 71.03l16.13 9.16 16.45-9.65-.04-4.2-.14.08-.01-.3 7.31-.05-.04-4.13 7.18-.05-.05-4.14 7.18-.05-.04-4.13 7.18-.05-.05-4.14 7.67-.05 2.39-1.4 2.63-10.86-.04-4.2-1.27 4.03-11.62-1.55z" data-name="Path 91517"/><g data-name="Group 86917"><g data-name="Group 86916"><g data-name="Group 86911"><g data-name="Group 86897"><g data-name="Group 86896"><path fill="#eaf5ff" d="M100.57 76l16.46-9.66-.2-4.41 7.32-.05-.19-4.14 7.32-.05-.18-4.13 7.31-.05-.18-4.14 7.32-.05-.19-4.13 7.82-.06 2.38-1.4 2.63-10.85-12.93-1.73-60.81 35.68z" data-name="Path 91518"/></g></g><g data-name="Group 86899"><g data-name="Group 86898"><path fill="#527aaa" d="M111.53 69.57a22.67 22.67 0 0 0-7.47-6.44 38.58 38.58 0 0 0-7.73-3.27l-11.88 6.97L100.57 76z" data-name="Path 91519"/></g></g><g data-name="Group 86901"><g data-name="Group 86900"><path fill="#75a2ce" d="M157.75 34.7l.45-1.82-2.17-.29-51.4 30.15 2.71 1.54z" data-name="Path 91520"/></g></g><g data-name="Group 86903"><g data-name="Group 86902"><path fill="#d3d1d1" d="M45.51 84.29l-.18-5.97 1.91 4.03z" data-name="Path 91521"/></g></g><path fill="#527aaa" d="M55.45 97.72c13.17 7.48 34.45 7.34 47.52-.33 6.55-3.85 9.8-8.85 9.74-13.83l-.18-6.33-1.07 1.2c-1.52-3.11-4.4-6.05-8.68-8.48-13.18-7.48-34.45-7.34-47.52.33s-13 19.95.19 27.44zm19.03-11.17c3.43 1.95 3.45 5.15.05 7.14a13.68 13.68 0 0 1-12.37.1c-3.43-1.96-3.46-5.16-.05-7.15a13.67 13.67 0 0 1 12.37-.09z" data-name="Path 91522"/><g data-name="Group 86905"><g data-name="Group 86904"><path fill="#f2f2f2" d="M55.27 91.75c13.17 7.49 34.45 7.34 47.52-.33s12.98-19.95-.2-27.44-34.45-7.33-47.52.34-12.98 19.95.2 27.43zM74.3 80.6c3.43 1.94 3.45 5.14.05 7.14a13.67 13.67 0 0 1-12.37.08c-3.43-1.94-3.45-5.14-.05-7.14a13.67 13.67 0 0 1 12.37-.09z" data-name="Path 91523"/></g></g><path fill="#75a2ce" d="M70.55 95.02a13.5 13.5 0 0 1-8.4-1.24c-2.45-1.4-3.15-3.43-2.1-5.21l-5.97-4.74-6.2-7c-4.81 7.02-2.28 15.3 7.57 20.9a41.53 41.53 0 0 0 14.73 4.68z" data-name="Path 91524"/><g data-name="Group 86907"><g data-name="Group 86906"><path fill="#eaf5ff" d="M55.27 91.75a40.13 40.13 0 0 0 9.91 3.89A52.76 52.76 0 0 0 73.06 97c10.48 1.02 21.67-.85 29.73-5.58 13.07-7.67 12.98-19.95-.2-27.44s-34.45-7.33-47.52.34-12.98 19.95.2 27.43zM74.3 80.6c3.43 1.94 3.45 5.14.05 7.14a13.67 13.67 0 0 1-12.37.08c-3.43-1.94-3.45-5.14-.05-7.14a13.67 13.67 0 0 1 12.37-.09z" data-name="Path 91525"/></g></g><g data-name="Group 86910"><g data-name="Group 86909"><g data-name="Group 86908"><path fill="#527aaa" d="M49.04 78.16c.64-3.83 3.48-7.56 8.53-10.52 11.63-6.83 30.56-6.96 42.28-.3 5.82 3.3 8.77 7.67 8.83 12.06.84-4.99-2.06-10.12-8.7-13.89-11.72-6.66-30.65-6.53-42.28.3-5.84 3.43-8.73 7.9-8.66 12.35z" data-name="Path 91526"/></g></g></g></g><g data-name="Group 86915"><g data-name="Group 86914"><g data-name="Group 86913"><g data-name="Group 86912"><path fill="#527aaa" d="M41.12 132.46a13.18 13.18 0 0 1-6.6-1.7c-4.72-2.67-7.35-8.06-7.4-15.16-.1-12.95 8.92-28.81 20.09-35.36 6.12-3.6 12.09-4.1 16.81-1.41a13.2 13.2 0 0 1 4.89 4.88A20.35 20.35 0 0 1 71.4 94c.1 12.95-8.91 28.81-20.08 35.37a20.42 20.42 0 0 1-10.22 3.1zm16.3-50.58a15.73 15.73 0 0 0-7.8 2.45c-9.86 5.79-17.82 19.8-17.74 31.24.03 5.33 1.8 9.26 4.99 11.06s7.46 1.32 12.06-1.37c9.87-5.8 17.82-19.8 17.74-31.24a15.94 15.94 0 0 0-1.85-7.9 8.25 8.25 0 0 0-7.4-4.24z" data-name="Path 91527"/></g></g></g></g></g></g></g><path fill="#eaf5ff" d="M63.62 92.39l9.38 2.3 1.35-6.96a13.67 13.67 0 0 1-12.37.08z" data-name="Path 91528"/><path fill="#eaf5ff" d="M55.27 91.75a40.13 40.13 0 0 0 9.91 3.89A52.76 52.76 0 0 0 73.06 97c10.48 1.02 21.67-.85 29.73-5.58l-38.2-.86z" data-name="Path 91529"/><path fill="#527aaa" d="M69.38 96.57a55.47 55.47 0 0 1-8.3-2.13v5.86a45.5 45.5 0 0 0 8.2 2.1c8.75 1.16.1-5.83.1-5.83z" data-name="Path 91530"/></g><path fill="#75a2ce" d="M63.3 95.14a38.91 38.91 0 0 1-5.4-1.99c-5.12-2.4 1.34 6.47 1.34 6.47s1.75.7 4.05 1.4z" data-name="Path 91531"/></g><path fill="#75a2ce" d="M159.13 198.12l-16.71 10.78-8.14-1.32 19.87-9.6z" data-name="Path 91532"/><g data-name="Group 86925"><g data-name="Group 86922"><path fill="#28487a" d="M138.92 252.55s-4.81-2.43-7.77 1.19-7.18 12.15-7.31 17.92 4.56 5.37 7.35 4 10.94-13.18 11.44-15.5-.58-5.45-1.37-6.06-2.34-1.55-2.34-1.55z" data-name="Path 91533"/><path fill="#75a2ce" d="M139.97 251.4l.23 4.98a2.83 2.83 0 0 1-1.41 2.6 5.55 5.55 0 0 1-3.72.57c-3.62-.58-3.95-1.62-4.2-6.6s9.1-1.56 9.1-1.56z" data-name="Path 91534"/><g data-name="Group 86921"><path fill="#28487a" d="M121.3 242.96s-4.82-2.43-7.77 1.19-7.19 12.15-7.32 17.91 4.57 5.38 7.36 4.02 10.94-13.2 11.43-15.51-.58-5.45-1.36-6.06-2.34-1.55-2.34-1.55z" data-name="Path 91535"/><path fill="#75a2ce" d="M122.35 241.8l.22 4.99a2.83 2.83 0 0 1-1.4 2.6 5.55 5.55 0 0 1-3.72.58c-3.63-.59-3.95-1.62-4.21-6.61s9.1-1.56 9.1-1.56z" data-name="Path 91536"/><path fill="#eaf5ff" d="M165.31 150.22c-1.43-23.18-25.11 3.41-25.11 3.41l-16.21 15.9-14.6 16.03a14.39 14.39 0 0 0-3.63 11.56l5.9 44.96a4.42 4.42 0 0 0 4.44 3.84 14.92 14.92 0 0 0 2.18-.19 5.5 5.5 0 0 0 4.88-5.83l-1.08-42.05 30.66-18.48s14-5.96 12.57-29.15z" data-name="Path 91537"/></g><path fill="#75a2ce" d="M133.8 189.9l-4.36-1.6c-.1 0-7.41 7.07-7.35 9.55l3.28 1.05 8.24-8z" data-name="Path 91538"/><path fill="#75a2ce" d="M159.13 198.12s18.22-10.4 20.4-14.76c.86-1.7 2.18-3.5-3.13-6.07l-24.3 17.32 1.05 5.96z" data-name="Path 91539"/><path fill="#eaf5ff" d="M182.93 159.17c-1.51-23.18-25.1 3.41-25.1 3.41l-16.22 15.89-14.6 16.04a14.39 14.39 0 0 0-3.62 11.55l5.9 44.97a4.42 4.42 0 0 0 4.44 3.84 15.06 15.06 0 0 0 2.18-.2 5.5 5.5 0 0 0 4.88-5.82l-1.08-42.06 30.66-18.48s13.95-7.95 12.56-29.14z" data-name="Path 91540"/><path fill="#75a2ce" d="M168.92 84.63c17.96 7.44 17.6 18.06 17.6 18.06s-3.52 38.91-2.31 64.9c.5 10.86-57.73 11.7-49.04-17.3 10.23-34.17 6.4-61.84 11.19-66s17.92-1.59 22.56.34z" data-name="Path 91541"/><path fill="#ffc4b2" d="M174.7 94.03c-.94 3.65-5.72 5.57-10.67 4.3s-8.2-5.27-7.27-8.92 5.72-5.56 10.67-4.29 8.2 5.27 7.27 8.91z" data-name="Path 91542"/><path fill="#fff" d="M167.06 99.58a13.03 13.03 0 0 1-3.24-.42 11.95 11.95 0 0 1-6.3-3.85 6.86 6.86 0 0 1-1.6-6.1c1.06-4.1 6.32-6.3 11.72-4.91a11.95 11.95 0 0 1 6.3 3.85 6.86 6.86 0 0 1 1.59 6.1c-.84 3.27-4.35 5.33-8.47 5.33zm-2.7-14c-3.33 0-6.12 1.56-6.76 4.05a5.2 5.2 0 0 0 1.25 4.6 10.23 10.23 0 0 0 5.4 3.27c4.48 1.15 8.8-.5 9.62-3.67a5.2 5.2 0 0 0-1.26-4.6 10.22 10.22 0 0 0-5.4-3.27 11.52 11.52 0 0 0-2.85-.37z" data-name="Path 91543"/><path fill="#ffc4b2" d="M161.72 83.82a44.04 44.04 0 0 1-.15 6.4c-.1 1.8 6.16 3.47 7.78 1.85s.97-3.3 1.36-9.4-8.99 1.15-8.99 1.15z" data-name="Path 91544"/><path fill="#f6bba9" d="M170.71 82.68s-1.54 5.64-9.14 7.8l.11-5.12z" data-name="Path 91545"/><path fill="#ffc4b2" d="M175.53 68.33a13.82 13.82 0 1 1-16.84-9.92 13.82 13.82 0 0 1 16.84 9.92z" data-name="Path 91546"/><path fill="#f6bba9" d="M165.32 72.3s-7.6 3.26-12.88 3.3-4.1-4.37-4.1-4.37l15.64-2.26z" data-name="Path 91547"/><path fill="#274f89" d="M150.87 73.16s6.63-2.81 12.45-1.64a6.1 6.1 0 0 1 3.51 2.09 2.08 2.08 0 0 0 1.06.77c1.04.23 2.72-4.05 4.73-4.14s3.34 1.32 1.7 3.95-1.09 5.58-.33 6 8.77-5.72 1.7-19.74-25.05-6.46-27.85-3.62c0 0-2.94 2.56-5.34.28 0 0-2.68 20.1 8.37 16.05z" data-name="Path 91548"/><path fill="#ffc4b2" d="M176.45 131.12v10.51a4.29 4.29 0 0 1-1.4 3.17l-21.6 19.7 2.45 3.75 28.53-20.7a5.8 5.8 0 0 0 2.36-4.08l1.93-18.34z" data-name="Path 91549"/><path fill="#75a2ce" d="M185 97.43s6.55 9.85 9 35.8c0 0-11.2 3.62-17.55 1.56S185 97.43 185 97.43z" data-name="Path 91550"/><path fill="#527aaa" d="M175.25 109.89s-2.57 13.73-2.71 20.18a4.12 4.12 0 0 0 2.7 3.98z" data-name="Path 91551"/></g><g data-name="Group 86923"><path fill="#28487a" d="M169.65 178.16l-4.78-.63-30.82-17.79a4.29 4.29 0 0 0-3.85.16l-21.84 12.6-2.88-.38V175a1.13 1.13 0 0 0 .66 1l34.92 20.17a4.28 4.28 0 0 0 3.86-.16l23.78-13.72a1.56 1.56 0 0 0 .94-1.3z" data-name="Path 91552"/><path fill="#527aaa" d="M146.49 166.92l-2.2-1.26h-24.06l-11.87 6.84-2.89-.38V175a1.13 1.13 0 0 0 .67 1l34.92 20.17a3.6 3.6 0 0 0 1.99.38z" data-name="Path 91553"/><path fill="#75a2ce" d="M106.75 172.3l-1.28-.18V175a1.13 1.13 0 0 0 .67 1l.61.36z" data-name="Path 91554"/><path fill="#3b5b89" d="M141.42 196.33a4.48 4.48 0 0 0 3.27-.2v-4.89h-3.27z" data-name="Path 91555"/><path fill="#fff" d="M141.06 193.3l-34.92-20.17c-.99-.57-.87-1.56.28-2.22l23.78-13.73a4.29 4.29 0 0 1 3.85-.16l34.93 20.17c.99.57.86 1.56-.28 2.22l-23.78 13.73a4.28 4.28 0 0 1-3.86.16z" data-name="Path 91556"/><path fill="#eaf5ff" d="M140.47 190.25l-29.04-16.77c-.82-.48-.72-1.3.23-1.85l12.75-7.17a3.56 3.56 0 0 1 3.2-.13l29.04 16.76c.82.48.72 1.3-.23 1.86l-12.75 7.16a3.56 3.56 0 0 1-3.2.13z" data-name="Path 91557"/></g><path fill="#ffc4b2" d="M131.55 156.52l-.36 2.41a17.82 17.82 0 0 0 .15 6.18l.43 2.13a2.99 2.99 0 0 0 2.4 2.34 1.65 1.65 0 0 0 1.93-1.44l.57-5.15s1.32 1.73 1.96 1.73-.71-5.16-2.15-8.08-4.93-.12-4.93-.12z" data-name="Path 91558"/><path fill="#ffc4b2" d="M143.39 118.22l-3.75 7.42a14.53 14.53 0 0 0-1.53 5.63l-1.63 25.37-4.93-.12-2.24-28.49a10.47 10.47 0 0 1 .13-2.63l2.55-14.45z" data-name="Path 91559"/><g data-name="Group 86924"><path fill="#28487a" d="M139.88 195.23l-2.93-3.82-30.8-17.83a4.28 4.28 0 0 1-1.78-3.42l.02-25.21-1.77-2.31 1.67-.97a1.12 1.12 0 0 1 1.2.07l34.9 20.2a4.28 4.28 0 0 1 1.79 3.43l-.02 27.46a1.56 1.56 0 0 1-.65 1.47z" data-name="Path 91560"/><path fill="#527aaa" d="M118.58 180.78l-2.18-1.27-12.01-20.86v-13.7l-1.76-2.31 1.66-.96a1.12 1.12 0 0 1 1.2.07l34.9 20.2a3.62 3.62 0 0 1 1.32 1.54z" data-name="Path 91561"/><path fill="#75a2ce" d="M103.41 143.66l-.78-1.02 1.66-.97a1.12 1.12 0 0 1 1.2.07l.62.36z" data-name="Path 91562"/><path fill="#3b5b89" d="M140.72 162.18a4.47 4.47 0 0 1 1.46 2.94l-3.41 1.97-1.64-2.84z" data-name="Path 91563"/><path fill="#75a2ce" d="M138.74 162.92l-34.9-20.21c-.99-.57-1.79.03-1.8 1.35l-.02 27.46a4.29 4.29 0 0 0 1.78 3.42l34.9 20.2c1 .58 1.8-.03 1.8-1.34l.02-27.46a4.28 4.28 0 0 0-1.78-3.42z" data-name="Path 91564"/></g><path fill="#ffc4b2" d="M155.9 168.25l-.56 1.15a7.76 7.76 0 0 1-2.91 3.24l-3.47 2.13a3.45 3.45 0 0 1-3.54.09l-.12-.08a2.09 2.09 0 0 1-.3-3.2l3.63-3.72s-2.03 1.55-2.6.93c-.42-.46 1.97-2.7 3.8-2.78a7.25 7.25 0 0 0 3.62-1.52z" data-name="Path 91565"/><path fill="#75a2ce" d="M146.72 84.23s-13.29 14.45-18.64 27.7a27.1 27.1 0 0 0 15.66 11.4c11.11 3.21 2.98-39.1 2.98-39.1z" data-name="Path 91566"/><path fill="#527aaa" d="M141.23 122.47l2.16-20.8-5.07 19.49a28.84 28.84 0 0 0 2.91 1.31z" data-name="Path 91567"/><path fill="#fff" d="M156.66 81.31l-3.57-.98a8.61 8.61 0 0 0 4.2 3.37c2.48.68 2.87-1.43 2.87-1.43z" data-name="Path 91568"/></g><path fill="#eaf5ff" d="M88.93 49.37a10 10 0 1 1 10-10 10 10 0 0 1-10 10zm0-17.81a7.81 7.81 0 1 0 7.81 7.81 7.82 7.82 0 0 0-7.81-7.81z" data-name="Path 91569"/><path fill="#75a2ce" d="M291.01 121.4a7.09 7.09 0 1 1 7.1-7.09 7.1 7.1 0 0 1-7.1 7.09zm0-12a4.9 4.9 0 1 0 4.91 4.9 4.91 4.91 0 0 0-4.9-4.9z" data-name="Path 91570"/><path fill="#75a2ce" d="M58.6 249.46l-4.81-9.78 9.78-4.82 4.82 9.79zm-1.9-8.79l2.9 5.87 5.86-2.88-2.89-5.88z" data-name="Path 91571"/><path fill="#75a2ce" d="M200.63 97.79L195.82 88l9.78-4.81 4.81 9.78zm-1.9-8.8l2.89 5.88 5.87-2.89-2.88-5.87z" data-name="Path 91572"/><path fill="#75a2ce" d="M40.96 192l4.5-2.21 2.2 4.5-4.49 2.2z" data-name="Rectangle 23821"/><g data-name="Group 86928"><g data-name="Group 86926"><path fill="#112564" d="M221.77 44.69l-26.73-15.44a1.37 1.37 0 0 0-1.39-.11v-.02l-2.6 1.5 1.83.67v19.47a5.15 5.15 0 0 0 2.15 4.11l25.56 14.76v2.28l2.62-1.5-.01-.01a1.9 1.9 0 0 0 .72-1.72V48.8a5.15 5.15 0 0 0-2.15-4.11z" data-name="Path 91573"/><path fill="#274f89" d="M219.13 71.83L192.4 56.4a5.15 5.15 0 0 1-2.15-4.11V32.4c0-1.58.97-2.31 2.15-1.63l26.74 15.44a5.15 5.15 0 0 1 2.15 4.11V70.2c0 1.59-.96 2.32-2.15 1.63z" data-name="Path 91574"/></g><g fill="#fff" data-name="Group 86927"><path d="M201.39 49.54c0 1.15-.81 1.62-1.8 1.04a3.99 3.99 0 0 1-1.8-3.12c0-1.15.8-1.62 1.8-1.04a3.99 3.99 0 0 1 1.8 3.12z" data-name="Path 91575"/><path d="M206.85 52.7c0 1.15-.8 1.61-1.8 1.04a3.99 3.99 0 0 1-1.8-3.13c0-1.15.8-1.61 1.8-1.04a4 4 0 0 1 1.8 3.13z" data-name="Path 91576"/><path d="M212.32 55.85c0 1.15-.81 1.62-1.8 1.04a3.99 3.99 0 0 1-1.8-3.12c0-1.15.8-1.62 1.8-1.04a3.98 3.98 0 0 1 1.8 3.12z" data-name="Path 91577"/></g></g><g data-name="Group 86931"><g data-name="Group 86929"><path fill="#75a2ce" d="M36.93 213.84L10.7 198.7a1.34 1.34 0 0 0-1.35-.11v-.02l-2.55 1.47 1.79.66v19.1a5.05 5.05 0 0 0 2.11 4.03l25.07 14.47v2.24l2.57-1.48h-.01a1.87 1.87 0 0 0 .71-1.68v-19.5a5.05 5.05 0 0 0-2.1-4.04z" data-name="Path 91578"/><path fill="#eaf5ff" d="M34.34 240.47L8.11 225.32a5.05 5.05 0 0 1-2.1-4.03v-19.5c0-1.55.94-2.27 2.1-1.6l26.23 15.14a5.05 5.05 0 0 1 2.11 4.04v19.5c0 1.56-.94 2.27-2.1 1.6z" data-name="Path 91579"/></g><g fill="#fff" data-name="Group 86930"><path d="M16.93 218.6c0 1.13-.79 1.59-1.77 1.02a3.91 3.91 0 0 1-1.77-3.06c0-1.13.8-1.59 1.77-1.02a3.91 3.91 0 0 1 1.77 3.06z" data-name="Path 91580"/><path d="M22.3 221.7c0 1.13-.8 1.58-1.77 1.02a3.91 3.91 0 0 1-1.77-3.07c0-1.12.79-1.58 1.77-1.02a3.91 3.91 0 0 1 1.76 3.07z" data-name="Path 91581"/><path d="M27.66 224.8c0 1.12-.8 1.58-1.77 1.01a3.9 3.9 0 0 1-1.77-3.06c0-1.13.8-1.59 1.77-1.02a3.92 3.92 0 0 1 1.77 3.06z" data-name="Path 91582"/></g></g></g></svg>