<svg xmlns="http://www.w3.org/2000/svg" xmlns:xlink="http://www.w3.org/1999/xlink" viewBox="0 0 451.97 184"><defs><linearGradient id="a" x1="-15.15" x2="-15.01" y1="1" y2="0" gradientUnits="objectBoundingBox"><stop offset="0" stop-color="#34aab6"/><stop offset=".99" stop-color="#41d9d9"/></linearGradient><linearGradient id="b" x1="-8.85" x2="-9.26" y1="-.25" y2="-1.24" xlink:href="#a"/><linearGradient id="c" x1="-22.67" x2="-23.14" y1="-2.21" y2="-3.21" xlink:href="#a"/><linearGradient id="d" x1="-29.3" x2="-29.91" y1="3.17" y2="2.26" xlink:href="#a"/><linearGradient id="e" x1="-81.01" x2="-81.69" y1="6" y2="5.11" xlink:href="#a"/><linearGradient id="f" x1="-24.35" x2="-24.96" y1="2.46" y2="1.55" xlink:href="#a"/><linearGradient id="g" x1="-67.13" x2="-67.81" y1="4.3" y2="3.4" xlink:href="#a"/></defs><path fill="url(#a)" d="M242.3 261.1c5.44 1.28 17 .59 21.4-4.4s5.2-11.21 3.7-17.8c-.69-3.13-3.93-8.57-3.46-12.04.69-5.9 5.09-10.98 6.13-14.8 1.15-3.82.7-8.8-2.55-11.68-8.1-7.18-13.42-17.36-15.61-19.44-2.55-2.54-6.83-3.47-9.72-1.5-5.67 3.82-1.85 9.37-.7 12.38 4.52 12.95-10.17 12.14-13.76 22.1-1.96 5.31 9.14 19.9 8.8 21.04-.59 1.86-2.32 2.9-4.17 3.47a7.36 7.36 0 00-4.63 6.71c0 9.49 8.68 14.46 14.58 15.97z" transform="translate(-85.81 -87.72)"/><path fill="#1a4765" d="M162.97 120.41c.23 4.28.35 8.56.35 12.96.12 4.28.12 8.56.12 12.95l-.12 12.96c-.12 4.28-.12 8.56-.35 12.95-.23-4.28-.34-8.56-.34-12.95l-.12-12.96c0-4.28 0-8.56.12-12.95 0-4.4.11-8.68.34-12.96z"/><path fill="#1a4765" d="M162.63 147.25a76.6 76.6 0 015.08-7.4l2.78-3.47a13.84 13.84 0 013.24-3.13c-1.04 1.16-1.74 2.43-2.66 3.59a41.09 41.09 0 01-2.66 3.58 78.63 78.63 0 01-5.78 6.83zM154.64 155.11a24.34 24.34 0 014.86 4.28c.7.81 1.39 1.62 2.08 2.55.35.46.58.92.93 1.39a2.65 2.65 0 01.46 1.61 2.43 2.43 0 00-.8-1.27l-1.17-1.15a40.3 40.3 0 00-2.2-2.32 81.56 81.56 0 01-4.16-5.09zM155.22 123.77a29.39 29.39 0 014.17 5.78 107.7 107.7 0 013.24 6.36 32.56 32.56 0 01-4.05-5.78c-1.16-2.08-2.2-4.16-3.36-6.36z"/><path fill="#10609c" d="M161.47 176.51c3.12-.92 6.7-2.66 7.17-6.36.35-3.7-1.73-6.71-4.97-8.68-1.5-.92-3.7-1.5-4.98-2.77a3.57 3.57 0 01-1.04-2.08c-.23-1.4.23-2.09.35-3.47a4.35 4.35 0 00-1.16-3.94c-2.31-2.43-6.82-1.73-9.02-4.5-1.04-1.4-.58-2.78-.35-4.4.23-1.74.58-3.94-.23-5.8s-2.31-3.46-4.62-3.11-3.94 2.54-4.98 4.74a18.58 18.58 0 00-1.96 4.62c-1.16 4.98-2.43 9.03.69 13.77 2.43 3.82 8.33 3.59 9.25 14.23.7 9.83 12.26 8.8 15.85 7.75z"/><path fill="#1a4765" d="M145.04 149.8a80.76 80.76 0 015.2 5.77c1.74 1.97 3.36 3.94 5.1 5.9 1.62 1.97 3.24 4.05 4.86 6.14s3.23 4.16 4.62 6.24a80.76 80.76 0 01-5.2-5.78c-1.74-1.97-3.36-3.93-5.1-5.9a280.7 280.7 0 01-4.85-6.13c-1.5-1.97-3.13-4.05-4.63-6.25z"/><path fill="#1a4765" d="M153.49 160.43a39.47 39.47 0 01-1.16-5.32 11.15 11.15 0 010-2.77 7.3 7.3 0 01.92-2.66 10.36 10.36 0 00-.23 2.66 20.66 20.66 0 00.23 2.66 17.04 17.04 0 01.24 5.43zM154.53 169.22c.7-.11 1.27-.46 1.96-.57a6.55 6.55 0 012.09-.35 4.46 4.46 0 012.08.7 3.85 3.85 0 011.39 1.61 7.49 7.49 0 00-3.59-1.27 11.9 11.9 0 00-1.97.11 5.73 5.73 0 01-1.96-.23zM141 152.22a15.1 15.1 0 014.5.58 16.86 16.86 0 012.2.8 3.68 3.68 0 011.74 1.5 15.45 15.45 0 00-2.08-.8 13.99 13.99 0 00-2.08-.58 26.78 26.78 0 01-4.28-1.5z"/><path fill="url(#b)" d="M135.63 261.08c4.97-.35 14.92-4.28 17.23-9.83 2.43-5.56 1.27-11.1-1.85-16.43-1.5-2.54-5.78-6.25-6.48-9.48-1.04-5.33 1.27-10.88 1.16-14.58-.12-3.59-1.85-7.87-5.55-9.37-9.02-3.93-16.54-11.22-18.97-12.38-2.9-1.38-6.83-1.15-8.8 1.4-3.81 4.85 1.05 8.55 2.9 10.87 7.52 9.83-5.44 13.3-5.67 22.9-.12 5.08 13.53 14.57 13.53 15.73 0 1.85-1.15 3.12-2.54 4.16a6.71 6.71 0 00-2.08 7.06c2.66 8.44 11.56 10.41 17.12 9.95z" transform="translate(-104.29 -86.18)"/><path fill="#1a4765" d="M21.97 127.35c1.39 3.7 2.66 7.4 3.93 10.99 1.28 3.7 2.55 7.4 3.7 11.1l3.59 11.22c1.16 3.7 2.31 7.52 3.35 11.22-1.38-3.7-2.66-7.4-3.93-10.99l-3.7-11.1c-1.16-3.7-2.43-7.4-3.59-11.22-1.27-3.7-2.3-7.4-3.35-11.22z"/><path fill="#1a4765" d="M29.26 150.6a59.7 59.7 0 012.31-7.75l1.39-3.82a13.17 13.17 0 011.85-3.58c-.58 1.27-.81 2.54-1.27 3.82-.35 1.27-.81 2.54-1.27 3.81a59.92 59.92 0 01-3.01 7.52zM24.52 159.74a24.79 24.79 0 015.43 2.31c.81.46 1.62 1.04 2.43 1.62.35.35.81.58 1.16.93s.8.69.8 1.27a2.63 2.63 0 00-1.03-.93l-1.28-.7c-.8-.45-1.73-.92-2.54-1.38-1.62-1.04-3.36-2.08-4.98-3.12zM16.3 132.44a28.72 28.72 0 015.2 3.82 56.53 56.53 0 014.63 4.5 27.99 27.99 0 01-5.2-3.92 54.92 54.92 0 01-4.63-4.4z"/><g><path fill="#10609c" d="M32.61 174.43c2.43-1.74 5.1-4.17 4.4-7.52s-3.47-5.32-6.7-6.13c-1.63-.35-3.6-.23-5.1-.93a3.15 3.15 0 01-1.5-1.5 9.45 9.45 0 01-.69-3 4.39 4.39 0 00-2.08-3.13c-2.66-1.38-6.36.47-9.14-1.38-1.27-.93-1.27-2.2-1.62-3.7s-.58-3.59-1.85-4.86-3-2.32-4.86-1.39c-1.96.93-2.66 3.35-3 5.55a19.27 19.27 0 00-.47 4.51c.35 4.63.47 8.45 4.51 11.69 3.24 2.66 8.22.69 12.03 9.71 3.58 8.21 13.3 4.05 16.07 2.08z"/><path fill="#1a4765" d="M10.87 156.04c2.08 1.16 4.16 2.31 6.13 3.47 2.08 1.16 4.04 2.43 6.01 3.7s3.93 2.54 5.9 3.93c1.97 1.27 3.93 2.66 5.79 4.05-2.09-1.16-4.17-2.31-6.14-3.47-2.08-1.16-4.04-2.43-6.01-3.7s-3.93-2.55-5.9-3.93a102.87 102.87 0 01-5.78-4.05zM21.16 162.75a32.08 32.08 0 01-2.54-4.28 10 10 0 01-.81-2.43 4.77 4.77 0 01.11-2.55 13.53 13.53 0 00.58 2.32 17.8 17.8 0 00.93 2.2 19.64 19.64 0 011.73 4.74z"/><path fill="#1a4765" d="M24.52 170.15a16.93 16.93 0 001.5-1.04 4.02 4.02 0 011.73-.81 5.6 5.6 0 011.97 0 3.73 3.73 0 011.62.92 7.13 7.13 0 00-3.47-.11 9.06 9.06 0 00-1.62.57 3.83 3.83 0 01-1.73.47zM7.97 159.28a15.72 15.72 0 014.05-.81 12.57 12.57 0 012.08.11 4.2 4.2 0 011.97.81 11.9 11.9 0 00-1.97-.11 11.22 11.22 0 00-1.96.11 25.06 25.06 0 01-4.17-.11z"/></g><g><path fill="url(#c)" d="M121.41 252.7c.23-2.42-1.04-4.27-.11-8.79 1.5-7.75-8.56-7.63-11.45-11.8-2.43-3.47-3.82-6.94-2.09-9.71-1.38 1.16-1.85 3.12-2.2 4.97a19.27 19.27 0 00-.46 4.51c.35 4.63.46 8.45 4.51 11.69 3.13 2.54 7.99.8 11.8 9.14z" transform="translate(-105 -80.82)"/></g><g><path fill="url(#d)" d="M368.6 262.27c-5.78-.47-17.23-4.98-19.9-11.34-2.78-6.36-1.5-12.84 2.08-18.85 1.74-2.9 6.71-7.3 7.4-10.88 1.16-6.13-1.39-12.6-1.27-16.77s2.2-9.02 6.36-10.87c10.41-4.51 19.09-12.84 21.86-14.23 3.36-1.62 7.87-1.27 10.18 1.62 4.4 5.67-1.27 9.83-3.35 12.6-8.8 11.34 6.25 15.4 6.6 26.5.22 5.9-15.62 16.77-15.62 18.16 0 2.08 1.27 3.58 3 4.85a7.68 7.68 0 012.43 8.22c-3.11 9.25-13.3 11.45-19.77 10.99z" transform="translate(-67.05 -87.72)"/><path fill="#1a4765" d="M312.42 119.72c-1.62 4.16-3.12 8.44-4.63 12.72s-2.89 8.56-4.28 12.84l-4.05 12.84c-1.27 4.28-2.66 8.67-3.81 12.95 1.62-4.16 3.12-8.44 4.62-12.72l4.28-12.84c1.4-4.28 2.78-8.56 4.05-12.84 1.39-4.28 2.66-8.55 3.82-12.95z"/><path fill="#1a4765" d="M303.98 146.55a80.76 80.76 0 00-2.66-9.02c-.58-1.5-1.05-2.9-1.62-4.4a16.04 16.04 0 00-2.2-4.16c.57 1.39.92 2.89 1.38 4.4s.93 3 1.4 4.4c1.27 3 2.3 5.9 3.7 8.78zM309.41 156.96a24.79 24.79 0 00-6.25 2.66c-.92.58-1.96 1.16-2.89 1.85l-1.38 1.04a1.9 1.9 0 00-.93 1.4 2.83 2.83 0 011.27-1.05l1.5-.8c1.04-.59 1.97-1.05 2.9-1.63a42.53 42.53 0 005.78-3.47zM319.01 125.62a32.1 32.1 0 00-6.01 4.4 74.82 74.82 0 00-5.32 5.2 37.89 37.89 0 005.9-4.51c1.85-1.62 3.58-3.36 5.43-5.1z"/><path fill="#10609c" d="M300.16 173.96c-2.9-1.96-5.9-4.86-4.97-8.67.8-3.82 3.93-6.13 7.75-7.06 1.85-.46 4.16-.23 5.9-1.04a2.92 2.92 0 001.62-1.73c.69-1.4.46-2.09.8-3.47a5 5 0 012.44-3.59c3.12-1.62 7.4.58 10.52-1.62 1.5-1.04 1.5-2.54 1.85-4.28s.7-4.16 2.2-5.67c1.39-1.5 3.47-2.66 5.67-1.62s3.12 3.82 3.47 6.37a19.4 19.4 0 01.46 5.2c-.46 5.32-.57 9.83-5.2 13.53-3.7 3.01-9.49.81-13.88 11.22-4.29 9.6-15.4 4.75-18.63 2.43z"/><path fill="#1a4765" d="M325.14 152.8c-2.43 1.27-4.74 2.66-7.17 4.05-2.31 1.38-4.63 2.77-6.94 4.28s-4.63 2.89-6.82 4.5c-2.32 1.5-4.51 3.13-6.71 4.75 2.43-1.27 4.74-2.66 7.17-4.05 2.31-1.39 4.63-2.77 6.94-4.28s4.63-2.89 6.82-4.5c2.32-1.51 4.51-3.13 6.71-4.75z"/><path fill="#1a4765" d="M313.23 160.55a34.95 34.95 0 002.9-4.98 26.03 26.03 0 00.92-2.77 4.94 4.94 0 00-.12-2.9 12.2 12.2 0 01-.7 2.78c-.34.81-.69 1.74-1.03 2.55a29.4 29.4 0 00-1.97 5.32zM309.41 169a16.56 16.56 0 01-1.73-1.28 6.43 6.43 0 00-1.97-1.04 3.94 3.94 0 00-2.31 0 6.43 6.43 0 00-1.97 1.04 9.15 9.15 0 013.94-.11 12.04 12.04 0 011.85.69 4.4 4.4 0 002.2.7zM328.5 156.5a20.52 20.52 0 00-4.63-.93 17.08 17.08 0 00-2.43.12 4.7 4.7 0 00-2.2.93 15.68 15.68 0 012.32-.23 15.5 15.5 0 012.3.11 20.6 20.6 0 004.64 0z"/><g><path fill="url(#e)" d="M380.7 252.65c-.23-2.78 1.16-4.98.23-10.18-1.73-8.9 9.83-8.8 13.19-13.65 2.77-4.05 4.4-7.98 2.43-11.22 1.5 1.27 2.2 3.59 2.42 5.78a19.4 19.4 0 01.47 5.2c-.47 5.33-.58 9.84-5.2 13.54-3.59 2.9-9.14.93-13.54 10.53z" transform="translate(-61.8 -81.57)"/></g></g><g><path fill="url(#f)" d="M461.6 269.93c-6.94-.58-20.7-5.9-24.06-13.65s-1.73-15.5 2.55-22.79c2.08-3.47 8.1-8.79 8.9-13.18 1.5-7.4-1.73-15.16-1.62-20.25s2.66-10.87 7.64-13.07c12.6-5.43 23.02-15.61 26.37-17.23 4.05-1.97 9.49-1.5 12.26 1.96 5.32 6.83-1.5 11.92-4.05 15.16-10.52 13.76 7.52 18.62 7.87 31.92.23 7.06-18.85 20.24-18.85 21.86 0 2.55 1.61 4.4 3.58 5.9a9.5 9.5 0 012.9 9.95c-3.36 11.45-15.74 14-23.49 13.42z" transform="translate(-53.18 -89.25)"/><path fill="#1a4765" d="M421.5 114.51c-1.97 5.1-3.7 10.18-5.56 15.39-1.73 5.08-3.47 10.3-5.2 15.5L405.76 161c-1.61 5.2-3.23 10.41-4.62 15.62 1.96-5.1 3.7-10.18 5.55-15.39l5.2-15.5c1.62-5.2 3.35-10.4 4.97-15.61 1.63-5.1 3.25-10.3 4.64-15.62z"/><path fill="#1a4765" d="M411.32 146.9a116.95 116.95 0 00-5.1-16.2 20.96 20.96 0 00-2.54-5.08c.7 1.73 1.16 3.58 1.74 5.32.58 1.85 1.15 3.58 1.73 5.32a84.6 84.6 0 004.17 10.64zM417.91 159.5a30.78 30.78 0 00-7.52 3.25c-1.15.7-2.31 1.38-3.47 2.2a15.54 15.54 0 00-1.62 1.27 3.55 3.55 0 00-1.15 1.73 4.03 4.03 0 011.5-1.27l1.73-.92c1.16-.7 2.31-1.28 3.59-1.97 2.31-1.39 4.74-2.66 6.94-4.28zM429.36 121.68a40.53 40.53 0 00-7.29 5.32c-2.2 1.97-4.28 4.05-6.36 6.25a41.77 41.77 0 007.17-5.44c2.32-1.96 4.4-4.04 6.48-6.13z"/><path fill="#10609c" d="M406.69 180.1c-3.47-2.31-7.06-5.78-6.02-10.41s4.75-7.4 9.37-8.44c2.2-.47 5.1-.24 7.06-1.28a4.22 4.22 0 001.97-2.08c.8-1.62.57-2.54 1.04-4.28s.92-3.24 2.89-4.28c3.7-1.96 8.9.7 12.6-1.96 1.74-1.28 1.74-3.01 2.2-5.21.47-2.08.82-4.97 2.55-6.82s4.17-3.24 6.83-1.97c2.77 1.27 3.7 4.63 4.16 7.75.23 2.08.81 4.05.58 6.25-.58 6.36-.7 11.8-6.25 16.3-4.5 3.7-11.45 1.05-16.77 13.54-4.86 11.45-18.4 5.55-22.21 2.89z"/><path fill="#1a4765" d="M436.88 154.53c-2.9 1.5-5.78 3.24-8.56 4.86-2.9 1.62-5.67 3.47-8.44 5.2s-5.56 3.6-8.22 5.44c-2.77 1.86-5.43 3.7-8.1 5.67 2.9-1.5 5.79-3.24 8.56-4.86 2.9-1.61 5.67-3.47 8.45-5.2s5.55-3.59 8.21-5.44c2.78-1.85 5.44-3.7 8.1-5.67z"/><path fill="#1a4765" d="M422.54 163.9a51.58 51.58 0 003.58-6.01 16.42 16.42 0 001.16-3.36 7.53 7.53 0 00-.12-3.58 14.76 14.76 0 01-.8 3.24c-.35 1.04-.82 2.08-1.28 3.12-1.04 2.2-2.2 4.16-2.54 6.6zM417.9 174.08c-.8-.46-1.38-1.04-2.07-1.5a7.88 7.88 0 00-2.43-1.16 5.44 5.44 0 00-5.1 1.28 11.67 11.67 0 014.87-.23c.8.23 1.5.58 2.31.8a4.36 4.36 0 002.43.81zM440.93 158.93a23.5 23.5 0 00-5.67-1.16 24.17 24.17 0 00-2.9.12 4.62 4.62 0 00-2.65 1.15 11.26 11.26 0 012.77-.23 22.29 22.29 0 012.78.12 23.2 23.2 0 005.67 0z"/><g><path fill="url(#g)" d="M476.1 258.35c-.23-3.35 1.5-6.01.23-12.26-2.08-10.76 11.8-10.64 15.96-16.54 3.36-4.86 5.32-9.6 2.9-13.65 1.85 1.62 2.66 4.4 3 6.94.23 2.08.81 4.05.58 6.25-.58 6.36-.7 11.8-6.25 16.3-4.27 3.82-11.1 1.28-16.42 12.96z" transform="translate(-46.86 -81.84)"/></g></g><g><path fill="#1499ab" d="M99.59 122.6l-18.5 3.13-11.1 1.74-22.45-3.94-14.35-2.66 22.9-5.9z"/><path fill="#1a4765" d="M81.08 125.74l-11.1 1.73-22.45-3.93 8.56-2.2zM101.78 82.24l-9.71 26.6c-.12.46.11.93.57.93l29.38 2.3a3.66 3.66 0 003.7-2.3l8.91-24.53c.12-.46-.11-.92-.58-.92l-31.57-2.54c-.35 0-.7.23-.7.46z"/><path fill="#d0dae9" d="M125.26 107.92l8.22-22.56-30.89-2.54-8.21 22.55z"/><path fill="#b0c0de" d="M128.15 89.76a.37.37 0 00-.34-.35.42.42 0 00-.35.12l-6.6 5.09-6.24 1.5a.25.25 0 00-.23.23l-4.97 4.4-5.79-3.7h-.11c-.23 0-.35.11-.35.23l-5.2 4.16.57.7c2.08-1.74 4.63-3.7 4.98-4.05l5.78 3.7a.36.36 0 01.23.11.42.42 0 00.35-.11l5.2-4.63c.35-.12 6.14-1.5 6.14-1.5.23 0 6.94-5.32 6.94-5.32 0-.23.11-.47 0-.58z"/><path fill="#b0c0de" d="M129.43 88.49l-4.28 1.27 2.31.35v2.2z"/><path fill="#d0dae9" d="M104.1 90.92l.8-1.97-3.7-.35-.69 2.08zM103.05 93.8l.7-1.96-3.59-.35-.8 2.09zM102.01 96.7l.7-1.97-3.7-.34-.7 2.08zM100.86 99.7l.8-2.08-3.7-.23-.69 1.97z" opacity=".55"/><path fill="#aec0de" d="M96.58 110.12l-30.77-2.43a1.28 1.28 0 01-1.16-1.39 1.22 1.22 0 011.39-1.16l30.77 2.43a1.28 1.28 0 011.15 1.39 1.3 1.3 0 01-1.38 1.16z"/><path fill="#d0dae9" d="M124 83.28l-20.02 24.64 6.7.7 20.02-24.64z" opacity=".55"/><path fill="#d2dbea" d="M123.3 112.2l-28.34-2.31a1.5 1.5 0 01-1.27-1.5 1.5 1.5 0 011.5-1.28l28.33 2.32a1.5 1.5 0 011.28 1.5 1.34 1.34 0 01-1.5 1.27z"/><g fill="#1a4765"><path d="M114.55 109.67l2.53.2-.07.81-2.53-.2zM112 109.47l1.84.14-.06.81-1.85-.15z"/></g><path fill="#d0dae9" d="M105.48 85.36a1.4 1.4 0 11-1.27-1.5 1.34 1.34 0 011.27 1.5z" opacity=".55"/><path fill="#fcd2c5" d="M85.36 109.77c0 .35-1.4.7-1.74.58-.7-.47-.46-.81-1.16-1.16a6.4 6.4 0 002.09.23c.46 0 .8-.11.8.35z"/><path fill="#fcd2c5" d="M84.08 110.12c.81.57 2.55 1.96 2.66 1.96.35.35 1.28.93 1.4 1.27a1.9 1.9 0 01.1 1.16c-.1.35-.57.35-.57.35-.12.46-1.16 0-1.16.11 0 .47-.7.7-1.96-.46-.12-.11-3.82-2.2-4.98-3a19.98 19.98 0 012.43-2.67 20.12 20.12 0 012.08 1.28z"/><path fill="#fcd2c5" d="M64.42 91.73l.7.34c3.23 2.66 13.3 14.7 17.11 16.89a12.3 12.3 0 00-2.08 2.78C74.02 107.92 59.8 96.58 60.6 93.8a2.71 2.71 0 013.82-2.08z"/><path fill="#fcd2c5" d="M63.84 69.52c1.04 3.7 1.16 16.19 2.31 22.09 1.5 7.29-4.16 5.67-5.32 3.7-3-5.44-8.1-21.63-5.43-23.48 1.15-.81 8.21-3 8.44-2.31z"/><path fill="#c6fff0" d="M65.11 69.05c2.55 3.13 1.4 19.55 1.97 22.44.12.47.12 1.04.23 1.4 1.27 1.26 2.9 3 4.63 4.85 3.81 4.05 8.56 9.14 10.75 10.41l-3 4.28c-5.44-3.35-17.24-12.6-19.55-16.89-2.43-4.4-7.87-19.78-5.9-23.71 2.9-5.78 8.56-5.55 10.87-2.78z"/><path fill="#1f6dd2" d="M60.49 112.78c5.32-1.97 31.34-7.75 45-5.55 8.21 1.27 6.94 9.6 4.5 10.75-6.35 2.9-31.57 11.92-43.02 10.41-8.91-1.39-9.26-14.57-6.48-15.61z"/><path fill="#1f6dd2" d="M52.97 113.93c3.35-4.62 31.8-10.3 45.46-8.1a6.4 6.4 0 014.5 10.76c-4.27 3.35-22.09 13.07-40.94 10.53-8.79-1.16-12.72-8.21-9.02-13.19z"/><path fill="#fcd2c5" d="M105.83 154.42a7.15 7.15 0 00-.7 2.08 4.76 4.76 0 01-3.46.58 10.67 10.67 0 01.46-3.47c.23.11 2.43-.7 3.7.8z"/><path fill="#1f6dd2" d="M111.73 114.97c-2.9 20.01-5.55 40.49-5.55 40.49a3.83 3.83 0 00-4.4.11s-1.38-20-2.08-37.7c-.35-11.69 13.19-11 12.03-2.9z"/><path fill="#d0dae9" d="M105.25 155.69s.12.23.46.81c.81 1.16 5.1 3.93 5.1 5.44 0 .8-1.74 1.39-3.01 1.39a6.24 6.24 0 01-3.24-.58 16 16 0 01-2.66-3.36 4.4 4.4 0 01-.12-3c1.04-1.74 3.47-.7 3.47-.7z"/><path fill="#d0dae9" d="M105.02 157.66c1.16 1.15 5.2 3.35 5.09 4.62 0 .7-1.39 1.16-2.55 1.16a5.49 5.49 0 01-2.66-.46 12.68 12.68 0 01-2.3-2.9c-1.17-2.42 1.26-3.58 2.42-2.42z"/><path fill="#fcd2c5" d="M74.83 153.5c-.35 1.96-.92 3.93-.92 3.93a10.79 10.79 0 01-4.05-2.09 22.46 22.46 0 001.5-2.66c1.5-1.27 3.24.93 3.47.81z"/><path fill="#1f6dd2" d="M92.07 124.92c-9.84 17.58-17 29.85-17 29.85a3.65 3.65 0 00-4.05-1.5s4.86-14 10.52-30.77c3.82-11.11 14.46-4.75 10.53 2.42z"/><path fill="#d0dae9" d="M70.09 155.23a2.82 2.82 0 012.77-.7 2.06 2.06 0 011.16 1.85 4.43 4.43 0 01-.58 2.2 13.57 13.57 0 01-3.24 2.9 5.94 5.94 0 01-3.24.11c-1.27-.23-2.89-1.04-2.77-1.85.23-1.5 4.86-3.47 5.9-4.51z"/><path fill="#d0dae9" d="M70.67 156.38c1.27-.92 3.47.7 1.96 2.78a11.08 11.08 0 01-2.66 2.43 5.27 5.27 0 01-2.77.12c-1.16-.12-2.43-.93-2.32-1.5.23-1.4 4.51-2.9 5.79-3.83zM53.32 102.13A170.56 170.56 0 0072.17 104c3.93.11 5.09-.93 8.56-1.97.35.93.23 2.9 1.97 5.2 1.27 1.74 3.23 6.14-5.9 11-15.5 8.2-28.23-.93-28.8-.93a153.72 153.72 0 011.04-15.73c1.38.23 2.89.46 4.28.58z"/><path fill="#fcd2c5" d="M65.46 55.29c.46.35 5.2 3 6.48 2.78 0 .34-.93 4.28-.12 6.47-.34 1.97-5.9 1.97-7.4-1.38.81-.93 1.27-6.02 1.04-7.87z"/><path fill="#fcd2c5" d="M73.21 45.92c3 .46 5.79 1.74 5.9 4.74 0 1.04-2.31 10.3-7.52 10.41-3.7.12-5.43-4.16-5.09-6.7l.47-3.36c.46-3.12 3-5.55 6.24-5.09z"/><path fill="#10609d" d="M58.98 64.54c1.4-.35 5.56-1.5 5.56-1.5a5.63 5.63 0 003.35 1.73 7.07 7.07 0 004.05-.34s4.97 2.08 5.9 2.66c5.2 3.12 3.81 6.59 4.05 11.22.11 2.2-2.78 17.46.8 27.18 1.28 3.35-10.17 13.76-30.65 8.9l-1.73-7.74-1.5 7.28a16.25 16.25 0 00-2.08-.23c.11-18.85 5.43-37.24 5.66-38.17 1.04-3.47 2.43-9.95 6.6-11z"/><path fill="#1a4765" d="M63.84 42.22c4.74-3.7 12.26-1.27 14.34 3.7 1.62 3.7 3.7 2.2 3.47 1.27.47 2.43-.57 4.51-5.2 4.16-1.04-.11 2.2.93 2.2.93s-4.97 10.4-12.72 7.87a12.26 12.26 0 01-4.28-3.01s2.54.46 1.15-1.62c-2.66-4.04-3.24-10.06 1.04-13.3z"/><g><path fill="#fcd2c5" d="M110.8 105.84c.12.34-1.61 1.85-1.96 1.85-.81 0-1.39-.35-1.27-.93a8.8 8.8 0 002.43-.92c.34-.12.57-.47.8 0z"/><path fill="#fcd2c5" d="M108.95 107a36.16 36.16 0 015.1 1.26c.22.12.92.24.8.81 0 .35-.7.7-.7.7.35.8-1.15.7-1.03.8.34.47-.35.82-2.08.47-1.4-.23-3.47-.35-5.67-.8a30.83 30.83 0 011.04-3.36 9.19 9.19 0 012.54.11z"/><path fill="#fcd2c5" d="M85.47 97.62a.98.98 0 01.7.23c3.58 2.08 16.88 7.52 21.05 9.02a12.5 12.5 0 00-1.74 3.13c-6.13-1.4-24.06-6.14-23.71-9.03a3.48 3.48 0 013.7-3.35z"/><path fill="#fcd2c5" d="M80.38 74.37c1.5 3.59 3.13 15.97 4.98 21.63 2.3 7.06-3.47 6.14-4.86 4.28-3.7-5.08-11.45-20.58-9.02-22.78 1.15-.93 8.67-3.7 8.9-3.13z"/><path fill="#10609d" d="M81.66 72.4c.57 3.94 1.15 7.52 1.96 11.8s2.9 12.5 3 12.96c1.4 1.15 15.74 7.17 18.17 8.1l-1.74 4.86c-5.9-1.86-20.36-5.44-23.13-9.37-3-4.17-12.03-20.13-9.6-23.83 2.31-3.7 11.34-4.74 11.34-4.52z"/></g><path fill="#3dc7c9" d="M69.97 127.47v52.28l19.67-5.78 9.83-51.36z"/><path fill="#79d9d3" d="M69.97 127.47l-36.78-6.6 7.63 53.1 29.15 5.78z"/></g><g><path fill="#b0c0de" fill-rule="evenodd" d="M215.49 140.6c0 1.16-2.08 2.09-5.67 2.9-4.86 1.15-12.6 1.85-21.17 1.85s-16.3-.7-21.17-1.85c-3.47-.81-5.66-1.85-5.66-2.9 0-2.66 12.03-4.74 26.83-4.74 14.8-.11 26.84 2.08 26.84 4.74z"/><path fill="#1a4765" fill-rule="evenodd" d="M209.93 143.5c-4.85 1.15-12.6 1.85-21.16 1.85s-16.31-.7-21.17-1.85c1.96-1.97 10.64-3.47 21.17-3.47 10.4 0 19.2 1.5 21.16 3.47z"/><path fill="#fcd2c5" d="M184.95 87.9c1.27 16.55 4.74 18.75 3.93 27.19-1.39 14.57 4.28 48.81 4.28 48.81a4.99 4.99 0 003.59-.7s.8-25.32 2.9-49.03c.68-8.45 2.42-13.54 3.8-26.26h-18.5z"/><path fill="#1a4765" d="M196.98 162.05c1.74 3.82 6.25 3.7 5.55 5.32-.34.81-2.66.93-4.28.93s-3.47-1.62-4.16-2.31c-1.27-1.28-3-.58-3-2.32 0-1.15.92-1.73 1.15-2.08.7-.81 4.5-.23 4.74.46z"/><path fill="#fcd2c5" d="M196.75 159.97a2.82 2.82 0 00.23 2.08c.12.23.58.93-.92.81a18 18 0 01-3.7-1.39 7.42 7.42 0 00.58-1.85z"/><path fill="#1a4765" d="M192.12 168.3c0 .11-.35.11-.35 0-.11-.35-.46-4.4-.46-4.4l.7-.23c-.12 0 .23 4.28.11 4.63z"/><path fill="#fcd2c5" d="M142.96 67.14c-.12.35 1.27 1.04 1.62 1.04.81-.35.58-.8 1.39-.92a7.12 7.12 0 01-2.2-.23c-.35-.12-.8-.35-.8.11z"/><path fill="#fcd2c5" d="M144.12 67.83a27.16 27.16 0 00-3.13 1.5c-.34.23-1.5.7-1.73.93a1.73 1.73 0 00-.35 1.16.79.79 0 00.47.46c0 .46 1.27.35 1.15.46-.11.46.47.81 2.08 0 .12 0 4.4-1.39 5.79-1.85a15.1 15.1 0 00-1.85-3.24 6.22 6.22 0 00-2.43.58zM176.27 32.32a565.17 565.17 0 00-9.83 20.82c-3.12 7.06 2.9 6.71 4.51 4.86 4.28-4.86 13.88-20.12 11.69-22.67-.93-1.04-6.02-3.7-6.37-3z"/><path fill="#fcd2c5" d="M168.3 53.6a1.67 1.67 0 00-.82.24c-3.81 1.96-16.89 11.8-21.17 13.3a11.6 11.6 0 011.5 3.35c7.06-2.54 24.06-10.75 23.95-13.76-.23-2.78-2.2-3.35-3.47-3.12z"/><path fill="#b0c0de" d="M176.27 31.62c-.34 0-.57.23-.8.58a748.17 748.17 0 00-9.84 21.86c-1.5 1.04-15.84 10.18-18.5 12.03a4.03 4.03 0 011.73 2.2 7.12 7.12 0 01.35 2.66c6.01-2.2 19.66-8.9 22.9-12.72 3.35-3.93 13.65-20.36 10.64-23.71-.92-1.16-4.97-3.24-6.48-2.9z"/><path fill="#1a4765" d="M180.32 18.62c0-.11-4.16-3.93-5.32-1.73-.7 2.54 1.27 7.98.12 11.91-.46 1.39 6.36-1.96 6.24-2.54-.69-2.55-1.61-5.56-1.04-7.64z"/><path fill="#fcd2c5" d="M190.85 87.9h-18.5c1.38 12.73 3.11 17.82 3.8 26.26 2.1 23.72 2.9 49.05 2.9 49.05a4.41 4.41 0 003.59.7s5.67-34.25 4.28-48.82c-.81-8.44 2.66-10.64 3.93-27.18zM179.86 21.28c.12.47 1.62 4.86.93 7.29.69 2.2 6.94 1.5 8.2-2.55-.8-1.04-1.38-7.28-2.07-8.79-.47.47-5.56 4.17-7.06 4.05z"/><path fill="#eff9ff" d="M197.68 36.32c-.58-5.32-4.4-7.98-8.68-10.18 0 0-3 3.36-5.2 3.7-1.5.35-3-1.16-3-1.16s-4.86 1.28-5.44 3.94c-1.4 6.59-4.75 9.14-4.98 12.84-.23 4.16 4.51 7.75 4.63 9.37 1.62 26.14-9.25 33.2-10.53 49.16 7.4 3.23 33.9 5.66 48.47-2.78-3.12-15.5-9.95-29.15-12.96-40.83-2.2-9.37-1.85-19.43-2.31-24.06z"/><path fill="#fcd2c5" d="M179.86 10.06c-2.9.12-4.97 1.5-5.32 4.28-.12.93 1.27 9.6 6.13 10.3 1.97.35 5.32-3.47 5.2-5.79l.23-3.47c-.1-2.89-3.12-5.43-6.24-5.32z"/><path fill="#1a4765" d="M178.24 7.4a4.55 4.55 0 00-2.89.7c-3.12 2.08-2.31 9.48.46 11.56-1.73-6.24.58-8.67.58-8.67a7 7 0 016.36 1.04c3.13 2.31 4.28 13.42 3.7 17.35-.34 1.97 7.06-2.78 7.98-5.9 3.01-9.48-1.15-13.88-4.16-17.12-3-3.35-10.64-3.35-12.03 1.04z"/><path fill="#fcd2c5" d="M185.76 14.34a2.71 2.71 0 00-1.27.23 27.48 27.48 0 00.8 3.59 2.66 2.66 0 001.86-1.97 1.98 1.98 0 00-1.4-1.85z"/><path fill="#1a4765" d="M178.7 162.05c-1.73 3.82-6.24 3.7-5.55 5.32.35.81 2.66.93 4.28.93s3.47-1.62 4.17-2.31c1.27-1.28 3-.58 3-2.32 0-1.15-.92-1.73-1.15-2.08-.58-.81-4.4-.23-4.75.46z"/><path fill="#fcd2c5" d="M179.05 159.97a2.82 2.82 0 01-.23 2.08c-.12.23-.58.93.93.81a18 18 0 003.7-1.39 7.42 7.42 0 01-.58-1.85z"/><path fill="#1a4765" d="M183.67 168.3c0 .11.35.11.35 0 .12-.35.46-4.4.46-4.4l-.69-.23c.12 0-.23 4.28-.12 4.63z"/><g><path fill="#fcd2c5" d="M163.44 73.62c-.35 0-.81-.23-.81.35 0 .34 1.38.8 1.73.7.7-.47.46-.93 1.27-1.17a14.75 14.75 0 01-2.2.12z"/><path fill="#fcd2c5" d="M166.1 73.16a21.57 21.57 0 00-2.32 1.16 23.41 23.41 0 00-2.89 1.96 19.76 19.76 0 00-1.62 1.27 2 2 0 00-.11 1.16c.11.35.57.35.57.35.12.46 1.28.11 1.28.23 0 .46.69.7 2.08-.35.11-.12 4.16-2.08 5.32-2.78a12.3 12.3 0 00-2.31-3zM187.15 33.37c-1.27 3.81-2.08 16.77-3.7 22.78-1.97 7.52 3.93 6.14 5.32 4.05 3.47-5.43 7.4-22.55 4.74-24.64-1.16-.92-6.13-2.89-6.36-2.2z"/><path fill="#fcd2c5" d="M185.3 56.27a1.88 1.88 0 00-.7.35c-3.47 2.66-14.69 14.46-18.73 16.65a24.11 24.11 0 012.08 3.01c6.59-3.7 21.97-14.57 21.28-17.46a3.02 3.02 0 00-3.93-2.55z"/><path fill="#b0c0de" d="M186.34 33.14c-1.27 1.61-3.47 23.36-3.59 23.82-1.39 1.28-10.87 10.41-16.2 14.92a5.75 5.75 0 012.1 1.97 3.44 3.44 0 01.8 2.55c5.55-3.24 17.93-12.03 20.47-16.31 2.66-4.4 6.48-19.9 5.33-24.3-1.05-4.16-6.48-5.77-8.91-2.65z"/></g><path fill="#acd6f3" fill-rule="evenodd" d="M205.2 173.04h-32.97c-7.87-7.52-11-19.55-8.45-30.65a17.6 17.6 0 003.7 1.16c4.86 1.15 12.61 1.85 21.17 1.85s16.31-.7 21.17-1.85a17.6 17.6 0 003.7-1.16c2.78 11.1-.46 23.13-8.33 30.65z"/><path fill="#acd6f3" fill-rule="evenodd" d="M205.54 173.74c0 3.35-7.52 6.13-16.89 6.13s-16.89-2.78-16.89-6.13 7.52-6.14 16.9-6.14 16.88 2.66 16.88 6.13z"/></g><g><path fill="#79d9d3" d="M305.7 121.72v.23a.16.16 0 010-.23z"/><path fill="#3dc7c9" d="M272.52 115.6c-18.28 0-33.2 2.65-33.2 6s14.8 6.02 33.2 6.02c18.27 0 33.2-2.66 33.2-6.01s-14.93-6.02-33.2-6.02zm29.14 6.7a63.37 63.37 0 01-8.9 1.85 161.65 161.65 0 01-40.49 0 59.84 59.84 0 01-8.9-1.85.68.68 0 010-1.27c4.4-1.39 14.22-3.12 29.14-3.12 15.04 0 24.87 1.62 29.15 3.12a.65.65 0 010 1.27z"/><path fill="#1499ab" d="M301.66 122.3a63.36 63.36 0 01-8.9 1.86 161.65 161.65 0 01-40.5 0 59.84 59.84 0 01-8.9-1.85.68.68 0 010-1.28c4.4-1.38 14.23-3.12 29.15-3.12 15.04 0 24.87 1.62 29.15 3.12a.65.65 0 010 1.28z"/><path fill="#1a4765" d="M292.75 124.15a161.65 161.65 0 01-40.48 0 151.1 151.1 0 0120.24-1.27 133.92 133.92 0 0120.25 1.27z"/><path fill="#fcd2c5" d="M259.44 94.69c-.35.46-1.73 0-1.96-.23-.35-.7 0-1.4-.35-1.97a7.06 7.06 0 001.85 1.39c.35.1.8.23.46.8z"/><path fill="#fcd2c5" d="M256.67 91.9c.92.59 1.04 1.74 1.38 2.44.35.8 1.05 3.24 1.16 3.58a8.25 8.25 0 01.58 2.32 2.21 2.21 0 01-.58 1.38c-.23.35-.46.12-.7.12-.46.46-.92-.58-1.15-.46-1.04.69-1.16-.7-1.74-1.97 0-.12-2.3-4.86-2.54-5.78.23-.58 3.47-1.74 3.59-1.62z"/><path fill="#fcd2c5" d="M251.8 63.34c1.97 9.25 2.32 19.66 5.2 28.68-1.26.47-2.65 1.4-3.81 1.85-3.47-5.9-9.25-24.29-6.94-30.07 2.2-5.78 5.44-.93 5.56-.46z"/><path fill="#fcd2c5" d="M254.47 37.31c2.54-2.43 7.4 2.55 7.17 3.93-1.5 7.75-6.13 14.81-8.21 21.4-2.55 8.1-7.4 5.9-7.4 2.32-.12-9.37 2.65-22.1 8.44-27.65z"/><path fill="#b0c0de" d="M251.35 39.16c4.4-7.86 13.53-4.04 11.56 3.24-1.27 4.74-7.28 17.82-9.6 23.02 1.39 8.8 2.2 17.81 4.51 26.14-1.96 1.04-3.81 2.2-5.78 3.12-3.12-8.79-7.87-20-7.29-29.84.81-9.95 4.86-22.44 6.6-25.68z"/><path fill="#10609c" d="M264.3 167.72l-2.66-1.5s-.58.8-1.04 1.38c-.93 1.05-5.1 1.86-5.1 3.24 0 .7 1.63 1.4 2.9 1.5a11.14 11.14 0 003.12-.46 7.8 7.8 0 002.78-1.39 2.25 2.25 0 00.12-1.73 1.52 1.52 0 00-.12-1.04z"/><path fill="#fcd2c5" d="M260.94 166.22a1.48 1.48 0 01-.23 1.5 5.34 5.34 0 001.5 1.5c.58.34 2.2-.23 2.2-.23a17.23 17.23 0 00.12-1.97z"/><path fill="#10609c" d="M254 82c0 12.5 1.5 21.75 2.67 37.49 1.38 19.31 3.81 47.3 3.81 47.3 0 .12 3 1.28 4.86 0l1.85-43.72s3.12-28.45 3.12-34.47c0-1.39.24-3.82.47-6.48H254zM271.82 167.14l2.66-1.27a10.34 10.34 0 00.92 1.5c.81 1.16 4.98 2.2 4.86 3.7-.11.7-1.73 1.27-3 1.27a5.25 5.25 0 01-3.01-.7c-.81-.57-2.43-1.15-2.66-1.61a2.01 2.01 0 010-1.74c0-.92.23-1.15.23-1.15z"/><path fill="#fcd2c5" d="M275.06 165.75a2.04 2.04 0 00.34 1.62 5.35 5.35 0 01-1.62 1.39c-.58.23-2.2-.46-2.2-.46a11.45 11.45 0 010-2.09z"/><path fill="#10609c" d="M269.85 82c-2.9 13.77.7 31.82.23 40.26v43.96c3.7 1.62 5.9-.35 5.9-.35s2.2-26.49 5.44-45.46c1.73-10.52 3.7-29.61 3.82-38.4zM265 11.8c-6.14 4.16-5.56 14.23 2.88 16.3 1.86.47 4.17-10.52 3.24-12.37a20.64 20.64 0 017.06 0c-2.66-4.28-8.44-7.06-13.19-3.93z"/><path fill="#d0dae9" d="M285.46 38.1c-.69-2.2-3.35-4.04-5.55-4.74a39.47 39.47 0 00-8.45-1.62h-4.5c-2.08 0-6.24 1.05-9.25 1.86a7.27 7.27 0 00-4.86 4.5 29.71 29.71 0 00-.8 14.58c1.61 11.91.8 14.7.34 26.95 0 1.5.46 4.74.46 4.74a59.94 59.94 0 0015.73 2.2h1.16a59.94 59.94 0 0015.73-2.2 27.45 27.45 0 00.46-4.74c-.46-12.14-1.15-15.04.35-26.95a31.23 31.23 0 00-.82-14.57z"/><path fill="#fcd2c5" d="M273.09 24.3h-6.82a72.05 72.05 0 01-.47 8.55 4.15 4.15 0 003.59 1.85h.46c1.27-.11 2.9-.58 3.59-1.85-.12-2.9-.58-5.78-.35-8.56z"/><path fill="#fcd2c5" d="M273.09 22.1c.92-3.25.11-6.37-2.78-7.64-1.85-.81-6.48-2.32-7.86 1.5-.58 1.73-1.5 12.14 3.81 13.3 2.32.46 5.44-1.97 6.02-4.28.23-.69.8-2.77.8-2.89z"/><path fill="#10609c" d="M261.99 7.17c2.2-.92 3 .12 4.85 1.62 2.66 2.2 7.3 1.04 10.53 3.47 4.63 3.7 1.39 11.45-1.04 13.77s-3 1.04-3.47.34c-1.27-1.85-.46-6.01-.12-7.98-.23.35-1.73 2.55-2.31 2.43-1.04-.23-.46-2.66.12-3.93-3.36.11-8.56-2.32-10.07-5.2-.92-2.32-.11-3.83 1.5-4.52z"/><path fill="#fcd2c5" d="M273.2 20.13a2.75 2.75 0 00-1.38-.35 14.66 14.66 0 00-.46 3.93c.8 0 2.08-.34 2.42-1.15a1.85 1.85 0 00-.57-2.43z"/><path fill="#10609c" d="M267.54 35.4c-.58 1.15.8 3.47 1.85 3.47 1.73 0 2.78-2.43 2.2-3.36s-3.47-1.16-4.05-.11z"/><path fill="#10609c" d="M270.2 38.57c-2.43 9.26-3.93 19.32 3.35 26.95 0 1.85 0 3.7-.11 5.55-1.97-.11-3.82-.34-5.79-.46-5.78-10.4-4.05-22.79 1.5-32.85.12-.11 1.05.7 1.05.81z"/><path fill="#b0c0de" d="M273.32 31.11c-.23 2.32-2.2 3.13-3.7 3.6l3.82 4.96s1.5-5.2 1.85-7.51zM265.8 31.11c.23 2.32 2.2 3.13 3.7 3.6l-3.81 4.96s-1.5-5.2-1.86-7.51z"/><g><path fill="#fcd2c5" d="M230.87 63.44c-.35.58.81 1.62 1.16 1.62.8 0 1.15-.7 1.96-.58a11.36 11.36 0 01-2.08-.93c-.35-.23-.7-.58-1.04-.11z"/><path fill="#fcd2c5" d="M234.69 64.7c-.93-.57-1.97-.1-2.9-.1-.8 0-3.35.57-3.7.57a7.35 7.35 0 00-2.3.58 2.72 2.72 0 00-.93 1.16c-.23.34.11.46.23.69-.23.7.92.58.92.81-.11 1.27 1.16.81 2.55.7.11 0 5.44-.12 6.24-.35.47-.58-.11-3.93-.11-4.05z"/><path fill="#fcd2c5" d="M262.22 56.03c-9.14 2.43-18.5 6.94-27.88 8.45.23 1.38 0 3 .12 4.28 6.82.34 25.9-2.9 29.96-7.52 4.04-4.74-1.74-5.32-2.2-5.2z"/><path fill="#fcd2c5" d="M284.2 41.8c1.04-3.35-5.67-5.43-6.71-4.5-6.25 4.97-10.41 12.14-15.27 17.12-6.13 6.01-1.85 9.25 1.27 7.63 8.44-4.28 18.5-12.6 20.7-20.24z"/><path fill="#b0c0de" d="M284.31 46.2c4.97-7.52-2.9-14.69-8.44-9.6-3.59 3.36-12.5 14.58-16.08 18.97-8.45 2.78-16.77 6.13-25.33 7.87 0 2.2-.23 4.4-.23 6.6 9.25-1.28 21.28-2.1 29.84-7.18s18.16-13.53 20.24-16.66z"/></g><path fill="#79d9d3" d="M305.6 122.03l-8.69 51.24h-48.8l-8.8-51.24c.93 3.24 15.39 5.78 33.09 5.78 17.82-.11 32.38-2.66 33.2-5.78z"/><path fill="#79d9d3" d="M296.92 173.27c0 3.59-10.87 6.6-24.4 6.6-13.43 0-24.41-2.9-24.41-6.6 0-3.58 10.87-6.6 24.4-6.6 13.42 0 24.4 2.9 24.4 6.6z"/><path fill="#3dc7c9" d="M289.17 116.4v2.32a60.3 60.3 0 0112.49 2.31.68.68 0 010 1.27 63.37 63.37 0 01-8.9 1.85 161.65 161.65 0 01-40.5 0 59.84 59.84 0 01-8.9-1.85.68.68 0 010-1.27 59.6 59.6 0 0110.41-2.08v-2.31c-8.67 1.04-14.34 2.89-14.34 4.96 0 3.36 14.8 6.02 33.2 6.02 18.28 0 33.2-2.66 33.2-6.02-.12-2.19-6.83-4.15-16.66-5.2z"/></g><g><path fill="#add7f4" d="M250.07 0h-21.4a3.14 3.14 0 00-3.12 3.24v10.52a3.14 3.14 0 003.24 3.13h2.2l10.52 4.16a.61.61 0 00.81-.8l-.8-2.55a.58.58 0 01.57-.81h8.1a3.14 3.14 0 003.13-3.24V3.12A3.29 3.29 0 00250.07 0z"/><path fill="#10609d" d="M232.37 6.7a.94.94 0 01-.92-1.03 1.04 1.04 0 011.04-1.04h13.76a1.04 1.04 0 110 2.08zM232.37 10.3a.94.94 0 01-.92-1.05 1.04 1.04 0 011.04-1.04h13.76a1.04 1.04 0 110 2.08zM232.37 13.88a.94.94 0 01-.92-1.04 1.04 1.04 0 011.04-1.04h6.13a1.04 1.04 0 010 2.08z"/></g><g><path fill="#add7f4" d="M355.56.46h-32.04a4.7 4.7 0 00-4.74 4.74v15.74a4.7 4.7 0 004.74 4.74h5.1l15.14 6.36a.63.63 0 00.81-.81l-2.08-4.86c-.23-.35.12-.8.58-.8h12.5a4.7 4.7 0 004.73-4.75V5.09a4.82 4.82 0 00-4.74-4.63z"/></g><g><path fill="#acd6f3" fill-rule="evenodd" d="M401.83 121.26v.11c-.34 2.43-9.71 4.4-21.28 4.4s-20.94-1.96-21.28-4.4v-.11a.42.42 0 01.11-.35c.81-2.31 10.06-4.28 21.17-4.28 11.22 0 20.36 1.85 21.17 4.28a.42.42 0 01.11.35z"/><path fill="#e0edff" fill-rule="evenodd" d="M380.55 128.2a90.81 90.81 0 01-14.57-1.15c-7.64-1.5-8.8 7.75-9.03 6.24 0-.23 0-12.72.24-13.18 1.84-5.32 18.38-5.67 23.36-5.67s21.52.46 23.37 5.78c.11.35.23 12.84.11 13.19-.34 2.31-3.24-7.4-9.02-6.36a88.21 88.21 0 01-14.46 1.16z"/><path fill="#acd6f3" fill-rule="evenodd" d="M401.83 121.26v.11c-.23 1.27-2.89 2.43-7.17 3.36a86.66 86.66 0 01-28.22 0c-4.28-.81-6.94-1.97-7.18-3.36v-.11a.42.42 0 01.12-.35c.81-2.31 9.95-4.28 21.17-4.28s20.36 1.85 21.17 4.28a.42.42 0 01.11.35z"/><path fill="#acd6f3" fill-rule="evenodd" d="M359.27 121.25a.42.42 0 01.11-.34v.46c-.11 0-.11 0-.11-.11z"/><path fill="#1499ab" fill-rule="evenodd" d="M399.87 124.27a111.67 111.67 0 01-19.32 1.62 102.14 102.14 0 01-19.32-1.62c3.24-1.62 10.64-2.78 19.32-2.78 8.67.12 16.08 1.16 19.32 2.78z"/><path fill="#271814" d="M395.47 18.86c.81 1.85.7 5.9 1.16 7.86.92 3.47 4.28 5.79 7.75 6.83s7.05 1.16 10.52 1.96c8.22 2.09 15.39 9.49 15.5 18.05a18.09 18.09 0 01-7.98 14.8 23.04 23.04 0 01-16.77 3.48c-4.63-.81-9.14-2.9-12.03-6.6-1.97-2.43-10.41-10.52-11.8-12.95-.93-1.74-4.51-8.8-4.51-10.76-.12-4.97-2.9-16.42 2.2-24.52 2.08-3.13 12.26-6.25 15.96 1.85z"/><path fill="#1a4765" d="M390.03 171.65c-.46-.58-1.15-1.5-1.15-1.5l-2.9 1.62a2.02 2.02 0 00-.11 1.27 2.27 2.27 0 00.11 1.97c.35.46 2.09 1.04 3.13 1.62a6.17 6.17 0 003.47.46c1.39 0 3.12-.81 3.12-1.62 0-1.85-4.74-2.66-5.67-3.82z"/><path fill="#fcd2c5" d="M390.03 171.65c-.92-.92-.8-3.93-.8-3.93l-4.06-2.43s.58 6.83.81 7.75c0 0 3.24.35 3.94 0a.83.83 0 00.11-1.39z"/><path fill="#b0c0de" d="M378.58 83.86c-1.62 5.2.12 10.06.81 15.5 3.13 26.6 6.02 71.25 6.02 71.25 0 .12 1.85 1.27 4.62.35l6.83-87.1z"/><path fill="#fcd2c5" d="M348.97 76.04a6.08 6.08 0 001.97-.46c-.12.46-.47.7-1.05 1.16a2.58 2.58 0 01-1.61-.35c0-.35.34-.35.69-.35z"/><path fill="#fcd2c5" d="M348.16 78.13a23.8 23.8 0 011.74-1.74 12.7 12.7 0 011.61-1.04 24.95 24.95 0 011.86 2.2c-1.05 1.27-2.66 1.85-3.36 2.66-.8 1.04-1.16.7-1.27.35-.12-.47-.58.7-.93-.12-.11-.11-.46-.11-.57-.35a.95.95 0 01.11-.8c0-.35.58-.93.81-1.16zM372.57 39.72c.34-.57 6.48 3.01 7.28 4.05 1.85 2.31-7.17 14.8-11.1 18.74-1.5 1.5-6.7 1.5-3.58-4.4 2.42-4.85 5.55-15.5 7.4-18.39z"/><path fill="#b0c0de" d="M379.85 43.77c1.16 1.5-1.15 8.45-4.86 13.42-.69-.23-2.54-1.27-3.23-1.62a37.4 37.4 0 01-5.1-3.12c2.44-4.75 4.63-10.65 5.9-12.73.35-.58 6.48 3.01 7.3 4.05z"/><path fill="#fcd2c5" d="M365.63 58.46a2.52 2.52 0 013.7 1.62c1.04 3-10.76 13.53-15.96 17.47a9.8 9.8 0 00-1.86-2.2c3.13-2.32 11-13.88 13.54-16.43a2.52 2.52 0 01.58-.46z"/><path fill="#1a4765" d="M370.37 171.65l1.16-1.5 2.89 1.62a2.02 2.02 0 01.11 1.27 2.27 2.27 0 01-.11 1.97 11.14 11.14 0 01-3.13 1.62 9.28 9.28 0 01-3.47.46c-1.38 0-3.12-.81-3.12-1.62 0-1.85 4.74-2.66 5.67-3.82z"/><path fill="#fcd2c5" d="M370.37 171.65a3.27 3.27 0 00.8-2.08l3.7.12s-.22 2.43-.34 3.35c0 0-3 .58-3.93 0-1.04-.7-.46-1.16-.23-1.39z"/><path fill="#b0c0de" d="M366.67 83.86c-1.27 5.67 4.05 86.75 4.05 86.75a4.57 4.57 0 004.85.12l6.6-86.87z"/><path fill="#fcd2c5" d="M379.28 29.73c1.27.34 6.36-3.82 6.82-4.17-.46 1.97-.7 9.14-.12 10.18-1.73 3.47-7.05 3-7.17.93.93-2.2.35-6.48.47-6.94z"/><path fill="#fcd2c5" d="M381.36 18.85c3.12.47 4.86 3.36 4.4 6.48l-.47 3.24c-.34 2.31-4.5 5.55-6.47 4.74-4.63-1.73-4.4-10.75-4.05-11.68.8-2.78 3.7-3.24 6.59-2.78z"/><path fill="#1a4765" d="M370.48 60.84c0-3.35-5.55-7.98-.34-14 2.89-3.24.11-6.7 4.4-8.79a42.58 42.58 0 014.16-1.39 2.68 2.68 0 002.2 1.62c2.08 0 5.1-2.43 5.1-2.43s7.4 3.24 8.55 4.28c5.09 4.52.7 14.58-.12 24.53-.57 7.75 2.43 12.49 2.78 21.16-2.54 3.36-21.51 5.1-31.23-.57-.12-9.37 4.5-17.24 4.5-24.4z"/><path fill="#271814" d="M377.43 17.7c1.04-4.63 6.59-4.51 10.75.11 5.79 6.6-2.43 12.03-2.43 12.03-.23-1.27.81-9.02-7.75-10.4 0 0-3.81 1.5-3.24 7.05-2.3-1.27-1.96-9.6 2.67-8.8z"/><path fill="#fcd2c5" d="M386.1 24.06c0 .8-.35 1.96-1.04 2.2-.35-.81-1.16-2.55-1.5-3.59a2.44 2.44 0 011.27-.46c.8-.12 1.15 1.04 1.27 1.85z"/><g><path fill="#fcd2c5" d="M383.1 71.41c0-.46.34-.34.69-.23a9.95 9.95 0 001.85-.11c-.7.23-.47.58-1.04 1.04-.35 0-1.62-.35-1.5-.7z"/><path fill="#fcd2c5" d="M381.7 76.04c0-.12-1.04.23-1.04-.23a.5.5 0 01-.46-.35 1.23 1.23 0 01.12-.92 14.45 14.45 0 011.38-1.04 21.62 21.62 0 012.43-1.62 15.06 15.06 0 011.97-.93 18.9 18.9 0 011.96 2.43 84.15 84.15 0 01-4.62 2.32c-1.16.92-1.74.69-1.74.34zM400.56 58.7c-3.59-4.06-12.38-11.1-14.46-13.77-.35-.47 5.09-4.75 6.25-5.1 2.77-.92 11.33 12.04 13.53 17.13.93 1.85-.93 6.7-5.32 1.73z"/><path fill="#b0c0de" d="M386.22 45.74c-1.05-3.24 2.89-8.33 7.4-6.25 1.73.81 5.78 4.74 9.25 9.95a17.8 17.8 0 01-7.4 6.01c-4.4-3.58-8.44-7.4-9.25-9.71z"/><path fill="#fcd2c5" d="M401.72 56.84a2.53 2.53 0 01.57-.35c1.16-.34 3.94-.23 3.7 2.2-.57 3.82-12.72 11.8-18.39 14.81a16.74 16.74 0 00-1.73-2.66c3.47-1.74 12.84-11.8 15.85-14z"/></g><path fill="#e0edff" fill-rule="evenodd" d="M408.89 143.66c-5.79-9.02-7.06-20.47-7.06-21.98v-.23c-.23 1.27-2.9 2.43-7.17 3.36a86.66 86.66 0 01-28.23 0c-4.28-.81-6.94-1.97-7.17-3.36v.23c0 1.5-1.27 13.07-7.05 21.98-6.36 9.95 4.16 23.02 12.03 30.54.57 3.12 7.63 5.55 16.3 5.55s15.85-2.43 16.32-5.55c7.86-7.52 18.38-20.6 12.03-30.54z"/></g><path fill="#10609d" d="M344.23 4.16h-8.68c-4.5 0-7.98 0-7.98 8.56 0 8.22 3.47 8.33 7.98 8.33h8.68c4.5 0 7.98-.23 8.21-8.44.12-8.56-3.7-8.45-8.21-8.45z"/><path fill="#fff" d="M337.17 17.58l7.98-4.63-7.98-4.62z"/></svg>