<svg xmlns="http://www.w3.org/2000/svg" xmlns:xlink="http://www.w3.org/1999/xlink" viewBox="0 0 150 150"><defs><style>.cls-1{fill:none;}.cls-2{isolation:isolate;}.cls-3{clip-path:url(#clip-path);}.cls-4{fill:#c2f4ff;}.cls-5{fill:#32303a;mix-blend-mode:soft-light;}.cls-6{fill:#fc927a;}.cls-7{fill:#e3b9a5;}.cls-11,.cls-7{mix-blend-mode:multiply;}.cls-8{fill:#f4f4f4;}.cls-9{fill:#0c6a93;}.cls-10{fill:#fff;}.cls-11{fill:#f6ccb8;opacity:0.8;}.cls-12{fill:#4f3c30;}</style><clipPath id="clip-path"><circle class="cls-1" cx="75.2" cy="75.6" r="75"/></clipPath></defs><title>紅利實習生2</title><g class="cls-2"><g id="_people" data-name=" people"><g class="cls-3"><circle class="cls-4" cx="75.2" cy="75.6" r="75"/><polygon class="cls-5" points="99.8 20.9 190.7 111.9 91.9 201.1 24.5 133.7 75 93.1 99.8 20.9"/><g id="man"><polygon class="cls-6" points="88.3 92.9 85.1 91.5 85.1 81.6 65.1 81.6 65.1 91.5 62 92.9 62.8 121 65.1 121 65.1 125.3 85.1 125.3 85.1 121 87.4 121 88.3 92.9"/><polygon class="cls-7" points="85.1 82.6 85.1 90.7 65.1 87.5 65.1 82.6 85.1 82.6"/><path class="cls-8" d="M125.7,139.4c-1.8-12.8-3.6-21.8-8-31.4-3.6-8-13.9-10-28.7-15.1l-1.6-.5h0c-1,5.4-3.7,12.6-12.3,13.4-8.5-.8-11.3-8-12.2-13.4h-.1l-1.6.5C46.5,98,36.2,100,32.5,108c-4.3,9.6-6.1,18.6-7.9,31.4l50.6,17Z"/><polygon class="cls-9" points="79.9 104.1 78 107.8 72.2 107.8 70.3 104.1 75.1 100.2 79.9 104.1"/><path class="cls-10" d="M75.1,100.2,69,106.7,57,94.4l8-3.5,2.5,2.2Z"/><path class="cls-10" d="M75.1,100.2l6.2,6.5L93.2,94.4l-8-3.5-2.4,2.2Z"/><polygon class="cls-9" points="79 155.4 78 108.7 72.2 108.7 71.2 155.4 79 155.4"/><path class="cls-6" d="M96.8,53.4l.7-8.8c0-11.5-11-20.8-22.5-20.8S52.5,33.1,52.5,44.6l.7,8.8a3.5,3.5,0,0,0-1.7.9A4,4,0,0,0,50,57.4v4.4a4.1,4.1,0,0,0,4.1,4.1c0,10.9,13.1,21.2,20.9,21.2S95.9,76.8,95.9,65.9a4.1,4.1,0,0,0,4.1-4.1V57.4A4.3,4.3,0,0,0,96.8,53.4Z"/><path class="cls-11" d="M96.8,53.4l.7-8.8c0-11.5-11-20.8-22.5-20.8V53.4c-3,6.4-5,15.8-5,15.8h5V87.1c7.8,0,20.9-10.3,20.9-21.2a4.1,4.1,0,0,0,4.1-4.1V57.4A4.3,4.3,0,0,0,96.8,53.4Z"/><path class="cls-12" d="M98.8,53.4c-.7,2.9-1.6,4.2-2.7,7V52.3L91.3,38.2a102,102,0,0,1-16.1,1.9,101.8,101.8,0,0,1-16-1.9L54.4,52.3v8.1c-.5-1.4-2.3-5.5-2.7-7-2.1-9.1-2-18,.9-25,0,0,5.1-13.5,22.6-13.5h1.1a23.9,23.9,0,0,1,11.3,2.5s5.2,2.5,9.5.5c.2-.1.4,0,.3.2a5.6,5.6,0,0,1-1.1,2.8,12.9,12.9,0,0,0,3.8-.3h.1a13.5,13.5,0,0,1-2.3,7.8C100.8,35.4,100.9,44.3,98.8,53.4Z"/></g></g></g></g></svg>