<svg xmlns="http://www.w3.org/2000/svg" viewBox="0 0 150 150"><defs><style>.cls-1{isolation:isolate;}.cls-2{fill:#7cccec;}.cls-3{fill:#32303a;mix-blend-mode:soft-light;}.cls-4{fill:#fc927a;}.cls-5{fill:#e3b9a5;}.cls-5,.cls-9{mix-blend-mode:multiply;}.cls-6{fill:#e6e7e8;}.cls-7{fill:#f05d44;}.cls-8{fill:#fff;}.cls-9{fill:#f6ccb8;opacity:0.8;}.cls-10{fill:#4f3c30;}</style></defs><title>紅利新鮮人2</title><g class="cls-1"><g id="圖層_1" data-name="圖層 1"><path class="cls-2" d="M665.7,402.1l7.7-3.3h.1v-3.8h0v-3.9c-5.7-4-10.9-10.6-10.9-17.4a4.1,4.1,0,0,1-4.1-4.1v-4.4a4,4,0,0,1,1.5-3.1l.3-.3c-2-9.1-4.2-26.7,8.1-32.9,3.9-4.1,10.6-6.4,19.9-2.6,5.5,2.2,8.8,2.9,11.4-.3a1.8,1.8,0,0,1,3.1.4.1.1,0,0,0,.1.1l55.5,55.6a75,75,0,1,0-124.5,58.6c1.6-9.5,3.4-17,7-24.9S653.1,406.3,665.7,402.1Z" transform="translate(-608.5 -309.5)"/><path class="cls-2" d="M705.7,338.9c3.9,7.7,2.6,17.2,1.1,23.1a4.3,4.3,0,0,1,1.7,3.3v4.4a4.1,4.1,0,0,1-4.1,4.1,14.5,14.5,0,0,1-.6,4.1c-1.5,5.3-5.7,10.1-10.3,13.3v7.6h.1l7.6,3.3c12.7,4.2,21.6,6.5,24.9,13.8s5.4,15.4,7,24.9a74.9,74.9,0,0,0,25.4-56.3,17.7,17.7,0,0,0-.1-2.3l-55.5-55.6C705,332.2,705.9,336.2,705.7,338.9Z" transform="translate(-608.5 -309.5)"/><path class="cls-3" d="M705.7,338.9c3.9,7.7,2.6,17.2,1.1,23.1a4.3,4.3,0,0,1,1.7,3.3v4.4a4.1,4.1,0,0,1-4.1,4.1,14.5,14.5,0,0,1-.6,4.1c-1.5,5.3-5.7,10.1-10.3,13.3v7.6h.1l7.6,3.3c12.7,4.2,21.6,6.5,24.9,13.8s5.4,15.4,7,24.9a74.9,74.9,0,0,0,25.4-56.3,17.7,17.7,0,0,0-.1-2.3l-55.5-55.6C705,332.2,705.9,336.2,705.7,338.9Z" transform="translate(-608.5 -309.5)"/><polygon class="cls-4" points="72.2 96 74.7 92.5 76 87.5 65 85.6 65 89.4 67.4 91.5 72.2 96"/><polygon class="cls-4" points="85 89.1 76 87.5 74.7 92.5 72.2 96 75 98.6 75 98.6 75 98.6 82.6 91.5 85 89.3 85 81.7 85 81.7 85 89.1"/><polygon class="cls-2" points="65 81.7 65 85.6 65 85.6 65 81.7 65 81.7"/><polygon class="cls-5" points="65 81.7 65 85.6 65 85.6 65 81.7 65 81.7"/><path class="cls-4" d="M685,394.9h-1.5c-2.9,0-6.6-1.4-10-3.8v3.9l11,1.9Z" transform="translate(-608.5 -309.5)"/><path class="cls-5" d="M685,394.9h-1.5c-2.9,0-6.6-1.4-10-3.8v3.9l11,1.9Z" transform="translate(-608.5 -309.5)"/><path class="cls-4" d="M693.5,391.2a21.4,21.4,0,0,1-8.5,3.7l-.5,2.1,9,1.6Z" transform="translate(-608.5 -309.5)"/><path class="cls-5" d="M693.5,391.2a21.4,21.4,0,0,1-8.5,3.7l-.5,2.1,9,1.6Z" transform="translate(-608.5 -309.5)"/><path class="cls-6" d="M670.9,418.7l-.3-11.1-5.2-5.3.3-.2c-12.6,4.2-21.5,6.5-24.8,13.8s-5.4,15.4-7,24.9a74,74,0,0,0,13.8,9.6Z" transform="translate(-608.5 -309.5)"/><path class="cls-6" d="M701.2,402.1l.4.2-5.2,5.3-.6,21.3h-2.3v4.3h-6.8l.5,26.2a74.4,74.4,0,0,0,45.9-18.6c-1.6-9.5-3.4-17-7-24.9S713.9,406.3,701.2,402.1Z" transform="translate(-608.5 -309.5)"/><path class="cls-6" d="M673.5,433.2v-4.3h-2.3l-.3-10.2-23.2,31.7a75.5,75.5,0,0,0,32.1,9l.4-26.2Z" transform="translate(-608.5 -309.5)"/><polygon class="cls-6" points="62.1 98.1 62.4 109.2 66.9 103.1 62.1 98.1"/><polygon class="cls-6" points="65 119.4 65 123.7 71.7 123.7 72 107.1 77.9 107.1 78.2 123.7 85 123.7 85 119.4 87.3 119.4 87.9 98.1 81.1 105.1 79.4 103.3 77.9 106.2 72 106.2 70.6 103.3 68.8 105.1 66.9 103.1 62.4 109.2 62.7 119.4 65 119.4"/><path class="cls-7" d="M679.2,412.7a9,9,0,0,0,8.6,0l-4.3-4.6h0Z" transform="translate(-608.5 -309.5)"/><path class="cls-7" d="M683.5,413.8a15.8,15.8,0,0,1-4.3-1.1h-.1l1.4,2.9h5.9l1.5-2.9h-.1A15.8,15.8,0,0,1,683.5,413.8Z" transform="translate(-608.5 -309.5)"/><path class="cls-8" d="M671.2,400.3h0l2.3-1v-.5h-.1l-7.7,3.3,3.9-1.3Z" transform="translate(-608.5 -309.5)"/><path class="cls-8" d="M671.2,400.4c.7,3.6,2.1,7.9,5.4,10.6l4.1-5.5-4.8-4.5-2.4-2.1v.5Z" transform="translate(-608.5 -309.5)"/><path class="cls-8" d="M678.7,412l4.8-3.9-2.8-2.6-4.1,5.5a11.4,11.4,0,0,0,2.3,1.5Z" transform="translate(-608.5 -309.5)"/><path class="cls-8" d="M671.2,400.4h0l-1.6.5-3.9,1.3-.3.2,5.2,5.3-.2-6.8Z" transform="translate(-608.5 -309.5)"/><path class="cls-8" d="M676.6,411c-3.3-2.7-4.7-7-5.4-10.6l-.8.4.2,6.8,4.8,5Z" transform="translate(-608.5 -309.5)"/><path class="cls-8" d="M676.6,411l-1.2,1.6,1.9,2,1.8-1.8-.2-.3A11.4,11.4,0,0,1,676.6,411Z" transform="translate(-608.5 -309.5)"/><path class="cls-8" d="M678.9,412.5l.3.2,4.3-4.6h0l-4.8,3.9Z" transform="translate(-608.5 -309.5)"/><path class="cls-8" d="M678.9,412.5l.2.3h.1Z" transform="translate(-608.5 -309.5)"/><path class="cls-8" d="M695.8,400.4h0l1.6.5,3.8,1.3-7.6-3.3h-.1v.6Z" transform="translate(-608.5 -309.5)"/><path class="cls-8" d="M683.5,408.1l4.8,3.9-.3.5c5.1-2.4,7-7.7,7.8-12.1l-2.3-1v-.6l-2.4,2.2Z" transform="translate(-608.5 -309.5)"/><path class="cls-8" d="M695.8,400.3h0l.8.4-.2,6.8,5.2-5.3-.4-.2-3.8-1.3Z" transform="translate(-608.5 -309.5)"/><path class="cls-8" d="M695.8,400.4c-.8,4.4-2.7,9.7-7.8,12.1v.3l1.7,1.8,6.8-7,.2-6.8Z" transform="translate(-608.5 -309.5)"/><path class="cls-8" d="M687.8,412.7c.1-.1.2-.1.2-.2l.3-.5-4.8-3.9h0Z" transform="translate(-608.5 -309.5)"/><path class="cls-8" d="M687.8,412.7h.1v-.3C688,412.6,687.9,412.6,687.8,412.7Z" transform="translate(-608.5 -309.5)"/><path class="cls-7" d="M687.2,459.4l-.5-26.2h-6.5l-.4,26.2h7.4Z" transform="translate(-608.5 -309.5)"/><polygon class="cls-7" points="72 107.1 71.7 123.7 78.2 123.7 77.9 107.1 72 107.1"/><path class="cls-4" d="M670.9,357.5c-7.8,0-7.8,3.8-7.8,5.1,0,4,1,7.7,7.8,7.7s7.9-3.1,8.9-7.9a3.1,3.1,0,0,0-.5-2.7C678.4,358.7,676.3,357.5,670.9,357.5Z" transform="translate(-608.5 -309.5)"/><path class="cls-4" d="M667.9,344.7c-2.5,3.2-4,8-4.8,12.3h1.6a13.8,13.8,0,0,1,6.2-1.2c4.7,0,7.8.9,9.4,2.6a7.1,7.1,0,0,1,3.2-.9V346.7A97.8,97.8,0,0,1,667.9,344.7Z" transform="translate(-608.5 -309.5)"/><path class="cls-4" d="M673.5,390.5v-1h10V377.1h-5s2-9.4,5-15.9v-.8a4.3,4.3,0,0,0-2,.4,4.6,4.6,0,0,1-.1,2c-.9,4.5-2.9,9.2-10.5,9.2-5.9,0-8.2-2.6-9-5.6a8.7,8.7,0,0,0-.1,1.1s-.7-2.2-1.5-5.6l-.3.3a4,4,0,0,0-1.5,3.1v4.4a4.1,4.1,0,0,0,4.1,4.1c0,6.8,5.2,13.4,10.9,17.4v-.7Z" transform="translate(-608.5 -309.5)"/><path class="cls-4" d="M693.5,391.2h0c4.6-3.2,8.8-8,10.3-13.3C702.3,383.2,698.1,388,693.5,391.2Z" transform="translate(-608.5 -309.5)"/><rect class="cls-4" x="65" y="80" width="10" height="1.01"/><polygon class="cls-4" points="85 81.7 85 81.7 85 81.7 85 81.7 85 81.7"/><polygon class="cls-4" points="65 81 65 81 65 81.7 65 81.7 65 81"/><path class="cls-4" d="M683.5,395v-4.5h-10v.7c3.4,2.4,7.1,3.8,10,3.8h0Z" transform="translate(-608.5 -309.5)"/><path class="cls-4" d="M693.5,391.2a21.4,21.4,0,0,1-8.5,3.7h0a21.4,21.4,0,0,0,8.5-3.7Z" transform="translate(-608.5 -309.5)"/><path class="cls-2" d="M704.4,373.8a14.5,14.5,0,0,1-.6,4.1A14.5,14.5,0,0,0,704.4,373.8Z" transform="translate(-608.5 -309.5)"/><path class="cls-3" d="M704.4,373.8a14.5,14.5,0,0,1-.6,4.1A14.5,14.5,0,0,0,704.4,373.8Z" transform="translate(-608.5 -309.5)"/><path class="cls-9" d="M704.4,373.8a14.5,14.5,0,0,1-.6,4.1A14.5,14.5,0,0,0,704.4,373.8Z" transform="translate(-608.5 -309.5)"/><path class="cls-4" d="M690.9,371c-3.4-1.7-4.6-5-5.3-8.2a4.6,4.6,0,0,1-.1-2,4,4,0,0,0-2-.4h0v.8c-3,6.5-5,15.9-5,15.9h5v12.4h2.8Z" transform="translate(-608.5 -309.5)"/><path class="cls-9" d="M690.9,371c-3.4-1.7-4.6-5-5.3-8.2a4.6,4.6,0,0,1-.1-2,4,4,0,0,0-2-.4h0v.8c-3,6.5-5,15.9-5,15.9h5v12.4h2.8Z" transform="translate(-608.5 -309.5)"/><path class="cls-4" d="M687.8,359.7a3.1,3.1,0,0,0-.6,2.7c.7,3.2,1.7,5.6,4.1,6.9l2.9-11.8C690.2,357.8,688.5,358.8,687.8,359.7Z" transform="translate(-608.5 -309.5)"/><path class="cls-9" d="M687.8,359.7a3.1,3.1,0,0,0-.6,2.7c.7,3.2,1.7,5.6,4.1,6.9l2.9-11.8C690.2,357.8,688.5,358.8,687.8,359.7Z" transform="translate(-608.5 -309.5)"/><path class="cls-4" d="M683.5,346.7h0v10.8h0a7.1,7.1,0,0,1,3.2.9c1.4-1.5,4.1-2.4,7.9-2.6l2.6-10.5A117.6,117.6,0,0,1,683.5,346.7Z" transform="translate(-608.5 -309.5)"/><path class="cls-9" d="M683.5,346.7h0v10.8h0a7.1,7.1,0,0,1,3.2.9c1.4-1.5,4.1-2.4,7.9-2.6l2.6-10.5A117.6,117.6,0,0,1,683.5,346.7Z" transform="translate(-608.5 -309.5)"/><path class="cls-4" d="M705.2,366c-.7,3.1-2.9,6-9.1,6a12.3,12.3,0,0,1-5.2-1l-4.6,18.5h7.2v1.7c4.6-3.2,8.8-8,10.3-13.3a14.5,14.5,0,0,0,.6-4.1,4.1,4.1,0,0,0,4.1-4.1v-4.4a4.3,4.3,0,0,0-1.7-3.3,57.2,57.2,0,0,1-1.6,5.5Z" transform="translate(-608.5 -309.5)"/><path class="cls-9" d="M705.2,366c-.7,3.1-2.9,6-9.1,6a12.3,12.3,0,0,1-5.2-1l-4.6,18.5h7.2v1.7c4.6-3.2,8.8-8,10.3-13.3a14.5,14.5,0,0,0,.6-4.1,4.1,4.1,0,0,0,4.1-4.1v-4.4a4.3,4.3,0,0,0-1.7-3.3,57.2,57.2,0,0,1-1.6,5.5Z" transform="translate(-608.5 -309.5)"/><path class="cls-4" d="M702.3,357h2.8c-.5-5.1-1.7-10.5-4.7-12.3l-3.2.6-2.6,10.5h1.5A13.8,13.8,0,0,1,702.3,357Z" transform="translate(-608.5 -309.5)"/><path class="cls-9" d="M702.3,357h2.8c-.5-5.1-1.7-10.5-4.7-12.3l-3.2.6-2.6,10.5h1.5A13.8,13.8,0,0,1,702.3,357Z" transform="translate(-608.5 -309.5)"/><path class="cls-4" d="M703.9,362.6c0-1.3,0-5.1-7.8-5.1h-1.9l-2.9,11.8a9.5,9.5,0,0,0,4.8,1C703,370.3,703.9,366.6,703.9,362.6Z" transform="translate(-608.5 -309.5)"/><path class="cls-9" d="M703.9,362.6c0-1.3,0-5.1-7.8-5.1h-1.9l-2.9,11.8a9.5,9.5,0,0,0,4.8,1C703,370.3,703.9,366.6,703.9,362.6Z" transform="translate(-608.5 -309.5)"/><polygon class="cls-4" points="77.6 81 77.8 80 75 80 75 81 77.6 81"/><polygon class="cls-9" points="77.6 81 77.8 80 75 80 75 81 77.6 81"/><polygon class="cls-4" points="85 81 85 81.7 85 81.7 85 80 77.8 80 77.6 81 85 81"/><polygon class="cls-9" points="85 81 85 81.7 85 81.7 85 80 77.8 80 77.6 81 85 81"/><path class="cls-4" d="M683.5,390.5V395H685l1.1-4.4Z" transform="translate(-608.5 -309.5)"/><path class="cls-9" d="M683.5,390.5V395H685l1.1-4.4Z" transform="translate(-608.5 -309.5)"/><path class="cls-4" d="M686.1,390.5l-1.1,4.4a21.4,21.4,0,0,0,8.5-3.7v-.7Z" transform="translate(-608.5 -309.5)"/><path class="cls-9" d="M686.1,390.5l-1.1,4.4a21.4,21.4,0,0,0,8.5-3.7v-.7Z" transform="translate(-608.5 -309.5)"/><path class="cls-10" d="M661.6,360.9h0l-1.4-.5V357h1.1l-.3-4.5c0-11.5,11-20.8,22.5-20.8a23.5,23.5,0,0,1,15.6,6.1l2.9-12,.9.8a.1.1,0,0,1-.1-.1,1.8,1.8,0,0,0-3.1-.4c-2.6,3.2-5.9,2.5-11.4.3-9.3-3.8-16-1.5-19.9,2.6-12.3,6.2-10.1,23.8-8.1,32.9l1.3-.6Z" transform="translate(-608.5 -309.5)"/><path class="cls-10" d="M699.1,337.8a19.9,19.9,0,0,1,6.9,14.7l-.3,4.5h1.1v3.3l-1.4.5a1.3,1.3,0,0,0,.1.6,3.1,3.1,0,0,1,1.3.6c1.5-5.9,2.8-15.4-1.1-23.1.2-2.7-.7-6.7-2.8-12.3l-.9-.8Z" transform="translate(-608.5 -309.5)"/><path class="cls-10" d="M667.9,344.7a97.8,97.8,0,0,0,15.6,2v-15c-11.5,0-22.5,9.3-22.5,20.8l.3,4.5h1.8C663.9,352.7,665.4,347.9,667.9,344.7Z" transform="translate(-608.5 -309.5)"/><path class="cls-10" d="M661.9,366.4a12.8,12.8,0,0,1-.5-3.8,6.9,6.9,0,0,1,.2-1.3l-1.3.6c.8,3.4,1.5,5.6,1.5,5.6A8.7,8.7,0,0,1,661.9,366.4Z" transform="translate(-608.5 -309.5)"/><path class="cls-10" d="M661.6,360.8h0Z" transform="translate(-608.5 -309.5)"/><path class="cls-10" d="M683.5,346.7a117.6,117.6,0,0,0,13.7-1.4l1.9-7.5a23.5,23.5,0,0,0-15.6-6.1v15Z" transform="translate(-608.5 -309.5)"/><path class="cls-10" d="M705.6,362.6a13.2,13.2,0,0,1-.4,3.4v1.5a57.2,57.2,0,0,0,1.6-5.5,3.1,3.1,0,0,0-1.3-.6C705.5,361.8,705.6,362.2,705.6,362.6Z" transform="translate(-608.5 -309.5)"/><path class="cls-10" d="M700.4,344.7c3,1.8,4.2,7.2,4.7,12.3h.6l.3-4.5a19.9,19.9,0,0,0-6.9-14.7l-1.9,7.5Z" transform="translate(-608.5 -309.5)"/><path class="cls-8" d="M680.3,358.4c-1.6-1.7-4.7-2.6-9.4-2.6a13.8,13.8,0,0,0-6.2,1.2h-1.6a71.7,71.7,0,0,0-1.2,9.4c.8,3,3.1,5.6,9,5.6,7.6,0,9.6-4.7,10.5-9.2a4.6,4.6,0,0,0,.1-2,4.3,4.3,0,0,1,2-.4v-2.9A7.1,7.1,0,0,0,680.3,358.4Zm-.5,4c-1,4.8-2.9,7.9-8.9,7.9s-7.8-3.7-7.8-7.7c0-1.3,0-5.1,7.8-5.1,5.4,0,7.5,1.2,8.4,2.2A3.1,3.1,0,0,1,679.8,362.4Z" transform="translate(-608.5 -309.5)"/><path class="cls-8" d="M685.5,360.8a4.6,4.6,0,0,0,.1,2c.7,3.2,1.9,6.5,5.3,8.2l.4-1.7c-2.4-1.3-3.4-3.7-4.1-6.9a3.1,3.1,0,0,1,.6-2.7c.7-.9,2.4-1.9,6.4-2.2l.4-1.7c-3.8.2-6.5,1.1-7.9,2.6a7.1,7.1,0,0,0-3.2-.9h0v2.9h0A4,4,0,0,1,685.5,360.8Z" transform="translate(-608.5 -309.5)"/><path class="cls-8" d="M705.1,357h-2.8a13.8,13.8,0,0,0-6.2-1.2h-1.5l-.4,1.7h1.9c7.8,0,7.8,3.8,7.8,5.1,0,4-.9,7.7-7.8,7.7a9.5,9.5,0,0,1-4.8-1l-.4,1.7a12.3,12.3,0,0,0,5.2,1c6.2,0,8.4-2.9,9.1-6A69.5,69.5,0,0,0,705.1,357Z" transform="translate(-608.5 -309.5)"/><polygon class="cls-8" points="51.7 47.5 51.7 50.8 53.1 51.3 52.8 47.5 51.7 47.5"/><path class="cls-8" d="M661.6,360.9v.4h.1Z" transform="translate(-608.5 -309.5)"/><path class="cls-8" d="M705.5,361.4a1.3,1.3,0,0,1-.1-.6l1.4-.5V357h-1.1l-.4,4.3Z" transform="translate(-608.5 -309.5)"/><path class="cls-8" d="M661.3,357l.3,3.8h0v.4h-.1a6.9,6.9,0,0,0-.2,1.3,12.8,12.8,0,0,0,.5,3.8,71.7,71.7,0,0,1,1.2-9.4Z" transform="translate(-608.5 -309.5)"/><path class="cls-8" d="M705.2,366a13.2,13.2,0,0,0,.4-3.4c0-.4-.1-.8-.1-1.2h-.2l.4-4.3h-.6A69.5,69.5,0,0,1,705.2,366Z" transform="translate(-608.5 -309.5)"/></g></g></svg>