<svg xmlns="http://www.w3.org/2000/svg" xmlns:xlink="http://www.w3.org/1999/xlink" viewBox="0 0 181.95 200.5"><defs><style>.cls-1{fill:none;}.cls-2{isolation:isolate;}.cls-3{clip-path:url(#clip-path);}.cls-4{fill:#9cbbe8;}.cls-10,.cls-5{fill:#32303a;}.cls-5{mix-blend-mode:soft-light;}.cls-6{fill:#3c2417;}.cls-7{fill:#fc927a;}.cls-8{fill:#e3b9a5;}.cls-11,.cls-8{mix-blend-mode:multiply;}.cls-9{fill:#e2321a;}.cls-11{fill:#f6ccb8;opacity:0.8;}.cls-12{fill:#fff;}</style><clipPath id="clip-path" transform="translate(-592.53 -284.25)"><circle class="cls-1" cx="667.53" cy="359.25" r="75"/></clipPath></defs><title>紅利職場高手</title><g class="cls-2"><g id="圖層_1" data-name="圖層 1"><g class="cls-3"><circle class="cls-4" cx="75" cy="75" r="75"/><polygon class="cls-5" points="90.97 20.3 181.95 111.28 91.63 200.5 36.42 145.29 74.73 92.47 90.97 20.3"/><g id="woman"><path class="cls-6" d="M694,377.17c0,.19-.08.35-.12.53-.41,1.78-.88,3.44-1.39,4.95a23.29,23.29,0,0,1-3,6.38,8.82,8.82,0,0,1-1.84,1.91,8,8,0,0,1-5,1.52H652.17a7.94,7.94,0,0,1-5.14-1.65,8.63,8.63,0,0,1-1.67-1.78,23.59,23.59,0,0,1-3-6.38c-.5-1.51-1-3.17-1.39-4.95,0-.18-.08-.34-.11-.51-4.78-21.05-3.36-58.35,7.48-69.59,4.45-4.61,9.95-8.66,19.08-8.66a23.66,23.66,0,0,1,16.16,5.91,34.75,34.75,0,0,1,2.93,2.75,14.45,14.45,0,0,1,1.07,1.24C697.44,321.36,698.61,356.86,694,377.17Z" transform="translate(-592.53 -284.25)"/><polygon class="cls-7" points="87.5 92.78 83.33 91.06 83.33 80.43 66.67 80.43 66.67 91.06 62.5 92.78 66.67 118.25 83.33 118.25 87.5 92.78"/><polygon class="cls-8" points="66.67 80.5 66.67 86.03 83.33 91.06 83.33 80.5 66.67 80.5"/><rect class="cls-9" x="58.1" y="110.75" width="33.59" height="42.44"/><path class="cls-10" d="M659.19,383.53v-8.22c-.35.06-.67.16-1,.24-6,.07-13.93.36-19.66,5.86-6.93,6.65-8,16.45-8.93,24.31l0,.36c-.28,2.44-.53,22.69-.75,30.36h30.39v-48.9h0Z" transform="translate(-592.53 -284.25)"/><path class="cls-10" d="M705.3,406.08l0-.36c-.89-7.86-2-17.66-8.93-24.31-5.67-5.43-13.47-5.78-19.44-5.86-.35-.08-.68-.18-1-.24v.23h-.12l-.13,12h.25v48.9h30.19C705.83,428.77,705.58,408.52,705.3,406.08Z" transform="translate(-592.53 -284.25)"/><path class="cls-7" d="M686.51,335.94v-8.67c0-9.21-10.65-20.83-19.09-20.83s-19.09,11.62-19.09,20.83v8.67a4.2,4.2,0,0,0-4.24,4.16v4.34a4.2,4.2,0,0,0,4.24,4.16c0,9.21,10.66,21.17,19.09,21.17s19.09-12,19.09-21.17a4.2,4.2,0,0,0,4.25-4.16V340.1A4.2,4.2,0,0,0,686.51,335.94Z" transform="translate(-592.53 -284.25)"/><path class="cls-11" d="M667.42,354.35v15.42c8.44,0,19.09-12,19.09-21.17a4.2,4.2,0,0,0,4.25-4.16V340.1a4.2,4.2,0,0,0-4.25-4.16v-8.67c0-9.21-10.65-20.83-19.09-20.83v33.75a56.8,56.8,0,0,0-4.24,13.33Z" transform="translate(-592.53 -284.25)"/><path class="cls-6" d="M692.57,321.06c-3.75-15.45-14.72-22.38-25.16-22.12-10.45-.26-21.41,6.67-25.16,22.12-3.29,13.56-.75,26,5.27,46.13,9.47-6.25-11.41-55.14,19.89-44.86,31.29-10.28,10.41,38.61,19.88,44.86C693.31,347.09,695.86,334.62,692.57,321.06Z" transform="translate(-592.53 -284.25)"/><path class="cls-12" d="M688.24,335.07h-2.79c-1.59-1.08-4.51-1.08-7.15-1.08-4.44,0-7.41.87-8.85,2.59a4.19,4.19,0,0,0-2-.37,4.25,4.25,0,0,0-2,.37c-1.43-1.72-4.41-2.59-8.85-2.59-2.64,0-5.55,0-7.15,1.08h-2.79v3l1.21.67c0,4.71,2.32,10.15,8.73,10.15,5.27,0,8.54-2.86,9.71-8.5a5.41,5.41,0,0,0,.11-1.18,1.05,1.05,0,0,1,1.08-.63,1,1,0,0,1,1.07.63,5.43,5.43,0,0,0,.12,1.18c1.16,5.64,4.43,8.5,9.7,8.5,6.41,0,8.71-5.44,8.73-10.15l1.21-.67Zm-23.42,5c-1,5-3.75,7.37-8.31,7.37-7,0-7.31-7.34-7.31-8.81,0-2.25,5-2.46,7.31-2.46C661.53,336.21,665.29,338,664.82,340.11Zm13.48,7.37c-4.56,0-7.28-2.41-8.31-7.37-.47-2.11,3.29-3.9,8.31-3.9,2.28,0,7.31.21,7.31,2.46C685.61,340.14,685.26,347.48,678.3,347.48Z" transform="translate(-592.53 -284.25)"/></g></g></g></g></svg>