<svg xmlns="http://www.w3.org/2000/svg" xmlns:xlink="http://www.w3.org/1999/xlink" viewBox="0 0 186 200.5"><defs><style>.cls-1{fill:none;}.cls-2{isolation:isolate;}.cls-3{clip-path:url(#clip-path);}.cls-4{fill:#ffe67d;}.cls-5{fill:#32303a;mix-blend-mode:soft-light;}.cls-6{fill:#4f3c30;}.cls-7{fill:#fc927a;}.cls-8{fill:#e3b9a5;}.cls-11,.cls-8{mix-blend-mode:multiply;}.cls-9{fill:#231f20;}.cls-10{fill:#f080b1;}.cls-11{fill:#f6ccb8;opacity:0.8;}.cls-12{fill:#635044;}</style><clipPath id="clip-path" transform="translate(-590.5 -284.25)"><circle class="cls-1" cx="665.5" cy="359.25" r="75"/></clipPath></defs><title>職人顧問</title><g class="cls-2"><g id="圖層_1" data-name="圖層 1"><g class="cls-3"><circle class="cls-4" cx="75" cy="75" r="75"/><polygon class="cls-5" points="95.02 18.5 186 109.49 91.63 200.5 36.14 145.01 74.73 92.47 95.02 18.5"/><g id="woman"><path class="cls-6" d="M696.79,334.52c-.12-.24-.23-.47-.34-.71-2.63-5.61-1.85-11.1-3.52-16.91-3.61-12.64-10.12-20.34-17.13-16.86-10.06-10.7-24.53-.71-27.12,1.16a19.19,19.19,0,0,0-6.86,7.68c-3,5.52-4.13,11.75-5.29,17.95-1.26,6.73-7.15,12-7.78,18.86-.67,7.17,3.63,10.3-.64,17.55-1.66,2.81-4.46,5.52-5.29,8.67-.93,3.5.46,7.25-.37,10.77-1.2,5.15-6.86,7.56-7.53,12.63s3.78,8.77,7.77,10.92c6.34,3.42,14,3,21.15,2.5,20.42-1.44,41,1.37,61.36-.57,11.52-1.1,11.95-7.63,11.57-10.24-.52-3.55-4.64-6.16-6.38-9.31-2.32-4.2.17-10.32-.7-15.05s-5.08-6.7-6.3-11.41c-1-4,1.07-8.32.64-12.47C703.45,344.07,699.21,339.45,696.79,334.52Z" transform="translate(-590.5 -284.25)"/><polygon class="cls-7" points="83.36 91.17 83.36 80.54 66.7 80.54 66.7 91.17 62.53 91.5 66.7 118.36 83.36 118.36 87.53 91.5 83.36 91.17"/><polygon class="cls-8" points="66.7 80.61 66.7 85.48 83.36 91.17 83.36 80.61 66.7 80.61"/><path class="cls-9" d="M703.53,438.2,703,402.43c-.91-7.14-2.56-15.18-8.52-20.9s-12.9-5.52-19.18-6l0,.27-9.7,26.53-9.7-26.53,0-.27c-6.28.48-13.22.28-19.18,6s-7.61,13.76-8.52,20.9l-.56,35.77Z" transform="translate(-590.5 -284.25)"/><polygon class="cls-10" points="55.77 98.06 64.91 101.52 61.32 106.52 75.03 118.08 65.3 91.28 55.77 98.06"/><polygon class="cls-10" points="94.29 98.06 84.75 91.39 75.03 118.08 88.74 106.52 85.15 101.52 94.29 98.06"/><path class="cls-7" d="M684.62,336.05v-8.67c0-9.2-10.65-20.83-19.09-20.83s-19.09,11.63-19.09,20.83v8.67a4.21,4.21,0,0,0-4.24,4.17v4.33a4.21,4.21,0,0,0,4.24,4.17c0,9.2,10.66,21.16,19.09,21.16s19.09-12,19.09-21.16a4.21,4.21,0,0,0,4.24-4.17v-4.33A4.21,4.21,0,0,0,684.62,336.05Z" transform="translate(-590.5 -284.25)"/><path class="cls-11" d="M665.53,354.47v15.41c8.44,0,19.09-12,19.09-21.16a4.21,4.21,0,0,0,4.24-4.17v-4.33a4.21,4.21,0,0,0-4.24-4.17v-8.67c0-9.2-10.65-20.83-19.09-20.83V340.3a57,57,0,0,0-4.24,13.33Z" transform="translate(-590.5 -284.25)"/><path class="cls-12" d="M687.39,334.15h-2.93C682.78,333,679.72,333,677,333c-4.67,0-7.79.92-9.3,2.72a6.12,6.12,0,0,0-4.3,0c-1.51-1.8-4.63-2.72-9.3-2.72-2.77,0-5.83,0-7.51,1.13h-2.93v3.17l1.27.7c0,4.94,2.44,10.67,9.17,10.67,5.54,0,9-3,10.2-8.93a6.07,6.07,0,0,0,.12-1.25,1.3,1.3,0,0,1,2.26,0,6.07,6.07,0,0,0,.12,1.25c1.23,5.92,4.66,8.93,10.2,8.93,6.73,0,9.15-5.73,9.17-10.67l1.27-.7Zm-24.61,5.3c-1.08,5.21-3.93,7.74-8.73,7.74-7.3,0-7.68-7.71-7.68-9.25,0-2.37,5.29-2.59,7.68-2.59C659.33,335.35,663.28,337.23,662.78,339.45ZM677,347.19c-4.8,0-7.65-2.53-8.73-7.74-.49-2.22,3.45-4.1,8.73-4.1,2.39,0,7.68.22,7.68,2.59C684.63,339.48,684.26,347.19,677,347.19Z" transform="translate(-590.5 -284.25)"/><path class="cls-6" d="M691,320.74c-3.75-15.46-14.71-22.38-25.16-22.12-10.45-.26-21.41,6.66-25.16,22.12-3.29,13.56-.74,26,5.28,46.13,9.47-6.25-11.41-55.14,19.88-44.86,31.3-10.28,10.42,38.61,19.89,44.86C691.76,346.77,694.3,334.3,691,320.74Z" transform="translate(-590.5 -284.25)"/></g></g></g></g></svg>