<svg xmlns="http://www.w3.org/2000/svg" viewBox="0 0 411.16 488"><g data-name="组 88597"><g data-name="组 88574"><g data-name="组 88573"><g data-name="组 88570"><path fill="#53b9ff" d="M328.16 162.1l-86.99 50.58-87.58-50.59 87.01-50.56z" data-name="路径 95253"/></g><g data-name="组 88571"><path fill="#1da4ff" d="M328.16 162.1l-.67 155.62-87.02 50.56.7-155.6z" data-name="路径 95254"/></g><g data-name="组 88572"><path fill="#0499ff" d="M241.17 212.68l-.7 155.6-87.55-50.56.67-155.63z" data-name="路径 95255"/></g></g></g><g data-name="组 88579"><g data-name="组 88578"><g data-name="组 88575"><path fill="#ffdc9a" d="M240.52 248.12l-86.98 50.56-87.59-50.56 87.02-50.56z" data-name="路径 95256"/></g><g data-name="组 88576"><path fill="#ffcb60" d="M240.52 248.12l-.67 120.14-87.01 50.55.7-120.13z" data-name="路径 95257"/></g><g data-name="组 88577"><path fill="#ffc23f" d="M153.54 298.68l-.7 120.13-87.56-50.55.67-120.14z" data-name="路径 95258"/></g></g></g><g data-name="组 88586"><g data-name="组 88585"><g data-name="组 88580"><path fill="#ff7fc3" d="M242.39 252.78l-5.41-3.13 30.17-55.09 5.4 3.13z" data-name="路径 95259"/></g><g data-name="组 88581"><path fill="#ff7fc3" d="M264.23 193.68l-5.39-3.15 30.2-26.78 5.4 3.15z" data-name="路径 95260"/></g><g data-name="组 88582"><path fill="#ff7fc3" d="M142.75 377.6l-3.89-2.26a1.78 1.78 0 01-.67-2.4l75.71-138.58 5.4 3.13z" data-name="路径 95261"/></g><g data-name="组 88583"><path fill="#ff51a2" d="M264.22 193.68l30.23-26.78-3.1 39.93-8.41-4.06-40.5 73.94-23.08-15.29-65.38 119.72a1.8 1.8 0 01-2.36.75l-8.87-4.3 76.56-140.1 23.08 15.29 30.17-55.09z" data-name="路径 95262"/></g><g fill="#ff3693" data-name="组 88584"><path d="M219.28 239.02l23.1 15.31 30.82-56.3-.65-.3-30.16 55.05-23.1-15.29-76.54 140.1.64.34z" data-name="路径 95263"/><path d="M294.31 168.53l.13-1.63-30.22 26.78 1.14.55z" data-name="路径 95264"/></g></g><path fill="#ffc9e6" d="M259.41 190.89l29.84-25.4 5.2 1.42-5.41-3.16-30.2 26.78z" data-name="路径 95265"/></g><g data-name="组 88591"><g data-name="组 88590"><g data-name="组 88587"><path fill="#ff7fc3" d="M382.13 299.15l-87.01 50.55-87.56-50.55 86.99-50.56z" data-name="路径 95266"/></g><g data-name="组 88588"><path fill="#ff51a2" d="M382.13 299.15l-.7 87.53-86.99 50.55.68-87.53z" data-name="路径 95267"/></g><g data-name="组 88589"><path fill="#ff4198" d="M295.12 349.7l-.68 87.54-87.58-50.56.7-87.53z" data-name="路径 95268"/></g></g></g><g data-name="组 88596"><g data-name="组 88595"><g data-name="组 88592"><path fill="#0fe4ff" d="M295.17 382.25l-86.99 50.56-87.58-50.56 87.01-50.58z" data-name="路径 95269"/></g><g data-name="组 88593"><path fill="#0fd3ff" d="M295.17 382.25l-.67 55.2L207.48 488l.7-55.19z" data-name="路径 95270"/></g><g data-name="组 88594"><path fill="#00d1ff" d="M208.18 432.81l-.7 55.2-87.55-50.57.67-55.19z" data-name="路径 95271"/></g></g></g></g><g data-name="组 88614"><g data-name="组 88598"><path fill="#2f2f8e" d="M264.54 482.77a1.38 1.38 0 001.37-1.37v-40.96h-2.72v40.96a1.34 1.34 0 001.35 1.37z" data-name="路径 95272"/></g><g data-name="组 88599"><path fill="#2f2f8e" d="M264.54 482.77a1.38 1.38 0 001.37-1.37v-40.96h-2.72v40.96a1.34 1.34 0 001.35 1.37z" data-name="路径 95273"/></g><g data-name="组 88600"><path fill="#2f2f8e" d="M282.29 473.02a1.35 1.35 0 00.49-1.86L264.8 440l-2.36 1.37 17.98 31.16a1.36 1.36 0 001.87.49z" data-name="路径 95274"/></g><g data-name="组 88601"><path fill="#2f2f8e" d="M247.4 471.67a1.35 1.35 0 01-.48-1.86l17.28-29.78 2.35 1.37-17.28 29.75a1.36 1.36 0 01-1.86.52z" data-name="路径 95275"/></g><g data-name="组 88608"><path fill="#c94667" d="M275.94 405.6c-4.52-1.95-10.32-1.4-16.32 2.06-11.9 6.88-20.05 22.7-18.22 35.35.94 6.28 4.14 10.58 8.6 12.5l3.33 1.42c-4.47-1.92-7.68-6.21-8.59-12.5-1.86-12.63 6.31-28.46 18.22-35.35 6-3.46 11.8-3.98 16.32-2.07z" data-name="路径 95276"/><g data-name="组 88602"><path fill="#f2f3ff" d="M262.98 409.06c11.9-6.88 23.06-2.2 24.92 10.43s-6.31 28.46-18.21 35.34-23.06 2.2-24.92-10.43 6.29-28.46 18.21-35.34z" data-name="路径 95277"/></g><g data-name="组 88607"><g data-name="组 88605"><g data-name="组 88603"><path fill="#f7567e" d="M265.88 428.95c1.55-.9 3.03-.28 3.26 1.38a5.04 5.04 0 01-2.38 4.63c-1.55.9-3.03.28-3.26-1.37a4.96 4.96 0 012.38-4.64z" data-name="路径 95278"/></g><g data-name="组 88604"><path fill="#f7567e" d="M264.48 419.35c6.55-3.78 12.7-1.22 13.72 5.74s-3.5 15.68-10.04 19.46-12.7 1.2-13.72-5.74c-1-6.96 3.5-15.68 10.04-19.46zm2.93 20.05c3.88-2.22 6.54-7.4 5.92-11.51s-4.24-5.64-8.12-3.39c-3.88 2.22-6.55 7.4-5.93 11.51.62 4.1 4.27 5.62 8.13 3.4z" data-name="路径 95279"/></g></g><g data-name="组 88606"><path fill="#f7567e" d="M262.96 409.06c11.9-6.86 23.08-2.18 24.91 10.42 1.84 12.63-6.3 28.47-18.21 35.35-11.9 6.86-23.08 2.17-24.92-10.43-1.84-12.62 6.34-28.49 18.22-35.34zm5.97 40.62c9.21-5.33 15.55-17.62 14.13-27.4s-10.09-13.4-19.33-8.1c-9.2 5.33-15.55 17.62-14.12 27.4 1.42 9.8 10.09 13.43 19.32 8.1z" data-name="路径 95280"/></g></g></g><g data-name="组 88609"><path d="M264.95 484.2a33.17 33.17 0 0014.49-3.03 13.82 13.82 0 004.66-3.55 6.75 6.75 0 001.63-4.27c0-3.02-2.28-5.8-6.4-7.86a36.25 36.25 0 00-29 0 13.82 13.82 0 00-4.65 3.54 6.75 6.75 0 00-1.63 4.27c0 3.03 2.27 5.8 6.39 7.87a33.37 33.37 0 0014.51 3.03z" data-name="路径 95281" opacity=".2"/></g><g data-name="组 88613"><path fill="#6b6fd4" d="M302.34 452.81l-35.45-20.46a.84.84 0 00-.33-.1.72.72 0 00-.6.33.68.68 0 00.25.93l35.45 20.47a.84.84 0 00.34.1.72.72 0 00.6-.34.7.7 0 00-.26-.93z" data-name="路径 95282"/><g data-name="组 88612"><g data-name="组 88610"><path fill="#de3c64" d="M309.14 460.32l1.3-.73-3.08-4.27-1.43.55z" data-name="路径 95283"/></g><path fill="#ff89a7" d="M302.65 451.72l2.3-.51 5.48 3.18-1.26.75-5.49-3.18-3.26.72z" data-name="路径 95284"/><g data-name="组 88611"><path fill="#f7567e" d="M303.68 451.96l-2.33.52-.93.2.93 1.3 2.3 3.18 5.49 3.16-3.05-4.25-.16-.2.16-.03 3.08-.7z" data-name="路径 95285"/></g></g></g></g><g data-name="组 88633"><path d="M304.61 309.62c11.26 1.5 34.23 20.7 34.23 20.7l-.62 23.16.62-.49-.15 26.52c-7.09 5.49-14.28-8.33-13.61-15.55 0 0-.41-20.26-1.3-24.76-.54-2.72-14.74-8.3-23.3-14.6-8.6-6.28-7.1-16.48 4.13-14.98z" data-name="路径 95286" opacity=".1"/><g data-name="组 88632"><g data-name="组 88631" transform="translate(294.44 241.87)"><path fill="#2b2b57" d="M53.18 74.98c2.1 3.44 1.3 13.6-8.02 15.91-9.34 2.3-10.69 2.28-12.06 1.81a6.56 6.56 0 01-3.7-4.86c-.44-2.49 2.15-11.05 2.15-11.05l13.1-4.01z" data-name="路径 95287"/><path fill="#2b2b57" d="M42.18 120.64c-.54 1.82-1.96 3.94-1 5.02.95 1.07 2.63 1.58 4.03 2.82s2.59 3.34 6.16 3.68 5.28-1.2 4.14-2.59-3.29-1.78-5.1-3.98-2.95-3.65-2.8-4.92z" data-name="路径 95288"/><path fill="#ff99a5" d="M50.41 125.59a8.7 8.7 0 001.71 1.57c1.06 2.2-2.77 1.12-5.85-.64s-3.23-5.23-4.08-5.88l5.43.03c-.16 1.27.98 2.72 2.8 4.92z" data-name="路径 95289"/><path fill="#ff99a5" d="M43.01 82.97c.2 1.84.6 2.38 0 4.35a88.08 88.08 0 00-1.8 14.44c-.22 4.94 1.88 16.12.97 18.89a6.07 6.07 0 003.4 1.52 1.76 1.76 0 002.04-1.52 182.2 182.2 0 012.95-18.25c1.65-6.62 3.6-20.07 3.6-20.07z" data-name="路径 95290"/><path fill="#ff99a5" d="M54.14 82.35c-.1-2.87.72-5.9-2.02-7.66l-3.44-.75L38.92 76l-2.56 5.72s5.82 1.26 6.94 3.26z" data-name="路径 95291"/><g data-name="组 88615"><path fill="#ffb1d0" d="M31.55 83.46c1.4 5.44 1.73 6.47 1.53 9.32s-.86 4.73-.44 9.5 5.4 21.27 5.56 24.11c0 0 2.66 2.33 5.95-.98 0 0-.78-15.5-.54-21.3s-.1-12.62-.1-12.62A21.9 21.9 0 0043 83l-2.43-3.36z" data-name="路径 95292"/></g><path fill="#ffb1d0" d="M42.1 85.98c-.12-3.14.5-4.77-2.22-7s-8.1.68-9.75 3.27A16.18 16.18 0 0028 87.68a5.26 5.26 0 015 4.2z" data-name="路径 95293"/><path fill="#2b2b57" d="M25.47 52.86a19.67 19.67 0 013.98 9.7s18.92 5.92 23.73 12.39c0 0-1.81-.85-4.27 1.5-2.46 2.33-1.58 4.89-3.52 5s-4.5-3.47-7.91-1.69-7.64 6.42-7.04 8.93a7.51 7.51 0 002.66 3.98 3.8 3.8 0 01-2.95-2.1c-1.21-2.07-1.63-2.35-5.38-3.26s-25-6.52-22.46-23.57c.44-3.03 3.44-10.01 6.1-10.45s17.06-.43 17.06-.43z" data-name="路径 95294"/><g data-name="组 88629"><g data-name="组 88618"><g data-name="组 88617"><g data-name="组 88616"><path fill="#c2c8ff" d="M30.08 90.73l28.97-16.81-19.4-11.2-28.98 16.81z" data-name="路径 95295"/></g></g></g><g data-name="组 88621"><g data-name="组 88620"><g data-name="组 88619"><path fill="#d9ddff" d="M28.4 75.99l9.41-5.51-4.89-2.82-9.42 5.5z" data-name="路径 95296"/></g></g></g><g data-name="组 88624"><g data-name="组 88623"><g data-name="组 88622"><path fill="#7a7ea1" d="M30.08 90.73l28.97-16.82-12.83-7.5-28.98 16.85z" data-name="路径 95297"/></g></g></g><g data-name="组 88625"><path fill="#9ca2cf" d="M37.14 74.82l-7.06 15.91-19.41-11.2v1.69l20.39 11.77 7.45-16.74z" data-name="路径 95298"/></g><g data-name="组 88626"><path fill="#abb2e3" d="M31.06 92.98l28.98-16.84 7.45-16.74-28.98 16.84z" data-name="路径 95299"/></g><g data-name="组 88627"><path fill="#bac2f7" d="M48.96 77.8l3.29-1.92a1 1 0 00.39-.41l.26-.6a.91.91 0 00-1.3-1.17l-3.28 1.92a1 1 0 00-.4.41l-.25.6a.92.92 0 001.3 1.17z" data-name="路径 95300"/></g><g data-name="组 88628"><path fill="#bac2f7" d="M38.51 76.24L67.49 59.4l-1.37-1.42-28.98 16.84z" data-name="路径 95301"/></g></g><path fill="#ffb1d0" d="M12.45 19.3s-.4.6-1.96-.03c-1.53-.6-3.55-4.53-2.23-5.72s2.02-.26 3 .86z" data-name="路径 95302"/><path fill="#ff8996" d="M10.72 14.64s-.77-.98-1.47-.65c-.68.36-1.04.68-.68 1.84 0 .03.5-2.33 2.15-1.2z" data-name="路径 95303"/><path fill="#ff99a5" d="M54.89 56.37s5.12 1.84 5.69 2.57l.23.23a4.94 4.94 0 00-2.92.26c-1.89.62-3.86 1.99-3.88 2.43 0 0-.62-.83-1.06-.8s-.42 1.35-.42 1.35.73 1.8.42 2.53-.65.47-.9.31c-.24-.13-.48-1.19-.84-1.5a5.13 5.13 0 01-.72-2.87l.02-1.06-.05-1.4a3.2 3.2 0 012.1-2.85c.96-.33 2.33.8 2.33.8z" data-name="路径 95304"/><path fill="#ff99a5" d="M60.81 59.17a23.13 23.13 0 011.56 2.95 7.64 7.64 0 01-.78 2.61c-.26.36-.67.47-.65.31l.03-.15s-.03.8-.5.98c-.48.18-.5-.44-.5-.44s.12 1-.48 1c-.6.04-.9-.82-.9-.82s.23.78-.29.83a1.19 1.19 0 01-1.32-.72 18.48 18.48 0 00-1.76-3.03 6.31 6.31 0 00-1.19-.86 4.29 4.29 0 013.4-2.66c2.74-.62 3.38 0 3.38 0z" data-name="路径 95305"/><path fill="#ff8996" d="M15.74 82.3a9.9 9.9 0 003.05 2.07c1.17.28 3.03 1.11 3.32.77l.28-.33s1.24.64 1.58.28l.34-.36a.76.76 0 001-.2 2.01 2.01 0 00.06-1.48s.85-.2.9-.54a51.34 51.34 0 00-2.9-4.71 12.15 12.15 0 00-7.63 4.5z" data-name="路径 95306"/><path fill="#ff8996" d="M17.42 73.9a22.21 22.21 0 012.9.38c1.04.26 1.74 1.81 2.54 2s1.4 1.57 1.66 1.83-.75.85-1.82.02a16.73 16.73 0 00-3.6-1.75z" data-name="路径 95307"/><path fill="#ffb1d0" d="M11.65 75.06l.7 2.04s2.64 4.68 3.42 5.23c0 0 2.53-1.74 3.93-2.6s3.68-1.88 3.68-1.88a18.14 18.14 0 00-2.9-2.38 36.69 36.69 0 00-3.34-1.76l-1.09-.98a8.1 8.1 0 00-3.34.6 2 2 0 00-1.06 1.73z" data-name="路径 95308"/><path fill="#2b2b57" d="M44.15 125.38c.9 2.4 4.35 6.31 7.79 8.59s2 4.14-.62 5.36c-2.61 1.24-5.15-.42-7.07-1.71-1.88-1.32-2.2-3.13-3.85-5.3s-2.12-2.85-2.23-5.98z" data-name="路径 95309"/><path fill="#ff99a5" d="M23.6 23.3c3.73-1.52 5.23.32 7.07 3.84s6.31 14.02 7.53 16.45.44 5.02-1.81 5.13-2.95-.73-4.56-3.32c-1.62-2.58-12.7-20.26-8.22-22.1z" data-name="路径 95310"/><path fill="#ff99a5" d="M34.86 41.52a41.52 41.52 0 019.37 6c3.05 2.49 10.66 8.85 10.66 8.85a3.21 3.21 0 01-3.65 2.49s-7.37-4.27-11.46-6.6a26.08 26.08 0 01-6.37-4.92z" data-name="路径 95311"/><path fill="#ffdc9a" d="M12.35 21.9c-2.48 2.65-4.84 5.7-7.01 7.38-2.17 1.7-3.34 6.73-1.3 12.68a61.06 61.06 0 013.14 11.46 5.12 5.12 0 004 4.35 25.85 25.85 0 009.42.3 8.14 8.14 0 005.77-4.4s1.5-8.17 2.33-9.72 4.74-4.2 3.57-8.25-3.77-6.65-4.63-8.41c-.85-1.79-.46-4.74-1.63-6s-3.54-1.63-7.76-.99a19.7 19.7 0 00-5.9 1.6z" data-name="路径 95312"/><path fill="#ffc23f" d="M10.05 38.37c-.7 4.34-1.76 8.77-1.68 12.23.07 3.44.98 5.33 2.82 7.2a5.12 5.12 0 01-4.01-4.35 59.08 59.08 0 00-2.8-10.53z" data-name="路径 95313"/><path fill="#7d490f" d="M27.28 9.23a28.82 28.82 0 01.62 7.92c-.26 4.45-.77 10.09-2.59 11.75-.56.51.21-1.17-1.08-3.24a16.14 16.14 0 00-2.72-3.31l1.74-13.5z" data-name="路径 95314"/><path fill="#ffb1d0" d="M9.84 38.7c.18-5.2-2.8-6.73-4.43-6.67-1.65.05-3.39.05-3.6 3.77S-.15 49.1.01 53.01c.17 3.9.17 9.5 2.84 9.34s3.9-1.04 4.45-6.16c.55-5.15 2.46-14.77 2.54-17.49z" data-name="路径 95315"/><path fill="#ffb1d0" d="M1.77 55.31c-1.81.99-1.58 3.78-.62 5.8.93 2.02 10.01 13.38 11.67 15.37 0 0 .95 1.09 2.8-.08 1.83-1.13 1.62-2.56 1.62-2.56s-6.23-10.06-8.36-13.56c-2.17-3.47-4.32-6.5-7.11-4.97z" data-name="路径 95316"/><path fill="#ff8996" d="M21.1 23.93a9.64 9.64 0 01-.21 10.58c-2.54-.5-5.6-1-7.87-2.25a8.58 8.58 0 01-4.63-5.9z" data-name="路径 95317"/><path fill="#ff8996" d="M21.17 23.13a13.31 13.31 0 00-.54 2.97 4.64 4.64 0 00.29 1.94 6.17 6.17 0 01-6.6.55c-3.86-1.84-2.3-4.69-2.3-4.69s.51-.72.23-4.24z" data-name="路径 95318"/><circle cx="9.37" cy="9.37" r="9.37" fill="#ffb1d0" data-name="椭圆 2159" transform="translate(7.3 1.6)"/><path fill="#a35f14" d="M14.42 13.7a74.53 74.53 0 00-.9 12.01c.26 4.56 1.37 5.85.9 6.03-.46.21-6.18-2.43-8.1-5.64s-1.21-9.24-1.4-13.2S7.28 1.26 12.35.25a13.1 13.1 0 018.82 1.32l-6.75 9.37v2.76z" data-name="路径 95319"/><path fill="#ffb1d0" d="M26.04 11.5c-.03 3.7-.7 7.77-1.58 9.66s-1.14 3.18-1.78 3.52a4.87 4.87 0 01-2.46.26c-.75-.08-6.19-2.67-7.48-4.22s-1.53-4.63-1.53-4.63z" data-name="路径 95320"/><path fill="#ff8996" d="M22.23 14.77s.99 3.8 1.22 4.14-.57.85-.98.98a4.08 4.08 0 01-1.74-.08 1.38 1.38 0 001.37.83 2.06 2.06 0 001.76-1.27c.03-.3-1.63-4.6-1.63-4.6z" data-name="路径 95321"/><path fill="#ffb1d0" d="M12.35 19.69s-.41.6-1.96-.03c-1.53-.6-3.55-4.53-2.23-5.72s2.02-.26 3 .86z" data-name="路径 95322"/><path fill="#ff8996" d="M10.67 14.82s-.78-.98-1.48-.65c-.67.37-1.03.68-.67 1.84 0 0 .5-2.33 2.15-1.19z" data-name="路径 95323"/><path fill="#a35f14" d="M17.16 2.48c3.03-.13 4.48 1.27 5 3.98a7.1 7.1 0 01-3.73 7.43c-2.92 1.65-4.19 2.56-5.2 4.2s-1.73-1.12-2.02-4.67c-.26-3.57-2.58-10.6 5.95-10.94z" data-name="路径 95324"/><path fill="#a35f14" d="M17.27 3.2A4.05 4.05 0 0120.74.85c2.56-.18 6.52 1.42 7.76 6.24s-.6 8.04-2.98 9.1c0 0 .62-4.45-1.94-6.62s-3.54-1.79-3.54-1.79z" data-name="路径 95325"/><path fill="#cc7719" d="M17.6 2.6A3.99 3.99 0 0120.7.86c2.57-.18 6.52 1.42 7.77 6.24 0 0-1.92-4.48-5.41-5.26a6.77 6.77 0 00-5.46.78z" data-name="路径 95326"/><path fill="#a35f14" d="M17.16 2.48c3.03-.13 4.48 1.27 5 3.98a7.1 7.1 0 01-3.73 7.43c-2.92 1.65-4.19 2.56-5.2 4.2s-1.73-1.12-2.02-4.67c-.26-3.57-2.58-10.6 5.95-10.94z" data-name="路径 95327"/><path fill="#cc7719" d="M10.75 9.26l-.03-1.06c.08-2.87 1.24-5.54 6.44-5.75 3.03-.13 4.48 1.27 5 3.99a4.62 4.62 0 00-4.12-3.21c-3.44-.39-7.4 2.7-7.3 6.03z" data-name="路径 95328"/><path fill="#ffb1d0" d="M46.6 129.18a30.34 30.34 0 002.2 2.3c1.15 1.32 1.85 2.67.27 3.29-2.59 1.03-5.05.7-6.26-.75-1.2-1.4-4.45-5.44-4.63-7.46v-.2l5.95-.99a14.9 14.9 0 002.48 3.81z" data-name="路径 95329"/><g data-name="组 88630"><path fill="#ffc23f" d="M23.94 43.98c1.71-.23 5.23-.7 7.14-2.98-.9 1.27-1.99 2.23-2.38 2.98-.82 1.55-2.32 9.72-2.32 9.72a7.58 7.58 0 01-.5.86c.78-1.35-1.1-5.36-2.3-6.47-.92-.88-3.87-.8-5.2-.7 3.03-.4 3.65-3.15 5.56-3.4z" data-name="路径 95330"/><path fill="#e3b63d" d="M18.4 47.4a5.46 5.46 0 01-.67.05l.68-.05z" data-name="路径 95331"/><path fill="#e3b63d" d="M25.73 54.82c-.03.02 0 0 .08-.1a.36.36 0 00-.08.1z" data-name="路径 95333"/></g></g></g></g><path d="M235.43 157.02c9.16 5.46 19.92 8.2 19.77 17.36s-5.3 15.58-10.92 14.47-13.82-21.84-20.57-23.63c-6.76-1.76-20.24 1.94-20.24-4.81s7.71-5.95 15.58-8.02c7.86-2.12 16.38 4.63 16.38 4.63z" data-name="路径 95334" opacity=".2"/><g data-name="组 88636"><path fill="#ff8996" d="M191.7 17.3s-2.43-4.97-2.12-6.13c.33-1.14 6.6-3.67 6.6-3.67s-.9-4.74-.5-6.4 1.43-1.26 1.8-.02 1.1 5.69 1.47 7.22a23.27 23.27 0 01.38 4l-1.65 5.13-2.2 1.32z" data-name="路径 95335"/><path fill="#ffa6af" d="M192.19 13.8c-.6.21-2.92-2.04-3.13-3s2.82-2.79 4-3.6 2.47-1.13 3-.28.1 3.24-.04 3.8c-.13.63-2.46 2.65-3.83 3.09z" data-name="路径 95336"/><path fill="#ffb1d0" d="M198.25 17.1a9.86 9.86 0 002.25-2.57 9.45 9.45 0 00.18-4.09 3.1 3.1 0 00-2.4-2.66s-2.54 1.42-3.19 1.63c-.62.2.47 1.96 1.68 1.63l1.76-.47-.2 1.14s-5.1 1.81-3.76 6l.88 1.04z" data-name="路径 95337"/><path fill="#37376e" d="M228.98 30.21c-2.82-1.65-8.8-.28-10.53.57s-13.37.65-15.57.98c0 0-2.23-4.14-3.08-6.08-.83-1.94-.7-5.25-.86-6.54-.12-1.27-1.78-.75-1.78-.75s-5.15-.65-5.93.7c-.8 1.34-.05 1.68-.23 3.41s-.3 11.46 2.77 15.84c.93 1.3 2.74 2.12 7.79 3.39 5.04 1.24 17.6 4.86 21.11 1.99 3.5-2.85 6.31-13.5 6.31-13.5z" data-name="路径 95338"/><path fill="#d4dcff" d="M198.48 18.65l-.26-1.56s-2.17 1.84-6.55.21l-.15 1.79c.02 0 4.06 1.83 6.96-.44z" data-name="路径 95339"/><g data-name="组 88634" transform="translate(207.8 5.94)"><path fill="#7d3d0b" d="M36.8 160.73a38.95 38.95 0 00-.9 6.21c.1 1.56.83 3.24.9 4.8s-1.62 7.88 1.4 10.03 6.09-1.97 6.79-3.62-.78-4.5-.68-8.41c.13-3.9.29-10.12.29-10.12z" data-name="路径 95340"/><path fill="#7d3d0b" d="M11.89 148.03a70.35 70.35 0 01-7.37 2.25c-3.08.67-4.1 1.24-4.48 2.8-.39 1.52 2.17 1.88 4.92 1.52s6.98-.54 9.5-.67c1.6-.08 3.98-.39 5.48-.6a1.42 1.42 0 001.19-1.63l-.41-2.4z" data-name="路径 95341"/><path fill="#2b2b57" d="M15.05 68.05s-3.19 4.9-3.16 14.5.9 28.04.9 28.04-.8 4.97-.49 6.62c.29 1.66 1.5 6.21 1.5 6.21l-.72 21.56-1.2 3.05a4.53 4.53 0 003.53 2.25 24 24 0 006.13 0v-8.05s3.5-11.04 3.47-18.8.13-10.59.13-10.59l3.93-27.69-.75-13.37z" data-name="路径 95342"/><path fill="#2b2b57" d="M21.51 74.86s-.18 12.42.94 14.13 3.67 5.77 3.67 5.77 1.81 15.52 4.74 20.6c0 0 1.83 8.22 3.46 10.3 0 0 1.74 26.62 1.55 29.78a52.62 52.62 0 000 5.48 7.59 7.59 0 003.83 3.44c2.62.96 5.2-2.87 6.86-4.81v-9.16s3.52-18.97 1.2-25.02a22.1 22.1 0 01-1.56-5.7c-.08-2.14-.5-30.13-.5-30.13s3.24-11.98-3.02-19.38z" data-name="路径 95343"/><path fill="#444487" d="M43.53 143.68s1.89-9.88 1.89-12.47-3.6-6.73-4.3-7.74c-.73-1 .85-4.3 1.14-6.72.28-2.4-1.14-24.82 0-27.45s3.83-8.18 3.83-8.18l.44.08a30.5 30.5 0 01-.8 8.35s.44 28 .49 30.15a22.1 22.1 0 001.55 5.69c2.33 6.05-1.19 25.02-1.19 25.02v9.16c-1.66 1.91-4.24 5.77-6.86 4.81l3.8-11.56v-9.14z" data-name="路径 95344"/><path fill="#d4dcff" d="M28.68 24.8c-8.82-2.2-12.68-1.5-14.02 1.23-1.35 2.72-1.37 5.85.1 9.32a23.63 23.63 0 00-.44 8.15c.57 4.55 2.28 16.58 2.35 19.2s-.75 4.53-.18 5.87a9.85 9.85 0 005.56 5.44c3.55 1.42 14.13 3.44 18.27.02s1.35-5.36 1.68-10.4c.31-5.04 8.28-11.7 7.71-19.66-.54-7.92-12.02-16.93-21.03-19.18z" data-name="路径 95345"/><path fill="#f7567e" d="M23.9 39.18s-1.63.88-2.3 5.35-2.3 23.31-2.3 23.31 1.86 4.43 2.32 4.45 3.06-2.87 3.06-2.87.28-15.13.51-19.71a41.23 41.23 0 011.87-9.45z" data-name="路径 95346"/><circle cx="10.35" cy="10.35" r="10.35" fill="#ffb1d0" data-name="椭圆 2160" transform="rotate(-45 26.56 -14.16)"/><path fill="#ff8996" d="M25.58 28.67a12.9 12.9 0 010 2.98 13.93 13.93 0 01-.68 2.43 4.92 4.92 0 004.8 2.46c3.61-.1 7.4-2.46 7.52-4.86a24.47 24.47 0 01.15-6.86l-.43-1.04z" data-name="路径 95347"/><path fill="#46468c" d="M20.38 62.62c.28 2.4.26 13.5-.44 16.77-.68 3.23-3.44 3.93-4.8 2.87-1.34-1.04-3.77-3.99-3.25-7.53.54-3.52 2.48-9.7 2.5-11.36.06-1.66-.95-10.27-1.62-17s-1.09-14.15.65-18.55 4.52-4.5 6.41-4.4 7.07.8 7.07.8l-2.98 4.81-3.41 8.49-1.56 10.84z" data-name="路径 95348"/><path fill="#37376e" d="M14.37 70.77a2.35 2.35 0 001.6.78v1.83a4.44 4.44 0 01-1.83-.7z" data-name="路径 95349"/><path fill="#ffb1d0" d="M22.08 14.7c-.18 4.09.31 8.62 1.2 10.74s1.08 3.6 1.75 3.98a7.02 7.02 0 002.95 1.22c.83-.05 6.73-2.92 8.26-4.55s1.94-5.02 1.94-5.02z" data-name="路径 95350"/><path fill="#ff8996" d="M26.15 17.52s-1.38 5.23-1.66 5.7.54 1.2 1 1.4a3.67 3.67 0 001.92-.03 1.64 1.64 0 01-1.55 1.08 2.37 2.37 0 01-1.84-1.86c0-.44 2.13-6.29 2.13-6.29z" data-name="路径 95351"/><path fill="#ebeeff" d="M26.35 35.66s8.54-2.64 10.69-6.55a7.94 7.94 0 01.13-2.71s.49.9 1.21 2.04c.7 1.14.88 1.73.44 3.86-.44 2.14-6.85 9.15-9.54 9.78 0 0 .26-4.5-.55-5.1a13.76 13.76 0 00-2.38-1.32z" data-name="路径 95352"/><path fill="#ebeeff" d="M26.35 35.66a7.84 7.84 0 01-.95-3.57 4 4 0 00.28-1.3 6.15 6.15 0 00-.02-1.03l-.65-.34a7.78 7.78 0 00-3.18 5.72l-.18 3.2s1.8-3.04 2.92-3.12a2.7 2.7 0 011.78.44z" data-name="路径 95353"/><path fill="#f7567e" d="M24.6 35.22a12.9 12.9 0 00-.7 3.98 2.4 2.4 0 001 .78c.55.15 1.5.57 2.15.28.62-.28 1.7-3.3 1.7-3.3s-2.47-1.84-4.16-1.74z" data-name="路径 95354"/><path fill="#abc2fe" d="M29.04 47.97s1.71 1.95 2.77 2 4.3.64 4.3.64l-.57 2.82.21 4.04a13.81 13.81 0 01-4.4 1.14c-1.58-.08-2.74-2.8-2.74-2.8l.33-6.26z" data-name="路径 95355"/><path fill="#e3b63d" d="M42.14 8.54a3.3 3.3 0 012.9 2.2c1.06 2.28 1.19 4.17-.34 6.24s-5.17 6-5.84 7.6c-.68 1.58-.75 3.06-1.87 3.1l.24-3.07 1.06-5.44-1.95-4.86z" data-name="路径 95356"/><path fill="#ffb1d0" d="M36.7 24.48s.42.67 2.15.1 4.17-4.79 2.8-6.18c-1.4-1.37-2.2-.4-3.37.77z" data-name="路径 95357"/><path fill="#ff8996" d="M38.88 19.46s.9-1.06 1.65-.62c.73.44 1.11.8.65 2.07 0 0-.42-2.61-2.3-1.45z" data-name="路径 95358"/><path fill="#46468c" d="M20.38 62.62c-.34 4.17-.21 12.32.44 15.68.7 3.7 1.32 6.24 2.27 7.01s7.3 2.7 12.14 1.3 10.04-5.57 10.9-6.91a3.77 3.77 0 00.35-3.7 86.24 86.24 0 01-1.76-12.11c-.18-2.72 6.4-13.66 4.94-20.78C48.2 36 40.27 30.2 40.27 30.2l-5.33 11.15-12.73 17.2z" data-name="路径 95359"/><path fill="#37376e" d="M28.97 74a13.73 13.73 0 005.64.99 11.62 11.62 0 004.91-2.28v2.33a7.97 7.97 0 01-4.91 2.17 21.18 21.18 0 01-5.85-1.08z" data-name="路径 95360"/><path fill="#5b5bb5" d="M37.43 27.56s1.63 1.73.62 5.4-6.1 9.12-9.96 15.1-7.38 11.22-7.71 14.56c0 0 4.47-6.55 9.08-10.4s9.73-7.24 9.73-7.24a13.67 13.67 0 00-2.85-3.68l4.92.18s1.89-4.84 1.21-8.3S38 26.94 38 26.94z" data-name="路径 95361"/><path fill="#5b5bb5" d="M25.03 29.42a23.2 23.2 0 00-4.24 10.04c-1.03 6.14-.41 22.28-.41 23.16A37.6 37.6 0 0117.3 51.6a95.18 95.18 0 01-.34-14.75l3.34-.5-2.67-3.23s3.16-4.34 6.27-6.05z" data-name="路径 95362"/><path fill="#ffd461" d="M21.36 10.56c-.44-.72-1.68-2.22-.85-4.14a2.35 2.35 0 012.6-1.65 2.57 2.57 0 011.69-2.51 7.14 7.14 0 013.7-.52s-.47-.7 1.04-1.24a3.28 3.28 0 013.6.57c1.13.88 2.32 2.2 3.44 2.63 1.08.44 3.23.52 4.42 2a4.67 4.67 0 011.14 2.84s.49 4.79-5.82 5.77z" data-name="路径 95363"/><path fill="#cca437" d="M38.28 19.18l-.8 2.71s-1.78.16-1.89-2.33a9.24 9.24 0 00-.98-3.98s-4.42-.52-6.75-1.11a18.09 18.09 0 01-4.8-2.28l-1.05 4.3a7.85 7.85 0 01-.6-3.29 27.85 27.85 0 00-.34-4c0-.73.05-1.35.65-1.5.57-.16 1.32 1.34 1.81 1.62 0 0-.5-2.4.23-2.6a1.63 1.63 0 012 .82 7.5 7.5 0 002.56 1.7s-.31-1.13.2-1.31.8 0 1.45.9a8.87 8.87 0 003.78 2.3c1.4.47 3.8 2.23 2.61 3.21a2.13 2.13 0 011.56 1.76c.18 1.4.36 3.08.36 3.08z" data-name="路径 95364"/><path fill="#e3b63d" d="M19.21 7.48c1.5.26 3.8.57 4.63.72 0 0-2.46-1.52-3.3-1.52a1.67 1.67 0 00-1.33.8z" data-name="路径 95365"/><path fill="#e3b63d" d="M24.44 4.17a10.02 10.02 0 013.62 1.35l1.6 1.06a10.12 10.12 0 00-2.98-2.51c-1.41-.55-2.06-.4-2.24.1z" data-name="路径 95366"/><path fill="#ffc630" d="M36.34 14.31c6.29-.98 5.8-5.77 5.8-5.77a3.63 3.63 0 00-.28-1.34c-.5-1.01-1.9-1.06-2.75-1.09-.85-.05 1.09 1.92 1.32 3.23s-1.19 2.64-1.19 2.64a3.22 3.22 0 00.08-1.6c-.18-.9-2.12-1.32-1.89-.62s1.01 1.4.75 2.67c-.24 1.28-1.84 1.88-1.84 1.88z" data-name="路径 95367"/><path fill="#444487" d="M19.5 140.68s2.12-17.05 2.01-17.85c-.13-.8 1.4-5.28 1.4-5.28s-1.29-2.54-1.06-3.96 5.05-13.17 5.05-13.17l-1.76 12.42s-.13 2.85-.13 10.58c0 7.76-3.47 18.81-3.47 18.81v8.05z" data-name="路径 95368"/></g><g data-name="组 88635"><path fill="#ff8996" d="M271.06 29.96a34.33 34.33 0 001.1-3.83c.35-1.66-1.52-4.6-1.52-4.6l-1.91-.37z" data-name="路径 95369"/><path fill="#ffb1d0" d="M269.6 20.43c-.36-1.73-2.45-2.17-3.9-2.72-1.45-.51-1.79.4-1.79.4a2.27 2.27 0 00-2.17-.27 1.35 1.35 0 00-.83 1.35s-.5-.08-1.27.57a.94.94 0 00-.2 1.34 2.42 2.42 0 00-2.02 1.24 7.47 7.47 0 00-.26 3.99 4.29 4.29 0 001.89 1.76 12.1 12.1 0 002.4-1.04z" data-name="路径 95370"/><path fill="#46468c" d="M255.9 44.8c5.2 2.15 12.41 8.98 16 11.83s8.62 3 5.16 10.69c-1.4 3.07-3.57 3.2-8.41 1.37s-16.56-8.72-17.75-13.15 1.35-12.24 5-10.74z" data-name="路径 95371"/><path fill="#5b5bb5" d="M271.57 32.41s-1.5 3.62-7.76 2.72c-1.73-.26-1.22 2.25-.96 3.36.24 1.11 2.18 12.03 2.64 16.82.47 4.81-.28 17.7 10.97 13.53 5.18-1.91 3.89-8.43 1.53-15.45s-4.45-18.03-5.12-19.66c-.68-1.6-1.3-1.32-1.3-1.32z" data-name="路径 95372"/><path fill="#d4dcff" d="M271.57 32.41l-.3-1.42s-.5 1.58-3.14 2.15a19.57 19.57 0 01-5.38.28l.18 1.81a10.62 10.62 0 005.95.29c3.08-.83 2.7-3.1 2.7-3.1z" data-name="路径 95373"/><path fill="#ffb1d0" d="M262.75 33.45c-.23-1.17-.2-.91-.2-.91s-2.8-3.67-3.45-7.14l10.48-4.92 1.45 9.52.2 1.04a3 3 0 01-2.6 2.92 16.19 16.19 0 01-5.88-.51z" data-name="路径 95374"/></g></g><g data-name="组 88688"><g data-name="组 88637"><path d="M75.32 416.7a53.84 53.84 0 01-14.75-9.35 15.4 15.4 0 01-3.65-4.81 4.06 4.06 0 01.03-3.83c1.3-2.12 5-2.98 10.43-2.38a60.71 60.71 0 0117.38 5.1 53.84 53.84 0 0114.75 9.34 15.4 15.4 0 013.65 4.81 4.06 4.06 0 01-.03 3.83c-1.3 2.12-5 2.98-10.42 2.38a60.24 60.24 0 01-17.4-5.1z" data-name="路径 95375" opacity=".2"/></g><g data-name="组 88683"><g data-name="组 88682"><g data-name="组 88638"><path fill="#73ccff" d="M66.96 385.15l5.05-2.15-1.84-1.08-5.05 2.17z" data-name="路径 95376"/></g><g data-name="组 88639"><path fill="#4343b0" d="M64.56 401.53l5.07-2.17L72 383l-5.05 2.15z" data-name="路径 95377"/></g><g data-name="组 88640"><path fill="#73ccff" d="M65.12 384.09l5.05-2.17.57-3.88-5.05 2.14z" data-name="路径 95378"/></g><g data-name="组 88641"><path fill="#73ccff" d="M67.53 381.24l5.05-2.14-1.84-1.06-5.05 2.14z" data-name="路径 95379"/></g><g data-name="组 88642"><path fill="#4343b0" d="M67.53 381.24l5.05-2.14 3.6-24.43-5.08 2.15z" data-name="路径 95380"/></g><g data-name="组 88643"><path fill="#73ccff" d="M71.1 356.82l5.07-2.15-1.84-1.06-5.07 2.15z" data-name="路径 95381"/></g><g data-name="组 88644"><path fill="#73ccff" d="M69.26 355.76l5.08-2.15.56-3.9-5.07 2.14z" data-name="路径 95382"/></g><g data-name="组 88645"><path fill="#73ccff" d="M71.67 352.91l5.07-2.15-1.84-1.06-5.07 2.15z" data-name="路径 95383"/></g><g data-name="组 88646"><path fill="#73ccff" d="M92.76 399.98l5.04-2.18-1.83-1.06-5.05 2.17z" data-name="路径 95384"/></g><g data-name="组 88647"><path fill="#7f7feb" d="M91.49 395l5.05-2.16-23.96-13.74-5.05 2.14z" data-name="路径 95385"/></g><g data-name="组 88648"><path fill="#73ccff" d="M92.76 399.98l5.04-2.18.57-3.9-5.04 2.17z" data-name="路径 95386"/></g><g data-name="组 88649"><path fill="#73ccff" d="M93.33 396.07l5.04-2.17-1.84-1.06L91.5 395z" data-name="路径 95387"/></g><g data-name="组 88650"><path fill="#4343b0" d="M71.67 352.91l5.07-2.14 3.57-24.43-5.04 2.17z" data-name="路径 95388"/></g><g data-name="组 88651"><path fill="#73ccff" d="M75.27 328.51l5.04-2.17-1.84-1.06-5.04 2.15z" data-name="路径 95389"/></g><g data-name="组 88652"><path fill="#73ccff" d="M73.43 327.43l5.04-2.15.57-3.9-5.04 2.16z" data-name="路径 95390"/></g><g data-name="组 88653"><path fill="#73ccff" d="M75.84 324.6l5.04-2.17-1.84-1.06-5.04 2.17z" data-name="路径 95391"/></g><g data-name="组 88654"><path fill="#73ccff" d="M96.9 371.64l5.07-2.17-1.86-1.06-5.05 2.17z" data-name="路径 95392"/></g><g data-name="组 88655"><path fill="#7f7feb" d="M95.63 366.68l5.07-2.15-23.96-13.77-5.07 2.15z" data-name="路径 95393"/></g><g data-name="组 88656"><path fill="#73ccff" d="M97.47 367.74l5.07-2.15-1.84-1.06-5.07 2.15z" data-name="路径 95394"/></g><g data-name="组 88657"><path fill="#73ccff" d="M96.9 371.65l5.07-2.18.57-3.88-5.07 2.15z" data-name="路径 95395"/></g><g data-name="组 88658"><path fill="#4343b0" d="M75.84 324.6l5.04-2.17 3.57-24.42-5.04 2.17z" data-name="路径 95396"/></g><g data-name="组 88659"><path fill="#73ccff" d="M79.4 300.18l5.05-2.17-1.84-1.06-5.04 2.17z" data-name="路径 95397"/></g><g data-name="组 88660"><path fill="#73ccff" d="M77.57 299.12l5.04-2.17.6-3.91-5.07 2.17z" data-name="路径 95398"/></g><g data-name="组 88661"><path fill="#73ccff" d="M79.98 296.27l5.07-2.17-1.84-1.06-5.07 2.17z" data-name="路径 95399"/></g><g data-name="组 88662"><path fill="#73ccff" d="M101.04 343.31l5.07-2.15-1.84-1.06-5.07 2.15z" data-name="路径 95400"/></g><g data-name="组 88663"><path fill="#7f7feb" d="M99.8 338.34l5.04-2.14-23.96-13.77-5.04 2.17z" data-name="路径 95401"/></g><g data-name="组 88664"><path fill="#73ccff" d="M101.04 343.31l5.07-2.14.57-3.91-5.05 2.15z" data-name="路径 95402"/></g><g data-name="组 88665"><path fill="#73ccff" d="M101.63 339.4l5.05-2.14-1.84-1.06-5.04 2.14z" data-name="路径 95403"/></g><g data-name="组 88666"><path fill="#73ccff" d="M83.55 271.85l5.07-2.15-1.84-1.06-5.07 2.15z" data-name="路径 95404"/></g><g data-name="组 88667"><path fill="#4343b0" d="M79.98 296.27l5.07-2.17 3.57-24.4-5.07 2.15z" data-name="路径 95405"/></g><g data-name="组 88668"><path fill="#73ccff" d="M81.71 270.79l5.07-2.15.57-3.9-5.07 2.14z" data-name="路径 95406"/></g><g data-name="组 88669"><path fill="#73ccff" d="M84.14 267.94l5.05-2.15-1.84-1.06-5.07 2.15z" data-name="路径 95407"/></g><g data-name="组 88670"><path fill="#73ccff" d="M105.2 314.98l5.05-2.15-1.84-1.06-5.04 2.15z" data-name="路径 95408"/></g><g data-name="组 88671"><path fill="#7f7feb" d="M103.94 310.04l5.04-2.18-23.93-13.76-5.07 2.17z" data-name="路径 95409"/></g><g data-name="组 88672"><path fill="#73ccff" d="M105.77 311.1l5.05-2.17-1.84-1.07-5.05 2.18z" data-name="路径 95410"/></g><g data-name="组 88673"><path fill="#73ccff" d="M105.2 314.98l5.05-2.15.57-3.9-5.05 2.17z" data-name="路径 95411"/></g><g data-name="组 88674"><path fill="#7f7feb" d="M86.52 251.56l5.07-2.15-3.7-2.12-5.04 2.15z" data-name="路径 95412"/></g><g data-name="组 88675"><path fill="#4343b0" d="M84.14 267.94l5.05-2.15 2.4-16.37-5.07 2.14z" data-name="路径 95413"/></g><g data-name="组 88676"><path fill="#73ccff" d="M109.34 286.67l5.07-2.17-1.83-1.06-5.07 2.17z" data-name="路径 95414"/></g><g data-name="组 88677"><path fill="#7f7feb" d="M108.07 281.7l5.08-2.17-23.96-13.74-5.05 2.15z" data-name="路径 95415"/></g><g data-name="组 88678"><path fill="#73ccff" d="M109.34 286.67l5.07-2.17.57-3.9-5.07 2.17z" data-name="路径 95416"/></g><g data-name="组 88679"><path fill="#73ccff" d="M109.91 282.77l5.07-2.18-1.83-1.06-5.08 2.18z" data-name="路径 95417"/></g><path fill="#7070cf" d="M60.88 399.4l3.67 2.13 2.41-16.38 23.96 13.77-2.4 16.37 3.67 2.13 21.97-149.97-3.68-2.12-2.4 16.38-23.96-13.77 2.4-16.38-3.67-2.12zm34.75-32.72L71.67 352.9l3.57-24.42 23.96 13.76zm4.16-28.34l-23.95-13.76 3.57-24.43 23.96 13.77zm7.71-52.73l-3.57 24.43-23.96-13.77 3.58-24.42zm-39.97 95.63l3.57-24.42 23.96 13.76-3.57 24.43z" data-name="路径 95418"/><g data-name="组 88680"><path fill="#7f7feb" d="M114.15 267.46l5.08-2.18-3.7-2.12-5.05 2.17z" data-name="路径 95419"/></g><g data-name="组 88681"><path fill="#4343b0" d="M92.19 417.42l5.04-2.18 22-149.96-5.08 2.17z" data-name="路径 95420"/></g></g></g><g data-name="组 88687"><g data-name="组 88686" transform="translate(48.78 249.7)"><path fill="#002283" d="M31.01 110.67h-.08l.91-4.14 3.9 1.6 2.13-1.11a25.01 25.01 0 007.22-.29c2.77-.75 4.4 1.97 2.56 3.76s-6.67 2.38-7.63 2.48a27.62 27.62 0 00-4.71 1.45c-1.14.47-3.42-.5-4.01-1.2-.55-.6-.34-2.26-.29-2.55z" data-name="路径 95421"/><path fill="#002283" d="M25.89 130.93a69.03 69.03 0 016.65-3.96c2.02-.88 6.44-2.25 5.98 2.54-.24 2.35-4.48 4.94-6.68 5.07s-3.5 2.5-6 2.4a3.1 3.1 0 01-2.53-1.6 3.87 3.87 0 01-.52-2.45l.13-1.14z" data-name="路径 95422"/><path fill="#2b2b57" d="M3.5 55.92S.08 64.88.54 68.78s2.98 9.19 2.98 9.19 13.53 21.11 14 24.78c0 0 1.7 17.29 3.2 20.88l1.84 4.38.24 3.67a29.06 29.06 0 004.8 0 4.12 4.12 0 003.58-2.4l.23-.7s-.8-10.23-1.27-15.04 0-12.63-.9-14.46-8.49-19.05-8.49-19.05l-6.65-18.8z" data-name="路径 95423"/><path fill="#444487" d="M25.89 63.63a14.87 14.87 0 01.7 4.14s20.44 7.12 23.18 11.26-1.37 10.79-2.53 12.86c-1.14 2.07-6.42 11.92-6.42 11.92l-.47 2.75s-2.07 1.83-3.44 2.07a6.62 6.62 0 01-4.14-.9 2.99 2.99 0 01-1.37-1.6 28.32 28.32 0 01.57-4.72c.47-1.83 4.37-14.7 4.37-14.7s-18.8-4.14-22.95-5.74-5.97-6.42-5.74-11.02a16.02 16.02 0 011.6-6.89z" data-name="路径 95424"/><path fill="#ffa1c6" d="M31.97 31.03s3.73-2.98 4.32-3.4a7.44 7.44 0 013.55-.51 17.5 17.5 0 012.01.44 7.53 7.53 0 011.3.93c.2.26.57.88.39 1.14s-.21.31-.78.34a10.17 10.17 0 01-1.16-.03l-.86.78-1.06 1.08s-1.53 1.92-2.48 2.18-3.1.64-3.1.64z" data-name="路径 95425"/><path fill="#ffb1d0" d="M34.3 34.19a3.89 3.89 0 002.15.62c1.24-.03 2.77-1.27 3.33-1.53a17.97 17.97 0 012.64-.8c.29-.02.34-.62-.28-.85a2.62 2.62 0 00-1.71-.08c-.44.13-.67.6-1.03.62-.4.03-5 .1-5 .1z" data-name="路径 95426"/><path fill="#ffb1d0" d="M40.43 31.03a4.06 4.06 0 01.34-.33c.2-.21.85-.78.85-.78a10.16 10.16 0 001.16.03c.57-.03.6-.08.78-.34s-.2-.88-.39-1.14a9.31 9.31 0 00-1.3-.93 17.49 17.49 0 00-2-.44 7.39 7.39 0 00-3.55.52c-.03.02 3.39.72 4.11 3.41z" data-name="路径 95427"/><path fill="#d4dcff" d="M30 31.34l1.79-.54A3.14 3.14 0 0134 32.2a6.33 6.33 0 01.52 2.43.79.79 0 01-.5.78l-1.23.51z" data-name="路径 95428"/><path fill="#00d1ff" d="M25.48 31.94l1.83-.31c.75-.13 1.68-.9 2.43-.7s2.02.1 2.77 1.32c.78 1.21 1.48 2.82 1.01 3.93-.2.5-1.45.6-1.45.6l-2.77 1.48z" data-name="路径 95429"/><path fill="#00d1ff" d="M8.06 23.17c-2.77.41-4.53 2.43-6.21 7.45-1.71 5.02-3 13.63-.29 15.8 2.72 2.15 5.1.52 6.24-2.32 1.14-2.82.26-20.93.26-20.93z" data-name="路径 95430"/><path fill="#ffa1c6" d="M24.9 24.12a1.2 1.2 0 00-1.5 1.04l-.8 4.19s-2.9 1.7-5.07.65c-2.17-1.04-3.72-2.38-3.49-3.78.23-1.37 1.3-2.04 1.6-3.2s1.09-3.55.85-4.72c-.2-1.16 3.03-.39 4.77 1.09 1.7 1.47 2.35 2.1 2.35 2.1z" data-name="路径 95431"/><circle cx="8.69" cy="8.69" r="8.69" fill="#ffa1c6" data-name="椭圆 2161" transform="rotate(-52.84 19.19 -3.62)"/><path fill="#ffa1c6" d="M31.3 13.26a31.64 31.64 0 01-1.04 6.05c-.83 2.77-2 3.93-2 4.6s-1.41.6-2.53.37-2.58-.34-2.71-1.66a7.82 7.82 0 01-.06-1.76z" data-name="路径 95432"/><path fill="#ffa1c6" d="M30.98 15.58s.5 3.21.47 3.94c-.05.72-2.07.44-2.07.44z" data-name="路径 95433"/><path fill="#0fe4ff" d="M24.23 29.6c3.13 2.6 8.18 7.17 7.82 11-.36 3.86-5.6 15.27-5.7 18.2-.1 2.95 1.25 5.22-.77 6.78-2 1.55-12.14 2.04-16.28-.55s-7.5-8.2-6.26-10.42 1.4-3.24 1.45-6.94c.03-3.67-2.17-7.09-1.32-13.32.83-6.24 1.14-10.5 4.9-11.23s10.06 1.7 10.06 1.7z" data-name="路径 95434"/><path fill="#00144f" d="M23.8 16.54l-.45 2.38 1.27.44 1.11-1.58 1.82-.7a1.86 1.86 0 01-.1-1.94c.6-.98 2.79-1.89 2.79-1.89a5.23 5.23 0 001.91-1.91s2.2-.7 2.51-1.73-2.25-1.01-2.25-1.01 4.11-2.56 2.22-4.3c-.62-.57-3.36.2-3.36.2s1.92-2.2-.05-2.43a4.81 4.81 0 00-3.24.65S23.51 1.1 20.4 2.5a12.26 12.26 0 00-4.3 2.82s-4.16.46-3.44 6.36 3.75 7.45 3.7 8.44c0 0 2.77.44 3.96 1.73.03-.02.6-5.58 3.47-5.3z" data-name="路径 95435"/><path fill="#002283" d="M34.66 9.6c.31-1.03-2.25-1-2.25-1s4.11-2.56 2.22-4.3c-.62-.57-3.36.2-3.36.2s1.92-2.2-.05-2.43a4.81 4.81 0 00-3.24.65S23.51 1.1 20.4 2.5a12.26 12.26 0 00-4.3 2.82 3.88 3.88 0 00-1.99.95s-1.94 2.57.93 3.55a31.75 31.75 0 009.86 1.55 316 316 0 017.22 0l1.81-.88a2.23 2.23 0 00.73-.87z" data-name="路径 95436"/><path fill="#00144f" d="M21.44 3.89a5.22 5.22 0 00-2.25.31 4.6 4.6 0 011.83-1.86l.4-.18a5.77 5.77 0 00-1.02.33 12.26 12.26 0 00-4.3 2.82 3.56 3.56 0 002.82 1.84c1.87 0 1.63-2.28 2.9-2.4.03-.03.78-.76-.38-.86z" data-name="路径 95437"/><path fill="#ffa1c6" d="M23.8 16.54s-.03-1.7-1.5-1.55c-1.48.18-2.57 2.77-1.66 4.3s1.03 1.73 2.3 1.6z" data-name="路径 95438"/><path fill="#ebeeff" d="M24.23 29.6l-.46-2.79a21.94 21.94 0 00-7.84-4.89l-2.12 1.6s-.19.88 2.53 2.25c2.7 1.35 7.2 3.22 7.9 3.84z" data-name="路径 95439"/><g data-name="组 88685"><path fill="#ff8996" d="M50.31 30.88a13.27 13.27 0 01-1.13-1.58c-.6-.93-.16-1.76-.16-2.61s.31-.96.6-1.76.62-.7.96-.08-.31 1.32-.31 1.32l.75 2.84.02 1.35z" data-name="路径 95440"/><path fill="#ffa1c6" d="M50.57 30.75s-.8-3.8-.51-5.05A4.66 4.66 0 0154 24.1c2.38.34 4.61 3.34 4.61 3.34s-1.55 3.29-1.91 3.7a6.4 6.4 0 01-.96.88z" data-name="路径 95441"/><path fill="#ffa1c6" d="M58.62 27.43c.18-1.32-.16-4.08-.65-4.6-.46-.52-.75-.05-.75-.05s-.23-1.27-.85-1.66l-.65-.39s-.9-.95-1.5-.6a22.12 22.12 0 00-2.72 1.55 26.96 26.96 0 00-1.47 3.96z" data-name="路径 95442"/><path fill="#ebeeff" d="M49.4 32.5l.68-1.75s2.12-1.63 3.62-1.06a7.27 7.27 0 012.75 2.4l-.65 1.94z" data-name="路径 95443"/><g data-name="组 88684"><path fill="#0fd3ff" d="M56 32.92s-1.08-2.82-3.56-2.22-3.6 1.6-3.55 2.48a68.91 68.91 0 01-1.19 7.2c-.41 2.14-3.75 7.6-3.75 9.93s8.4 4.24 8.4 4.24a43.71 43.71 0 003.37-8.23c.75-3.36.31-7.52.44-9 .08-1.11.23-3.5-.15-4.4z" data-name="路径 95444"/><path fill="#0fe4ff" d="M27.93 35.38c3.34-.98 15.2 8.7 18.12 10.24 2.95 1.56 8.59 4.58 6.3 8.93s-13.65-3.5-18.41-5.07-11.62-6.47-10.48-9.73c1.1-3.26 2.64-3.83 4.47-4.37z" data-name="路径 95445"/></g></g></g></g></g><g data-name="组 88692"><g data-name="组 88691"><g data-name="组 88689"><path fill="#c4c9ff" d="M301.53 55.62l-.18 101.45a1.5 1.5 0 01-.9 1.24 4.77 4.77 0 01-4.35 0 1.57 1.57 0 01-.9-1.26l.18-101.46a1.57 1.57 0 00.9 1.27 4.77 4.77 0 004.35 0 1.55 1.55 0 00.9-1.24z" data-name="路径 95446"/></g><g data-name="组 88690"><path fill="#d9dcff" d="M300.6 54.35c1.22.7 1.22 1.81.03 2.51a4.77 4.77 0 01-4.35 0c-1.21-.7-1.21-1.8-.02-2.5a4.77 4.77 0 014.35 0z" data-name="路径 95447"/></g></g></g><path fill="#ff4198" d="M301.53 58.7s2.54 9.94 12.4 10.12 13.2-6.96 23.23-5.05a20.25 20.25 0 0113.95 9.52s-8.56-3.15-15.24 1.3c-6.7 4.45-13.66 13.56-27.14 10.4a45.47 45.47 0 01-7.22-2.05z" data-name="路径 95448"/><g data-name="组 88719"><path d="M109.27 451.93l3.67-2.35 56.28 11.17c2.69 1.38 5.27 2.67 7.7 3.89l-26.15 16.22-32.89-18.24a2.05 2.05 0 01-.9-2.57l.23-.56-7.94-5.05a1.5 1.5 0 010-2.5z" data-name="路径 95449" opacity=".2"/><g data-name="组 88718"><g data-name="组 88697"><g data-name="组 88693"><path fill="#f03966" d="M109.97 419.07l.1 33.53 21.91-12.65a1.43 1.43 0 00.72-1.27v-31.46a.75.75 0 00-1.1-.65z" data-name="路径 95450"/></g><path fill="#dee0ff" d="M131.62 407.3a.7.7 0 01.8.05l1.68.98-1.4 2.44v.12a.75.75 0 00-1.1-.64l-21.64 12.5v-2.93z" data-name="路径 95451"/><g data-name="组 88694"><path fill="#d42a50" d="M109.11 419.1v33.06a.74.74 0 00.36.65l2.4 1.4.27.16h.7l.1-33.12-.88-.5z" data-name="路径 95452"/></g><path fill="#f03966" d="M111.8 420.73l.1 33.45.26.16h1.06l-.1-33.61z" data-name="路径 95453"/><g data-name="组 88695"><path fill="#ff7899" d="M109.42 418.66l21.06-12.16.18-.1a1.45 1.45 0 011.74.2.7.7 0 00-.75-.05l-.03.03-.83.46-20.75 11.98c-.05.03-.05.08 0 .13l2.25 1.32a.29.29 0 00.21 0l21.32-12.31a1.44 1.44 0 011.73.2.7.7 0 00-.75-.05l-.02.03-21.66 12.5a1.59 1.59 0 01-1.45 0l-2.25-1.32a.45.45 0 010-.86z" data-name="路径 95455"/></g><g data-name="组 88696"><path fill="#f7567e" d="M113.12 420.8l.1 33.54 21.92-12.65a1.43 1.43 0 00.72-1.27v-31.46a.75.75 0 00-1.11-.65z" data-name="路径 95457"/></g></g><g data-name="组 88702"><g data-name="组 88698"><path fill="#3e4bf6" d="M114 421.71l2.51 34.9 21.92-12.65c-1.97-1.66-1.69-2.12-1.69-2.67v-31.46a.75.75 0 00-1.1-.65z" data-name="路径 95458"/></g><path fill="#dee0ff" d="M135.66 409.96a.7.7 0 01.8.06l4.11 2.35-2.48 1.91-21.63 12.5-2.43-4.32z" data-name="路径 95459"/><g data-name="组 88699"><path fill="#313cc4" d="M113.15 421.74v33.06a.74.74 0 00.36.65l4.84 2.77.26.15h.7l.1-33.11-.88-.5z" data-name="路径 95460"/></g><path fill="#3946e6" d="M118.27 424.76l.08 33.46.26.15h1.06l-.08-33.6z" data-name="路径 95461"/><g data-name="组 88700"><path fill="#7580ff" d="M113.46 421.32l21.06-12.16.18-.1a1.44 1.44 0 011.73.2.7.7 0 00-.75-.04l-.02.02-.83.47-20.75 11.98c-.05.02-.05.08 0 .13l4.68 2.69a.29.29 0 00.2 0l21.33-12.32a1.44 1.44 0 011.73.21.7.7 0 00-.75-.05l-.02.02-21.66 12.5a1.59 1.59 0 01-1.45 0l-4.68-2.69c-.41-.26-.41-.62 0-.86z" data-name="路径 95463"/></g><g data-name="组 88701"><path fill="#3e4bf6" d="M119.59 424.84l.1 33.53 21.91-12.65a1.43 1.43 0 00.73-1.27V413a.75.75 0 00-1.11-.65z" data-name="路径 95465"/></g></g><g data-name="组 88706"><g data-name="组 88703"><path fill="#b89431" d="M173.36 464.97l-22.74 13.22-31-17.9 22.74-13.22a2.39 2.39 0 012.35 0l28.67 16.54a.81.81 0 01-.02 1.36z" data-name="路径 95466"/></g><path fill="#bdbfff" d="M171.73 462.33L149.94 475v2.33l22.64-13.17a.86.86 0 00.39-.65v-1.9z" data-name="路径 95467"/><g data-name="组 88704"><path fill="#cca437" d="M150.64 474.28l-.7 1.09v2.97l.42.55a1.58 1.58 0 01-.78-.2l-29.86-17.24a1.55 1.55 0 01-.77-1.35v-1.7a3.26 3.26 0 01.49-1.69l.18-.33z" data-name="路径 95468"/></g><path fill="#e3b63d" d="M150.12 475.09l.52-.8-31.05-17.9-.18.34a3.9 3.9 0 00-.28.56z" data-name="路径 95469"/><g data-name="组 88705"><path fill="#ffd461" d="M173.36 461.07l-22.74 13.22-31-17.9 22.74-13.22a2.39 2.39 0 012.35 0l28.67 16.53a.81.81 0 01-.02 1.37z" data-name="路径 95470"/></g><path fill="#cca437" d="M173.74 464.27a.73.73 0 01-.38.57l-.03.03-.85.49L150.72 478c-.06.03-.1 0-.1-.05v-2.77a.22.22 0 01.1-.18l22.17-12.89a2.3 2.3 0 00.78-.72.73.73 0 00.1-.34v-.6a.73.73 0 01-.4.57l-.02.03-22.61 13.14a1.71 1.71 0 00-.78 1.35v2.77c0 .49.36.7.78.44l22.22-12.92a2.48 2.48 0 00.7-.67.73.73 0 00.1-.33l-.02-.57z" data-name="路径 95471"/></g><g data-name="组 88717"><g data-name="组 88707"><path fill="#a6203f" d="M123.1 455.7l28.29 16.44a2.34 2.34 0 002.33 0l21.96-12.68a.51.51 0 000-.88l-29.83-17.33-22.74 13.14a.76.76 0 000 1.32z" data-name="路径 95472"/></g><path fill="#a6203f" d="M175.74 459.43l-2.67-1.47 2.82-1.74.13 3.21z" data-name="路径 95473"/><path fill="#dee0ff" d="M153.64 467.84l.08-.05 19.66-11.36.5.29 1.13.1v2.22l-21.3 12.3a.1.1 0 01-.07.02c.08-1.16 0-2.33 0-3.52z" data-name="路径 95474"/><path fill="#cfd1ff" d="M153.64 467.84c0 1.2.1 2.36 0 3.57a2.29 2.29 0 01-2.2-.02c0-1.2-.05-2.4-.05-3.6a2.32 2.32 0 002.25.05z" data-name="路径 95475"/><path fill="#bdbfff" d="M123.7 452.24l1.04.1 26.65 15.48c0 1.19.03 2.38.05 3.6-.02 0-.02-.03-.05-.03l-27.3-15.84a.73.73 0 01-.39-.72v-2.59z" data-name="路径 95476"/><path fill="#f7567e" d="M123.16 450.56l21.2-12.24a3.16 3.16 0 013.1 0l27.34 15.89a4.6 4.6 0 011.48 1.34l.07.13.03.05-.67-.1-21.97 12.68a2.37 2.37 0 01-1.32.31.33.33 0 01-.15-.02 2.2 2.2 0 01-.88-.29l-28.23-16.4a.86.86 0 01-.4-.62.73.73 0 01.4-.73z" data-name="路径 95477"/><g data-name="组 88716"><g data-name="组 88708"><path fill="#d42e57" d="M151.93 464.48a.34.34 0 000 .65 1.2 1.2 0 001.12 0l16.56-9.55a.34.34 0 000-.65 1.2 1.2 0 00-1.12 0z" data-name="路径 95478"/></g><g data-name="组 88709"><path fill="#d42e57" d="M133.48 452.47a.34.34 0 000 .65 1.2 1.2 0 001.12 0l4.58-2.64a.34.34 0 000-.65 1.2 1.2 0 00-1.12 0z" data-name="路径 95479"/></g><g data-name="组 88710"><path fill="#d42e57" d="M139.7 448.88a.34.34 0 000 .65 1.2 1.2 0 001.1 0l4.25-2.46a.34.34 0 000-.65 1.2 1.2 0 00-1.11 0z" data-name="路径 95480"/></g><g data-name="组 88715"><g data-name="组 88711"><path fill="#f78fa9" d="M141.27 442.15a.34.34 0 000 .65l5.02 2.92a1.16 1.16 0 001.09 0l2.64-1.52a.34.34 0 000-.65l-5.02-2.93a1.15 1.15 0 00-1.09 0z" data-name="路径 95481"/></g><g data-name="组 88712"><path fill="#f78fa9" d="M131.78 447.66a.34.34 0 000 .65l1.11.65a1.15 1.15 0 001.09 0l7.19-4.17a.34.34 0 000-.65l-1.11-.64a1.15 1.15 0 00-1.09 0z" data-name="路径 95482"/></g><g data-name="组 88713"><path fill="#d42e57" d="M130.43 451.96a.34.34 0 000 .64 1.2 1.2 0 001.12 0l11.59-6.67a.34.34 0 000-.65 1.2 1.2 0 00-1.12 0z" data-name="路径 95483"/></g><g data-name="组 88714"><path fill="#f78fa9" d="M135.84 455.11a.34.34 0 000 .65l12.99 7.56a1.15 1.15 0 001.09 0l16.55-9.58a.34.34 0 000-.64l-12.98-7.56a1.15 1.15 0 00-1.1 0z" data-name="路径 95484"/></g></g></g><path fill="#c9274c" d="M122.72 455.01a.67.67 0 00.39.62l.8.47 27.53 15.98a2.34 2.34 0 002.33 0l21.97-12.67a.26.26 0 00.1-.18v-2.75c0-.07-.06-.1-.1-.05l-21.97 12.68a2.34 2.34 0 01-2.33 0l-28.28-16.46-.05-.02a.8.8 0 01-.34-.62v-.73a.67.67 0 00.4.62l28.27 16.43a2.2 2.2 0 00.88.29.33.33 0 01.16.02 2.37 2.37 0 001.32-.3l21.96-12.68a.5.5 0 01.65.02l.03.05a.69.69 0 01.07.37v2.74a1.63 1.63 0 01-.77 1.32l-21.97 12.68a2.34 2.34 0 01-2.33 0l-27.92-16.23-.41-.23-.06-.03a.8.8 0 01-.33-.62v-.72z" data-name="路径 95485"/></g></g></g><g data-name="组 88727"><path d="M182.98 385.72c-.88-.44-21.47-12.34-21.45-13.12s1.16-1.37 1.16-1.37l22 11.18 5.17 4a25.68 25.68 0 019.68-1.78 24 24 0 0111.82 2.85c3.37 1.97 5.23 4.63 5.23 7.55a7.07 7.07 0 01-1.4 4.17 12.16 12.16 0 01-3.9 3.42 26.04 26.04 0 01-23.68 0c-3.37-1.97-5.23-4.64-5.23-7.56a7.07 7.07 0 011.4-4.17 12.16 12.16 0 013.9-3.41l-2.84-1.79a2.24 2.24 0 01-1.86.03z" data-name="路径 95486" opacity=".2"/><g data-name="组 88726"><g data-name="组 88722"><g data-name="组 88720"><path fill="#313cc4" d="M185 381.43a3.13 3.13 0 00-1.42 2.43c0 .9.64 1.27 1.42.8a3.13 3.13 0 001.42-2.43c0-.88-.64-1.24-1.42-.8z" data-name="路径 95487"/></g><path fill="#4f5cff" d="M163.26 368.8a.98.98 0 011.01-.1l21.74 12.62a.98.98 0 00-1.01.1 3.13 3.13 0 00-1.42 2.44.99.99 0 00.41.9l-21.73-12.62a.99.99 0 01-.42-.9 3.25 3.25 0 011.42-2.44z" data-name="路径 95488"/><path fill="#6060bf" d="M185.57 382.74a.55.55 0 01.52-.05l4.14 2.4a.48.48 0 00-.52.06 1.6 1.6 0 00-.73 1.24.5.5 0 00.21.47l-4.14-2.4a.5.5 0 01-.2-.47 1.65 1.65 0 01.72-1.25z" data-name="路径 95489"/><g data-name="组 88721"><path fill="#f7567e" d="M189.7 385.15a1.6 1.6 0 00-.71 1.24c0 .47.33.65.72.42a1.6 1.6 0 00.72-1.24c0-.44-.3-.65-.72-.42z" data-name="路径 95490"/></g></g><g data-name="组 88725"><g data-name="组 88723"><path fill="#c9274c" d="M183.63 391.64v2.64c0 2.33 1.55 4.66 4.6 6.44 6.19 3.6 16.23 3.6 22.44 0 3.13-1.8 4.68-4.16 4.68-6.54v-2.64c0 2.36-1.55 4.74-4.68 6.55-6.21 3.6-16.25 3.6-22.44 0-3.05-1.76-4.58-4.12-4.6-6.45z" data-name="路径 95491"/></g><g data-name="组 88724"><ellipse cx="15.86" cy="9.19" fill="#f7567e" data-name="椭圆 2162" rx="15.86" ry="9.19" transform="rotate(-.16 135357.85 -64744.3)"/></g><path fill="#d6e3ff" d="M199.43 398.14a20.68 20.68 0 0010.02-2.36c2.2-1.26 3.46-2.9 3.46-4.42s-1.24-3.13-3.41-4.37a22.41 22.41 0 00-20 0c-2.2 1.26-3.47 2.9-3.47 4.42s1.24 3.13 3.42 4.37a20.86 20.86 0 009.98 2.36z" data-name="路径 95492"/><path fill="#c9274c" d="M209.53 387.6a22.41 22.41 0 00-20 0c-2.05 1.2-3.29 2.67-3.47 4.12l-.02-.33c0-1.56 1.26-3.16 3.46-4.43a22.41 22.41 0 0120 0c2.18 1.27 3.42 2.85 3.42 4.37a1.26 1.26 0 01-.03.31c-.13-1.42-1.34-2.87-3.36-4.03z" data-name="路径 95493"/><path fill="#f3feff" d="M195.24 394.96a1.72 1.72 0 011.71-.15 9.04 9.04 0 003.8.49 8.24 8.24 0 005.13-2.59 1.72 1.72 0 011.7-.15c.75.25 1.12.85.75 1.21a10.4 10.4 0 01-6.57 3.18 13.82 13.82 0 01-5.69-.72c-.8-.29-1.19-.88-.83-1.27z" data-name="路径 95494"/></g></g></g><g data-name="组 88728"><path fill="#e3e5ff" d="M357.94 434.47c-.85.49-.85 1.29 0 1.8l12.1 7.04a3.45 3.45 0 003.1 0l12.2-7.03c.85-.5.85-1.3 0-1.81l-12.11-7.04a3.45 3.45 0 00-3.1 0z" data-name="路径 95495"/></g><g data-name="组 88729"><path fill="#e3e5ff" d="M328.52 434.67a.68.68 0 000 1.3l8.64 5.02a2.41 2.41 0 002.23 0l8.7-5.02a.68.68 0 000-1.3l-8.65-5.02a2.41 2.41 0 00-2.22 0z" data-name="路径 95496"/></g><g data-name="组 88730"><path fill="#e3e5ff" d="M32.86 437.86c-.85.49-.85 1.3 0 1.8l12.1 7.05a3.45 3.45 0 003.1 0l12.2-7.04c.85-.5.85-1.3 0-1.81l-12.11-7.04a3.45 3.45 0 00-3.1 0z" data-name="路径 95497"/></g><g data-name="组 88731"><path fill="#e3e5ff" d="M.47 428.46a.68.68 0 000 1.3l8.64 5.02a2.41 2.41 0 002.22 0l8.7-5.02a.68.68 0 000-1.3l-8.64-5.02a2.41 2.41 0 00-2.23 0z" data-name="路径 95498"/></g><g data-name="组 88732"><path fill="#e3e5ff" d="M373.7 405.41c-.47.29-.47.72 0 .98l6.67 3.88a1.81 1.81 0 001.71 0l6.73-3.88c.46-.28.46-.72 0-.98l-6.68-3.88a1.81 1.81 0 00-1.7 0z" data-name="路径 95499"/></g><g data-name="组 88733"><path fill="#e3e5ff" d="M26.34 412.06c-.47.28-.47.72 0 .98l6.67 3.88a1.81 1.81 0 001.71 0l6.73-3.88c.47-.28.47-.72 0-.98l-6.68-3.88a1.81 1.81 0 00-1.7 0z" data-name="路径 95500"/></g><g data-name="组 88736"><g data-name="组 88735"><path fill="#626df6" d="M98.48 142.4c1.44.73 2.95 1.42 4.37 2.28a11.1 11.1 0 00-4.76 8.23c-1.32-.86-2.75-1.5-4.14-2.23a10.97 10.97 0 014.53-8.28z" data-name="路径 95501"/><path fill="#313cc4" d="M98.09 152.88v.26l.08 29.55a3.52 3.52 0 001.45 3.2l-4.14-2.4a3.46 3.46 0 01-1.46-3.2l-.1-29.53v-.08c1.4.7 2.85 1.37 4.17 2.2z" data-name="路径 95502"/><path fill="#828bf6" d="M98.92 142.12l25.69-14.86a3.5 3.5 0 013.57-.33l4.14 2.4a3.57 3.57 0 00-3.57.34l-25.7 14.86a2.39 2.39 0 01-.2.12c-1.42-.85-2.92-1.52-4.37-2.27.12-.08.28-.19.44-.26z" data-name="路径 95503"/><g data-name="组 88734"><path fill="#4f5cff" d="M103.06 144.52a11.02 11.02 0 00-5 8.64l.1 29.55c0 3.18 2.25 4.45 5.02 2.85l25.7-14.85a11.02 11.02 0 004.99-8.65l-.1-29.52c0-3.18-2.25-4.45-5.02-2.84z" data-name="路径 95504"/></g></g><path fill="#fff" d="M103.78 166.44a1.65 1.65 0 00.72 1.55.78.78 0 00.42.13 4.26 4.26 0 00-.31 1.55 1.65 1.65 0 00.72 1.55 1.52 1.52 0 001.09.1 3.4 3.4 0 00-.16 1.11A1.65 1.65 0 00107 174a1.68 1.68 0 001.7-.18l10.48-6.06a4.6 4.6 0 00.83-.62 10.61 10.61 0 00.78-.75 20.49 20.49 0 001.42-1.68 1.98 1.98 0 00.2-.29l.6-.8c-.17.24-.35.52-.6.8a1.07 1.07 0 00.45.68 1.22 1.22 0 001.14-.1l2.4-1.4a3.36 3.36 0 001.14-1.2 3.27 3.27 0 00.47-1.57l-.03-12.06a1.11 1.11 0 00-.47-1.03 1.22 1.22 0 00-1.13.1l-2.4 1.4a3.78 3.78 0 00-.55.41l-.13-.29a14.3 14.3 0 00-1.89-2.87 5.66 5.66 0 01-1.09-2.2 12.15 12.15 0 01-.39-2.17 1.04 1.04 0 00-.51-.9 1.23 1.23 0 00-1.09.15l-.85.5a5.02 5.02 0 00-1.71 1.8 4.85 4.85 0 00-.7 2.38l.02 7.4-8.07 4.66a5.02 5.02 0 00-1.7 1.81 4.86 4.86 0 00-.7 2.38 2.03 2.03 0 00.3 1.19l.16-.2-.16.2a5.18 5.18 0 00-.41.62 4.56 4.56 0 00-.72 2.34zm1.58-3.52zm17.28-1.12zm1.35 1.32l-.06-12.03 2.41-1.4.03 12.06zm-.44-.3c.02-.03.02-.06.05-.08-.03.02-.03.05-.05.07zm-18.24 4.47a4.74 4.74 0 011.7-1.79l-.8.47a.58.58 0 01-.57.05.53.53 0 01-.23-.52 1.74 1.74 0 01.8-1.4l.8-.46 2.4-1.4.8-.47a1.8 1.8 0 00.8-1.4c0-.51-.35-.72-.8-.46l-.8.46-2.4 1.4a.58.58 0 01-.57.05.53.53 0 01-.23-.51 1.74 1.74 0 01.8-1.4l8.87-5.13a1.8 1.8 0 00.8-1.4l-.02-8.33a1.74 1.74 0 01.8-1.4l.85-.49a13.07 13.07 0 00.44 2.46 6.53 6.53 0 001.3 2.61 12.41 12.41 0 011.73 2.64c.29.6.5 1.04.57 1.24l.03 10.04-.34.47c-.39.54-.9 1.24-1.45 1.86a9.72 9.72 0 01-1 1.04 3.34 3.34 0 01-.45.33l-10.48 6.06a.58.58 0 01-.57.05.53.53 0 01-.23-.52 1.74 1.74 0 01.8-1.4l1.6-.93a1.8 1.8 0 00.8-1.4c0-.52-.36-.72-.8-.47l-1.6.94-1.6.93a.58.58 0 01-.57.05.53.53 0 01-.23-.52 1.74 1.74 0 01.8-1.4l3.23-1.86a1.8 1.8 0 00.8-1.4c0-.52-.36-.72-.8-.47l-3.23 1.87a5.85 5.85 0 00-1.75 1.91zm4.91-6.26zm-.62 1.09c-.03.02-.05.05-.08.05.03 0 .06-.03.08-.05z" data-name="路径 95505"/></g><g data-name="组 88737"><path fill="#e3e5ff" d="M87.45 116.27a2.98 2.98 0 00-1.34 2.33l.02 7.94c0 .85.63 1.19 1.35.78l6.9-3.99a2.97 2.97 0 001.35-2.33l-.02-7.94c0-.86-.62-1.2-1.35-.78z" data-name="路径 95506"/></g><g data-name="组 88738"><path fill="#e3e5ff" d="M149.7 122.09a5.77 5.77 0 00-2.6 4.53l.04 15.47c0 1.66 1.2 2.33 2.64 1.5l13.46-7.79a5.77 5.77 0 002.61-4.53l-.05-15.47c0-1.65-1.2-2.33-2.64-1.5z" data-name="路径 95507"/></g><g data-name="组 88744"><g data-name="组 88740"><path fill="#f2cb63" d="M383.01 199.94c-1.3.65-2.64 1.27-3.9 2.02a10.01 10.01 0 014.26 7.38c1.2-.75 2.46-1.35 3.73-2a10.13 10.13 0 00-4.09-7.4z" data-name="路径 95508"/><path fill="#e3b63d" d="M383.35 209.34v.23l-.08 26.42a3.1 3.1 0 01-1.3 2.87l3.7-2.15a3.11 3.11 0 001.3-2.87l.08-26.42v-.07c-1.24.64-2.51 1.24-3.7 1.99z" data-name="路径 95509"/><path fill="#ffe291" d="M382.62 199.71l-23-13.27a3.16 3.16 0 00-3.18-.31l-3.7 2.15a3.16 3.16 0 013.18.3l23 13.28a.46.46 0 01.18.13c1.27-.75 2.62-1.37 3.91-2.02a1.68 1.68 0 00-.39-.26z" data-name="路径 95510"/><g data-name="组 88739"><path fill="#ffcd45" d="M378.9 201.86a9.74 9.74 0 014.45 7.74l-.08 26.41c0 2.85-2.02 3.99-4.5 2.57l-23-13.3a9.74 9.74 0 01-4.45-7.74l.08-26.42c0-2.84 2.02-3.98 4.5-2.56z" data-name="路径 95511"/></g></g><g data-name="组 88743"><g data-name="组 88741"><path fill="#fff" d="M368.03 209.08a1.7 1.7 0 00-.75-1.3c-.41-.23-.75-.05-.75.42v4.83c-.85-.15-1.5.44-1.5 1.56a4.99 4.99 0 001.47 3.26v1.43a1.7 1.7 0 00.75 1.29c.42.23.75.05.75-.41v-1.43c.86.16 1.5-.44 1.5-1.55a4.99 4.99 0 00-1.47-3.26zm-.75 7.68a1.62 1.62 0 01-.75-1.3c0-.46.34-.67.75-.4a1.62 1.62 0 01.75 1.29c0 .44-.34.65-.75.41z" data-name="路径 95512"/></g><g data-name="组 88742"><path fill="#fff" d="M375.64 214.3l1.11-.64a.54.54 0 00.2-.47 1.54 1.54 0 00-.2-.72l-2.1-3.62a1.5 1.5 0 00-.52-.55.54.54 0 00-.51-.05l-1.2.7a20.94 20.94 0 00-2.87-2.97v-1.14l.75.44c.42.23.75.05.75-.44a1.61 1.61 0 00-.75-1.27l-1.5-.85-2.97-1.71-1.5-.86c-.42-.23-.75-.05-.75.42a1.7 1.7 0 00.75 1.3l.75.43v1.14a7.14 7.14 0 00-2.87-.33l-1.2-2.07a1.5 1.5 0 00-.51-.55.54.54 0 00-.52-.05l-2.1 1.22a.54.54 0 00-.2.46 1.54 1.54 0 00.2.73l1.11 1.91a8.26 8.26 0 00-1.7 5.44c0 6.36 4.5 14.12 10.04 17.3s10.03.6 10.06-5.74a20.59 20.59 0 00-1.75-7.45zm-1.53-3.95l1.06 1.8-.46.27a20.49 20.49 0 00-1.09-1.79zm-7.55-7.25l1.5.86v.85l-1.5-.85zm-6.1-.62l.48.86a5.33 5.33 0 00-1.08.54l-.47-.8zm6.82 23.24c-4.7-2.72-8.56-9.32-8.54-14.75a6.61 6.61 0 011.69-4.87l.05-.02c.05-.03.1-.1.15-.16 1.58-1.34 3.99-1.42 6.7.13a17.86 17.86 0 016.68 7.56.98.98 0 00.15.33c.03.03.03.06.06.08a16.52 16.52 0 011.65 6.78c-.05 5.43-3.88 7.63-8.59 4.92z" data-name="路径 95513"/></g></g></g><g data-name="组 88745"><path fill="#e3e5ff" d="M372.64 247.68a2.63 2.63 0 011.19 2.07l-.03 7.12c0 .77-.54 1.06-1.22.7L366.4 254a2.63 2.63 0 01-1.19-2.07l.03-7.12c0-.77.54-1.06 1.21-.7z" data-name="路径 95514"/></g><g data-name="组 88746"><path fill="#e3e5ff" d="M408.83 242.48a5.17 5.17 0 012.33 4.06l-.05 13.85c0 1.5-1.06 2.1-2.35 1.34l-12.06-6.96a5.17 5.17 0 01-2.33-4.06l.05-13.84c0-1.5 1.06-2.1 2.36-1.35z" data-name="路径 95515"/></g></svg>