<svg xmlns="http://www.w3.org/2000/svg" xmlns:xlink="http://www.w3.org/1999/xlink" width="80" height="80" viewBox="0 0 80 80">
  <defs>
    <clipPath id="clip-path">
      <circle id="Ellipse_257" data-name="Ellipse 257" cx="40" cy="40" r="40" transform="translate(8204 -242)" fill="#f88663"/>
    </clipPath>
  </defs>
  <g id="profile" transform="translate(-8204 136)">
    <circle id="Ellipse_260" data-name="Ellipse 260" cx="40" cy="40" r="40" transform="translate(8204 -136)" fill="#dce7f8"/>
    <g id="Mask_Group_27" data-name="Mask Group 27" transform="translate(0 106)" clip-path="url(#clip-path)">
      <g id="Group_84552" data-name="Group 84552" transform="translate(9 9)">
        <path id="Union_23" data-name="Union 23" d="M-6.336-1830.5c0-.034,0-.068.007-.1a1.5,1.5,0,0,1-.582-.266,28.36,28.36,0,0,1,.087-5.289c-.214.286-.445.59-.688.9h0c-1,1.256-2.174,2.536-2.958,2.75a.863.863,0,0,1-.229.029c-1.608,0-4.815-3.716-5.232-4.207-.832.507-1.3,1.4-2.16,1.9a1.08,1.08,0,0,1-.518.172c-.313,0-.469-.273-.354-.815a3.978,3.978,0,0,1,1.444-1.878,14.183,14.183,0,0,0,1.7-1.735c-.425-.238-.976-.643-.826-1.09.222-.667,1.283-.763,1.909-.121a2.05,2.05,0,0,1,.808-.381c.551-.119,1.454-.024,1.672.57a1.805,1.805,0,0,1,.086.454l1.6,2.433s2.048-3.39,2.989-5.27a4.868,4.868,0,0,1,.79-1.159,21.682,21.682,0,0,1-15.5-9.163c-.115.011-.234.016-.357.016-2.234,0-5.681-1.742-7.457-3.764-2.757-3.137-4.354-9.427-1-11.393q.22-.129.438-.234c-2.382-14.286,4.919-18.656,4.919-18.656l-1.823-.469,1.823-.336c-.44-.806.305-2.418.305-2.418l.738,1.544c1.948-4.632,11.147-8.528,25.718-5.371s21.555,16.788,20.951,21.151a8.4,8.4,0,0,1-1.808,4.252h0l-.01.012-.007.008-.011.013-.015.018,0,0a7.387,7.387,0,0,1-1.362,1.267l0,0-.013.009-.027.018h0a4.37,4.37,0,0,1-.5.311h-.585c-.259,3.472-.71,9.558-.758,10.6-.063,1.378,1.336,9.944-13.961,12.287,1.625,3.5,1.722,11.077,1.537,12.524a1.09,1.09,0,0,1-.3.662l.012.282a18.631,18.631,0,0,1-4.611.254,29.642,29.642,0,0,0-3.045.089c-.115.009-.23.014-.344.014A10.9,10.9,0,0,1-6.336-1830.5Z" transform="translate(8241 1659)" fill="#7b8da9"/>
      </g>
    </g>
  </g>
</svg>
