<svg xmlns="http://www.w3.org/2000/svg" width="28" height="28" viewBox="0 0 28 28">
    <defs>
        <style>
            .cls-1{fill:#dae1e5}.cls-2{fill:#808fa5}
        </style>
    </defs>
    <g id="re_icon_condition" transform="translate(-6820 4929)">
        <circle id="Ellipse_2024" cx="14" cy="14" r="14" class="cls-1" data-name="Ellipse 2024" transform="translate(6820 -4929)"/>
        <g id="foursquare-button" transform="translate(6826 -4923.576)">
            <g id="Group_84260" data-name="Group 84260" transform="translate(0 .576)">
                <path id="Path_88994" d="M88.357 76.885a.488.488 0 0 0-.374-.156.457.457 0 0 0-.364.156l-1.257 1.247a.493.493 0 0 0-.145.364.529.529 0 0 0 .145.374l4.229 4.239a.506.506 0 0 0 .312.146.145.145 0 0 0 .062.01.571.571 0 0 0 .384-.156l7.584-7.584a.553.553 0 0 0 0-.748l-1.247-1.247a.527.527 0 0 0-.748 0l-5.963 5.97z" class="cls-2" data-name="Path 88994" transform="translate(-83.08 -70.724)"/>
                <path id="Path_88995" d="M15.387 7.194l-6.431 6.431a1.359 1.359 0 0 1-1.029.426h-.291l-.062-.042a1.547 1.547 0 0 1-.7-.385L2.66 9.386a1.419 1.419 0 0 1-.436-1.039 1.363 1.363 0 0 1 .436-1.028l1.246-1.257a1.455 1.455 0 0 1 2.068.01l1.953 1.953 4.135-4.145-2.753-2.753a1.882 1.882 0 0 0-2.66 0l-6.1 6.1a1.881 1.881 0 0 0 0 2.66l6.1 6.1a1.817 1.817 0 0 0 1.335.551 1.784 1.784 0 0 0 1.325-.551l6.1-6.1a1.881 1.881 0 0 0 0-2.66z" class="cls-2" data-name="Path 88995" transform="translate(0 -.576)"/>
            </g>
        </g>
    </g>
</svg>
