<svg xmlns="http://www.w3.org/2000/svg" width="28" height="28" viewBox="0 0 28 28">
    <defs>
        <style>
            .cls-1{fill:#dae1e5}.cls-2{fill:#808fa5}
        </style>
    </defs>
    <g id="re_icon_skill" transform="translate(-872 -1605)">
        <circle id="Ellipse_2024" cx="14" cy="14" r="14" class="cls-1" data-name="Ellipse 2024" transform="translate(872 1605)"/>
        <g id="skills_1_" data-name="skills (1)" transform="translate(880 1610)">
            <g id="Group_84263" data-name="Group 84263">
                <g id="Group_84262" data-name="Group 84262">
                    <path id="Path_89003" d="M250.48 100.949l-.105.769a.387.387 0 0 0 .552.4l.7-.338.7.338a.387.387 0 0 0 .552-.4l-.105-.769.537-.56a.387.387 0 0 0-.211-.649l-.764-.138-.367-.684a.387.387 0 0 0-.683 0l-.367.684-.764.138a.387.387 0 0 0-.211.649zm.759-.618a.387.387 0 0 0 .273-.2l.114-.213.114.213a.387.387 0 0 0 .273.2l.237.043-.167.174a.387.387 0 0 0-.1.321l.033.239-.217-.1a.387.387 0 0 0-.337 0l-.217.1.033-.239a.388.388 0 0 0-.1-.321l-.167-.174z" class="cls-2" data-name="Path 89003" transform="translate(-243.741 -95.243)"/>
                    <path id="Path_89004" d="M160.661 115.416h1.8a.387.387 0 1 0 0-.775h-1.8a.387.387 0 1 0 0 .775z" class="cls-2" data-name="Path 89004" transform="translate(-157.328 -110.611)"/>
                    <path id="Path_89005" d="M160.661 159.5h1.8a.387.387 0 1 0 0-.775h-1.8a.387.387 0 1 0 0 .775z" class="cls-2" data-name="Path 89005" transform="translate(-157.328 -153.142)"/>
                    <path id="Path_89006" d="M250.481 215.458l-.105.769a.387.387 0 0 0 .552.4l.7-.338.7.338a.387.387 0 0 0 .552-.4l-.105-.769.537-.56a.387.387 0 0 0-.211-.649l-.764-.138-.367-.684a.387.387 0 0 0-.683 0l-.367.684-.764.138a.387.387 0 0 0-.211.649zm.759-.618a.387.387 0 0 0 .273-.2l.114-.213.114.213a.388.388 0 0 0 .273.2l.237.043-.167.174a.388.388 0 0 0-.1.321l.033.239-.217-.1a.387.387 0 0 0-.337 0l-.217.1.033-.239a.388.388 0 0 0-.1-.321l-.167-.174z" class="cls-2" data-name="Path 89006" transform="translate(-243.741 -205.726)"/>
                    <path id="Path_89007" d="M160.661 229.929h1.8a.387.387 0 1 0 0-.775h-1.8a.387.387 0 1 0 0 .775z" class="cls-2" data-name="Path 89007" transform="translate(-157.328 -221.098)"/>
                    <path id="Path_89008" d="M160.661 274.009h1.8a.387.387 0 1 0 0-.775h-1.8a.387.387 0 1 0 0 .775z" class="cls-2" data-name="Path 89008" transform="translate(-157.328 -263.628)"/>
                    <path id="Path_89009" d="M250.479 329.971l-.105.769a.387.387 0 0 0 .552.4l.7-.338.7.338a.387.387 0 0 0 .552-.4l-.105-.769.537-.56a.387.387 0 0 0-.211-.649l-.764-.138-.367-.684a.387.387 0 0 0-.683 0l-.367.684-.764.138a.387.387 0 0 0-.211.649zm.759-.618a.387.387 0 0 0 .273-.2l.114-.213.114.213a.387.387 0 0 0 .273.2l.237.043-.167.174a.387.387 0 0 0-.1.321l.033.239-.217-.1a.387.387 0 0 0-.337 0l-.217.1.033-.239a.388.388 0 0 0-.1-.321l-.177-.17z" class="cls-2" data-name="Path 89009" transform="translate(-243.74 -316.213)"/>
                    <path id="Path_89010" d="M160.661 344.441h1.8a.387.387 0 1 0 0-.775h-1.8a.387.387 0 1 0 0 .775z" class="cls-2" data-name="Path 89010" transform="translate(-157.328 -331.584)"/>
                    <path id="Path_89011" d="M160.661 388.521h1.8a.387.387 0 0 0 0-.775h-1.8a.387.387 0 1 0 0 .775z" class="cls-2" data-name="Path 89011" transform="translate(-157.328 -374.114)"/>
                    <path id="Path_89012" d="M88.707.581h-2.728V.387A.387.387 0 0 0 85.591 0h-5.617a.387.387 0 0 0-.387.387v.194h-2.729a.387.387 0 0 0-.387.387v16.645a.387.387 0 0 0 .387.387h11.849a.387.387 0 0 0 .387-.387V.969a.387.387 0 0 0-.387-.388zm-8.346.194H85.2v1.356h-4.839zm6.409 2.131v12.77H78.8V2.906zm1.55 14.319H77.246V1.356h2.34v.775h-1.178a.387.387 0 0 0-.387.387v13.545a.387.387 0 0 0 .387.387h8.749a.387.387 0 0 0 .387-.387V2.518a.387.387 0 0 0-.387-.387h-1.178v-.775h2.34v15.869z" class="cls-2" data-name="Path 89012" transform="translate(-76.471)"/>
                </g>
            </g>
        </g>
    </g>
</svg>
