<svg xmlns="http://www.w3.org/2000/svg" width="28" height="28" viewBox="0 0 28 28">
    <defs>
        <style>
            .cls-1{fill:#fce1d8}.cls-2{fill:#f88663}
        </style>
    </defs>
    <g id="re_icon_video" transform="translate(-872 -1765)">
        <circle id="Ellipse_2024" cx="14" cy="14" r="14" class="cls-1" data-name="Ellipse 2024" transform="translate(872 1765)"/>
        <path id="film_2_" d="M15.855 0H.479A.478.478 0 0 0 0 .479v12.678a.478.478 0 0 0 .479.479h15.376a.478.478 0 0 0 .479-.479V.479A.478.478 0 0 0 15.855 0zM6.142 8.424V5.212a.614.614 0 0 1 .342-.547.678.678 0 0 1 .674.035L9.9 6.3a.48.48 0 0 1 .04.026.6.6 0 0 1 0 .986.48.48 0 0 1-.04.026l-2.738 1.6a.679.679 0 0 1-.674.035.614.614 0 0 1-.342-.547zm5.095-6.634V.957h1.606v.833zm-.957 0H8.674V.957h1.606zm-2.563 0H6.111V.957h1.606zm-2.563 0H3.548V.957h1.606zm0 10.056v.833H3.548v-.833zm.957 0h1.606v.833H6.111zm2.563 0h1.606v.833H8.674zm2.563 0h1.606v.833h-1.606zM15.376 1.79H13.8V.957h1.577zM2.591.957v.833H.957V.957zM.957 11.846h1.634v.833H.957zm12.842.833v-.833h1.577v.833zm0 0" class="cls-2" data-name="film (2)" transform="translate(877.833 1772)"/>
    </g>
</svg>
