<svg xmlns="http://www.w3.org/2000/svg" width="28" height="28" viewBox="0 0 28 28">
    <defs>
        <style>
            .cls-1{fill:#dae1e5}.cls-2{fill:#808fa5}
        </style>
    </defs>
    <g id="re_icon_reference" transform="translate(-7023 4673)">
        <circle id="Ellipse_2024" cx="14" cy="14" r="14" class="cls-1" data-name="Ellipse 2024" transform="translate(7023 -4673)"/>
        <path id="Path_88610" d="M34.281 61.641A1.641 1.641 0 1 1 32.641 60a1.641 1.641 0 0 1 1.64 1.641zm0 0" class="cls-2" data-name="Path 88610" transform="translate(6997.797 -4722.063)"/>
        <path id="Path_88613" d="M4.966 181.118A2.723 2.723 0 0 0 2.771 180 2.766 2.766 0 0 0 0 182.734v1.641h3.865a5.416 5.416 0 0 1 1.101-3.257zm0 0" class="cls-2" data-name="Path 88613" transform="translate(7027.667 -4837.688)"/>
        <path id="Path_88608" d="M186.469 2.734A2.734 2.734 0 1 1 183.734 0a2.734 2.734 0 0 1 2.735 2.734zm0 0" class="cls-2" data-name="Path 88608" transform="translate(6853.266 -4664.25)"/>
        <path id="Path_88609" d="M136 184.375h8.75a4.375 4.375 0 0 0-8.75 0zm0 0" class="cls-2" data-name="Path 88609" transform="translate(6896.625 -4837.688)"/>
        <path id="Path_88611" d="M394.281 61.641a1.641 1.641 0 1 1-1.64-1.641 1.641 1.641 0 0 1 1.64 1.641zm0 0" class="cls-2" data-name="Path 88611" transform="translate(6650.922 -4722.063)"/>
        <path id="Path_88612" d="M377.981 180a2.723 2.723 0 0 0-2.2 1.118 5.416 5.416 0 0 1 1.1 3.257h3.865v-1.641a2.766 2.766 0 0 0-2.765-2.734zm0 0" class="cls-2" data-name="Path 88612" transform="translate(6665.583 -4837.688)"/>
    </g>
</svg>
