<svg xmlns="http://www.w3.org/2000/svg" width="28" height="28" viewBox="0 0 28 28">
    <defs>
        <style>
            .cls-1{fill:#dae1e5}.cls-2{fill:#808fa5}
        </style>
    </defs>
    <g id="re_icon_education" transform="translate(-6820 4929)">
        <circle id="Ellipse_2024" cx="14" cy="14" r="14" class="cls-1" data-name="Ellipse 2024" transform="translate(6820 -4929)"/>
        <g id="college-graduation" transform="translate(6826 -4958.648)">
            <g id="Layer_5_59_" transform="translate(0 36.648)">
                <g id="Group_84259" data-name="Group 84259">
                    <path id="Path_88991" d="M54.6 205.222a2.082 2.082 0 0 1-2.054 0l-4.646-2.851s-.42-.257-.42.325v2.847c0 1.5 2.729 3.117 6.1 3.117s6.1-1.617 6.1-3.117v-3.008c0-.468-.3-.239-.3-.239z" class="cls-2" data-name="Path 88991" transform="translate(-45.578 -195.6)"/>
                    <path id="Path_88992" d="M15.732 41.151a.43.43 0 0 0 0-.8L8.65 36.812a1.366 1.366 0 0 0-1.3 0L.268 40.354a.43.43 0 0 0 0 .8l7.082 4.34a1.366 1.366 0 0 0 1.3 0" class="cls-2" data-name="Path 88992" transform="translate(0 -36.648)"/>
                    <path id="Path_88993" d="M356.989 190.641v-4.8s0-.227-.132-.152a3.92 3.92 0 0 0-.467.289.4.4 0 0 0-.084.3v4.356a.128.128 0 0 1-.078.106.829.829 0 1 0 .836 0 .123.123 0 0 1-.075-.099z" class="cls-2" data-name="Path 88993" transform="translate(-341.549 -179.7)"/>
                </g>
            </g>
        </g>
    </g>
</svg>
