<svg xmlns="http://www.w3.org/2000/svg" width="80" height="80"><g transform="translate(7 6.89)"><circle cx="19.59" cy="19.59" r="19.59" fill="#fee9ee" data-name="Ellipse 240" transform="translate(18.56 23.8)"/><circle cx="8.25" cy="8.25" r="8.25" fill="#d3ebfc" data-name="Ellipse 241" transform="translate(10.31 7.3)"/><g fill="#808fa5" data-name="Group 83476"><path d="M6.19 44.43H4.12v-13.4a3.07 3.07 0 0 1 .91-2.2 3.17 3.17 0 0 1 4.38 0 3.07 3.07 0 0 1 .9 2.2v8.24H8.25v-8.25a1.02 1.02 0 0 0-.3-.73 1.05 1.05 0 0 0-1.46 0 1.02 1.02 0 0 0-.3.73z" data-name="Path 89886"/><path d="M14.44 39.27h-2.06V28.96a1.02 1.02 0 0 0-.3-.73 1.05 1.05 0 0 0-1.46 0 1.02 1.02 0 0 0-.3.73v10.31H8.25V28.96a3.07 3.07 0 0 1 .9-2.19 3.17 3.17 0 0 1 4.38 0 3.07 3.07 0 0 1 .9 2.19z" data-name="Path 89887"/><path d="M18.56 39.27H16.5v-8.25a1.02 1.02 0 0 0-.3-.73 1.05 1.05 0 0 0-1.46 0 1.02 1.02 0 0 0-.3.73v8.25h-2.07v-8.25a3.07 3.07 0 0 1 .91-2.19 3.17 3.17 0 0 1 4.38 0 3.07 3.07 0 0 1 .9 2.2z" data-name="Path 89888"/><path d="M19.6 57.83h-2.07v-3.28l3.1-8.25V33.08a1.02 1.02 0 0 0-.3-.72 1.05 1.05 0 0 0-1.46 0 1.02 1.02 0 0 0-.3.72v6.2H16.5v-6.2a3.07 3.07 0 0 1 .9-2.18 3.17 3.17 0 0 1 4.38 0 3.07 3.07 0 0 1 .9 2.19v13.59l-3.09 8.25z" data-name="Path 89889"/><path d="M7.22 57.84H5.16v-2.68C4 53.93 0 49.4 0 45.48V40.3a3.08 3.08 0 0 1 .9-2.18 3.17 3.17 0 0 1 4.38 0 3.07 3.07 0 0 1 .9 2.18H4.14a1.02 1.02 0 0 0-.3-.72 1.05 1.05 0 0 0-1.46 0 1.02 1.02 0 0 0-.3.72v5.18c0 3.02 3.5 7.18 4.85 8.53l.3.3z" data-name="Path 89890"/><path d="M20.63 66.08h-2.07v-7.22H6.2v7.22H4.12v-7.22A2.06 2.06 0 0 1 6.2 56.8h12.37a2.06 2.06 0 0 1 2.06 2.07z" data-name="Path 89891"/><path d="M8.25 60.93h2.06v2.06H8.25z" data-name="Rectangle 23810"/><path d="M49.5 36.18h-2.06v-13.4a3.08 3.08 0 0 1 .9-2.2 3.17 3.17 0 0 1 4.38 0 3.08 3.08 0 0 1 .9 2.2v8.24h-2.06v-8.25a1.02 1.02 0 0 0-.3-.73 1.05 1.05 0 0 0-1.45 0 1.02 1.02 0 0 0-.3.73z" data-name="Path 89892"/><path d="M57.75 31.02h-2.06V20.71a1.02 1.02 0 0 0-.3-.73 1.05 1.05 0 0 0-1.46 0 1.02 1.02 0 0 0-.3.73v10.31h-2.07V20.71a3.08 3.08 0 0 1 .9-2.19 3.17 3.17 0 0 1 4.38 0 3.08 3.08 0 0 1 .9 2.19z" data-name="Path 89893"/><path d="M61.88 31.02H59.8v-8.25a1.02 1.02 0 0 0-.3-.73 1.05 1.05 0 0 0-1.45 0 1.02 1.02 0 0 0-.3.73v8.25h-2.07v-8.25a3.08 3.08 0 0 1 .9-2.19 3.17 3.17 0 0 1 4.38 0 3.08 3.08 0 0 1 .9 2.2z" data-name="Path 89894"/><path d="M62.9 49.58h-2.06V46.3l3.1-8.25V24.83a1.02 1.02 0 0 0-.3-.73 1.05 1.05 0 0 0-1.46 0 1.02 1.02 0 0 0-.3.73v6.2h-2.07v-6.2a3.08 3.08 0 0 1 .9-2.18 3.17 3.17 0 0 1 4.38 0 3.08 3.08 0 0 1 .9 2.19v13.59l-3.08 8.25z" data-name="Path 89895"/><path d="M50.53 49.59h-2.06V46.9c-1.16-1.23-5.16-5.76-5.16-9.68v-5.18a3.08 3.08 0 0 1 .9-2.18 3.17 3.17 0 0 1 4.39 0 3.08 3.08 0 0 1 .9 2.18h-2.06a1.02 1.02 0 0 0-.3-.73 1.05 1.05 0 0 0-1.46 0 1.02 1.02 0 0 0-.3.73v5.18c0 3.02 3.5 7.18 4.86 8.53l.3.3z" data-name="Path 89896"/><path d="M63.94 66.08h-2.06V50.61H49.5v15.47h-2.06V50.61a2.06 2.06 0 0 1 2.06-2.06h12.38a2.06 2.06 0 0 1 2.06 2.07z" data-name="Path 89897"/><path d="M51.56 52.68h2.06v2.06h-2.06z" data-name="Rectangle 23811"/><path d="M26.81 18.65h-2.06V5.24a3.07 3.07 0 0 1 .9-2.19 3.17 3.17 0 0 1 4.38 0 3.07 3.07 0 0 1 .9 2.19v8.25h-2.06V5.24a1.02 1.02 0 0 0-.3-.73 1.05 1.05 0 0 0-1.45 0 1.02 1.02 0 0 0-.3.73z" data-name="Path 89898"/><path d="M35.06 13.5H33V3.17a1.02 1.02 0 0 0-.3-.73 1.05 1.05 0 0 0-1.46 0 1.02 1.02 0 0 0-.3.73v10.31h-2.06V3.18a3.07 3.07 0 0 1 .9-2.19 3.17 3.17 0 0 1 4.38 0 3.07 3.07 0 0 1 .9 2.19z" data-name="Path 89899"/><path d="M39.19 13.49h-2.06V5.24a1.02 1.02 0 0 0-.3-.73 1.05 1.05 0 0 0-1.46 0 1.02 1.02 0 0 0-.3.73v8.25H33V5.24a3.08 3.08 0 0 1 .9-2.19 3.17 3.17 0 0 1 4.38 0 3.08 3.08 0 0 1 .9 2.19z" data-name="Path 89900"/><path d="M40.22 32.05h-2.06v-3.28l3.1-8.25V7.3a1.02 1.02 0 0 0-.3-.73 1.05 1.05 0 0 0-1.47 0 1.02 1.02 0 0 0-.3.73v6.2h-2.06V7.3a3.08 3.08 0 0 1 .9-2.18 3.17 3.17 0 0 1 4.38 0 3.08 3.08 0 0 1 .9 2.18v13.6l-3.1 8.25z" data-name="Path 89901"/><path d="M27.84 32.05h-2.06v-2.67c-1.15-1.24-5.15-5.76-5.15-9.68v-5.18a3.07 3.07 0 0 1 .9-2.18 3.17 3.17 0 0 1 4.38 0 3.07 3.07 0 0 1 .9 2.18h-2.06a1.02 1.02 0 0 0-.3-.73 1.05 1.05 0 0 0-1.46 0 1.02 1.02 0 0 0-.3.73v5.18c0 3.02 3.5 7.18 4.86 8.53l.3.3z" data-name="Path 89902"/><path d="M41.25 66.08h-2.06v-33H26.8v33h-2.06v-33a2.06 2.06 0 0 1 2.06-2.06H39.2a2.06 2.06 0 0 1 2.06 2.06z" data-name="Path 89903"/><path d="M28.88 35.15h2.06v2.06h-2.07z" data-name="Rectangle 23812"/></g></g></svg>