<svg xmlns="http://www.w3.org/2000/svg" width="80" height="80"><g transform="translate(3 6)"><circle cx="19.91" cy="19.91" r="19.91" fill="#fee9ee" data-name="Ellipse 238" transform="translate(11.33 8.38)"/><circle cx="8.38" cy="8.38" r="8.38" fill="#d3ebfc" data-name="Ellipse 239" transform="translate(46.95 49.24)"/><g fill="#808fa5" data-name="Group 83475"><path d="M43.81 30.38h2.1v2.1h-2.1z" data-name="Rectangle 23803"/><path d="M48 30.38h2.1v2.1H48z" data-name="Rectangle 23804"/><path d="M52.19 30.38h2.1v2.1h-2.1z" data-name="Rectangle 23805"/><path d="M70 45.05H28.1v-2.1h39.8V2.1H28.1V0H70z" data-name="Path 89876"/><path d="M28.1 38.76h37.7v2.1H28.1z" data-name="Rectangle 23806"/><path d="M65.8 36.67H28.1v-2.1H63.7V6.29H28.1v-2.1h37.72z" data-name="Path 89877"/><path d="M49.05 57.62a5.24 5.24 0 1 1 5.24-5.24 5.24 5.24 0 0 1-5.24 5.24zm0-8.38a3.14 3.14 0 1 0 3.14 3.14 3.15 3.15 0 0 0-3.14-3.14z" data-name="Path 89878"/><path d="M57.43 67.05h-2.1V63.9a2.1 2.1 0 0 0-2.1-2.1h-8.37a2.1 2.1 0 0 0-2.1 2.1v3.15h-2.1V63.9a4.2 4.2 0 0 1 4.2-4.19h8.38a4.2 4.2 0 0 1 4.19 4.2z" data-name="Path 89879"/><path d="M36.48 57.62a5.24 5.24 0 1 1 5.23-5.24 5.24 5.24 0 0 1-5.23 5.24zm0-8.38a3.14 3.14 0 1 0 3.14 3.14 3.15 3.15 0 0 0-3.14-3.14z" data-name="Path 89880"/><path d="M30.2 67.05h-2.1V63.9a4.2 4.2 0 0 1 4.18-4.19h6.3v2.1h-6.3a2.1 2.1 0 0 0-2.1 2.1z" data-name="Path 89881"/><path d="M61.62 57.62a5.24 5.24 0 1 1 5.24-5.24 5.24 5.24 0 0 1-5.24 5.24zm0-8.38a3.14 3.14 0 1 0 3.14 3.14 3.15 3.15 0 0 0-3.14-3.14z" data-name="Path 89882"/><path d="M70 67.05h-2.1V63.9a2.1 2.1 0 0 0-2.1-2.1h-6.28v-2.09h6.29a4.2 4.2 0 0 1 4.19 4.2z" data-name="Path 89883"/><path d="M17.62 14.67a7.33 7.33 0 1 1 7.33-7.34 7.34 7.34 0 0 1-7.33 7.34zm0-12.57a5.24 5.24 0 1 0 5.24 5.23 5.24 5.24 0 0 0-5.24-5.23z" data-name="Path 89884"/><path d="M9.24 38.76h2.1v28.3h-2.1z" data-name="Rectangle 23807"/><path d="M16.57 45.05h2.1v22h-2.1z" data-name="Rectangle 23808"/><path d="M26 67.05h-2.1V22h20.96v-3.14h-22.1a5.24 5.24 0 0 1-10.27 0h-1.16A5.25 5.25 0 0 0 6.1 24.1v16.77h4.19v2.1H4V24.1a7.34 7.34 0 0 1 7.33-7.34h3.15v1.05a3.14 3.14 0 0 0 6.28 0v-1.05h26.2v7.34H26z" data-name="Path 89885"/><path d="M16.57 25.14h2.1v2.1h-2.1z" data-name="Rectangle 23809"/></g></g></svg>