<svg xmlns="http://www.w3.org/2000/svg" width="48" height="48"><g data-name="Group 86848" opacity=".6"><path fill="#fff" d="M.7 4.7v31.5h17l6.3 6.3 6.3-6.3h17V4.7z" data-name="Path 51020"/><g fill="#d8d7da" data-name="Group 10090"><path d="M27.03 10.24l2.56 7.86h8.27l.14.43-6.7 4.86 2.56 7.87-.36.26-6.69-4.86-6.69 4.86-.36-.26 2.55-7.87-6.69-4.86.14-.42h8.27l2.56-7.87z" data-name="Path 51021"/><path d="M6.23 7.52h5.04v5.04H6.23z" data-name="Rectangle 9643"/><path d="M.7 4.7h3.75v31.5H.7z" data-name="Rectangle 9644"/><path d="M21.46 36.2H17.7L24 42.5l1.87-1.88z" data-name="Path 51022"/></g><path fill="#ffb655" d="M3.42 7.52h5.04v5.04H3.42z" data-name="Rectangle 9645"/><path fill="#ff7956" d="M3.42 7.52h2.81v5.04h-2.8z" data-name="Rectangle 9646"/><path fill="#ffb655" d="M24.22 10.24l2.56 7.86h8.27l.14.43-6.7 4.86 2.56 7.86-.36.27-6.7-4.87-6.68 4.87-.36-.27 2.55-7.86-6.7-4.87.15-.42h8.27l2.56-7.87z" data-name="Path 51023"/><g fill="#ff7956" data-name="Group 10091"><path d="M25.4 13.88l-1.18-3.64h-.44l-2.56 7.87h2.82z" data-name="Path 51024"/><path d="M26.81 26.66l-1.4 1.02 5.28 3.84.36-.26-.64-1.99z" data-name="Path 51025"/><path d="M22.32 23.4l-6.7-4.87.14-.42h-2.8l-.15.42 6.7 4.86-2.56 7.87.36.26 3.1-2.25z" data-name="Path 51026"/></g><g fill="#1d1d1f" data-name="Group 10092"><path d="M43.55 6.81h1.4v1.41h-1.4z" data-name="Rectangle 9647"/><path d="M41.2 6.81h1.41v1.41h-1.4z" data-name="Rectangle 9648"/><path d="M25.37 6.81h14.9v1.41h-14.9z" data-name="Rectangle 9649"/><path d="M2.77 25.7h1.4V34h-1.4z" data-name="Rectangle 9650"/><path d="M40.97 32.65h1.4v1.4h-1.4z" data-name="Rectangle 9651"/><path d="M38.63 32.65h1.4v1.4h-1.4z" data-name="Rectangle 9652"/><path d="M43.31 32.65h1.41v1.4h-1.4z" data-name="Rectangle 9653"/><path d="M9.17 6.81H2.72v6.45h6.45zm-1.4 5.05H4.11V8.22h3.64z" data-name="Path 51027"/><path d="M0 4v32.9h17.41L24 43.49l6.58-6.59H48V4zm46.6 31.5H30l-6 6-6-6H1.4V5.4h45.2z" data-name="Path 51028"/></g><g fill="#fff" data-name="Group 10093"><path d="M28.76 19.5h1.41v1.4h-1.4z" data-name="Rectangle 9654"/><path d="M26.42 19.5h1.41v1.4h-1.41z" data-name="Rectangle 9655"/><path d="M22.35 19.5h3.13v1.4h-3.13z" data-name="Rectangle 9656"/></g><path fill="#1d1d1f" d="M16.12 31.53l1.19.86L24 27.53l6.7 4.86 1.18-.86-2.56-7.87 6.7-4.86-.46-1.4H27.3l-2.56-7.87h-1.46L20.7 17.4h-8.27l-.45 1.4 6.69 4.86zM14.4 18.8h7.34L24 11.83l2.27 6.98h7.34l-5.94 4.31 2.27 6.98L24 25.8l-5.94 4.31 2.27-6.98z" data-name="Path 51029"/></g></svg>