<svg xmlns="http://www.w3.org/2000/svg" width="120" height="120" viewBox="0 0 120 120">
  <g id="resume_unverified_active" transform="translate(-1097 -647)">
    <circle id="Ellipse_1978" data-name="Ellipse 1978" cx="60" cy="60" r="60" transform="translate(1097 647)" fill="#fbfbfb" opacity="0"/>
    <g id="Group_82501" data-name="Group 82501" transform="translate(1117 654.2)">
      <g id="certificate" transform="translate(0 0)">
        <path id="Path_87373" data-name="Path 87373" d="M187.4,161.452l-30.857,13.99,24.942,55,13.43-11.352,17.347-2.558Z" transform="translate(-135.997 -128.681)" fill="#d62c1a"/>
        <path id="Path_87374" data-name="Path 87374" d="M97.99,164.209l30.857,13.99-24.942,55.08-13.43-11.432-17.427-2.558Z" transform="translate(-69.45 -130.878)" fill="#e74c3c"/>
        <path id="Path_87375" data-name="Path 87375" d="M135.265,40.046c0,2.958-4.237,5.436-4.876,8.234-.64,2.878,2.158,6.955.959,9.593-1.279,2.638-6.155,2.958-7.914,5.2s-.959,7.195-3.2,9.033-6.715-.08-9.273,1.2-3.917,6.075-6.715,6.715c-2.718.64-6-3.038-8.874-3.038s-6.155,3.677-8.874,3.038c-2.8-.64-4.157-5.436-6.715-6.715s-7.115.64-9.273-1.2c-2.238-1.839-1.439-6.8-3.2-9.033s-6.635-2.558-7.914-5.2c-1.2-2.558,1.6-6.715.959-9.593-.8-2.8-5.036-5.276-5.036-8.234s4.237-5.436,4.877-8.234c.64-2.878-2.158-6.955-.959-9.593,1.279-2.638,6.155-2.958,7.914-5.2s.959-7.195,3.2-9.033,6.715.08,9.273-1.2S83.542.714,86.34.075c2.718-.64,6,3.038,8.874,3.038s6.155-3.677,8.874-3.038c2.8.64,4.157,5.436,6.715,6.715s7.115-.64,9.273,1.2c2.238,1.839,1.439,6.8,3.2,9.033s6.635,2.558,7.914,5.2c1.2,2.558-1.6,6.715-.959,9.593C131.028,34.61,135.265,37.088,135.265,40.046Z" transform="translate(-55.323 0)" fill="#fff944"/>
        <path id="Path_87376" data-name="Path 87376" d="M139.241,55.507A28.779,28.779,0,1,0,168.02,84.286,28.761,28.761,0,0,0,139.241,55.507Zm0,52.761a23.982,23.982,0,1,1,23.982-23.982A23.95,23.95,0,0,1,139.241,108.268Z" transform="translate(-99.27 -44.24)" fill="#ebe63f"/>
      </g>
      <g id="Group_87149" data-name="Group 87149" transform="translate(7 -194.2)">
        <rect id="Rectangle_23637" data-name="Rectangle 23637" width="25.6" height="25.6" transform="translate(20 222)" fill="#dfd93b" opacity="0"/>
        <g id="resume_2_" data-name="resume (2)" transform="translate(23.4 223.2)">
          <path id="Path_87189" data-name="Path 87189" d="M208.2,129.468H193.8a1.8,1.8,0,0,1-1.8-1.8v-16.8a.6.6,0,0,1,.176-.424l3.6-3.6a.6.6,0,0,1,.424-.176h12a1.8,1.8,0,0,1,1.8,1.8v19.2A1.8,1.8,0,0,1,208.2,129.468Zm-15-18.352v16.552a.6.6,0,0,0,.6.6h14.4a.6.6,0,0,0,.6-.6v-19.2a.6.6,0,0,0-.6-.6H196.448Zm0,0" transform="translate(-192 -106.668)" fill="#dfd93b"/>
          <path id="Path_87190" data-name="Path 87190" d="M206.268,121.532h-3.6v-1.2h3v-3h1.2v3.6a.6.6,0,0,1-.6.6Zm0,0" transform="translate(-202.068 -116.732)" fill="#dfd93b"/>
          <path id="Path_87195" data-name="Path 87195" d="M301.668,208.668a3,3,0,1,1,3-3A3,3,0,0,1,301.668,208.668Zm0-4.8a1.8,1.8,0,1,0,1.8,1.8A1.8,1.8,0,0,0,301.668,203.868Zm0,0" transform="translate(-292.668 -197.268)" fill="#dfd93b"/>
          <path id="Path_87196" data-name="Path 87196" d="M275.668,295.2h-8.4a.6.6,0,0,1-.6-.6v-1.8a4.8,4.8,0,1,1,9.6,0v1.8A.6.6,0,0,1,275.668,295.2Zm-7.8-1.2h7.2v-1.2a3.6,3.6,0,1,0-7.2,0Zm0,0" transform="translate(-262.468 -277.8)" fill="#dfd93b"/>
          <path id="Path_87197" data-name="Path 87197" d="M266.668,437.332h7.2v1.2h-7.2Zm0,0" transform="translate(-262.468 -418.732)" fill="#dfd93b"/>
          <path id="Path_87198" data-name="Path 87198" d="M416,437.332h1.2v1.2H416Zm0,0" transform="translate(-403.4 -418.732)" fill="#dfd93b"/>
        </g>
      </g>
    </g>
  </g>
</svg>
