<svg xmlns="http://www.w3.org/2000/svg" width="207.443" height="279.7" viewBox="0 0 207.443 279.7">
  <g id="upload-video" transform="translate(-106.82 -110.3)" opacity="0.12">
    <g id="Group_89096" data-name="Group 89096" transform="translate(106.821 110.3)">
      <g id="Group_89092" data-name="Group 89092">
        <path id="Path_99620" data-name="Path 99620" d="M272.466,362.364A37.942,37.942,0,0,1,234.6,324.5V217.667A37.942,37.942,0,0,1,272.466,179.8h131.71a37.942,37.942,0,0,1,37.867,37.867V324.5a37.942,37.942,0,0,1-37.867,37.867Z" transform="translate(-234.6 -179.8)" fill="#fff"/>
        <path id="Path_99621" data-name="Path 99621" d="M244.7,316.039V209.208A19.2,19.2,0,0,1,263.908,190h131.71a19.2,19.2,0,0,1,19.208,19.208V316.039a19.2,19.2,0,0,1-19.208,19.208H263.908A19.2,19.2,0,0,1,244.7,316.039Z" transform="translate(-226.224 -171.341)" fill="#858585"/>
        <path id="Path_99622" data-name="Path 99622" d="M333.274,241.05l-50.306-29.086a4.528,4.528,0,0,0-6.768,3.842v57.989a4.436,4.436,0,0,0,6.768,3.842l50.306-29.086A4.3,4.3,0,0,0,333.274,241.05Z" transform="translate(-200.101 -153.61)" fill="#f3f3f3"/>
      </g>
      <g id="Group_89095" data-name="Group 89095" transform="translate(39.147 203.601)">
        <path id="Path_99630" data-name="Path 99630" d="M296.508,367.2h0A11.79,11.79,0,0,1,284.8,355.491V302.808A11.79,11.79,0,0,1,296.508,291.1h0a11.79,11.79,0,0,1,11.707,11.708v52.684A11.557,11.557,0,0,1,296.508,367.2Z" transform="translate(-232.116 -291.1)" fill="#aaa"/>
        <path id="Path_99631" data-name="Path 99631" d="M267.708,348.906h0A11.79,11.79,0,0,1,256,337.2V302.808A11.79,11.79,0,0,1,267.708,291.1h0a11.79,11.79,0,0,1,11.707,11.708V337.2A11.79,11.79,0,0,1,267.708,348.906Z" transform="translate(-256 -291.1)" fill="#aaa"/>
        <path id="Path_99632" data-name="Path 99632" d="M325.408,330.613h0A11.79,11.79,0,0,1,313.7,318.905v-16.1A11.79,11.79,0,0,1,325.408,291.1h0a11.79,11.79,0,0,1,11.707,11.708v16.1A11.557,11.557,0,0,1,325.408,330.613Z" transform="translate(-208.149 -291.1)" fill="#aaa"/>
      </g>
    </g>
  </g>
</svg>
