<svg xmlns="http://www.w3.org/2000/svg" width="201.1" height="295.778" viewBox="0 0 201.1 295.778">
  <g id="upload-img" transform="translate(-109.662 -94.222)" opacity="0.12">
    <g id="Group_89096" data-name="Group 89096" transform="translate(109.663 94.222)">
      <g id="Group_89093" data-name="Group 89093">
        <path id="Path_99623" data-name="Path 99623" d="M109.082,297.387A36.725,36.725,0,0,1,72.4,260.7V157.182A36.725,36.725,0,0,1,109.082,120.5H236.818A36.725,36.725,0,0,1,273.5,157.182V260.7a36.725,36.725,0,0,1-36.682,36.682H109.082Z" transform="translate(-72.4 -120.5)" fill="#fff"/>
        <path id="Path_99624" data-name="Path 99624" d="M84.9,255.126V151.6a18.749,18.749,0,0,1,18.7-18.7H231.339a18.749,18.749,0,0,1,18.7,18.7V255.126a18.749,18.749,0,0,1-18.7,18.7H103.459A18.719,18.719,0,0,1,84.9,255.126Z" transform="translate(-66.776 -114.921)" fill="#dedede"/>
        <path id="Path_99625" data-name="Path 99625" d="M133.761,166.3,84.9,230.1v10a18.749,18.749,0,0,0,18.7,18.7H199.3Z" transform="translate(-66.776 -99.895)" fill="#5e5e5e"/>
        <path id="Path_99626" data-name="Path 99626" d="M134.7,247.771h74.089a18.41,18.41,0,0,0,13.049-5.365L179.792,190.5Z" transform="translate(-44.372 -89.008)" fill="#aaa"/>
        <circle id="XMLID_1_" cx="15.369" cy="15.369" r="15.369" transform="translate(102.694 60.833) rotate(-45)" fill="#a7a7a7"/>
      </g>
      <g id="Group_89094" data-name="Group 89094" transform="translate(49.441 191.966)">
        <path id="Path_99627" data-name="Path 99627" d="M144.679,356.712h0a9.344,9.344,0,0,1-9.279-9.279V262.179a9.344,9.344,0,0,1,9.279-9.279h0a9.344,9.344,0,0,1,9.279,9.279v85.254A9.344,9.344,0,0,1,144.679,356.712Z" transform="translate(-93.498 -252.9)" fill="#aaa"/>
        <path id="Path_99628" data-name="Path 99628" d="M115.779,327.714h0a9.344,9.344,0,0,1-9.279-9.279V262.179a9.344,9.344,0,0,1,9.279-9.279h0a9.344,9.344,0,0,1,9.279,9.279v56.256A9.344,9.344,0,0,1,115.779,327.714Z" transform="translate(-106.5 -252.9)" fill="#aaa"/>
        <path id="Path_99629" data-name="Path 99629" d="M173.479,298.717h0a9.344,9.344,0,0,1-9.279-9.279V262.179a9.344,9.344,0,0,1,9.279-9.279h0a9.344,9.344,0,0,1,9.279,9.279v27.258A9.16,9.16,0,0,1,173.479,298.717Z" transform="translate(-80.541 -252.9)" fill="#aaa"/>
      </g>
    </g>
  </g>
</svg>
