<svg id="uranus" xmlns="http://www.w3.org/2000/svg" width="20" height="20.014" viewBox="0 0 20 20.014">
  <path id="Path_48687" data-name="Path 48687" d="M7.917,0A7.918,7.918,0,1,1,0,7.923,7.9,7.9,0,0,1,7.917,0Z" transform="translate(2.088 2.089)" fill="#5ac3ff"/>
  <path id="Path_47292" data-name="Path 47292" d="M6.306,14.118a6.919,6.919,0,0,1,.006-10,7.463,7.463,0,0,1,7.857-1.573c-.074-.078-.149-.155-.226-.231a8.347,8.347,0,0,0-11.547.007,7.749,7.749,0,0,0-.007,11.2,8.293,8.293,0,0,0,6.653,2.268A7.286,7.286,0,0,1,6.306,14.118Z" transform="translate(2.088 2.089)" fill="#46a2de"/>
  <path id="Path_47293" data-name="Path 47293" d="M0,.07,9.154,9.23a8.224,8.224,0,0,0,.018-1.993L1.992.052A8.207,8.207,0,0,0,0,.07Z" transform="translate(8.687 2.091)" fill="#7dd7ff"/>
  <path id="Path_47294" data-name="Path 47294" d="M2.331,2.4a7.308,7.308,0,0,1,1.726-.283L1.992.052A8.207,8.207,0,0,0,0,.07Z" transform="translate(8.91 2.091)" fill="#5ac3ff"/>
  <path id="Path_47295" data-name="Path 47295" d="M18.621,14.726c-.349-.595-.754-1.212-1.2-1.841a7.923,7.923,0,0,1-.331.741c.34.494.658.981.934,1.452,1.394,2.373,1.47,3.64,1.076,4.034s-1.66.319-4.031-1.076A43.627,43.627,0,0,1,1.977,4.936C.583,2.563.507,1.3.9.9A.92.92,0,0,1,1.567.7,7.513,7.513,0,0,1,4.933,1.978c.47.277.957.595,1.45.935a7.9,7.9,0,0,1,.741-.331c-.629-.447-1.246-.852-1.84-1.2C2.878-.035,1.193-.37.412.412s-.447,2.468.968,4.875A44.448,44.448,0,0,0,14.716,18.633a8.164,8.164,0,0,0,3.72,1.381,1.561,1.561,0,0,0,1.152-.412C20.369,18.82,20.035,17.134,18.621,14.726Z" transform="translate(0 0)" fill="#e4eaf8"/>
  <path id="Path_47296" data-name="Path 47296" d="M.049,0A8.228,8.228,0,0,0,0,.957L8.082,9.045A8.212,8.212,0,0,0,9.039,9Z" transform="translate(2.091 8.877)" fill="#7dd7ff"/>
  <g id="Group_38129" data-name="Group 38129" transform="translate(2.091 8.877)">
    <path id="Path_47297" data-name="Path 47297" d="M0,0,1.567,1.568a8.224,8.224,0,0,0,.955-.046A7.242,7.242,0,0,1,0,0Z" transform="translate(6.515 7.476)" fill="#5ac3ff"/>
    <path id="Path_47298" data-name="Path 47298" d="M0,.957l6.192,6.2a7.239,7.239,0,0,1-1.6-2.606L.049,0A8.212,8.212,0,0,0,0,.957Z" transform="translate(0 0)" fill="#5ac3ff"/>
  </g>
</svg>
