<svg xmlns="http://www.w3.org/2000/svg" width="204" height="118" viewBox="0 0 204 118">
  <g id="version-img" transform="translate(17160 -1481)">
    <path id="Subtraction_8" data-name="Subtraction 8" d="M171,52H145V30a4,4,0,0,0-4-4H90.349V4a4,4,0,0,1,4-4H171a4,4,0,0,1,4,4V48A4,4,0,0,1,171,52ZM82.791,26H45V4a4,4,0,0,1,4-4H78.79a4,4,0,0,1,4,4V26Z" transform="translate(-17167 1481)" fill="#75b9e7"/>
    <path id="Subtraction_9" data-name="Subtraction 9" d="M66,52H4a4,4,0,0,1-4-4V45a4,4,0,0,1,4-4H66V52Zm0-18H4a4,4,0,0,1-4-4V4A4,4,0,0,1,4,0H126a4,4,0,0,1,4,4V26H70a4,4,0,0,0-4,4v4Z" transform="translate(-17160 1514)" fill="#75b9e7"/>
    <path id="Union_149" data-name="Union 149" d="M96,51a4,4,0,0,1-4-4V44a4,4,0,0,1,4-4h30a4,4,0,0,1,4,4v3a4,4,0,0,1-4,4ZM50,51a4,4,0,0,1-4-4V44a4,4,0,0,1,4-4H80a4,4,0,0,1,4,4v3a4,4,0,0,1-4,4ZM4,51a4,4,0,0,1-4-4V44a4,4,0,0,1,4-4H33a4,4,0,0,1,4,4v3a4,4,0,0,1-4,4ZM96,33a4,4,0,0,1-4-4V4a4,4,0,0,1,4-4h30a4,4,0,0,1,4,4V29a4,4,0,0,1-4,4ZM50,33a4,4,0,0,1-4-4V4a4,4,0,0,1,4-4H80a4,4,0,0,1,4,4V29a4,4,0,0,1-4,4ZM4,33a4,4,0,0,1-4-4V4A4,4,0,0,1,4,0H33a4,4,0,0,1,4,4V29a4,4,0,0,1-4,4Z" transform="translate(-17086 1548)" fill="#75b9e7"/>
  </g>
</svg>
