<svg id="bouns" xmlns="http://www.w3.org/2000/svg" width="48" height="48" viewBox="0 0 48 48">
  <g id="Path_88357" data-name="Path 88357" opacity="0">
    <path id="Path_91593" data-name="Path 91593" d="M46.5,46.5H.5V.5h46Z" transform="translate(0.5 0.5)" fill="gray"/>
    <path id="Path_91594" data-name="Path 91594" d="M2,2V46H46V2H2M0,0H48V48H0Z" fill="#808fa5"/>
  </g>
  <g id="bar-chart" transform="translate(6.8 6.772)">
    <path id="Path_88630" data-name="Path 88630" d="M7.382,452.3a1.054,1.054,0,0,0-1.054-1.054H1.054A1.054,1.054,0,0,0,0,452.3v8.508a1.054,1.054,0,0,0,1.054,1.054H6.328a1.054,1.054,0,0,0,1.054-1.054Zm0,0" transform="translate(0 -425.84)" fill="gray"/>
    <path id="Path_88631" data-name="Path 88631" d="M176.328,338.75h-5.274A1.054,1.054,0,0,0,170,339.8V354.65a1.054,1.054,0,0,0,1.054,1.054h5.274a1.054,1.054,0,0,0,1.054-1.054V339.814a1.054,1.054,0,0,0-1.054-1.064Zm0,0" transform="translate(-160.438 -319.668)" fill="gray"/>
    <path id="Path_88632" data-name="Path 88632" d="M345.078,301.25H339.8a1.054,1.054,0,0,0-1.054,1.054V319.25A1.054,1.054,0,0,0,339.8,320.3h5.274a1.054,1.054,0,0,0,1.054-1.054V302.3A1.054,1.054,0,0,0,345.078,301.25Zm0,0" transform="translate(-319.696 -284.276)" fill="gray"/>
    <path id="Path_88633" data-name="Path 88633" d="M515.078,151.25H509.8a1.054,1.054,0,0,0-1.054,1.054v25.382a1.054,1.054,0,0,0,1.054,1.054h5.274a1.054,1.054,0,0,0,1.054-1.054V152.3A1.054,1.054,0,0,0,515.078,151.25Zm0,0" transform="translate(-480.132 -142.714)" fill="gray"/>
    <path id="Path_88634" data-name="Path 88634" d="M13.784,23.214a3.168,3.168,0,0,0,3.164-3.164,3.12,3.12,0,0,0-.13-.85l4.11-2.9a3.142,3.142,0,0,0,4.942-2.154l4.2-.886a3.156,3.156,0,0,0,5.618-2.836l5.048-4.486a3.126,3.126,0,0,0,1.518.4,3.176,3.176,0,1,0-2.928-1.972l-5.04,4.49a3.126,3.126,0,0,0-1.518-.4A3.158,3.158,0,0,0,29.646,11.2l-4.2.886a3.156,3.156,0,0,0-5.854,1.644,3.12,3.12,0,0,0,.13.85l-4.11,2.9a3.16,3.16,0,1,0-1.822,5.742Zm0,0" transform="translate(-10.022 0.014)" fill="gray"/>
  </g>
</svg>
