<svg xmlns="http://www.w3.org/2000/svg" width="48" height="48" viewBox="0 0 48 48">
  <g id="description" transform="translate(-846 -181)">
    <g id="message" transform="translate(852 187.934)">
      <path id="路径_99552" data-name="路径 99552" d="M34.79,1.261A4.061,4.061,0,0,0,31.9.066h0L4.083.084A4.09,4.09,0,0,0,0,4.172L.012,22.939A4.086,4.086,0,0,0,4.1,27.022h0l9.157-.006,3.711,6.134.007.012a1.081,1.081,0,0,0,.915.5h0a1.08,1.08,0,0,0,.915-.5l.007-.012,3.7-6.139,9.4-.006A4.085,4.085,0,0,0,36,22.917L35.989,4.15a4.059,4.059,0,0,0-1.2-2.888ZM31.916,25.788l-9.743.006a.609.609,0,0,0-.521.294L17.89,32.323l-3.77-6.231A.609.609,0,0,0,13.6,25.8L4.1,25.8h0a2.869,2.869,0,0,1-2.869-2.867L1.217,4.171A2.872,2.872,0,0,1,4.084,1.3L31.9,1.283h0A2.872,2.872,0,0,1,34.772,4.15l.012,18.767a2.872,2.872,0,0,1-2.867,2.871Zm0,0" transform="translate(0 0)"/>
      <path id="路径_99553" data-name="路径 99553" d="M95.341,196.313H73.175a.609.609,0,1,0,0,1.217H95.341a.609.609,0,0,0,0-1.217Zm0,0" transform="translate(-66.258 -179.187)"/>
      <path id="路径_99554" data-name="路径 99554" d="M95.341,146.313H73.175a.608.608,0,1,0,0,1.217H95.341a.608.608,0,0,0,0-1.217Zm0,0" transform="translate(-66.258 -133.534)"/>
      <path id="路径_99555" data-name="路径 99555" d="M95.341,96.313H73.175a.609.609,0,1,0,0,1.217H95.341a.609.609,0,0,0,0-1.217Zm0,0" transform="translate(-66.258 -87.88)"/>
    </g>
    <g id="矩形_24421" data-name="矩形 24421" transform="translate(846 181)" stroke="#707070" stroke-width="1" opacity="0">
      <rect width="48" height="48" stroke="none"/>
      <rect x="0.5" y="0.5" width="47" height="47" fill="none"/>
    </g>
  </g>
</svg>
