<svg xmlns="http://www.w3.org/2000/svg" width="48" height="48" viewBox="0 0 48 48">
  <g id="history" transform="translate(-1215 -1022.991)">
    <rect id="Rectangle_23912" data-name="Rectangle 23912" width="48" height="48" transform="translate(1215 1022.991)" fill="none" opacity="0"/>
    <g id="navigation-history-interface-symbol-of-a-clock-with-an-arrow" transform="translate(1219.8 1022.991)">
      <path id="Path_92048" data-name="Path 92048" d="M50.755,17.764A17.752,17.752,0,0,1,85.59,12.916a2.807,2.807,0,0,0-.736,1.557l-.194,1.55-.329,1.756H82.514a14,14,0,1,0-20.835,12.2l-2.737,2.737a17.752,17.752,0,0,1-8.188-14.955ZM68.507,6.607A1.883,1.883,0,0,0,66.624,8.49v9.274a1.883,1.883,0,0,0,1.883,1.883H79.17a1.883,1.883,0,0,0,0-3.766H70.4V8.5a1.883,1.883,0,0,0-1.883-1.883Zm19.609,8.3a.943.943,0,0,0-.895-.916.96.96,0,0,0-.981.823l-.2,1.6-.353,1.876a14.12,14.12,0,0,1-.576,2.053L84.7,21.6l-.6,1.315a12.007,12.007,0,0,1-.883,1.658c-.175.29-.35.585-.516.885q-.259.36-.511.72a15.309,15.309,0,0,1-1.423,1.8,16.794,16.794,0,0,1-1.679,1.727c-.182.17-.362.338-.542.509l-.595.458a17.033,17.033,0,0,1-2.008,1.415,14.079,14.079,0,0,1-1.842,1.024c-.261.13-.521.257-.772.389-.319.115-.631.24-.936.362a10.92,10.92,0,0,1-1.679.571l-1.245.345-1.223.209a10.774,10.774,0,0,1-1.7.2l-1,.077H65.41V30.85a.943.943,0,0,0-1.607-.667l-8.118,8.1a.943.943,0,0,0,0,1.331l8.1,8.1a.943.943,0,0,0,1.607-.667V42.459l1.734-.317a18.917,18.917,0,0,0,2.756-.72L71,41.048l1.847-.782a16.457,16.457,0,0,0,2.229-1.154c.3-.18.612-.36.928-.53.034-.019.067-.041.1-.062.24-.178.494-.35.746-.525a19.225,19.225,0,0,0,2.219-1.708,22.19,22.19,0,0,0,2.257-2.159l.509-.535.065-.072.461-.583a21.617,21.617,0,0,0,1.768-2.444,18.985,18.985,0,0,0,1.365-2.4c.137-.273.276-.545.415-.811a1.108,1.108,0,0,0,.05-.113c.125-.336.259-.665.391-.988A15,15,0,0,0,87.111,24l.434-1.545.24-1.358a16.2,16.2,0,0,0,.3-2.437l.091-1.228Z" transform="translate(-50.755 0.009)" fill="gray"/>
    </g>
  </g>
</svg>
