<svg xmlns="http://www.w3.org/2000/svg" width="48" height="48" viewBox="0 0 48 48">
  <g id="icon4" transform="translate(-875.16 -515.4)">
    <rect id="Rectangle_23841" data-name="Rectangle 23841" width="48" height="48" transform="translate(875.16 515.4)" fill="rgba(128,128,128,0)"/>
    <g id="gift">
      <path id="Path_948" data-name="Path 948" d="M881.16,531.9v-3a3,3,0,0,1,3-3h30a3,3,0,0,1,3,3v3Z" fill="gray"/>
      <g id="Group_762" data-name="Group 762">
        <path id="Path_949" data-name="Path 949" d="M897.66,534.9h-15v19.5a3,3,0,0,0,3,3h12Z" fill="gray"/>
        <path id="Path_950" data-name="Path 950" d="M900.66,534.9v22.5h12a3,3,0,0,0,3-3h0V534.9Z" fill="gray"/>
      </g>
      <path id="Path_91601" data-name="Path 91601" d="M902.16,528.4h-3a1,1,0,0,1-1-1v-3a4,4,0,1,1,4,4Zm-2-2h2a2,2,0,1,0-2-2Z" fill="gray"/>
      <path id="Path_91602" data-name="Path 91602" d="M899.16,528.4h-3a4,4,0,1,1,4-4v3A1,1,0,0,1,899.16,528.4Zm-3-6a2,2,0,0,0,0,4h2v-2A2,2,0,0,0,896.16,522.4Z" fill="gray"/>
    </g>
  </g>
</svg>
