<svg xmlns="http://www.w3.org/2000/svg" width="48" height="48" viewBox="0 0 48 48">
  <g id="icon1" transform="translate(3550 -15886)">
    <rect id="Rectangle_23837" data-name="Rectangle 23837" width="48" height="48" transform="translate(-3550 15886)" fill="gray" opacity="0"/>
    <g id="home" transform="translate(-3544 15892)">
      <circle id="Ellipse_88" data-name="Ellipse 88" cx="1.5" cy="1.5" r="1.5" transform="translate(33 13.5)" fill="gray"/>
      <circle id="Ellipse_89" data-name="Ellipse 89" cx="1.5" cy="1.5" r="1.5" transform="translate(16.5)" fill="gray"/>
      <circle id="Ellipse_90" data-name="Ellipse 90" cx="1.5" cy="1.5" r="1.5" transform="translate(0 13.5)" fill="gray"/>
      <path id="Path_979" data-name="Path 979" d="M26.5,14H22V6.5A1.5,1.5,0,0,1,23.5,5H25a1.5,1.5,0,0,1,1.5,1.5Z" transform="translate(6.5 -0.5)" fill="gray"/>
      <path id="Path_980" data-name="Path 980" d="M15,3.367v15H31.5l1.021-2.6-16.5-13.5Z" transform="translate(3 -1.867)" fill="gray"/>
      <path id="Path_981" data-name="Path 981" d="M19.824,2.267l-16.5,13.5,1.021,2.6h16.5v-15Z" transform="translate(-2.841 -1.867)" fill="gray"/>
      <path id="Path_982" data-name="Path 982" d="M5,12V30a3,3,0,0,0,3,3H32a3,3,0,0,0,3-3V12ZM30.5,28.5h-6v-12h6Z" transform="translate(-2 3)" fill="gray"/>
    </g>
  </g>
</svg>
