<svg xmlns="http://www.w3.org/2000/svg" width="48" height="48" viewBox="0 0 48 48">
  <g id="icon5" transform="translate(3612 -15901)">
    <rect id="Rectangle_23840" data-name="Rectangle 23840" width="48" height="48" transform="translate(-3612 15901)" fill="gray" opacity="0"/>
    <g id="user_group_man_woman" transform="translate(-3608 15909)">
      <path id="Path_1185" data-name="Path 1185" d="M20.865,27.059c-2.077-.728-4.229-.817-4.865-2.725V21.667a6.97,6.97,0,0,0,2.5-3.936,13.955,13.955,0,0,0,.189-2.031A22.806,22.806,0,0,1,19.7,7.9c-.364-1.811-1.315-3.336-3.353-3.537C15.8,3.457,14.407,3,12.589,3c-7.268.125-8.011,5.164-6.552,10.952a1.561,1.561,0,0,0-.632,1.6c.219,1.711.96,2.144,1.432,2.18a6.963,6.963,0,0,0,2.5,3.937v2.667C8,28.333,0,24.333,0,35H16A8.275,8.275,0,0,1,20.865,27.059Z" transform="translate(0 -3)" fill="gray"/>
      <g id="Group_781" data-name="Group 781" transform="translate(18.667 1.333)">
        <path id="Path_1186" data-name="Path 1186" d="M14,34.667c0-6.667,6.667-5.333,8-8.943v-1.7c-4.828,0-6.168-1.988-6.168-1.988,2.523-2.1-2.248-16.7,6.341-16.7A4.046,4.046,0,0,1,24.832,4c10.5,0,5.763,15.857,8.479,18.087,0,0-1.125,1.92-5.977,1.92v1.717c1.333,3.609,8,2.276,8,8.943Z" transform="translate(-14 -4)" fill="gray"/>
      </g>
    </g>
  </g>
</svg>
