<svg xmlns="http://www.w3.org/2000/svg" width="48" height="48" viewBox="0 0 48 48">
  <g id="icon_edit" transform="translate(-741 -391)">
    <g id="Rectangle_22840" data-name="Rectangle 22840" transform="translate(741 391)" fill="gray" stroke="#707070" stroke-width="1" opacity="0">
      <rect width="48" height="48" stroke="none"/>
      <rect x="0.5" y="0.5" width="47" height="47" fill="none"/>
    </g>
    <g id="pencil" transform="translate(747 397)">
      <g id="Group_81888" data-name="Group 81888" transform="translate(0 28.384)">
        <circle id="Ellipse_143" data-name="Ellipse 143" cx="0.989" cy="0.989" r="0.989" transform="translate(0 5.634)" fill="gray"/>
        <path id="Path_1079" data-name="Path 1079" d="M5.244,23.153,3.038,29.4l1.246,1.308,6.284-2.22Z" transform="translate(-2.963 -23.153)" fill="gray"/>
      </g>
      <path id="Path_1080" data-name="Path 1080" d="M25.769,11.076,27.4,9.444a2.307,2.307,0,0,0,0-3.263L24.9,3.676a2.307,2.307,0,0,0-3.263,0L20,5.307Z" transform="translate(7.923 -3.001)" fill="gray"/>
      <path id="Path_1081" data-name="Path 1081" d="M25.709,7,6,26.709l2.463.831.831,4.106,4.106.831.831,2.463L33.939,15.23Z" transform="translate(-2.538 -2.387)" fill="gray"/>
    </g>
  </g>
</svg>
