<svg xmlns="http://www.w3.org/2000/svg" width="48" height="48" viewBox="0 0 48 48">
  <g id="icon3" transform="translate(-995.16 -515.4)">
    <rect id="Rectangle_23839" data-name="Rectangle 23839" width="48" height="48" transform="translate(995.16 515.4)" fill="rgba(128,128,128,0)"/>
    <g id="browse_podcasts" data-name="browse podcasts">
      <circle id="Ellipse_40" data-name="Ellipse 40" cx="4.5" cy="4.5" r="4.5" transform="translate(1014.66 532.9)" fill="gray"/>
      <g id="Group_753" data-name="Group 753">
        <g id="Group_752" data-name="Group 752">
          <path id="Path_851" data-name="Path 851" d="M1023.611,550.049h-.016a4.4,4.4,0,0,0,.065-.649,4.5,4.5,0,0,0-9,0h0a4.435,4.435,0,0,0,.066.65h-.017l.041.238v.028l1.428,8.441h.014a2.983,2.983,0,0,0,5.928,0h.014l1.428-8.441v-.028Z" fill="gray"/>
        </g>
      </g>
      <path id="Path_91599" data-name="Path 91599" d="M1010.854,553.86a.485.485,0,0,1-.23-.056,18.5,18.5,0,1,1,17.066,0,.5.5,0,0,1-.461-.887,17.5,17.5,0,1,0-16.144,0,.5.5,0,0,1-.231.943Z" fill="gray"/>
      <path id="Path_91600" data-name="Path 91600" d="M1027.495,546.521a.493.493,0,0,1-.359-.152.5.5,0,0,1,.011-.707,11.5,11.5,0,0,0-7.786-19.772,11.349,11.349,0,0,0-8.189,3.226,11.511,11.511,0,0,0-.285,16.26c.094.1.189.193.286.287a.5.5,0,1,1-.7.717c-.105-.1-.209-.205-.311-.312a12.513,12.513,0,0,1,.312-17.672,12.5,12.5,0,0,1,17.674.31,12.515,12.515,0,0,1-.308,17.675A.5.5,0,0,1,1027.495,546.521Z" fill="gray"/>
    </g>
  </g>
</svg>
