<svg xmlns="http://www.w3.org/2000/svg" width="48" height="48" viewBox="0 0 48 48">
  <g id="link" transform="translate(-5369 -3403)">
    <g id="矩形_23583" data-name="矩形 23583" transform="translate(5369 3403)" stroke="#707070" stroke-width="1" opacity="0">
      <rect width="48" height="48" stroke="none"/>
      <rect x="0.5" y="0.5" width="47" height="47" fill="none"/>
    </g>
    <path id="share-link" d="M21.13,15.533a1.723,1.723,0,0,0,.107.191c.127.2.423.643.757,1.1L16.5,22.32a1.674,1.674,0,0,0,2.368,2.368L21.9,21.657c.072.131.142.264.206.392a4.423,4.423,0,0,1,.452,1.9c0,1.713-.979,3.605-2.832,5.474l-.154.134a1.7,1.7,0,0,0-.171.171l-.133.154c-1.871,1.853-3.763,2.832-5.475,2.832a4.515,4.515,0,0,1-2.666-.889c-.03-.027-.062-.053-.094-.078l-.163-.125A7.238,7.238,0,0,1,10.158,31a5,5,0,0,1-1.685-3.6c0-1.713.979-3.606,2.832-5.475l.155-.134a1.7,1.7,0,0,0,.17-.17l.134-.154a9.535,9.535,0,0,1,4.224-2.683,1.675,1.675,0,0,0-.8-3.253,12.806,12.806,0,0,0-5.836,3.608c-.029.029-.057.058-.083.089l-.1.111-.111.1c-.031.026-.061.054-.089.083C6.457,22.037,5.125,24.763,5.125,27.4a8.287,8.287,0,0,0,2.667,5.971,10.636,10.636,0,0,0,1.04.914l.054.041a1.621,1.621,0,0,0,.15.125,7.892,7.892,0,0,0,4.755,1.616c2.631,0,5.357-1.332,7.883-3.853.029-.029.057-.059.084-.09l.095-.11.11-.1c.031-.027.061-.055.09-.083,2.52-2.525,3.853-5.251,3.853-7.883a7.746,7.746,0,0,0-.786-3.356l-.013-.027c-.118-.236-.406-.793-.759-1.358l5.4-5.4a1.674,1.674,0,0,0-2.368-2.368L24.4,14.423c-.1-.144-.2-.29-.289-.428a4.388,4.388,0,0,1-.415-1.818c0-1.713.979-3.6,2.832-5.474l.155-.134A1.656,1.656,0,0,0,26.85,6.4l.133-.154c1.871-1.853,3.763-2.832,5.475-2.832a4.514,4.514,0,0,1,2.666.889c.03.027.061.053.094.078l.163.125a7.356,7.356,0,0,1,.712.626,5,5,0,0,1,1.685,3.6c0,1.713-.979,3.605-2.832,5.475l-.155.134a1.662,1.662,0,0,0-.17.17l-.133.154a9.1,9.1,0,0,1-4.348,2.618,1.674,1.674,0,1,0,.709,3.273,12.389,12.389,0,0,0,6.047-3.562c.029-.028.056-.058.083-.089l.1-.111.111-.1c.03-.026.06-.054.089-.083,2.521-2.524,3.853-5.25,3.853-7.883a8.287,8.287,0,0,0-2.667-5.971,10.624,10.624,0,0,0-1.04-.914L37.363,1.8a1.709,1.709,0,0,0-.15-.124A7.892,7.892,0,0,0,32.458.062c-2.631,0-5.357,1.332-7.883,3.853-.029.029-.057.059-.084.09l-.095.11-.111.1c-.031.026-.06.054-.089.083-2.52,2.524-3.853,5.251-3.853,7.883a7.746,7.746,0,0,0,.786,3.356Zm0,0" transform="translate(5369.875 3408.938)" stroke="#fff" stroke-width="0.5"/>
  </g>
</svg>
