<svg xmlns="http://www.w3.org/2000/svg" width="48" height="48" viewBox="0 0 48 48">
  <g id="member-card-icon-3-1hr" transform="translate(19188 2571)">
    <circle id="Ellipse_2073" data-name="Ellipse 2073" cx="24" cy="24" r="24" transform="translate(-19188 -2571)" fill="#7fba00" opacity="0"/>
    <g id="shopping-list" transform="translate(-19177 -2565)">
      <g id="Group_84549" data-name="Group 84549" transform="translate(6.75)">
        <g id="Group_84548" data-name="Group 84548">
          <path id="Path_89133" data-name="Path 89133" d="M172.374,2.25h-2.443a3.375,3.375,0,0,0-6.365,0h-2.441A1.125,1.125,0,0,0,160,3.375v4.5A1.125,1.125,0,0,0,161.125,9h11.249A1.125,1.125,0,0,0,173.5,7.875v-4.5A1.125,1.125,0,0,0,172.374,2.25Z" transform="translate(-160 0.002)" fill="#7fba00"/>
        </g>
      </g>
      <g id="Group_84551" data-name="Group 84551" transform="translate(0 4.501)">
        <g id="Group_84550" data-name="Group 84550">
          <path id="Path_89134" data-name="Path 89134" d="M88.749,64H86.5v3.375a3.375,3.375,0,0,1-3.375,3.375H71.875A3.375,3.375,0,0,1,68.5,67.375V64H66.25A2.25,2.25,0,0,0,64,66.25v27a2.225,2.225,0,0,0,2.25,2.25h22.5A2.225,2.225,0,0,0,91,93.248v-27A2.225,2.225,0,0,0,88.749,64ZM77.171,83.92l-4.5,4.5a1.125,1.125,0,0,1-1.593,0l-2.25-2.25a1.125,1.125,0,1,1,1.591-1.591l1.456,1.454,3.7-3.7a1.126,1.126,0,0,1,1.593,1.591Zm0-9-4.5,4.5a1.125,1.125,0,0,1-1.593,0l-2.25-2.25a1.125,1.125,0,1,1,1.591-1.591l1.456,1.454,3.7-3.7a1.126,1.126,0,0,1,1.593,1.591Zm8.2,11.578h-4.5a1.125,1.125,0,0,1,0-2.25h4.5a1.125,1.125,0,0,1,0,2.25Zm0-9h-4.5a1.125,1.125,0,0,1,0-2.25h4.5a1.125,1.125,0,0,1,0,2.25Z" transform="translate(-64 -64)" fill="#7fba00"/>
        </g>
      </g>
    </g>
  </g>
</svg>
