<svg xmlns="http://www.w3.org/2000/svg" width="48" height="48" viewBox="0 0 48 48">
  <g id="member-card-icon-2" transform="translate(19243 2571)">
    <circle id="Ellipse_2072" data-name="Ellipse 2072" cx="24" cy="24" r="24" transform="translate(-19243 -2571)" fill="#fff" opacity="0"/>
    <g id="eye" transform="translate(-19237 -2558)">
      <path id="Path_89131" data-name="Path 89131" d="M18,96A20.161,20.161,0,0,0,0,107.25a20.025,20.025,0,0,0,36,0A20.161,20.161,0,0,0,18,96Zm8.875,5.963a17.118,17.118,0,0,1,5.254,5.287,17.119,17.119,0,0,1-5.254,5.288,16.5,16.5,0,0,1-17.75,0,17.121,17.121,0,0,1-5.254-5.287,17.117,17.117,0,0,1,5.254-5.288c.137-.088.277-.173.417-.256a9,9,0,1,0,16.917,0Q26.663,101.835,26.875,101.963ZM18,103.663a3.375,3.375,0,1,1-3.375-3.375A3.375,3.375,0,0,1,18,103.663Z" transform="translate(0 -96)" fill="#1c84c6"/>
    </g>
  </g>
</svg>
