<svg xmlns="http://www.w3.org/2000/svg" width="48" height="48" viewBox="0 0 48 48">
  <g id="palette" transform="translate(-851 -50)">
    <rect id="矩形_24419" data-name="矩形 24419" width="48" height="48" transform="translate(851 50)" opacity="0"/>
    <g id="Art_1_" transform="translate(853.59 51.969)">
      <path id="路径_99538" data-name="路径 99538" d="M39.359,20.741C37.834,4.428,22.6,3.127,22.474,3.117,7.6,1.783,3.888,16.348,3.883,16.378c-.059.179-1.407,4.4.729,7.346,1.254,1.729,3.34,2.606,6.2,2.606h2.027c.036,0,.194,0,.229-.006a4.005,4.005,0,0,1,2.721.984,3.732,3.732,0,0,1,.878,2.741c-.366,3.148.533,9.189,6.657,10.057,0,0,.223.011.586.011h0a11.908,11.908,0,0,0,4.192-.651C40.762,34.351,39.372,20.848,39.359,20.741ZM28.951,11.049l.159,0a3.306,3.306,0,0,1,.157,6.608l-.16,0a3.306,3.306,0,0,1-.156-6.608Zm-13,8.072a3.291,3.291,0,0,1-2.29,1.079l-.16,0a3.306,3.306,0,0,1-.154-6.608l.159,0a3.306,3.306,0,0,1,2.446,5.529Zm4.538-4.835-.159,0a3.306,3.306,0,0,1-.157-6.608l.16,0a3.306,3.306,0,0,1,.156,6.608Zm8.768,18.727a3.288,3.288,0,0,1-2.29,1.079l-.159,0a3.306,3.306,0,0,1-.157-6.608l.16,0a3.307,3.307,0,0,1,2.446,5.529ZM32.032,26.4l-.157,0a3.307,3.307,0,0,1-.159-6.61l.159,0a3.307,3.307,0,0,1,.157,6.61Z" transform="translate(0 0)"/>
    </g>
  </g>
</svg>
