<svg xmlns="http://www.w3.org/2000/svg" width="48" height="48" viewBox="0 0 48 48">
  <g id="share" transform="translate(-8725 187)">
    <rect id="Rectangle_23913" data-name="Rectangle 23913" width="48" height="48" transform="translate(8725 -187)" fill="none" opacity="0"/>
    <path id="share-2" data-name="share" d="M30.744,10.547A5.274,5.274,0,1,0,25.47,5.273a5.2,5.2,0,0,0,.256,1.536l-12.442,6.78a7.382,7.382,0,1,0,0,8.822l12.442,6.78a5.2,5.2,0,0,0-.256,1.536,5.338,5.338,0,1,0,1.266-3.388L14.3,20.563a7,7,0,0,0,0-5.122l12.44-6.78a5.24,5.24,0,0,0,4,1.886Zm0,0" transform="translate(8730.982 -181.001)" fill="gray"/>
  </g>
</svg>
