<svg xmlns="http://www.w3.org/2000/svg" width="48" height="48" viewBox="0 0 48 48">
  <g id="txt" transform="translate(-824 -39)">
    <rect id="矩形_24418" data-name="矩形 24418" width="48" height="48" transform="translate(824 39)" fill="gray" opacity="0"/>
    <g id="text-editor" transform="translate(830 45)">
      <g id="组_89020" data-name="组 89020">
        <path id="路径_99539" data-name="路径 99539" d="M34.945,7.734A1.055,1.055,0,0,0,36,6.68V1.055A1.055,1.055,0,0,0,34.945,0H29.32a1.055,1.055,0,0,0-1.055,1.055V2.813H7.734V1.055A1.055,1.055,0,0,0,6.68,0H1.055A1.055,1.055,0,0,0,0,1.055V6.68A1.055,1.055,0,0,0,1.055,7.734H2.813V28.266H1.055A1.055,1.055,0,0,0,0,29.32v5.625A1.055,1.055,0,0,0,1.055,36H6.68a1.055,1.055,0,0,0,1.055-1.055V33.188H28.266v1.758A1.055,1.055,0,0,0,29.32,36h5.625A1.055,1.055,0,0,0,36,34.945V29.32a1.055,1.055,0,0,0-1.055-1.055H33.188V7.734ZM31.078,28.266H29.32a1.055,1.055,0,0,0-1.055,1.055v1.758H7.734V29.32A1.055,1.055,0,0,0,6.68,28.266H4.922V7.734H6.68A1.055,1.055,0,0,0,7.734,6.68V4.922H28.266V6.68A1.055,1.055,0,0,0,29.32,7.734h1.758Z"/>
      </g>
      <path id="路径_99540" data-name="路径 99540" d="M147.523,116H132.055A1.055,1.055,0,0,0,131,117.055v2.813a1.055,1.055,0,0,0,2.109,0v-1.758h5.625v15.469h-1.758a1.055,1.055,0,0,0,0,2.109H142.6a1.055,1.055,0,0,0,0-2.109h-1.758V118.109h5.625v1.758a1.055,1.055,0,0,0,2.109,0v-2.812A1.055,1.055,0,0,0,147.523,116Z" transform="translate(-121.789 -107.844)"/>
    </g>
  </g>
</svg>
